<svg id="svg" version="1.1" xmlns="http://www.w3.org/2000/svg" xmlns:xlink="http://www.w3.org/1999/xlink" width="400" height="400" viewBox="0, 0, 400,400"><g id="svgg"><path id="path0" d="M188.073 73.133 C 135.928 79.705,100.799 133.393,115.405 184.190 C 135.379 253.657,226.606 270.938,269.880 213.453 C 309.826 160.388,280.250 85.970,214.259 73.501 C 209.749 72.648,193.706 72.423,188.073 73.133 M212.222 78.710 C 278.894 88.936,305.816 170.877,258.161 218.531 C 214.704 261.988,140.242 243.996,121.508 185.513 C 104.234 131.586,145.121 76.730,201.667 77.967 C 205.333 78.047,210.083 78.381,212.222 78.710 M163.157 108.000 C 147.529 112.997,151.020 135.741,167.415 135.741 C 182.940 135.741,187.479 115.518,173.490 108.674 C 170.900 107.407,166.011 107.088,163.157 108.000 M228.343 108.000 C 212.705 113.000,216.196 135.741,232.600 135.741 C 248.008 135.741,252.649 115.483,238.789 108.726 C 236.081 107.405,231.252 107.070,228.343 108.000 M175.926 114.537 C 180.507 117.664,178.446 124.815,172.964 124.815 C 168.496 124.815,165.831 120.545,167.880 116.671 C 169.404 113.789,173.311 112.752,175.926 114.537 M230.281 114.442 C 235.057 117.354,233.044 124.809,227.482 124.813 C 222.458 124.818,219.823 119.058,223.211 115.476 C 225.054 113.528,228.060 113.088,230.281 114.442 M161.545 126.169 C 162.792 127.297,162.202 129.286,160.469 129.800 C 159.547 130.074,157.778 128.634,157.778 127.609 C 157.778 125.970,160.272 125.016,161.545 126.169 M241.545 126.169 C 242.792 127.297,242.202 129.286,240.469 129.800 C 239.547 130.074,237.778 128.634,237.778 127.609 C 237.778 125.970,240.272 125.016,241.545 126.169 " stroke="none" fill="#21211f" fill-rule="evenodd"></path><path id="path1" d="M190.000 78.551 C 122.153 87.256,93.586 169.655,141.584 218.202 C 188.985 266.145,270.812 239.331,281.332 172.407 C 289.664 119.398,243.265 71.717,190.000 78.551 M173.821 108.686 C 187.759 115.738,183.017 135.741,167.407 135.741 C 150.913 135.741,147.347 113.694,162.905 107.903 C 165.390 106.978,171.281 107.400,173.821 108.686 M239.006 108.686 C 247.832 113.151,249.838 124.942,242.945 131.834 C 235.979 138.801,223.927 136.748,219.546 127.849 C 213.661 115.894,227.099 102.661,239.006 108.686 M260.000 270.556 L 260.000 301.481 266.667 301.481 L 273.333 301.481 273.333 270.556 L 273.333 239.630 266.667 239.630 L 260.000 239.630 260.000 270.556 M107.037 240.774 C 89.016 242.552,88.519 243.381,88.519 271.649 C 88.519 297.652,90.280 300.712,105.263 300.734 C 113.111 300.746,116.746 299.863,119.281 297.329 C 123.105 293.506,124.222 290.182,124.108 282.963 L 124.075 280.926 119.445 281.040 L 114.815 281.153 114.813 282.892 C 114.804 290.276,108.964 292.643,100.741 288.595 C 97.519 287.009,97.428 286.673,97.268 275.707 C 96.967 255.108,97.918 252.958,107.593 252.357 C 113.830 251.970,115.530 253.425,115.547 259.167 L 115.556 261.852 119.596 261.852 L 123.637 261.852 123.902 258.670 C 125.052 244.865,119.992 239.496,107.037 240.774 M138.945 243.611 C 138.758 243.968,137.680 246.426,136.550 249.074 C 135.420 251.722,134.069 254.847,133.549 256.019 L 132.602 258.148 136.023 258.133 L 139.444 258.119 144.259 251.004 C 146.907 247.091,149.128 243.681,149.194 243.426 C 149.407 242.601,139.380 242.782,138.945 243.611 M197.817 261.327 C 188.385 263.863,183.893 272.606,185.176 285.926 C 186.770 302.464,208.832 307.001,215.718 292.207 C 217.041 289.366,216.991 289.223,213.881 286.882 C 210.324 284.205,210.171 284.154,209.501 285.433 C 205.018 293.995,191.111 290.506,191.111 280.820 C 191.111 270.571,203.467 266.388,208.918 274.792 L 209.503 275.694 213.257 273.234 C 217.634 270.366,217.642 270.322,214.519 266.481 C 210.563 261.617,204.126 259.630,197.817 261.327 M291.101 264.526 C 278.637 268.884,275.319 286.300,285.164 295.690 C 297.397 307.359,316.099 295.042,312.430 277.733 C 310.263 267.507,300.271 261.320,291.101 264.526 M148.889 282.778 L 148.889 301.481 154.815 301.481 L 160.741 301.481 160.741 287.085 L 160.741 272.689 162.500 272.178 C 166.295 271.076,169.463 271.823,171.321 274.259 L 172.310 275.556 175.761 275.556 L 179.213 275.556 179.026 274.167 C 177.867 265.556,172.870 262.916,163.704 266.075 C 162.176 266.601,160.884 267.033,160.833 267.034 C 160.782 267.036,160.741 266.370,160.741 265.556 L 160.741 264.074 154.815 264.074 L 148.889 264.074 148.889 282.778 M240.741 278.343 L 240.741 292.611 239.722 293.053 C 237.507 294.016,232.775 293.646,231.473 292.407 C 229.237 290.282,229.259 290.435,229.259 276.870 L 229.259 264.444 225.926 264.444 L 222.593 264.444 222.577 272.315 C 222.527 296.820,222.623 297.361,227.470 299.777 C 230.247 301.161,233.123 300.913,239.907 298.703 C 240.681 298.452,240.741 298.542,240.741 299.957 L 240.741 301.481 246.852 301.481 L 252.963 301.481 252.963 282.778 L 252.963 264.074 246.852 264.074 L 240.741 264.074 240.741 278.343 M129.259 286.852 L 129.259 301.481 135.926 301.481 L 142.593 301.481 142.593 286.852 L 142.593 272.222 135.926 272.222 L 129.259 272.222 129.259 286.852 M300.206 274.402 C 306.571 277.294,306.567 286.339,300.198 289.454 C 292.951 293.000,285.625 285.099,289.422 277.831 C 291.286 274.265,296.354 272.653,300.206 274.402 " stroke="none" fill="#fbcb04" fill-rule="evenodd"></path><path id="path2" d="M0.000 200.000 L 0.000 400.000 200.000 400.000 L 400.000 400.000 400.000 200.000 L 400.000 0.000 200.000 0.000 L 0.000 0.000 0.000 200.000 M208.148 72.599 C 260.222 77.122,296.826 126.977,286.052 178.704 C 279.398 210.646,254.251 237.013,222.463 245.376 C 175.201 257.809,126.507 229.212,114.642 182.055 C 99.762 122.911,147.260 67.310,208.148 72.599 M170.378 114.352 C 166.410 116.346,166.402 122.023,170.365 124.129 C 173.938 126.028,178.148 123.394,178.148 119.259 C 178.148 116.272,175.666 113.705,172.778 113.705 C 172.167 113.705,171.087 113.996,170.378 114.352 M224.942 114.256 C 222.316 115.452,221.099 119.263,222.516 121.852 C 225.206 126.767,232.778 124.854,232.778 119.259 C 232.778 115.355,228.512 112.631,224.942 114.256 M158.981 126.124 C 157.352 127.268,158.082 129.630,160.066 129.630 C 161.732 129.630,162.567 128.046,161.591 126.738 C 160.676 125.511,160.060 125.366,158.981 126.124 M238.971 126.132 C 237.426 127.214,238.268 129.630,240.191 129.630 C 241.904 129.630,242.716 127.531,241.481 126.296 C 240.590 125.405,240.059 125.370,238.971 126.132 M273.333 241.667 L 273.333 243.704 275.185 243.704 L 277.037 243.704 277.037 245.556 L 277.037 247.407 279.074 247.407 L 281.111 247.407 281.111 260.394 L 281.111 273.381 282.705 271.042 C 287.298 264.301,295.927 261.790,302.835 265.183 C 305.695 266.588,315.173 275.708,317.572 279.362 C 327.365 294.282,312.234 313.897,296.796 306.296 C 294.027 304.933,283.938 295.102,282.202 292.075 L 281.118 290.185 281.115 299.722 L 281.111 309.259 274.444 309.259 L 267.778 309.259 267.778 307.407 L 267.778 305.556 265.926 305.556 L 264.074 305.556 264.074 303.519 L 264.074 301.481 262.407 301.481 L 260.741 301.481 260.741 305.370 L 260.741 309.259 254.630 309.259 L 248.519 309.259 248.519 307.583 L 248.519 305.907 247.417 306.477 C 243.874 308.309,237.686 308.886,235.227 307.614 C 234.143 307.054,227.654 300.920,227.367 300.185 C 227.287 299.981,226.606 299.355,225.853 298.792 L 224.483 297.769 223.706 299.533 C 219.630 308.780,208.663 311.664,199.843 305.808 C 198.804 305.118,195.661 302.252,192.859 299.438 C 186.724 293.279,185.660 291.487,185.258 286.638 L 185.000 283.519 182.619 283.407 C 180.345 283.300,180.171 283.222,178.730 281.685 C 176.492 279.297,174.388 278.821,170.672 279.864 L 168.519 280.468 168.519 294.864 L 168.519 309.259 162.593 309.259 L 156.667 309.259 156.667 307.407 L 156.667 305.556 154.630 305.556 L 152.593 305.556 152.593 303.519 C 152.593 301.502,152.581 301.481,151.481 301.481 L 150.370 301.481 150.370 305.370 L 150.370 309.259 143.704 309.259 L 137.037 309.259 137.037 307.407 L 137.037 305.556 135.000 305.556 L 132.963 305.556 132.963 303.519 L 132.963 301.481 131.321 301.481 C 130.084 301.481,129.628 301.641,129.472 302.130 C 128.149 306.261,122.246 308.527,112.844 308.512 C 104.543 308.499,102.672 307.703,96.564 301.583 C 88.673 293.677,88.519 293.102,88.519 271.649 C 88.519 244.417,89.158 243.089,103.148 241.253 C 113.668 239.873,118.367 240.716,121.087 244.470 C 121.713 245.334,122.729 246.389,123.346 246.816 C 123.962 247.243,124.761 248.044,125.120 248.596 C 125.479 249.148,126.456 250.094,127.291 250.699 C 130.812 253.250,132.435 259.500,131.614 267.353 L 131.376 269.630 127.355 269.630 L 123.333 269.630 123.333 267.750 L 123.333 265.871 121.389 265.976 L 119.444 266.080 119.333 263.966 L 119.222 261.852 117.389 261.852 C 115.664 261.852,115.556 261.795,115.556 260.893 C 115.556 259.841,115.989 259.871,111.098 260.590 C 108.430 260.983,106.257 263.506,105.507 267.081 C 104.817 270.374,104.858 289.969,105.556 290.162 C 111.183 291.723,114.806 288.877,114.813 282.892 L 114.815 281.153 119.429 281.040 L 124.044 280.926 124.152 282.963 L 124.259 285.000 126.111 285.000 L 127.963 285.000 128.075 286.944 C 128.155 288.343,128.337 288.889,128.723 288.889 C 129.175 288.889,129.259 287.582,129.259 280.556 L 129.259 272.222 135.926 272.222 L 142.593 272.222 142.593 274.259 L 142.593 276.296 144.630 276.296 L 146.667 276.296 146.667 278.148 C 146.667 279.959,146.691 280.000,147.778 280.000 L 148.889 280.000 148.889 272.037 L 148.889 264.074 154.815 264.074 L 160.741 264.074 160.741 265.556 C 160.741 266.370,160.782 267.036,160.833 267.034 C 160.884 267.033,162.176 266.601,163.704 266.075 C 171.172 263.501,173.063 264.089,180.179 271.199 L 185.359 276.374 185.816 274.114 C 187.539 265.603,194.833 260.232,203.834 260.847 C 208.519 261.168,210.408 262.317,216.939 268.817 L 222.407 274.259 222.511 269.352 L 222.614 264.444 225.937 264.444 L 229.259 264.444 229.259 266.296 L 229.259 268.148 231.296 268.148 L 233.333 268.148 233.333 270.185 L 233.333 272.222 235.185 272.222 L 237.037 272.222 237.037 283.003 L 237.037 293.784 237.947 293.556 C 238.447 293.430,239.280 293.166,239.798 292.969 L 240.741 292.611 240.741 278.343 L 240.741 264.074 246.852 264.074 L 252.963 264.074 252.963 265.926 L 252.963 267.778 254.795 267.778 L 256.628 267.778 256.740 269.722 L 256.852 271.667 258.426 271.781 L 260.000 271.894 260.000 255.762 L 260.000 239.630 266.667 239.630 L 273.333 239.630 273.333 241.667 M149.259 243.337 C 149.259 243.542,148.747 244.417,148.120 245.281 L 146.981 246.852 150.157 246.959 C 153.800 247.082,153.680 246.956,152.204 249.100 L 151.076 250.741 154.056 250.741 C 157.760 250.741,157.932 250.049,152.112 258.548 L 147.187 265.741 143.791 265.847 L 140.394 265.953 141.107 264.366 L 141.819 262.778 139.243 262.669 C 136.358 262.547,136.313 262.483,137.416 260.052 C 137.818 259.164,138.148 258.380,138.148 258.308 C 138.148 258.237,136.923 258.131,135.425 258.071 L 132.701 257.963 135.420 251.667 C 136.916 248.204,138.388 244.829,138.693 244.167 L 139.247 242.963 144.253 242.963 C 147.372 242.963,149.259 243.104,149.259 243.337 M205.370 278.602 C 201.211 280.081,198.920 283.558,198.898 288.426 L 198.889 290.370 201.019 290.362 C 204.450 290.349,208.010 288.280,209.501 285.433 C 209.838 284.790,210.252 284.462,210.573 284.585 C 211.819 285.063,216.667 289.034,216.675 289.582 C 216.679 289.914,217.596 290.839,218.712 291.639 C 219.828 292.438,220.741 293.299,220.741 293.552 C 220.741 293.805,221.393 294.528,222.190 295.160 L 223.640 296.308 223.121 294.358 C 222.778 293.070,222.600 290.364,222.597 286.389 C 222.595 283.079,222.486 280.370,222.355 280.370 C 222.224 280.370,221.024 281.061,219.688 281.904 L 217.259 283.438 216.685 282.553 C 214.425 279.068,209.195 277.242,205.370 278.602 M300.734 282.204 C 298.044 283.626,296.446 285.844,296.055 288.697 L 295.825 290.370 297.099 290.370 C 300.899 290.370,305.185 285.922,305.185 281.978 C 305.185 281.233,302.291 281.380,300.734 282.204 " stroke="none" fill="#fbfbfb" fill-rule="evenodd"></path><path id="path3" d="M195.093 72.490 C 195.755 72.572,196.838 72.572,197.500 72.490 C 198.162 72.408,197.620 72.341,196.296 72.341 C 194.972 72.341,194.431 72.408,195.093 72.490 M202.685 72.488 C 203.245 72.572,204.162 72.572,204.722 72.488 C 205.282 72.403,204.824 72.333,203.704 72.333 C 202.583 72.333,202.125 72.403,202.685 72.488 M167.123 119.259 C 167.123 119.972,167.199 120.264,167.292 119.907 C 167.386 119.551,167.386 118.968,167.292 118.611 C 167.199 118.255,167.123 118.546,167.123 119.259 M178.234 119.259 C 178.234 119.972,178.310 120.264,178.403 119.907 C 178.497 119.551,178.497 118.968,178.403 118.611 C 178.310 118.255,178.234 118.546,178.234 119.259 M111.992 160.370 C 111.992 162.713,112.052 163.671,112.126 162.500 C 112.199 161.329,112.199 159.412,112.126 158.241 C 112.052 157.069,111.992 158.028,111.992 160.370 M137.593 222.593 C 138.802 223.815,139.875 224.815,139.977 224.815 C 140.079 224.815,139.172 223.815,137.963 222.593 C 136.753 221.370,135.681 220.370,135.579 220.370 C 135.477 220.370,136.383 221.370,137.593 222.593 M273.333 245.556 L 273.333 247.407 275.185 247.407 L 277.037 247.407 277.037 276.481 L 277.037 305.556 272.407 305.556 L 267.778 305.556 267.778 303.519 L 267.778 301.481 265.926 301.481 L 264.074 301.481 264.074 303.519 L 264.074 305.556 265.926 305.556 L 267.778 305.556 267.778 307.407 L 267.778 309.259 274.444 309.259 L 281.111 309.259 281.111 299.803 C 281.111 291.044,281.052 290.177,280.305 288.044 C 279.186 284.846,279.187 279.329,280.308 275.926 C 281.058 273.650,281.102 272.803,281.106 260.463 L 281.111 247.407 279.074 247.407 L 277.037 247.407 277.037 245.556 L 277.037 243.704 275.185 243.704 L 273.333 243.704 273.333 245.556 M122.657 247.434 C 123.034 248.514,124.455 249.441,125.301 249.159 C 125.714 249.021,123.142 246.296,122.600 246.296 C 122.407 246.296,122.432 246.788,122.657 247.434 M143.148 252.588 C 140.959 255.856,139.198 258.124,138.842 258.133 C 138.296 258.147,136.667 261.180,136.667 262.182 C 136.667 262.393,137.808 262.608,139.243 262.669 L 141.819 262.778 141.107 264.366 L 140.394 265.953 143.791 265.847 L 147.187 265.741 152.112 258.548 C 157.932 250.049,157.760 250.741,154.056 250.741 L 151.076 250.741 152.204 249.100 C 153.693 246.936,153.796 247.036,150.093 247.048 L 146.852 247.058 143.148 252.588 M126.795 252.315 C 127.831 254.700,128.512 264.697,127.685 265.386 C 126.910 266.031,123.333 265.878,123.333 265.200 C 123.333 263.133,122.341 261.852,120.741 261.852 L 119.222 261.852 119.333 263.966 L 119.444 266.080 121.389 265.976 L 123.333 265.871 123.333 267.750 L 123.333 269.630 127.374 269.630 L 131.415 269.630 131.680 266.448 C 132.328 258.666,130.418 252.406,126.746 250.278 L 125.628 249.630 126.795 252.315 M150.679 251.065 C 149.733 253.551,142.222 263.194,142.222 261.924 C 142.222 261.611,146.031 252.669,146.685 251.447 C 147.077 250.715,150.953 250.344,150.679 251.065 M108.148 256.675 C 101.938 257.760,101.306 259.585,101.301 276.465 L 101.296 289.040 102.943 289.518 C 105.256 290.188,105.265 290.153,105.048 281.460 C 104.670 266.270,106.099 261.328,111.081 260.593 C 111.912 260.471,113.259 260.272,114.074 260.153 L 115.556 259.935 115.556 258.116 L 115.556 256.296 112.685 256.340 C 111.106 256.364,109.065 256.515,108.148 256.675 M216.167 268.776 C 216.498 269.347,217.282 270.148,217.909 270.556 C 218.981 271.251,220.745 273.811,220.715 274.630 C 220.708 274.833,219.130 276.000,217.208 277.222 L 213.714 279.444 214.913 280.556 C 215.572 281.167,216.372 282.070,216.691 282.562 L 217.272 283.457 219.932 281.736 L 222.593 280.015 222.592 277.137 L 222.592 274.259 219.079 270.998 C 217.029 269.095,215.817 268.169,216.167 268.776 M252.963 269.815 L 252.963 271.852 254.815 271.852 L 256.667 271.852 256.667 288.704 L 256.667 305.556 250.741 305.556 L 244.815 305.556 244.815 303.926 L 244.815 302.296 242.263 303.184 C 235.746 305.450,231.577 305.152,230.960 302.376 C 230.649 300.976,228.191 299.464,227.442 300.212 C 227.179 300.476,234.042 307.001,235.227 307.614 C 237.686 308.886,243.874 308.309,247.417 306.477 L 248.519 305.907 248.519 307.583 L 248.519 309.259 254.630 309.259 L 260.741 309.259 260.741 305.370 C 260.741 303.025,260.594 301.481,260.370 301.481 C 260.130 301.481,260.000 296.303,260.000 286.688 L 260.000 271.894 258.426 271.781 L 256.852 271.667 256.740 269.722 L 256.628 267.778 254.795 267.778 L 252.963 267.778 252.963 269.815 M229.259 278.673 C 229.259 291.891,229.753 293.640,230.000 281.296 L 230.185 272.037 231.667 272.037 L 233.148 272.037 233.246 282.870 L 233.345 293.704 235.191 293.704 L 237.037 293.704 237.037 282.963 L 237.037 272.222 235.185 272.222 L 233.333 272.222 233.333 270.185 L 233.333 268.148 231.296 268.148 L 229.259 268.148 229.259 278.673 M178.279 270.278 C 178.378 270.634,178.568 271.301,178.699 271.759 C 178.863 272.329,179.223 272.593,179.840 272.593 C 181.515 272.593,182.963 275.655,182.963 279.197 C 182.963 279.496,181.902 279.630,179.537 279.631 L 176.111 279.632 177.263 280.335 C 177.897 280.722,178.784 281.554,179.233 282.186 C 180.000 283.262,180.196 283.333,182.398 283.333 L 184.746 283.333 185.011 279.788 L 185.277 276.244 181.926 272.937 C 178.478 269.534,177.968 269.162,178.279 270.278 M198.146 270.716 C 192.369 272.474,189.313 279.395,191.932 284.790 L 192.753 286.481 193.233 283.612 C 194.182 277.942,196.316 274.231,200.133 271.607 L 201.933 270.370 200.503 270.402 C 199.717 270.420,198.656 270.561,198.146 270.716 M310.211 271.970 C 310.314 272.239,311.135 273.074,312.034 273.827 C 315.819 276.990,317.691 284.801,316.115 290.851 C 313.297 301.669,302.482 307.238,293.209 302.646 L 291.047 301.576 292.838 303.400 C 306.931 317.748,328.830 296.518,317.596 279.398 C 315.733 276.559,309.608 270.398,310.211 271.970 M168.519 273.543 C 168.519 274.742,168.596 274.841,169.352 274.610 C 171.133 274.065,171.240 273.858,170.173 273.020 C 168.783 271.927,168.519 272.010,168.519 273.543 M293.145 274.394 C 290.609 275.546,289.153 277.618,288.360 281.204 C 288.028 282.702,288.356 282.450,289.323 280.463 C 289.794 279.495,291.289 277.579,292.644 276.204 C 295.324 273.485,295.350 273.393,293.145 274.394 M200.556 275.329 C 194.106 278.383,192.441 290.000,198.453 290.000 C 198.634 290.000,198.875 288.769,198.989 287.265 C 199.494 280.588,206.527 275.999,211.933 278.820 C 213.600 279.689,213.404 279.053,211.419 277.151 C 208.541 274.392,204.104 273.648,200.556 275.329 M166.481 276.220 L 164.630 276.852 164.533 291.204 L 164.436 305.556 160.551 305.556 L 156.667 305.556 156.667 307.407 L 156.667 309.259 162.593 309.259 L 168.519 309.259 168.519 294.864 L 168.519 280.468 170.805 279.827 C 172.224 279.428,173.628 279.271,174.508 279.412 C 176.229 279.687,176.267 279.441,174.753 277.826 C 172.601 275.530,169.989 275.023,166.481 276.220 M142.593 278.148 L 142.593 280.000 144.444 280.000 L 146.296 280.000 146.296 292.778 L 146.296 305.556 141.667 305.556 L 137.037 305.556 137.037 303.519 L 137.037 301.481 135.000 301.481 L 132.963 301.481 132.963 303.519 L 132.963 305.556 135.000 305.556 L 137.037 305.556 137.037 307.407 L 137.037 309.259 143.704 309.259 L 150.370 309.259 150.370 305.370 C 150.370 301.728,150.323 301.481,149.630 301.481 C 148.906 301.481,148.889 301.235,148.889 290.741 L 148.889 280.000 147.778 280.000 C 146.691 280.000,146.667 279.959,146.667 278.148 L 146.667 276.296 144.630 276.296 L 142.593 276.296 142.593 278.148 M298.412 277.935 C 294.787 278.908,292.222 282.157,292.222 285.775 C 292.222 288.138,292.691 289.502,293.590 289.754 C 293.958 289.857,294.612 290.042,295.044 290.165 C 295.747 290.366,295.853 290.201,296.069 288.569 C 296.567 284.815,300.146 281.481,303.677 281.481 C 304.694 281.481,305.117 281.336,305.019 281.019 C 304.941 280.764,304.775 280.091,304.650 279.524 C 304.293 277.898,301.345 277.147,298.412 277.935 M125.093 285.073 C 124.141 285.224,124.074 285.354,124.074 287.062 L 124.074 288.889 126.111 288.889 C 128.490 288.889,128.565 289.111,127.589 293.252 C 125.643 301.505,121.750 304.261,111.401 304.714 C 103.381 305.065,99.033 304.049,98.051 301.592 C 97.597 300.459,97.137 300.006,95.976 299.550 L 94.484 298.964 95.439 300.408 C 95.965 301.203,96.938 302.188,97.602 302.599 C 98.266 303.009,99.243 303.913,99.772 304.607 C 103.122 308.998,120.224 310.113,125.633 306.292 C 127.120 305.242,129.334 302.769,129.358 302.132 C 129.562 296.744,129.185 288.889,128.723 288.889 C 128.337 288.889,128.155 288.343,128.075 286.944 C 127.954 284.836,127.676 284.662,125.093 285.073 M312.071 287.963 C 311.896 288.370,311.436 289.445,311.049 290.351 C 310.090 292.601,307.694 295.626,305.872 296.890 C 304.065 298.142,304.514 298.431,306.988 297.609 C 310.525 296.434,312.747 293.070,312.514 289.241 C 312.421 287.715,312.313 287.403,312.071 287.963 M215.771 292.101 C 215.380 293.051,214.319 294.738,213.413 295.851 L 211.765 297.874 213.327 296.996 C 214.828 296.152,216.777 294.232,217.626 292.760 C 218.070 291.990,219.791 292.727,220.232 293.877 C 220.944 295.732,216.173 301.697,212.569 303.457 C 206.631 306.358,197.714 304.956,194.815 300.667 C 194.306 299.913,193.263 298.876,192.498 298.362 C 190.149 296.783,191.659 298.607,195.861 302.425 C 206.611 312.192,219.504 310.607,223.948 298.972 L 224.592 297.285 222.666 295.587 C 221.607 294.653,220.741 293.716,220.741 293.505 C 220.741 293.105,217.272 290.369,216.769 290.372 C 216.611 290.373,216.162 291.151,215.771 292.101 M120.902 295.470 C 119.293 297.430,118.967 298.120,120.161 297.037 C 121.008 296.268,122.487 294.058,122.139 294.081 C 122.083 294.084,121.526 294.709,120.902 295.470 M287.037 297.718 C 287.037 297.870,287.808 298.737,288.749 299.645 C 290.477 301.312,290.543 301.310,289.691 299.625 C 289.240 298.732,287.037 297.149,287.037 297.718 M239.146 298.930 C 238.405 299.361,238.761 300.078,240.062 300.774 C 240.661 301.094,240.741 300.982,240.741 299.828 C 240.741 298.456,240.344 298.233,239.146 298.930 M152.593 303.519 L 152.593 305.556 154.444 305.556 L 156.296 305.556 156.296 303.519 L 156.296 301.481 154.444 301.481 L 152.593 301.481 152.593 303.519 " stroke="none" fill="#aaaaaa" fill-rule="evenodd"></path><path id="path4" d="M199.357 72.488 C 199.920 72.573,200.753 72.571,201.209 72.483 C 201.664 72.395,201.204 72.325,200.185 72.328 C 199.167 72.331,198.794 72.403,199.357 72.488 M197.315 78.053 C 198.792 78.123,201.208 78.123,202.685 78.053 C 204.162 77.982,202.954 77.925,200.000 77.925 C 197.046 77.925,195.838 77.982,197.315 78.053 M137.397 98.426 L 135.000 100.926 137.500 98.529 C 138.875 97.211,140.000 96.086,140.000 96.029 C 140.000 95.757,139.623 96.104,137.397 98.426 M261.667 97.778 C 262.670 98.796,263.574 99.630,263.676 99.630 C 263.778 99.630,263.040 98.796,262.037 97.778 C 261.034 96.759,260.130 95.926,260.028 95.926 C 259.926 95.926,260.663 96.759,261.667 97.778 M253.333 97.523 C 253.333 97.587,253.875 98.129,254.537 98.727 L 255.741 99.815 254.653 98.611 C 253.639 97.489,253.333 97.237,253.333 97.523 M181.938 121.852 C 181.938 122.565,182.014 122.856,182.107 122.500 C 182.200 122.144,182.200 121.560,182.107 121.204 C 182.014 120.847,181.938 121.139,181.938 121.852 M281.938 153.333 C 281.938 154.046,282.014 154.338,282.107 153.981 C 282.200 153.625,282.200 153.042,282.107 152.685 C 282.014 152.329,281.938 152.620,281.938 153.333 M117.543 159.444 C 117.544 161.481,117.606 162.268,117.681 161.191 C 117.756 160.115,117.755 158.448,117.679 157.488 C 117.603 156.527,117.542 157.407,117.543 159.444 M281.945 166.852 C 281.949 167.667,282.025 167.956,282.114 167.496 C 282.202 167.035,282.199 166.368,282.106 166.014 C 282.014 165.660,281.941 166.037,281.945 166.852 M139.259 216.111 C 139.950 216.824,140.599 217.407,140.701 217.407 C 140.803 217.407,140.321 216.824,139.630 216.111 C 138.939 215.398,138.290 214.815,138.188 214.815 C 138.086 214.815,138.568 215.398,139.259 216.111 M257.953 218.611 L 255.370 221.296 258.056 218.714 C 260.550 216.315,260.910 215.926,260.638 215.926 C 260.582 215.926,259.373 217.134,257.953 218.611 M206.019 242.478 C 206.375 242.571,206.958 242.571,207.315 242.478 C 207.671 242.384,207.380 242.308,206.667 242.308 C 205.954 242.308,205.662 242.384,206.019 242.478 M273.333 274.444 L 273.333 301.481 270.556 301.481 L 267.778 301.481 267.778 303.519 L 267.778 305.556 272.407 305.556 L 277.037 305.556 277.037 276.481 L 277.037 247.407 275.185 247.407 L 273.333 247.407 273.333 274.444 M123.523 249.537 C 124.527 251.958,124.066 261.852,122.949 261.852 C 122.307 261.852,122.296 261.939,122.797 263.136 C 123.092 263.843,123.333 264.771,123.333 265.200 C 123.333 265.878,126.910 266.031,127.685 265.386 C 127.736 265.344,127.818 262.989,127.868 260.154 C 127.991 253.134,126.390 248.939,123.571 248.894 C 123.397 248.891,123.375 249.181,123.523 249.537 M146.685 251.447 C 146.031 252.669,142.222 261.611,142.222 261.924 C 142.222 263.194,149.733 253.551,150.679 251.065 C 150.953 250.344,147.077 250.715,146.685 251.447 M105.926 252.427 C 105.620 252.492,104.572 252.651,103.595 252.779 C 98.183 253.492,97.006 257.748,97.268 275.653 C 97.417 285.855,97.614 286.868,99.700 288.137 L 100.926 288.884 101.145 276.201 C 101.458 258.073,102.039 256.951,111.389 256.406 C 115.431 256.170,115.500 256.127,114.605 254.397 C 113.675 252.599,109.528 251.657,105.926 252.427 M216.849 270.366 C 216.974 270.568,215.390 271.837,213.330 273.186 C 209.817 275.488,209.631 275.672,210.321 276.155 C 210.726 276.439,211.620 277.329,212.309 278.134 L 213.562 279.597 216.873 277.392 C 218.695 276.179,220.349 275.132,220.548 275.065 C 221.125 274.871,219.609 271.900,218.423 270.903 C 217.346 269.996,216.427 269.683,216.849 270.366 M200.133 271.607 C 196.321 274.227,194.108 278.079,193.252 283.582 L 192.825 286.331 194.227 287.703 C 195.485 288.932,195.597 288.978,195.315 288.148 C 192.613 280.206,200.621 271.908,208.008 274.995 L 209.326 275.545 208.644 274.486 C 207.663 272.958,205.859 271.556,204.061 270.921 C 202.036 270.207,202.217 270.175,200.133 271.607 M163.148 272.046 C 162.130 272.329,161.171 272.567,161.019 272.576 C 160.866 272.585,160.741 279.093,160.741 287.037 L 160.741 301.481 158.519 301.481 L 156.296 301.481 156.296 303.519 L 156.296 305.556 160.370 305.556 L 164.444 305.556 164.444 291.277 L 164.444 276.999 165.810 276.429 C 169.517 274.880,173.241 275.634,175.185 278.327 L 176.111 279.609 179.537 279.619 C 181.909 279.626,182.963 279.496,182.963 279.197 C 182.963 275.586,181.514 272.593,179.766 272.593 C 178.843 272.593,178.802 272.671,178.990 274.074 L 179.189 275.556 175.726 275.556 C 172.618 275.556,172.208 275.475,171.714 274.770 C 171.226 274.073,171.027 274.031,169.971 274.399 C 169.315 274.628,168.720 274.815,168.648 274.815 C 168.577 274.815,168.519 274.170,168.519 273.382 C 168.519 272.014,168.456 271.938,167.130 271.719 C 165.374 271.429,165.366 271.430,163.148 272.046 M230.265 272.081 C 230.119 272.227,230.000 276.535,230.000 281.656 L 230.000 290.966 231.221 292.150 C 233.380 294.241,233.354 294.361,233.246 282.685 L 233.148 272.037 231.839 271.927 C 231.118 271.866,230.410 271.936,230.265 272.081 M252.963 286.667 L 252.963 301.481 246.936 301.481 L 240.910 301.481 239.602 300.404 L 238.295 299.326 235.351 300.031 C 233.732 300.418,232.032 300.736,231.574 300.738 C 230.651 300.741,230.493 301.521,231.095 303.105 C 231.874 305.154,236.525 305.179,242.312 303.167 L 244.815 302.296 244.815 303.926 L 244.815 305.556 250.741 305.556 L 256.667 305.556 256.667 288.704 L 256.667 271.852 254.815 271.852 L 252.963 271.852 252.963 286.667 M311.476 274.535 C 312.540 276.947,313.100 280.868,312.780 283.669 C 312.627 285.012,312.534 287.310,312.574 288.776 C 312.711 293.846,309.174 298.148,304.870 298.148 C 304.566 298.148,303.221 298.600,301.881 299.153 C 298.931 300.369,293.918 300.527,291.146 299.491 C 289.160 298.749,289.107 298.787,290.053 300.280 C 292.539 304.207,301.006 305.383,306.907 302.621 C 316.503 298.131,319.938 282.913,313.167 274.899 C 311.378 272.782,310.632 272.622,311.476 274.535 M292.647 276.204 C 288.120 280.801,287.461 283.684,290.136 287.191 C 292.074 289.732,292.502 289.607,292.319 286.557 C 291.968 280.724,296.992 276.477,302.540 277.916 L 304.412 278.401 303.723 277.441 C 300.446 272.868,296.379 272.414,292.647 276.204 M142.593 290.741 L 142.593 301.481 139.815 301.481 L 137.037 301.481 137.037 303.519 L 137.037 305.556 141.667 305.556 L 146.296 305.556 146.296 292.778 L 146.296 280.000 144.444 280.000 L 142.593 280.000 142.593 290.741 M123.704 289.456 C 123.704 290.637,121.437 295.838,120.566 296.657 C 118.404 298.688,115.661 299.875,111.970 300.377 C 108.495 300.849,99.319 300.721,98.030 300.183 C 97.177 299.826,98.138 302.473,99.135 303.225 C 100.973 304.612,113.137 305.186,117.943 304.113 C 122.758 303.037,126.194 299.170,127.589 293.252 C 128.579 289.053,128.516 288.889,125.926 288.889 C 124.177 288.889,123.704 289.010,123.704 289.456 M217.251 293.278 C 216.559 294.616,214.330 296.584,212.617 297.370 C 211.891 297.703,210.546 298.418,209.630 298.959 C 205.706 301.273,200.307 301.712,196.001 300.067 L 194.040 299.317 194.725 300.491 C 199.493 308.655,216.075 305.417,219.851 295.584 L 220.481 293.946 219.479 293.084 C 218.189 291.974,217.913 291.998,217.251 293.278 " stroke="none" fill="#856e12" fill-rule="evenodd"></path></g></svg>