<svg id="svg" version="1.1" xmlns="http://www.w3.org/2000/svg" xmlns:xlink="http://www.w3.org/1999/xlink" width="400" height="400" viewBox="0, 0, 400,400"><g id="svgg"><path id="path0" d="M147.778 77.970 C 128.687 80.950,111.208 96.376,104.622 116.059 C 100.096 129.585,102.083 145.101,109.988 157.955 C 114.220 164.837,113.754 164.362,154.630 203.531 C 170.111 218.366,186.906 234.487,191.952 239.354 C 196.998 244.222,201.267 248.150,201.438 248.084 C 202.044 247.849,281.704 169.783,283.574 167.593 C 305.647 141.727,301.082 105.322,273.432 86.719 C 250.944 71.590,217.929 76.398,201.977 97.125 L 201.196 98.140 197.913 94.770 C 184.758 81.268,166.293 75.081,147.778 77.970 M167.037 83.876 C 179.677 86.380,190.381 93.260,198.889 104.352 C 201.393 107.617,200.863 107.710,204.114 103.436 C 223.338 78.152,258.683 76.261,279.616 99.396 C 296.104 117.617,296.226 143.063,279.922 163.217 C 278.185 165.364,202.188 240.005,201.433 240.305 C 201.267 240.371,197.084 236.538,192.137 231.787 C 187.190 227.036,169.060 209.628,151.849 193.104 C 134.638 176.579,119.708 161.996,118.672 160.696 C 105.396 144.037,104.209 123.454,115.533 106.238 C 127.632 87.844,146.252 79.759,167.037 83.876 M162.552 134.602 C 146.982 140.519,151.765 163.390,168.390 162.517 C 183.008 161.750,186.990 141.783,173.815 135.314 C 171.257 134.058,165.021 133.664,162.552 134.602 M227.737 134.602 C 212.206 140.505,216.946 163.394,233.518 162.520 C 248.178 161.746,252.198 141.795,239.000 135.314 C 236.443 134.058,230.206 133.664,227.737 134.602 M175.619 140.965 C 178.216 142.292,179.257 146.477,177.559 148.769 C 175.136 152.038,171.257 152.388,168.636 149.572 C 164.299 144.914,169.881 138.034,175.619 140.965 M228.704 140.408 C 235.245 142.191,233.724 151.928,226.992 151.371 C 220.024 150.794,220.062 141.216,227.037 140.035 C 227.139 140.018,227.889 140.186,228.704 140.408 M161.545 152.835 C 163.010 154.161,161.802 156.467,159.767 156.231 C 159.106 156.155,158.528 155.756,158.182 155.135 C 157.040 153.092,159.767 151.227,161.545 152.835 M241.545 152.835 C 242.422 153.629,242.409 154.902,241.514 155.711 C 239.723 157.332,236.998 155.134,238.312 153.128 C 239.013 152.059,240.534 151.921,241.545 152.835 " stroke="none" fill="#242222" fill-rule="evenodd"></path><path id="path1" d="M152.129 83.000 C 118.896 86.257,98.140 122.541,112.850 151.664 C 116.733 159.352,117.102 159.744,151.849 193.104 C 169.060 209.628,187.190 227.036,192.137 231.787 C 197.084 236.538,201.267 240.371,201.433 240.305 C 202.188 240.005,278.185 165.364,279.922 163.217 C 306.769 130.029,285.526 83.521,243.519 83.519 C 226.989 83.518,214.432 89.864,204.114 103.436 C 200.863 107.710,201.393 107.617,198.889 104.352 C 187.221 89.141,169.948 81.254,152.129 83.000 M173.815 135.314 C 186.990 141.783,183.008 161.750,168.390 162.517 C 151.765 163.390,146.982 140.519,162.552 134.602 C 165.021 133.664,171.257 134.058,173.815 135.314 M239.000 135.314 C 252.198 141.795,248.178 161.746,233.518 162.520 C 216.946 163.394,212.206 140.505,227.737 134.602 C 230.206 133.664,236.443 134.058,239.000 135.314 M82.593 236.485 C 68.181 238.260,67.608 239.407,67.598 266.481 C 67.589 293.461,68.947 295.745,85.000 295.737 C 93.787 295.733,95.586 295.303,98.225 292.577 C 102.101 288.573,103.551 284.541,103.088 279.058 L 102.854 276.296 98.507 276.296 C 93.595 276.296,93.719 276.211,93.709 279.574 C 93.690 285.688,87.440 287.597,79.716 283.849 C 76.422 282.250,76.481 282.546,76.481 267.778 C 76.481 254.062,76.555 253.419,78.441 250.622 C 79.725 248.720,80.779 248.249,84.861 247.752 C 92.395 246.836,94.444 248.237,94.444 254.304 L 94.444 257.037 98.651 257.037 L 102.858 257.037 103.112 252.685 C 103.415 247.500,103.079 245.604,101.185 241.815 C 98.395 236.233,94.261 235.048,82.593 236.485 M280.460 245.657 C 278.778 249.574,277.403 252.903,277.405 253.056 C 277.411 253.693,283.570 253.355,284.146 252.685 C 284.637 252.115,292.753 240.188,293.472 238.981 C 293.687 238.620,292.627 238.521,288.633 238.528 L 283.519 238.537 280.460 245.657 M221.627 259.522 C 221.768 262.519,221.968 265.054,222.070 265.156 C 222.172 265.258,226.737 265.515,232.215 265.726 L 242.175 266.111 232.205 274.048 C 226.721 278.414,222.086 282.081,221.905 282.197 C 221.724 282.313,221.501 285.616,221.409 289.537 L 221.242 296.667 238.213 296.667 L 255.185 296.667 255.221 295.833 C 255.240 295.375,255.309 292.958,255.375 290.463 L 255.493 285.926 245.617 285.910 L 235.741 285.894 239.444 282.332 C 241.481 280.373,246.190 275.944,249.907 272.491 L 256.667 266.212 256.667 260.143 L 256.667 254.074 239.018 254.074 L 221.369 254.074 221.627 259.522 M120.370 259.483 C 107.454 262.939,103.507 281.072,113.541 290.868 C 124.280 301.353,141.250 292.867,141.200 277.037 C 141.162 265.175,131.025 256.632,120.370 259.483 M275.851 259.580 C 257.347 265.708,261.091 295.324,280.370 295.324 C 296.731 295.324,303.272 272.341,289.815 262.139 C 285.956 259.214,280.162 258.152,275.851 259.580 M146.296 277.963 L 146.296 296.667 152.222 296.667 L 158.148 296.667 158.148 282.389 L 158.148 268.110 159.537 267.516 C 162.838 266.104,167.025 266.997,168.615 269.452 L 169.444 270.732 173.056 270.736 C 175.707 270.740,176.663 270.618,176.654 270.278 C 176.397 261.154,169.464 257.720,159.722 261.892 L 158.148 262.566 158.148 260.913 L 158.148 259.259 152.222 259.259 L 146.296 259.259 146.296 277.963 M201.481 260.595 C 201.481 261.729,201.384 261.888,200.833 261.646 C 187.198 255.640,180.553 264.515,183.131 285.291 C 184.388 295.425,189.019 298.018,199.213 294.295 C 201.431 293.486,201.481 293.505,201.481 295.185 L 201.481 296.667 207.407 296.667 L 213.333 296.667 213.333 277.963 L 213.333 259.259 207.407 259.259 L 201.481 259.259 201.481 260.595 M302.098 271.204 C 301.794 286.027,301.792 293.476,302.090 295.278 L 302.319 296.667 308.197 296.667 L 314.074 296.667 314.074 282.270 L 314.074 267.874 315.833 267.363 C 319.771 266.220,322.876 267.046,324.636 269.705 L 325.556 271.095 325.556 283.696 L 325.556 296.296 328.830 296.296 L 332.104 296.296 332.325 283.426 C 332.617 266.430,332.142 263.895,328.170 261.267 C 325.549 259.533,320.360 259.770,315.684 261.839 L 314.074 262.551 314.074 260.905 L 314.074 259.259 308.208 259.259 L 302.342 259.259 302.098 271.204 M197.350 269.115 C 198.502 269.443,199.903 270.141,200.463 270.666 L 201.481 271.620 201.481 279.718 L 201.481 287.816 200.093 288.400 C 190.286 292.525,183.221 280.528,189.970 271.211 C 191.833 268.640,193.760 268.092,197.350 269.115 M128.755 269.818 C 134.817 272.838,134.858 281.586,128.824 284.593 C 121.599 288.193,114.029 280.623,117.630 273.398 C 119.713 269.217,124.475 267.685,128.755 269.818 M284.262 269.580 C 289.671 272.037,290.901 279.159,286.619 283.222 C 279.054 290.400,267.843 279.595,274.574 271.612 C 276.752 269.030,281.062 268.126,284.262 269.580 " stroke="none" fill="#cb0c0c" fill-rule="evenodd"></path><path id="path2" d="M0.000 200.000 L 0.000 400.000 200.000 400.000 L 400.000 400.000 400.000 200.000 L 400.000 0.000 200.000 0.000 L 0.000 0.000 0.000 200.000 M165.556 77.816 C 177.402 79.423,190.521 86.331,198.655 95.242 L 200.992 97.803 205.588 93.229 C 233.918 65.039,282.583 76.699,295.017 114.655 C 301.130 133.316,296.851 152.568,283.099 168.275 C 279.285 172.631,201.751 248.185,201.216 248.066 C 200.464 247.898,116.647 167.262,114.673 164.808 C 97.343 143.256,98.007 116.524,116.394 95.538 C 128.710 81.481,146.175 75.185,165.556 77.816 M170.185 141.059 C 166.203 143.520,166.436 148.957,170.603 150.800 C 174.390 152.475,178.210 149.886,178.210 145.644 C 178.210 141.719,173.487 139.020,170.185 141.059 M224.969 140.876 C 221.670 142.372,220.831 146.955,223.378 149.561 C 225.637 151.871,228.756 151.913,231.119 149.664 C 235.552 145.447,230.574 138.335,224.969 140.876 M158.761 152.900 C 157.989 153.753,157.975 154.959,158.730 155.714 C 159.944 156.928,161.944 156.023,161.944 154.259 C 161.944 152.442,159.947 151.589,158.761 152.900 M238.761 152.900 C 236.977 154.871,239.602 157.435,241.481 155.556 C 241.889 155.148,242.222 154.565,242.222 154.259 C 242.222 152.643,239.840 151.707,238.761 152.900 M95.066 236.243 C 97.630 237.128,99.408 238.397,100.443 240.076 C 100.912 240.838,101.420 241.466,101.572 241.472 C 102.208 241.494,108.110 247.712,108.789 249.074 C 110.568 252.642,110.913 254.398,110.815 259.402 C 110.700 265.288,111.097 264.815,106.274 264.815 L 102.222 264.815 102.222 262.936 L 102.222 261.056 100.278 261.151 L 98.333 261.247 98.434 259.090 L 98.534 256.933 96.489 257.174 L 94.444 257.414 94.444 256.267 C 94.444 255.128,94.434 255.122,92.870 255.355 C 84.832 256.555,84.316 257.626,84.138 273.477 C 83.991 286.532,83.711 285.541,87.544 285.550 C 91.498 285.559,93.696 282.904,93.702 278.112 L 93.704 276.410 98.185 276.169 C 103.507 275.883,103.333 275.809,103.333 278.368 L 103.333 280.396 105.185 280.150 L 107.037 279.905 107.037 281.989 C 107.037 283.943,107.093 284.074,107.927 284.074 C 108.813 284.074,108.814 284.068,108.297 282.349 C 104.947 271.216,113.354 258.870,124.314 258.827 C 130.144 258.804,132.777 260.360,140.507 268.397 L 145.911 274.016 146.011 266.545 L 146.111 259.074 152.130 258.972 L 158.148 258.871 158.148 260.586 C 158.148 262.073,158.234 262.266,158.796 262.039 C 166.106 259.074,170.722 259.136,173.626 262.238 C 174.382 263.046,176.749 265.467,178.886 267.619 L 182.772 271.532 183.221 269.313 C 185.017 260.437,191.541 257.389,200.437 261.270 C 200.940 261.489,201.082 261.304,201.178 260.308 L 201.296 259.074 207.407 259.074 L 213.519 259.074 213.630 260.999 L 213.741 262.924 215.482 263.036 L 217.222 263.148 217.334 265.093 L 217.446 267.037 219.279 267.037 L 221.111 267.037 221.111 274.983 L 221.111 282.929 221.944 282.108 C 222.403 281.656,225.011 279.539,227.741 277.403 L 232.704 273.519 231.074 273.333 L 229.444 273.148 229.332 271.389 L 229.219 269.630 227.387 269.630 L 225.556 269.630 225.556 267.593 L 225.556 265.556 223.519 265.556 L 221.481 265.556 221.481 259.630 L 221.481 253.704 239.074 253.704 L 256.667 253.704 256.667 255.741 L 256.667 257.778 258.499 257.778 L 260.332 257.778 260.444 259.722 L 260.556 261.667 262.315 261.780 L 264.074 261.892 264.091 266.594 L 264.108 271.296 265.145 269.074 C 268.689 261.478,277.209 257.092,284.310 259.208 C 285.342 259.515,285.516 259.455,285.876 258.666 L 286.280 257.778 283.696 257.778 C 280.790 257.778,280.738 257.709,281.842 255.278 L 282.556 253.704 279.757 253.704 C 277.248 253.704,276.982 253.637,277.195 253.056 C 277.326 252.699,278.799 249.199,280.469 245.278 L 283.505 238.148 288.811 238.148 C 292.954 238.148,294.059 238.250,293.848 238.611 C 293.699 238.866,293.098 239.782,292.512 240.648 L 291.446 242.222 294.612 242.222 C 298.234 242.222,298.136 242.123,296.649 244.285 L 295.520 245.926 298.501 245.926 C 300.140 245.926,301.481 246.022,301.481 246.140 C 301.481 247.462,291.305 261.111,290.319 261.111 C 289.189 261.111,292.785 265.273,298.294 270.340 C 299.087 271.070,300.212 272.317,300.794 273.111 L 301.852 274.556 301.852 266.722 L 301.852 258.889 307.963 258.889 L 314.074 258.889 314.074 260.595 C 314.074 262.073,314.161 262.266,314.722 262.039 C 322.124 259.037,326.473 259.105,329.460 262.270 C 330.266 263.125,331.693 264.601,332.631 265.552 C 333.569 266.502,334.486 267.518,334.668 267.809 C 334.851 268.100,335.627 268.805,336.392 269.375 C 339.646 271.800,340.000 273.883,340.000 290.574 L 340.000 304.074 336.481 304.074 L 332.963 304.074 332.963 302.222 L 332.963 300.370 331.111 300.370 L 329.259 300.370 329.259 298.333 L 329.259 296.296 327.222 296.296 L 325.185 296.296 325.185 285.556 C 325.185 273.845,325.306 274.424,323.018 275.221 L 321.852 275.628 321.852 290.036 L 321.852 304.444 315.741 304.444 L 309.630 304.444 309.630 302.593 L 309.630 300.741 307.593 300.741 L 305.556 300.741 305.556 298.704 L 305.556 296.667 303.704 296.667 C 302.285 296.667,301.852 296.534,301.852 296.098 C 301.852 295.785,300.835 296.616,299.591 297.945 C 291.784 306.291,283.488 305.241,272.813 294.553 C 265.261 286.992,262.716 282.000,263.405 276.096 C 263.599 274.439,263.440 274.553,257.222 280.539 L 252.037 285.530 253.796 285.543 L 255.556 285.556 255.556 287.573 L 255.556 289.591 257.500 289.703 L 259.444 289.815 259.444 291.667 L 259.444 293.519 261.296 293.519 C 262.978 293.519,263.146 293.595,263.122 294.352 C 263.107 294.810,263.065 297.269,263.029 299.815 L 262.963 304.444 245.926 304.444 L 228.889 304.444 228.889 302.593 L 228.889 300.741 226.914 300.741 L 224.939 300.741 225.108 298.704 L 225.277 296.667 223.194 296.667 L 221.111 296.667 221.111 300.556 L 221.111 304.444 215.185 304.444 L 209.259 304.444 209.259 302.963 C 209.259 301.288,208.971 301.175,206.896 302.042 C 201.167 304.436,196.601 304.108,193.573 301.084 C 192.585 300.097,191.226 298.870,190.553 298.356 C 189.880 297.843,188.988 296.878,188.571 296.212 C 188.154 295.545,187.293 294.667,186.658 294.259 C 184.393 292.806,183.281 289.834,182.776 283.889 C 182.655 282.463,182.466 280.671,182.356 279.907 L 182.157 278.519 179.690 278.517 C 177.350 278.516,177.184 278.458,176.481 277.389 C 174.791 274.815,171.206 273.922,167.500 275.152 L 165.926 275.674 165.926 290.059 L 165.926 304.444 159.815 304.444 L 153.704 304.444 153.704 302.593 L 153.704 300.741 151.852 300.741 L 150.000 300.741 150.000 298.704 L 150.000 296.667 147.963 296.667 C 146.843 296.667,145.926 296.515,145.926 296.331 C 145.926 296.146,144.884 297.023,143.611 298.280 C 135.556 306.234,127.631 305.107,116.958 294.492 L 111.137 288.704 110.726 291.168 C 109.141 300.674,103.568 304.113,90.567 303.607 C 82.644 303.299,81.875 302.941,75.429 296.560 C 67.516 288.728,67.407 288.326,67.407 266.834 C 67.407 239.949,68.179 238.250,81.171 236.509 C 89.392 235.407,92.478 235.348,95.066 236.243 M128.964 277.455 C 125.063 279.386,122.627 285.923,126.019 285.359 C 129.210 284.827,131.244 283.277,132.561 280.370 C 134.212 276.730,132.778 275.567,128.964 277.455 M198.775 277.765 C 196.494 279.767,195.185 282.813,195.185 286.116 L 195.185 288.981 197.130 288.799 C 198.199 288.699,199.532 288.432,200.093 288.207 L 201.111 287.796 201.111 282.231 C 201.111 275.991,201.012 275.801,198.775 277.765 M285.185 277.257 C 282.010 278.632,278.561 284.656,280.518 285.407 C 283.648 286.608,289.259 281.311,289.259 277.155 C 289.259 276.483,286.831 276.544,285.185 277.257 " stroke="none" fill="#fbfbfb" fill-rule="evenodd"></path><path id="path3" d="M155.840 77.305 C 156.506 77.388,157.506 77.386,158.062 77.302 C 158.619 77.217,158.074 77.150,156.852 77.152 C 155.630 77.154,155.174 77.223,155.840 77.305 M242.690 77.673 C 243.253 77.758,244.087 77.756,244.542 77.668 C 244.998 77.580,244.537 77.511,243.519 77.513 C 242.500 77.516,242.127 77.588,242.690 77.673 M118.506 93.241 L 116.481 95.370 118.611 93.346 C 120.590 91.465,120.910 91.111,120.635 91.111 C 120.578 91.111,119.619 92.069,118.506 93.241 M119.630 170.116 C 119.630 170.180,120.171 170.721,120.833 171.320 L 122.037 172.407 120.949 171.204 C 119.935 170.082,119.630 169.830,119.630 170.116 M274.988 176.389 L 272.778 178.704 275.093 176.493 C 276.366 175.277,277.407 174.236,277.407 174.178 C 277.407 173.905,277.042 174.239,274.988 176.389 M128.889 179.005 C 128.889 179.069,129.431 179.610,130.093 180.208 L 131.296 181.296 130.208 180.093 C 129.194 178.971,128.889 178.719,128.889 179.005 M138.148 187.894 C 138.148 187.957,138.690 188.499,139.352 189.097 L 140.556 190.185 139.468 188.981 C 138.454 187.859,138.148 187.608,138.148 187.894 M258.322 192.685 L 256.111 195.000 258.426 192.789 C 259.699 191.574,260.741 190.532,260.741 190.475 C 260.741 190.201,260.375 190.535,258.322 192.685 M147.407 196.783 C 147.407 196.846,147.949 197.388,148.611 197.986 L 149.815 199.074 148.727 197.870 C 147.713 196.748,147.407 196.496,147.407 196.783 M156.667 205.671 C 156.667 205.735,157.208 206.277,157.870 206.875 L 159.074 207.963 157.986 206.759 C 156.972 205.637,156.667 205.385,156.667 205.671 M242.025 208.611 L 239.815 210.926 242.130 208.715 C 243.403 207.499,244.444 206.458,244.444 206.400 C 244.444 206.127,244.079 206.461,242.025 208.611 M165.926 214.560 C 165.926 214.624,166.468 215.166,167.130 215.764 L 168.333 216.852 167.246 215.648 C 166.232 214.526,165.926 214.274,165.926 214.560 M226.100 224.167 L 223.889 226.481 226.204 224.271 C 227.477 223.055,228.519 222.013,228.519 221.956 C 228.519 221.682,228.153 222.016,226.100 224.167 M175.185 223.449 C 175.185 223.513,175.727 224.055,176.389 224.653 L 177.593 225.741 176.505 224.537 C 175.491 223.415,175.185 223.163,175.185 223.449 M184.444 232.338 C 184.444 232.402,184.986 232.944,185.648 233.542 L 186.852 234.630 185.764 233.426 C 184.750 232.304,184.444 232.052,184.444 232.338 M209.803 240.093 L 207.593 242.407 209.907 240.197 C 211.181 238.981,212.222 237.939,212.222 237.882 C 212.222 237.608,211.857 237.942,209.803 240.093 M193.333 240.857 C 193.333 240.920,193.875 241.462,194.537 242.060 L 195.741 243.148 194.653 241.944 C 193.639 240.822,193.333 240.570,193.333 240.857 M101.481 241.685 C 101.481 242.474,102.735 244.029,103.532 244.230 C 104.252 244.410,104.724 244.984,105.391 246.492 C 106.924 249.960,107.148 251.479,106.859 256.483 L 106.592 261.111 104.407 261.111 C 102.458 261.111,102.222 261.030,102.222 260.358 C 102.222 256.773,98.799 255.501,98.330 258.913 C 98.015 261.205,98.080 261.276,100.379 261.154 L 102.222 261.056 102.222 262.936 L 102.222 264.815 106.274 264.815 C 111.097 264.815,110.700 265.288,110.815 259.402 C 110.955 252.213,109.820 249.336,104.949 244.537 C 102.013 241.644,101.481 241.207,101.481 241.685 M287.798 247.801 C 285.589 251.046,283.649 253.513,283.163 253.698 C 282.424 253.979,281.111 256.358,281.111 257.415 C 281.111 257.617,282.262 257.778,283.717 257.778 C 286.243 257.778,286.310 257.801,285.909 258.550 C 285.431 259.444,285.364 259.347,287.037 260.183 C 287.750 260.539,288.654 261.102,289.045 261.434 C 289.437 261.765,289.635 261.829,289.486 261.574 C 289.295 261.246,289.541 261.111,290.329 261.111 C 291.306 261.111,301.481 247.451,301.481 246.140 C 301.481 246.022,300.140 245.926,298.501 245.926 L 295.520 245.926 296.649 244.285 C 298.135 242.126,298.226 242.222,294.688 242.222 L 291.598 242.222 287.798 247.801 M295.185 246.132 C 295.185 246.910,287.525 257.407,286.957 257.407 C 286.192 257.407,285.960 258.111,289.247 250.463 L 291.197 245.926 293.191 245.926 C 294.288 245.926,295.185 246.019,295.185 246.132 M87.262 251.865 C 80.875 252.961,79.880 256.038,80.139 273.889 C 80.310 285.712,79.914 284.193,83.024 284.945 L 84.011 285.183 84.138 273.610 C 84.314 257.600,84.813 256.559,92.889 255.352 L 94.482 255.114 94.371 253.390 L 94.259 251.667 91.667 251.610 C 90.241 251.579,88.259 251.694,87.262 251.865 M256.667 259.630 L 256.667 261.481 258.519 261.481 L 260.370 261.481 260.370 265.891 L 260.370 270.300 252.222 277.971 C 247.741 282.190,244.074 285.722,244.074 285.820 C 244.074 285.917,245.866 285.877,248.056 285.730 L 252.037 285.463 257.461 280.324 C 263.288 274.803,263.207 274.864,263.426 275.833 C 263.506 276.190,263.598 275.815,263.629 275.000 C 263.660 274.185,263.815 273.068,263.972 272.517 C 264.130 271.966,264.208 269.349,264.146 266.703 L 264.033 261.891 262.294 261.779 L 260.556 261.667 260.444 259.722 L 260.332 257.778 258.499 257.778 L 256.667 257.778 256.667 259.630 M149.167 259.164 C 150.847 259.233,153.597 259.233,155.278 259.164 C 156.958 259.096,155.583 259.040,152.222 259.040 C 148.861 259.040,147.486 259.096,149.167 259.164 M201.259 259.408 C 201.145 259.704,201.126 260.333,201.217 260.806 C 201.341 261.461,201.393 261.379,201.431 260.463 L 201.481 259.259 207.367 259.259 L 213.253 259.259 213.517 262.944 L 213.781 266.629 215.502 266.741 L 217.222 266.852 217.319 283.796 L 217.415 300.741 211.300 300.741 L 205.185 300.741 205.185 299.095 L 205.185 297.449 203.610 298.146 C 200.912 299.339,195.791 300.179,193.878 299.741 C 191.811 299.268,191.807 299.523,193.850 301.406 C 196.769 304.097,201.435 304.324,206.896 302.042 C 208.971 301.175,209.259 301.288,209.259 302.963 L 209.259 304.444 215.154 304.444 L 221.048 304.444 221.172 294.537 C 221.241 289.088,221.241 280.671,221.174 275.833 L 221.051 267.037 219.249 267.037 L 217.446 267.037 217.334 265.093 L 217.222 263.148 215.482 263.036 L 213.741 262.924 213.630 260.999 L 213.519 259.074 207.492 258.972 C 202.498 258.888,201.430 258.963,201.259 259.408 M304.926 259.165 C 306.718 259.233,309.551 259.233,311.222 259.164 C 312.892 259.096,311.426 259.040,307.963 259.040 C 304.500 259.041,303.133 259.097,304.926 259.165 M331.389 264.831 C 331.644 265.107,331.852 265.601,331.852 265.929 C 331.852 266.835,332.662 267.662,333.812 267.930 C 335.167 268.245,334.462 267.046,332.326 265.405 C 331.556 264.813,331.134 264.555,331.389 264.831 M176.061 266.163 C 176.418 267.195,176.825 267.607,177.799 267.922 C 179.209 268.378,179.765 269.534,180.218 272.947 L 180.466 274.815 176.992 274.821 L 173.519 274.827 174.630 275.548 C 175.241 275.944,176.074 276.774,176.481 277.392 C 177.182 278.456,177.354 278.516,179.668 278.517 L 182.113 278.519 182.363 274.956 L 182.614 271.394 179.296 268.105 C 175.538 264.379,175.419 264.307,176.061 266.163 M225.556 267.593 L 225.556 269.630 227.387 269.630 L 229.219 269.630 229.332 271.389 L 229.444 273.148 231.127 273.258 C 232.643 273.357,233.037 273.193,235.130 271.591 L 237.451 269.815 233.355 269.710 L 229.259 269.605 229.259 267.814 C 229.259 266.032,229.252 266.022,227.870 265.793 C 225.538 265.408,225.556 265.394,225.556 267.593 M294.630 267.147 C 295.494 268.315,297.037 269.608,297.037 269.164 C 297.037 269.098,296.261 268.300,295.313 267.392 L 293.589 265.741 294.630 267.147 M138.663 267.056 C 138.985 267.575,139.743 268.366,140.348 268.814 C 145.084 272.316,146.470 282.759,143.134 289.811 C 138.630 299.332,124.335 302.846,118.717 295.815 C 117.516 294.311,117.478 294.274,115.926 293.104 C 115.213 292.567,116.470 293.962,118.720 296.205 C 127.520 304.978,136.104 305.693,143.611 298.280 L 145.926 295.995 145.926 284.976 L 145.926 273.957 142.002 270.034 C 139.845 267.876,138.342 266.536,138.663 267.056 M165.926 268.682 C 165.926 270.122,166.066 270.204,167.330 269.503 C 168.139 269.054,168.148 269.005,167.515 268.461 C 166.137 267.275,165.926 267.305,165.926 268.682 M321.852 268.659 C 321.852 269.945,321.866 269.957,322.963 269.574 C 323.574 269.361,324.074 269.131,324.074 269.063 C 324.074 268.995,323.574 268.583,322.963 268.148 L 321.852 267.357 321.852 268.659 M335.141 269.177 C 335.952 270.692,336.296 276.297,336.296 287.990 L 336.296 300.370 334.630 300.370 L 332.963 300.370 332.880 289.167 L 332.797 277.963 332.602 287.222 L 332.407 296.481 330.833 296.595 L 329.259 296.709 329.259 298.540 L 329.259 300.370 331.111 300.370 L 332.963 300.370 332.963 302.222 L 332.963 304.074 336.481 304.074 L 340.000 304.074 340.000 290.574 C 340.000 274.060,339.634 271.824,336.543 269.466 C 335.084 268.354,334.653 268.265,335.141 269.177 M191.996 269.594 C 187.978 272.044,186.378 279.978,188.889 285.000 L 189.815 286.852 190.062 283.148 C 190.509 276.445,191.905 272.116,194.297 270.016 L 195.581 268.889 194.365 268.890 C 193.696 268.891,192.630 269.208,191.996 269.594 M121.012 270.029 C 119.380 270.890,117.558 273.245,117.219 274.929 C 117.089 275.579,116.902 276.444,116.805 276.852 C 116.708 277.259,117.179 276.598,117.851 275.382 C 118.524 274.167,119.953 272.292,121.027 271.216 C 123.146 269.092,123.144 268.903,121.012 270.029 M277.222 269.875 C 275.426 270.821,274.403 271.917,273.473 273.889 C 272.167 276.660,272.398 277.617,273.765 275.098 C 274.399 273.929,275.801 272.137,276.881 271.116 C 278.958 269.152,279.020 268.927,277.222 269.875 M298.949 272.870 C 302.669 280.496,300.936 289.796,294.763 295.346 C 288.788 300.719,279.633 300.920,274.629 295.788 C 272.237 293.335,271.193 292.494,271.716 293.439 C 272.529 294.910,279.436 300.863,281.344 301.736 C 287.743 304.666,294.646 303.231,299.591 297.945 L 301.852 295.528 301.852 285.069 C 301.852 273.524,301.977 274.199,299.314 271.389 C 297.430 269.401,297.372 269.636,298.949 272.870 M163.981 271.333 L 162.222 271.874 162.222 286.308 L 162.222 300.741 157.963 300.741 L 153.704 300.741 153.704 298.704 L 153.704 296.667 151.852 296.667 L 150.000 296.667 150.000 298.704 L 150.000 300.741 151.852 300.741 L 153.704 300.741 153.704 302.593 L 153.704 304.444 159.815 304.444 L 165.926 304.444 165.926 290.059 L 165.926 275.674 167.500 275.152 C 168.366 274.865,170.019 274.635,171.174 274.642 C 173.529 274.656,173.578 274.395,171.578 272.493 C 169.727 270.731,167.195 270.345,163.981 271.333 M319.722 271.354 L 317.778 271.947 317.778 286.344 L 317.778 300.741 313.704 300.741 L 309.630 300.741 309.630 298.704 L 309.630 296.667 307.593 296.667 L 305.556 296.667 305.556 298.704 L 305.556 300.741 307.593 300.741 L 309.630 300.741 309.630 302.593 L 309.630 304.444 315.741 304.444 L 321.852 304.444 321.852 290.036 L 321.852 275.628 323.018 275.221 C 325.286 274.431,325.163 273.880,325.297 285.463 C 325.420 296.006,325.421 295.990,325.396 283.827 C 325.382 277.071,325.254 271.426,325.111 271.284 C 324.572 270.745,321.594 270.784,319.722 271.354 M196.481 273.002 C 192.286 275.439,190.668 279.950,191.646 286.476 C 191.896 288.137,191.948 288.183,194.167 288.676 L 195.185 288.903 195.185 286.077 C 195.185 282.815,196.506 279.757,198.775 277.765 C 200.973 275.835,201.076 276.016,201.228 282.130 C 201.310 285.384,201.336 284.707,201.293 280.456 C 201.253 276.531,201.117 273.215,200.989 273.088 C 200.541 272.640,197.214 272.577,196.481 273.002 M283.327 272.966 C 276.905 274.062,273.354 283.901,278.929 285.151 C 280.178 285.431,280.186 285.425,280.269 284.015 C 280.493 280.236,284.205 276.667,287.912 276.667 C 289.179 276.667,289.181 276.665,288.879 275.325 C 288.419 273.287,286.421 272.438,283.327 272.966 M125.556 273.553 C 120.279 275.839,118.505 283.901,123.012 285.111 L 124.358 285.472 124.538 283.869 C 124.949 280.223,128.015 277.083,131.491 276.749 C 133.514 276.555,133.514 276.555,132.918 274.844 C 132.255 272.943,128.489 272.283,125.556 273.553 M246.654 275.793 L 244.630 277.883 247.130 275.912 C 248.505 274.828,249.630 273.888,249.630 273.822 C 249.630 273.208,248.316 274.078,246.654 275.793 M104.201 280.257 C 103.533 280.387,103.381 280.715,103.275 282.260 L 103.148 284.107 105.000 283.998 L 106.852 283.889 106.964 281.944 C 107.085 279.840,106.904 279.729,104.201 280.257 M140.370 283.438 C 140.370 284.705,137.865 288.802,135.868 290.799 C 133.645 293.021,133.732 293.425,136.211 292.390 C 139.524 291.005,142.763 284.398,140.741 283.148 C 140.537 283.022,140.370 283.152,140.370 283.438 M295.945 284.396 C 295.248 286.496,292.951 289.822,290.993 291.563 C 289.413 292.969,289.649 293.360,291.623 292.609 C 294.561 291.492,296.804 287.884,296.597 284.608 L 296.481 282.778 295.945 284.396 M107.037 285.478 C 107.037 290.463,103.351 296.808,99.444 298.549 C 93.222 301.322,78.476 300.192,76.988 296.828 C 76.589 295.925,76.061 295.184,75.816 295.183 C 75.571 295.182,74.891 294.930,74.304 294.625 C 72.794 293.837,73.381 294.562,77.534 298.615 C 82.369 303.332,88.525 304.709,98.714 303.353 C 107.323 302.207,113.432 292.984,109.938 286.405 C 108.408 283.524,107.037 283.086,107.037 285.478 M255.556 291.462 L 255.556 293.333 257.407 293.333 L 259.259 293.333 259.259 297.037 L 259.259 300.741 244.074 300.741 L 228.889 300.741 228.889 298.704 L 228.889 296.667 227.037 296.667 L 225.185 296.667 225.185 298.118 C 225.185 298.916,225.084 299.833,224.960 300.155 C 224.772 300.646,225.071 300.741,226.812 300.741 L 228.889 300.741 228.889 302.593 L 228.889 304.444 245.926 304.444 L 262.963 304.444 263.029 299.815 C 263.065 297.269,263.107 294.810,263.122 294.352 C 263.146 293.595,262.978 293.519,261.296 293.519 L 259.444 293.519 259.444 291.667 L 259.444 289.815 257.500 289.703 L 255.556 289.591 255.556 291.462 M199.444 294.461 L 197.963 295.106 199.392 295.723 C 201.057 296.441,201.204 296.369,201.045 294.907 L 200.926 293.817 199.444 294.461 M188.835 296.591 C 189.288 297.227,190.119 298.076,190.681 298.476 L 191.703 299.204 191.323 297.565 C 191.079 296.515,190.740 295.924,190.379 295.921 C 190.069 295.918,189.409 295.807,188.913 295.674 L 188.011 295.433 188.835 296.591 " stroke="none" fill="#ababab" fill-rule="evenodd"></path><path id="path4" d="M196.852 93.704 C 197.647 94.519,198.382 95.185,198.484 95.185 C 198.586 95.185,198.018 94.519,197.222 93.704 C 196.427 92.889,195.692 92.222,195.590 92.222 C 195.489 92.222,196.056 92.889,196.852 93.704 M117.963 168.519 C 118.759 169.333,119.493 170.000,119.595 170.000 C 119.697 170.000,119.129 169.333,118.333 168.519 C 117.538 167.704,116.803 167.037,116.702 167.037 C 116.600 167.037,117.167 167.704,117.963 168.519 M279.247 172.130 L 277.222 174.259 279.352 172.235 C 281.330 170.354,281.651 170.000,281.376 170.000 C 281.318 170.000,280.360 170.958,279.247 172.130 M126.667 176.783 C 126.667 176.846,127.208 177.388,127.870 177.986 L 129.074 179.074 127.986 177.870 C 126.972 176.748,126.667 176.496,126.667 176.783 M135.926 185.671 C 135.926 185.735,136.468 186.277,137.130 186.875 L 138.333 187.963 137.246 186.759 C 136.232 185.637,135.926 185.385,135.926 185.671 M262.580 188.426 L 260.556 190.556 262.685 188.531 C 263.856 187.418,264.815 186.459,264.815 186.402 C 264.815 186.127,264.461 186.447,262.580 188.426 M145.185 194.560 C 145.185 194.624,145.727 195.166,146.389 195.764 L 147.593 196.852 146.505 195.648 C 145.491 194.526,145.185 194.274,145.185 194.560 M246.284 204.352 L 244.259 206.481 246.389 204.457 C 248.367 202.576,248.688 202.222,248.413 202.222 C 248.355 202.222,247.397 203.181,246.284 204.352 M154.444 203.449 C 154.444 203.513,154.986 204.055,155.648 204.653 L 156.852 205.741 155.764 204.537 C 154.750 203.415,154.444 203.163,154.444 203.449 M163.704 212.338 C 163.704 212.402,164.245 212.944,164.907 213.542 L 166.111 214.630 165.023 213.426 C 164.009 212.304,163.704 212.052,163.704 212.338 M230.171 220.093 L 228.333 222.037 230.278 220.199 C 232.085 218.491,232.392 218.148,232.116 218.148 C 232.057 218.148,231.182 219.023,230.171 220.093 M172.963 221.227 C 172.963 221.291,173.505 221.832,174.167 222.431 L 175.370 223.519 174.283 222.315 C 173.269 221.193,172.963 220.941,172.963 221.227 M182.222 230.116 C 182.222 230.180,182.764 230.721,183.426 231.320 L 184.630 232.407 183.542 231.204 C 182.528 230.082,182.222 229.830,182.222 230.116 M214.061 235.833 L 212.037 237.963 214.167 235.939 C 216.145 234.058,216.466 233.704,216.191 233.704 C 216.133 233.704,215.175 234.662,214.061 235.833 M89.914 235.824 C 90.580 235.906,91.580 235.905,92.136 235.820 C 92.693 235.736,92.148 235.668,90.926 235.670 C 89.704 235.672,89.248 235.742,89.914 235.824 M191.852 239.444 C 192.543 240.157,193.192 240.741,193.293 240.741 C 193.395 240.741,192.913 240.157,192.222 239.444 C 191.531 238.731,190.882 238.148,190.781 238.148 C 190.679 238.148,191.161 238.731,191.852 239.444 M286.204 238.423 C 287.681 238.493,290.097 238.493,291.574 238.423 C 293.051 238.353,291.843 238.295,288.889 238.295 C 285.935 238.295,284.727 238.353,286.204 238.423 M102.061 243.519 C 103.695 248.082,103.658 257.037,102.006 257.037 C 101.172 257.037,101.163 257.071,101.686 258.321 C 101.981 259.028,102.222 259.945,102.222 260.358 C 102.222 261.030,102.458 261.111,104.407 261.111 L 106.592 261.111 106.859 256.483 C 107.148 251.479,106.924 249.960,105.391 246.492 C 104.727 244.991,104.251 244.410,103.540 244.232 C 103.014 244.099,102.406 243.718,102.190 243.385 C 101.860 242.876,101.839 242.898,102.061 243.519 M289.247 250.463 C 285.960 258.111,286.192 257.407,286.957 257.407 C 287.525 257.407,295.185 246.910,295.185 246.132 C 295.185 246.019,294.288 245.926,293.191 245.926 L 291.197 245.926 289.247 250.463 M84.093 247.789 C 77.072 248.760,76.518 250.206,76.497 267.593 C 76.479 282.237,76.453 282.082,79.279 283.670 C 80.188 284.181,80.715 284.336,80.527 284.037 C 80.348 283.752,80.155 279.102,80.098 273.704 C 79.891 254.160,81.034 251.817,90.831 251.707 C 92.815 251.685,94.440 251.645,94.442 251.619 C 94.619 248.481,90.394 246.917,84.093 247.789 M67.501 252.778 C 67.505 253.593,67.581 253.882,67.669 253.422 C 67.758 252.961,67.755 252.294,67.662 251.940 C 67.569 251.586,67.497 251.963,67.501 252.778 M284.054 252.802 C 283.668 253.267,282.920 253.359,280.304 253.265 C 278.506 253.201,277.036 253.273,277.036 253.426 C 277.038 254.135,283.578 253.716,284.259 252.963 C 284.628 252.556,284.841 252.222,284.732 252.222 C 284.624 252.222,284.318 252.483,284.054 252.802 M230.303 253.981 C 235.257 254.040,243.257 254.040,248.081 253.981 C 252.905 253.923,248.852 253.875,239.074 253.875 C 229.296 253.875,225.349 253.923,230.303 253.981 M146.098 277.963 C 146.098 288.352,146.145 292.655,146.203 287.526 C 146.261 282.397,146.261 273.897,146.203 268.637 C 146.145 263.377,146.098 267.574,146.098 277.963 M302.010 267.222 C 302.010 271.704,302.063 273.486,302.129 271.183 C 302.194 268.880,302.193 265.214,302.128 263.035 C 302.063 260.857,302.009 262.741,302.010 267.222 M221.635 262.963 C 221.666 265.326,221.686 265.371,222.690 265.415 C 223.592 265.455,223.605 265.442,222.799 265.300 C 221.963 265.153,221.874 264.945,221.745 262.847 L 221.604 260.556 221.635 262.963 M256.667 263.852 L 256.667 266.222 252.762 269.839 C 250.556 271.881,249.027 273.560,249.249 273.697 C 249.477 273.839,249.028 274.434,248.176 275.118 C 246.380 276.562,245.859 276.642,247.065 275.290 C 247.559 274.736,245.255 276.842,241.944 279.969 C 238.634 283.096,235.926 285.715,235.926 285.790 C 235.926 285.865,237.718 285.918,239.907 285.909 L 243.889 285.893 252.130 278.093 L 260.370 270.294 260.370 265.888 L 260.370 261.481 258.519 261.481 L 256.667 261.481 256.667 263.852 M213.402 279.722 L 213.333 296.667 207.407 296.667 L 201.481 296.667 201.419 295.093 L 201.357 293.519 201.212 294.907 C 201.044 296.509,201.133 296.470,199.346 295.723 C 198.231 295.257,198.078 295.078,198.525 294.763 C 198.958 294.457,198.917 294.430,198.333 294.635 C 196.664 295.221,193.439 295.900,192.266 295.913 C 190.858 295.928,190.729 298.163,192.079 299.150 C 193.740 300.365,199.756 299.839,203.611 298.142 L 205.185 297.449 205.185 299.095 L 205.185 300.741 211.300 300.741 L 217.415 300.741 217.319 283.796 L 217.222 266.852 215.482 266.740 L 213.741 266.628 213.606 264.703 C 213.531 263.644,213.440 270.403,213.402 279.722 M228.241 265.816 C 229.193 265.965,229.259 266.095,229.259 267.802 L 229.259 269.630 233.442 269.630 L 237.624 269.630 239.907 267.885 C 241.163 266.926,242.156 266.116,242.114 266.085 C 242.072 266.054,238.704 265.945,234.630 265.842 C 230.556 265.740,227.681 265.728,228.241 265.816 M176.080 267.037 C 176.171 267.546,176.359 268.588,176.497 269.352 L 176.749 270.741 173.004 270.741 C 170.944 270.741,169.259 270.609,169.259 270.449 C 169.259 270.288,168.801 269.654,168.241 269.040 C 167.681 268.425,167.432 268.196,167.688 268.530 C 168.083 269.047,168.011 269.203,167.207 269.569 C 165.908 270.161,165.926 270.176,165.926 268.566 C 165.926 266.860,164.360 266.350,161.257 267.046 C 157.848 267.810,158.148 266.325,158.148 282.420 L 158.148 296.667 155.926 296.667 L 153.704 296.667 153.704 298.704 L 153.704 300.741 157.963 300.741 L 162.222 300.741 162.222 286.311 L 162.222 271.881 164.141 271.311 C 167.767 270.234,170.042 270.759,172.155 273.160 L 173.612 274.815 177.039 274.815 L 180.466 274.815 180.218 272.947 C 179.765 269.534,179.209 268.378,177.799 267.922 C 177.100 267.695,176.389 267.195,176.221 266.811 C 175.978 266.256,175.949 266.303,176.080 267.037 M316.481 267.231 C 315.463 267.514,314.505 267.752,314.352 267.761 C 314.199 267.770,314.074 274.278,314.074 282.222 L 314.074 296.667 311.852 296.667 L 309.630 296.667 309.630 298.704 L 309.630 300.741 313.704 300.741 L 317.778 300.741 317.778 286.337 L 317.778 271.934 320.155 271.291 C 323.979 270.255,325.113 270.649,325.283 273.069 L 325.419 275.000 325.479 272.963 C 325.561 270.169,324.694 268.971,323.013 269.557 L 321.852 269.961 321.852 268.548 C 321.852 267.202,321.785 267.123,320.463 266.904 C 318.708 266.614,318.700 266.615,316.481 267.231 M332.112 268.148 C 332.427 269.927,332.452 272.264,332.312 286.923 L 332.222 296.254 330.738 296.404 L 329.254 296.554 330.831 296.518 L 332.407 296.481 332.602 287.222 L 332.797 277.963 332.880 289.167 L 332.963 300.370 334.630 300.370 L 336.296 300.370 336.289 287.870 C 336.280 271.898,335.834 268.396,333.749 267.914 C 333.215 267.790,332.561 267.417,332.297 267.085 C 331.894 266.579,331.864 266.750,332.112 268.148 M139.133 268.163 C 140.846 270.322,141.835 278.405,140.797 281.754 C 140.571 282.483,140.559 283.036,140.768 283.165 C 141.938 283.888,140.361 289.262,138.470 291.001 C 136.912 292.433,133.335 293.605,133.894 292.500 C 134.023 292.245,133.908 292.304,133.639 292.629 C 133.369 292.955,132.981 293.275,132.778 293.339 C 132.574 293.404,131.726 293.759,130.892 294.127 C 127.330 295.703,122.862 295.911,119.352 294.666 C 116.500 293.654,118.414 296.408,121.614 297.922 C 131.374 302.539,142.264 296.469,144.692 285.058 C 145.985 278.984,143.733 271.150,139.929 268.481 C 139.255 268.008,138.897 267.865,139.133 268.163 M295.868 270.113 C 296.855 272.494,296.929 273.686,296.733 284.004 C 296.670 287.293,295.850 289.340,293.910 291.043 C 292.012 292.710,288.986 293.786,289.862 292.483 C 290.040 292.218,289.875 292.343,289.495 292.760 C 289.116 293.177,288.699 293.505,288.569 293.488 C 288.440 293.471,287.652 293.759,286.818 294.127 C 283.086 295.778,278.603 295.918,274.869 294.499 L 272.963 293.775 273.708 294.821 C 278.924 302.146,292.033 300.594,297.741 291.976 C 302.342 285.030,301.517 272.852,296.169 268.773 L 294.917 267.818 295.868 270.113 M194.339 268.785 L 195.530 268.934 194.272 270.039 C 191.899 272.122,190.528 276.407,190.063 283.187 L 189.804 286.980 190.856 287.602 L 191.909 288.224 191.655 286.532 C 190.807 280.877,191.516 277.819,194.401 274.689 C 197.151 271.706,200.971 271.746,201.211 274.761 C 201.325 276.189,201.359 276.068,201.415 274.051 C 201.508 270.639,198.476 268.337,194.202 268.578 C 193.192 268.635,193.197 268.643,194.339 268.785 M122.682 269.167 C 122.731 269.319,121.994 270.218,121.045 271.164 C 120.097 272.109,118.821 273.757,118.211 274.825 C 117.226 276.549,117.084 276.668,116.943 275.883 C 116.855 275.398,116.777 275.750,116.769 276.667 C 116.742 279.868,117.993 282.395,120.462 284.126 C 121.328 284.734,121.518 284.786,121.138 284.313 C 119.577 282.369,120.856 277.202,123.465 274.912 C 125.845 272.822,131.228 272.213,132.457 273.894 C 132.735 274.275,132.963 274.456,132.963 274.298 C 132.963 273.363,130.405 270.640,128.755 269.818 C 126.961 268.924,122.449 268.440,122.682 269.167 M278.728 269.299 C 278.895 269.569,278.737 269.631,278.268 269.482 C 277.863 269.354,277.242 269.506,276.832 269.834 C 276.134 270.393,276.137 270.399,276.920 270.020 C 278.377 269.316,278.281 269.603,276.388 271.605 C 271.577 276.691,271.573 280.685,276.375 284.125 L 277.379 284.845 276.840 283.811 C 273.910 278.195,281.293 270.937,287.526 273.308 L 288.570 273.705 287.840 272.686 C 286.713 271.113,285.490 270.090,283.988 269.462 C 282.376 268.789,278.335 268.663,278.728 269.299 M182.344 276.481 C 182.345 277.907,182.412 278.445,182.493 277.677 C 182.573 276.908,182.571 275.742,182.490 275.084 C 182.408 274.427,182.342 275.056,182.344 276.481 M187.534 278.333 C 187.536 279.963,187.601 280.584,187.679 279.712 C 187.757 278.841,187.756 277.508,187.677 276.749 C 187.597 275.991,187.533 276.704,187.534 278.333 M102.111 276.166 C 102.798 276.315,102.949 276.645,103.072 278.264 L 103.219 280.185 103.183 278.148 C 103.151 276.249,103.086 276.107,102.222 276.050 C 101.443 275.999,101.425 276.018,102.111 276.166 M104.931 284.000 L 103.010 284.111 102.374 286.037 C 101.694 288.097,101.061 289.268,99.839 290.730 C 99.100 291.613,99.099 291.627,99.815 291.146 C 100.222 290.871,99.806 291.346,98.889 292.200 C 95.362 295.485,84.891 297.171,77.973 295.567 C 76.153 295.145,76.201 295.077,77.031 296.931 C 78.493 300.196,93.342 301.268,99.444 298.549 C 103.480 296.751,107.407 289.733,106.968 285.107 L 106.852 283.889 104.931 284.000 M249.736 285.830 C 250.914 285.903,252.748 285.903,253.810 285.828 C 254.872 285.754,253.907 285.693,251.667 285.694 C 249.426 285.695,248.557 285.756,249.736 285.830 M221.250 290.185 C 221.250 292.426,221.311 293.295,221.385 292.116 C 221.459 290.937,221.458 289.104,221.384 288.042 C 221.309 286.980,221.249 287.944,221.250 290.185 M135.717 290.833 L 134.630 292.037 135.833 290.949 C 136.955 289.935,137.207 289.630,136.921 289.630 C 136.857 289.630,136.316 290.171,135.717 290.833 M255.283 293.148 C 255.301 293.963,255.286 295.088,255.250 295.648 L 255.185 296.667 242.037 296.667 L 228.889 296.667 228.889 298.704 L 228.889 300.741 244.074 300.741 L 259.259 300.741 259.259 297.037 L 259.259 293.333 257.433 293.333 C 255.839 293.333,255.584 293.227,255.429 292.500 C 255.331 292.042,255.266 292.333,255.283 293.148 " stroke="none" fill="#c87474" fill-rule="evenodd"></path></g></svg>