<svg id="svg" version="1.1" xmlns="http://www.w3.org/2000/svg" xmlns:xlink="http://www.w3.org/1999/xlink" width="400" height="400" viewBox="0, 0, 400,400"><g id="svgg"><path id="path0" d="M165.926 93.889 L 165.926 122.222 137.778 122.222 L 109.630 122.222 109.630 156.111 L 109.630 190.000 137.778 190.000 L 165.926 190.000 165.926 218.333 L 165.926 246.667 199.813 246.667 L 233.699 246.667 233.794 218.426 L 233.889 190.185 262.130 190.090 L 290.370 189.995 290.370 156.109 L 290.370 122.222 262.037 122.222 L 233.704 122.222 233.704 93.889 L 233.704 65.556 199.815 65.556 L 165.926 65.556 165.926 93.889 M228.148 99.444 L 228.148 127.778 256.481 127.778 L 284.815 127.778 284.815 156.109 L 284.815 184.440 256.574 184.535 L 228.333 184.630 228.238 212.870 L 228.144 241.111 199.813 241.111 L 171.481 241.111 171.481 212.778 L 171.481 184.444 143.148 184.444 L 114.815 184.444 114.815 156.111 L 114.815 127.778 143.148 127.778 L 171.481 127.778 171.481 99.444 L 171.481 71.111 199.815 71.111 L 228.148 71.111 228.148 99.444 M163.069 133.854 C 147.047 139.035,151.317 162.439,168.165 161.784 C 186.417 161.075,186.224 133.946,167.963 133.441 C 165.910 133.384,164.030 133.543,163.069 133.854 M228.254 133.854 C 212.244 139.031,216.503 162.448,233.333 161.782 C 251.598 161.060,251.420 133.947,233.148 133.441 C 231.095 133.384,229.215 133.543,228.254 133.854 M175.926 140.463 C 180.580 143.640,178.440 150.741,172.828 150.741 C 168.347 150.741,165.720 146.201,167.975 142.353 C 169.610 139.563,173.317 138.682,175.926 140.463 M230.281 140.368 C 235.057 143.280,233.044 150.735,227.482 150.739 C 224.721 150.742,222.419 148.983,221.835 146.425 C 220.754 141.683,226.123 137.833,230.281 140.368 M161.545 152.094 C 163.566 153.924,160.910 156.854,158.762 155.165 C 157.589 154.242,157.506 153.235,158.519 152.222 C 159.419 151.322,160.634 151.270,161.545 152.094 M241.545 152.094 C 242.792 153.223,242.202 155.212,240.469 155.726 C 239.547 156.000,237.778 154.560,237.778 153.535 C 237.778 151.896,240.272 150.942,241.545 152.094 " stroke="none" fill="#161515" fill-rule="evenodd"></path><path id="path1" d="M0.000 200.000 L 0.000 400.000 200.000 400.000 L 400.000 400.000 400.000 200.000 L 400.000 0.000 200.000 0.000 L 0.000 0.000 0.000 200.000 M234.074 93.889 L 234.074 122.222 262.222 122.222 L 290.370 122.222 290.370 156.296 L 290.370 190.370 262.222 190.370 L 234.074 190.370 234.074 218.519 L 234.074 246.667 200.000 246.667 L 165.926 246.667 165.926 218.519 L 165.926 190.370 137.593 190.370 L 109.259 190.370 109.259 156.296 L 109.259 122.222 137.593 122.222 L 165.926 122.222 165.926 93.889 L 165.926 65.556 200.000 65.556 L 234.074 65.556 234.074 93.889 M170.378 140.278 C 166.410 142.272,166.402 147.949,170.365 150.055 C 173.938 151.954,178.148 149.320,178.148 145.185 C 178.148 142.198,175.666 139.631,172.778 139.631 C 172.167 139.631,171.087 139.922,170.378 140.278 M224.668 140.448 C 219.678 143.382,222.024 151.175,227.727 150.611 C 230.658 150.322,232.778 148.044,232.778 145.185 C 232.778 141.023,228.219 138.360,224.668 140.448 M158.981 152.050 C 157.915 152.798,157.847 154.627,158.865 155.172 C 160.951 156.289,162.934 154.464,161.591 152.664 C 160.676 151.437,160.060 151.292,158.981 152.050 M238.971 152.058 C 237.426 153.140,238.268 155.556,240.191 155.556 C 241.904 155.556,242.716 153.457,241.481 152.222 C 240.590 151.331,240.059 151.296,238.971 152.058 M151.667 248.459 C 152.685 248.906,154.352 250.100,155.370 251.113 C 156.389 252.126,158.677 254.346,160.455 256.045 C 164.644 260.049,167.087 265.369,166.556 269.329 L 166.367 270.741 171.517 270.741 L 176.667 270.741 176.667 272.447 C 176.667 273.925,176.753 274.118,177.315 273.890 C 187.088 269.927,188.352 270.303,198.213 280.098 L 201.481 283.345 201.481 277.228 L 201.481 271.111 205.000 271.111 L 208.519 271.111 208.519 272.963 L 208.519 274.815 210.351 274.815 L 212.184 274.815 212.295 276.759 L 212.407 278.704 214.167 278.817 L 215.926 278.929 215.926 289.842 L 215.926 300.755 216.944 300.508 C 217.505 300.373,218.336 300.125,218.792 299.957 L 219.621 299.651 219.718 285.289 L 219.815 270.926 225.833 270.824 L 231.852 270.722 231.852 272.564 L 231.852 274.406 233.796 274.518 L 235.741 274.630 235.853 276.574 L 235.965 278.519 237.797 278.519 L 239.630 278.519 239.630 286.476 L 239.630 294.433 245.597 289.717 L 251.565 285.000 249.671 284.888 L 247.778 284.776 247.778 282.944 L 247.778 281.111 245.961 281.111 L 244.144 281.111 243.889 279.259 L 243.634 277.407 241.867 277.407 L 240.101 277.407 239.911 271.759 C 239.807 268.653,239.795 265.986,239.883 265.833 C 239.971 265.681,247.951 265.556,257.614 265.556 L 275.185 265.556 275.185 267.407 L 275.185 269.259 277.018 269.259 L 278.850 269.259 278.962 271.204 L 279.074 273.148 280.833 273.261 L 282.593 273.374 282.593 279.435 L 282.593 285.496 276.388 291.359 L 270.184 297.222 272.129 297.333 L 274.074 297.444 274.074 299.278 L 274.074 301.111 275.926 301.111 L 277.778 301.111 277.778 303.131 L 277.778 305.150 279.630 304.931 L 281.481 304.712 281.481 310.319 L 281.481 315.926 264.444 315.926 L 247.407 315.926 247.407 314.074 L 247.407 312.222 245.370 312.222 L 243.333 312.222 243.333 310.370 L 243.333 308.519 241.481 308.519 L 239.630 308.519 239.630 312.222 L 239.630 315.926 233.519 315.926 L 227.407 315.926 227.407 314.250 L 227.407 312.574 226.305 313.143 C 224.362 314.148,218.848 315.279,216.964 315.058 C 214.419 314.760,213.388 314.091,209.174 310.001 C 207.082 307.970,204.786 305.763,204.071 305.096 C 202.215 303.363,201.787 301.706,201.581 295.463 L 201.401 290.000 198.665 290.000 L 195.928 290.000 194.168 288.194 C 191.806 285.771,189.886 285.441,185.648 286.729 L 184.444 287.094 184.444 301.510 L 184.444 315.926 178.333 315.926 L 172.222 315.926 172.222 314.074 L 172.222 312.222 170.370 312.222 L 168.519 312.222 168.519 310.370 L 168.519 308.519 166.389 308.530 C 164.300 308.541,164.235 308.574,162.993 310.222 C 160.005 314.187,157.475 314.990,147.963 314.996 C 138.442 315.002,137.856 314.786,131.875 309.074 C 129.955 307.241,127.773 305.157,127.027 304.444 C 123.666 301.235,122.992 296.940,122.976 278.626 C 122.951 250.208,123.315 249.626,142.407 247.644 C 145.817 247.290,149.801 247.641,151.667 248.459 M147.963 266.898 C 143.598 267.758,143.331 267.858,142.362 269.005 C 139.912 271.903,139.834 272.378,139.693 285.143 C 139.547 298.407,139.265 297.393,143.099 297.402 C 147.053 297.411,149.251 294.756,149.257 289.964 L 149.259 288.262 153.741 288.021 C 159.018 287.737,158.889 287.687,158.889 290.004 L 158.889 291.817 160.741 291.598 L 162.593 291.378 162.593 293.467 C 162.593 295.448,162.640 295.556,163.519 295.556 L 164.444 295.556 164.444 285.926 L 164.444 276.296 161.111 276.296 L 157.778 276.296 157.778 274.417 L 157.778 272.538 155.833 272.634 L 153.889 272.730 153.943 270.762 L 153.998 268.793 151.999 268.999 L 150.000 269.206 150.000 267.936 C 150.000 266.624,149.820 266.533,147.963 266.898 " stroke="none" fill="#fbfbfb" fill-rule="evenodd"></path><path id="path2" d="M233.880 93.889 C 233.880 109.574,233.926 115.937,233.981 108.028 C 234.037 100.119,234.037 87.286,233.981 79.510 C 233.925 71.733,233.880 78.204,233.880 93.889 M171.481 99.444 L 171.481 127.778 143.148 127.778 L 114.815 127.778 114.815 156.111 L 114.815 184.444 143.148 184.444 L 171.481 184.444 171.481 212.778 L 171.481 241.111 199.813 241.111 L 228.144 241.111 228.238 212.870 L 228.333 184.630 256.574 184.535 L 284.815 184.440 284.815 156.109 L 284.815 127.778 256.481 127.778 L 228.148 127.778 228.148 99.444 L 228.148 71.111 199.815 71.111 L 171.481 71.111 171.481 99.444 M109.437 156.111 C 109.437 174.852,109.482 182.573,109.537 173.269 C 109.592 163.965,109.592 148.631,109.537 139.195 C 109.482 129.758,109.437 137.370,109.437 156.111 M173.601 134.590 C 182.523 138.683,184.646 150.581,177.714 157.645 C 168.385 167.153,152.060 159.789,153.063 146.526 C 153.817 136.553,164.432 130.385,173.601 134.590 M238.786 134.590 C 247.890 138.766,249.867 151.080,242.541 157.982 C 232.985 166.986,217.261 159.571,218.248 146.526 C 219.002 136.553,229.617 130.385,238.786 134.590 M233.880 218.519 C 233.880 234.102,233.926 240.477,233.981 232.685 C 234.037 224.894,234.037 212.144,233.981 204.352 C 233.926 196.560,233.880 202.935,233.880 218.519 M138.148 248.319 C 127.433 249.689,124.645 251.800,123.631 259.313 C 122.946 264.386,122.969 292.613,123.661 296.111 C 124.908 302.414,128.278 307.037,131.623 307.037 C 131.921 307.037,132.358 307.622,132.594 308.336 C 133.515 311.128,141.892 312.332,150.940 310.974 C 157.799 309.943,162.593 304.150,162.593 296.891 L 162.593 295.556 160.534 295.556 C 159.224 295.556,158.560 295.418,158.709 295.177 C 158.838 294.968,158.826 293.302,158.683 291.473 L 158.423 288.148 154.069 288.148 C 149.150 288.148,149.275 288.063,149.264 291.426 C 149.249 296.273,145.626 298.527,139.899 297.253 C 135.407 296.254,135.757 297.249,135.646 285.149 C 135.465 265.546,136.378 263.636,146.204 263.074 L 150.000 262.857 150.000 265.873 L 150.000 268.889 153.459 268.889 C 157.245 268.889,157.778 269.239,157.778 271.727 C 157.778 272.668,157.799 272.675,159.907 272.414 C 162.551 272.087,162.250 272.760,162.335 266.986 C 162.430 260.493,161.227 256.573,158.852 255.640 C 157.949 255.285,157.321 254.741,157.097 254.118 C 155.119 248.614,149.438 246.875,138.148 248.319 M240.000 271.274 C 240.000 277.475,239.727 277.072,244.088 277.321 C 247.629 277.523,247.760 277.621,247.773 280.081 L 247.778 281.088 252.129 281.192 L 256.481 281.296 248.889 287.303 C 244.713 290.606,241.016 293.523,240.673 293.784 C 240.143 294.187,240.009 295.339,239.788 301.389 L 239.528 308.519 243.468 308.519 L 247.407 308.519 247.407 310.370 L 247.407 312.222 262.354 312.222 L 277.300 312.222 277.536 309.722 C 277.666 308.347,277.774 306.665,277.775 305.984 L 277.778 304.745 275.968 304.994 L 274.158 305.243 273.892 301.519 L 273.625 297.796 267.759 297.694 L 261.894 297.593 270.391 289.658 L 278.889 281.723 278.889 277.343 L 278.889 272.963 277.072 272.963 L 275.254 272.963 274.991 269.444 L 274.727 265.926 257.363 265.926 L 240.000 265.926 240.000 271.274 M164.654 289.352 C 164.667 299.384,164.709 307.801,164.746 308.056 C 164.796 308.391,165.839 308.519,168.519 308.519 L 172.222 308.519 172.222 310.370 L 172.222 312.222 176.296 312.222 L 180.370 312.222 180.370 297.819 L 180.370 283.416 182.747 282.772 C 186.401 281.783,188.252 282.192,190.464 284.477 L 192.225 286.296 195.574 286.296 L 198.922 286.296 198.698 284.907 C 197.914 280.051,197.720 279.676,195.784 279.280 C 194.849 279.089,194.594 278.805,194.322 277.655 C 193.011 272.112,184.830 270.242,177.799 273.878 L 176.667 274.463 176.667 272.787 L 176.667 271.111 170.648 271.111 L 164.630 271.112 164.654 289.352 M220.000 285.380 L 220.000 299.648 218.981 300.071 C 218.421 300.304,216.671 300.568,215.093 300.657 L 212.222 300.819 212.222 289.648 L 212.222 278.476 210.648 278.590 L 209.074 278.704 208.879 287.963 L 208.684 297.222 208.599 286.852 C 208.552 281.148,208.407 275.356,208.277 273.981 L 208.041 271.481 204.734 271.481 L 201.428 271.481 201.576 285.833 C 201.734 301.107,201.837 302.050,203.603 304.391 C 204.717 305.866,207.600 307.778,208.711 307.778 C 209.314 307.778,209.580 308.104,209.842 309.167 C 210.504 311.845,215.096 312.105,221.389 309.821 L 223.704 308.981 223.704 310.602 L 223.704 312.222 229.630 312.222 L 235.556 312.222 235.556 295.185 L 235.556 278.148 233.704 278.148 L 231.852 278.148 231.852 274.630 L 231.852 271.111 225.926 271.111 L 220.000 271.111 220.000 285.380 M185.714 279.971 C 186.328 280.648,186.323 280.701,185.611 281.082 C 184.534 281.658,184.444 281.603,184.444 280.370 C 184.444 279.084,184.808 278.969,185.714 279.971 M268.148 285.316 C 268.148 285.388,267.106 286.241,265.833 287.213 L 263.519 288.980 265.556 287.099 C 267.355 285.436,268.148 284.891,268.148 285.316 M219.630 306.680 C 219.630 307.678,219.549 307.761,218.910 307.418 C 217.839 306.845,217.684 306.387,218.418 305.960 C 219.443 305.363,219.630 305.474,219.630 306.680 " stroke="none" fill="#a35b2b" fill-rule="evenodd"></path><path id="path3" d="M178.234 145.185 C 178.234 145.898,178.310 146.190,178.403 145.833 C 178.497 145.477,178.497 144.894,178.403 144.537 C 178.310 144.181,178.234 144.472,178.234 145.185 M123.453 190.278 C 131.362 190.333,144.195 190.333,151.972 190.278 C 159.748 190.222,153.278 190.176,137.593 190.176 C 121.907 190.176,115.545 190.222,123.453 190.278 M248.056 190.278 C 255.847 190.333,268.597 190.333,276.389 190.278 C 284.181 190.222,277.806 190.176,262.222 190.176 C 246.639 190.176,240.264 190.222,248.056 190.278 M157.140 254.046 C 157.412 254.766,158.001 255.306,158.903 255.660 C 161.222 256.571,162.429 260.554,162.335 266.986 C 162.250 272.760,162.551 272.087,159.907 272.414 C 157.799 272.675,157.778 272.668,157.778 271.727 C 157.778 268.779,154.385 267.409,153.871 270.148 C 153.436 272.471,153.660 272.756,155.835 272.641 L 157.778 272.538 157.778 274.417 L 157.778 276.296 161.111 276.296 L 164.444 276.296 164.444 273.519 C 164.444 270.836,164.475 270.741,165.331 270.741 C 168.891 270.741,165.780 261.190,160.546 256.049 C 157.176 252.739,156.496 252.339,157.140 254.046 M142.593 263.362 C 139.956 263.887,139.013 264.411,137.954 265.939 C 135.882 268.929,135.790 269.589,135.685 282.222 C 135.563 296.881,135.393 296.027,138.580 296.797 L 139.567 297.035 139.693 285.277 C 139.868 269.057,140.349 268.043,148.445 266.833 L 150.038 266.595 149.926 264.872 L 149.815 263.148 147.037 263.089 C 145.509 263.057,143.509 263.179,142.593 263.362 M275.185 271.111 L 275.185 272.963 277.037 272.963 L 278.889 272.963 278.889 277.343 L 278.889 281.723 270.397 289.653 C 265.726 294.015,261.969 297.648,262.047 297.726 C 262.125 297.804,263.964 297.748,266.133 297.600 L 270.076 297.331 276.334 291.413 L 282.593 285.495 282.593 279.435 L 282.593 273.374 280.833 273.261 L 279.074 273.148 278.962 271.204 L 278.850 269.259 277.018 269.259 L 275.185 269.259 275.185 271.111 M231.852 276.277 L 231.852 278.148 233.704 278.148 L 235.556 278.148 235.556 295.185 L 235.556 312.222 229.630 312.222 L 223.704 312.222 223.704 310.602 L 223.704 308.981 221.389 309.821 C 215.133 312.092,210.503 311.843,209.850 309.200 C 209.544 307.959,207.790 306.975,207.066 307.639 C 206.806 307.876,213.026 313.717,214.166 314.307 C 216.576 315.553,222.799 314.957,226.305 313.143 L 227.407 312.574 227.407 314.250 L 227.407 315.926 233.519 315.926 L 239.630 315.926 239.630 297.222 L 239.630 278.519 237.797 278.519 L 235.965 278.519 235.853 276.574 L 235.741 274.630 233.796 274.518 L 231.852 274.406 231.852 276.277 M208.601 286.019 L 208.684 297.222 208.879 287.963 L 209.074 278.704 210.643 278.590 L 212.211 278.476 212.309 289.516 L 212.407 300.556 214.167 300.668 L 215.926 300.781 215.926 289.855 L 215.926 278.929 214.167 278.817 L 212.407 278.704 212.295 276.759 L 212.184 274.815 210.351 274.815 L 208.519 274.815 208.601 286.019 M194.255 277.415 C 194.620 279.113,194.726 279.259,195.602 279.259 C 197.438 279.259,197.931 280.160,198.698 284.907 L 198.922 286.296 195.640 286.296 L 192.358 286.296 194.143 288.148 L 195.928 290.000 198.705 290.000 L 201.481 290.000 201.481 286.686 L 201.481 283.373 198.426 280.291 C 194.111 275.939,193.908 275.799,194.255 277.415 M243.708 277.870 C 243.732 280.573,244.108 281.111,245.974 281.111 L 247.778 281.111 247.778 282.963 L 247.778 284.815 249.828 284.815 C 251.718 284.815,252.049 284.677,254.078 283.056 L 256.278 281.296 252.028 281.192 L 247.778 281.088 247.773 280.081 C 247.761 277.760,247.463 277.407,245.512 277.407 C 244.310 277.407,243.705 277.563,243.708 277.870 M184.444 280.357 C 184.444 281.599,184.535 281.657,185.590 281.093 C 186.392 280.663,186.260 280.205,185.165 279.619 C 184.525 279.276,184.444 279.359,184.444 280.357 M182.315 282.855 L 180.370 283.428 180.370 297.825 L 180.370 312.222 176.296 312.222 L 172.222 312.222 172.222 310.370 L 172.222 308.519 170.370 308.519 L 168.519 308.519 168.519 310.370 L 168.519 312.222 170.370 312.222 L 172.222 312.222 172.222 314.074 L 172.222 315.926 178.333 315.926 L 184.444 315.926 184.444 301.510 L 184.444 287.094 185.833 286.617 C 186.597 286.355,188.254 286.146,189.515 286.152 C 192.081 286.166,192.146 285.924,190.097 283.974 C 188.218 282.187,185.774 281.836,182.315 282.855 M266.276 286.542 L 265.000 287.898 266.574 286.665 C 267.440 285.987,268.148 285.376,268.148 285.308 C 268.148 284.866,267.372 285.377,266.276 286.542 M159.571 291.730 C 159.129 291.848,158.922 292.403,158.831 293.724 L 158.704 295.556 160.648 295.556 L 162.593 295.556 162.593 296.891 C 162.593 301.592,159.055 308.005,155.429 309.880 C 150.119 312.626,134.028 311.754,132.731 308.650 C 132.248 307.493,131.061 306.667,129.884 306.667 C 129.298 306.667,135.786 312.877,137.005 313.483 C 139.431 314.688,141.731 315.000,148.148 314.993 C 157.497 314.982,159.808 314.245,162.979 310.262 L 164.444 308.422 164.444 301.989 L 164.444 295.556 163.519 295.556 C 162.643 295.556,162.593 295.444,162.593 293.519 L 162.593 291.481 161.389 291.524 C 160.727 291.548,159.909 291.641,159.571 291.730 M274.074 303.148 C 274.074 305.347,274.056 305.333,276.389 304.947 C 277.772 304.719,277.778 304.711,277.778 302.915 L 277.778 301.111 275.926 301.111 L 274.074 301.111 274.074 303.148 M278.469 305.062 C 277.987 305.190,277.809 305.941,277.601 308.723 L 277.338 312.222 262.373 312.222 L 247.407 312.222 247.407 310.370 L 247.407 308.519 245.370 308.519 L 243.333 308.519 243.333 310.370 L 243.333 312.222 245.370 312.222 L 247.407 312.222 247.407 314.074 L 247.407 315.926 264.444 315.926 L 281.481 315.926 281.481 310.370 L 281.481 304.815 280.278 304.858 C 279.616 304.881,278.802 304.973,278.469 305.062 M218.418 305.960 C 217.684 306.387,217.839 306.845,218.910 307.418 C 219.549 307.761,219.630 307.678,219.630 306.680 C 219.630 305.474,219.443 305.363,218.418 305.960 " stroke="none" fill="#aeaead" fill-rule="evenodd"></path><path id="path4" d="M145.093 247.675 C 145.755 247.757,146.838 247.757,147.500 247.675 C 148.162 247.593,147.620 247.526,146.296 247.526 C 144.972 247.526,144.431 247.593,145.093 247.675 M123.064 264.444 C 123.064 265.361,123.136 265.736,123.224 265.278 C 123.313 264.819,123.313 264.069,123.224 263.611 C 123.136 263.153,123.064 263.528,123.064 264.444 M239.770 266.095 C 239.654 266.396,239.646 266.856,239.751 267.117 C 239.856 267.379,239.955 267.218,239.971 266.759 L 240.000 265.926 257.388 265.926 L 274.776 265.926 274.920 267.780 L 275.064 269.634 275.032 267.687 L 275.000 265.741 257.490 265.645 C 242.328 265.561,239.951 265.622,239.770 266.095 M167.518 271.017 C 169.311 271.085,172.144 271.084,173.814 271.016 C 175.485 270.948,174.019 270.892,170.556 270.892 C 167.093 270.893,165.726 270.949,167.518 271.017 M219.806 271.204 C 219.512 272.002,219.430 299.939,219.722 299.758 C 219.875 299.663,220.000 293.183,220.000 285.358 L 220.000 271.129 226.019 271.018 L 232.037 270.906 226.007 270.823 C 221.459 270.761,219.935 270.855,219.806 271.204 M204.888 271.382 L 208.109 271.509 208.251 273.069 L 208.394 274.630 208.364 272.963 L 208.333 271.296 205.000 271.275 L 201.667 271.255 204.888 271.382 M164.606 285.926 C 164.606 291.324,164.658 293.532,164.721 290.833 C 164.785 288.134,164.785 283.718,164.721 281.019 C 164.658 278.319,164.606 280.528,164.606 285.926 M240.000 277.101 C 240.000 277.270,240.500 277.407,241.111 277.407 C 241.722 277.407,242.222 277.343,242.222 277.264 C 242.222 277.186,241.722 277.048,241.111 276.958 C 240.500 276.868,240.000 276.933,240.000 277.101 M157.389 287.985 C 158.397 288.176,158.492 288.333,158.625 290.024 L 158.768 291.856 158.736 289.910 C 158.704 287.987,158.689 287.962,157.500 287.870 C 156.348 287.782,156.343 287.787,157.389 287.985 M239.761 297.593 C 239.760 299.426,239.823 300.223,239.900 299.363 C 239.978 298.503,239.979 297.003,239.902 296.030 C 239.826 295.056,239.762 295.759,239.761 297.593 M269.888 297.683 L 273.666 297.803 273.801 299.735 L 273.937 301.667 274.006 299.537 L 274.074 297.407 270.093 297.486 L 266.111 297.564 269.888 297.683 " stroke="none" fill="#cda688" fill-rule="evenodd"></path></g></svg>