<svg id="svg" version="1.1" xmlns="http://www.w3.org/2000/svg" xmlns:xlink="http://www.w3.org/1999/xlink" width="400" height="400" viewBox="0, 0, 400,400"><g id="svgg"><path id="path0" d="M124.074 151.481 L 124.074 227.407 200.185 227.407 L 276.296 227.407 276.296 151.481 L 276.296 75.556 200.185 75.556 L 124.074 75.556 124.074 151.481 M173.704 123.928 C 180.955 127.394,184.000 136.047,180.508 143.260 C 176.258 152.034,163.748 153.913,157.011 146.790 C 146.083 135.234,159.347 117.068,173.704 123.928 M238.889 123.931 C 247.870 128.232,249.941 140.023,242.945 147.019 C 237.328 152.637,227.652 152.558,222.253 146.850 C 211.246 135.211,224.452 117.017,238.889 123.931 M68.339 243.905 C 58.357 245.111,55.080 247.364,54.062 253.720 C 53.420 257.726,53.132 285.872,53.694 289.713 C 54.805 297.313,57.253 301.426,61.266 302.433 C 61.792 302.565,62.222 302.786,62.222 302.925 C 62.222 303.064,62.597 303.171,63.056 303.163 C 63.514 303.156,65.368 303.296,67.177 303.474 C 82.071 304.946,90.042 298.802,89.027 286.633 L 88.781 283.682 84.298 283.785 L 79.815 283.889 79.608 286.541 C 79.280 290.761,77.013 293.343,73.648 293.328 C 71.059 293.316,65.741 291.710,66.142 291.061 C 66.248 290.890,66.099 290.840,65.812 290.950 C 64.935 291.286,63.100 289.409,62.631 287.695 C 62.025 285.482,62.293 262.999,62.950 260.926 C 64.310 256.632,66.212 255.502,72.487 255.260 C 78.858 255.015,80.370 256.277,80.370 261.837 L 80.370 264.444 83.667 264.444 L 86.965 264.444 87.371 265.611 C 87.595 266.252,87.778 267.086,87.778 267.463 C 87.778 268.059,88.089 268.148,90.185 268.148 C 92.577 268.148,92.592 268.141,92.542 267.130 C 92.499 266.256,92.469 266.230,92.331 266.944 C 92.061 268.348,88.323 268.187,88.035 266.759 C 87.922 266.199,87.717 265.449,87.579 265.093 C 87.392 264.609,87.515 264.444,88.064 264.444 C 89.023 264.444,89.629 256.444,88.879 253.682 C 88.634 252.777,88.396 251.870,88.352 251.667 C 86.827 244.684,80.905 242.387,68.339 243.905 M187.037 257.963 C 187.037 264.176,186.982 269.259,186.916 269.259 C 186.849 269.259,185.724 268.813,184.416 268.267 C 174.371 264.079,167.893 270.765,168.024 285.185 C 168.119 295.651,169.301 299.560,173.160 302.171 L 175.000 303.416 178.333 303.154 C 180.167 303.010,182.192 302.867,182.835 302.835 C 183.478 302.804,183.926 302.653,183.832 302.500 C 183.737 302.347,183.733 302.222,183.822 302.222 C 183.911 302.222,184.598 301.966,185.348 301.652 L 186.713 301.082 186.597 302.485 L 186.481 303.889 188.333 304.278 C 189.352 304.492,190.466 304.534,190.809 304.371 C 191.152 304.207,193.110 304.074,195.161 304.074 L 198.889 304.074 198.889 279.279 L 198.889 254.483 200.833 254.347 L 202.778 254.211 200.833 254.143 L 198.889 254.074 198.889 250.370 L 198.889 246.667 192.963 246.667 L 187.037 246.667 187.037 257.963 M297.407 258.003 C 297.407 268.660,297.369 269.321,296.759 269.053 C 283.210 263.094,276.484 272.037,279.047 292.607 C 279.868 299.192,282.633 303.333,286.209 303.333 C 286.635 303.333,287.059 303.625,287.152 303.981 C 287.313 304.599,287.324 304.599,287.364 303.981 C 287.397 303.490,287.742 303.330,288.796 303.320 C 290.454 303.304,293.721 302.549,295.648 301.735 L 297.037 301.149 297.037 302.532 L 297.037 303.915 299.167 304.311 C 300.338 304.528,301.352 304.564,301.420 304.390 C 301.488 304.216,303.363 304.074,305.586 304.074 L 309.630 304.074 309.630 279.279 L 309.630 254.483 311.574 254.347 L 313.519 254.211 311.622 254.143 L 309.725 254.074 309.462 250.370 L 309.200 246.667 303.304 246.667 L 297.407 246.667 297.407 258.003 M88.920 251.594 C 89.005 251.655,89.574 251.998,90.185 252.356 L 91.296 253.007 90.422 252.244 C 89.941 251.825,89.372 251.481,89.156 251.481 C 88.941 251.481,88.835 251.532,88.920 251.594 M327.407 266.802 C 314.557 270.562,310.213 288.078,319.779 297.559 C 322.772 300.524,325.517 302.924,325.315 302.398 C 325.171 302.021,325.547 302.039,327.061 302.483 C 330.010 303.347,334.781 303.009,337.545 301.739 C 338.741 301.190,340.241 300.718,340.878 300.690 C 341.584 300.660,341.747 300.582,341.294 300.491 C 340.658 300.364,340.879 300.006,342.818 298.019 C 344.293 296.507,345.547 294.740,346.409 292.958 L 347.734 290.219 347.848 292.239 C 347.911 293.350,347.998 291.259,348.042 287.593 C 348.114 281.499,348.048 280.711,347.273 278.425 L 346.425 275.925 347.379 276.546 C 348.239 277.105,348.284 277.106,347.837 276.561 C 347.564 276.227,347.031 275.856,346.652 275.736 C 346.274 275.616,345.870 275.223,345.756 274.863 C 344.123 269.719,333.456 265.033,327.407 266.802 M113.333 281.052 L 113.333 295.438 111.901 295.867 C 108.596 296.858,105.598 296.369,103.611 294.515 L 102.593 293.565 102.593 284.211 L 102.593 274.857 104.077 274.707 L 105.561 274.557 103.984 274.593 L 102.407 274.630 102.212 283.704 L 102.017 292.778 101.934 279.907 L 101.852 267.037 98.306 267.037 L 94.761 267.037 94.909 281.389 C 95.089 298.817,95.219 299.392,99.598 302.202 C 102.113 303.816,108.196 303.525,111.944 301.612 C 112.946 301.101,112.963 301.111,112.963 302.213 C 112.963 303.491,112.745 303.586,111.788 302.720 C 111.416 302.383,111.111 302.260,111.111 302.446 C 111.111 303.377,116.133 305.011,117.104 304.395 C 117.373 304.225,119.384 304.083,121.574 304.080 L 125.556 304.074 125.556 289.280 L 125.556 274.485 127.315 274.346 L 129.074 274.208 127.355 274.141 L 125.635 274.074 125.370 270.370 L 125.105 266.667 119.219 266.667 L 113.333 266.667 113.333 281.052 M150.000 268.003 C 150.000 269.137,149.902 269.295,149.352 269.053 C 135.802 263.094,129.077 272.037,131.640 292.607 C 132.461 299.192,135.225 303.333,138.802 303.333 C 139.227 303.333,139.652 303.625,139.745 303.981 C 139.906 304.599,139.916 304.599,139.957 303.981 C 139.990 303.490,140.335 303.330,141.389 303.320 C 143.046 303.304,146.313 302.549,148.241 301.735 L 149.630 301.149 149.630 302.532 L 149.630 303.915 151.759 304.311 C 152.931 304.528,153.944 304.564,154.012 304.390 C 154.080 304.216,155.955 304.074,158.179 304.074 L 162.222 304.074 162.222 289.279 L 162.222 274.483 164.167 274.347 L 166.111 274.211 164.207 274.143 L 162.302 274.074 162.037 270.370 L 161.772 266.667 155.886 266.667 L 150.000 266.667 150.000 268.003 M205.185 285.370 L 205.185 304.074 209.055 304.074 L 212.924 304.074 213.060 306.019 L 213.196 307.963 213.265 306.019 L 213.333 304.074 215.370 304.074 L 217.407 304.074 217.407 289.806 L 217.407 275.537 218.426 275.137 C 220.107 274.477,223.927 274.294,225.181 274.813 C 226.675 275.432,228.368 277.413,227.737 277.803 C 227.081 278.209,228.853 278.355,232.713 278.214 L 235.982 278.094 235.736 276.640 C 235.552 275.552,235.615 275.182,235.986 275.174 C 236.306 275.167,236.252 275.029,235.833 274.785 C 235.477 274.578,235.185 274.023,235.185 273.553 C 235.185 268.211,225.527 265.820,218.540 269.433 L 217.407 270.019 217.407 268.343 L 217.407 266.667 211.296 266.667 L 205.185 266.667 205.185 285.370 M260.741 267.963 C 260.741 268.676,260.686 269.259,260.619 269.259 C 260.553 269.259,259.428 268.813,258.119 268.267 C 248.390 264.210,241.665 270.772,241.730 284.259 C 241.800 298.860,244.452 303.720,252.037 303.145 C 253.870 303.006,255.896 302.867,256.539 302.835 C 257.181 302.804,257.630 302.653,257.535 302.500 C 257.441 302.347,257.437 302.222,257.526 302.222 C 257.615 302.222,258.301 301.966,259.052 301.652 L 260.417 301.082 260.301 302.485 L 260.185 303.889 262.037 304.278 C 263.056 304.492,264.170 304.534,264.513 304.371 C 264.856 304.207,266.814 304.074,268.865 304.074 L 272.593 304.074 272.593 289.279 L 272.593 274.483 274.537 274.347 L 276.481 274.211 274.537 274.143 L 272.593 274.074 272.593 270.370 L 272.593 266.667 266.667 266.667 L 260.741 266.667 260.741 267.963 M143.020 277.231 C 141.867 278.201,139.981 281.567,140.026 282.573 C 140.040 282.889,140.288 282.505,140.576 281.719 C 142.054 277.688,143.830 276.174,146.393 276.760 C 149.726 277.523,149.798 277.733,149.932 287.196 L 150.050 295.445 148.266 295.959 C 145.349 296.797,139.935 296.189,140.609 295.098 C 140.758 294.857,140.680 294.808,140.411 294.975 C 139.511 295.531,138.890 294.398,138.829 292.084 L 138.768 289.815 138.550 291.852 L 138.331 293.889 137.418 292.222 C 134.320 286.569,137.831 276.296,142.861 276.296 L 144.131 276.296 143.020 277.231 M179.563 277.685 C 178.197 279.115,177.221 280.678,177.513 280.970 C 177.604 281.060,177.887 280.631,178.142 280.016 C 178.788 278.454,181.378 276.177,182.161 276.480 C 182.500 276.611,183.212 276.806,183.742 276.913 C 184.272 277.020,185.154 277.467,185.702 277.906 L 186.697 278.704 186.925 286.915 L 187.152 295.127 185.891 295.650 C 183.299 296.725,177.778 296.628,177.778 295.507 C 177.778 295.330,177.653 295.212,177.500 295.244 C 176.269 295.505,175.925 294.689,175.857 291.349 L 175.788 287.963 175.572 291.111 L 175.356 294.259 174.301 292.094 C 171.295 285.923,174.476 276.296,179.521 276.296 L 180.891 276.296 179.563 277.685 M253.267 277.685 C 251.901 279.115,250.925 280.678,251.216 280.970 C 251.307 281.060,251.590 280.631,251.845 280.016 C 252.492 278.454,255.081 276.177,255.865 276.480 C 256.204 276.611,256.915 276.806,257.446 276.913 C 257.976 277.020,258.858 277.467,259.406 277.906 L 260.401 278.704 260.629 286.915 L 260.856 295.127 259.595 295.650 C 257.003 296.725,251.481 296.628,251.481 295.507 C 251.481 295.330,251.356 295.212,251.204 295.244 C 249.973 295.505,249.629 294.689,249.561 291.349 L 249.492 287.963 249.276 291.111 L 249.060 294.259 248.005 292.094 C 244.999 285.923,248.180 276.296,253.224 276.296 L 254.595 276.296 253.267 277.685 M290.428 277.231 C 289.275 278.201,287.388 281.567,287.434 282.573 C 287.448 282.889,287.695 282.505,287.983 281.719 C 289.462 277.688,291.238 276.174,293.800 276.760 C 297.134 277.523,297.205 277.733,297.340 287.196 L 297.457 295.445 295.673 295.959 C 292.757 296.797,287.343 296.189,288.017 295.098 C 288.166 294.857,288.088 294.808,287.819 294.975 C 286.918 295.531,286.297 294.398,286.236 292.084 L 286.176 289.815 285.957 291.852 L 285.739 293.889 284.825 292.222 C 281.728 286.569,285.239 276.296,290.268 276.296 L 291.538 276.296 290.428 277.231 M335.443 277.165 C 337.023 277.984,338.595 279.577,338.297 280.059 C 338.138 280.316,338.197 280.384,338.446 280.230 C 338.981 279.899,339.837 281.586,340.180 283.646 C 340.945 288.248,336.922 292.932,332.185 292.955 C 330.329 292.964,328.148 292.348,328.148 291.816 C 328.148 291.632,327.918 291.481,327.636 291.481 C 326.791 291.481,324.521 288.675,324.024 287.016 C 323.439 285.063,324.608 282.577,327.746 279.102 C 329.449 277.216,329.519 277.092,328.175 278.333 C 327.293 279.148,325.926 280.799,325.138 282.002 C 323.617 284.322,323.196 283.920,324.400 281.296 C 325.516 278.863,328.586 276.329,329.836 276.809 C 330.117 276.917,330.458 276.825,330.594 276.605 C 330.915 276.086,334.062 276.449,335.443 277.165 M225.719 277.243 C 225.012 277.809,225.012 277.813,225.741 277.478 C 226.148 277.290,226.731 277.044,227.037 276.931 C 227.517 276.753,227.514 276.721,227.015 276.696 C 226.698 276.680,226.114 276.926,225.719 277.243 M335.097 279.892 C 335.558 279.980,336.224 279.977,336.578 279.884 C 336.932 279.791,336.556 279.719,335.741 279.723 C 334.926 279.727,334.636 279.803,335.097 279.892 M239.259 280.907 C 239.259 281.289,238.702 281.482,237.315 281.579 L 235.370 281.715 237.500 281.783 C 239.406 281.845,239.630 281.774,239.630 281.111 C 239.630 280.704,239.546 280.370,239.444 280.370 C 239.343 280.370,239.259 280.612,239.259 280.907 M138.982 287.963 C 138.986 288.778,139.062 289.068,139.151 288.607 C 139.239 288.146,139.236 287.479,139.143 287.125 C 139.051 286.771,138.978 287.148,138.982 287.963 M286.390 287.963 C 286.394 288.778,286.470 289.068,286.558 288.607 C 286.647 288.146,286.643 287.479,286.551 287.125 C 286.458 286.771,286.386 287.148,286.390 287.963 M139.716 288.889 C 139.716 289.602,139.792 289.894,139.885 289.537 C 139.978 289.181,139.978 288.597,139.885 288.241 C 139.792 287.884,139.716 288.176,139.716 288.889 M287.123 288.889 C 287.123 289.602,287.199 289.894,287.292 289.537 C 287.386 289.181,287.386 288.597,287.292 288.241 C 287.199 287.884,287.123 288.176,287.123 288.889 M347.257 295.362 C 346.937 296.640,344.704 299.062,343.317 299.636 C 342.702 299.891,342.272 300.173,342.361 300.262 C 342.700 300.601,344.737 299.250,346.008 297.843 C 347.280 296.435,348.037 294.951,347.671 294.584 C 347.575 294.488,347.389 294.839,347.257 295.362 M346.296 301.667 C 345.397 302.583,344.744 303.333,344.846 303.333 C 344.948 303.333,345.767 302.583,346.667 301.667 C 347.566 300.750,348.219 300.000,348.117 300.000 C 348.015 300.000,347.196 300.750,346.296 301.667 M87.946 303.426 L 86.481 305.000 88.056 303.536 C 89.519 302.174,89.800 301.852,89.520 301.852 C 89.459 301.852,88.751 302.560,87.946 303.426 M147.571 303.128 C 147.966 303.445,148.550 303.691,148.867 303.674 C 149.366 303.649,149.369 303.617,148.889 303.439 C 148.583 303.326,148.000 303.080,147.593 302.892 C 146.864 302.557,146.863 302.561,147.571 303.128 M294.978 303.128 C 295.374 303.445,295.957 303.691,296.274 303.674 C 296.773 303.649,296.776 303.617,296.296 303.439 C 295.991 303.326,295.407 303.080,295.000 302.892 C 294.271 302.557,294.271 302.561,294.978 303.128 M334.167 306.562 C 334.727 306.646,335.644 306.646,336.204 306.562 C 336.764 306.477,336.306 306.407,335.185 306.407 C 334.065 306.407,333.606 306.477,334.167 306.562 " stroke="none" fill="#b35c93" fill-rule="evenodd"></path><path id="path1" d="M118.519 151.481 L 118.519 232.963 200.185 232.963 L 281.852 232.963 281.852 151.481 L 281.852 70.000 200.185 70.000 L 118.519 70.000 118.519 151.481 M276.296 151.481 L 276.296 227.407 200.185 227.407 L 124.074 227.407 124.074 151.481 L 124.074 75.556 200.185 75.556 L 276.296 75.556 276.296 151.481 M163.069 123.113 C 152.867 126.412,149.646 139.002,157.011 146.790 C 165.076 155.317,180.015 150.730,181.781 139.184 C 183.380 128.737,173.067 119.880,163.069 123.113 M227.368 123.447 C 212.442 129.710,216.476 150.926,232.593 150.926 C 251.710 150.926,252.074 123.225,232.963 122.677 C 229.960 122.591,229.140 122.704,227.368 123.447 M175.552 129.576 C 178.241 131.018,179.185 134.539,177.605 137.234 C 173.970 143.437,164.519 138.211,167.880 131.857 C 168.876 129.972,170.663 128.889,172.778 128.889 C 173.599 128.889,174.847 129.198,175.552 129.576 M230.408 129.730 C 234.944 132.760,232.908 140.000,227.519 140.000 C 223.726 140.000,221.092 136.751,221.877 133.040 C 222.619 129.532,227.359 127.693,230.408 129.730 M161.699 141.664 C 162.855 143.429,161.312 145.502,159.376 144.786 C 157.805 144.204,157.391 142.609,158.519 141.481 C 159.549 140.451,160.957 140.532,161.699 141.664 M241.545 141.354 C 242.924 142.601,242.037 144.907,240.179 144.907 C 238.856 144.907,237.662 143.564,237.992 142.448 C 238.482 140.792,240.304 140.230,241.545 141.354 M88.764 253.241 C 89.624 256.030,89.101 264.444,88.067 264.444 C 87.515 264.444,87.391 264.608,87.579 265.093 C 87.717 265.449,87.922 266.199,88.035 266.759 C 88.228 267.716,88.359 267.778,90.199 267.778 L 92.157 267.778 92.388 266.389 C 93.387 260.397,92.156 253.590,89.818 252.164 C 88.233 251.197,88.157 251.275,88.764 253.241 M198.889 279.247 L 198.889 304.049 194.907 304.154 L 190.926 304.259 190.813 306.019 L 190.700 307.778 196.646 307.778 L 202.593 307.778 202.593 281.111 L 202.593 254.444 200.741 254.444 L 198.889 254.444 198.889 279.247 M309.630 279.259 L 309.630 304.074 305.556 304.074 L 301.481 304.074 301.481 305.926 L 301.481 307.778 307.407 307.778 L 313.333 307.778 313.333 281.111 L 313.333 254.444 311.481 254.444 L 309.630 254.444 309.630 279.259 M68.414 255.542 C 63.225 256.547,62.521 258.739,62.347 274.427 C 62.191 288.511,62.355 289.463,65.184 290.925 L 66.111 291.404 66.111 278.758 C 66.111 260.370,66.759 259.049,76.001 258.606 L 79.966 258.415 79.429 257.378 C 78.329 255.250,73.808 254.497,68.414 255.542 M125.556 289.247 L 125.556 304.050 121.389 304.155 L 117.222 304.259 117.109 306.019 L 116.996 307.778 122.943 307.778 L 128.889 307.778 128.889 291.111 L 128.889 274.444 127.222 274.444 L 125.556 274.444 125.556 289.247 M162.222 289.259 L 162.222 304.074 158.148 304.074 L 154.074 304.074 154.074 305.926 L 154.074 307.778 160.000 307.778 L 165.926 307.778 165.926 291.111 L 165.926 274.444 164.074 274.444 L 162.222 274.444 162.222 289.259 M219.074 274.940 L 217.593 275.394 217.496 289.734 L 217.399 304.074 215.366 304.074 L 213.333 304.074 213.333 305.926 L 213.333 307.778 217.222 307.778 L 221.111 307.778 221.111 293.344 L 221.111 278.910 223.168 278.312 L 225.225 277.714 225.112 276.172 L 225.000 274.630 222.778 274.558 C 221.556 274.518,219.889 274.690,219.074 274.940 M272.593 289.247 L 272.593 304.049 268.611 304.154 L 264.630 304.259 264.517 306.019 L 264.404 307.778 270.350 307.778 L 276.296 307.778 276.296 291.111 L 276.296 274.444 274.444 274.444 L 272.593 274.444 272.593 289.247 M102.593 284.221 L 102.593 293.627 103.902 294.776 C 104.622 295.409,105.288 295.926,105.383 295.926 C 105.478 295.926,105.556 291.176,105.556 285.370 L 105.556 274.815 104.074 274.815 L 102.593 274.815 102.593 284.221 M235.741 276.667 L 235.991 278.148 232.771 278.148 L 229.551 278.148 230.626 279.167 C 231.218 279.727,231.966 280.570,232.290 281.041 C 232.855 281.862,233.012 281.887,236.069 281.638 L 239.259 281.380 239.259 280.298 C 239.259 277.834,238.500 275.992,237.314 275.578 C 235.587 274.976,235.469 275.058,235.741 276.667 M347.284 278.447 C 348.204 281.150,348.485 291.827,347.717 294.928 C 347.049 297.623,343.313 300.711,340.693 300.733 C 340.157 300.737,338.741 301.190,337.545 301.739 C 334.794 303.003,330.009 303.347,327.088 302.491 C 324.491 301.729,324.552 302.481,327.222 304.146 C 337.897 310.802,351.879 301.832,351.846 288.348 C 351.835 283.761,349.639 277.859,347.466 276.575 L 346.439 275.969 347.284 278.447 M143.024 277.716 C 139.782 280.959,137.530 293.487,139.903 295.082 C 140.713 295.627,140.724 295.616,140.396 294.579 C 138.112 287.348,141.971 279.338,147.572 279.687 C 150.561 279.873,149.974 277.589,146.852 276.883 C 146.241 276.745,145.458 276.548,145.112 276.445 C 144.711 276.326,143.952 276.789,143.024 277.716 M180.076 277.568 C 176.719 280.601,174.239 293.583,176.720 295.133 C 177.439 295.581,177.489 295.563,177.243 294.944 C 174.551 288.152,179.026 279.157,184.819 279.714 C 187.783 279.999,186.810 277.671,183.646 276.907 C 183.104 276.777,182.410 276.573,182.103 276.456 C 181.768 276.327,180.956 276.773,180.076 277.568 M253.780 277.568 C 250.423 280.601,247.943 293.583,250.424 295.133 C 251.142 295.581,251.192 295.563,250.947 294.944 C 248.255 288.152,252.729 279.157,258.523 279.714 C 261.487 279.999,260.513 277.671,257.349 276.907 C 256.808 276.777,256.114 276.573,255.807 276.456 C 255.472 276.327,254.659 276.773,253.780 277.568 M290.432 277.716 C 287.189 280.959,284.937 293.487,287.310 295.082 C 288.121 295.627,288.132 295.616,287.804 294.579 C 285.519 287.348,289.378 279.338,294.980 279.687 C 297.969 279.873,297.382 277.589,294.259 276.883 C 293.648 276.745,292.865 276.548,292.519 276.445 C 292.119 276.326,291.359 276.789,290.432 277.716 M328.188 278.796 C 323.355 283.676,322.731 286.620,325.806 290.023 C 327.266 291.640,327.960 291.900,327.575 290.685 C 325.714 284.821,331.720 278.331,337.524 279.934 C 339.175 280.390,338.792 279.531,336.632 277.937 C 333.339 275.508,331.233 275.722,328.188 278.796 M226.481 277.209 L 225.370 277.718 226.748 277.748 C 227.827 277.771,228.079 277.658,227.912 277.222 C 227.794 276.917,227.675 276.674,227.646 276.683 C 227.616 276.693,227.093 276.929,226.481 277.209 M88.387 293.278 C 86.706 298.415,85.459 300.021,81.749 301.825 C 78.659 303.326,71.524 304.056,66.264 303.409 C 62.342 302.926,62.446 302.900,62.946 304.215 C 63.805 306.474,71.521 307.590,79.815 306.655 C 87.596 305.778,91.542 301.629,92.750 293.056 L 92.972 291.481 90.973 291.481 L 88.974 291.481 88.387 293.278 M107.963 302.786 C 106.944 303.048,105.432 303.278,104.601 303.298 C 103.134 303.332,103.096 303.365,103.257 304.465 C 103.609 306.858,107.060 307.416,112.415 305.947 C 116.416 304.850,116.781 304.590,114.784 304.260 C 113.110 303.984,111.111 303.033,111.111 302.513 C 111.111 302.129,110.217 302.207,107.963 302.786 M144.074 302.963 C 143.565 303.126,142.440 303.276,141.574 303.296 C 139.888 303.336,139.709 303.631,140.348 305.312 C 140.973 306.954,144.855 307.209,149.568 305.916 C 153.681 304.787,153.814 304.604,150.888 304.098 C 149.483 303.856,147.964 303.418,147.513 303.125 C 146.624 302.548,145.530 302.497,144.074 302.963 M180.926 302.963 C 180.315 303.118,179.135 303.265,178.305 303.290 C 176.839 303.332,176.800 303.366,176.961 304.465 C 177.312 306.858,180.764 307.416,186.119 305.947 C 190.196 304.829,190.536 304.567,188.318 304.253 C 187.308 304.109,185.752 303.677,184.860 303.292 C 183.142 302.551,182.694 302.513,180.926 302.963 M254.630 302.963 C 254.019 303.118,252.839 303.265,252.009 303.290 C 250.543 303.332,250.503 303.366,250.665 304.465 C 251.016 306.858,254.468 307.416,259.822 305.947 C 263.899 304.829,264.239 304.567,262.022 304.253 C 261.012 304.109,259.456 303.677,258.564 303.292 C 256.845 302.551,256.398 302.513,254.630 302.963 M291.481 302.963 C 290.972 303.126,289.847 303.276,288.981 303.296 C 287.296 303.336,287.116 303.631,287.756 305.312 C 288.380 306.954,292.263 307.209,296.975 305.916 C 301.088 304.787,301.222 304.604,298.295 304.098 C 296.890 303.856,295.372 303.418,294.920 303.125 C 294.032 302.548,292.937 302.497,291.481 302.963 " stroke="none" fill="#2a2728" fill-rule="evenodd"></path><path id="path2" d="M0.000 200.000 L 0.000 400.000 200.000 400.000 L 400.000 400.000 400.000 200.000 L 400.000 0.000 200.000 0.000 L 0.000 0.000 0.000 200.000 M281.760 151.574 L 281.854 233.333 200.186 233.333 L 118.519 233.333 118.519 151.481 L 118.519 69.628 200.093 69.721 L 281.667 69.815 281.760 151.574 M170.378 129.538 C 166.410 131.531,166.402 137.209,170.365 139.314 C 173.911 141.199,178.148 138.547,178.148 134.444 C 178.148 131.457,175.666 128.890,172.778 128.890 C 172.167 128.890,171.087 129.181,170.378 129.538 M224.668 129.707 C 219.678 132.642,222.024 140.434,227.727 139.871 C 230.658 139.581,232.778 137.304,232.778 134.444 C 232.778 130.282,228.219 127.619,224.668 129.707 M158.950 141.332 C 157.711 142.200,157.957 144.114,159.371 144.609 C 161.462 145.339,162.862 143.198,161.309 141.646 C 160.242 140.578,160.061 140.554,158.950 141.332 M239.198 141.255 C 238.140 141.780,237.876 143.379,238.710 144.213 C 240.199 145.701,242.639 144.108,241.890 142.138 C 241.468 141.027,240.379 140.670,239.198 141.255 M81.997 244.049 C 83.929 244.886,86.412 247.113,91.827 252.866 C 94.688 255.905,96.339 259.696,96.588 263.796 L 96.762 266.667 99.307 266.667 L 101.852 266.667 101.852 268.519 L 101.852 270.370 103.685 270.370 L 105.519 270.370 105.630 272.500 L 105.741 274.630 107.685 274.742 L 109.630 274.854 109.630 285.575 C 109.630 291.472,109.683 296.296,109.749 296.296 C 109.814 296.296,110.648 296.031,111.601 295.706 L 113.333 295.116 113.333 280.706 L 113.333 266.296 119.259 266.296 L 125.185 266.296 125.185 268.129 L 125.185 269.961 127.130 270.073 L 129.074 270.185 129.185 272.315 L 129.296 274.444 130.753 274.444 C 132.126 274.444,132.263 274.340,133.136 272.617 C 135.577 267.799,141.194 265.803,146.667 267.807 C 150.234 269.114,150.000 269.127,150.000 267.627 L 150.000 266.278 156.019 266.380 L 162.037 266.481 162.150 268.241 L 162.263 270.000 164.094 270.000 L 165.926 270.000 165.926 272.222 L 165.926 274.444 167.536 274.444 C 169.071 274.444,169.180 274.371,169.851 272.882 C 172.458 267.099,178.321 265.584,186.019 268.705 C 186.627 268.952,186.667 268.282,186.667 257.632 L 186.667 246.296 192.778 246.296 L 198.889 246.296 198.889 248.148 L 198.889 250.000 200.926 250.000 L 202.963 250.000 202.963 252.037 L 202.963 254.074 204.815 254.074 L 206.667 254.074 206.667 260.185 L 206.667 266.296 212.037 266.296 L 217.407 266.296 217.407 268.003 C 217.407 269.487,217.492 269.673,218.056 269.430 C 220.314 268.459,224.959 267.361,226.883 267.344 C 230.500 267.313,231.053 267.712,239.938 276.759 C 242.090 278.950,241.980 278.972,242.547 276.227 C 244.294 267.771,250.604 265.000,259.697 268.695 C 260.195 268.898,260.343 268.702,260.437 267.715 L 260.556 266.481 266.574 266.380 L 272.593 266.278 272.593 268.120 L 272.593 269.961 274.537 270.073 L 276.481 270.185 276.593 272.315 L 276.704 274.444 278.160 274.444 C 279.534 274.444,279.670 274.340,280.543 272.617 C 282.985 267.799,288.601 265.803,294.074 267.807 C 295.194 268.218,296.403 268.648,296.759 268.764 C 297.367 268.962,297.407 268.269,297.407 257.636 L 297.407 246.296 303.519 246.296 L 309.630 246.296 309.630 248.148 L 309.630 250.000 311.481 250.000 L 313.333 250.000 313.333 252.018 L 313.333 254.035 315.278 254.147 L 317.222 254.259 317.321 264.214 L 317.420 274.168 318.486 272.696 C 322.835 266.692,331.513 264.559,338.184 267.854 C 341.616 269.549,350.652 278.308,353.039 282.254 C 362.321 297.597,347.355 316.582,332.037 308.895 C 329.897 307.822,320.449 299.052,318.247 296.096 L 317.431 295.000 317.419 303.426 L 317.407 311.852 311.296 311.852 L 305.185 311.852 305.185 310.176 L 305.185 308.499 304.088 309.067 C 298.689 311.859,291.706 311.434,289.235 308.163 C 288.739 307.506,287.947 306.609,287.475 306.170 C 287.003 305.730,285.211 304.012,283.493 302.352 L 280.370 299.333 280.370 305.592 L 280.370 311.852 274.259 311.852 L 268.148 311.852 268.148 310.370 C 268.148 309.556,268.086 308.889,268.010 308.889 C 267.933 308.889,267.142 309.148,266.250 309.465 C 258.442 312.241,256.079 311.765,250.741 306.344 C 248.602 304.172,246.320 302.019,245.671 301.559 C 243.361 299.923,242.486 297.058,241.661 288.426 L 241.423 285.926 238.952 285.916 C 236.577 285.906,236.446 285.857,235.556 284.649 C 233.710 282.144,231.048 281.416,227.437 282.429 L 225.185 283.061 225.185 297.456 L 225.185 311.852 219.074 311.852 L 212.963 311.852 212.963 309.815 L 212.963 307.778 211.111 307.778 L 209.259 307.778 209.259 305.926 L 209.259 304.074 207.963 304.074 L 206.667 304.074 206.667 307.963 L 206.667 311.852 200.556 311.852 L 194.444 311.852 194.444 310.370 C 194.444 309.556,194.382 308.889,194.306 308.889 C 194.230 308.889,193.438 309.148,192.547 309.465 C 184.693 312.257,182.434 311.784,176.767 306.162 C 174.480 303.893,172.022 301.491,171.304 300.823 L 170.000 299.609 170.000 305.730 L 170.000 311.852 163.889 311.852 L 157.778 311.852 157.778 310.176 L 157.778 308.499 156.681 309.067 C 151.282 311.859,144.299 311.434,141.828 308.163 C 141.332 307.506,140.540 306.609,140.067 306.170 C 139.595 305.730,137.804 304.012,136.086 302.352 L 132.963 299.333 132.963 305.592 L 132.963 311.852 126.852 311.852 L 120.741 311.852 120.741 310.370 C 120.741 309.556,120.678 308.889,120.602 308.889 C 120.526 308.889,119.734 309.148,118.843 309.465 C 110.621 312.388,108.921 311.933,101.890 304.936 C 96.801 299.869,96.481 299.619,96.156 300.433 C 92.629 309.284,89.447 311.120,77.658 311.106 C 70.721 311.097,66.625 309.868,64.554 307.174 C 63.984 306.433,63.199 305.558,62.809 305.228 C 53.670 297.514,53.211 295.992,53.296 273.704 C 53.385 250.696,53.814 248.705,59.276 245.976 C 64.532 243.349,77.786 242.225,81.997 244.049 M77.407 262.958 C 70.801 263.809,69.908 266.011,69.853 281.575 L 69.815 292.594 71.111 292.853 C 76.233 293.875,78.990 291.728,79.492 286.325 L 79.736 283.704 82.368 283.700 C 83.816 283.699,85.875 283.592,86.944 283.464 L 88.889 283.230 88.894 284.485 C 88.904 287.063,89.117 287.312,91.139 287.118 L 92.963 286.943 92.963 289.212 C 92.963 291.386,93.002 291.481,93.889 291.481 L 94.815 291.481 94.815 281.852 L 94.815 272.222 91.481 272.222 L 88.148 272.222 88.148 270.151 L 88.148 268.080 86.204 268.207 L 84.259 268.333 84.146 266.344 L 84.032 264.354 82.220 264.528 C 80.506 264.693,80.403 264.652,80.297 263.769 C 80.164 262.656,80.032 262.619,77.407 262.958 M147.478 285.351 C 144.781 287.787,143.386 291.403,143.877 294.681 L 144.134 296.394 146.049 296.195 C 147.101 296.086,148.421 295.787,148.981 295.531 L 150.000 295.066 150.000 289.570 C 150.000 283.326,149.902 283.161,147.478 285.351 M184.349 285.156 C 182.154 287.084,180.741 290.397,180.741 293.616 L 180.741 296.388 182.685 296.206 C 183.755 296.106,185.088 295.840,185.648 295.614 L 186.667 295.204 186.667 289.639 C 186.667 283.406,186.565 283.210,184.349 285.156 M258.053 285.156 C 255.857 287.084,254.444 290.397,254.444 293.616 L 254.444 296.388 256.389 296.206 C 257.458 296.106,258.792 295.840,259.352 295.614 L 260.370 295.204 260.370 289.639 C 260.370 283.406,260.269 283.210,258.053 285.156 M294.886 285.351 C 292.188 287.787,290.793 291.403,291.285 294.681 L 291.541 296.394 293.456 296.195 C 294.509 296.086,295.829 295.787,296.389 295.531 L 297.407 295.066 297.407 289.570 C 297.407 283.326,297.309 283.161,294.886 285.351 M336.296 284.655 C 333.730 285.785,331.816 288.337,331.369 291.223 C 330.831 294.705,337.467 292.106,339.349 288.099 C 340.982 284.623,339.687 283.163,336.296 284.655 " stroke="none" fill="#fbfbfb" fill-rule="evenodd"></path><path id="path3" d="M159.167 233.241 C 181.625 233.293,218.375 233.293,240.833 233.241 C 263.292 233.188,244.917 233.145,200.000 233.145 C 155.083 233.145,136.708 233.188,159.167 233.241 M87.515 249.671 C 88.035 250.640,88.773 251.376,89.542 251.692 C 91.128 252.346,90.735 251.491,88.537 249.505 C 86.631 247.783,86.510 247.803,87.515 249.671 M198.889 252.018 L 198.889 254.074 200.741 254.074 L 202.593 254.074 202.593 280.926 L 202.593 307.778 196.667 307.778 L 190.741 307.778 190.741 306.124 L 190.741 304.471 189.097 305.175 C 182.955 307.808,176.667 307.345,176.667 304.259 C 176.667 303.570,176.471 303.333,175.902 303.333 C 175.481 303.333,174.814 303.161,174.420 302.950 C 173.141 302.265,173.647 302.928,176.944 306.255 C 182.217 311.575,185.118 312.139,192.593 309.294 C 193.713 308.868,194.671 308.519,194.722 308.519 C 194.773 308.519,194.815 309.269,194.815 310.185 L 194.815 311.852 200.741 311.852 L 206.667 311.852 206.667 307.963 C 206.667 304.321,206.620 304.074,205.926 304.074 C 205.195 304.074,205.185 303.827,205.185 285.370 C 205.185 266.914,205.195 266.667,205.926 266.667 C 206.637 266.667,206.667 266.420,206.667 260.556 L 206.667 254.444 204.833 254.444 L 203.000 254.444 202.889 252.315 L 202.778 250.185 200.833 250.073 L 198.889 249.961 198.889 252.018 M309.630 252.037 L 309.630 254.074 311.481 254.074 L 313.333 254.074 313.333 252.037 L 313.333 250.000 311.481 250.000 L 309.630 250.000 309.630 252.037 M91.303 253.611 C 92.776 257.132,93.010 258.716,92.754 263.426 L 92.498 268.148 90.323 268.148 L 88.148 268.148 88.148 270.185 L 88.148 272.222 90.324 272.222 C 94.640 272.222,94.815 272.112,94.815 269.398 C 94.815 267.096,94.839 267.037,95.788 267.037 L 96.762 267.037 96.585 264.167 C 96.367 260.632,94.662 256.012,92.908 254.202 C 91.600 252.853,90.874 252.586,91.303 253.611 M313.333 281.111 L 313.333 307.778 307.407 307.778 L 301.481 307.778 301.481 306.296 C 301.481 304.582,301.303 304.532,298.704 305.517 C 295.743 306.640,291.509 307.228,289.697 306.768 L 288.154 306.376 288.791 307.456 C 291.009 311.210,296.631 311.901,303.364 309.247 L 305.185 308.529 305.185 310.191 L 305.185 311.852 311.111 311.852 L 317.037 311.852 317.037 303.008 C 317.037 294.385,317.014 294.113,316.121 292.162 C 314.109 287.768,314.108 281.896,316.118 276.948 C 317.019 274.732,317.037 274.486,317.037 264.566 L 317.037 254.444 315.185 254.444 L 313.333 254.444 313.333 281.111 M73.411 258.889 C 69.716 259.441,68.038 260.823,66.662 264.444 C 66.134 265.833,65.632 288.778,66.090 290.601 C 66.299 291.436,68.113 292.593,69.211 292.593 C 69.414 292.593,69.630 287.961,69.732 281.389 C 69.984 265.297,70.751 263.618,78.258 262.738 L 80.405 262.486 80.295 260.595 L 80.185 258.704 77.778 258.650 C 76.454 258.620,74.488 258.728,73.411 258.889 M84.074 266.296 L 84.074 268.148 85.926 268.148 C 87.981 268.148,88.151 267.849,87.371 265.611 C 87.009 264.571,86.807 264.444,85.519 264.444 L 84.074 264.444 84.074 266.296 M125.556 272.222 L 125.556 274.074 127.222 274.074 L 128.889 274.074 128.889 290.926 L 128.889 307.778 122.963 307.778 L 117.037 307.778 117.037 306.124 L 117.037 304.471 115.393 305.175 C 109.251 307.808,102.963 307.345,102.963 304.259 C 102.963 303.570,102.767 303.333,102.198 303.333 C 101.777 303.333,101.110 303.161,100.716 302.950 C 99.437 302.265,99.944 302.928,103.241 306.255 C 108.513 311.575,111.415 312.139,118.889 309.294 C 120.009 308.868,120.968 308.519,121.019 308.519 C 121.069 308.519,121.111 309.269,121.111 310.185 L 121.111 311.852 127.037 311.852 L 132.963 311.852 132.959 305.463 C 132.956 301.149,132.791 298.533,132.451 297.407 C 131.041 292.744,130.771 280.704,131.981 276.389 L 132.526 274.444 130.892 274.444 L 129.259 274.444 129.259 272.407 L 129.259 270.370 127.407 270.370 L 125.556 270.370 125.556 272.222 M162.222 272.222 L 162.222 274.074 164.074 274.074 L 165.926 274.074 165.926 272.222 L 165.926 270.370 164.074 270.370 L 162.222 270.370 162.222 272.222 M272.593 272.222 L 272.593 274.074 274.444 274.074 L 276.296 274.074 276.296 290.926 L 276.296 307.778 270.370 307.778 L 264.444 307.778 264.444 306.124 L 264.444 304.471 262.801 305.175 C 256.659 307.808,250.370 307.345,250.370 304.259 C 250.370 303.570,250.174 303.333,249.605 303.333 C 249.184 303.333,248.518 303.161,248.124 302.950 C 246.845 302.265,247.351 302.928,250.648 306.255 C 255.921 311.575,258.822 312.139,266.296 309.294 C 267.417 308.868,268.375 308.519,268.426 308.519 C 268.477 308.519,268.519 309.269,268.519 310.185 L 268.519 311.852 274.444 311.852 L 280.370 311.852 280.366 305.463 C 280.364 301.149,280.199 298.533,279.858 297.407 C 278.448 292.744,278.179 280.704,279.388 276.389 L 279.933 274.444 278.300 274.444 L 276.667 274.444 276.667 272.407 L 276.667 270.370 274.630 270.370 L 272.593 270.370 272.593 272.222 M101.934 281.759 L 102.017 292.778 102.212 283.704 L 102.407 274.630 103.981 274.516 L 105.556 274.402 105.556 272.571 L 105.556 270.741 103.704 270.741 L 101.852 270.741 101.934 281.759 M235.054 273.053 C 235.294 274.354,236.072 275.185,237.050 275.185 C 238.255 275.185,239.630 278.607,239.630 281.604 C 239.630 281.741,238.112 281.852,236.257 281.852 L 232.884 281.852 231.164 280.032 C 229.013 277.756,226.708 277.275,223.333 278.397 L 221.296 279.074 221.199 293.426 L 221.102 307.778 217.218 307.778 L 213.333 307.778 213.333 309.815 L 213.333 311.852 219.259 311.852 L 225.185 311.852 225.185 297.422 L 225.185 282.992 227.104 282.422 C 230.841 281.312,232.922 281.750,235.247 284.138 C 236.951 285.887,237.038 285.926,239.235 285.926 L 241.481 285.926 241.481 284.684 C 241.481 284.001,241.589 282.409,241.721 281.146 L 241.961 278.850 240.119 277.110 C 239.105 276.153,237.918 274.851,237.481 274.216 C 237.044 273.580,236.269 272.787,235.759 272.453 L 234.832 271.846 235.054 273.053 M345.202 274.074 C 345.702 274.787,346.242 275.428,346.403 275.498 C 346.563 275.569,347.230 276.068,347.884 276.607 L 349.074 277.587 347.833 276.146 C 347.151 275.353,346.075 274.271,345.442 273.741 L 344.292 272.778 345.202 274.074 M165.926 291.111 L 165.926 307.778 160.000 307.778 L 154.074 307.778 154.074 306.296 C 154.074 304.582,153.895 304.532,151.296 305.517 C 148.336 306.640,144.101 307.228,142.289 306.768 L 140.746 306.376 141.384 307.456 C 143.601 311.210,149.224 311.901,155.957 309.247 L 157.778 308.529 157.778 310.191 L 157.778 311.852 163.726 311.852 L 169.674 311.852 169.524 304.722 C 169.430 300.217,169.140 296.297,168.737 294.074 C 167.851 289.193,167.797 280.641,168.631 277.292 C 168.977 275.904,169.259 274.696,169.259 274.607 C 169.259 274.517,168.509 274.444,167.593 274.444 L 165.926 274.444 165.926 291.111 M105.642 285.463 L 105.741 296.111 107.500 296.224 L 109.259 296.337 109.259 285.576 L 109.259 274.815 107.402 274.815 L 105.544 274.815 105.642 285.463 M225.185 276.066 C 225.185 277.327,225.199 277.338,226.280 276.930 C 227.443 276.491,227.311 275.926,225.864 275.152 C 225.267 274.832,225.185 274.942,225.185 276.066 M140.383 277.130 C 136.638 279.714,135.036 287.818,137.399 292.222 L 138.294 293.889 138.737 289.815 C 139.494 282.870,140.890 278.879,143.198 277.064 L 144.174 276.296 142.882 276.296 C 142.148 276.296,141.070 276.656,140.383 277.130 M176.737 277.573 C 172.986 280.962,171.934 287.191,174.284 292.094 L 175.322 294.259 175.589 290.370 C 176.020 284.080,177.294 279.988,179.538 277.685 L 180.891 276.296 179.521 276.296 C 178.479 276.296,177.812 276.602,176.737 277.573 M250.441 277.573 C 246.690 280.962,245.638 287.191,247.988 292.094 L 249.026 294.259 249.293 290.370 C 249.723 284.080,250.997 279.988,253.241 277.685 L 254.595 276.296 253.224 276.296 C 252.182 276.296,251.515 276.602,250.441 277.573 M287.791 277.130 C 284.045 279.714,282.443 287.818,284.807 292.222 L 285.701 293.889 286.145 289.815 C 286.902 282.870,288.298 278.879,290.605 277.064 L 291.581 276.296 290.290 276.296 C 289.555 276.296,288.478 276.656,287.791 277.130 M327.558 277.640 C 325.833 278.811,325.363 279.360,324.432 281.296 C 323.183 283.896,323.611 284.332,325.125 282.002 C 325.906 280.799,327.319 279.106,328.264 278.241 C 330.179 276.487,329.770 276.139,327.558 277.640 M349.931 279.497 C 357.565 294.485,342.669 312.171,328.471 304.976 C 326.188 303.819,326.171 304.311,328.426 306.317 C 343.814 320.002,364.333 298.030,352.069 281.000 C 349.933 278.034,348.769 277.216,349.931 279.497 M144.982 280.151 C 139.744 282.432,137.772 295.203,142.512 296.150 L 143.704 296.389 143.704 293.620 C 143.704 289.757,145.981 285.483,148.741 284.167 C 150.598 283.281,150.671 280.227,148.843 279.861 C 147.169 279.526,146.258 279.595,144.982 280.151 M181.343 280.502 C 178.320 282.332,176.436 286.685,176.830 290.925 C 177.251 295.448,177.818 296.296,180.417 296.296 C 180.595 296.296,180.741 294.988,180.741 293.388 C 180.741 289.382,182.673 285.771,185.648 284.217 C 187.055 283.482,187.193 280.228,185.833 279.863 C 184.228 279.433,182.765 279.641,181.343 280.502 M255.046 280.502 C 252.024 282.332,250.139 286.685,250.534 290.925 C 250.955 295.448,251.522 296.296,254.120 296.296 C 254.299 296.296,254.444 294.988,254.444 293.388 C 254.444 289.382,256.376 285.771,259.352 284.217 C 260.759 283.482,260.897 280.228,259.537 279.863 C 257.931 279.433,256.469 279.641,255.046 280.502 M292.389 280.151 C 287.151 282.432,285.180 295.203,289.919 296.150 L 291.111 296.389 291.111 293.620 C 291.111 289.757,293.389 285.483,296.148 284.167 C 298.006 283.281,298.078 280.227,296.250 279.861 C 294.576 279.526,293.665 279.595,292.389 280.151 M332.963 280.269 C 326.945 282.554,325.129 292.963,330.748 292.963 C 330.895 292.963,331.123 292.150,331.255 291.157 C 331.712 287.711,334.505 284.821,338.128 284.044 C 340.147 283.611,340.402 283.138,339.584 281.345 C 339.024 280.114,335.066 279.471,332.963 280.269 M90.879 287.331 L 89.350 287.446 89.160 289.371 C 88.928 291.726,88.814 291.612,91.087 291.300 L 92.963 291.042 92.963 289.246 C 92.963 287.197,92.941 287.177,90.879 287.331 M346.350 293.057 C 345.542 294.760,344.309 296.491,342.816 298.021 C 340.379 300.518,340.536 301.057,343.291 299.651 C 346.211 298.161,347.961 295.127,347.713 291.980 L 347.593 290.441 346.350 293.057 M92.689 294.256 C 91.904 299.184,88.895 303.863,85.455 305.503 C 81.439 307.418,68.954 307.554,64.352 305.733 C 63.252 305.297,63.621 306.213,65.170 307.762 C 68.998 311.590,85.160 312.351,90.185 308.941 C 93.947 306.387,96.723 300.854,95.786 297.778 C 95.506 296.861,95.157 295.069,95.010 293.796 C 94.586 290.135,93.304 290.389,92.689 294.256 M323.684 301.617 C 324.386 302.357,325.017 302.963,325.086 302.963 C 325.505 302.963,324.304 301.478,323.441 300.929 C 322.494 300.327,322.514 300.384,323.684 301.617 M111.929 301.622 L 111.080 302.080 111.839 302.766 C 112.738 303.580,113.063 303.374,112.898 302.097 C 112.788 301.245,112.703 301.204,111.929 301.622 M147.983 301.838 L 146.522 302.456 147.983 303.042 C 149.376 303.601,149.450 303.596,149.563 302.921 C 149.824 301.372,149.542 301.179,147.983 301.838 M185.000 301.828 L 183.519 302.507 184.947 303.127 C 186.618 303.852,186.758 303.780,186.600 302.276 L 186.481 301.148 185.000 301.828 M258.704 301.828 L 257.222 302.507 258.651 303.127 C 260.322 303.852,260.462 303.780,260.304 302.276 L 260.185 301.148 258.704 301.828 M295.391 301.838 L 293.930 302.456 295.391 303.042 C 296.783 303.601,296.857 303.596,296.971 302.921 C 297.231 301.372,296.949 301.179,295.391 301.838 M60.467 302.949 C 60.979 303.680,62.963 305.375,62.963 305.082 C 62.963 304.187,62.015 302.624,61.366 302.450 C 60.067 302.101,59.927 302.179,60.467 302.949 M137.456 303.621 C 137.683 303.972,138.376 304.670,138.997 305.172 L 140.124 306.085 139.873 304.829 C 139.576 303.342,139.729 303.494,138.244 303.211 C 137.171 303.007,137.087 303.051,137.456 303.621 M284.863 303.621 C 285.091 303.972,285.784 304.670,286.404 305.172 L 287.532 306.085 287.281 304.829 C 286.983 303.342,287.137 303.494,285.651 303.211 C 284.579 303.007,284.495 303.051,284.863 303.621 M209.259 305.926 L 209.259 307.778 211.111 307.778 L 212.963 307.778 212.963 305.926 L 212.963 304.074 211.111 304.074 L 209.259 304.074 209.259 305.926 " stroke="none" fill="#acabab" fill-rule="evenodd"></path><path id="path4" d="M159.167 69.907 C 181.625 69.960,218.375 69.960,240.833 69.907 C 263.292 69.855,244.917 69.812,200.000 69.812 C 155.083 69.812,136.708 69.855,159.167 69.907 M75.463 243.231 C 76.125 243.313,77.208 243.313,77.870 243.231 C 78.532 243.149,77.991 243.082,76.667 243.082 C 75.343 243.082,74.801 243.149,75.463 243.231 M186.584 257.778 C 186.528 264.093,186.606 269.260,186.759 269.259 C 186.912 269.259,187.037 264.180,187.037 257.972 L 187.037 246.685 193.056 246.573 L 199.074 246.462 192.881 246.379 L 186.687 246.296 186.584 257.778 M303.221 246.573 L 309.219 246.685 309.358 248.435 L 309.496 250.185 309.563 248.241 L 309.630 246.296 303.426 246.379 L 297.222 246.462 303.221 246.573 M203.796 254.339 C 204.356 254.424,205.273 254.424,205.833 254.339 C 206.394 254.254,205.935 254.185,204.815 254.185 C 203.694 254.185,203.236 254.254,203.796 254.339 M315.087 254.336 L 317.025 254.483 317.133 264.741 L 317.240 275.000 317.231 264.630 L 317.222 254.259 315.185 254.224 L 313.148 254.189 315.087 254.336 M53.427 258.704 C 53.431 259.519,53.507 259.808,53.595 259.348 C 53.684 258.887,53.681 258.220,53.588 257.866 C 53.495 257.512,53.423 257.889,53.427 258.704 M116.204 266.572 C 117.884 266.640,120.634 266.640,122.315 266.572 C 123.995 266.503,122.620 266.447,119.259 266.447 C 115.898 266.447,114.523 266.503,116.204 266.572 M155.833 266.569 L 161.852 266.685 161.852 268.528 L 161.852 270.370 163.981 270.302 L 166.111 270.233 164.186 270.098 L 162.261 269.963 162.149 268.222 L 162.037 266.481 155.926 266.467 L 149.815 266.452 155.833 266.569 M209.369 266.572 C 210.957 266.641,213.457 266.641,214.924 266.571 C 216.392 266.501,215.093 266.444,212.037 266.444 C 208.981 266.445,207.781 266.502,209.369 266.572 M260.574 266.759 C 260.214 267.922,260.132 269.259,260.422 269.259 C 260.597 269.259,260.741 268.680,260.741 267.972 L 260.741 266.685 266.759 266.573 L 272.778 266.462 266.748 266.379 C 262.188 266.316,260.682 266.409,260.574 266.759 M97.870 266.936 C 98.634 267.016,99.884 267.016,100.648 266.936 C 101.412 266.857,100.787 266.791,99.259 266.791 C 97.731 266.791,97.106 266.857,97.870 266.936 M171.643 270.093 L 170.556 271.296 171.759 270.208 C 172.881 269.194,173.133 268.889,172.847 268.889 C 172.783 268.889,172.242 269.431,171.643 270.093 M245.347 270.093 L 244.259 271.296 245.463 270.208 C 246.585 269.194,246.837 268.889,246.551 268.889 C 246.487 268.889,245.945 269.431,245.347 270.093 M319.797 271.204 L 318.333 272.778 319.907 271.314 C 321.371 269.952,321.652 269.630,321.371 269.630 C 321.311 269.630,320.603 270.338,319.797 271.204 M126.019 270.265 C 126.579 270.350,127.495 270.350,128.056 270.265 C 128.616 270.180,128.157 270.111,127.037 270.111 C 125.917 270.111,125.458 270.180,126.019 270.265 M273.426 270.265 C 273.986 270.350,274.903 270.350,275.463 270.265 C 276.023 270.180,275.565 270.111,274.444 270.111 C 273.324 270.111,272.866 270.180,273.426 270.265 M102.685 270.636 C 103.245 270.721,104.162 270.721,104.722 270.636 C 105.282 270.551,104.824 270.481,103.704 270.481 C 102.583 270.481,102.125 270.551,102.685 270.636 M109.423 285.556 C 109.423 291.565,109.474 294.023,109.536 291.019 C 109.598 288.014,109.598 283.097,109.536 280.093 C 109.474 277.088,109.423 279.546,109.423 285.556 M53.069 283.519 C 53.072 284.537,53.144 284.910,53.229 284.347 C 53.314 283.784,53.312 282.950,53.224 282.495 C 53.136 282.039,53.066 282.500,53.069 283.519 M69.767 286.667 C 69.767 288.806,69.828 289.681,69.903 288.611 C 69.977 287.542,69.977 285.792,69.903 284.722 C 69.828 283.653,69.767 284.528,69.767 286.667 M86.949 283.595 C 87.409 283.684,88.076 283.681,88.430 283.588 C 88.784 283.495,88.407 283.423,87.593 283.427 C 86.778 283.431,86.488 283.507,86.949 283.595 M186.481 289.594 C 186.481 292.834,186.606 295.408,186.759 295.313 C 186.912 295.219,187.037 292.568,187.037 289.423 C 187.037 286.277,186.912 283.704,186.759 283.704 C 186.606 283.704,186.481 286.354,186.481 289.594 M260.185 289.594 C 260.185 292.834,260.310 295.408,260.463 295.313 C 260.616 295.219,260.741 292.568,260.741 289.423 C 260.741 286.277,260.616 283.704,260.463 283.704 C 260.310 283.704,260.185 286.354,260.185 289.594 M241.567 287.037 C 241.567 287.750,241.644 288.042,241.737 287.685 C 241.830 287.329,241.830 286.745,241.737 286.389 C 241.644 286.032,241.567 286.324,241.567 287.037 M90.463 287.292 C 90.819 287.386,91.403 287.386,91.759 287.292 C 92.116 287.199,91.824 287.123,91.111 287.123 C 90.398 287.123,90.106 287.199,90.463 287.292 M317.037 303.148 C 317.037 308.003,317.115 311.898,317.209 311.803 C 317.461 311.551,317.499 294.783,317.249 294.533 C 317.132 294.416,317.037 298.293,317.037 303.148 M169.630 305.370 C 169.630 309.003,169.706 311.899,169.799 311.806 C 170.053 311.552,170.101 299.237,169.849 298.984 C 169.728 298.864,169.630 301.738,169.630 305.370 M213.078 309.815 C 213.080 311.037,213.149 311.492,213.231 310.827 C 213.314 310.161,213.312 309.161,213.228 308.604 C 213.143 308.048,213.076 308.593,213.078 309.815 M120.657 309.907 C 120.870 312.058,121.050 312.214,121.082 310.278 C 121.098 309.310,120.978 308.519,120.815 308.519 C 120.652 308.519,120.581 309.144,120.657 309.907 M194.360 309.907 C 194.574 312.058,194.753 312.214,194.786 310.278 C 194.802 309.310,194.682 308.519,194.519 308.519 C 194.356 308.519,194.285 309.144,194.360 309.907 M268.064 309.907 C 268.277 312.058,268.457 312.214,268.489 310.278 C 268.505 309.310,268.385 308.519,268.223 308.519 C 268.060 308.519,267.988 309.144,268.064 309.907 " stroke="none" fill="#d097b8" fill-rule="evenodd"></path></g></svg>