<svg id="svg" version="1.1" xmlns="http://www.w3.org/2000/svg" xmlns:xlink="http://www.w3.org/1999/xlink" width="400" height="400" viewBox="0, 0, 400,400"><g id="svgg"><path id="path0" d="M189.058 99.914 L 178.300 133.148 143.232 133.333 L 108.164 133.519 136.169 153.889 C 151.571 165.093,164.318 174.353,164.495 174.467 C 164.742 174.626,151.204 217.188,144.080 238.644 C 143.483 240.444,143.195 241.758,143.441 241.564 C 143.687 241.370,155.889 232.498,170.556 221.848 C 185.222 211.199,197.842 201.999,198.600 201.405 L 199.978 200.325 228.415 221.052 C 244.055 232.452,256.886 241.747,256.928 241.709 C 256.969 241.670,252.178 226.751,246.279 208.556 C 240.381 190.361,235.556 175.259,235.556 174.996 C 235.556 174.733,246.014 166.918,258.796 157.630 C 271.579 148.341,284.263 139.116,286.983 137.130 L 291.929 133.519 256.909 133.424 L 221.888 133.330 217.824 120.831 C 215.589 113.957,210.715 98.958,206.993 87.500 C 203.271 76.042,200.133 66.670,200.020 66.674 C 199.907 66.677,194.974 81.636,189.058 99.914 M176.555 140.585 C 189.259 146.735,184.450 165.795,170.370 165.101 C 159.461 164.564,154.208 151.870,161.477 143.611 C 165.098 139.497,171.609 138.191,176.555 140.585 M234.333 140.585 C 247.003 146.719,242.187 165.805,228.148 165.097 C 215.255 164.447,211.232 147.145,222.543 140.988 C 226.153 139.024,230.781 138.866,234.333 140.585 M255.185 295.370 L 255.185 326.296 261.852 326.296 L 268.519 326.296 268.519 295.370 L 268.519 264.444 261.852 264.444 L 255.185 264.444 255.185 295.370 M276.667 295.370 L 276.667 326.296 283.333 326.296 L 290.000 326.296 290.000 295.370 L 290.000 264.444 283.333 264.444 L 276.667 264.444 276.667 295.370 M80.648 265.092 L 72.222 265.199 72.222 295.748 L 72.222 326.296 88.889 326.296 L 105.556 326.296 105.556 320.749 L 105.556 315.202 98.426 315.382 C 94.505 315.482,88.671 315.640,85.463 315.734 L 79.630 315.906 79.630 308.323 L 79.630 300.741 85.139 300.741 C 88.169 300.741,91.169 300.637,91.806 300.509 L 92.963 300.278 92.963 295.972 L 92.964 291.667 86.297 291.783 L 79.630 291.899 79.630 283.112 L 79.630 274.325 93.148 274.562 L 106.667 274.799 106.667 269.807 L 106.667 264.815 97.870 264.900 C 93.032 264.947,85.282 265.033,80.648 265.092 M152.593 279.630 L 152.593 285.556 149.630 285.556 L 146.667 285.556 146.667 291.296 L 146.667 297.037 149.390 297.037 L 152.114 297.037 152.353 299.871 C 152.485 301.429,152.593 308.013,152.593 314.500 L 152.593 326.296 158.333 326.296 L 164.074 326.296 164.074 311.667 L 164.074 297.037 167.222 297.037 L 170.370 297.037 170.370 291.296 L 170.370 285.556 167.222 285.556 L 164.074 285.556 164.074 279.630 L 164.074 273.704 158.333 273.704 L 152.593 273.704 152.593 279.630 M222.698 280.722 C 215.058 283.472,212.263 290.651,212.742 306.296 C 213.039 316.026,213.168 316.658,215.476 319.705 C 221.732 327.963,239.326 327.590,245.184 319.075 C 245.790 318.196,246.785 316.975,247.397 316.363 L 248.510 315.251 245.274 313.198 L 242.037 311.145 240.185 312.947 C 232.450 320.475,217.942 316.785,219.091 307.583 L 219.341 305.588 233.744 305.817 L 248.148 306.045 248.143 303.485 C 248.131 298.286,247.424 290.501,246.835 289.091 C 244.236 282.871,230.224 278.013,222.698 280.722 M121.481 281.067 C 114.117 283.477,110.730 292.608,114.459 300.000 C 115.578 302.217,120.754 305.893,123.889 306.697 C 128.530 307.887,129.162 308.167,130.682 309.701 C 134.786 313.847,132.539 320.000,126.920 320.000 C 123.879 320.000,122.222 317.854,122.222 313.914 C 122.222 311.703,122.151 311.481,121.389 311.325 C 119.745 310.988,112.583 310.826,112.401 311.122 C 111.963 311.830,112.097 317.999,112.570 318.889 C 117.357 327.914,130.709 329.999,137.344 322.758 C 145.275 314.102,142.950 305.137,132.120 302.612 C 122.418 300.350,118.692 296.533,122.088 292.336 C 126.173 287.290,133.333 289.560,133.333 295.902 L 133.333 298.519 137.171 298.519 L 141.009 298.519 141.257 295.461 C 141.729 289.652,138.196 284.585,131.860 281.982 C 129.299 280.929,123.472 280.415,121.481 281.067 M177.407 307.593 L 177.407 326.296 183.519 326.296 L 189.630 326.296 189.630 311.881 L 189.630 297.465 190.833 297.099 C 195.071 295.811,196.991 296.141,199.353 298.564 L 201.113 300.370 204.493 300.370 L 207.873 300.370 207.622 298.426 C 206.512 289.822,200.234 287.370,190.278 291.652 C 189.720 291.892,189.630 291.718,189.630 290.410 L 189.630 288.889 183.519 288.889 L 177.407 288.889 177.407 307.593 M315.556 290.142 L 315.556 291.395 313.241 290.429 C 307.451 288.011,300.701 290.052,298.808 294.794 C 296.441 300.725,296.083 311.362,297.993 319.053 C 299.585 325.463,305.889 327.125,314.907 323.514 C 315.462 323.292,315.556 323.475,315.556 324.775 L 315.556 326.296 321.667 326.296 L 327.778 326.296 327.778 307.593 L 327.778 288.889 321.667 288.889 L 315.556 288.889 315.556 290.142 M233.740 290.637 C 236.649 291.577,238.889 293.837,238.889 295.832 C 238.889 296.665,238.983 297.591,239.097 297.890 C 239.317 298.463,220.653 299.295,220.096 298.738 C 219.700 298.342,220.706 295.110,221.692 293.608 C 224.009 290.083,228.553 288.962,233.740 290.637 M311.613 298.734 C 315.647 299.771,315.556 299.530,315.556 309.148 L 315.556 317.426 314.537 317.842 C 307.352 320.780,301.852 316.626,301.852 308.262 C 301.852 301.140,305.839 297.248,311.613 298.734 " stroke="none" fill="#facb04" fill-rule="evenodd"></path><path id="path1" d="M0.000 200.000 L 0.000 400.000 200.000 400.000 L 400.000 400.000 400.000 200.000 L 400.000 0.000 200.000 0.000 L 0.000 0.000 0.000 200.000 M212.036 84.259 C 218.505 104.222,224.283 122.097,224.875 123.981 L 225.952 127.407 267.813 127.407 C 292.052 127.407,309.588 127.546,309.470 127.736 C 309.359 127.916,294.182 139.029,275.745 152.430 C 257.307 165.831,242.222 176.924,242.222 177.081 C 242.222 177.238,247.985 195.140,255.029 216.864 C 262.073 238.588,267.772 256.426,267.694 256.504 C 267.615 256.582,252.364 245.587,233.802 232.070 L 200.052 207.494 166.269 232.089 C 147.689 245.616,132.433 256.630,132.367 256.564 C 132.301 256.498,138.011 238.667,145.057 216.940 C 152.103 195.212,157.783 177.221,157.680 176.958 C 157.577 176.696,142.373 165.481,123.894 152.037 L 90.296 127.593 132.231 127.407 L 174.167 127.222 186.897 87.963 C 200.858 44.909,199.966 47.613,200.146 47.817 C 200.217 47.897,205.568 64.296,212.036 84.259 M173.078 145.955 C 171.402 147.028,170.546 149.384,171.094 151.416 C 172.299 155.893,178.920 156.062,180.375 151.653 C 181.829 147.248,176.975 143.458,173.078 145.955 M221.592 145.889 C 217.424 148.508,219.166 154.815,224.057 154.815 C 227.307 154.815,229.110 152.806,228.796 149.534 C 228.453 145.966,224.585 144.009,221.592 145.889 M163.175 156.508 C 162.492 157.190,162.455 157.570,162.976 158.543 C 163.548 159.612,165.458 159.509,165.972 158.380 C 166.824 156.510,164.637 155.046,163.175 156.508 M234.164 156.354 C 233.031 157.488,233.786 159.259,235.403 159.259 C 237.544 159.259,237.648 156.262,235.516 156.003 C 235.025 155.943,234.417 156.101,234.164 156.354 M268.519 266.296 L 268.519 268.148 270.556 268.148 L 272.593 268.148 272.593 270.185 L 272.593 272.222 274.444 272.222 L 276.296 272.222 276.296 303.148 L 276.296 334.074 269.815 334.074 L 263.333 334.074 263.333 332.037 L 263.333 330.000 261.296 330.000 L 259.259 330.000 259.259 328.148 L 259.259 326.296 257.246 326.296 C 255.267 326.296,255.230 326.277,255.116 325.150 C 255.001 324.008,254.992 324.014,253.227 326.425 C 249.471 331.554,245.935 333.163,238.519 333.118 C 229.065 333.060,228.082 332.617,220.511 325.009 C 213.597 318.060,213.235 317.436,213.033 312.130 L 212.881 308.148 210.886 308.148 C 208.987 308.148,208.807 308.062,207.131 306.342 C 204.769 303.919,202.849 303.589,198.611 304.877 L 197.407 305.243 197.407 319.658 L 197.407 334.074 191.296 334.074 L 185.185 334.074 185.185 332.037 L 185.185 330.000 183.148 330.000 L 181.111 330.000 181.111 328.148 L 181.111 326.296 179.259 326.296 L 177.407 326.296 177.407 315.354 L 177.407 304.412 174.722 304.521 L 172.037 304.630 171.940 319.352 L 171.843 334.074 166.107 334.074 L 160.370 334.074 160.370 332.037 L 160.370 330.000 158.333 330.000 L 156.296 330.000 156.296 328.148 L 156.296 326.296 154.259 326.296 L 152.222 326.296 152.222 313.519 L 152.222 300.741 151.296 300.741 C 150.432 300.741,150.370 300.617,150.370 298.889 C 150.370 297.078,150.346 297.037,149.259 297.037 C 147.960 297.037,147.991 296.941,148.721 298.687 C 149.165 299.751,149.237 300.754,149.040 303.177 L 148.787 306.296 144.949 306.296 L 141.111 306.296 141.111 304.259 L 141.111 302.222 139.299 302.222 C 137.299 302.222,137.037 301.940,137.037 299.785 L 137.037 298.519 135.093 298.451 C 131.426 298.323,130.322 298.775,129.195 300.865 C 128.707 301.771,128.718 301.778,132.184 302.605 C 136.948 303.743,138.482 304.891,146.329 313.183 C 155.421 322.790,143.449 338.614,130.370 334.277 C 126.211 332.897,124.835 331.909,119.079 326.169 C 112.143 319.251,112.021 319.047,112.136 314.474 C 112.242 310.248,111.553 310.714,117.242 311.030 L 122.037 311.296 122.149 313.037 L 122.261 314.777 124.186 314.889 L 126.111 315.000 125.989 316.890 L 125.868 318.780 128.007 319.032 C 131.776 319.474,134.551 315.426,131.250 314.301 C 128.964 313.522,124.229 310.507,123.233 309.197 C 122.779 308.600,122.004 307.744,121.511 307.296 C 113.944 300.419,112.029 297.195,112.928 292.844 C 114.747 284.028,118.084 280.741,125.212 280.741 C 131.382 280.741,134.577 282.514,141.759 289.924 L 146.667 294.987 146.667 290.272 L 146.667 285.556 149.435 285.556 L 152.204 285.556 152.306 279.537 L 152.407 273.519 158.241 273.417 L 164.074 273.315 164.074 275.176 L 164.074 277.037 166.111 277.037 L 168.148 277.037 168.148 279.259 L 168.148 281.481 170.000 281.481 L 171.852 281.481 171.852 285.370 L 171.852 289.259 173.148 289.259 L 174.444 289.259 174.444 291.296 L 174.444 293.333 175.926 293.333 L 177.407 293.333 177.407 291.111 L 177.407 288.889 183.519 288.889 L 189.630 288.889 189.630 290.410 C 189.630 291.718,189.720 291.892,190.278 291.652 C 198.691 288.034,202.775 288.984,209.220 296.060 C 209.751 296.643,210.680 297.643,211.286 298.282 L 212.386 299.444 212.672 297.222 C 214.491 283.090,221.082 277.885,233.585 280.705 C 240.124 282.180,242.119 283.314,247.037 288.352 C 248.769 290.126,250.890 292.245,251.751 293.060 C 252.612 293.875,253.737 295.387,254.251 296.418 L 255.185 298.294 255.185 281.369 L 255.185 264.444 261.852 264.444 L 268.519 264.444 268.519 266.296 M290.000 266.296 L 290.000 268.148 291.852 268.148 L 293.704 268.148 293.704 270.185 L 293.704 272.222 295.556 272.222 L 297.407 272.222 297.437 285.278 L 297.466 298.333 298.182 296.283 C 300.304 290.204,307.244 287.545,313.426 290.442 L 315.556 291.441 315.556 290.165 L 315.556 288.889 321.667 288.889 L 327.778 288.889 327.778 290.556 L 327.778 292.222 329.611 292.222 L 331.445 292.222 331.556 294.352 L 331.667 296.481 333.611 296.593 L 335.556 296.705 335.556 315.390 L 335.556 334.074 329.444 334.074 L 323.333 334.074 323.333 332.398 L 323.333 330.722 322.231 331.292 C 316.755 334.123,309.469 333.563,307.224 330.137 C 306.862 329.584,305.310 327.952,303.774 326.510 C 299.005 322.033,298.544 321.490,297.994 319.701 C 297.489 318.062,297.458 318.420,297.433 326.019 L 297.407 334.074 290.926 334.074 L 284.444 334.074 284.444 332.037 L 284.444 330.000 282.593 330.000 L 280.741 330.000 280.741 328.148 L 280.741 326.296 278.704 326.296 L 276.667 326.296 276.667 295.370 L 276.667 264.444 283.333 264.444 L 290.000 264.444 290.000 266.296 M106.667 266.667 L 106.667 268.519 108.499 268.519 L 110.332 268.519 110.444 270.463 L 110.556 272.407 112.407 272.593 L 114.259 272.778 114.363 277.671 L 114.466 282.563 100.740 282.333 L 87.014 282.103 87.118 286.885 L 87.222 291.667 90.093 291.562 L 92.963 291.458 92.963 293.321 L 92.963 295.185 95.000 295.185 L 97.037 295.185 97.037 297.407 L 97.037 299.630 98.889 299.630 L 100.741 299.630 100.741 303.889 C 100.741 306.231,100.699 308.169,100.648 308.194 C 100.597 308.220,97.556 308.345,93.889 308.472 L 87.222 308.704 87.115 312.189 L 87.008 315.675 96.282 315.436 L 105.556 315.198 105.556 317.043 L 105.556 318.889 107.593 318.889 L 109.630 318.889 109.630 321.057 L 109.630 323.225 111.481 323.047 L 113.333 322.869 113.333 328.471 L 113.333 334.074 96.667 334.074 L 80.000 334.074 80.000 332.037 L 80.000 330.000 77.963 330.000 L 75.926 330.000 75.926 328.148 L 75.926 326.296 74.074 326.296 L 72.222 326.296 72.222 295.749 L 72.222 265.203 78.611 265.092 C 82.125 265.031,89.875 264.944,95.833 264.898 L 106.667 264.815 106.667 266.667 M232.963 298.148 C 232.581 298.395,233.419 298.509,235.648 298.513 C 237.566 298.516,238.889 298.367,238.889 298.148 C 238.889 297.670,233.703 297.670,232.963 298.148 M314.243 306.616 C 311.004 308.591,309.367 312.220,309.563 316.990 L 309.630 318.610 311.574 318.429 C 312.644 318.329,313.977 318.062,314.537 317.836 L 315.556 317.426 315.556 311.676 C 315.556 308.513,315.514 305.927,315.463 305.927 C 315.412 305.928,314.863 306.238,314.243 306.616 M226.887 314.864 C 226.583 316.762,226.333 316.591,229.847 316.884 C 232.647 317.117,232.962 317.065,235.572 315.928 C 240.512 313.777,239.956 313.447,231.251 313.370 L 227.132 313.333 226.887 314.864 M247.294 314.474 C 247.950 314.894,248.395 315.446,248.293 315.713 C 248.183 316.000,248.899 316.690,250.073 317.426 C 251.153 318.104,252.102 318.707,252.182 318.765 C 252.262 318.823,252.130 319.109,251.889 319.399 C 251.440 319.941,252.201 320.687,254.352 321.812 L 255.185 322.248 255.185 317.976 L 255.185 313.704 250.648 313.710 L 246.111 313.716 247.294 314.474 " stroke="none" fill="#fbfbfb" fill-rule="evenodd"></path><path id="path2" d="M199.893 48.772 C 199.793 48.938,194.847 64.074,188.902 82.407 C 182.957 100.741,177.221 118.407,176.155 121.667 L 174.216 127.593 132.657 127.778 L 91.097 127.963 124.646 152.382 C 153.544 173.415,158.167 176.906,157.994 177.567 C 157.884 177.988,152.120 195.816,145.185 217.184 C 138.251 238.551,132.626 256.083,132.686 256.143 C 132.745 256.202,147.874 245.266,166.305 231.839 C 184.735 218.412,199.904 207.423,200.013 207.417 C 200.122 207.412,215.289 218.386,233.717 231.805 C 252.145 245.224,267.267 256.090,267.321 255.952 C 267.376 255.814,261.668 237.960,254.638 216.277 C 244.225 184.163,241.949 176.783,242.363 176.481 C 242.643 176.278,257.777 165.278,275.994 152.037 L 309.117 127.963 267.538 127.869 L 225.959 127.775 221.709 114.721 C 219.372 107.541,213.597 89.750,208.876 75.185 C 199.844 47.322,200.176 48.299,199.893 48.772 M210.006 96.296 C 215.314 112.694,220.165 127.653,220.785 129.537 L 221.913 132.963 257.068 132.963 C 276.403 132.963,292.217 133.088,292.210 133.241 C 292.203 133.394,290.328 134.870,288.043 136.522 C 281.483 141.266,235.755 174.515,235.612 174.646 C 235.541 174.711,240.349 189.786,246.298 208.147 C 252.246 226.507,257.038 241.604,256.945 241.696 C 256.853 241.789,244.068 232.601,228.534 221.278 C 213.000 209.956,200.093 200.768,199.853 200.860 C 199.613 200.952,186.773 210.215,171.319 221.445 C 155.865 232.675,143.164 241.806,143.095 241.737 C 143.025 241.667,147.799 226.706,153.703 208.490 C 159.608 190.274,164.440 175.192,164.442 174.974 C 164.443 174.756,152.657 166.006,138.250 155.530 C 123.842 145.053,111.051 135.731,109.824 134.815 L 107.593 133.148 142.930 132.963 L 178.268 132.778 181.511 122.778 C 183.295 117.278,188.104 102.444,192.199 89.815 C 200.430 64.424,200.034 65.596,200.220 66.111 C 200.294 66.315,204.698 79.898,210.006 96.296 M166.040 140.511 C 153.366 146.554,157.029 164.900,170.926 164.981 C 187.557 165.077,188.102 140.304,171.481 139.718 C 168.353 139.608,167.750 139.695,166.040 140.511 M223.818 140.511 C 211.152 146.550,214.818 164.914,228.704 164.983 C 245.336 165.066,245.881 140.304,229.259 139.718 C 226.131 139.608,225.527 139.695,223.818 140.511 M177.512 145.323 C 181.563 147.049,181.890 152.741,178.043 154.567 C 171.926 157.470,167.659 148.504,173.711 145.464 C 175.266 144.683,175.950 144.657,177.512 145.323 M225.641 145.203 C 230.889 146.660,229.641 155.185,224.180 155.185 C 217.653 155.185,217.382 145.578,223.889 144.860 C 224.093 144.837,224.881 144.992,225.641 145.203 M165.473 156.132 C 166.928 157.151,166.198 159.630,164.444 159.630 C 162.690 159.630,161.961 157.151,163.416 156.132 C 163.868 155.815,164.331 155.556,164.444 155.556 C 164.557 155.556,165.020 155.815,165.473 156.132 M236.667 156.296 C 237.965 157.595,237.152 159.630,235.334 159.630 C 234.488 159.630,233.333 158.406,233.333 157.510 C 233.333 156.859,234.692 155.556,235.370 155.556 C 235.676 155.556,236.259 155.889,236.667 156.296 " stroke="none" fill="#20201f" fill-rule="evenodd"></path><path id="path3" d="M175.097 155.077 C 175.558 155.165,176.224 155.162,176.578 155.069 C 176.932 154.977,176.556 154.904,175.741 154.908 C 174.926 154.912,174.636 154.988,175.097 155.077 M223.615 155.077 C 224.076 155.165,224.743 155.162,225.097 155.069 C 225.451 154.977,225.074 154.904,224.259 154.908 C 223.444 154.912,223.155 154.988,223.615 155.077 M85.840 265.083 C 86.506 265.166,87.506 265.164,88.062 265.079 C 88.619 264.995,88.074 264.928,86.852 264.930 C 85.630 264.932,85.174 265.001,85.840 265.083 M268.519 270.185 L 268.519 272.222 270.370 272.222 L 272.222 272.222 272.222 301.111 L 272.222 330.000 267.778 330.000 L 263.333 330.000 263.333 332.037 L 263.333 334.074 269.815 334.074 L 276.296 334.074 276.296 303.148 L 276.296 272.222 274.444 272.222 L 272.593 272.222 272.593 270.185 L 272.593 268.148 270.556 268.148 L 268.519 268.148 268.519 270.185 M290.000 270.185 L 290.000 272.222 291.852 272.222 L 293.704 272.222 293.704 301.111 L 293.704 330.000 289.074 330.000 L 284.444 330.000 284.444 328.148 L 284.444 326.296 282.593 326.296 L 280.741 326.296 280.741 328.148 L 280.741 330.000 282.593 330.000 L 284.444 330.000 284.444 332.037 L 284.444 334.074 290.912 334.074 L 297.380 334.074 297.486 325.833 C 297.553 320.674,297.411 316.069,297.107 313.519 C 296.619 309.417,296.721 301.950,297.294 299.815 C 297.458 299.204,297.547 292.745,297.491 285.463 L 297.389 272.222 295.546 272.222 L 293.704 272.222 293.704 270.185 L 293.704 268.148 291.852 268.148 L 290.000 268.148 290.000 270.185 M106.667 270.556 L 106.667 272.593 108.519 272.593 L 110.370 272.593 110.375 274.722 C 110.378 275.894,110.479 277.218,110.599 277.666 L 110.817 278.481 100.316 278.309 C 94.540 278.214,88.356 278.066,86.574 277.981 L 83.333 277.826 83.333 284.839 L 83.333 291.852 85.278 291.853 L 87.222 291.853 87.108 286.978 L 86.994 282.102 100.730 282.333 L 114.466 282.563 114.363 277.671 L 114.259 272.778 112.407 272.593 L 110.556 272.407 110.444 270.463 L 110.332 268.519 108.499 268.519 L 106.667 268.519 106.667 270.556 M152.386 273.812 C 152.285 274.075,152.253 276.867,152.315 280.016 L 152.428 285.741 152.510 279.732 L 152.593 273.723 158.426 273.610 L 164.259 273.498 158.414 273.416 C 153.918 273.352,152.527 273.444,152.386 273.812 M79.789 283.148 C 79.790 288.037,79.842 289.986,79.906 287.479 C 79.971 284.972,79.970 280.972,79.906 278.590 C 79.842 276.208,79.789 278.259,79.789 283.148 M164.074 279.055 L 164.074 281.072 166.019 281.184 L 167.963 281.296 168.074 283.426 C 168.183 285.512,168.207 285.556,169.278 285.556 C 170.340 285.556,170.370 285.606,170.370 287.382 C 170.370 288.993,170.468 289.222,171.204 289.326 C 171.930 289.429,172.051 289.695,172.149 291.389 C 172.257 293.269,172.297 293.333,173.353 293.333 L 174.444 293.333 174.444 296.852 L 174.444 300.370 171.296 300.370 L 168.148 300.370 168.148 315.185 L 168.148 330.000 164.259 330.000 L 160.370 330.000 160.370 332.037 L 160.370 334.074 166.107 334.074 L 171.843 334.074 171.940 319.352 L 172.037 304.630 174.722 304.521 L 177.407 304.412 177.407 298.873 L 177.407 293.333 175.926 293.333 L 174.444 293.333 174.444 291.296 L 174.444 289.259 173.148 289.259 L 171.852 289.259 171.852 285.370 L 171.852 281.481 170.000 281.481 L 168.148 281.481 168.148 279.259 L 168.148 277.037 166.111 277.037 L 164.074 277.037 164.074 279.055 M245.975 287.598 C 246.307 288.002,246.690 288.699,246.826 289.145 C 246.962 289.592,247.827 290.378,248.749 290.893 L 250.424 291.830 249.379 290.637 C 248.182 289.271,245.058 286.482,245.975 287.598 M139.273 287.535 C 139.256 287.929,140.794 290.141,141.204 290.313 C 144.225 291.582,145.644 295.442,144.950 300.504 L 144.714 302.222 142.913 302.222 C 141.336 302.222,141.111 302.126,141.111 301.453 C 141.111 300.365,139.148 298.519,137.991 298.519 C 137.152 298.519,137.037 298.671,137.037 299.785 C 137.037 301.940,137.299 302.222,139.299 302.222 L 141.111 302.222 141.111 304.259 L 141.111 306.296 144.949 306.296 L 148.787 306.296 149.039 303.195 C 149.330 299.606,148.633 297.037,147.367 297.037 C 146.853 297.037,146.663 296.766,146.653 296.019 C 146.641 295.063,139.311 286.638,139.273 287.535 M124.068 290.833 C 121.937 291.914,121.033 293.472,121.183 295.811 L 121.296 297.593 121.990 295.599 C 122.434 294.327,123.313 292.954,124.422 291.803 C 126.393 289.758,126.361 289.671,124.068 290.833 M224.889 290.619 C 221.681 292.200,218.428 298.889,220.867 298.889 C 221.568 298.889,221.824 298.586,222.199 297.315 C 222.921 294.871,224.477 292.250,225.905 291.072 C 227.330 289.897,226.817 289.669,224.889 290.619 M250.749 292.979 C 251.223 293.865,251.816 301.197,251.838 306.444 L 251.852 309.741 237.457 309.474 L 223.062 309.207 222.859 311.177 C 222.585 313.826,223.403 315.581,225.185 316.167 L 226.481 316.593 226.831 314.909 L 227.181 313.225 233.313 313.444 L 239.444 313.664 240.741 312.407 L 242.037 311.150 244.057 312.427 C 246.077 313.704,246.077 313.704,250.631 313.704 L 255.185 313.704 255.177 306.019 C 255.168 297.624,254.996 296.765,252.795 294.158 C 251.441 292.554,250.112 291.788,250.749 292.979 M327.778 294.259 L 327.778 296.296 329.630 296.296 L 331.481 296.296 331.481 313.148 L 331.481 330.000 325.556 330.000 L 319.630 330.000 319.630 328.339 L 319.630 326.677 317.829 327.387 C 311.401 329.921,305.556 329.526,305.556 326.558 C 305.556 325.880,305.257 325.629,304.074 325.313 C 302.113 324.790,302.204 325.146,304.576 327.285 C 305.666 328.269,306.857 329.539,307.221 330.108 C 309.431 333.559,316.733 334.135,322.231 331.292 L 323.333 330.722 323.333 332.398 L 323.333 334.074 329.444 334.074 L 335.556 334.074 335.556 315.390 L 335.556 296.705 333.611 296.593 L 331.667 296.481 331.556 294.352 L 331.445 292.222 329.611 292.222 L 327.778 292.222 327.778 294.259 M128.532 294.178 C 126.186 295.131,124.815 296.828,124.815 298.779 C 124.815 300.352,128.380 302.366,129.031 301.161 C 129.716 299.894,131.256 298.546,132.274 298.322 C 133.305 298.095,133.333 298.026,133.333 295.711 L 133.333 293.333 131.944 293.345 C 131.181 293.351,129.645 293.726,128.532 294.178 M230.177 293.685 C 228.124 294.163,224.815 297.214,224.815 298.630 C 224.815 299.108,231.934 298.699,232.933 298.164 C 233.982 297.603,238.784 297.663,239.002 298.241 C 239.198 298.760,238.904 295.621,238.692 294.927 C 238.422 294.041,232.413 293.165,230.177 293.685 M207.166 295.636 C 207.542 296.934,207.808 297.236,208.749 297.428 C 209.371 297.555,210.060 297.771,210.280 297.907 C 210.735 298.189,211.481 301.339,211.481 302.981 L 211.481 304.074 208.227 304.074 L 204.972 304.074 203.592 302.423 C 201.576 300.012,199.034 299.447,195.252 300.570 L 193.333 301.140 193.333 315.570 L 193.333 330.000 189.259 330.000 L 185.185 330.000 185.185 328.148 L 185.185 326.296 183.148 326.296 L 181.111 326.296 181.111 328.148 L 181.111 330.000 183.148 330.000 L 185.185 330.000 185.185 332.037 L 185.185 334.074 191.296 334.074 L 197.407 334.074 197.407 319.658 L 197.407 305.243 198.611 304.877 C 202.849 303.589,204.769 303.919,207.131 306.342 C 208.795 308.050,208.997 308.148,210.835 308.149 L 212.778 308.150 212.662 303.843 C 212.547 299.570,212.537 299.527,211.366 298.311 C 210.716 297.637,209.540 296.408,208.752 295.580 C 206.935 293.672,206.601 293.683,207.166 295.636 M92.963 297.407 L 92.963 299.630 94.815 299.630 L 96.667 299.630 96.667 301.798 L 96.667 303.965 93.833 304.205 C 92.274 304.337,89.274 304.444,87.166 304.444 L 83.333 304.444 83.333 310.000 L 83.333 315.556 85.171 315.556 L 87.009 315.556 87.116 312.130 L 87.222 308.704 93.889 308.472 C 97.556 308.345,100.597 308.220,100.648 308.194 C 100.699 308.169,100.741 306.231,100.741 303.889 L 100.741 299.630 98.889 299.630 L 97.037 299.630 97.037 297.407 L 97.037 295.185 95.000 295.185 L 92.963 295.185 92.963 297.407 M150.370 298.889 C 150.370 300.617,150.432 300.741,151.296 300.741 L 152.222 300.741 152.309 313.611 L 152.396 326.481 152.516 315.556 C 152.681 300.532,152.444 297.037,151.261 297.037 C 150.439 297.037,150.370 297.180,150.370 298.889 M197.407 298.333 C 197.407 299.796,197.396 299.788,198.692 299.197 L 199.642 298.764 198.830 297.901 C 197.720 296.719,197.407 296.814,197.407 298.333 M306.833 298.669 C 301.947 300.797,300.038 311.296,303.696 315.926 L 304.428 316.852 304.439 314.074 C 304.464 307.854,305.984 302.437,308.377 300.044 C 309.269 299.152,310.000 298.360,310.000 298.285 C 310.000 297.960,307.867 298.219,306.833 298.669 M79.785 308.333 C 79.785 312.407,79.839 314.125,79.906 312.149 C 79.972 310.174,79.972 306.841,79.906 304.742 C 79.840 302.643,79.786 304.259,79.785 308.333 M310.130 302.566 C 306.543 304.753,304.806 310.213,305.898 315.863 C 306.274 317.809,306.473 318.021,308.230 318.344 L 309.607 318.597 309.551 315.850 C 309.471 311.926,311.550 307.978,314.499 306.453 C 315.941 305.707,316.107 302.456,314.722 302.085 C 313.144 301.662,311.294 301.856,310.130 302.566 M118.731 304.619 C 119.388 305.622,121.852 307.611,121.852 307.138 C 121.852 306.498,120.707 305.239,119.452 304.498 L 118.147 303.728 118.731 304.619 M219.121 307.601 C 218.928 309.245,219.024 309.919,219.609 311.027 L 220.338 312.407 220.354 308.981 C 220.373 304.930,219.544 304.002,219.121 307.601 M227.778 306.334 C 227.778 306.715,245.841 306.454,246.265 306.067 C 246.350 305.989,242.225 305.926,237.099 305.926 C 230.561 305.926,227.778 306.048,227.778 306.334 M122.222 307.776 C 122.222 309.022,127.816 313.097,131.132 314.267 C 133.039 314.939,133.136 314.866,132.716 313.076 C 132.366 311.584,132.148 311.462,127.956 310.396 C 127.137 310.188,125.512 309.442,124.344 308.739 C 123.177 308.037,122.222 307.603,122.222 307.776 M141.138 308.756 C 141.515 309.497,141.872 310.238,141.931 310.404 C 141.989 310.570,142.680 310.973,143.467 311.301 L 144.897 311.896 144.108 310.788 C 143.674 310.179,142.674 309.170,141.885 308.545 L 140.451 307.409 141.138 308.756 M145.231 313.028 C 148.042 318.148,142.234 328.174,135.288 330.193 C 130.199 331.673,122.319 329.781,120.396 326.619 C 119.812 325.660,117.778 324.138,117.778 324.661 C 117.778 325.302,124.956 331.909,126.485 332.675 C 135.396 337.140,143.193 334.932,148.112 326.553 C 150.910 321.789,149.585 314.749,145.477 312.550 C 144.813 312.195,144.794 312.231,145.231 313.028 M122.224 315.629 C 122.226 317.201,123.565 318.889,124.809 318.889 C 125.555 318.889,125.926 319.073,125.926 319.444 C 125.926 320.063,128.319 320.232,129.198 319.675 C 129.782 319.305,128.601 318.902,126.910 318.894 C 125.872 318.889,125.860 318.863,125.984 316.944 L 126.111 315.000 124.167 314.888 C 122.351 314.784,122.222 314.833,122.224 315.629 M245.823 318.241 C 243.523 321.372,242.399 322.388,239.801 323.676 L 237.593 324.772 239.197 324.793 C 241.590 324.825,245.716 322.902,247.979 320.698 C 249.646 319.075,249.920 318.934,250.528 319.378 C 251.332 319.966,248.112 324.584,245.842 326.099 C 239.294 330.468,224.979 330.143,221.924 325.556 C 221.200 324.468,219.630 323.332,219.630 323.896 C 219.630 325.724,228.007 332.003,231.315 332.654 C 241.318 334.622,248.743 332.488,253.305 326.334 C 255.685 323.124,255.684 322.643,253.295 321.158 C 251.700 320.167,251.477 319.896,251.866 319.427 C 252.120 319.121,252.262 318.827,252.182 318.774 C 250.550 317.684,247.756 315.926,247.656 315.926 C 247.582 315.926,246.757 316.968,245.823 318.241 M105.555 321.019 L 105.555 323.148 107.407 323.020 L 109.259 322.891 109.259 326.446 L 109.259 330.000 94.630 330.000 L 80.000 330.000 80.000 328.148 L 80.000 326.296 77.963 326.296 L 75.926 326.296 75.926 328.148 L 75.926 330.000 77.963 330.000 L 80.000 330.000 80.000 332.037 L 80.000 334.074 96.667 334.074 L 113.333 334.074 113.333 328.471 L 113.333 322.869 111.481 323.047 L 109.630 323.225 109.630 321.057 L 109.630 318.889 107.593 318.889 L 105.556 318.889 105.555 321.019 M139.630 319.925 C 139.630 320.784,135.085 325.153,133.521 325.796 C 131.594 326.589,131.559 327.087,133.398 327.552 C 137.335 328.546,141.267 324.946,140.490 321.060 C 140.288 320.051,139.630 319.182,139.630 319.925 M314.444 323.601 C 314.139 323.716,313.486 323.959,312.994 324.142 C 312.113 324.468,312.111 324.482,312.839 324.992 C 314.617 326.237,315.556 326.126,315.556 324.670 C 315.556 323.321,315.452 323.222,314.444 323.601 M156.296 328.148 L 156.296 330.000 158.148 330.000 L 160.000 330.000 160.000 328.148 L 160.000 326.296 158.148 326.296 L 156.296 326.296 156.296 328.148 M259.259 328.148 L 259.259 330.000 261.111 330.000 L 262.963 330.000 262.963 328.148 L 262.963 326.296 261.111 326.296 L 259.259 326.296 259.259 328.148 " stroke="none" fill="#acacab" fill-rule="evenodd"></path><path id="path4" d="M132.500 127.315 C 109.532 127.367,90.741 127.535,90.741 127.687 C 90.741 128.119,173.792 127.838,174.225 127.404 C 174.427 127.202,174.518 127.078,174.426 127.128 C 174.334 127.178,155.468 127.262,132.500 127.315 M246.759 127.685 C 258.319 127.739,277.236 127.739,288.796 127.685 C 300.356 127.631,290.898 127.586,267.778 127.586 C 244.657 127.586,235.199 127.631,246.759 127.685 M142.963 132.963 L 107.593 133.154 142.849 133.244 C 166.050 133.303,178.183 133.207,178.333 132.963 C 178.459 132.759,178.511 132.633,178.448 132.682 C 178.385 132.732,162.417 132.858,142.963 132.963 M234.259 133.235 C 267.274 133.490,292.222 133.492,292.222 133.241 C 292.222 133.088,276.347 133.002,256.944 133.051 C 237.542 133.099,227.333 133.182,234.259 133.235 M170.278 139.521 C 170.736 139.609,171.486 139.609,171.944 139.521 C 172.403 139.432,172.028 139.360,171.111 139.360 C 170.194 139.360,169.819 139.432,170.278 139.521 M228.056 139.521 C 228.514 139.609,229.264 139.609,229.722 139.521 C 230.181 139.432,229.806 139.360,228.889 139.360 C 227.972 139.360,227.597 139.432,228.056 139.521 M183.805 152.593 C 183.805 153.509,183.877 153.884,183.965 153.426 C 184.053 152.968,184.053 152.218,183.965 151.759 C 183.877 151.301,183.805 151.676,183.805 152.593 M268.519 299.259 L 268.519 326.296 265.741 326.296 L 262.963 326.296 262.963 328.148 L 262.963 330.000 267.593 330.000 L 272.222 330.000 272.222 301.111 L 272.222 272.222 270.370 272.222 L 268.519 272.222 268.519 299.259 M290.000 299.259 L 290.000 326.296 287.222 326.296 L 284.444 326.296 284.444 328.148 L 284.444 330.000 289.074 330.000 L 293.704 330.000 293.704 301.111 L 293.704 272.222 291.852 272.222 L 290.000 272.222 290.000 299.259 M106.667 273.697 L 106.667 274.802 93.333 274.563 L 80.000 274.324 80.000 283.088 L 80.000 291.852 81.667 291.852 L 83.333 291.852 83.333 284.839 L 83.333 277.826 86.574 277.981 C 88.356 278.066,94.540 278.214,100.316 278.309 L 110.817 278.481 110.599 277.666 C 110.479 277.218,110.378 275.894,110.375 274.722 L 110.370 272.593 108.519 272.593 C 106.710 272.593,106.667 272.619,106.667 273.697 M164.074 283.314 L 164.074 285.556 166.130 285.556 L 168.185 285.556 168.074 283.426 L 167.963 281.296 166.019 281.184 L 164.074 281.072 164.074 283.314 M170.370 293.122 L 170.370 297.037 167.222 297.037 L 164.074 297.037 164.074 311.667 L 164.074 326.296 162.037 326.296 L 160.000 326.296 160.000 328.148 L 160.000 330.000 164.074 330.000 L 168.148 330.000 168.148 315.185 L 168.148 300.370 171.296 300.370 L 174.444 300.370 174.444 296.852 L 174.444 293.333 173.353 293.333 C 172.297 293.333,172.257 293.269,172.149 291.389 C 172.051 289.695,171.930 289.429,171.204 289.326 C 170.385 289.210,170.370 289.275,170.370 293.122 M124.662 291.586 C 121.374 294.874,120.745 297.855,123.043 299.256 C 124.669 300.247,124.815 300.206,124.815 298.758 C 124.815 296.017,128.302 293.374,131.957 293.345 C 133.715 293.330,133.402 292.443,131.036 290.729 C 128.597 288.962,127.083 289.165,124.662 291.586 M225.842 291.124 C 224.520 292.214,222.507 295.760,222.011 297.870 C 221.555 299.810,224.355 299.318,225.618 297.235 C 227.721 293.768,232.510 292.531,237.359 294.201 C 238.775 294.689,238.843 294.680,238.509 294.055 C 236.600 290.489,228.802 288.684,225.842 291.124 M141.135 291.358 C 141.958 293.524,141.151 298.519,139.978 298.519 L 138.946 298.519 140.028 299.601 C 140.624 300.197,141.111 301.030,141.111 301.453 C 141.111 302.126,141.336 302.222,142.913 302.222 L 144.714 302.222 144.950 300.504 C 145.562 296.040,144.849 293.252,142.617 291.374 C 141.108 290.104,140.656 290.099,141.135 291.358 M247.533 292.130 C 247.654 293.097,247.866 296.578,248.004 299.865 L 248.254 305.842 246.442 306.058 C 241.132 306.690,227.778 306.761,227.778 306.156 C 227.778 305.643,227.245 305.556,224.099 305.556 L 220.421 305.556 220.303 309.167 L 220.185 312.778 221.574 314.167 C 223.281 315.874,223.823 315.937,223.169 314.352 C 222.858 313.599,222.746 312.411,222.867 311.177 L 223.062 309.207 237.457 309.474 L 251.852 309.741 251.838 306.444 C 251.795 296.076,251.029 292.033,248.901 290.932 C 247.347 290.129,247.288 290.180,247.533 292.130 M192.778 296.549 C 192.370 296.640,191.495 296.884,190.833 297.090 L 189.630 297.465 189.630 311.881 L 189.630 326.296 187.407 326.296 L 185.185 326.296 185.185 328.148 L 185.185 330.000 189.259 330.000 L 193.333 330.000 193.333 315.566 L 193.333 301.132 195.425 300.524 C 196.638 300.171,198.188 299.992,199.116 300.096 C 200.616 300.265,200.692 300.231,200.327 299.548 C 199.949 298.843,199.555 298.825,198.056 299.442 C 197.502 299.670,197.407 299.493,197.407 298.236 C 197.407 296.499,195.726 295.886,192.778 296.549 M327.778 311.320 L 327.778 326.344 321.389 326.228 C 315.682 326.124,314.837 326.025,313.470 325.307 C 311.362 324.199,305.559 325.128,305.557 326.574 C 305.552 329.525,311.418 329.914,317.829 327.387 L 319.630 326.677 319.630 328.339 L 319.630 330.000 325.556 330.000 L 331.481 330.000 331.481 313.148 L 331.481 296.296 329.630 296.296 L 327.778 296.296 327.778 311.320 M207.656 298.746 L 207.878 300.370 204.754 300.370 L 201.629 300.370 203.368 302.222 L 205.106 304.074 208.294 304.074 L 211.481 304.074 211.481 302.981 C 211.481 301.366,210.739 298.190,210.297 297.917 C 210.085 297.787,209.355 297.554,208.673 297.400 L 207.433 297.121 207.656 298.746 M308.328 300.093 C 305.216 303.205,302.888 316.178,305.217 317.424 C 306.241 317.973,306.287 317.875,305.910 315.926 C 304.394 308.083,308.071 301.396,313.587 301.965 C 316.781 302.295,315.836 299.861,312.407 298.926 C 310.216 298.329,310.042 298.379,308.328 300.093 M92.871 300.093 C 92.759 300.430,90.961 300.606,86.266 300.741 L 79.815 300.926 79.815 308.426 L 79.815 315.926 81.574 315.926 L 83.333 315.926 83.333 310.185 L 83.333 304.444 87.166 304.444 C 89.274 304.444,92.274 304.337,93.833 304.205 L 96.667 303.965 96.667 301.798 L 96.667 299.630 94.846 299.630 C 93.718 299.630,92.966 299.806,92.871 300.093 M121.517 306.366 C 122.373 307.973,125.663 309.816,129.386 310.773 C 132.444 311.560,132.396 311.570,131.357 310.370 C 129.832 308.612,128.511 307.856,125.834 307.211 C 124.357 306.855,122.679 306.327,122.105 306.037 C 121.075 305.518,121.067 305.522,121.517 306.366 M141.852 313.271 C 141.852 315.228,141.644 316.210,140.934 317.613 C 140.162 319.138,140.073 319.636,140.371 320.743 C 141.574 325.210,136.518 329.337,132.445 327.214 C 131.566 326.755,130.980 326.725,129.198 327.048 C 126.879 327.469,124.469 327.185,121.574 326.151 C 119.867 325.541,119.688 325.687,120.580 326.960 C 123.406 330.994,133.877 331.931,138.836 328.593 C 146.142 323.676,148.429 310.741,141.992 310.741 C 141.915 310.741,141.852 311.879,141.852 313.271 M124.608 319.456 C 125.524 320.149,125.926 320.146,125.926 319.444 C 125.926 319.082,125.571 318.893,124.907 318.901 C 123.932 318.912,123.919 318.935,124.608 319.456 M248.019 320.684 C 245.862 322.873,241.432 324.911,239.121 324.776 C 238.280 324.727,236.688 324.906,235.582 325.174 C 233.436 325.694,226.009 325.486,223.159 324.826 C 221.326 324.402,221.154 324.564,222.086 325.839 C 225.244 330.161,239.520 330.317,245.842 326.099 C 246.866 325.416,251.111 320.365,251.111 319.829 C 251.111 318.676,249.580 319.099,248.019 320.684 M105.802 323.210 C 105.667 323.346,105.556 324.096,105.556 324.877 L 105.556 326.296 92.778 326.296 L 80.000 326.296 80.000 328.148 L 80.000 330.000 94.630 330.000 L 109.259 330.000 109.259 326.481 L 109.259 322.963 107.654 322.963 C 106.772 322.963,105.938 323.074,105.802 323.210 " stroke="none" fill="#7e6d1f" fill-rule="evenodd"></path></g></svg>