<svg id="svg" version="1.1" xmlns="http://www.w3.org/2000/svg" xmlns:xlink="http://www.w3.org/1999/xlink" width="400" height="400" viewBox="0, 0, 400,400"><g id="svgg"><path id="path0" d="M194.074 62.461 C 191.120 64.190,172.912 74.800,153.611 86.039 L 118.519 106.473 118.519 153.888 L 118.519 201.304 142.685 215.355 C 155.977 223.083,174.234 233.707,183.256 238.963 C 199.518 248.435,200.263 248.824,200.944 248.192 C 201.138 248.013,218.713 237.748,240.000 225.382 C 261.287 213.015,279.329 202.493,280.093 201.999 L 281.481 201.101 281.481 153.929 C 281.481 116.643,281.384 106.677,281.019 106.374 C 280.024 105.550,200.227 59.261,199.848 59.288 C 199.626 59.304,197.028 60.732,194.074 62.461 M238.148 87.714 L 275.741 109.589 275.741 153.889 L 275.741 198.189 237.849 220.234 L 199.957 242.280 175.256 227.913 C 161.671 220.012,144.639 210.101,137.407 205.888 L 124.259 198.230 124.259 153.894 L 124.259 109.559 134.259 103.726 C 183.398 75.067,199.864 65.567,200.183 65.692 C 200.388 65.772,217.472 75.682,238.148 87.714 M162.905 119.389 C 147.410 125.111,151.125 147.222,167.581 147.222 C 186.254 147.222,186.630 119.449,167.963 118.981 C 165.552 118.921,163.787 119.063,162.905 119.389 M228.090 119.389 C 212.595 125.111,216.310 147.222,232.766 147.222 C 251.440 147.222,251.815 119.449,233.148 118.981 C 230.737 118.921,228.972 119.063,228.090 119.389 M175.619 125.780 C 178.216 127.107,179.257 131.292,177.559 133.584 C 175.079 136.931,170.993 137.167,168.423 134.114 C 164.451 129.393,170.034 122.927,175.619 125.780 M229.259 125.384 C 233.686 126.613,234.234 133.017,230.118 135.429 C 224.632 138.644,218.921 131.632,223.248 126.993 C 224.087 126.093,225.157 125.378,225.933 125.198 C 227.233 124.896,227.573 124.915,229.259 125.384 M161.545 137.650 C 163.010 138.976,161.802 141.282,159.767 141.046 C 159.106 140.970,158.528 140.570,158.182 139.950 C 157.040 137.907,159.767 136.041,161.545 137.650 M241.545 137.650 C 243.480 139.401,240.852 142.172,238.728 140.619 C 237.954 140.053,237.840 138.410,238.518 137.594 C 239.130 136.856,240.700 136.886,241.545 137.650 M78.024 273.426 C 77.890 280.403,77.671 292.569,77.535 300.463 L 77.289 314.815 75.497 314.815 C 74.038 314.815,73.703 314.936,73.700 315.463 C 73.697 315.819,73.592 316.736,73.466 317.500 L 73.236 318.889 76.989 318.889 C 79.052 318.889,80.751 318.847,80.763 318.796 C 80.817 318.568,81.823 267.575,81.837 264.352 L 81.852 260.741 80.059 260.741 L 78.266 260.741 78.024 273.426 M51.852 268.355 L 51.852 275.598 53.426 275.484 L 55.000 275.370 55.101 268.241 L 55.201 261.111 53.527 261.111 L 51.852 261.111 51.852 268.355 M202.505 272.222 C 200.726 276.369,200.533 277.037,201.113 277.037 C 201.654 277.037,207.344 269.412,208.086 267.693 C 208.154 267.536,207.391 267.407,206.390 267.407 L 204.571 267.407 202.505 272.222 M97.134 279.901 C 95.650 281.280,93.333 285.512,93.333 286.844 C 93.333 288.084,95.749 287.525,96.896 286.019 C 99.681 282.364,104.103 281.256,108.848 283.024 C 110.178 283.520,110.255 283.085,109.058 281.835 C 107.390 280.094,104.642 278.949,101.481 278.680 L 98.704 278.443 97.134 279.901 M119.014 280.093 C 119.126 280.551,119.335 284.032,119.478 287.829 L 119.737 294.731 113.665 294.954 C 100.167 295.448,98.889 295.446,98.889 294.931 C 98.889 294.563,98.030 294.444,95.370 294.444 L 91.852 294.444 91.800 296.204 C 91.668 300.689,92.029 302.138,93.523 303.117 C 94.320 303.640,94.328 303.624,94.157 301.843 C 94.062 300.851,94.097 299.589,94.235 299.037 L 94.487 298.034 108.725 298.298 L 122.963 298.562 122.940 294.559 C 122.881 284.517,122.144 280.590,120.150 279.681 C 118.879 279.102,118.779 279.138,119.014 280.093 M251.343 290.463 C 252.048 323.253,248.530 329.379,228.979 329.400 L 222.957 329.406 222.600 330.701 C 222.157 332.305,221.686 332.063,226.672 332.799 C 242.035 335.065,250.528 331.334,253.300 321.098 C 254.795 315.578,255.599 291.872,254.621 282.137 L 254.369 279.630 252.740 279.630 L 251.110 279.630 251.343 290.463 M232.778 280.370 C 232.098 280.663,232.113 280.691,232.963 280.721 C 233.472 280.739,234.806 281.248,235.926 281.851 L 237.963 282.948 236.341 281.474 C 234.697 279.980,234.110 279.798,232.778 280.370 M162.918 288.029 L 158.252 293.837 159.896 295.953 L 161.540 298.070 167.564 290.575 C 170.877 286.452,173.707 282.887,173.853 282.651 C 174.046 282.339,173.231 282.222,170.850 282.222 L 167.583 282.222 162.918 288.029 M227.677 283.402 C 227.173 284.077,226.379 285.796,225.912 287.222 C 225.446 288.648,224.676 290.648,224.202 291.667 C 223.037 294.171,223.088 295.367,224.416 296.695 C 225.935 298.214,226.302 298.076,226.216 296.019 C 226.045 291.935,227.402 284.493,228.576 283.079 C 228.806 282.801,228.904 282.484,228.794 282.374 C 228.684 282.264,228.181 282.726,227.677 283.402 M210.000 300.000 L 210.000 314.815 205.833 314.893 C 199.691 315.008,197.786 314.839,195.857 314.009 C 194.345 313.359,193.876 313.315,192.227 313.668 C 191.186 313.891,189.748 314.074,189.031 314.074 C 187.968 314.074,187.761 314.194,187.909 314.722 C 188.008 315.079,188.197 315.746,188.329 316.204 C 188.960 318.398,196.015 318.317,200.445 316.064 C 201.842 315.354,201.852 315.362,201.852 317.222 L 201.852 318.889 207.778 318.889 L 213.704 318.889 213.704 302.037 L 213.704 285.185 211.852 285.185 L 210.000 285.185 210.000 300.000 M307.593 285.688 L 306.111 286.135 306.014 300.475 L 305.917 314.815 303.699 314.815 L 301.481 314.815 301.481 316.852 L 301.481 318.889 305.556 318.889 L 309.630 318.889 309.630 304.455 L 309.630 290.021 311.696 289.420 C 312.833 289.089,314.500 288.878,315.400 288.949 C 317.186 289.091,317.260 289.029,316.502 288.029 C 316.027 287.403,315.911 287.396,314.866 287.937 C 313.329 288.731,313.333 288.734,313.333 286.852 L 313.333 285.185 311.204 285.214 C 310.032 285.229,308.407 285.443,307.593 285.688 M324.380 290.813 C 324.462 293.523,324.677 296.021,324.857 296.365 C 325.038 296.708,325.185 301.833,325.185 307.753 L 325.185 318.519 326.481 318.519 L 327.778 318.519 327.778 304.877 C 327.778 288.181,327.575 286.724,325.169 286.120 L 324.231 285.885 324.380 290.813 M362.112 289.193 C 363.374 292.851,363.172 304.608,361.804 307.081 C 360.707 309.065,358.193 311.015,356.380 311.290 C 355.621 311.405,354.500 311.682,353.889 311.907 C 353.278 312.131,351.944 312.621,350.926 312.997 C 348.640 313.840,344.167 313.919,341.650 313.162 C 339.400 312.484,339.314 312.578,340.719 314.178 C 343.536 317.386,351.805 318.415,356.481 316.138 C 365.922 311.542,369.499 298.267,363.742 289.193 C 361.842 286.199,361.078 286.199,362.112 289.193 M191.187 288.309 C 187.830 291.342,185.350 304.324,187.831 305.874 C 188.550 306.322,188.600 306.304,188.354 305.685 C 185.786 299.223,190.082 290.479,195.648 290.837 C 198.961 291.049,198.245 288.491,194.757 287.648 C 194.215 287.517,193.521 287.314,193.214 287.196 C 192.880 287.068,192.067 287.514,191.187 288.309 M269.123 289.268 C 267.614 290.680,266.291 292.362,265.521 293.846 L 264.305 296.193 264.952 297.890 C 266.397 301.672,268.473 303.168,268.231 300.254 C 267.719 294.078,273.112 289.578,279.047 291.227 L 280.131 291.529 279.208 290.301 C 276.408 286.579,272.434 286.172,269.123 289.268 M287.578 287.635 C 288.881 290.787,289.055 292.485,288.907 300.556 C 288.783 307.365,285.938 311.440,281.286 311.473 C 280.669 311.478,279.834 311.713,279.429 311.997 C 277.145 313.597,271.323 314.182,267.929 313.152 C 265.456 312.402,265.387 312.427,266.330 313.751 C 268.872 317.321,277.594 318.507,282.724 315.981 C 292.289 311.270,295.831 297.083,289.506 288.813 C 288.220 287.132,287.083 286.437,287.578 287.635 M344.012 288.333 C 338.600 292.473,337.361 297.695,340.975 301.135 L 342.311 302.407 342.065 300.691 C 341.247 294.973,346.658 289.785,352.130 291.041 C 354.004 291.472,354.091 291.185,352.553 289.647 C 349.749 286.843,346.595 286.357,344.012 288.333 M51.111 296.924 C 51.111 299.977,51.002 305.251,50.868 308.645 L 50.624 314.815 48.646 314.815 L 46.667 314.815 46.667 316.852 L 46.667 318.889 50.556 318.889 L 54.444 318.889 54.444 314.504 C 54.444 312.092,54.554 306.842,54.688 302.837 L 54.932 295.556 60.244 295.556 L 65.556 295.556 65.556 293.704 L 65.556 291.852 60.833 291.849 C 58.236 291.848,54.986 291.740,53.611 291.610 L 51.111 291.374 51.111 296.924 M146.224 309.811 L 142.778 314.808 140.905 314.811 C 139.185 314.815,136.667 316.914,136.667 318.344 C 136.667 318.440,138.875 318.514,141.574 318.508 L 146.481 318.497 149.700 313.825 L 152.918 309.152 151.445 306.983 C 149.625 304.303,150.262 303.957,146.224 309.811 M225.187 305.833 C 225.190 306.517,226.712 308.519,227.229 308.519 C 227.544 308.519,228.625 308.935,229.630 309.444 C 231.956 310.623,232.847 310.607,236.683 309.318 C 239.838 308.259,241.170 307.037,239.171 307.037 C 238.685 307.037,237.022 306.706,235.475 306.300 C 232.897 305.625,232.532 305.610,231.100 306.115 C 229.163 306.798,227.867 306.797,226.667 306.111 C 225.617 305.511,225.185 305.430,225.187 305.833 M119.427 309.298 C 117.490 311.310,113.126 313.333,110.724 313.333 C 109.748 313.333,107.894 313.604,106.604 313.935 C 104.334 314.518,97.970 314.273,93.946 313.449 L 92.892 313.233 93.491 314.391 C 95.852 318.957,111.082 319.280,117.271 314.896 C 118.859 313.771,122.559 308.633,122.107 308.181 C 121.436 307.510,120.956 307.710,119.427 309.298 M173.259 313.778 C 174.174 314.693,173.536 314.801,166.656 314.899 L 159.608 315.000 160.823 316.756 L 162.037 318.511 169.559 318.515 C 175.476 318.518,177.023 318.420,176.808 318.056 C 176.185 316.996,173.272 313.333,173.052 313.333 C 172.922 313.333,173.015 313.533,173.259 313.778 " stroke="none" fill="#292828" fill-rule="evenodd"></path><path id="path1" d="M194.049 69.035 C 190.878 70.890,173.837 80.818,156.179 91.098 L 124.074 109.789 124.074 153.886 L 124.074 197.983 161.935 220.010 C 182.758 232.125,199.961 241.983,200.163 241.918 C 200.365 241.852,217.492 231.936,238.223 219.881 L 275.916 197.963 275.916 153.889 L 275.916 109.815 239.937 88.889 C 220.149 77.380,203.026 67.445,201.886 66.813 L 199.815 65.663 194.049 69.035 M171.307 119.093 C 181.981 121.873,185.648 135.563,177.800 143.329 C 173.689 147.397,166.703 148.708,161.674 146.354 C 145.449 138.762,153.993 114.583,171.307 119.093 M237.778 119.422 C 246.705 122.559,250.001 134.030,244.233 141.887 C 239.092 148.891,228.110 149.417,222.061 142.951 C 211.670 131.842,223.351 114.354,237.778 119.422 M70.741 252.941 L 67.222 253.148 67.124 263.956 L 67.026 274.763 65.087 274.964 C 64.021 275.075,60.981 275.261,58.333 275.378 C 55.685 275.495,53.060 275.679,52.500 275.788 L 51.481 275.985 51.481 264.465 L 51.481 252.945 45.278 253.047 L 39.074 253.148 38.979 283.981 L 38.885 314.815 44.575 314.815 L 50.265 314.815 50.503 312.538 C 50.634 311.286,50.741 307.311,50.741 303.705 C 50.741 300.099,50.849 295.874,50.980 294.315 L 51.220 291.481 58.572 291.481 L 65.923 291.481 65.680 303.148 L 65.436 314.815 71.236 314.815 L 77.037 314.815 77.045 312.315 C 77.050 310.940,77.297 297.648,77.593 282.778 C 77.890 267.907,78.136 255.032,78.140 254.167 L 78.148 252.593 76.204 252.663 C 75.134 252.702,72.676 252.827,70.741 252.941 M196.401 260.278 C 196.268 260.634,194.856 263.917,193.265 267.573 C 191.673 271.229,190.370 274.354,190.370 274.517 C 190.370 275.584,196.650 274.787,197.509 273.611 C 198.577 272.152,206.424 260.744,206.808 260.093 C 207.021 259.731,205.936 259.630,201.862 259.630 C 197.231 259.630,196.616 259.703,196.401 260.278 M94.630 269.034 C 86.271 271.664,83.250 279.878,84.250 297.261 C 84.721 305.451,84.914 306.154,87.507 309.099 C 93.773 316.218,110.553 315.703,115.978 308.225 C 116.821 307.062,118.019 305.572,118.638 304.913 C 119.257 304.254,119.692 303.660,119.604 303.593 C 119.516 303.525,118.077 302.605,116.406 301.548 L 113.367 299.625 111.719 301.387 C 104.536 309.064,89.913 305.535,90.442 296.252 L 90.556 294.259 104.966 294.405 L 119.377 294.551 119.119 287.295 C 118.803 278.417,118.472 277.102,115.896 274.486 C 111.565 270.086,100.391 267.221,94.630 269.034 M238.889 273.333 C 238.889 275.033,238.964 274.980,237.557 274.279 C 233.488 272.249,226.642 271.693,223.436 273.132 C 219.747 274.787,219.438 275.282,215.840 285.293 C 214.016 290.368,217.772 302.012,221.852 303.930 C 227.736 306.698,228.665 306.752,234.616 304.673 C 240.265 302.700,239.692 302.471,239.758 306.735 C 239.926 317.520,231.561 322.241,220.447 317.633 C 218.553 316.848,216.915 316.295,216.805 316.405 C 216.322 316.888,213.661 326.769,213.944 327.028 C 215.615 328.556,230.611 329.684,236.481 328.723 C 249.874 326.532,252.005 319.350,250.867 280.245 L 250.623 271.852 244.756 271.852 L 238.889 271.852 238.889 273.333 M126.739 275.278 C 127.235 275.940,130.590 280.359,134.195 285.099 L 140.749 293.717 133.522 303.869 C 129.548 309.453,126.296 314.226,126.296 314.475 C 126.296 314.822,127.408 314.872,131.019 314.688 C 133.616 314.556,137.324 314.439,139.259 314.429 L 142.778 314.411 146.246 309.391 C 149.139 305.204,149.796 304.454,150.205 304.871 C 150.475 305.146,152.087 307.431,153.787 309.948 L 156.879 314.527 165.002 314.466 C 169.470 314.433,173.169 314.362,173.223 314.308 C 173.277 314.254,169.907 309.690,165.734 304.164 C 161.562 298.639,158.148 294.003,158.148 293.862 C 158.148 293.582,162.994 287.466,169.328 279.750 C 171.531 277.067,173.333 274.775,173.333 274.658 C 173.333 274.540,169.356 274.444,164.496 274.444 L 155.658 274.444 152.736 278.882 C 151.129 281.322,149.731 283.319,149.630 283.318 C 149.528 283.317,148.144 281.237,146.554 278.695 L 143.663 274.074 134.750 274.074 L 125.838 274.074 126.739 275.278 M231.687 277.713 C 232.717 278.280,234.842 279.815,236.409 281.124 L 239.259 283.502 239.262 287.955 C 239.264 290.404,239.368 293.263,239.494 294.308 L 239.722 296.208 237.301 297.562 C 234.154 299.322,232.201 299.537,228.188 298.562 C 222.126 297.090,221.053 293.321,223.543 282.246 C 224.650 277.323,227.800 275.569,231.687 277.713 M267.374 277.718 C 252.901 282.495,251.293 304.939,264.941 311.671 C 280.191 319.193,294.758 301.724,286.438 285.892 C 282.777 278.925,274.486 275.371,267.374 277.718 M341.101 277.859 C 330.998 281.392,326.518 293.546,331.493 303.927 C 338.071 317.652,356.899 316.222,361.801 301.625 C 366.568 287.432,354.231 273.268,341.101 277.859 M197.992 278.678 L 197.754 279.949 195.636 279.005 C 189.960 276.474,183.669 278.246,181.345 283.029 C 177.827 290.271,178.395 307.102,182.302 311.340 C 185.094 314.369,190.524 314.717,196.175 312.229 C 197.993 311.428,198.148 311.520,198.148 313.395 L 198.148 314.815 204.074 314.815 L 210.000 314.815 210.000 296.111 L 210.000 277.407 204.115 277.407 L 198.231 277.407 197.992 278.678 M293.704 296.111 L 293.704 314.815 299.815 314.815 L 305.926 314.815 305.926 300.385 L 305.926 285.955 307.845 285.385 C 311.536 284.289,314.498 285.025,316.394 287.510 L 317.407 288.839 317.407 301.642 L 317.407 314.444 320.760 314.444 L 324.113 314.444 323.981 299.722 C 323.836 283.561,323.783 283.132,321.618 280.736 C 318.704 277.510,313.972 277.341,306.574 280.199 C 306.021 280.413,305.926 280.226,305.926 278.929 L 305.926 277.407 299.815 277.407 L 293.704 277.407 293.704 296.111 M105.315 279.149 C 108.383 280.114,110.370 282.367,110.370 284.879 L 110.370 286.921 104.537 287.163 C 93.992 287.600,91.031 287.510,91.249 286.759 C 91.353 286.403,91.619 285.409,91.840 284.552 C 93.175 279.385,98.844 277.112,105.315 279.149 M194.113 287.150 C 195.051 287.398,196.314 288.015,196.918 288.522 L 198.018 289.444 197.861 297.719 L 197.704 305.994 196.352 306.561 C 191.618 308.544,185.960 306.149,184.585 301.581 C 181.973 292.901,187.009 285.274,194.113 287.150 M276.584 287.853 C 280.388 289.633,282.127 294.574,280.339 298.519 C 276.594 306.780,264.440 304.459,264.368 295.468 C 264.316 288.942,270.575 285.040,276.584 287.853 M350.321 287.699 C 356.544 290.565,356.550 299.629,350.332 302.728 C 346.229 304.772,341.294 303.219,339.254 299.242 C 335.573 292.066,342.995 284.325,350.321 287.699 " stroke="none" fill="#fb7c04" fill-rule="evenodd"></path><path id="path2" d="M0.000 200.000 L 0.000 400.000 200.000 400.000 L 400.000 400.000 400.000 200.000 L 400.000 0.000 200.000 0.000 L 0.000 0.000 0.000 200.000 M240.926 82.757 L 281.296 106.248 281.390 153.826 L 281.484 201.404 276.761 204.166 C 242.913 223.954,200.765 248.315,200.181 248.427 C 199.729 248.515,197.405 247.383,194.256 245.543 C 188.564 242.217,172.563 232.905,140.000 213.967 L 118.704 201.582 118.704 153.888 L 118.704 106.195 152.841 86.311 C 171.616 75.376,189.700 64.832,193.026 62.882 C 196.352 60.931,199.407 59.320,199.815 59.301 C 200.222 59.282,218.722 69.837,240.926 82.757 M170.185 125.874 C 165.239 128.929,167.044 135.923,172.778 135.923 C 176.135 135.923,178.210 133.836,178.210 130.459 C 178.210 126.533,173.487 123.835,170.185 125.874 M224.841 125.813 C 221.108 127.778,220.915 133.198,224.502 135.339 C 226.434 136.493,229.383 136.131,231.062 134.534 C 235.626 130.192,230.410 122.881,224.841 125.813 M158.761 137.714 C 157.957 138.603,157.983 139.736,158.825 140.498 C 160.134 141.682,161.944 140.855,161.944 139.074 C 161.944 137.257,159.947 136.404,158.761 137.714 M238.761 137.714 C 236.977 139.686,239.602 142.250,241.481 140.370 C 241.889 139.963,242.222 139.380,242.222 139.074 C 242.222 137.458,239.840 136.522,238.761 137.714 M78.148 254.630 L 78.148 256.667 80.185 256.667 L 82.222 256.667 82.222 258.649 L 82.222 260.632 84.132 260.449 L 86.042 260.265 85.829 269.102 L 85.617 277.940 86.944 275.426 C 90.212 269.235,96.166 267.284,105.409 269.375 C 111.723 270.803,113.083 271.651,119.484 278.148 C 126.844 285.619,126.949 285.910,127.020 298.981 L 127.037 302.222 122.315 302.234 C 117.738 302.245,116.891 302.598,119.404 303.445 C 119.692 303.542,119.674 303.754,119.346 304.152 C 118.945 304.638,119.227 304.948,121.296 306.296 C 123.003 307.408,123.611 307.999,123.359 308.302 C 123.108 308.605,123.665 309.145,125.251 310.136 L 127.499 311.541 126.214 312.900 C 125.507 313.648,124.379 315.045,123.708 316.005 C 119.867 321.496,108.466 323.575,99.859 320.355 C 97.672 319.537,88.512 310.917,86.353 307.646 L 85.370 306.157 85.141 310.393 C 85.015 312.723,84.890 316.421,84.864 318.611 L 84.815 322.593 79.074 322.593 L 73.333 322.593 73.333 320.741 L 73.333 318.889 71.296 318.889 L 69.259 318.889 69.259 316.852 L 69.259 314.815 67.407 314.815 L 65.556 314.815 65.556 307.037 L 65.556 299.259 62.279 299.259 L 59.003 299.259 58.762 303.981 C 58.630 306.579,58.521 311.565,58.520 315.062 C 58.518 323.405,59.182 322.593,52.368 322.593 L 46.667 322.593 46.667 320.741 L 46.667 318.889 44.630 318.889 L 42.593 318.889 42.593 316.852 L 42.593 314.815 40.739 314.815 L 38.885 314.815 38.979 283.981 L 39.074 253.148 45.278 253.047 L 51.481 252.945 51.481 254.991 L 51.481 257.037 53.519 257.037 L 55.556 257.037 55.556 259.074 L 55.556 261.111 57.407 261.111 L 59.259 261.111 59.259 268.148 L 59.259 275.185 61.759 275.181 C 63.134 275.179,64.882 275.074,65.643 274.948 L 67.026 274.720 67.124 263.934 L 67.222 253.148 70.741 252.941 C 72.676 252.827,75.134 252.702,76.204 252.663 L 78.148 252.593 78.148 254.630 M206.811 260.093 C 206.662 260.347,206.061 261.264,205.475 262.130 L 204.409 263.704 207.778 263.704 L 211.147 263.704 210.018 265.345 C 208.547 267.482,208.444 267.361,211.842 267.485 L 214.796 267.593 211.657 272.195 C 208.257 277.180,208.153 277.407,209.259 277.407 C 209.900 277.407,210.000 277.654,210.000 279.240 L 210.000 281.072 211.944 281.184 L 213.889 281.296 214.001 283.241 C 214.101 284.987,214.199 285.185,214.960 285.185 C 215.834 285.185,216.283 284.293,218.515 278.124 C 220.623 272.300,227.620 270.659,236.574 273.888 L 238.889 274.723 238.889 273.287 L 238.889 271.852 244.795 271.852 L 250.702 271.852 250.814 273.796 L 250.926 275.741 252.870 275.853 L 254.815 275.965 254.815 277.797 L 254.815 279.630 256.667 279.630 L 258.519 279.630 258.519 281.917 L 258.519 284.204 260.587 282.119 C 265.832 276.831,272.734 275.518,278.959 278.623 C 281.578 279.929,290.141 287.923,292.870 291.611 L 293.704 292.737 293.704 285.072 L 293.704 277.407 299.815 277.407 L 305.926 277.407 305.926 278.929 C 305.926 280.226,306.021 280.413,306.574 280.199 C 314.118 277.284,318.759 277.486,321.660 280.855 C 322.395 281.709,323.114 282.540,323.258 282.702 C 323.401 282.864,324.102 283.538,324.815 284.199 C 325.528 284.861,326.385 285.728,326.720 286.127 C 327.056 286.526,327.994 287.386,328.806 288.039 L 330.282 289.227 330.898 287.614 C 334.177 279.029,344.593 274.634,352.685 278.421 C 355.425 279.703,365.193 289.092,367.621 292.778 C 377.384 307.596,362.178 327.202,346.796 319.630 C 344.418 318.459,335.405 309.979,332.978 306.629 L 331.852 305.074 331.852 313.648 L 331.852 322.222 328.539 322.222 L 325.226 322.222 325.113 320.463 L 325.000 318.704 323.056 318.592 L 321.111 318.480 321.111 316.462 L 321.111 314.444 319.259 314.444 L 317.407 314.444 317.407 303.704 C 317.407 291.731,317.578 292.426,314.870 293.370 L 313.704 293.776 313.704 308.184 L 313.704 322.593 307.593 322.593 L 301.481 322.593 301.481 320.741 L 301.481 318.889 299.444 318.889 L 297.407 318.889 297.407 316.852 L 297.407 314.815 295.556 314.815 C 294.137 314.815,293.704 314.682,293.704 314.246 C 293.704 313.933,292.715 314.733,291.507 316.025 C 285.824 322.100,277.629 323.130,271.041 318.597 C 270.124 317.967,267.014 315.077,264.131 312.175 L 258.889 306.900 258.889 310.872 C 258.889 320.629,257.122 328.050,253.833 332.111 C 250.087 336.736,238.479 338.339,226.296 335.912 C 221.367 334.930,221.260 334.871,221.777 333.390 C 222.228 332.096,222.102 332.009,219.237 331.629 C 217.424 331.388,217.363 331.342,217.618 330.412 C 218.232 328.167,218.117 327.987,215.833 327.625 C 213.483 327.252,213.462 327.212,214.255 324.596 C 214.559 323.596,214.809 322.736,214.811 322.685 C 214.813 322.634,212.815 322.593,210.370 322.593 L 205.926 322.593 205.926 321.068 C 205.926 319.669,205.857 319.561,205.093 319.761 C 204.634 319.881,202.759 320.392,200.926 320.896 C 195.288 322.448,193.168 322.092,190.012 319.067 C 188.885 317.986,187.346 316.577,186.592 315.935 C 185.838 315.294,185.128 314.477,185.015 314.120 C 184.901 313.763,184.153 312.981,183.352 312.383 C 180.646 310.364,179.990 308.379,179.237 299.931 C 177.897 284.887,182.296 277.128,191.722 277.912 L 194.370 278.132 194.963 276.651 C 195.289 275.837,195.556 275.090,195.556 274.993 C 195.556 274.895,194.389 274.815,192.963 274.815 C 189.818 274.815,189.796 275.508,193.188 267.745 C 194.738 264.198,196.151 260.921,196.327 260.463 C 196.639 259.653,196.797 259.630,201.865 259.630 C 205.935 259.630,207.021 259.731,206.811 260.093 M144.951 276.111 C 145.748 277.311,146.575 278.148,146.963 278.148 C 147.363 278.148,148.048 278.877,148.704 280.000 C 150.161 282.495,150.364 282.411,153.203 278.148 L 155.669 274.444 164.501 274.444 C 169.359 274.444,173.333 274.546,173.333 274.671 C 173.333 274.795,172.651 275.712,171.817 276.708 L 170.301 278.519 173.899 278.519 L 177.497 278.519 176.156 280.155 C 174.413 282.281,174.325 282.177,177.973 282.300 L 181.132 282.407 173.676 291.667 C 169.576 296.759,166.142 301.121,166.046 301.359 C 165.916 301.678,175.791 315.295,180.840 321.759 C 181.127 322.127,179.476 322.222,172.841 322.222 L 164.480 322.222 163.333 320.556 C 162.645 319.554,161.902 318.889,161.474 318.889 C 161.029 318.889,160.281 318.178,159.490 317.002 C 158.494 315.523,156.832 314.074,156.132 314.074 C 156.088 314.074,154.815 315.901,153.304 318.135 L 150.556 322.196 142.127 322.209 L 133.699 322.222 134.841 320.648 L 135.984 319.074 132.804 318.889 L 129.624 318.704 130.945 316.852 L 132.265 315.000 129.059 314.815 L 125.853 314.630 133.300 304.173 L 140.747 293.717 134.331 285.284 C 130.803 280.646,127.448 276.227,126.877 275.463 L 125.838 274.074 134.718 274.074 L 143.599 274.074 144.951 276.111 M196.296 279.259 C 197.021 279.728,197.778 279.728,197.778 279.259 C 197.778 279.056,197.319 278.891,196.759 278.895 C 195.966 278.899,195.863 278.979,196.296 279.259 M235.243 284.916 C 233.510 285.470,232.040 287.070,231.531 288.954 C 230.714 291.980,230.024 298.672,230.496 298.999 C 231.444 299.656,234.773 298.949,237.248 297.564 L 239.719 296.182 239.493 294.295 C 239.368 293.257,239.264 290.799,239.262 288.833 L 239.259 285.258 238.093 284.851 C 236.770 284.390,236.898 284.387,235.243 284.916 M104.259 286.667 C 103.771 286.877,104.686 286.994,106.944 287.011 C 108.999 287.027,110.370 286.889,110.370 286.667 C 110.370 286.215,105.311 286.215,104.259 286.667 M195.442 295.913 C 193.159 297.917,191.852 300.961,191.852 304.270 L 191.852 307.140 194.024 306.943 C 197.869 306.594,197.778 306.755,197.778 300.357 C 197.778 294.141,197.677 293.950,195.442 295.913 M277.037 295.405 C 273.453 296.958,270.296 303.272,272.918 303.643 C 276.272 304.117,281.094 299.518,281.107 295.833 C 281.112 294.615,279.301 294.425,277.037 295.405 M350.734 295.537 C 348.044 296.960,346.446 299.178,346.055 302.031 L 345.825 303.704 346.999 303.704 C 350.762 303.704,354.253 300.423,354.980 296.204 L 355.219 294.815 353.628 294.831 C 352.753 294.840,351.451 295.158,350.734 295.537 M217.790 308.003 L 217.778 316.561 221.019 317.817 C 227.293 320.251,233.463 319.500,237.101 315.862 C 238.815 314.148,238.920 313.602,237.436 314.119 C 236.530 314.435,235.933 314.312,233.763 313.359 C 232.338 312.734,230.887 312.222,230.538 312.222 C 230.190 312.222,229.008 311.347,227.912 310.278 C 226.816 309.208,225.407 307.833,224.780 307.222 C 222.578 305.073,219.415 301.655,218.612 300.556 L 217.801 299.444 217.790 308.003 M98.148 303.468 L 98.148 305.085 99.867 305.320 C 103.024 305.753,104.472 305.570,107.160 304.400 C 112.074 302.260,111.511 301.930,102.870 301.879 L 98.148 301.852 98.148 303.468 " stroke="none" fill="#fbfbfb" fill-rule="evenodd"></path><path id="path3" d="M167.123 130.741 C 167.123 131.454,167.199 131.745,167.292 131.389 C 167.386 131.032,167.386 130.449,167.292 130.093 C 167.199 129.736,167.123 130.028,167.123 130.741 M172.130 136.187 C 172.588 136.276,173.338 136.276,173.796 136.187 C 174.255 136.099,173.880 136.027,172.963 136.027 C 172.046 136.027,171.671 136.099,172.130 136.187 M226.574 136.187 C 227.032 136.276,227.782 136.276,228.241 136.187 C 228.699 136.099,228.324 136.027,227.407 136.027 C 226.491 136.027,226.116 136.099,226.574 136.187 M78.148 258.704 L 78.148 260.741 80.000 260.741 L 81.852 260.741 81.837 264.352 C 81.823 267.575,80.817 318.568,80.763 318.796 C 80.751 318.847,79.062 318.889,77.010 318.889 L 73.280 318.889 73.535 316.852 L 73.789 314.815 71.524 314.815 L 69.259 314.815 69.259 316.852 L 69.259 318.889 71.296 318.889 L 73.333 318.889 73.333 320.741 L 73.333 322.593 79.022 322.593 L 84.711 322.593 84.979 314.618 C 85.156 309.377,85.113 306.044,84.856 304.895 C 83.559 299.117,83.656 285.829,85.031 280.741 C 85.411 279.334,85.651 275.850,85.805 269.485 L 86.028 260.266 84.125 260.449 L 82.222 260.632 82.222 258.649 L 82.222 256.667 80.185 256.667 L 78.148 256.667 78.148 258.704 M51.794 259.074 L 51.920 261.111 53.553 261.111 L 55.185 261.111 55.185 268.333 C 55.185 276.383,54.961 275.799,57.870 275.318 L 59.259 275.088 59.259 268.100 L 59.259 261.111 57.407 261.111 L 55.556 261.111 55.556 259.074 L 55.556 257.037 53.611 257.037 L 51.667 257.036 51.794 259.074 M200.692 269.259 C 198.436 272.565,196.658 274.815,196.301 274.815 C 195.935 274.815,195.403 275.523,194.933 276.635 L 194.164 278.456 194.953 278.667 C 196.702 279.137,197.722 278.921,197.845 278.056 C 197.935 277.420,198.267 277.178,199.246 277.037 C 200.499 276.856,200.576 276.742,202.548 272.130 L 204.567 267.407 206.357 267.407 C 208.568 267.407,208.694 266.919,205.140 272.098 C 201.169 277.885,201.177 277.413,205.053 277.376 L 208.333 277.344 211.552 272.469 L 214.771 267.593 211.830 267.485 C 208.446 267.361,208.548 267.481,210.018 265.345 L 211.147 263.704 207.815 263.704 L 204.484 263.704 200.692 269.259 M251.053 277.685 L 251.180 279.630 252.774 279.630 L 254.369 279.630 254.621 282.137 C 255.599 291.872,254.795 315.578,253.300 321.098 C 250.530 331.325,242.032 335.065,226.706 332.804 C 222.199 332.139,221.870 332.211,221.745 333.889 C 221.636 335.340,227.514 336.611,235.741 336.917 C 246.821 337.329,252.801 335.071,255.686 329.387 C 258.418 324.004,260.039 308.562,258.189 305.543 C 254.674 299.810,254.550 291.825,257.880 285.759 C 258.534 284.569,258.681 283.782,258.593 281.944 L 258.483 279.630 256.649 279.630 L 254.815 279.630 254.815 277.812 L 254.815 275.994 252.870 275.868 L 250.926 275.741 251.053 277.685 M118.366 277.850 C 118.736 278.641,119.439 279.397,120.033 279.643 C 122.137 280.515,122.880 284.325,122.940 294.560 L 122.963 298.565 108.854 298.299 C 92.964 298.000,94.089 297.796,94.080 300.977 C 94.073 303.256,94.767 304.237,96.759 304.760 L 98.148 305.125 98.148 303.435 L 98.148 301.744 104.629 301.939 L 111.110 302.134 112.179 300.801 L 113.248 299.468 115.322 300.845 L 117.396 302.222 122.217 302.222 L 127.037 302.222 127.020 298.981 C 126.982 291.951,126.449 286.554,125.640 285.000 C 124.545 282.895,117.473 275.945,118.366 277.850 M227.037 277.453 C 225.496 278.068,224.459 279.306,223.895 281.205 C 223.158 283.688,222.409 291.715,222.747 293.502 L 223.025 294.967 223.704 293.132 C 224.077 292.122,224.941 289.765,225.624 287.893 C 226.738 284.837,228.351 281.931,228.726 282.306 C 228.804 282.384,228.530 283.130,228.118 283.964 C 227.705 284.797,227.217 286.538,227.032 287.832 C 225.651 297.523,225.687 297.907,228.044 298.500 C 230.152 299.031,229.995 299.275,230.592 294.556 C 231.600 286.595,234.063 283.332,237.952 284.811 C 239.218 285.292,239.259 285.287,239.259 284.648 C 239.259 283.633,234.623 280.770,232.885 280.713 C 232.199 280.690,232.278 280.597,233.298 280.229 L 234.558 279.773 233.483 278.927 C 231.274 277.189,229.002 276.670,227.037 277.453 M146.667 278.387 C 146.667 278.519,147.103 279.315,147.636 280.158 C 148.538 281.584,150.370 282.944,150.370 282.187 C 150.370 282.003,150.239 281.852,150.078 281.852 C 149.917 281.852,149.299 281.019,148.704 280.000 C 147.790 278.435,146.667 277.546,146.667 278.387 M96.371 279.138 C 93.108 280.745,89.915 287.407,92.407 287.407 C 92.989 287.407,93.333 287.198,93.333 286.844 C 93.333 285.522,95.648 281.282,97.103 279.939 C 98.720 278.446,98.426 278.125,96.371 279.138 M169.119 280.155 C 167.376 282.282,167.286 282.177,170.956 282.300 L 174.134 282.407 168.146 289.815 C 164.853 293.889,162.075 297.422,161.973 297.666 C 161.871 297.911,165.100 302.495,169.149 307.854 C 173.198 313.213,176.639 317.804,176.796 318.058 C 177.020 318.419,175.463 318.518,169.559 318.518 L 162.037 318.517 160.775 316.666 C 159.679 315.057,157.516 313.807,158.375 315.278 C 159.640 317.447,160.881 318.889,161.481 318.889 C 161.900 318.889,162.652 319.565,163.333 320.556 L 164.480 322.222 172.841 322.222 C 179.476 322.222,181.127 322.127,180.840 321.759 C 175.791 315.295,165.916 301.678,166.046 301.359 C 166.142 301.121,169.576 296.759,173.676 291.667 L 181.132 282.407 177.973 282.300 C 174.325 282.177,174.413 282.281,176.156 280.155 L 177.497 278.519 173.978 278.519 L 170.460 278.519 169.119 280.155 M210.000 283.129 L 210.000 285.185 211.852 285.185 L 213.704 285.185 213.704 302.037 L 213.704 318.889 207.778 318.889 L 201.852 318.889 201.852 317.222 C 201.852 315.362,201.842 315.354,200.445 316.064 C 197.569 317.526,190.998 318.338,189.317 317.438 C 188.884 317.207,188.369 316.375,188.146 315.549 C 187.849 314.445,187.560 314.074,186.998 314.074 C 186.585 314.074,185.925 313.902,185.531 313.691 C 184.301 313.032,184.690 314.043,186.231 315.507 C 187.010 316.246,188.641 317.792,189.855 318.942 C 193.194 322.104,195.230 322.464,200.926 320.896 C 202.759 320.392,204.634 319.881,205.093 319.761 C 205.857 319.561,205.926 319.669,205.926 321.068 L 205.926 322.593 210.355 322.593 L 214.783 322.593 215.560 319.907 C 215.987 318.431,216.406 317.014,216.490 316.759 C 216.574 316.505,216.899 316.296,217.211 316.296 C 218.152 316.296,218.039 300.140,217.080 297.593 C 216.085 294.952,215.068 288.455,215.370 286.669 C 215.594 285.341,215.541 285.185,214.867 285.185 C 214.218 285.185,214.097 284.913,214.001 283.241 L 213.889 281.296 211.944 281.184 L 210.000 281.072 210.000 283.129 M100.882 282.690 C 99.393 283.280,98.211 284.272,96.842 286.080 L 95.744 287.531 99.515 287.284 C 101.590 287.148,103.725 286.870,104.260 286.666 C 104.795 286.463,106.389 286.296,107.802 286.296 L 110.370 286.296 110.370 284.981 C 110.370 282.926,104.104 281.413,100.882 282.690 M323.448 283.561 C 323.556 283.945,323.749 284.623,323.876 285.067 C 324.019 285.566,324.516 285.964,325.176 286.109 C 327.557 286.632,327.778 288.224,327.778 304.833 L 327.778 318.519 326.481 318.519 L 325.185 318.519 325.180 307.685 C 325.176 301.331,325.025 296.622,324.815 296.296 C 324.578 295.929,324.454 298.918,324.450 305.093 L 324.444 314.444 322.778 314.444 L 321.111 314.444 321.111 316.462 L 321.111 318.480 323.056 318.592 L 325.000 318.704 325.113 320.463 L 325.226 322.222 328.539 322.222 L 331.852 322.222 331.852 313.588 C 331.852 305.609,331.794 304.833,331.084 303.364 C 329.421 299.924,328.931 295.531,329.764 291.553 L 330.254 289.217 328.764 287.942 C 327.944 287.240,327.166 286.667,327.033 286.667 C 326.900 286.667,326.567 286.247,326.293 285.734 C 325.597 284.435,323.173 282.582,323.448 283.561 M286.414 285.370 C 286.728 285.981,287.541 286.915,288.219 287.445 C 294.448 292.312,293.921 306.063,287.250 312.734 C 281.437 318.547,270.189 319.019,266.275 313.615 C 265.708 312.832,264.630 311.775,263.879 311.266 L 262.515 310.340 263.315 311.374 C 271.921 322.497,283.617 324.460,291.443 316.093 L 293.704 313.677 293.704 303.207 C 293.704 291.074,294.169 292.620,288.940 287.369 C 286.890 285.312,286.035 284.635,286.414 285.370 M360.484 285.574 C 360.822 286.094,361.589 286.881,362.188 287.324 C 366.603 290.588,367.829 301.244,364.569 308.027 C 359.971 317.594,344.962 320.927,340.185 313.441 C 339.778 312.803,338.778 311.922,337.963 311.484 C 336.805 310.861,337.372 311.543,340.556 314.602 C 346.571 320.384,350.631 322.100,356.134 321.188 C 368.652 319.114,374.833 303.055,367.268 292.262 C 365.768 290.122,359.281 283.726,360.484 285.574 M313.333 287.037 C 313.333 288.722,313.340 288.726,314.871 287.934 L 316.001 287.350 315.158 286.453 C 313.903 285.117,313.333 285.300,313.333 287.037 M188.881 287.500 C 184.833 289.549,182.871 296.885,184.930 302.276 C 186.288 305.831,187.037 305.760,187.037 302.079 C 187.037 296.013,188.650 290.601,191.123 288.366 C 193.218 286.474,191.908 285.968,188.881 287.500 M268.844 288.072 C 266.509 289.292,264.852 291.644,264.575 294.129 L 264.396 295.741 265.594 293.595 C 266.254 292.414,267.854 290.456,269.151 289.243 C 271.786 286.777,271.730 286.564,268.844 288.072 M342.939 288.056 C 340.385 289.351,338.866 291.437,338.656 293.940 C 338.529 295.438,338.569 295.590,338.892 294.848 C 339.689 293.011,342.577 289.371,344.040 288.357 C 346.473 286.671,345.951 286.528,342.939 288.056 M311.389 289.481 L 309.630 290.022 309.630 304.456 L 309.630 318.889 305.556 318.889 L 301.481 318.889 301.481 316.852 L 301.481 314.815 299.444 314.815 L 297.407 314.815 297.407 316.852 L 297.407 318.889 299.444 318.889 L 301.481 318.889 301.481 320.741 L 301.481 322.593 307.593 322.593 L 313.704 322.593 313.704 308.184 L 313.704 293.776 314.870 293.370 C 315.512 293.146,316.345 292.963,316.722 292.963 C 317.652 292.963,317.743 289.467,316.822 289.114 C 315.837 288.736,313.243 288.911,311.389 289.481 M192.352 291.455 C 188.799 293.621,186.932 299.425,188.128 304.582 C 188.540 306.359,188.732 306.546,190.463 306.864 L 191.852 307.119 191.852 304.260 C 191.852 300.217,194.931 294.815,197.235 294.815 C 198.038 294.815,197.999 291.275,197.192 290.966 C 195.998 290.507,193.490 290.761,192.352 291.455 M274.630 291.087 C 267.687 292.777,265.299 303.791,271.895 303.702 C 271.973 303.701,272.075 303.035,272.121 302.223 C 272.340 298.371,276.028 294.815,279.803 294.815 C 281.261 294.815,281.342 294.604,280.585 292.791 C 279.855 291.044,277.535 290.380,274.630 291.087 M347.976 291.205 C 342.072 292.764,339.658 302.268,344.860 303.470 C 345.785 303.683,345.843 303.608,346.071 301.888 C 346.566 298.162,350.152 294.815,353.650 294.815 L 355.107 294.815 354.805 293.473 C 354.252 291.023,351.778 290.201,347.976 291.205 M90.584 296.011 C 90.365 297.764,91.033 300.741,91.645 300.741 C 91.729 300.741,91.769 299.296,91.733 297.531 C 91.656 293.805,90.973 292.901,90.584 296.011 M98.889 294.907 C 98.888 295.266,100.495 295.343,106.018 295.247 C 116.523 295.065,117.436 294.526,107.315 294.482 C 100.801 294.453,98.889 294.550,98.889 294.907 M54.688 302.837 C 54.554 306.842,54.444 312.092,54.444 314.504 L 54.444 318.889 50.556 318.889 L 46.667 318.889 46.667 316.852 L 46.667 314.815 44.630 314.815 L 42.593 314.815 42.593 316.852 L 42.593 318.889 44.630 318.889 L 46.667 318.889 46.667 320.741 L 46.667 322.593 52.368 322.593 C 59.182 322.593,58.518 323.405,58.520 315.062 C 58.521 311.565,58.630 306.579,58.762 303.981 L 59.003 299.259 62.240 299.259 L 65.478 299.259 65.644 297.685 C 65.877 295.480,66.068 295.556,60.222 295.556 L 54.932 295.556 54.688 302.837 M362.254 300.741 C 362.128 302.918,358.845 307.950,356.170 310.064 C 354.500 311.385,354.444 311.481,355.349 311.481 C 359.741 311.481,363.976 305.561,362.635 301.296 C 362.443 300.685,362.271 300.435,362.254 300.741 M287.837 302.170 C 287.200 304.296,284.812 307.753,282.619 309.722 C 280.910 311.258,280.772 311.480,281.534 311.473 C 285.205 311.439,288.889 307.027,288.889 302.664 C 288.889 300.667,288.362 300.419,287.837 302.170 M236.140 304.291 C 232.459 305.564,232.459 305.586,236.151 306.477 C 239.697 307.332,239.856 307.264,239.630 305.000 L 239.444 303.148 236.140 304.291 M222.937 305.137 C 223.141 305.518,223.855 306.356,224.524 306.998 C 225.193 307.641,226.678 309.080,227.823 310.195 C 228.968 311.310,230.190 312.222,230.538 312.222 C 230.887 312.222,232.334 312.732,233.754 313.355 C 237.344 314.931,238.628 314.554,239.248 311.741 C 240.131 307.732,240.444 308.045,236.784 309.282 C 232.875 310.604,232.049 310.625,229.545 309.468 C 228.471 308.972,227.308 308.480,226.961 308.375 C 226.614 308.270,225.982 307.503,225.557 306.670 C 225.125 305.823,224.373 304.999,223.850 304.800 C 222.578 304.316,222.511 304.341,222.937 305.137 M117.153 306.948 C 114.884 310.059,113.400 311.353,110.917 312.383 L 108.704 313.302 110.602 313.318 C 113.124 313.338,117.422 311.381,119.427 309.298 C 120.956 307.710,121.436 307.510,122.107 308.181 C 122.559 308.633,118.859 313.771,117.271 314.896 C 111.007 319.334,95.677 318.942,93.457 314.288 C 93.119 313.578,92.335 312.801,91.607 312.454 C 89.618 311.505,90.450 312.609,94.605 316.430 C 98.783 320.272,100.218 320.937,105.607 321.523 C 114.288 322.467,120.515 320.569,123.708 316.005 C 124.379 315.045,125.507 313.648,126.214 312.900 L 127.499 311.541 125.251 310.136 C 123.665 309.145,123.108 308.605,123.359 308.302 C 123.657 307.944,119.600 304.801,118.863 304.819 C 118.775 304.821,118.006 305.779,117.153 306.948 M149.630 313.889 L 146.481 318.500 141.574 318.509 C 138.875 318.514,136.667 318.424,136.667 318.309 C 136.667 318.193,137.059 317.568,137.538 316.920 C 139.147 314.743,139.212 314.815,135.644 314.815 L 132.356 314.815 130.999 316.759 L 129.642 318.704 132.813 318.889 L 135.984 319.074 134.841 320.648 L 133.699 322.222 142.127 322.207 L 150.556 322.192 153.440 317.950 L 156.325 313.708 154.756 311.483 C 152.805 308.717,153.328 308.472,149.630 313.889 M195.744 312.559 C 194.133 313.270,194.237 313.450,196.827 314.435 C 197.749 314.786,197.778 314.752,197.778 313.324 C 197.778 311.665,197.774 311.664,195.744 312.559 M217.838 329.574 C 217.601 330.365,217.407 331.096,217.407 331.199 C 217.407 331.302,218.243 331.497,219.264 331.632 C 220.285 331.768,221.357 331.969,221.646 332.080 C 222.094 332.252,222.951 330.382,222.961 329.209 C 222.962 329.079,222.171 328.861,221.204 328.725 C 220.236 328.588,219.180 328.400,218.857 328.306 C 218.434 328.184,218.148 328.541,217.838 329.574 " stroke="none" fill="#aaaaaa" fill-rule="evenodd"></path><path id="path4" d="M166.204 118.786 C 166.866 118.869,167.949 118.869,168.611 118.786 C 169.273 118.704,168.731 118.637,167.407 118.637 C 166.083 118.637,165.542 118.704,166.204 118.786 M231.389 118.786 C 232.051 118.869,233.134 118.869,233.796 118.786 C 234.458 118.704,233.917 118.637,232.593 118.637 C 231.269 118.637,230.727 118.704,231.389 118.786 M222.014 123.056 L 220.926 124.259 222.130 123.171 C 222.792 122.573,223.333 122.031,223.333 121.968 C 223.333 121.682,223.028 121.934,222.014 123.056 M181.945 133.148 C 181.949 133.963,182.025 134.253,182.114 133.792 C 182.202 133.331,182.199 132.665,182.106 132.310 C 182.014 131.956,181.941 132.333,181.945 133.148 M177.569 143.426 L 176.481 144.630 177.685 143.542 C 178.807 142.528,179.059 142.222,178.773 142.222 C 178.709 142.222,178.168 142.764,177.569 143.426 M51.567 266.574 C 51.488 275.268,51.527 275.926,52.130 275.920 C 52.584 275.916,52.642 275.828,52.322 275.625 C 51.985 275.411,51.837 272.951,51.759 266.279 L 51.653 257.222 51.567 266.574 M77.933 269.630 C 77.933 273.602,77.987 275.227,78.054 273.241 C 78.120 271.255,78.120 268.005,78.054 266.019 C 77.987 264.032,77.933 265.657,77.933 269.630 M250.876 279.444 C 250.877 281.481,250.939 282.268,251.014 281.191 C 251.089 280.115,251.088 278.448,251.012 277.488 C 250.936 276.527,250.875 277.407,250.876 279.444 M197.916 277.580 C 197.802 277.879,197.794 278.338,197.899 278.599 C 198.004 278.860,198.103 278.708,198.119 278.260 C 198.145 277.547,198.389 277.429,200.093 277.310 L 202.037 277.174 200.081 277.106 C 198.656 277.056,198.068 277.185,197.916 277.580 M102.315 278.774 C 102.671 278.867,103.255 278.867,103.611 278.774 C 103.968 278.681,103.676 278.604,102.963 278.604 C 102.250 278.604,101.958 278.681,102.315 278.774 M106.667 280.039 C 107.380 280.467,108.457 281.258,109.060 281.797 C 109.663 282.336,109.913 282.458,109.615 282.068 C 108.931 281.170,106.318 279.259,105.778 279.261 C 105.554 279.261,105.954 279.612,106.667 280.039 M119.013 282.963 C 119.013 284.491,119.079 285.116,119.159 284.352 C 119.239 283.588,119.239 282.338,119.159 281.574 C 119.079 280.810,119.013 281.435,119.013 282.963 M235.926 280.851 C 235.926 280.931,236.676 281.680,237.593 282.514 C 238.509 283.348,239.259 283.909,239.259 283.760 C 239.259 283.612,238.509 282.863,237.593 282.097 C 236.676 281.331,235.926 280.770,235.926 280.851 M166.280 283.426 C 165.592 284.292,165.322 284.765,165.680 284.477 C 166.354 283.936,167.941 281.852,167.680 281.852 C 167.598 281.852,166.968 282.560,166.280 283.426 M77.562 290.000 C 77.562 293.972,77.617 295.597,77.684 293.611 C 77.750 291.625,77.750 288.375,77.684 286.389 C 77.617 284.403,77.562 286.028,77.562 290.000 M310.098 285.081 C 310.661 285.166,311.494 285.163,311.950 285.076 C 312.405 284.988,311.944 284.918,310.926 284.921 C 309.907 284.924,309.535 284.995,310.098 285.081 M119.259 290.536 L 119.259 294.406 117.315 294.542 L 115.370 294.678 117.500 294.746 L 119.630 294.815 119.630 290.741 C 119.630 288.500,119.546 286.667,119.444 286.667 C 119.343 286.667,119.259 288.408,119.259 290.536 M251.271 295.926 C 251.271 300.917,251.324 302.958,251.388 300.463 C 251.452 297.968,251.452 293.884,251.388 291.389 C 251.324 288.894,251.271 290.935,251.271 295.926 M195.000 287.675 C 195.407 287.776,195.991 288.048,196.296 288.281 C 196.779 288.649,196.786 288.619,196.344 288.056 C 196.064 287.699,195.481 287.427,195.047 287.450 C 194.299 287.491,194.296 287.502,195.000 287.675 M324.242 300.926 C 324.242 308.463,324.291 311.494,324.351 307.661 C 324.412 303.828,324.412 297.662,324.351 293.957 C 324.291 290.253,324.242 293.389,324.242 300.926 M197.282 288.889 C 197.519 289.194,197.785 289.944,197.875 290.556 L 198.037 291.667 198.093 290.508 C 198.127 289.793,197.900 289.155,197.500 288.842 C 196.936 288.399,196.908 288.405,197.282 288.889 M222.328 291.296 C 222.331 292.315,222.403 292.688,222.488 292.125 C 222.573 291.562,222.571 290.728,222.483 290.273 C 222.395 289.817,222.325 290.278,222.328 291.296 M59.889 291.758 L 65.519 291.871 65.653 293.991 L 65.786 296.111 65.856 293.796 L 65.926 291.481 60.093 291.564 L 54.259 291.646 59.889 291.758 M94.184 294.350 C 95.772 294.419,98.272 294.419,99.739 294.349 C 101.207 294.279,99.907 294.222,96.852 294.222 C 93.796 294.223,92.596 294.280,94.184 294.350 M164.259 302.222 C 167.627 306.704,170.466 310.370,170.568 310.370 C 170.670 310.370,167.998 306.704,164.630 302.222 C 161.261 297.741,158.422 294.074,158.321 294.074 C 158.219 294.074,160.891 297.741,164.259 302.222 M288.982 295.370 C 288.986 296.185,289.062 296.475,289.151 296.014 C 289.239 295.553,289.236 294.887,289.143 294.533 C 289.051 294.179,288.978 294.556,288.982 295.370 M338.242 295.370 C 338.246 296.185,338.322 296.475,338.410 296.014 C 338.499 295.553,338.495 294.887,338.403 294.533 C 338.310 294.179,338.237 294.556,338.242 295.370 M222.978 295.130 C 222.959 295.772,225.325 298.149,225.981 298.147 C 226.256 298.146,225.950 297.821,225.299 297.425 C 224.649 297.028,223.864 296.237,223.555 295.667 C 223.246 295.096,222.986 294.855,222.978 295.130 M50.891 300.926 C 50.891 304.185,50.948 305.469,51.017 303.779 C 51.085 302.088,51.085 299.422,51.016 297.853 C 50.946 296.284,50.890 297.667,50.891 300.926 M65.649 297.963 C 65.653 298.778,65.729 299.068,65.818 298.607 C 65.906 298.146,65.903 297.479,65.810 297.125 C 65.717 296.771,65.645 297.148,65.649 297.963 M339.630 300.116 C 339.630 300.180,340.171 300.721,340.833 301.320 L 342.037 302.407 340.949 301.204 C 339.935 300.082,339.630 299.830,339.630 300.116 M77.188 308.889 C 77.188 312.250,77.244 313.625,77.313 311.944 C 77.381 310.264,77.381 307.514,77.313 305.833 C 77.244 304.153,77.188 305.528,77.188 308.889 M186.266 304.949 C 186.759 305.557,188.148 306.475,188.148 306.194 C 188.148 306.123,187.606 305.669,186.944 305.184 C 186.200 304.639,185.941 304.549,186.266 304.949 M151.852 307.593 C 152.483 308.509,153.082 309.259,153.184 309.259 C 153.286 309.259,152.853 308.509,152.222 307.593 C 151.592 306.676,150.992 305.926,150.890 305.926 C 150.788 305.926,151.221 306.676,151.852 307.593 M228.060 306.558 C 228.521 306.647,229.187 306.643,229.541 306.551 C 229.895 306.458,229.519 306.386,228.704 306.390 C 227.889 306.394,227.599 306.470,228.060 306.558 M147.037 308.148 C 146.602 308.759,146.329 309.259,146.431 309.259 C 146.533 309.259,146.972 308.759,147.407 308.148 C 147.843 307.537,148.115 307.037,148.013 307.037 C 147.912 307.037,147.472 307.537,147.037 308.148 M250.847 309.074 C 250.849 310.093,250.921 310.465,251.007 309.902 C 251.092 309.339,251.089 308.506,251.001 308.050 C 250.914 307.595,250.844 308.056,250.847 309.074 M357.387 308.796 L 356.111 310.185 357.500 308.909 C 358.793 307.721,359.059 307.407,358.776 307.407 C 358.714 307.407,358.089 308.032,357.387 308.796 M144.074 312.407 C 143.443 313.324,143.011 314.074,143.113 314.074 C 143.214 314.074,143.814 313.324,144.444 312.407 C 145.075 311.491,145.508 310.741,145.406 310.741 C 145.304 310.741,144.705 311.491,144.074 312.407 M197.769 313.258 L 197.947 315.000 198.073 313.562 C 198.142 312.772,198.062 311.988,197.894 311.820 C 197.727 311.653,197.670 312.300,197.769 313.258 M50.471 313.333 C 50.471 314.250,50.543 314.625,50.632 314.167 C 50.720 313.708,50.720 312.958,50.632 312.500 C 50.543 312.042,50.471 312.417,50.471 313.333 M343.426 313.589 C 343.782 313.682,344.366 313.682,344.722 313.589 C 345.079 313.495,344.787 313.419,344.074 313.419 C 343.361 313.419,343.069 313.495,343.426 313.589 M347.500 313.589 C 347.856 313.682,348.440 313.682,348.796 313.589 C 349.153 313.495,348.861 313.419,348.148 313.419 C 347.435 313.419,347.144 313.495,347.500 313.589 M97.690 313.966 C 98.150 314.054,98.817 314.051,99.171 313.958 C 99.525 313.865,99.148 313.793,98.333 313.797 C 97.519 313.801,97.229 313.877,97.690 313.966 M173.108 314.009 C 173.298 314.316,171.245 314.459,165.480 314.537 L 157.593 314.645 165.648 314.730 C 173.147 314.809,174.559 314.647,173.276 313.854 C 173.014 313.691,172.949 313.752,173.108 314.009 M102.136 314.342 C 102.802 314.425,103.802 314.423,104.358 314.339 C 104.915 314.254,104.370 314.187,103.148 314.189 C 101.926 314.191,101.471 314.260,102.136 314.342 M135.093 314.719 C 136.569 314.790,138.986 314.790,140.463 314.719 C 141.940 314.649,140.731 314.592,137.778 314.592 C 134.824 314.592,133.616 314.649,135.093 314.719 M246.666 323.426 C 246.120 324.171,246.031 324.429,246.431 324.105 C 247.038 323.611,247.957 322.222,247.675 322.222 C 247.605 322.222,247.150 322.764,246.666 323.426 M227.870 329.531 C 228.838 329.608,230.421 329.608,231.389 329.531 C 232.356 329.455,231.565 329.393,229.630 329.393 C 227.694 329.393,226.903 329.455,227.870 329.531 " stroke="none" fill="#b8661e" fill-rule="evenodd"></path></g></svg>