<svg id="svg" version="1.1" xmlns="http://www.w3.org/2000/svg" xmlns:xlink="http://www.w3.org/1999/xlink" width="400" height="400" viewBox="0, 0, 400,400"><g id="svgg"><path id="path0" d="M193.454 68.452 C 189.823 71.228,169.435 86.800,148.148 103.058 C 126.861 119.315,109.306 132.820,109.137 133.068 C 108.902 133.413,137.961 228.577,143.006 243.983 L 143.765 246.299 200.110 246.205 L 256.456 246.111 273.587 190.741 C 283.009 160.287,290.821 134.847,290.948 134.207 L 291.178 133.044 266.793 114.408 C 253.381 104.159,232.878 88.490,221.231 79.589 L 200.055 63.406 193.454 68.452 M173.054 126.271 C 182.298 129.826,184.832 142.611,177.704 149.739 C 168.234 159.209,151.997 151.724,153.089 138.391 C 153.879 128.733,163.799 122.711,173.054 126.271 M238.331 126.305 C 247.471 129.816,249.969 142.659,242.889 149.739 C 233.765 158.863,218.346 152.515,218.336 139.630 C 218.328 129.166,228.365 122.477,238.331 126.305 M35.926 286.296 L 35.926 317.407 39.815 317.407 L 43.704 317.407 43.704 301.481 C 43.704 292.722,43.745 285.553,43.796 285.550 C 65.003 284.193,66.788 283.575,68.192 277.107 C 70.151 268.080,66.141 259.247,59.098 257.071 C 56.234 256.187,45.953 255.185,39.737 255.185 L 35.926 255.185 35.926 286.296 M52.593 262.373 C 60.084 262.729,62.282 264.752,62.365 271.365 C 62.431 276.664,62.145 276.814,51.164 277.241 L 44.366 277.505 44.480 269.956 C 44.616 261.000,44.338 261.890,46.945 262.064 C 48.116 262.141,50.657 262.280,52.593 262.373 M195.598 269.228 C 193.945 273.081,192.492 276.498,192.368 276.821 C 192.173 277.329,192.582 277.407,195.423 277.405 L 198.704 277.402 202.404 271.942 C 204.439 268.939,206.727 265.523,207.488 264.352 L 208.873 262.222 203.738 262.222 L 198.602 262.222 195.598 269.228 M156.296 270.741 L 156.296 276.667 153.519 276.667 L 150.741 276.667 150.741 282.222 L 150.741 287.778 152.130 287.782 C 152.894 287.784,154.144 287.889,154.907 288.015 L 156.296 288.245 156.296 302.826 L 156.296 317.407 162.222 317.407 L 168.148 317.407 168.148 302.778 L 168.148 288.148 171.296 288.148 L 174.444 288.148 174.444 282.407 L 174.444 276.667 171.296 276.667 L 168.148 276.667 168.148 270.741 L 168.148 264.815 162.222 264.815 L 156.296 264.815 156.296 270.741 M83.069 271.623 C 74.603 274.406,71.561 282.478,72.584 299.444 C 73.077 307.630,73.339 308.633,75.725 311.472 C 82.228 319.210,99.020 318.589,104.765 310.398 C 105.564 309.260,106.657 307.888,107.194 307.351 L 108.171 306.374 104.919 304.284 L 101.667 302.195 100.000 304.014 C 92.948 311.710,77.841 307.931,78.777 298.703 L 78.965 296.851 88.649 296.948 C 93.976 297.001,100.483 297.084,103.109 297.133 L 107.885 297.222 107.636 290.000 C 107.347 281.603,106.986 280.107,104.617 277.471 C 100.636 273.043,88.646 269.790,83.069 271.623 M240.741 275.966 C 240.741 277.273,240.650 277.448,240.093 277.209 C 229.632 272.732,222.573 274.499,219.808 282.287 C 219.133 284.187,218.206 286.712,217.747 287.898 L 216.912 290.056 217.708 294.647 C 218.883 301.420,221.470 305.926,224.868 307.120 C 225.756 307.432,227.373 308.081,228.463 308.562 L 230.444 309.437 235.315 307.736 C 237.993 306.801,240.452 305.919,240.777 305.777 C 242.145 305.181,241.974 312.643,240.538 316.232 C 238.388 321.606,230.744 323.406,222.795 320.411 C 220.577 319.575,218.685 318.970,218.589 319.065 C 218.301 319.353,215.560 329.388,215.725 329.552 C 216.553 330.381,226.639 331.917,231.296 331.925 C 250.742 331.955,254.279 324.915,252.999 288.728 C 252.775 282.400,252.592 276.597,252.592 275.833 L 252.593 274.444 246.667 274.444 L 240.741 274.444 240.741 275.966 M233.707 280.385 C 234.422 280.742,236.010 281.927,237.236 283.017 C 238.462 284.108,239.823 285.250,240.260 285.556 C 241.012 286.082,241.061 286.454,241.175 292.583 L 241.296 299.054 238.585 300.453 C 234.976 302.316,232.853 302.321,227.869 300.480 C 224.213 299.130,223.315 292.681,225.578 284.030 C 226.596 280.137,230.084 278.573,233.707 280.385 M200.982 279.889 C 199.579 280.047,199.560 280.069,199.795 281.321 C 200.072 282.800,200.038 282.813,198.226 281.902 C 185.843 275.680,178.689 286.795,181.688 307.593 C 182.926 316.171,188.078 318.561,197.732 315.036 C 198.623 314.711,199.415 314.444,199.491 314.444 C 199.567 314.444,199.630 315.111,199.630 315.926 L 199.630 317.407 205.741 317.407 L 211.852 317.407 211.852 298.704 L 211.852 280.000 208.194 280.000 C 206.183 280.000,204.058 279.939,203.472 279.865 C 202.887 279.790,201.766 279.801,200.982 279.889 M269.960 280.145 C 257.455 283.750,253.140 300.677,262.161 310.741 C 272.980 322.810,291.405 313.858,290.656 296.896 C 290.155 285.547,279.930 277.271,269.960 280.145 M344.303 280.018 C 336.120 282.073,330.215 291.441,331.480 300.358 C 334.265 319.999,358.331 321.960,364.084 303.015 C 367.952 290.278,356.493 276.956,344.303 280.018 M114.444 298.704 L 114.444 317.407 120.366 317.407 L 126.288 317.407 126.385 303.093 L 126.481 288.778 127.963 288.252 C 131.573 286.971,135.150 287.786,136.841 290.275 L 137.778 291.653 137.778 304.345 L 137.778 317.037 141.296 317.037 L 144.815 317.037 144.815 303.957 C 144.815 285.957,144.179 283.405,139.179 281.316 C 136.731 280.293,130.794 281.026,127.429 282.767 L 126.296 283.352 126.296 281.676 L 126.296 280.000 120.370 280.000 L 114.444 280.000 114.444 298.704 M295.801 291.389 C 295.494 305.716,295.489 314.758,295.787 316.250 L 296.019 317.407 301.898 317.407 L 307.778 317.407 307.778 303.022 L 307.778 288.636 309.333 288.170 C 313.364 286.962,316.525 287.783,318.283 290.495 L 319.259 292.000 319.259 304.519 L 319.259 317.037 322.805 317.037 L 326.351 317.037 326.208 302.870 C 326.032 285.415,325.627 283.757,320.995 281.515 C 318.426 280.271,312.561 280.879,308.910 282.767 L 307.778 283.352 307.778 281.676 L 307.778 280.000 301.912 280.000 L 296.045 280.000 295.801 291.389 M92.210 281.513 C 96.037 282.334,98.887 285.181,98.888 288.184 L 98.889 289.516 94.386 289.758 C 91.910 289.891,87.563 290.000,84.727 290.000 L 79.571 290.000 79.813 288.796 C 81.066 282.578,85.373 280.047,92.210 281.513 M195.921 289.873 C 199.796 290.950,199.794 290.944,199.944 300.395 L 200.072 308.509 199.018 308.947 C 192.045 311.838,186.451 308.150,186.023 300.380 C 185.593 292.580,189.758 288.159,195.921 289.873 M277.966 290.320 C 283.375 292.777,284.605 299.900,280.323 303.963 C 272.757 311.141,261.547 300.336,268.278 292.353 C 270.455 289.771,274.766 288.867,277.966 290.320 M351.111 289.994 C 355.541 291.227,358.132 296.763,356.286 301.052 C 354.401 305.434,349.472 307.487,345.370 305.598 C 335.755 301.168,340.910 287.156,351.111 289.994 " stroke="none" fill="#38a588" fill-rule="evenodd"></path><path id="path1" d="M0.000 200.000 L 0.000 400.000 200.000 400.000 L 400.000 400.000 400.000 200.000 L 400.000 0.000 200.000 0.000 L 0.000 0.000 0.000 200.000 M247.796 92.691 C 273.982 112.702,295.965 129.514,296.647 130.053 C 298.180 131.261,300.629 122.584,279.103 192.222 C 269.186 224.306,260.986 250.847,260.881 251.204 C 260.701 251.818,257.485 251.852,200.068 251.851 L 139.444 251.851 120.782 191.459 C 110.287 157.499,102.263 130.940,102.448 130.777 C 102.629 130.618,121.444 116.238,144.259 98.821 C 167.074 81.405,188.907 64.720,192.778 61.743 C 196.648 58.767,199.898 56.326,200.000 56.320 C 200.102 56.314,221.610 72.681,247.796 92.691 M170.471 132.209 C 165.203 134.600,167.065 142.593,172.890 142.593 C 178.507 142.593,180.236 134.872,175.191 132.315 C 173.197 131.304,172.497 131.289,170.471 132.209 M225.693 131.884 C 219.452 133.694,221.466 143.233,227.935 142.504 C 232.413 141.999,234.388 136.886,231.413 133.498 C 229.900 131.774,227.961 131.227,225.693 131.884 M158.593 144.148 C 158.348 144.393,158.148 145.026,158.148 145.556 C 158.148 147.546,160.587 148.181,161.701 146.481 C 162.877 144.687,160.122 142.619,158.593 144.148 M238.593 144.148 C 238.348 144.393,238.148 145.026,238.148 145.556 C 238.148 147.546,240.587 148.181,241.701 146.481 C 242.877 144.687,240.122 142.619,238.593 144.148 M50.185 255.570 C 58.421 256.177,62.122 257.471,64.731 260.655 C 65.454 261.537,67.662 263.875,69.639 265.851 C 73.195 269.405,74.616 271.524,75.559 274.678 L 76.017 276.208 77.486 274.781 C 81.620 270.769,86.680 270.051,95.299 272.251 C 100.267 273.520,101.478 274.345,108.043 280.935 L 114.048 286.963 114.154 283.389 L 114.259 279.815 120.278 279.713 L 126.296 279.611 126.296 281.327 C 126.296 282.820,126.380 283.006,126.944 282.763 C 133.879 279.781,139.873 280.120,142.510 283.646 C 143.065 284.388,145.135 286.580,147.111 288.519 C 152.345 293.653,152.016 292.258,152.149 309.907 L 152.261 324.815 148.908 324.815 L 145.556 324.815 145.556 322.963 L 145.556 321.111 143.519 321.111 L 141.481 321.111 141.481 319.074 L 141.481 317.037 139.630 317.037 L 137.778 317.037 137.778 306.296 C 137.778 294.324,137.948 295.018,135.240 295.962 L 134.074 296.369 134.074 310.777 L 134.074 325.185 127.963 325.185 L 121.852 325.185 121.852 323.333 L 121.852 321.481 120.000 321.481 L 118.148 321.481 118.148 319.444 L 118.148 317.407 116.138 317.407 C 114.520 317.407,114.104 317.281,114.001 316.759 C 113.907 316.281,113.567 316.556,112.699 317.813 C 107.272 325.677,90.894 326.951,84.050 320.040 C 83.120 319.102,81.954 317.983,81.458 317.555 C 73.288 310.502,72.335 308.047,72.244 293.817 L 72.222 290.412 70.628 291.117 C 68.583 292.022,65.187 292.492,58.704 292.768 C 55.852 292.890,52.950 293.090,52.256 293.213 L 50.993 293.438 51.246 309.312 L 51.499 325.185 47.416 325.185 L 43.333 325.185 43.333 323.333 L 43.333 321.481 41.296 321.481 L 39.259 321.481 39.259 319.444 L 39.259 317.407 37.407 317.407 L 35.556 317.407 35.556 286.296 L 35.556 255.185 40.278 255.187 C 42.875 255.188,47.333 255.360,50.185 255.570 M208.879 262.500 C 208.873 262.653,208.373 263.432,207.767 264.233 C 206.238 266.255,206.279 266.296,209.833 266.296 L 212.999 266.296 211.870 267.937 C 210.386 270.093,210.303 270.000,213.721 270.000 L 216.702 270.000 213.536 274.593 C 210.044 279.660,210.059 279.630,211.111 279.630 C 211.761 279.630,211.852 279.877,211.852 281.647 L 211.852 283.665 213.796 283.777 L 215.741 283.889 215.853 285.833 C 216.081 289.793,217.823 288.073,219.814 281.923 C 222.131 274.767,230.007 272.618,239.127 276.652 L 240.741 277.366 240.741 275.905 L 240.741 274.444 246.647 274.444 L 252.554 274.444 252.666 276.389 L 252.778 278.333 254.722 278.445 L 256.667 278.557 256.667 280.390 L 256.667 282.222 258.519 282.222 L 260.370 282.222 260.370 284.444 L 260.370 286.667 262.547 284.490 C 267.495 279.542,274.385 278.186,280.616 280.934 C 282.717 281.861,295.030 293.617,295.266 294.923 C 295.311 295.169,295.436 291.870,295.544 287.593 L 295.741 279.815 301.759 279.713 L 307.778 279.611 307.778 281.287 C 307.778 282.209,307.819 282.963,307.870 282.963 C 307.921 282.963,308.880 282.614,310.000 282.187 C 318.418 278.984,319.946 279.537,328.803 288.993 C 328.952 289.152,329.726 289.829,330.523 290.497 L 331.972 291.711 333.207 289.242 C 337.734 280.194,348.116 276.809,356.111 281.776 C 358.055 282.984,367.891 292.997,369.465 295.370 C 379.240 310.109,364.033 329.796,348.703 322.250 C 346.508 321.169,337.166 312.504,334.698 309.259 L 333.712 307.963 333.708 316.389 L 333.704 324.815 330.391 324.815 L 327.078 324.815 326.965 323.056 L 326.852 321.296 324.907 321.184 L 322.963 321.072 322.963 319.055 L 322.963 317.037 320.926 317.037 L 318.889 317.037 318.889 306.296 C 318.889 294.586,319.010 295.164,316.722 295.962 L 315.556 296.369 315.556 310.777 L 315.556 325.185 309.444 325.185 L 303.333 325.185 303.333 323.333 L 303.333 321.481 301.296 321.481 L 299.259 321.481 299.259 319.444 L 299.259 317.407 297.407 317.407 C 295.989 317.407,295.556 317.274,295.556 316.838 C 295.556 316.525,294.567 317.326,293.359 318.617 C 287.650 324.720,279.484 325.725,272.825 321.143 C 271.870 320.487,268.761 317.605,265.915 314.739 L 260.741 309.528 260.737 312.449 C 260.723 323.270,258.553 331.818,254.913 335.399 C 250.703 339.540,239.368 340.811,227.778 338.443 L 223.519 337.573 223.519 336.101 L 223.519 334.630 221.481 334.297 C 218.967 333.886,219.097 334.021,219.636 332.388 C 220.176 330.751,219.951 330.535,217.333 330.175 C 215.322 329.898,215.255 329.722,216.097 326.944 L 216.631 325.185 212.019 325.185 L 207.407 325.185 207.407 323.509 L 207.407 321.833 206.305 322.403 C 204.362 323.408,198.848 324.538,196.964 324.317 C 194.058 323.977,193.519 323.562,186.204 316.037 C 185.847 315.670,184.927 314.783,184.158 314.065 C 182.121 312.164,180.785 305.956,180.752 298.241 L 180.741 295.556 178.333 295.556 L 175.926 295.556 175.926 310.370 L 175.926 325.185 170.000 325.185 L 164.074 325.185 164.074 323.333 L 164.074 321.481 162.222 321.481 L 160.370 321.481 160.370 319.444 L 160.370 317.407 158.333 317.407 L 156.296 317.407 156.296 304.815 L 156.296 292.222 155.370 292.222 C 154.496 292.222,154.444 292.110,154.444 290.205 L 154.444 288.187 152.500 288.075 L 150.556 287.963 150.453 282.315 L 150.351 276.667 153.324 276.667 L 156.296 276.667 156.296 270.556 L 156.296 264.444 162.222 264.444 L 168.148 264.444 168.148 266.462 L 168.148 268.480 170.093 268.592 L 172.037 268.704 172.149 270.648 L 172.261 272.593 174.093 272.593 L 175.926 272.593 175.926 276.667 L 175.926 280.741 177.222 280.741 L 178.519 280.741 178.519 282.593 L 178.519 284.444 180.370 284.444 L 182.222 284.444 182.237 285.833 L 182.252 287.222 182.984 285.755 C 184.842 282.030,188.433 280.168,193.186 280.465 L 196.250 280.656 196.829 279.209 C 197.147 278.414,197.407 277.683,197.407 277.585 C 197.407 277.487,196.173 277.407,194.664 277.407 L 191.920 277.407 195.048 270.127 C 196.769 266.122,198.264 262.706,198.370 262.534 C 198.608 262.148,208.893 262.115,208.879 262.500 M52.222 273.287 L 52.222 277.054 55.278 276.841 C 61.756 276.390,62.222 276.092,62.222 272.407 L 62.222 270.000 60.612 270.000 C 59.727 270.000,57.477 269.892,55.612 269.759 L 52.222 269.519 52.222 273.287 M198.519 281.852 C 199.237 282.316,199.630 282.316,199.630 281.852 C 199.630 281.648,199.255 281.484,198.796 281.487 C 198.122 281.492,198.069 281.562,198.519 281.852 M236.262 287.884 C 233.950 289.084,233.145 290.916,232.416 296.625 C 232.094 299.149,231.933 301.315,232.058 301.440 C 232.768 302.148,236.228 301.564,238.519 300.350 L 240.926 299.074 241.028 293.465 L 241.130 287.857 239.954 287.447 C 238.351 286.888,238.131 286.914,236.262 287.884 M92.593 289.259 C 92.212 289.505,93.122 289.620,95.485 289.624 C 97.690 289.628,98.850 289.496,98.704 289.259 C 98.410 288.785,93.327 288.785,92.593 289.259 M198.333 297.730 C 195.139 299.714,193.136 303.927,193.582 307.723 L 193.817 309.722 195.705 309.522 C 196.743 309.412,198.051 309.146,198.611 308.930 L 199.630 308.537 199.630 302.787 C 199.630 299.624,199.588 297.038,199.537 297.038 C 199.486 297.039,198.944 297.350,198.333 297.730 M278.889 297.998 C 275.714 299.373,272.264 305.397,274.222 306.148 C 277.352 307.349,282.963 302.052,282.963 297.896 C 282.963 297.224,280.534 297.285,278.889 297.998 M352.586 298.129 C 349.196 299.922,345.930 306.296,348.401 306.296 C 352.475 306.296,356.667 302.464,356.667 298.740 C 356.667 297.144,354.939 296.885,352.586 298.129 M219.649 310.571 L 219.630 319.105 223.056 320.386 C 229.881 322.938,237.261 321.631,239.742 317.431 L 240.394 316.326 239.323 316.700 C 238.472 316.997,237.841 316.910,236.256 316.277 C 235.158 315.838,233.593 315.240,232.778 314.947 C 231.963 314.653,230.504 313.629,229.536 312.670 C 228.569 311.711,227.258 310.426,226.624 309.815 C 224.428 307.697,220.901 303.884,220.286 302.963 C 219.700 302.085,219.667 302.476,219.649 310.571 M86.601 305.954 C 86.427 307.777,86.223 307.643,89.666 307.963 C 92.312 308.209,92.643 308.153,95.221 307.031 C 100.204 304.861,99.679 304.523,91.243 304.472 L 86.744 304.444 86.601 305.954 M107.142 305.607 C 107.937 306.200,108.079 306.489,107.761 306.872 C 107.436 307.264,107.824 307.665,109.597 308.774 C 111.100 309.713,111.788 310.364,111.672 310.738 C 111.565 311.082,111.992 311.617,112.786 312.133 L 114.074 312.970 114.074 308.892 L 114.074 304.815 110.093 304.827 L 106.111 304.838 107.142 305.607 " stroke="none" fill="#fbfbfb" fill-rule="evenodd"></path><path id="path2" d="M192.374 62.307 C 188.318 65.410,166.500 82.083,143.889 99.359 C 121.278 116.636,102.725 131.008,102.660 131.299 C 102.574 131.688,130.350 222.239,138.760 248.983 L 139.663 251.854 200.087 251.760 L 260.512 251.667 279.132 191.481 C 289.373 158.380,297.758 131.263,297.765 131.221 C 297.783 131.115,284.334 120.812,241.296 87.964 C 220.519 72.106,202.835 58.576,201.999 57.899 C 199.983 56.264,200.708 55.932,192.374 62.307 M266.793 114.408 L 291.178 133.044 290.948 134.207 C 290.821 134.847,283.009 160.287,273.587 190.741 L 256.456 246.111 200.110 246.205 L 143.765 246.299 143.006 243.983 C 137.961 228.577,108.902 133.413,109.137 133.068 C 109.306 132.820,126.861 119.315,148.148 103.058 C 169.435 86.800,189.823 71.228,193.454 68.452 L 200.055 63.406 221.231 79.589 C 232.878 88.490,253.381 104.159,266.793 114.408 M163.519 125.683 C 147.598 130.963,150.752 153.889,167.400 153.889 C 186.184 153.889,186.732 126.147,167.963 125.322 C 166.144 125.242,164.428 125.381,163.519 125.683 M228.704 125.683 C 212.770 130.968,215.924 153.889,232.585 153.889 C 251.364 153.889,251.911 126.147,233.148 125.322 C 231.330 125.242,229.613 125.381,228.704 125.683 M175.420 132.085 C 178.018 133.318,179.204 136.966,177.870 139.622 C 175.392 144.554,167.882 143.322,167.150 137.864 C 166.561 133.474,171.327 130.143,175.420 132.085 M229.993 132.130 C 233.704 133.995,234.021 139.049,230.590 141.665 C 226.876 144.498,221.709 141.767,221.709 136.969 C 221.709 132.852,226.204 130.227,229.993 132.130 M161.399 143.910 C 163.039 145.059,161.998 147.778,159.918 147.778 C 159.556 147.778,158.926 147.444,158.519 147.037 C 156.555 145.073,159.106 142.304,161.399 143.910 M241.545 143.946 C 242.491 144.802,242.415 146.489,241.399 147.201 C 240.291 147.977,239.408 147.927,238.519 147.037 C 236.534 145.052,239.462 142.062,241.545 143.946 " stroke="none" fill="#040505" fill-rule="evenodd"></path><path id="path3" d="M35.732 286.296 C 35.732 303.509,35.778 310.551,35.833 301.944 C 35.889 293.338,35.889 279.255,35.833 270.648 C 35.778 262.042,35.732 269.083,35.732 286.296 M50.652 255.818 C 51.113 255.906,51.780 255.903,52.134 255.810 C 52.488 255.717,52.111 255.645,51.296 255.649 C 50.481 255.653,50.192 255.729,50.652 255.818 M67.407 263.889 C 68.098 264.602,68.747 265.185,68.849 265.185 C 68.951 265.185,68.469 264.602,67.778 263.889 C 67.087 263.176,66.438 262.593,66.336 262.593 C 66.234 262.593,66.716 263.176,67.407 263.889 M159.167 264.720 C 160.847 264.789,163.597 264.789,165.278 264.720 C 166.958 264.651,165.583 264.595,162.222 264.595 C 158.861 264.595,157.486 264.651,159.167 264.720 M48.518 268.369 C 48.518 269.611,48.410 272.153,48.278 274.017 L 48.037 277.407 48.972 277.407 C 49.487 277.407,50.428 277.303,51.065 277.176 L 52.222 276.944 52.222 273.257 L 52.222 269.570 57.248 269.836 L 62.273 270.103 62.155 268.687 C 62.001 266.842,61.444 266.680,54.166 266.359 L 48.518 266.111 48.518 268.369 M70.558 268.154 C 72.113 271.221,72.716 274.224,72.458 277.604 C 71.779 286.482,68.883 288.489,55.926 289.063 C 53.176 289.185,50.134 289.378,49.167 289.492 L 47.407 289.699 47.407 305.590 L 47.407 321.481 45.370 321.481 L 43.333 321.481 43.333 323.333 L 43.333 325.185 47.416 325.185 L 51.499 325.185 51.246 309.312 L 50.993 293.438 52.256 293.213 C 52.950 293.090,55.852 292.890,58.704 292.768 C 65.126 292.495,68.581 292.023,70.555 291.149 L 72.078 290.476 72.552 287.380 C 73.093 283.843,74.481 279.226,75.493 277.593 C 76.564 275.865,74.754 271.154,71.778 267.926 C 69.807 265.788,69.398 265.864,70.558 268.154 M169.873 268.779 L 171.783 268.925 172.047 272.796 L 172.311 276.667 173.378 276.667 C 174.423 276.667,174.444 276.707,174.444 278.691 L 174.444 280.715 176.265 280.957 L 178.086 281.198 178.332 284.581 C 178.467 286.441,178.523 288.880,178.456 290.000 L 178.333 292.037 175.278 292.145 L 172.222 292.252 172.222 306.867 L 172.222 321.481 168.148 321.481 L 164.074 321.481 164.074 323.333 L 164.074 325.185 170.000 325.185 L 175.926 325.185 175.926 310.370 L 175.926 295.556 178.326 295.556 C 181.009 295.556,180.826 295.771,181.311 292.037 C 181.444 291.019,181.753 289.601,181.998 288.886 C 182.243 288.172,182.377 286.880,182.294 286.016 L 182.144 284.444 180.331 284.444 L 178.519 284.444 178.519 282.593 L 178.519 280.741 177.222 280.741 L 175.926 280.741 175.926 276.667 L 175.926 272.593 174.093 272.593 L 172.261 272.593 172.149 270.648 L 172.037 268.704 170.000 268.668 L 167.963 268.633 169.873 268.779 M207.750 273.860 C 206.238 276.085,204.692 278.377,204.315 278.953 L 203.631 280.000 207.834 279.950 C 210.146 279.922,211.662 279.827,211.204 279.739 C 210.081 279.522,209.970 279.768,213.517 274.621 L 216.664 270.054 213.583 269.935 L 210.501 269.815 207.750 273.860 M62.333 272.222 C 62.333 273.343,62.403 273.801,62.488 273.241 C 62.572 272.681,62.572 271.764,62.488 271.204 C 62.403 270.644,62.333 271.102,62.333 272.222 M55.470 276.935 C 56.135 277.018,57.135 277.016,57.692 276.931 C 58.248 276.847,57.704 276.779,56.481 276.781 C 55.259 276.784,54.804 276.853,55.470 276.935 M150.541 282.314 L 150.556 287.963 152.500 288.075 L 154.444 288.187 154.444 290.205 C 154.444 292.171,154.470 292.221,155.463 292.172 C 156.308 292.130,156.343 292.094,155.667 291.963 C 154.971 291.828,154.836 291.525,154.741 289.884 L 154.630 287.963 152.695 287.851 L 150.760 287.740 150.643 282.203 L 150.526 276.666 150.541 282.314 M256.529 282.222 C 256.983 295.320,257.161 297.705,257.485 295.000 C 257.793 292.421,259.391 288.349,260.669 286.887 C 261.014 286.492,261.088 286.291,260.833 286.440 C 260.484 286.644,260.370 286.159,260.370 284.466 L 260.370 282.222 258.538 282.222 L 256.705 282.222 256.556 280.463 C 256.474 279.495,256.462 280.287,256.529 282.222 M114.321 279.877 C 114.185 280.012,114.074 281.697,114.074 283.620 L 114.074 287.117 112.373 285.225 C 110.412 283.044,109.826 282.824,110.538 284.537 C 111.060 285.793,111.852 294.316,111.852 298.678 L 111.852 301.203 97.425 301.048 L 82.997 300.892 82.757 302.816 C 82.424 305.479,83.055 306.687,85.084 307.273 C 85.945 307.522,86.633 307.612,86.614 307.474 C 86.595 307.336,86.599 306.597,86.623 305.833 L 86.667 304.444 90.833 304.448 C 96.873 304.452,99.017 304.753,98.448 305.515 C 98.203 305.843,98.833 305.211,99.848 304.110 L 101.693 302.109 103.798 303.507 L 105.903 304.905 109.989 304.840 L 114.074 304.775 114.074 308.894 L 114.074 313.013 113.030 312.270 C 111.348 311.072,111.146 311.160,108.940 314.064 C 104.120 320.410,92.822 322.891,84.528 319.426 L 83.243 318.889 83.782 319.722 C 86.651 324.156,98.960 325.948,106.069 322.966 C 109.322 321.601,110.968 320.325,112.678 317.838 C 113.688 316.371,113.866 316.251,114.108 316.877 C 114.260 317.271,114.306 312.593,114.209 306.481 C 114.113 300.370,114.147 291.916,114.286 287.694 L 114.538 280.018 120.510 279.907 L 126.481 279.795 120.525 279.712 C 117.248 279.667,114.457 279.741,114.321 279.877 M298.796 279.905 C 300.477 279.974,303.227 279.974,304.907 279.905 C 306.588 279.837,305.213 279.780,301.852 279.780 C 298.491 279.780,297.116 279.837,298.796 279.905 M107.037 280.116 C 107.037 280.180,107.579 280.721,108.241 281.320 L 109.444 282.407 108.357 281.204 C 107.343 280.082,107.037 279.830,107.037 280.116 M233.519 283.814 C 230.288 284.878,229.503 286.457,228.635 293.632 C 227.879 299.877,228.010 300.575,230.041 301.122 C 231.943 301.634,231.724 302.046,232.413 296.649 C 233.345 289.347,235.765 286.181,239.533 287.338 C 241.261 287.868,241.462 287.645,240.341 286.444 C 238.550 284.525,235.236 283.247,233.519 283.814 M262.384 284.537 L 261.296 285.741 262.500 284.653 C 263.162 284.055,263.704 283.513,263.704 283.449 C 263.704 283.163,263.398 283.415,262.384 284.537 M213.558 283.964 L 215.450 284.109 215.688 286.925 C 215.819 288.474,215.926 296.883,215.926 305.611 L 215.926 321.481 209.815 321.481 L 203.704 321.481 203.704 320.000 C 203.704 318.346,203.593 318.293,201.761 319.058 C 197.852 320.692,191.968 321.146,190.452 319.932 C 190.118 319.664,190.385 320.125,191.046 320.958 C 194.061 324.753,200.568 325.369,206.305 322.403 L 207.407 321.833 207.407 323.509 L 207.407 325.185 212.021 325.185 L 216.635 325.185 217.412 322.500 C 217.839 321.023,218.258 319.606,218.342 319.352 C 218.426 319.097,218.747 318.889,219.055 318.889 C 219.992 318.889,220.069 302.552,219.142 300.677 C 218.056 298.481,216.883 291.251,217.285 289.233 C 217.610 287.604,217.591 287.546,216.795 287.698 C 216.032 287.844,215.958 287.701,215.854 285.873 L 215.741 283.889 213.704 283.854 L 211.667 283.818 213.558 283.964 M88.333 285.866 C 87.096 286.620,84.815 289.079,84.815 289.659 C 84.815 289.893,86.251 289.992,88.666 289.924 C 90.785 289.864,92.444 289.695,92.355 289.548 C 92.075 289.089,93.916 288.818,96.426 288.949 L 98.835 289.074 98.645 287.963 C 98.327 286.110,98.268 286.044,96.534 285.607 C 93.863 284.935,89.642 285.068,88.333 285.866 M145.556 287.222 C 146.247 287.935,146.895 288.519,146.997 288.519 C 147.099 288.519,146.617 287.935,145.926 287.222 C 145.235 286.509,144.586 285.926,144.484 285.926 C 144.382 285.926,144.865 286.509,145.556 287.222 M147.272 289.259 C 148.281 290.595,148.519 294.058,148.519 307.426 L 148.519 321.111 147.037 321.111 L 145.556 321.111 145.556 322.963 L 145.556 324.815 148.908 324.815 L 152.261 324.815 152.149 309.907 L 152.037 295.000 151.111 293.172 C 150.596 292.156,149.445 290.758,148.519 290.024 C 147.602 289.298,147.041 288.954,147.272 289.259 M329.045 290.185 C 329.831 293.315,329.996 296.438,329.998 308.241 L 330.000 321.111 328.426 321.111 L 326.852 321.111 326.980 322.963 L 327.109 324.815 330.406 324.815 L 333.704 324.815 333.704 316.460 C 333.704 310.068,333.808 308.169,334.147 308.378 C 334.391 308.529,334.238 308.157,333.807 307.552 C 331.711 304.609,330.685 298.561,331.569 294.359 L 332.093 291.867 331.139 291.007 C 328.955 289.040,328.736 288.954,329.045 290.185 M365.721 291.673 C 375.200 305.641,361.042 325.238,345.893 319.118 L 343.594 318.190 345.038 319.671 C 353.400 328.251,368.046 323.446,371.693 310.926 C 373.642 304.231,371.025 295.070,366.088 291.304 L 364.808 290.328 365.721 291.673 M292.437 293.076 C 300.393 308.060,285.517 325.858,270.975 318.752 L 269.074 317.823 271.010 319.621 C 277.633 325.770,287.037 325.375,293.295 318.686 L 295.556 316.269 295.556 305.760 L 295.556 295.252 294.077 293.381 C 291.739 290.423,290.950 290.277,292.437 293.076 M134.259 291.714 C 133.852 291.803,132.810 292.059,131.944 292.282 L 130.370 292.689 130.370 307.085 L 130.370 321.481 126.111 321.481 L 121.852 321.481 121.852 323.333 L 121.852 325.185 127.963 325.185 L 134.074 325.185 134.074 310.777 L 134.074 296.369 135.240 295.962 C 135.882 295.739,136.715 295.556,137.092 295.556 C 137.668 295.556,137.778 295.259,137.778 293.704 C 137.778 292.189,137.660 291.851,137.130 291.847 C 136.773 291.844,136.148 291.776,135.741 291.697 C 135.333 291.617,134.667 291.625,134.259 291.714 M314.767 291.868 C 311.179 292.455,311.481 291.039,311.481 307.235 L 311.481 321.481 307.407 321.481 L 303.333 321.481 303.333 323.333 L 303.333 325.185 309.444 325.185 L 315.556 325.185 315.556 310.777 L 315.556 296.369 316.722 295.962 C 318.992 295.171,318.869 294.601,318.982 306.389 L 319.086 317.222 319.172 304.711 C 319.240 294.963,319.157 292.167,318.796 292.056 C 317.540 291.669,316.327 291.612,314.767 291.868 M195.185 293.729 C 191.460 295.289,189.365 300.051,189.994 305.528 C 190.401 309.066,190.427 309.110,192.297 309.454 L 193.668 309.705 193.596 306.982 C 193.493 303.094,195.612 299.095,198.591 297.555 L 199.665 297.000 199.555 302.910 C 199.492 306.275,199.586 308.732,199.772 308.616 C 200.100 308.413,199.898 294.219,199.563 293.884 C 199.159 293.480,196.043 293.370,195.185 293.729 M241.108 296.187 C 241.008 297.858,241.059 299.092,241.221 298.929 C 241.383 298.766,241.465 297.398,241.403 295.890 L 241.289 293.148 241.108 296.187 M275.000 294.400 C 269.050 297.129,268.076 306.371,273.747 306.294 C 273.825 306.293,273.927 305.628,273.973 304.815 C 274.192 300.964,277.880 297.407,281.655 297.407 C 283.092 297.407,283.146 297.302,282.566 295.638 C 281.884 293.682,277.962 293.041,275.000 294.400 M349.835 293.973 C 346.047 294.937,343.423 299.559,344.228 303.851 C 344.730 306.528,347.587 307.015,347.923 304.481 C 348.406 300.839,352.001 297.407,355.332 297.407 C 356.451 297.407,356.641 297.541,356.782 298.426 C 356.871 298.986,356.882 298.584,356.806 297.532 C 356.620 294.953,356.425 294.562,355.100 294.100 C 353.955 293.701,351.169 293.633,349.835 293.973 M72.308 297.778 C 72.308 298.491,72.384 298.782,72.478 298.426 C 72.571 298.069,72.571 297.486,72.478 297.130 C 72.384 296.773,72.308 297.065,72.308 297.778 M257.082 304.815 C 256.872 330.735,252.584 336.422,233.704 335.814 C 230.343 335.706,226.676 335.385,225.556 335.101 L 223.519 334.585 223.519 336.082 L 223.519 337.578 227.778 338.446 C 239.382 340.809,250.705 339.538,254.913 335.399 C 258.549 331.822,260.723 323.269,260.737 312.478 C 260.740 310.270,260.850 309.649,261.204 309.853 C 261.458 309.999,261.310 309.718,260.875 309.226 C 259.260 307.404,257.838 303.784,257.398 300.373 C 257.217 298.974,257.118 300.369,257.082 304.815 M180.834 300.556 C 180.838 301.370,180.914 301.660,181.003 301.199 C 181.091 300.739,181.088 300.072,180.995 299.718 C 180.903 299.364,180.830 299.741,180.834 300.556 M72.704 304.444 C 72.704 305.565,72.773 306.023,72.858 305.463 C 72.943 304.903,72.943 303.986,72.858 303.426 C 72.773 302.866,72.704 303.324,72.704 304.444 M229.248 312.206 C 230.170 313.501,231.764 314.815,232.413 314.815 C 232.666 314.815,233.842 315.258,235.025 315.800 C 236.978 316.694,240.558 317.270,240.160 316.625 C 240.069 316.479,240.165 316.303,240.373 316.234 C 240.719 316.118,241.890 311.459,241.645 311.170 C 241.586 311.101,239.897 311.582,237.891 312.240 L 234.245 313.435 231.597 312.273 C 228.350 310.848,228.279 310.846,229.248 312.206 M266.281 315.278 C 267.189 316.245,267.981 317.037,268.040 317.037 C 268.318 317.037,268.024 316.705,266.389 315.170 L 264.630 313.519 266.281 315.278 M141.596 319.074 C 141.598 320.296,141.667 320.752,141.750 320.086 C 141.832 319.420,141.831 318.420,141.746 317.864 C 141.662 317.307,141.594 317.852,141.596 319.074 M187.037 317.153 C 187.037 317.217,187.579 317.758,188.241 318.357 L 189.444 319.444 188.357 318.241 C 187.343 317.119,187.037 316.867,187.037 317.153 M39.374 319.444 C 39.376 320.667,39.445 321.122,39.528 320.456 C 39.610 319.791,39.608 318.791,39.524 318.234 C 39.439 317.678,39.372 318.222,39.374 319.444 M299.374 319.444 C 299.376 320.667,299.445 321.122,299.528 320.456 C 299.610 319.791,299.608 318.791,299.524 318.234 C 299.439 317.678,299.372 318.222,299.374 319.444 " stroke="none" fill="#a9aaaa" fill-rule="evenodd"></path><path id="path4" d="M226.759 142.848 C 227.116 142.941,227.699 142.941,228.056 142.848 C 228.412 142.755,228.120 142.679,227.407 142.679 C 226.694 142.679,226.403 142.755,226.759 142.848 M44.705 262.165 C 44.644 262.298,44.544 265.782,44.481 269.907 L 44.367 277.407 46.202 277.407 L 48.037 277.407 48.278 274.017 C 48.410 272.153,48.518 269.611,48.518 268.369 L 48.517 266.111 53.981 266.345 C 56.986 266.474,60.003 266.706,60.685 266.862 L 61.926 267.145 61.372 266.071 C 60.102 263.615,57.732 262.617,52.593 262.373 C 50.657 262.280,48.116 262.141,46.945 262.064 C 45.773 261.986,44.766 262.031,44.705 262.165 M67.485 265.580 C 69.308 269.857,69.022 277.304,66.914 280.431 C 64.557 283.929,62.700 284.341,43.796 285.550 C 43.745 285.553,43.704 292.722,43.704 301.481 L 43.704 317.407 41.667 317.407 L 39.630 317.407 39.630 319.444 L 39.630 321.481 43.519 321.481 L 47.407 321.481 47.407 305.590 L 47.407 289.699 49.167 289.492 C 50.134 289.378,53.176 289.185,55.926 289.063 C 68.883 288.489,71.779 286.482,72.458 277.604 C 72.834 272.687,70.968 267.330,67.818 264.284 L 66.311 262.827 67.485 265.580 M205.280 267.724 C 204.719 268.510,203.009 271.008,201.481 273.276 C 199.954 275.544,198.503 277.401,198.258 277.403 C 197.535 277.410,196.176 280.806,196.751 281.171 C 197.717 281.784,199.630 281.530,199.630 280.789 C 199.630 280.220,200.012 280.052,201.765 279.854 L 203.900 279.613 208.009 273.417 C 210.269 270.010,212.235 267.014,212.377 266.759 C 212.576 266.405,211.894 266.296,209.469 266.296 L 206.301 266.296 205.280 267.724 M168.148 272.778 L 168.148 276.667 170.185 276.667 C 172.528 276.667,172.425 276.951,171.983 271.723 L 171.743 268.889 169.946 268.889 L 168.148 268.889 168.148 272.778 M252.732 281.759 C 254.484 307.770,252.528 323.115,246.822 328.125 C 242.912 331.558,231.602 333.103,223.393 331.326 C 220.305 330.657,220.150 330.697,219.808 332.253 C 219.487 333.716,219.310 333.607,223.762 334.687 C 231.655 336.600,243.592 336.213,248.112 333.897 C 255.965 329.875,258.172 317.865,256.692 287.222 C 256.485 282.944,256.311 279.236,256.306 278.981 C 256.300 278.673,255.666 278.519,254.405 278.519 L 252.514 278.519 252.732 281.759 M229.045 279.970 C 226.173 281.258,225.579 282.593,224.664 289.815 C 223.887 295.944,224.781 299.399,227.378 300.305 L 228.439 300.675 228.254 299.292 C 227.944 296.980,229.184 288.542,230.107 286.686 C 231.966 282.948,236.380 282.742,240.093 286.221 C 240.901 286.979,241.111 287.050,241.111 286.564 C 241.111 286.227,240.777 285.773,240.369 285.555 C 239.961 285.336,238.587 284.230,237.316 283.096 C 233.540 279.726,231.396 278.916,229.045 279.970 M106.817 281.009 C 107.188 282.064,107.452 284.958,107.626 289.898 L 107.883 297.222 103.108 297.133 C 100.482 297.084,93.976 297.001,88.649 296.948 L 78.965 296.851 78.777 298.703 C 78.494 301.492,80.317 305.056,82.680 306.338 C 83.256 306.651,83.282 306.580,82.929 305.658 C 82.709 305.085,82.637 303.802,82.766 302.761 L 82.997 300.892 97.425 301.048 L 111.852 301.203 111.852 298.639 C 111.852 288.513,110.882 283.989,108.132 281.281 L 106.265 279.444 106.817 281.009 M295.712 287.593 C 295.713 291.870,295.767 293.570,295.832 291.369 C 295.898 289.168,295.897 285.668,295.832 283.591 C 295.766 281.514,295.712 283.315,295.712 287.593 M174.444 284.422 L 174.444 288.148 171.296 288.148 L 168.148 288.148 168.148 302.778 L 168.148 317.407 164.259 317.407 L 160.370 317.407 160.370 319.444 L 160.370 321.481 166.296 321.481 L 172.222 321.481 172.222 306.867 L 172.222 292.252 175.278 292.145 L 178.333 292.037 178.273 286.730 C 178.240 283.811,178.157 281.374,178.088 281.314 C 178.019 281.255,177.171 281.091,176.204 280.951 L 174.444 280.695 174.444 284.422 M85.185 281.355 C 82.865 282.331,80.438 285.693,79.813 288.796 L 79.571 290.000 82.193 290.000 C 83.689 290.000,84.815 289.841,84.815 289.631 C 84.815 289.039,87.441 286.298,88.565 285.717 C 89.895 285.029,94.525 285.022,96.793 285.704 C 98.762 286.297,98.906 286.073,97.576 284.492 C 95.531 282.062,88.024 280.161,85.185 281.355 M211.852 300.741 L 211.852 317.407 205.741 317.407 L 199.630 317.407 199.630 315.926 C 199.630 315.111,199.567 314.444,199.491 314.444 C 199.415 314.444,198.623 314.711,197.732 315.036 C 193.578 316.553,189.581 317.052,187.607 316.302 C 186.235 315.780,186.873 316.874,189.066 318.805 C 191.781 321.194,197.833 321.238,202.202 318.899 C 203.413 318.252,203.704 318.465,203.704 320.000 L 203.704 321.481 209.815 321.481 L 215.926 321.481 215.926 305.611 C 215.926 296.883,215.818 288.466,215.686 286.908 L 215.447 284.074 213.649 284.074 L 211.852 284.074 211.852 300.741 M144.314 288.241 C 144.661 289.895,144.802 294.334,144.807 303.796 L 144.815 317.037 143.333 317.037 L 141.852 317.037 141.852 319.074 L 141.852 321.111 145.185 321.111 L 148.519 321.111 148.519 307.469 C 148.519 291.362,148.396 290.398,146.021 287.756 C 143.902 285.399,143.729 285.448,144.314 288.241 M325.349 286.599 C 326.076 288.889,326.292 292.957,326.294 304.352 L 326.296 317.037 324.630 317.037 L 322.963 317.037 322.963 319.074 L 322.963 321.111 326.508 321.111 L 330.054 321.111 329.906 306.759 C 329.745 291.232,329.662 290.529,327.699 288.049 C 326.316 286.303,324.996 285.488,325.349 286.599 M362.204 288.041 C 371.456 301.990,356.057 321.991,341.594 314.811 C 338.562 313.307,338.755 313.927,342.245 316.906 C 358.090 330.431,378.098 304.155,363.491 289.005 C 362.220 287.687,361.721 287.313,362.204 288.041 M129.815 287.807 C 129.000 287.961,127.875 288.263,127.315 288.479 L 126.296 288.871 126.296 303.139 L 126.296 317.407 122.222 317.407 L 118.148 317.407 118.148 319.444 L 118.148 321.481 124.259 321.481 L 130.370 321.481 130.370 307.085 L 130.370 292.689 132.129 292.196 C 133.097 291.926,134.765 291.724,135.837 291.750 C 137.913 291.798,137.905 291.819,136.577 289.902 C 135.315 288.079,132.688 287.266,129.815 287.807 M288.488 288.519 C 297.542 303.495,280.629 322.843,266.143 314.081 L 264.259 312.941 267.072 315.682 C 279.293 327.589,298.085 314.762,294.086 297.243 C 293.475 294.566,291.335 290.742,289.397 288.863 C 287.716 287.234,287.710 287.232,288.488 288.519 M311.852 287.661 C 311.343 287.735,310.218 287.980,309.352 288.205 L 307.778 288.615 307.778 303.011 L 307.778 317.407 303.704 317.407 L 299.630 317.407 299.630 319.444 L 299.630 321.481 305.556 321.481 L 311.481 321.481 311.481 307.235 C 311.481 293.215,311.494 292.983,312.247 292.579 C 313.429 291.947,316.613 291.547,317.993 291.859 L 319.235 292.139 318.726 291.154 C 317.989 289.728,316.316 288.161,315.312 287.955 C 313.571 287.599,312.759 287.530,311.852 287.661 M114.233 296.481 C 114.233 301.167,114.286 303.032,114.351 300.627 C 114.415 298.222,114.415 294.389,114.350 292.109 C 114.285 289.829,114.233 291.796,114.233 296.481 M154.815 290.000 C 154.815 291.605,154.914 291.852,155.556 291.852 C 156.198 291.852,156.296 291.605,156.296 290.000 C 156.296 288.395,156.198 288.148,155.556 288.148 C 154.914 288.148,154.815 288.395,154.815 290.000 M190.855 289.802 C 185.266 292.233,184.129 305.681,189.287 308.348 L 190.423 308.935 190.153 307.153 C 188.907 298.914,192.622 292.585,198.156 293.520 C 199.536 293.753,199.630 293.712,199.630 292.875 C 199.630 290.481,193.904 288.476,190.855 289.802 M89.912 289.892 C 90.372 289.980,91.039 289.977,91.393 289.884 C 91.747 289.791,91.370 289.719,90.556 289.723 C 89.741 289.727,89.451 289.803,89.912 289.892 M270.834 290.409 C 265.937 292.833,264.711 299.531,268.446 303.458 C 270.018 305.111,270.819 305.440,270.365 304.245 C 268.158 298.440,275.039 291.836,280.953 294.084 C 282.399 294.634,282.383 294.395,280.852 292.606 C 278.344 289.676,274.166 288.760,270.834 290.409 M345.000 290.332 C 339.646 292.811,338.648 300.922,343.276 304.343 L 344.259 305.070 344.261 302.072 C 344.264 296.214,349.529 292.176,354.780 294.007 C 356.434 294.583,356.263 293.899,354.276 291.995 C 351.773 289.597,348.034 288.927,345.000 290.332 M199.731 295.556 C 199.731 296.472,199.803 296.847,199.891 296.389 C 199.979 295.931,199.979 295.181,199.891 294.722 C 199.803 294.264,199.731 294.639,199.731 295.556 M240.370 305.904 C 239.471 306.431,231.085 309.259,230.422 309.259 C 230.088 309.259,228.747 308.754,227.442 308.136 C 226.137 307.519,224.931 307.061,224.763 307.118 C 224.265 307.287,227.352 310.675,228.251 310.946 C 228.704 311.082,230.234 311.697,231.652 312.311 L 234.230 313.429 238.076 312.186 L 241.921 310.943 241.706 309.638 C 241.587 308.920,241.488 307.708,241.486 306.944 C 241.481 305.507,241.314 305.351,240.370 305.904 M105.209 309.816 C 102.413 313.650,98.755 315.860,93.895 316.653 C 90.280 317.242,80.931 315.986,79.266 314.687 C 78.965 314.452,79.260 314.954,79.922 315.803 C 82.775 319.463,85.848 320.489,94.074 320.529 C 102.248 320.569,105.108 319.166,110.068 312.683 L 111.802 310.416 109.882 309.218 C 108.827 308.560,107.789 307.814,107.576 307.562 C 107.285 307.217,106.696 307.777,105.209 309.816 M114.160 314.444 C 114.160 315.157,114.236 315.449,114.329 315.093 C 114.423 314.736,114.423 314.153,114.329 313.796 C 114.236 313.440,114.160 313.731,114.160 314.444 " stroke="none" fill="#7c7c7a" fill-rule="evenodd"></path></g></svg>