<svg id="svg" version="1.1" xmlns="http://www.w3.org/2000/svg" xmlns:xlink="http://www.w3.org/1999/xlink" width="400" height="400" viewBox="0, 0, 400,400"><g id="svgg"><path id="path0" d="M90.000 147.593 L 90.000 207.407 200.000 207.407 L 310.000 207.407 310.000 147.593 L 310.000 87.778 200.000 87.778 L 90.000 87.778 90.000 147.593 M304.444 147.778 L 304.444 202.222 200.000 202.222 L 95.556 202.222 95.556 147.778 L 95.556 93.333 200.000 93.333 L 304.444 93.333 304.444 147.778 M164.899 118.904 C 156.641 120.074,151.128 129.079,153.649 137.280 C 156.901 147.863,170.605 150.960,178.064 142.799 C 187.473 132.504,178.888 116.921,164.899 118.904 M230.165 118.894 C 221.783 120.089,216.290 129.003,218.834 137.280 C 223.663 152.992,246.852 149.571,246.852 133.148 C 246.852 123.702,239.641 117.542,230.165 118.894 M175.178 125.648 C 178.287 127.237,179.374 130.415,177.778 133.253 C 174.893 138.387,167.222 136.474,167.222 130.621 C 167.222 126.311,171.383 123.709,175.178 125.648 M230.370 125.887 C 231.900 126.982,232.963 128.858,232.963 130.462 C 232.963 137.239,223.632 138.462,221.869 131.916 C 220.592 127.171,226.406 123.048,230.370 125.887 M161.545 137.650 C 163.010 138.976,161.802 141.282,159.767 141.046 C 159.106 140.970,158.528 140.570,158.182 139.950 C 157.040 137.907,159.767 136.041,161.545 137.650 M241.545 137.650 C 243.010 138.976,241.802 141.282,239.767 141.046 C 239.106 140.970,238.528 140.570,238.182 139.950 C 237.040 137.907,239.767 136.041,241.545 137.650 " stroke="none" fill="#2b2d29" fill-rule="evenodd"></path><path id="path1" d="M95.556 147.778 L 95.556 202.222 200.000 202.222 L 304.444 202.222 304.444 147.778 L 304.444 93.333 200.000 93.333 L 95.556 93.333 95.556 147.778 M173.608 120.017 C 182.511 124.069,184.745 135.490,178.064 142.799 C 170.605 150.960,156.901 147.863,153.649 137.280 C 150.001 125.411,162.227 114.836,173.608 120.017 M238.793 120.017 C 247.953 124.186,249.929 136.620,242.532 143.540 C 234.751 150.817,221.956 147.437,218.834 137.280 C 215.180 125.391,227.392 114.828,238.793 120.017 M323.704 255.370 L 323.704 286.296 330.185 286.296 L 336.667 286.296 336.667 255.370 L 336.667 224.444 330.185 224.444 L 323.704 224.444 323.704 255.370 M188.950 231.759 C 188.628 232.380,186.474 237.309,183.851 243.426 L 182.621 246.296 185.928 246.296 L 189.236 246.296 194.155 239.057 C 196.861 235.076,199.130 231.659,199.198 231.465 C 199.452 230.737,189.328 231.028,188.950 231.759 M36.574 231.759 L 24.815 231.862 24.815 259.079 L 24.815 286.296 28.519 286.296 L 32.222 286.296 32.222 275.359 C 32.222 262.924,31.930 263.916,35.595 263.906 C 40.710 263.894,43.839 268.138,43.955 275.249 C 44.037 280.281,44.683 282.379,46.834 284.591 C 50.876 288.750,57.845 289.005,58.228 285.008 C 58.326 283.985,58.244 283.904,57.099 283.897 C 54.142 283.878,51.170 276.808,51.124 269.681 C 51.107 267.075,49.558 264.146,46.383 260.717 C 43.714 257.834,43.661 257.930,48.071 257.634 C 56.204 257.089,58.692 254.115,58.449 245.228 C 58.224 236.969,54.594 231.270,49.748 231.569 C 48.970 231.617,43.042 231.702,36.574 231.759 M147.037 239.630 L 147.037 245.556 144.074 245.556 L 141.111 245.556 141.111 251.111 L 141.111 256.667 142.685 256.671 C 143.551 256.673,144.884 256.778,145.648 256.904 L 147.037 257.134 147.037 271.715 L 147.037 286.296 152.963 286.296 L 158.889 286.296 158.889 271.682 L 158.889 257.067 161.944 256.959 L 165.000 256.852 165.102 251.204 L 165.204 245.556 162.047 245.556 L 158.889 245.556 158.886 242.130 C 158.885 240.245,158.777 237.579,158.648 236.204 L 158.411 233.704 152.724 233.704 L 147.037 233.704 147.037 239.630 M47.368 240.013 C 50.945 242.888,51.816 247.958,49.237 250.895 C 47.348 253.046,45.890 253.372,38.704 253.253 L 32.407 253.148 32.307 246.214 L 32.206 239.279 37.677 239.166 C 40.686 239.104,43.783 239.016,44.559 238.971 C 45.651 238.907,46.286 239.143,47.368 240.013 M73.169 240.782 C 64.630 243.718,62.017 251.664,63.255 270.926 C 63.860 280.343,67.413 284.153,76.598 285.237 C 86.512 286.406,91.342 284.544,96.759 277.467 L 98.518 275.168 95.388 273.128 L 92.259 271.088 90.666 272.817 C 83.142 280.987,67.531 276.511,69.485 266.744 L 69.710 265.618 83.989 265.830 L 98.269 266.043 98.030 258.670 C 97.740 249.719,97.564 249.016,94.900 246.223 C 90.313 241.414,79.329 238.663,73.169 240.782 M268.148 244.815 C 268.148 245.630,268.086 246.296,268.010 246.296 C 267.934 246.296,267.142 245.975,266.251 245.582 C 261.731 243.591,255.222 243.289,252.014 244.922 C 249.368 246.268,248.596 247.289,247.143 251.361 C 246.428 253.363,245.506 255.917,245.093 257.037 C 243.306 261.884,247.311 273.996,251.210 275.533 C 251.665 275.712,253.379 276.391,255.019 277.041 L 258.002 278.223 262.797 276.568 C 265.435 275.658,267.860 274.799,268.188 274.660 C 269.719 274.007,269.267 282.689,267.602 285.907 C 265.210 290.533,257.453 292.123,250.556 289.401 C 245.572 287.435,246.042 287.154,244.372 293.100 C 243.578 295.926,243.007 298.316,243.102 298.411 C 243.846 299.155,251.925 300.434,257.037 300.617 C 272.110 301.157,277.039 297.793,279.645 285.185 C 280.196 282.518,280.525 262.054,280.185 251.574 L 279.918 243.333 274.033 243.333 L 268.148 243.333 268.148 244.815 M117.858 245.926 C 108.274 247.956,103.360 256.849,104.440 270.210 C 105.491 283.212,118.925 290.202,129.643 283.325 C 132.483 281.502,135.908 276.650,135.922 274.428 C 135.926 273.916,129.729 268.970,129.505 269.306 C 129.455 269.382,129.004 270.069,128.503 270.832 C 122.979 279.254,109.712 274.696,110.473 264.638 C 111.153 255.647,120.527 251.977,126.811 258.240 L 128.992 260.415 132.636 257.988 C 136.832 255.195,136.824 255.231,134.013 251.588 C 130.479 247.006,123.803 244.667,117.858 245.926 M261.214 249.324 C 261.983 249.710,263.483 250.811,264.547 251.772 C 265.611 252.733,266.925 253.852,267.466 254.259 L 268.451 255.000 268.577 261.472 L 268.704 267.944 265.993 269.342 C 262.862 270.957,261.508 271.072,257.586 270.053 C 251.335 268.428,250.589 265.945,252.797 254.111 C 253.741 249.052,256.986 247.206,261.214 249.324 M355.097 249.238 C 342.447 253.282,338.781 270.725,348.554 280.371 C 359.352 291.029,376.296 282.652,376.296 266.656 C 376.296 254.607,365.654 245.863,355.097 249.238 M190.300 250.155 L 190.185 251.421 187.963 250.463 C 176.695 245.608,170.009 254.879,171.835 272.828 C 173.128 285.535,176.707 287.696,189.537 283.518 C 190.310 283.267,190.370 283.357,190.370 284.772 L 190.370 286.296 196.481 286.296 L 202.593 286.296 202.593 270.426 C 202.593 261.698,202.485 253.281,202.353 251.723 L 202.114 248.889 196.264 248.889 L 190.415 248.889 190.300 250.155 M208.889 267.593 L 208.889 286.296 214.815 286.296 L 220.741 286.296 220.741 272.050 C 220.741 255.965,220.446 257.438,223.818 256.683 C 226.722 256.032,228.791 256.549,230.625 258.383 L 232.222 259.981 232.222 272.953 L 232.222 285.926 235.741 285.926 L 239.259 285.926 239.259 272.661 C 239.259 256.272,239.021 254.629,236.259 251.928 C 233.605 249.333,229.643 248.998,224.074 250.899 C 220.571 252.094,220.741 252.121,220.741 250.370 L 220.741 248.889 214.815 248.889 L 208.889 248.889 208.889 267.593 M304.444 263.157 L 304.444 277.426 303.426 277.845 C 299.929 279.284,295.531 278.422,293.866 275.972 L 292.963 274.643 292.963 261.951 L 292.963 249.259 289.418 249.259 L 285.872 249.259 286.020 263.611 C 286.178 278.857,286.283 279.831,288.029 282.144 C 290.779 285.787,296.249 286.438,302.428 283.856 C 304.258 283.092,304.444 283.181,304.444 284.815 L 304.444 286.296 310.370 286.296 L 316.296 286.296 316.296 267.593 L 316.296 248.889 310.370 248.889 L 304.444 248.889 304.444 263.157 M83.496 250.530 C 87.241 251.657,88.895 253.391,89.260 256.574 L 89.483 258.519 88.168 258.523 C 87.444 258.526,83.144 258.634,78.611 258.765 L 70.370 259.001 70.374 257.927 C 70.382 255.606,72.940 251.769,75.370 250.430 C 76.433 249.846,81.424 249.907,83.496 250.530 M186.428 258.734 C 190.462 259.771,190.370 259.528,190.370 269.158 L 190.370 277.445 189.086 277.982 C 182.299 280.818,176.732 276.648,176.559 268.600 C 176.400 261.230,180.439 257.193,186.428 258.734 M364.870 259.908 C 369.147 262.857,369.729 269.080,366.072 272.738 C 360.663 278.146,351.294 273.774,351.927 266.137 C 352.450 259.826,359.695 256.340,364.870 259.908 " stroke="none" fill="#84db2c" fill-rule="evenodd"></path><path id="path2" d="M0.000 200.000 L 0.000 400.000 200.000 400.000 L 400.000 400.000 400.000 200.000 L 400.000 0.000 200.000 0.000 L 0.000 0.000 0.000 200.000 M310.000 147.778 L 310.000 207.778 200.000 207.778 L 90.000 207.778 90.000 147.778 L 90.000 87.778 200.000 87.778 L 310.000 87.778 310.000 147.778 M170.185 125.874 C 166.203 128.334,166.436 133.771,170.603 135.615 C 174.390 137.290,178.210 134.701,178.210 130.459 C 178.210 126.533,173.487 123.835,170.185 125.874 M224.969 125.691 C 221.670 127.186,220.831 131.770,223.378 134.375 C 225.637 136.686,228.756 136.727,231.119 134.479 C 235.552 130.262,230.574 123.150,224.969 125.691 M158.761 137.714 C 157.989 138.568,157.975 139.774,158.730 140.529 C 159.944 141.743,161.944 140.838,161.944 139.074 C 161.944 137.257,159.947 136.404,158.761 137.714 M238.761 137.714 C 236.977 139.686,239.602 142.250,241.481 140.370 C 241.889 139.963,242.222 139.380,242.222 139.074 C 242.222 137.458,239.840 136.522,238.761 137.714 M336.739 226.204 L 336.852 227.963 338.796 228.075 L 340.741 228.187 340.741 230.205 L 340.741 232.222 342.593 232.222 L 344.444 232.222 344.449 245.463 L 344.453 258.704 345.398 257.037 C 349.684 249.480,358.964 246.378,366.481 249.990 C 369.379 251.383,378.591 260.247,380.925 263.889 C 390.727 279.182,376.021 298.734,360.395 291.182 C 357.963 290.007,347.475 279.867,345.595 276.872 L 344.444 275.040 344.444 284.557 L 344.444 294.074 337.963 294.074 L 331.481 294.074 331.481 292.037 L 331.481 290.000 329.444 290.000 L 327.407 290.000 327.407 288.148 L 327.407 286.296 325.741 286.296 L 324.074 286.296 324.074 290.185 L 324.074 294.074 318.148 294.074 L 312.222 294.074 312.222 292.453 L 312.222 290.833 309.907 291.673 C 302.007 294.541,299.981 294.048,293.608 287.710 C 288.238 282.369,288.148 282.319,288.148 284.644 C 288.148 292.048,286.038 299.955,283.092 303.593 C 279.346 308.219,267.876 309.807,255.556 307.406 C 250.617 306.443,250.510 306.380,251.070 304.775 C 251.584 303.298,251.332 303.090,248.614 302.751 C 246.522 302.489,246.468 302.424,247.051 300.888 C 247.522 299.650,247.210 299.403,244.740 299.064 C 242.846 298.803,242.612 298.408,243.279 296.598 C 244.316 293.787,244.280 293.704,242.044 293.704 L 240.000 293.704 240.000 291.667 L 240.000 289.630 237.963 289.630 L 235.926 289.630 235.926 287.778 L 235.926 285.926 234.074 285.926 L 232.222 285.926 232.222 275.185 C 232.222 263.296,232.368 263.909,229.803 264.981 L 228.519 265.518 228.519 279.796 L 228.519 294.074 222.593 294.074 L 216.667 294.074 216.667 292.037 L 216.667 290.000 214.630 290.000 L 212.593 290.000 212.593 288.148 L 212.593 286.296 211.296 286.296 L 210.000 286.296 210.000 290.185 L 210.000 294.074 204.074 294.074 L 198.148 294.074 198.148 292.421 L 198.148 290.767 196.473 291.485 C 190.094 294.220,183.856 293.444,181.615 289.638 C 181.236 288.994,180.386 288.133,179.727 287.725 C 179.068 287.317,178.256 286.537,177.923 285.991 C 177.590 285.446,176.632 284.495,175.794 283.877 C 172.867 281.721,171.962 278.660,171.525 269.444 L 171.296 264.630 168.981 264.519 L 166.667 264.409 166.667 279.242 L 166.667 294.074 160.741 294.074 L 154.815 294.074 154.815 292.037 L 154.815 290.000 152.778 290.000 L 150.741 290.000 150.741 288.148 L 150.741 286.296 148.889 286.296 L 147.037 286.296 147.037 273.543 L 147.037 260.790 146.019 260.673 C 145.086 260.565,144.990 260.407,144.887 258.796 L 144.774 257.037 142.943 257.037 L 141.111 257.037 141.111 251.296 L 141.111 245.556 144.074 245.556 L 147.037 245.556 147.037 239.435 L 147.037 233.315 152.870 233.417 L 158.704 233.519 158.817 235.278 L 158.929 237.037 160.743 237.037 L 162.556 237.037 162.667 239.167 L 162.778 241.296 164.722 241.408 L 166.667 241.520 166.667 245.390 L 166.667 249.259 167.778 249.259 C 168.876 249.259,168.889 249.282,168.889 251.277 L 168.889 253.295 170.831 253.407 C 172.667 253.512,172.784 253.579,172.967 254.630 L 173.161 255.741 173.658 254.546 C 175.054 251.198,179.365 249.020,183.919 249.365 L 186.611 249.568 187.194 248.110 C 187.515 247.308,187.778 246.572,187.778 246.474 C 187.778 246.376,186.597 246.296,185.154 246.296 C 183.711 246.296,182.586 246.151,182.654 245.974 C 182.722 245.797,184.179 242.381,185.892 238.382 L 189.006 231.111 194.336 231.111 L 199.665 231.111 198.536 232.752 C 197.053 234.907,196.971 234.815,200.370 234.815 C 203.814 234.815,203.705 234.666,202.002 237.036 L 200.671 238.889 203.854 238.889 C 207.696 238.889,207.691 238.386,203.900 243.904 C 201.033 248.077,200.834 248.480,201.585 248.587 C 202.283 248.686,202.424 248.969,202.520 250.463 L 202.633 252.222 204.465 252.222 L 206.296 252.222 206.296 254.468 L 206.296 256.714 207.500 256.598 L 208.704 256.481 208.809 252.491 L 208.914 248.500 214.920 248.602 L 220.926 248.704 221.040 250.274 L 221.153 251.844 222.484 251.288 C 226.496 249.612,231.394 249.119,233.848 250.144 C 235.133 250.681,242.222 257.374,242.222 258.050 C 242.222 258.220,242.722 258.654,243.333 259.015 C 244.427 259.661,244.444 259.659,244.444 258.873 C 244.444 258.434,245.082 256.466,245.860 254.500 C 246.639 252.534,247.497 250.224,247.767 249.366 C 249.523 243.783,258.417 241.985,266.574 245.564 L 268.148 246.255 268.148 244.794 L 268.148 243.333 274.054 243.333 L 279.959 243.333 280.072 245.093 L 280.185 246.852 282.130 246.964 L 284.074 247.076 284.074 249.093 C 284.074 250.999,284.126 251.111,285.000 251.111 C 285.782 251.111,285.926 250.938,285.926 250.000 L 285.926 248.889 289.444 248.889 L 292.963 248.889 292.963 250.721 L 292.963 252.554 294.907 252.666 L 296.852 252.778 296.963 254.907 L 297.074 257.037 298.907 257.037 L 300.741 257.037 300.741 267.778 C 300.741 273.685,300.794 278.519,300.860 278.519 C 300.926 278.519,301.759 278.253,302.712 277.928 L 304.444 277.338 304.444 262.928 L 304.444 248.519 310.370 248.519 L 316.296 248.519 316.296 250.351 L 316.296 252.184 318.241 252.295 L 320.185 252.407 320.297 254.557 L 320.409 256.707 321.964 256.594 L 323.519 256.481 323.615 240.463 L 323.712 224.444 330.169 224.444 L 336.626 224.444 336.739 226.204 M51.959 231.906 C 53.976 232.934,63.890 242.998,64.960 245.104 L 65.775 246.708 66.684 245.313 C 70.531 239.407,81.296 238.301,90.741 242.842 C 93.064 243.959,104.288 254.986,104.676 256.534 C 104.910 257.465,105.556 257.742,105.556 256.911 C 105.556 256.638,106.065 255.395,106.688 254.148 C 110.313 246.895,120.814 243.411,128.333 246.967 C 131.579 248.502,141.471 258.172,143.115 261.417 L 144.090 263.340 140.315 265.813 L 136.541 268.286 135.955 267.384 C 130.815 259.456,118.508 262.836,118.373 272.213 L 118.333 275.000 119.930 275.115 C 123.200 275.351,127.335 273.031,128.826 270.126 L 129.482 268.847 132.704 271.314 C 134.476 272.670,135.930 273.971,135.934 274.205 C 135.938 274.439,136.855 275.284,137.971 276.083 C 139.144 276.923,140.000 277.819,140.000 278.206 C 140.000 278.577,140.824 279.489,141.852 280.257 C 143.973 281.841,144.023 282.077,142.788 284.728 C 138.903 293.074,129.063 296.102,120.583 291.562 C 115.822 289.012,104.817 276.872,104.815 274.167 C 104.815 273.823,103.740 273.706,100.648 273.714 C 96.572 273.723,96.503 273.737,97.498 274.354 C 98.106 274.731,98.444 275.210,98.339 275.548 C 98.221 275.928,98.896 276.565,100.417 277.508 C 102.324 278.690,102.599 278.991,102.208 279.461 C 101.954 279.768,101.812 280.062,101.892 280.115 C 101.972 280.168,103.014 280.845,104.209 281.619 L 106.380 283.026 105.298 284.198 C 104.703 284.843,103.517 286.322,102.663 287.485 C 99.166 292.246,92.684 294.115,83.704 292.950 C 78.535 292.280,77.679 291.815,72.994 287.140 C 70.669 284.818,68.491 282.720,68.156 282.478 C 64.705 279.984,63.449 276.856,63.129 269.953 C 62.838 263.675,62.752 263.411,61.245 264.190 C 59.912 264.879,56.358 265.556,54.068 265.556 C 51.616 265.556,51.619 265.744,54.117 268.469 C 57.354 272.002,58.889 274.908,58.889 277.503 C 58.889 281.932,60.347 287.407,61.526 287.407 C 62.087 287.407,62.222 287.685,62.222 288.831 C 62.222 290.571,63.273 291.666,64.946 291.668 C 67.907 291.673,65.601 295.214,62.468 295.473 C 58.623 295.792,57.353 295.060,51.166 288.953 C 44.245 282.120,43.932 281.567,43.860 276.008 C 43.797 271.154,43.896 271.352,41.701 271.681 L 40.000 271.936 40.000 283.005 L 40.000 294.074 36.296 294.074 L 32.593 294.074 32.593 292.037 L 32.593 290.000 30.556 290.000 L 28.519 290.000 28.519 288.148 L 28.519 286.296 26.667 286.296 L 24.815 286.296 24.815 258.868 L 24.815 231.441 37.048 231.512 C 43.776 231.551,49.387 231.477,49.517 231.347 C 49.895 230.969,50.304 231.062,51.959 231.906 M44.907 246.943 L 40.000 247.059 40.000 249.958 L 40.000 252.857 42.159 253.083 C 44.582 253.336,46.706 252.875,48.284 251.754 C 49.905 250.602,51.527 246.529,50.278 246.748 C 50.023 246.792,47.606 246.880,44.907 246.943 M187.809 250.138 C 188.875 251.092,190.370 251.449,190.370 250.750 C 190.370 250.133,190.129 250.000,189.012 250.000 C 188.265 250.000,187.724 250.062,187.809 250.138 M264.488 256.436 C 262.724 257.073,261.269 258.661,260.777 260.482 C 260.247 262.446,259.262 270.123,259.509 270.370 C 260.199 271.065,263.704 270.417,266.111 269.150 L 268.704 267.785 268.593 262.256 L 268.482 256.726 267.334 256.326 C 265.991 255.858,266.096 255.854,264.488 256.436 M83.333 258.148 C 82.951 258.395,83.789 258.509,86.019 258.513 C 87.936 258.516,89.259 258.367,89.259 258.148 C 89.259 257.670,84.074 257.670,83.333 258.148 M188.291 267.121 C 185.201 269.505,183.404 274.309,184.320 277.731 C 184.583 278.717,187.216 278.729,189.352 277.754 L 190.370 277.289 190.370 271.792 C 190.370 265.758,190.290 265.578,188.291 267.121 M364.244 266.992 C 361.650 268.171,359.630 271.205,359.630 273.924 L 359.630 275.280 361.145 275.038 C 365.224 274.385,368.519 270.833,368.519 267.087 C 368.519 266.055,366.410 266.009,364.244 266.992 M247.056 279.460 L 247.037 287.994 250.463 289.275 C 255.387 291.116,259.769 291.134,263.433 289.330 C 266.531 287.804,269.233 284.717,266.696 285.601 C 265.794 285.915,265.191 285.796,263.085 284.887 C 261.694 284.287,260.097 283.689,259.537 283.558 C 258.921 283.413,257.970 282.605,257.130 281.510 C 256.366 280.515,255.386 279.531,254.952 279.323 C 254.518 279.115,253.684 278.269,253.100 277.443 C 252.515 276.617,251.850 275.938,251.621 275.934 C 251.179 275.925,248.755 273.399,247.705 271.852 C 247.104 270.968,247.075 271.313,247.056 279.460 M77.270 274.167 C 76.635 276.539,77.441 277.021,82.068 277.034 C 83.088 277.037,87.821 275.211,89.259 274.260 C 90.038 273.745,87.216 273.407,81.802 273.366 C 77.635 273.334,77.487 273.361,77.270 274.167 " stroke="none" fill="#fbfbfb" fill-rule="evenodd"></path><path id="path3" d="M340.671 258.981 L 340.787 290.000 336.134 290.000 L 331.481 290.000 331.481 292.037 L 331.481 294.074 337.957 294.074 L 344.432 294.074 344.531 284.537 C 344.621 275.795,344.569 274.846,343.902 273.148 C 342.858 270.490,342.858 263.213,343.902 260.556 C 344.584 258.819,344.624 257.878,344.532 245.463 L 344.435 232.222 342.606 232.222 L 340.778 232.222 340.667 230.093 C 340.606 228.921,340.608 241.921,340.671 258.981 M30.115 231.759 C 33.132 231.821,37.966 231.821,40.856 231.758 C 43.746 231.696,41.278 231.645,35.370 231.645 C 29.463 231.645,27.098 231.696,30.115 231.759 M152.757 233.606 L 158.479 233.722 158.591 235.472 L 158.704 237.222 160.556 237.251 L 162.407 237.280 160.668 237.140 L 158.928 237.000 158.816 235.259 L 158.704 233.519 152.870 233.504 L 147.036 233.489 152.757 233.606 M198.120 242.717 C 196.671 244.823,195.151 247.073,194.743 247.717 L 194.001 248.889 198.112 248.889 L 202.222 248.889 202.222 250.741 L 202.222 252.593 204.352 252.524 L 206.481 252.456 204.557 252.320 L 202.632 252.185 202.520 250.444 C 202.425 248.970,202.282 248.686,201.585 248.587 C 200.834 248.480,201.033 248.077,203.900 243.904 C 207.689 238.389,207.690 238.889,203.896 238.889 L 200.756 238.889 198.120 242.717 M61.288 241.353 C 62.920 244.625,63.132 253.216,61.654 256.182 C 60.080 259.341,56.885 261.029,51.852 261.360 C 47.802 261.626,47.818 261.606,49.862 263.799 C 51.658 265.725,51.676 265.734,53.704 265.624 C 56.686 265.463,59.999 264.834,61.237 264.194 C 61.924 263.839,62.404 263.770,62.550 264.005 C 62.676 264.209,62.807 262.664,62.840 260.573 C 62.903 256.693,64.216 249.986,65.330 247.861 C 66.090 246.409,64.689 243.787,61.733 241.132 L 60.726 240.228 61.288 241.353 M162.592 243.426 L 162.593 245.556 163.889 245.556 L 165.185 245.556 165.185 247.385 L 165.185 249.214 166.869 249.466 C 167.795 249.605,168.656 249.615,168.783 249.489 C 168.909 249.363,168.485 249.259,167.840 249.259 L 166.667 249.259 166.667 245.405 L 166.667 241.550 164.629 241.423 L 162.592 241.296 162.592 243.426 M41.944 242.870 L 36.296 242.982 36.296 248.158 L 36.296 253.333 39.722 253.269 C 41.606 253.233,42.440 253.140,41.574 253.062 L 40.000 252.920 40.000 249.979 L 40.000 247.037 44.537 247.032 C 50.567 247.025,50.873 246.934,50.554 245.233 C 50.165 243.157,49.726 242.583,48.598 242.675 C 48.045 242.720,45.051 242.808,41.944 242.870 M93.704 244.931 C 93.704 244.994,94.245 245.536,94.907 246.134 L 96.111 247.222 95.023 246.019 C 94.009 244.896,93.704 244.645,93.704 244.931 M283.815 248.889 C 283.815 250.009,283.884 250.468,283.969 249.907 C 284.054 249.347,284.054 248.431,283.969 247.870 C 283.884 247.310,283.815 247.769,283.815 248.889 M214.701 248.791 L 220.699 248.907 220.849 250.382 L 220.999 251.857 220.962 250.281 L 220.926 248.704 214.815 248.689 L 208.704 248.674 214.701 248.791 M307.315 248.794 C 308.995 248.863,311.745 248.863,313.426 248.794 C 315.106 248.725,313.731 248.669,310.370 248.669 C 307.009 248.669,305.634 248.725,307.315 248.794 M287.698 249.162 C 288.774 249.237,290.441 249.237,291.401 249.161 C 292.362 249.085,291.481 249.023,289.444 249.024 C 287.407 249.025,286.621 249.087,287.698 249.162 M133.333 250.857 C 133.333 250.920,133.875 251.462,134.537 252.060 L 135.741 253.148 134.653 251.944 C 133.639 250.822,133.333 250.570,133.333 250.857 M284.310 264.722 C 284.900 298.590,281.686 304.480,262.644 304.432 C 258.150 304.420,253.428 303.886,251.296 303.149 C 250.807 302.980,250.714 303.008,251.023 303.230 C 251.386 303.493,251.397 303.837,251.070 304.775 C 250.831 305.459,250.789 306.111,250.973 306.279 C 251.753 306.994,260.082 308.245,265.185 308.413 C 280.773 308.928,286.213 304.429,287.742 289.759 C 288.352 283.910,288.346 282.765,287.701 281.780 C 286.318 279.670,286.175 278.197,286.021 264.537 L 285.869 251.111 284.971 251.111 L 284.073 251.111 284.310 264.722 M260.926 252.332 C 257.716 253.390,256.930 254.947,256.059 261.972 C 255.264 268.378,255.455 269.474,257.460 270.014 C 259.376 270.530,259.258 270.727,259.851 266.037 C 260.853 258.125,263.346 254.823,267.211 256.292 C 268.928 256.945,269.066 256.206,267.500 254.741 C 265.448 252.821,262.604 251.779,260.926 252.332 M101.298 253.589 C 101.592 254.441,101.896 257.949,102.059 262.366 L 102.331 269.723 87.832 269.567 L 73.333 269.410 73.289 271.094 C 73.196 274.662,73.677 275.735,75.585 276.219 C 76.937 276.562,77.037 276.533,77.042 275.794 C 77.045 275.357,77.154 274.600,77.285 274.112 L 77.522 273.224 83.748 273.435 L 89.974 273.646 91.097 272.366 L 92.221 271.087 94.266 272.395 C 96.884 274.070,105.115 274.492,104.618 272.926 C 104.160 271.483,104.390 261.751,104.934 259.537 C 105.223 258.366,105.332 257.407,105.177 257.407 C 105.022 257.407,104.793 257.032,104.669 256.574 C 104.450 255.770,103.192 254.250,101.582 252.844 L 100.809 252.169 101.298 253.589 M318.037 252.483 L 319.963 252.630 320.109 254.556 L 320.256 256.481 320.221 254.444 L 320.185 252.407 318.148 252.372 L 316.111 252.337 318.037 252.483 M294.669 252.853 L 296.560 252.998 296.796 256.036 C 296.926 257.707,297.034 263.449,297.035 268.796 L 297.037 278.519 298.889 278.519 L 300.741 278.519 300.741 267.778 L 300.741 257.037 298.907 257.037 L 297.074 257.037 296.963 254.907 L 296.852 252.778 294.815 252.742 L 292.778 252.707 294.669 252.853 M168.889 257.018 L 168.889 260.741 165.741 260.741 L 162.593 260.741 162.593 275.370 L 162.593 290.000 158.704 290.000 L 154.815 290.000 154.815 292.037 L 154.815 294.074 160.741 294.074 L 166.667 294.074 166.667 279.228 L 166.667 264.381 169.038 264.505 L 171.408 264.630 171.645 262.531 C 171.775 261.376,172.171 259.376,172.525 258.086 C 173.534 254.409,173.221 253.544,170.831 253.407 L 168.889 253.295 168.889 257.018 M78.672 254.592 C 77.308 255.433,75.185 257.917,75.185 258.672 C 75.185 259.163,82.717 258.761,83.267 258.241 C 83.568 257.956,84.815 257.778,86.508 257.778 L 89.259 257.778 89.259 256.356 C 89.259 253.791,81.947 252.572,78.672 254.592 M374.630 257.037 C 375.425 257.852,376.160 258.519,376.261 258.519 C 376.363 258.519,375.796 257.852,375.000 257.037 C 374.204 256.222,373.470 255.556,373.368 255.556 C 373.266 255.556,373.834 256.222,374.630 257.037 M207.500 256.598 L 206.296 256.714 206.296 273.357 L 206.296 290.000 200.185 290.000 L 194.074 290.000 194.074 288.519 C 194.074 286.821,194.157 286.865,192.322 287.585 C 188.672 289.018,183.961 289.620,182.061 288.898 C 180.911 288.461,180.882 288.639,181.876 290.034 C 184.367 293.533,190.317 294.124,196.473 291.485 L 198.148 290.767 198.148 292.421 L 198.148 294.074 204.074 294.074 L 210.000 294.074 210.000 290.185 C 210.000 286.988,209.902 286.296,209.449 286.296 C 208.971 286.296,208.884 284.300,208.800 271.389 L 208.704 256.481 207.500 256.598 M321.944 256.595 L 320.370 256.709 320.370 273.355 L 320.370 290.000 314.259 290.000 L 308.148 290.000 308.148 288.479 C 308.148 287.336,308.021 287.007,307.636 287.154 C 302.498 289.126,297.593 289.707,295.477 288.594 L 294.101 287.871 295.441 289.507 C 298.872 293.694,302.743 294.273,309.907 291.673 L 312.222 290.833 312.222 292.453 L 312.222 294.074 318.096 294.074 L 323.969 294.074 323.813 275.648 C 323.631 253.975,323.874 256.456,321.944 256.595 M142.851 256.939 L 144.776 257.074 144.888 258.815 C 144.992 260.429,145.074 260.559,146.023 260.601 C 146.960 260.642,146.968 260.632,146.116 260.483 C 145.270 260.336,145.185 260.155,145.185 258.494 L 145.185 256.667 143.056 256.735 L 140.926 256.804 142.851 256.939 M139.617 257.753 C 140.326 259.078,140.013 259.467,136.327 261.851 L 132.654 264.225 133.809 265.078 C 134.445 265.547,135.281 266.429,135.667 267.039 C 136.552 268.438,136.136 268.551,140.421 265.743 L 144.092 263.339 143.298 261.762 C 142.368 259.918,140.109 257.037,139.592 257.037 C 139.369 257.037,139.379 257.309,139.617 257.753 M242.684 259.907 C 242.902 260.698,243.138 267.396,243.231 275.463 L 243.394 289.630 241.697 289.630 L 240.000 289.630 240.000 291.685 L 240.000 293.741 242.119 293.630 L 244.239 293.519 245.025 290.741 C 245.550 288.887,246.013 287.924,246.417 287.845 C 247.342 287.664,247.518 271.511,246.614 269.723 C 246.280 269.061,245.641 266.561,245.194 264.167 C 244.557 260.753,244.209 259.677,243.580 259.175 C 242.407 258.239,242.257 258.361,242.684 259.907 M121.111 259.300 C 116.747 260.555,114.630 263.764,114.630 269.127 C 114.630 273.350,114.987 274.124,117.236 274.763 L 118.333 275.075 118.362 272.260 C 118.428 265.885,124.592 261.365,130.541 263.329 C 132.320 263.916,132.416 263.737,131.147 262.198 C 129.029 259.628,124.509 258.323,121.111 259.300 M377.582 260.518 C 386.805 274.669,371.870 294.316,357.132 287.420 C 354.060 285.982,353.943 286.135,356.399 288.377 C 372.923 303.468,394.362 277.541,378.783 261.307 C 376.988 259.436,376.793 259.308,377.582 260.518 M228.889 260.246 C 228.380 260.324,227.255 260.572,226.389 260.798 L 224.815 261.207 224.815 275.604 L 224.815 290.000 220.741 290.000 L 216.667 290.000 216.667 292.037 L 216.667 294.074 222.588 294.074 L 228.510 294.074 228.607 279.722 L 228.704 265.370 230.461 264.815 L 232.218 264.259 232.220 262.315 C 232.222 260.644,232.122 260.370,231.512 260.370 C 231.121 260.370,230.579 260.310,230.308 260.237 C 230.037 260.164,229.398 260.168,228.889 260.246 M185.230 262.465 C 180.668 264.787,178.287 276.722,182.097 278.171 C 184.163 278.956,184.377 278.743,184.166 276.111 C 183.870 272.423,186.813 267.109,189.529 266.427 C 190.415 266.205,190.827 262.918,190.031 262.426 C 189.083 261.841,186.413 261.862,185.230 262.465 M360.535 262.921 C 357.433 264.330,355.118 268.496,355.735 271.558 C 356.199 273.861,356.370 274.143,357.616 274.663 C 359.418 275.416,359.630 275.333,359.630 273.877 C 359.630 270.067,363.334 266.327,367.130 266.304 C 368.696 266.295,368.835 265.919,368.005 263.932 C 367.236 262.092,363.478 261.584,360.535 262.921 M268.640 265.000 C 268.642 266.426,268.709 266.964,268.789 266.195 C 268.869 265.427,268.868 264.260,268.786 263.603 C 268.704 262.945,268.638 263.574,268.640 265.000 M53.442 268.333 C 54.754 270.545,55.185 272.086,55.191 274.592 C 55.200 278.631,56.599 283.503,57.841 283.828 C 58.393 283.972,58.523 284.216,58.346 284.775 C 57.922 286.111,60.518 288.494,61.418 287.594 C 61.521 287.491,61.431 287.407,61.218 287.407 C 60.334 287.407,58.889 281.260,58.889 277.503 C 58.889 274.986,57.355 272.005,54.457 268.889 C 52.654 266.950,52.605 266.923,53.442 268.333 M37.500 267.675 L 36.296 267.825 36.296 278.912 L 36.296 290.000 34.444 290.000 L 32.593 290.000 32.593 292.037 L 32.593 294.074 36.296 294.074 L 40.000 294.074 40.000 282.998 L 40.000 271.921 41.852 271.667 C 42.870 271.527,43.704 271.348,43.704 271.269 C 43.704 269.254,41.363 267.252,39.259 267.469 C 38.954 267.500,38.162 267.593,37.500 267.675 M139.548 278.133 C 139.888 280.447,136.229 285.546,132.778 287.569 C 128.094 290.315,120.967 290.238,116.347 287.394 C 114.419 286.206,114.592 286.759,116.771 288.747 C 125.495 296.708,138.119 294.758,142.788 284.728 C 144.023 282.077,143.973 281.841,141.852 280.257 C 140.752 279.436,140.000 278.586,140.000 278.163 C 140.000 277.771,139.863 277.367,139.697 277.264 C 139.530 277.161,139.463 277.552,139.548 278.133 M101.725 278.519 C 102.074 278.969,101.673 279.715,99.598 282.480 C 96.870 286.114,95.404 287.113,90.428 288.726 C 86.909 289.866,75.708 288.909,73.757 287.301 C 73.289 286.915,73.272 286.964,73.636 287.647 C 77.746 295.363,96.956 295.255,102.663 287.485 C 103.517 286.322,104.703 284.843,105.298 284.198 L 106.380 283.026 104.209 281.619 C 103.014 280.845,101.972 280.168,101.892 280.115 C 101.812 280.062,101.939 279.786,102.174 279.503 C 102.506 279.102,102.456 278.873,101.949 278.475 C 101.380 278.029,101.351 278.034,101.725 278.519 M255.926 279.869 C 255.926 280.544,258.699 283.362,259.561 283.564 C 260.108 283.692,261.690 284.286,263.075 284.883 C 266.855 286.514,267.885 286.081,268.694 282.525 C 269.440 279.243,269.626 279.340,265.299 280.758 L 261.652 281.953 259.005 280.792 C 256.222 279.570,255.926 279.482,255.926 279.869 M111.836 283.796 C 113.371 285.432,113.704 285.726,113.704 285.447 C 113.704 285.388,112.912 284.596,111.944 283.688 L 110.185 282.037 111.836 283.796 M351.111 283.079 C 351.111 283.143,351.653 283.684,352.315 284.283 L 353.519 285.370 352.431 284.167 C 351.417 283.045,351.111 282.793,351.111 283.079 M71.111 285.370 C 71.802 286.083,72.451 286.667,72.553 286.667 C 72.655 286.667,72.173 286.083,71.481 285.370 C 70.790 284.657,70.142 284.074,70.040 284.074 C 69.938 284.074,70.420 284.657,71.111 285.370 M236.037 287.778 C 236.037 288.898,236.106 289.356,236.191 288.796 C 236.276 288.236,236.276 287.319,236.191 286.759 C 236.106 286.199,236.037 286.657,236.037 287.778 M28.630 288.148 C 28.630 289.269,28.699 289.727,28.784 289.167 C 28.869 288.606,28.869 287.690,28.784 287.130 C 28.699 286.569,28.630 287.028,28.630 288.148 M150.852 288.148 C 150.852 289.269,150.921 289.727,151.006 289.167 C 151.091 288.606,151.091 287.690,151.006 287.130 C 150.921 286.569,150.852 287.028,150.852 288.148 M212.704 288.148 C 212.704 289.269,212.773 289.727,212.858 289.167 C 212.943 288.606,212.943 287.690,212.858 287.130 C 212.773 286.569,212.704 287.028,212.704 288.148 M327.518 288.148 C 327.518 289.269,327.588 289.727,327.673 289.167 C 327.758 288.606,327.758 287.690,327.673 287.130 C 327.588 286.569,327.518 287.028,327.518 288.148 M61.829 289.620 C 61.424 291.908,55.436 292.186,52.782 290.040 C 52.377 289.713,52.814 290.361,53.754 291.481 C 57.759 296.253,65.518 297.077,65.989 292.780 C 66.102 291.757,66.020 291.670,64.946 291.668 C 63.621 291.666,62.328 290.671,62.128 289.498 C 62.002 288.764,61.979 288.773,61.829 289.620 " stroke="none" fill="#abacab" fill-rule="evenodd"></path><path id="path4" d="M144.907 207.685 C 175.208 207.737,224.792 207.737,255.093 207.685 C 285.394 207.633,260.602 207.590,200.000 207.590 C 139.398 207.590,114.606 207.633,144.907 207.685 M336.667 257.222 L 336.667 286.296 332.222 286.296 L 327.778 286.296 327.778 288.148 L 327.778 290.000 334.259 290.000 L 340.741 290.000 340.739 262.130 C 340.737 246.801,340.629 232.884,340.498 231.204 L 340.261 228.148 338.464 228.148 L 336.667 228.148 336.667 257.222 M193.142 240.556 C 190.981 243.713,188.981 246.296,188.698 246.296 C 188.300 246.296,186.667 249.163,186.667 249.862 C 186.667 249.938,187.500 250.000,188.519 250.000 C 189.918 250.000,190.370 249.864,190.370 249.444 C 190.370 249.028,190.815 248.889,192.150 248.889 L 193.930 248.889 197.243 244.020 C 199.065 241.342,200.620 238.967,200.699 238.742 C 200.778 238.517,201.418 237.542,202.120 236.574 L 203.396 234.815 200.234 234.815 L 197.072 234.815 193.142 240.556 M57.494 238.031 C 58.702 240.700,58.938 249.871,57.861 252.306 C 56.511 255.358,52.927 257.308,48.071 257.634 C 43.661 257.930,43.714 257.834,46.383 260.717 C 49.558 264.146,51.107 267.075,51.124 269.681 C 51.156 274.596,53.003 280.845,55.022 282.870 C 56.585 284.438,57.666 284.544,56.906 283.056 C 56.100 281.476,55.185 276.939,55.185 274.519 C 55.185 270.935,53.798 268.104,50.026 263.983 C 47.832 261.588,47.806 261.625,51.852 261.360 C 60.092 260.818,62.820 257.643,62.498 248.974 C 62.252 242.372,61.401 240.214,57.871 237.244 L 56.687 236.247 57.494 238.031 M158.889 241.481 L 158.889 245.556 160.741 245.556 L 162.593 245.556 162.593 241.481 L 162.593 237.407 160.741 237.407 L 158.889 237.407 158.889 241.481 M37.677 239.166 L 32.206 239.279 32.307 246.214 L 32.407 253.148 34.352 253.260 L 36.296 253.372 36.296 248.168 L 36.296 242.963 41.574 242.942 C 44.477 242.930,47.519 242.801,48.333 242.656 L 49.815 242.392 47.989 240.641 C 46.363 239.080,45.999 238.898,44.656 238.971 C 43.827 239.016,40.686 239.104,37.677 239.166 M280.185 264.537 C 280.185 285.244,279.666 289.256,276.301 294.563 C 272.951 299.845,262.406 302.177,250.923 300.174 C 247.256 299.535,247.493 299.481,247.183 301.028 C 246.982 302.034,247.067 302.212,247.828 302.381 C 248.309 302.488,250.120 302.927,251.852 303.357 C 254.134 303.923,256.681 304.191,261.111 304.333 C 277.763 304.867,282.679 300.394,284.118 283.394 C 284.546 278.345,284.354 255.590,283.834 249.722 L 283.596 247.037 281.891 247.037 L 280.185 247.037 280.185 264.537 M97.285 249.691 C 97.630 250.692,97.888 253.753,98.039 258.628 L 98.269 266.043 83.989 265.830 L 69.710 265.618 69.485 266.744 C 68.911 269.614,69.991 272.695,72.232 274.581 C 73.762 275.869,74.074 275.810,73.566 274.332 C 73.335 273.659,73.201 272.276,73.270 271.259 L 73.395 269.411 87.864 269.567 L 102.334 269.723 102.073 262.547 C 101.735 253.240,101.230 251.684,97.629 248.851 L 96.760 248.168 97.285 249.691 M256.481 248.857 C 253.517 250.208,253.024 251.381,251.885 259.815 C 251.255 264.475,252.201 267.914,254.430 269.066 C 255.928 269.841,255.940 269.832,255.693 268.034 C 255.354 265.560,256.548 257.148,257.514 255.205 C 259.373 251.466,263.787 251.261,267.500 254.740 C 268.060 255.265,268.519 255.515,268.519 255.297 C 268.519 255.079,268.093 254.621,267.573 254.280 C 267.052 253.939,265.724 252.843,264.620 251.843 C 261.155 248.706,258.751 247.823,256.481 248.857 M165.106 253.012 L 165.000 256.852 161.944 256.959 L 158.889 257.067 158.889 271.682 L 158.889 286.296 155.000 286.296 L 151.111 286.296 151.111 288.148 L 151.111 290.000 156.852 290.000 L 162.593 290.000 162.593 275.370 L 162.593 260.741 165.741 260.741 L 168.889 260.741 168.889 255.185 C 168.889 250.000,168.843 249.630,168.194 249.630 C 167.813 249.630,166.985 249.527,166.356 249.401 L 165.212 249.172 165.106 253.012 M75.370 250.408 C 72.908 251.838,70.382 255.611,70.374 257.870 C 70.370 258.875,70.403 258.889,72.685 258.875 L 75.000 258.862 76.049 257.206 C 78.118 253.941,84.448 252.464,88.068 254.402 C 89.326 255.075,89.109 254.208,87.685 252.869 C 85.164 250.499,77.761 249.020,75.370 250.408 M135.111 253.059 C 136.696 254.968,136.488 255.409,132.860 257.830 C 130.982 259.083,129.382 260.161,129.305 260.225 C 129.229 260.288,129.650 260.747,130.242 261.245 C 130.834 261.743,131.550 262.583,131.833 263.112 C 132.116 263.641,132.481 264.074,132.645 264.074 C 132.890 264.074,139.506 259.868,139.952 259.429 C 140.584 258.805,136.781 253.370,135.320 252.810 C 134.850 252.629,134.802 252.687,135.111 253.059 M202.593 269.444 L 202.593 286.296 196.481 286.296 L 190.370 286.296 190.370 284.772 C 190.370 283.357,190.310 283.267,189.537 283.518 C 183.948 285.338,180.206 285.897,178.347 285.190 C 176.986 284.673,177.638 285.830,179.570 287.360 C 182.592 289.754,186.615 289.825,192.322 287.585 C 194.157 286.865,194.074 286.821,194.074 288.519 L 194.074 290.000 200.185 290.000 L 206.296 290.000 206.296 271.296 L 206.296 252.593 204.444 252.593 L 202.593 252.593 202.593 269.444 M316.296 269.444 L 316.296 286.296 310.370 286.296 L 304.444 286.296 304.444 284.815 C 304.444 283.181,304.258 283.092,302.428 283.856 C 299.903 284.911,295.549 285.657,293.392 285.403 L 291.310 285.159 292.584 286.472 C 295.836 289.828,300.159 290.024,307.636 287.154 C 308.021 287.007,308.148 287.336,308.148 288.479 L 308.148 290.000 314.259 290.000 L 320.370 290.000 320.370 274.130 C 320.370 265.401,320.263 256.985,320.131 255.426 L 319.891 252.593 318.094 252.593 L 316.296 252.593 316.296 269.444 M292.963 263.753 C 292.963 273.927,293.006 274.611,293.710 275.751 C 294.453 276.953,295.921 278.148,296.654 278.148 C 297.086 278.148,297.194 261.147,296.795 256.019 L 296.557 252.963 294.760 252.963 L 292.963 252.963 292.963 263.753 M238.759 256.759 C 239.106 258.417,239.246 262.885,239.252 272.500 L 239.259 285.926 237.778 285.926 L 236.296 285.926 236.296 287.778 L 236.296 289.630 239.815 289.630 L 243.333 289.630 243.333 277.249 C 243.333 262.960,243.037 259.858,241.434 257.345 C 240.522 255.913,238.989 254.444,238.409 254.444 C 238.335 254.444,238.492 255.486,238.759 256.759 M117.405 255.531 C 110.533 257.622,107.965 266.322,112.649 271.643 C 114.592 273.850,115.766 274.562,114.981 273.057 C 114.191 271.543,114.284 266.498,115.136 264.630 C 117.170 260.168,122.165 257.997,127.222 259.377 C 128.267 259.663,128.220 259.573,126.445 257.879 C 123.893 255.443,120.549 254.575,117.405 255.531 M373.889 257.037 C 382.446 272.344,367.666 290.893,352.815 283.485 L 350.926 282.543 352.730 284.386 C 358.843 290.627,368.844 290.250,375.104 283.541 C 381.988 276.164,382.043 264.867,375.231 257.747 L 372.957 255.370 373.889 257.037 M223.589 256.692 C 220.480 257.447,220.741 256.040,220.741 272.050 L 220.741 286.296 216.852 286.296 L 212.963 286.296 212.963 288.148 L 212.963 290.000 218.889 290.000 L 224.815 290.000 224.815 275.614 L 224.815 261.228 226.370 260.762 C 227.226 260.506,228.892 260.296,230.073 260.296 L 232.220 260.296 231.466 259.237 C 229.814 256.917,226.744 255.925,223.589 256.692 M145.185 258.704 C 145.185 260.235,145.261 260.370,146.111 260.370 C 146.962 260.370,147.037 260.235,147.037 258.704 C 147.037 257.173,146.962 257.037,146.111 257.037 C 145.261 257.037,145.185 257.173,145.185 258.704 M181.660 258.664 C 175.837 261.201,174.552 273.445,179.716 277.181 C 181.020 278.124,181.222 277.874,180.763 275.882 C 178.974 268.124,183.484 260.632,189.023 262.161 C 190.283 262.509,190.370 262.479,190.370 261.701 C 190.370 259.426,184.561 257.400,181.660 258.664 M356.302 259.521 C 350.664 262.483,350.309 269.968,355.628 273.755 C 356.650 274.483,356.719 274.492,356.382 273.852 C 353.512 268.395,358.503 261.733,365.006 262.340 L 367.406 262.565 366.833 261.690 C 364.830 258.633,359.918 257.622,356.302 259.521 M33.519 264.010 L 32.407 264.266 32.309 275.281 L 32.211 286.296 30.550 286.296 L 28.889 286.296 28.889 288.148 L 28.889 290.000 32.593 290.000 L 36.296 290.000 36.296 278.937 L 36.296 267.873 38.056 267.640 C 39.024 267.511,40.357 267.562,41.019 267.751 C 42.401 268.148,42.441 268.086,41.614 266.824 C 40.253 264.747,36.294 263.371,33.519 264.010 M266.667 275.208 C 265.750 275.586,263.392 276.413,261.426 277.046 L 257.853 278.197 255.168 277.055 C 253.691 276.426,252.425 275.970,252.355 276.040 C 252.076 276.319,254.886 279.231,255.658 279.464 C 256.111 279.601,257.642 280.215,259.060 280.830 L 261.638 281.947 265.483 280.704 L 269.329 279.461 269.113 278.157 C 268.994 277.439,268.895 276.310,268.893 275.648 C 268.888 274.279,268.911 274.283,266.667 275.208 M135.013 276.928 C 131.246 285.156,121.666 288.251,113.148 283.993 L 111.667 283.252 113.148 284.805 C 120.524 292.535,133.987 290.656,138.680 281.243 C 140.066 278.461,139.952 277.806,137.800 276.200 L 135.971 274.834 135.013 276.928 M95.762 278.659 C 90.911 285.218,80.976 287.509,71.444 284.267 L 69.815 283.713 71.877 285.666 C 74.091 287.764,75.284 288.269,79.452 288.871 C 88.947 290.243,95.199 288.348,99.306 282.851 C 100.554 281.181,101.731 279.619,101.921 279.380 C 102.162 279.077,101.592 278.488,100.030 277.428 L 97.795 275.910 95.762 278.659 M57.283 286.893 C 56.158 287.862,53.513 288.096,51.201 287.433 C 49.545 286.958,49.696 287.460,51.732 289.201 C 54.374 291.459,59.734 292.305,61.288 290.709 C 62.125 289.849,62.476 287.231,61.716 287.522 C 60.991 287.801,59.231 287.209,58.693 286.506 C 58.384 286.103,58.117 286.176,57.283 286.893 " stroke="none" fill="#7c7c7a" fill-rule="evenodd"></path></g></svg>