<svg id="svg" version="1.1" xmlns="http://www.w3.org/2000/svg" xmlns:xlink="http://www.w3.org/1999/xlink" width="400" height="400" viewBox="0, 0, 400,400"><g id="svgg"><path id="path0" d="M147.685 110.278 L 95.556 162.408 147.778 214.630 L 200.000 266.851 252.222 214.630 L 304.444 162.408 252.315 110.278 C 223.644 81.607,200.102 58.148,200.000 58.148 C 199.898 58.148,176.356 81.607,147.685 110.278 M173.414 134.531 C 187.723 141.104,183.152 162.037,167.407 162.037 C 150.824 162.037,147.351 138.965,163.176 133.924 C 166.001 133.023,170.745 133.305,173.414 134.531 M238.599 134.531 C 252.842 141.073,248.264 162.037,232.593 162.037 C 216.009 162.037,212.537 138.965,228.361 133.924 C 231.187 133.023,235.930 133.305,238.599 134.531 M143.781 218.689 C 174.685 249.643,200.018 274.893,200.077 274.799 C 200.137 274.706,174.852 249.380,143.889 218.519 L 87.593 162.409 143.781 218.689 M255.925 218.796 L 228.333 246.481 256.019 218.890 C 281.755 193.240,283.870 191.111,283.610 191.111 C 283.559 191.111,271.100 203.569,255.925 218.796 M234.074 282.480 L 234.074 298.664 232.853 297.480 C 231.204 295.882,231.183 295.911,231.722 298.981 C 232.041 300.802,232.198 305.872,232.208 314.722 L 232.222 327.778 230.556 327.778 L 228.889 327.778 228.889 329.815 L 228.889 331.852 232.407 331.852 L 235.926 331.852 235.926 327.963 L 235.926 324.074 241.111 324.074 L 246.296 324.074 246.296 322.398 L 246.296 320.722 247.393 321.289 C 251.140 323.226,256.833 323.731,259.567 322.369 C 262.972 320.673,263.815 318.925,264.643 311.854 C 266.387 296.964,263.249 288.410,255.595 287.186 L 254.091 286.945 253.990 280.602 L 253.889 274.259 252.037 274.150 L 250.185 274.041 250.185 280.771 L 250.185 287.500 248.241 288.359 L 246.296 289.217 246.296 277.757 L 246.296 266.296 240.185 266.296 L 234.074 266.296 234.074 282.480 M121.296 269.304 C 120.481 269.460,114.773 269.597,108.611 269.608 L 97.407 269.630 97.407 296.852 L 97.407 324.074 101.111 324.074 L 104.815 324.074 104.815 313.170 C 104.815 306.478,104.954 302.180,105.176 302.042 C 107.678 300.496,114.809 303.138,114.815 305.613 C 114.815 305.683,113.524 305.741,111.945 305.741 L 109.074 305.741 108.976 316.759 L 108.878 327.778 107.032 327.778 L 105.185 327.778 105.185 329.815 L 105.185 331.852 108.889 331.852 L 112.593 331.852 112.593 320.783 L 112.593 309.714 114.293 309.459 C 116.506 309.127,116.455 309.030,116.500 313.632 C 116.547 318.472,117.291 320.454,120.024 323.020 C 122.866 325.688,128.145 326.464,130.107 324.502 C 130.875 323.734,130.909 323.732,131.650 324.408 C 132.066 324.789,132.824 325.213,133.333 325.352 C 133.843 325.491,134.076 325.468,133.852 325.302 C 132.755 324.490,131.957 321.374,131.525 316.222 C 131.188 312.195,130.229 310.135,127.111 306.738 L 125.516 305.000 126.520 306.798 C 127.323 308.238,127.586 309.338,127.838 312.313 C 128.011 314.357,128.415 316.965,128.735 318.107 C 129.922 322.335,129.867 322.543,127.958 321.041 C 125.884 319.410,124.259 314.549,123.748 308.445 C 123.402 304.322,122.474 302.389,118.981 298.519 C 116.456 295.721,116.464 295.702,120.362 295.450 C 128.851 294.900,131.326 291.952,131.037 282.736 C 130.762 273.984,126.631 268.287,121.296 269.304 M120.504 278.267 C 123.281 280.852,123.094 280.906,111.204 280.923 L 108.889 280.926 108.889 286.019 L 108.889 291.111 106.852 291.111 L 104.815 291.111 104.815 284.084 L 104.815 277.057 110.278 276.944 C 113.282 276.881,116.426 276.794,117.263 276.749 C 118.599 276.677,118.997 276.863,120.504 278.267 M134.310 279.815 C 135.279 282.051,135.503 291.283,134.642 293.537 C 133.375 296.856,128.898 299.253,123.942 299.265 C 120.650 299.273,120.509 299.523,122.576 301.690 L 124.357 303.557 127.534 303.278 C 131.282 302.949,133.077 302.502,134.731 301.486 C 135.398 301.076,135.983 300.741,136.030 300.741 C 136.078 300.741,136.057 302.051,135.984 303.652 C 135.243 319.977,152.857 329.012,163.892 317.968 C 169.733 312.123,171.052 302.666,167.056 295.288 C 166.474 294.213,166.190 293.452,166.425 293.596 C 166.660 293.740,165.704 292.781,164.300 291.466 C 156.819 284.455,147.495 284.450,141.010 291.454 L 138.980 293.648 138.811 289.509 C 138.609 284.546,137.832 282.415,135.331 279.963 L 133.667 278.333 134.310 279.815 M123.219 285.744 C 122.687 289.027,120.114 290.819,115.685 290.990 L 112.593 291.110 112.593 287.973 L 112.593 284.837 117.315 284.721 C 119.912 284.658,122.351 284.569,122.734 284.525 C 123.332 284.456,123.401 284.627,123.219 285.744 M282.403 286.963 C 277.214 288.757,271.111 295.269,271.111 299.013 C 271.111 300.004,270.503 300.013,269.976 299.029 C 269.698 298.509,268.849 297.592,268.090 296.991 L 266.709 295.897 267.233 296.946 C 269.301 301.093,269.695 311.360,268.102 319.630 C 266.807 326.358,261.299 328.636,253.056 325.852 L 250.370 324.945 250.370 326.362 L 250.370 327.778 246.111 327.778 L 241.852 327.778 241.852 329.815 L 241.852 331.852 247.963 331.852 L 254.074 331.852 254.074 330.206 L 254.074 328.560 255.648 329.249 C 265.900 333.734,271.449 330.366,272.410 319.074 C 272.800 314.489,272.779 314.515,274.392 316.556 C 287.459 333.083,311.680 314.082,301.501 295.288 C 300.918 294.213,300.634 293.452,300.869 293.596 C 301.104 293.740,300.148 292.782,298.744 291.467 C 293.569 286.620,287.907 285.059,282.403 286.963 M174.444 294.285 L 174.444 301.904 172.576 299.933 L 170.708 297.963 171.467 299.526 C 179.036 315.116,163.124 332.987,148.972 324.791 C 147.022 323.661,148.070 325.197,150.474 326.992 C 157.724 332.405,165.598 331.837,171.944 325.445 C 173.365 324.014,174.444 323.174,174.444 323.500 C 174.444 323.994,175.267 324.074,180.370 324.074 L 186.296 324.074 186.296 309.678 L 186.296 295.283 188.527 294.657 C 192.158 293.638,194.629 294.309,196.802 296.904 L 197.776 298.067 195.091 298.233 C 193.615 298.324,191.949 298.588,191.389 298.820 L 190.370 299.241 190.370 313.509 L 190.370 327.778 186.111 327.778 L 181.852 327.778 181.852 329.815 L 181.852 331.852 187.963 331.852 L 194.074 331.852 194.074 317.444 L 194.074 303.035 195.240 302.629 C 197.950 301.684,197.778 300.968,197.778 313.148 L 197.778 324.074 203.704 324.074 L 209.630 324.074 209.630 309.796 L 209.630 295.518 211.019 294.935 C 214.291 293.564,218.263 294.354,220.144 296.752 L 221.095 297.963 218.015 298.154 C 213.340 298.445,213.704 297.135,213.704 313.677 L 213.704 327.778 209.630 327.778 L 205.556 327.778 205.556 329.815 L 205.556 331.852 211.481 331.852 L 217.407 331.852 217.407 317.482 L 217.407 303.112 218.637 302.667 C 221.276 301.713,221.111 301.013,221.111 313.148 L 221.111 324.074 222.944 324.074 L 224.776 324.074 224.912 326.019 L 225.048 327.963 225.117 326.019 L 225.185 324.074 226.667 324.074 L 228.148 324.074 228.141 311.204 C 228.131 293.198,227.702 291.015,223.702 288.611 C 220.268 286.547,216.408 287.008,208.432 290.434 L 204.085 292.301 202.321 290.834 C 198.623 287.761,194.126 287.030,189.202 288.701 C 187.706 289.209,186.440 289.626,186.389 289.627 C 186.338 289.628,186.296 288.963,186.296 288.148 L 186.296 286.667 180.370 286.667 L 174.444 286.667 174.444 294.285 M157.631 297.431 C 160.001 298.896,161.163 300.979,159.235 300.306 C 153.457 298.292,147.056 305.131,149.270 310.953 C 149.839 312.451,149.492 312.430,147.753 310.862 C 140.211 304.062,149.007 292.101,157.631 297.431 M255.836 296.914 C 256.352 297.299,257.208 298.180,257.739 298.872 L 258.704 300.130 257.778 299.888 C 256.499 299.554,252.217 300.662,251.204 301.589 C 250.396 302.328,250.370 302.566,250.370 309.324 C 250.370 317.095,250.528 316.706,247.728 315.867 L 246.296 315.438 246.296 307.043 C 246.296 298.663,246.298 298.646,247.184 297.814 C 249.104 296.010,253.951 295.506,255.836 296.914 M292.075 297.431 C 294.446 298.896,295.608 300.979,293.679 300.306 C 287.902 298.292,281.501 305.131,283.714 310.953 C 284.284 312.451,283.936 312.430,282.197 310.862 C 274.655 304.062,283.451 292.101,292.075 297.431 M305.887 299.526 C 313.610 314.937,297.561 332.982,283.417 324.791 C 281.466 323.661,282.514 325.197,284.918 326.992 C 292.022 332.295,300.028 331.821,306.109 325.737 C 313.108 318.734,313.348 305.890,306.602 299.404 L 305.104 297.963 305.887 299.526 M259.938 307.130 C 259.716 312.183,258.133 314.988,255.070 315.756 L 254.074 316.006 254.074 311.216 C 254.074 305.451,255.006 304.227,259.766 303.737 C 259.943 303.719,260.021 305.245,259.938 307.130 M161.473 305.278 C 161.449 308.935,157.255 312.963,153.472 312.963 C 150.868 312.963,153.764 306.520,157.112 304.862 C 159.672 303.595,161.484 303.768,161.473 305.278 M295.918 305.278 C 295.893 308.935,291.700 312.963,287.916 312.963 C 285.313 312.963,288.208 306.520,291.557 304.862 C 294.117 303.595,295.928 303.768,295.918 305.278 M134.468 327.491 C 134.399 329.356,129.611 330.060,126.723 328.631 L 125.204 327.880 126.362 329.343 C 130.108 334.072,138.110 334.866,138.582 330.556 C 138.689 329.574,138.600 329.456,137.814 329.543 C 136.716 329.664,135.255 328.748,134.818 327.664 C 134.567 327.040,134.486 327.000,134.468 327.491 " stroke="none" fill="#9defca" fill-rule="evenodd"></path><path id="path1" d="M143.711 106.131 L 87.607 162.237 143.804 218.433 L 200.000 274.629 256.203 218.426 L 312.407 162.223 256.296 106.111 C 225.436 75.250,200.103 50.006,200.000 50.013 C 199.898 50.020,174.568 75.273,143.711 106.131 M252.315 214.537 L 200.000 266.852 147.685 214.533 L 95.370 162.215 147.693 109.912 L 200.015 57.608 252.322 109.915 L 304.629 162.222 252.315 214.537 M163.713 133.927 C 152.899 136.833,149.437 149.876,157.374 157.812 C 167.873 168.311,185.186 158.206,181.299 143.846 C 179.277 136.380,171.310 131.886,163.713 133.927 M228.898 133.927 C 218.084 136.833,214.623 149.876,222.559 157.812 C 233.271 168.524,251.073 157.574,246.265 143.229 C 243.839 135.991,236.282 131.943,228.898 133.927 M174.883 139.956 C 176.222 140.467,177.738 142.188,178.196 143.719 C 179.988 149.699,172.041 153.598,168.234 148.607 C 164.932 144.278,169.756 138.002,174.883 139.956 M229.772 140.143 C 232.352 141.221,233.753 145.175,232.449 147.697 C 230.982 150.533,227.751 151.702,225.026 150.383 C 218.275 147.115,222.847 137.250,229.772 140.143 M161.481 152.222 C 162.918 153.659,161.989 155.926,159.964 155.926 C 157.917 155.926,157.128 153.528,158.754 152.249 C 159.974 151.290,160.543 151.284,161.481 152.222 M241.481 152.222 C 242.856 153.597,242.005 155.926,240.128 155.926 C 238.073 155.926,237.227 153.850,238.687 152.391 C 239.790 151.288,240.504 151.245,241.481 152.222 " stroke="none" fill="#1d1f1e" fill-rule="evenodd"></path><path id="path2" d="M0.000 200.000 L 0.000 400.000 200.000 400.000 L 400.000 400.000 400.000 200.000 L 400.000 0.000 200.000 0.000 L 0.000 0.000 0.000 200.000 M256.203 106.018 C 287.014 136.828,312.222 162.203,312.222 162.407 C 312.222 162.612,286.972 188.028,256.111 218.889 L 200.000 274.999 143.889 218.889 C 113.028 188.028,87.778 162.612,87.778 162.408 C 87.778 162.045,199.636 50.000,199.999 50.000 C 200.101 50.000,225.393 75.208,256.203 106.018 M170.471 140.357 C 165.203 142.748,167.065 150.741,172.890 150.741 C 178.507 150.741,180.236 143.020,175.191 140.463 C 173.197 139.453,172.497 139.437,170.471 140.357 M225.693 140.032 C 220.978 141.399,220.629 148.483,225.184 150.370 C 230.492 152.569,235.222 145.983,231.433 141.668 C 229.899 139.921,227.971 139.372,225.693 140.032 M158.796 152.243 C 157.820 152.825,157.957 154.673,159.029 155.375 C 160.070 156.057,161.672 155.542,161.963 154.431 C 162.418 152.689,160.394 151.291,158.796 152.243 M238.730 152.434 C 237.249 153.915,238.872 156.336,240.844 155.587 C 242.087 155.114,242.446 153.915,241.689 152.760 C 241.003 151.713,239.605 151.559,238.730 152.434 M246.296 268.148 L 246.296 270.000 248.148 270.000 L 250.000 270.000 250.000 272.018 L 250.000 274.035 251.944 274.147 L 253.889 274.259 253.990 280.602 L 254.091 286.945 255.598 287.186 C 258.548 287.658,260.802 289.250,265.299 294.036 C 265.950 294.728,267.356 296.186,268.426 297.277 C 269.495 298.367,270.370 299.436,270.370 299.651 C 270.370 299.867,270.537 299.941,270.741 299.815 C 270.944 299.689,271.111 299.328,271.111 299.013 C 271.111 297.731,273.497 293.569,275.428 291.484 C 280.554 285.947,288.722 284.674,295.108 288.416 C 297.721 289.948,307.822 300.323,309.180 302.871 C 317.481 318.445,302.398 336.652,287.690 328.812 C 285.659 327.730,275.885 318.569,273.815 315.808 L 273.000 314.722 272.815 315.602 C 272.714 316.086,272.531 317.648,272.410 319.074 C 271.449 330.366,265.900 333.734,255.648 329.249 L 254.074 328.560 254.074 330.206 L 254.074 331.852 247.963 331.852 L 241.852 331.852 241.852 329.815 L 241.852 327.778 240.000 327.778 L 238.148 327.778 238.148 325.926 C 238.148 324.115,238.123 324.074,237.037 324.074 L 235.926 324.074 235.926 327.963 L 235.926 331.852 232.407 331.852 L 228.889 331.852 228.889 329.815 L 228.889 327.778 226.852 327.778 L 224.815 327.778 224.815 325.926 L 224.815 324.074 222.963 324.074 L 221.111 324.074 221.111 313.148 C 221.111 301.013,221.276 301.713,218.637 302.667 L 217.407 303.112 217.407 317.482 L 217.407 331.852 211.481 331.852 L 205.556 331.852 205.556 329.815 L 205.556 327.778 203.519 327.778 L 201.481 327.778 201.481 325.926 L 201.481 324.074 199.630 324.074 L 197.778 324.074 197.778 313.148 C 197.778 300.968,197.950 301.684,195.240 302.629 L 194.074 303.035 194.074 317.444 L 194.074 331.852 187.963 331.852 L 181.852 331.852 181.852 329.815 L 181.852 327.778 180.000 327.778 L 178.148 327.778 178.148 325.926 L 178.148 324.074 176.296 324.074 C 174.871 324.074,174.444 323.942,174.444 323.500 C 174.444 323.174,173.365 324.014,171.944 325.445 C 163.740 333.708,156.120 332.662,145.141 321.763 C 137.291 313.970,135.662 310.749,135.984 303.652 C 136.057 302.051,136.095 300.741,136.068 300.741 C 136.041 300.741,135.290 301.144,134.399 301.638 C 132.628 302.617,129.361 303.333,126.660 303.333 C 124.222 303.333,124.217 303.526,126.586 306.122 C 130.271 310.158,131.173 312.025,131.541 316.379 C 132.019 322.036,132.941 325.185,134.119 325.185 C 134.679 325.185,134.815 325.463,134.815 326.609 C 134.815 328.349,135.866 329.444,137.539 329.446 C 140.499 329.451,138.193 332.991,135.061 333.251 C 131.174 333.573,129.916 332.841,123.653 326.604 C 116.867 319.847,116.555 319.281,116.500 313.632 C 116.455 309.030,116.506 309.127,114.293 309.459 L 112.593 309.714 112.593 320.783 L 112.593 331.852 108.889 331.852 L 105.185 331.852 105.185 329.815 L 105.185 327.778 103.148 327.778 L 101.111 327.778 101.111 325.926 L 101.111 324.074 99.259 324.074 L 97.407 324.074 97.407 296.852 L 97.407 269.630 108.611 269.613 C 114.773 269.605,120.525 269.460,121.394 269.292 C 123.863 268.814,125.419 269.840,131.442 275.917 C 138.093 282.628,138.590 283.544,138.820 289.509 L 138.980 293.648 141.010 291.454 C 146.072 285.987,154.368 284.676,160.551 288.366 C 162.151 289.321,168.441 295.282,172.157 299.365 L 174.444 301.879 174.444 294.273 L 174.444 286.667 180.370 286.667 L 186.296 286.667 186.296 288.148 C 186.296 288.963,186.338 289.628,186.389 289.627 C 186.440 289.626,187.706 289.209,189.202 288.701 C 194.126 287.030,198.623 287.761,202.321 290.834 L 204.085 292.301 208.432 290.434 C 217.867 286.381,223.653 286.479,226.166 290.734 C 226.530 291.350,227.111 291.943,227.459 292.053 C 227.806 292.164,228.687 292.955,229.415 293.812 C 230.144 294.669,231.448 296.070,232.314 296.925 L 233.889 298.480 233.985 282.388 L 234.082 266.296 240.189 266.296 L 246.296 266.296 246.296 268.148 M117.315 284.721 L 112.593 284.837 112.593 287.973 L 112.593 291.110 115.685 290.990 C 120.114 290.819,122.687 289.027,123.219 285.744 C 123.401 284.627,123.332 284.456,122.734 284.525 C 122.351 284.569,119.912 284.658,117.315 284.721 M257.647 304.264 C 254.333 305.174,254.074 305.678,254.074 311.216 L 254.074 316.006 255.070 315.756 C 258.133 314.988,259.716 312.183,259.938 307.130 C 260.021 305.245,259.943 303.719,259.766 303.737 C 259.589 303.755,258.636 303.992,257.647 304.264 M157.112 304.862 C 153.764 306.520,150.868 312.963,153.472 312.963 C 157.255 312.963,161.449 308.935,161.473 305.278 C 161.484 303.768,159.672 303.595,157.112 304.862 M291.557 304.862 C 288.208 306.520,285.313 312.963,287.916 312.963 C 291.700 312.963,295.893 308.935,295.918 305.278 C 295.928 303.768,294.117 303.595,291.557 304.862 " stroke="none" fill="#fbfbfb" fill-rule="evenodd"></path><path id="path3" d="M297.776 176.944 L 283.519 191.296 297.870 177.039 C 311.209 163.788,312.389 162.593,312.128 162.593 C 312.076 162.593,305.618 169.051,297.776 176.944 M214.257 260.463 L 200.185 274.630 214.352 260.557 C 222.144 252.818,228.519 246.443,228.519 246.391 C 228.519 246.130,227.337 247.296,214.257 260.463 M246.296 272.037 L 246.296 274.074 248.148 274.074 L 250.000 274.074 250.000 272.037 L 250.000 270.000 248.148 270.000 L 246.296 270.000 246.296 272.037 M129.931 275.544 C 130.275 276.361,130.780 277.031,131.054 277.033 C 131.328 277.035,132.078 277.409,132.721 277.864 L 133.889 278.691 132.660 277.130 C 131.984 276.272,130.953 275.229,130.369 274.814 L 129.307 274.058 129.931 275.544 M250.153 280.926 C 250.153 284.593,250.209 286.042,250.276 284.148 C 250.344 282.253,250.343 279.253,250.275 277.481 C 250.208 275.709,250.153 277.259,250.153 280.926 M110.278 276.944 L 104.815 277.057 104.899 284.177 L 104.983 291.296 105.092 284.352 L 105.202 277.407 112.252 277.407 C 116.858 277.407,119.224 277.279,119.074 277.037 C 118.948 276.833,118.147 276.704,117.293 276.749 C 116.439 276.794,113.282 276.881,110.278 276.944 M118.065 280.642 C 118.936 280.720,120.270 280.719,121.028 280.640 C 121.787 280.560,121.074 280.496,119.444 280.497 C 117.815 280.499,117.194 280.564,118.065 280.642 M110.655 281.009 C 111.320 281.092,112.320 281.090,112.877 281.005 C 113.434 280.921,112.889 280.853,111.667 280.856 C 110.444 280.858,109.989 280.927,110.655 281.009 M134.921 284.259 C 134.924 285.278,134.995 285.650,135.081 285.088 C 135.166 284.525,135.163 283.691,135.076 283.236 C 134.988 282.780,134.918 283.241,134.921 284.259 M134.944 289.630 C 134.944 291.361,135.008 292.069,135.086 291.204 C 135.164 290.338,135.164 288.921,135.086 288.056 C 135.008 287.190,134.944 287.898,134.944 289.630 M130.382 290.265 C 130.326 292.486,125.204 295.136,120.362 295.450 C 116.629 295.692,116.415 295.918,118.244 297.691 C 119.396 298.807,119.622 298.871,123.152 299.063 C 125.187 299.174,126.627 299.161,126.352 299.034 C 126.030 298.885,126.372 298.570,127.321 298.145 C 130.116 296.894,132.043 292.655,130.795 290.507 C 130.574 290.126,130.388 290.017,130.382 290.265 M227.039 292.082 C 227.047 293.317,227.892 295.185,228.443 295.187 C 228.790 295.189,229.527 295.426,230.080 295.714 L 231.086 296.239 230.245 294.911 C 229.393 293.565,227.035 291.485,227.039 292.082 M263.140 292.827 C 263.299 293.207,263.505 293.870,263.599 294.300 C 263.751 294.993,266.164 296.182,266.578 295.768 C 266.794 295.552,264.415 292.973,263.597 292.535 C 262.947 292.187,262.888 292.225,263.140 292.827 M166.785 294.789 C 167.221 295.584,167.716 296.149,167.886 296.044 C 168.055 295.940,168.885 296.578,169.729 297.464 C 171.613 299.439,171.192 298.654,168.945 295.998 C 166.709 293.356,165.686 292.783,166.785 294.789 M301.229 294.789 C 301.665 295.584,302.160 296.149,302.330 296.044 C 302.500 295.940,303.329 296.578,304.174 297.464 C 306.057 299.439,305.637 298.654,303.390 295.998 C 301.154 293.356,300.130 292.783,301.229 294.789 M190.463 294.329 C 190.819 294.423,191.403 294.423,191.759 294.329 C 192.116 294.236,191.824 294.160,191.111 294.160 C 190.398 294.160,190.106 294.236,190.463 294.329 M212.702 294.455 C 210.150 294.972,209.630 295.400,209.630 296.980 C 209.630 298.618,211.312 300.221,212.601 299.812 C 213.309 299.587,213.327 299.889,213.426 313.773 L 213.528 327.963 213.616 313.462 L 213.704 298.961 214.870 298.555 C 215.512 298.331,217.053 298.123,218.296 298.093 C 220.495 298.038,220.511 298.031,218.889 297.813 L 217.222 297.590 218.468 297.133 C 219.154 296.881,219.904 296.786,220.135 296.920 C 220.366 297.054,220.223 296.785,219.816 296.322 C 218.307 294.605,215.543 293.879,212.702 294.455 M194.015 295.971 C 194.138 297.267,194.244 297.405,194.947 297.193 C 196.294 296.787,196.551 296.299,195.741 295.689 C 194.013 294.387,193.866 294.411,194.015 295.971 M132.754 296.019 L 131.667 297.222 132.870 296.134 C 133.992 295.120,134.244 294.815,133.958 294.815 C 133.894 294.815,133.353 295.356,132.754 296.019 M149.215 297.331 C 146.800 298.592,145.185 300.948,144.919 303.596 L 144.741 305.370 145.774 303.333 C 146.341 302.213,147.924 300.171,149.291 298.796 C 152.066 296.004,152.058 295.846,149.215 297.331 M283.659 297.331 C 281.245 298.592,279.630 300.948,279.364 303.596 L 279.186 305.370 280.218 303.333 C 280.786 302.213,282.369 300.171,283.735 298.796 C 286.510 296.004,286.502 295.846,283.659 297.331 M194.542 298.044 C 195.105 298.129,195.938 298.126,196.394 298.038 C 196.850 297.951,196.389 297.881,195.370 297.884 C 194.352 297.886,193.979 297.958,194.542 298.044 M190.169 299.353 C 190.071 299.608,190.035 306.150,190.088 313.890 L 190.186 327.963 190.371 313.426 C 190.472 305.430,190.509 298.889,190.451 298.889 C 190.394 298.889,190.267 299.098,190.169 299.353 M250.797 301.607 C 250.009 302.445,249.987 302.697,250.093 309.477 L 250.203 316.481 250.286 309.468 C 250.366 302.838,250.414 302.408,251.176 301.598 C 251.619 301.126,251.898 300.741,251.796 300.741 C 251.694 300.741,251.244 301.131,250.797 301.607 M232.019 314.444 C 232.019 321.880,232.069 324.921,232.129 321.204 C 232.190 317.486,232.190 311.403,232.129 307.685 C 232.069 303.968,232.019 307.009,232.019 314.444 M104.815 313.148 L 104.815 324.074 102.963 324.074 L 101.111 324.074 101.111 325.926 L 101.111 327.778 103.148 327.778 L 105.185 327.778 105.185 315.000 C 105.185 307.972,105.102 302.222,105.000 302.222 C 104.898 302.222,104.815 307.139,104.815 313.148 M149.773 303.900 C 149.435 304.416,149.226 304.905,149.309 304.988 C 149.391 305.070,149.739 304.648,150.082 304.050 C 150.847 302.718,150.620 302.608,149.773 303.900 M284.218 303.900 C 283.880 304.416,283.671 304.905,283.753 304.988 C 283.835 305.070,284.184 304.648,284.527 304.050 C 285.291 302.718,285.064 302.608,284.218 303.900 M169.345 304.444 C 169.345 305.157,169.421 305.449,169.515 305.093 C 169.608 304.736,169.608 304.153,169.515 303.796 C 169.421 303.440,169.345 303.731,169.345 304.444 M303.790 304.444 C 303.790 305.157,303.866 305.449,303.959 305.093 C 304.052 304.736,304.052 304.153,303.959 303.796 C 303.866 303.440,303.790 303.731,303.790 304.444 M110.833 305.450 C 111.394 305.535,112.310 305.535,112.870 305.450 C 113.431 305.366,112.972 305.296,111.852 305.296 C 110.731 305.296,110.273 305.366,110.833 305.450 M228.154 314.537 L 228.148 324.074 226.667 324.074 L 225.185 324.074 225.185 325.926 L 225.185 327.778 227.037 327.778 L 228.889 327.778 228.883 316.944 C 228.880 310.590,228.729 305.881,228.519 305.556 C 228.282 305.189,228.158 308.243,228.154 314.537 M269.018 308.148 C 269.018 309.880,269.082 310.588,269.160 309.722 C 269.238 308.856,269.238 307.440,269.160 306.574 C 269.082 305.708,269.018 306.417,269.018 308.148 M265.192 306.669 C 265.058 317.290,261.889 323.249,256.316 323.359 C 254.031 323.405,256.182 324.019,258.729 324.048 C 265.402 324.125,267.996 321.055,267.714 313.412 C 267.595 310.198,265.228 303.867,265.192 306.669 M148.624 308.333 C 148.627 309.352,148.699 309.725,148.784 309.162 C 148.869 308.599,148.867 307.765,148.779 307.310 C 148.691 306.854,148.622 307.315,148.624 308.333 M283.069 308.333 C 283.072 309.352,283.144 309.725,283.229 309.162 C 283.314 308.599,283.312 307.765,283.224 307.310 C 283.136 306.854,283.066 307.315,283.069 308.333 M173.049 310.741 C 173.049 311.454,173.125 311.745,173.218 311.389 C 173.311 311.032,173.311 310.449,173.218 310.093 C 173.125 309.736,173.049 310.028,173.049 310.741 M307.493 310.741 C 307.493 311.454,307.570 311.745,307.663 311.389 C 307.756 311.032,307.756 310.449,307.663 310.093 C 307.570 309.736,307.493 310.028,307.493 310.741 M168.342 311.073 C 167.797 313.551,164.793 317.676,162.074 319.677 C 161.010 320.460,160.815 320.740,161.333 320.739 C 165.430 320.727,169.233 316.691,169.251 312.337 C 169.260 310.185,168.706 309.415,168.342 311.073 M302.786 311.073 C 302.242 313.551,299.237 317.676,296.519 319.677 C 295.455 320.460,295.260 320.740,295.778 320.739 C 299.874 320.727,303.677 316.691,303.696 312.337 C 303.705 310.185,303.150 309.415,302.786 311.073 M268.604 314.074 C 268.604 314.787,268.681 315.079,268.774 314.722 C 268.867 314.366,268.867 313.782,268.774 313.426 C 268.681 313.069,268.604 313.361,268.604 314.074 M268.234 317.407 C 268.234 318.120,268.310 318.412,268.403 318.056 C 268.497 317.699,268.497 317.116,268.403 316.759 C 268.310 316.403,268.234 316.694,268.234 317.407 M167.778 321.667 C 166.878 322.583,166.225 323.333,166.327 323.333 C 166.429 323.333,167.249 322.583,168.148 321.667 C 169.048 320.750,169.701 320.000,169.599 320.000 C 169.497 320.000,168.677 320.750,167.778 321.667 M302.222 321.667 C 301.323 322.583,300.670 323.333,300.772 323.333 C 300.874 323.333,301.693 322.583,302.593 321.667 C 303.492 320.750,304.145 320.000,304.043 320.000 C 303.941 320.000,303.122 320.750,302.222 321.667 M145.727 322.195 C 147.561 324.070,148.662 324.878,147.063 323.176 C 146.565 322.645,146.334 322.091,146.500 321.822 C 146.680 321.530,146.628 321.462,146.354 321.631 C 146.118 321.777,145.926 321.746,145.926 321.563 C 145.926 321.380,145.468 321.025,144.907 320.773 C 144.074 320.400,144.223 320.659,145.727 322.195 M280.171 322.195 C 282.006 324.070,283.107 324.878,281.507 323.176 C 281.009 322.645,280.778 322.091,280.944 321.822 C 281.125 321.530,281.072 321.462,280.798 321.631 C 280.563 321.777,280.370 321.746,280.370 321.563 C 280.370 321.380,279.912 321.025,279.352 320.773 C 278.519 320.400,278.668 320.659,280.171 322.195 M148.148 324.256 C 148.148 324.509,150.416 325.633,150.585 325.464 C 150.666 325.384,150.150 325.041,149.440 324.702 C 148.729 324.363,148.148 324.162,148.148 324.256 M178.148 325.926 L 178.148 327.778 180.000 327.778 L 181.852 327.778 181.852 325.926 L 181.852 324.074 180.000 324.074 L 178.148 324.074 178.148 325.926 M201.481 325.926 L 201.481 327.778 203.333 327.778 L 205.185 327.778 205.185 325.926 L 205.185 324.074 203.333 324.074 L 201.481 324.074 201.481 325.926 M238.148 325.926 L 238.148 327.778 240.000 327.778 L 241.852 327.778 241.852 325.926 L 241.852 324.074 240.000 324.074 L 238.148 324.074 238.148 325.926 M282.593 324.256 C 282.593 324.509,284.860 325.633,285.030 325.464 C 285.110 325.384,284.595 325.041,283.884 324.702 C 283.174 324.363,282.593 324.162,282.593 324.256 M250.106 326.111 C 250.109 327.130,250.181 327.502,250.266 326.939 C 250.351 326.376,250.349 325.543,250.261 325.088 C 250.173 324.632,250.103 325.093,250.106 326.111 M123.494 326.235 C 124.296 327.076,125.005 327.711,125.070 327.646 C 125.365 327.352,124.319 325.185,123.883 325.185 C 123.614 325.185,123.089 325.077,122.715 324.945 C 122.314 324.804,122.633 325.331,123.494 326.235 M133.910 325.522 C 133.642 325.955,134.052 327.037,134.484 327.037 C 134.666 327.037,134.815 326.620,134.815 326.111 C 134.815 325.196,134.313 324.869,133.910 325.522 M154.167 326.552 C 154.523 326.645,155.106 326.645,155.463 326.552 C 155.819 326.458,155.528 326.382,154.815 326.382 C 154.102 326.382,153.810 326.458,154.167 326.552 M288.611 326.552 C 288.968 326.645,289.551 326.645,289.907 326.552 C 290.264 326.458,289.972 326.382,289.259 326.382 C 288.546 326.382,288.255 326.458,288.611 326.552 " stroke="none" fill="#848484" fill-rule="evenodd"></path><path id="path4" d="M252.037 110.000 C 280.759 138.722,304.342 162.222,304.443 162.222 C 304.545 162.222,281.129 138.722,252.407 110.000 C 223.686 81.278,200.103 57.778,200.001 57.778 C 199.899 57.778,223.315 81.278,252.037 110.000 M146.481 111.204 L 95.370 162.407 146.574 111.297 C 194.178 63.779,197.944 60.000,197.685 60.000 C 197.633 60.000,174.592 83.042,146.481 111.204 M152.404 97.500 L 144.259 105.741 152.500 97.596 C 160.157 90.028,160.908 89.259,160.645 89.259 C 160.592 89.259,156.884 92.968,152.404 97.500 M181.945 147.963 C 181.949 148.778,182.025 149.068,182.114 148.607 C 182.202 148.146,182.199 147.479,182.106 147.125 C 182.014 146.771,181.941 147.148,181.945 147.963 M157.037 157.963 C 157.728 158.676,158.377 159.259,158.479 159.259 C 158.580 159.259,158.098 158.676,157.407 157.963 C 156.716 157.250,156.068 156.667,155.966 156.667 C 155.864 156.667,156.346 157.250,157.037 157.963 M222.222 157.963 C 222.913 158.676,223.562 159.259,223.664 159.259 C 223.766 159.259,223.284 158.676,222.593 157.963 C 221.902 157.250,221.253 156.667,221.151 156.667 C 221.049 156.667,221.531 157.250,222.222 157.963 M246.296 281.521 C 246.296 287.324,246.399 288.930,246.759 288.796 C 247.014 288.701,247.847 288.400,248.611 288.126 L 250.000 287.629 250.000 280.852 L 250.000 274.074 248.148 274.074 L 246.296 274.074 246.296 281.521 M130.926 285.862 L 130.926 294.687 129.858 296.088 C 129.270 296.858,128.104 297.800,127.265 298.180 C 125.187 299.124,126.517 299.073,129.091 298.110 C 133.860 296.326,134.825 294.545,134.840 287.495 C 134.855 280.605,133.627 277.037,131.239 277.037 C 131.067 277.037,130.926 281.008,130.926 285.862 M105.185 284.259 L 105.185 291.111 107.037 291.111 L 108.889 291.111 108.889 285.926 L 108.889 280.741 112.315 280.702 C 114.199 280.680,117.214 280.555,119.015 280.424 L 122.290 280.185 120.898 278.796 L 119.506 277.407 112.346 277.407 L 105.185 277.407 105.185 284.259 M187.778 294.921 L 186.481 295.370 186.385 309.722 L 186.288 324.074 184.070 324.074 L 181.852 324.074 181.852 325.926 L 181.852 327.778 185.926 327.778 L 190.000 327.778 190.000 313.500 L 190.000 299.221 191.389 298.622 C 192.153 298.293,193.819 298.010,195.091 297.993 C 197.471 297.962,197.778 297.806,196.897 297.074 C 196.534 296.773,196.098 296.760,195.391 297.029 C 194.844 297.237,194.334 297.407,194.258 297.407 C 194.181 297.407,194.067 296.782,194.004 296.019 L 193.889 294.630 191.481 294.550 C 190.157 294.506,188.491 294.673,187.778 294.921 M228.094 300.065 C 228.166 302.779,228.374 305.281,228.557 305.624 C 228.739 305.967,228.889 311.092,228.889 317.013 L 228.889 327.778 230.370 327.778 L 231.852 327.778 231.852 314.382 C 231.852 297.375,231.628 295.863,229.039 295.345 L 227.963 295.129 228.094 300.065 M264.074 295.278 C 264.074 295.329,264.324 296.677,264.630 298.273 C 264.935 299.870,265.185 302.268,265.185 303.603 C 265.185 305.699,265.348 306.287,266.381 307.922 C 268.590 311.420,268.217 318.842,265.679 321.857 C 263.312 324.670,253.939 324.400,246.944 321.318 C 246.386 321.071,246.296 321.242,246.296 322.553 L 246.296 324.074 244.074 324.074 L 241.852 324.074 241.852 325.926 L 241.852 327.778 245.926 327.778 L 250.000 327.778 250.000 326.117 L 250.000 324.455 251.801 325.165 C 259.045 328.020,264.665 327.064,266.921 322.593 C 270.051 316.390,269.171 297.150,265.691 295.696 C 264.501 295.199,264.074 295.088,264.074 295.278 M167.778 296.110 C 167.778 296.225,168.108 297.300,168.512 298.498 C 169.268 300.744,169.392 302.610,169.273 309.984 C 169.163 316.801,167.270 319.598,162.023 320.691 C 161.012 320.902,158.935 321.519,157.407 322.062 C 154.282 323.173,150.538 323.181,147.495 322.081 C 144.468 320.988,146.639 323.424,150.106 325.011 C 163.823 331.291,177.696 315.969,171.821 301.027 C 170.790 298.406,167.778 294.742,167.778 296.110 M250.000 296.542 C 246.230 297.559,246.296 297.373,246.296 306.926 L 246.296 315.204 247.239 315.562 C 247.757 315.759,248.590 316.023,249.090 316.148 L 250.000 316.377 250.000 309.332 L 250.000 302.288 251.069 301.389 C 252.023 300.586,254.519 299.856,257.407 299.535 C 258.330 299.432,258.328 299.427,256.940 298.007 C 255.985 297.031,255.322 296.641,254.834 296.769 C 254.424 296.876,254.038 296.737,253.924 296.441 C 253.680 295.804,252.637 295.832,250.000 296.542 M302.222 296.110 C 302.222 296.225,302.552 297.300,302.956 298.498 C 303.713 300.744,303.836 302.610,303.718 309.984 C 303.608 316.801,301.714 319.598,296.467 320.691 C 295.457 320.902,293.380 321.519,291.852 322.062 C 288.727 323.173,284.983 323.181,281.939 322.081 C 278.912 320.988,281.083 323.424,284.550 325.011 C 298.268 331.291,312.140 315.969,306.265 301.027 C 305.234 298.406,302.222 294.742,302.222 296.110 M149.286 298.796 C 147.811 300.278,146.375 302.167,145.759 303.434 L 144.720 305.571 145.383 307.323 C 146.005 308.967,148.685 312.179,149.094 311.771 C 149.196 311.668,149.109 311.134,148.899 310.583 C 146.825 305.128,152.741 298.661,158.602 299.977 C 160.586 300.423,160.607 300.384,159.162 298.899 C 155.783 295.425,152.674 295.393,149.286 298.796 M283.731 298.796 C 282.255 300.278,280.819 302.167,280.203 303.434 L 279.165 305.571 279.827 307.323 C 280.450 308.967,283.129 312.179,283.538 311.771 C 283.641 311.668,283.553 311.134,283.344 310.583 C 281.270 305.128,287.186 298.661,293.046 299.977 C 295.031 300.423,295.051 300.384,293.607 298.899 C 290.228 295.425,287.119 295.393,283.731 298.796 M218.333 297.185 L 217.222 297.669 218.981 297.819 C 220.815 297.975,221.039 297.854,220.296 297.111 C 219.760 296.574,219.730 296.575,218.333 297.185 M209.630 311.283 L 209.630 324.074 207.407 324.074 L 205.185 324.074 205.185 325.926 L 205.185 327.778 209.259 327.778 L 213.333 327.778 213.333 313.697 L 213.333 299.616 212.448 299.838 C 211.961 299.960,211.451 299.881,211.316 299.662 C 209.735 297.103,209.630 297.827,209.630 311.283 M120.015 299.462 C 120.276 299.777,120.588 299.880,120.708 299.690 C 120.828 299.500,121.259 299.262,121.667 299.160 C 122.087 299.055,121.788 298.956,120.973 298.932 C 119.719 298.894,119.599 298.961,120.015 299.462 M122.079 302.398 C 123.274 304.197,123.463 304.812,123.757 307.861 C 124.504 315.610,126.703 321.481,128.858 321.481 C 129.507 321.481,129.507 321.411,128.856 319.438 C 128.113 317.187,127.255 311.657,127.569 311.149 C 128.217 310.101,125.955 305.824,122.799 302.130 C 120.782 299.769,120.423 299.903,122.079 302.398 M106.389 301.749 L 105.185 301.899 105.185 314.838 L 105.185 327.778 107.037 327.778 L 108.889 327.778 108.889 316.683 L 108.889 305.589 110.213 305.341 C 110.942 305.204,112.310 305.198,113.255 305.328 L 114.972 305.563 113.511 304.067 C 112.180 302.703,109.231 301.355,107.988 301.541 C 107.771 301.573,107.051 301.667,106.389 301.749 M129.681 324.827 C 129.029 325.370,128.251 325.556,126.625 325.556 L 124.442 325.556 124.927 326.759 C 125.854 329.060,131.917 330.099,133.746 328.270 C 134.544 327.472,134.116 325.556,133.139 325.556 C 132.893 325.556,132.269 325.222,131.751 324.815 C 130.624 323.928,130.761 323.927,129.681 324.827 " stroke="none" fill="#65907b" fill-rule="evenodd"></path></g></svg>