<svg id="svg" version="1.1" xmlns="http://www.w3.org/2000/svg" xmlns:xlink="http://www.w3.org/1999/xlink" width="400" height="400" viewBox="0, 0, 400,400"><g id="svgg"><path id="path0" d="M181.603 99.694 L 168.232 123.092 170.346 124.458 C 179.852 130.601,179.103 144.540,169.000 149.501 C 165.115 151.409,158.763 151.182,155.429 149.017 C 154.646 148.509,153.948 148.151,153.877 148.221 C 153.493 148.606,106.525 231.031,106.382 231.574 C 106.212 232.215,283.518 232.654,284.158 232.015 C 284.272 231.901,273.621 213.003,260.488 190.019 L 236.610 148.231 234.357 149.393 C 231.249 150.996,224.694 151.129,221.667 149.652 C 211.302 144.594,210.719 129.187,220.699 124.095 C 221.537 123.668,222.222 123.258,222.222 123.185 C 222.222 122.798,195.460 76.296,195.237 76.296 C 195.092 76.296,188.956 86.825,181.603 99.694 M49.259 253.241 L 49.259 259.151 52.093 259.390 C 53.651 259.522,56.485 259.630,58.389 259.630 L 61.852 259.630 61.852 284.444 L 61.852 309.259 67.778 309.259 L 73.704 309.259 73.704 284.313 L 73.704 259.366 76.204 259.130 C 77.579 259.000,80.341 258.893,82.342 258.892 L 85.981 258.889 85.861 253.548 C 85.795 250.611,85.657 248.131,85.556 248.038 C 85.454 247.944,77.245 247.747,67.315 247.600 L 49.259 247.332 49.259 253.241 M300.370 278.333 L 300.370 309.259 307.037 309.259 L 313.704 309.259 313.704 281.167 C 313.704 265.716,313.596 251.800,313.464 250.241 L 313.225 247.407 306.798 247.407 L 300.370 247.407 300.370 278.333 M135.966 258.349 C 134.264 262.331,132.934 265.649,133.010 265.723 C 133.086 265.797,134.523 265.909,136.204 265.972 L 139.259 266.086 143.917 259.247 C 146.479 255.485,148.735 252.116,148.930 251.759 C 149.261 251.156,148.930 251.111,144.173 251.111 L 139.061 251.111 135.966 258.349 M245.185 267.817 C 245.185 269.125,245.094 269.299,244.537 269.060 C 235.139 265.017,226.598 266.571,224.615 272.683 C 224.267 273.754,223.420 276.007,222.732 277.690 C 219.468 285.675,223.291 296.571,230.370 299.461 C 235.027 301.363,234.791 301.366,240.546 299.305 C 243.393 298.285,245.764 297.493,245.816 297.544 C 246.133 297.861,245.957 303.520,245.572 305.370 C 243.956 313.138,235.840 315.958,226.390 312.036 C 224.507 311.254,222.900 310.685,222.821 310.770 C 222.086 311.558,219.815 321.489,220.335 321.639 C 229.723 324.356,243.184 324.375,248.491 321.678 C 253.500 319.133,256.188 313.357,257.070 303.242 C 257.485 298.488,257.265 267.335,256.812 266.601 C 256.708 266.434,254.049 266.296,250.904 266.296 L 245.185 266.296 245.185 267.817 M238.138 272.402 C 240.850 273.805,244.984 277.749,245.256 279.194 C 245.726 281.685,245.602 290.613,245.093 291.023 C 238.601 296.246,228.534 293.253,228.521 286.096 C 228.500 274.626,232.213 269.338,238.138 272.402 M331.436 272.312 C 318.711 276.776,315.623 294.284,325.880 303.820 C 335.347 312.623,349.970 307.069,352.840 293.581 C 355.680 280.230,343.466 268.093,331.436 272.312 M93.333 290.556 L 93.333 309.259 99.444 309.259 L 105.556 309.259 105.556 294.863 L 105.556 280.467 107.299 279.979 C 111.064 278.924,113.921 279.619,115.766 282.037 L 116.755 283.333 120.229 283.333 C 124.180 283.333,124.042 283.487,123.288 279.926 C 121.865 273.199,116.597 271.049,108.440 273.864 C 104.987 275.056,105.185 275.088,105.185 273.333 L 105.185 271.852 99.259 271.852 L 93.333 271.852 93.333 290.556 M167.407 273.188 C 167.407 274.322,167.310 274.481,166.759 274.238 C 154.761 268.953,148.370 274.575,148.418 290.370 C 148.468 306.937,153.221 311.579,165.285 306.844 C 167.120 306.124,167.037 306.080,167.037 307.778 L 167.037 309.259 173.148 309.259 L 179.259 309.259 179.259 290.556 L 179.259 271.852 173.333 271.852 L 167.407 271.852 167.407 273.188 M185.556 290.556 L 185.556 309.259 191.667 309.259 L 197.778 309.259 197.778 294.863 L 197.778 280.467 199.352 280.045 C 203.442 278.948,205.361 279.287,207.475 281.480 L 209.259 283.331 209.259 296.110 L 209.259 308.889 212.805 308.889 L 216.351 308.889 216.208 294.722 C 216.050 279.077,215.899 277.928,213.672 275.390 C 210.641 271.938,207.267 271.783,198.426 274.688 C 197.879 274.868,197.778 274.663,197.778 273.377 L 197.778 271.852 191.667 271.852 L 185.556 271.852 185.556 290.556 M281.111 286.238 L 281.111 300.623 279.679 301.052 C 275.850 302.200,272.593 301.387,270.733 298.820 L 269.630 297.296 269.630 284.759 L 269.630 272.222 266.277 272.222 L 262.924 272.222 263.056 286.944 C 263.202 303.168,263.242 303.474,265.498 305.797 C 268.544 308.934,273.149 309.282,279.359 306.844 C 281.194 306.124,281.111 306.080,281.111 307.778 L 281.111 309.259 287.222 309.259 L 293.333 309.259 293.333 290.556 L 293.333 271.852 287.222 271.852 L 281.111 271.852 281.111 286.238 M129.259 294.630 L 129.259 309.259 135.926 309.259 L 142.593 309.259 142.593 294.630 L 142.593 280.000 135.926 280.000 L 129.259 280.000 129.259 294.630 M163.329 281.725 C 167.068 282.764,167.030 282.664,167.295 292.156 L 167.524 300.344 166.447 300.815 C 164.596 301.625,158.970 301.425,157.205 300.488 C 151.578 297.499,152.254 284.670,158.193 281.745 C 159.774 280.966,160.588 280.963,163.329 281.725 M341.398 282.725 C 346.910 286.205,346.522 294.272,340.702 297.172 C 332.682 301.169,324.849 291.212,330.666 284.416 C 333.344 281.287,337.966 280.559,341.398 282.725 " stroke="none" fill="#319db9" fill-rule="evenodd"></path><path id="path1" d="M0.000 200.000 L 0.000 400.000 200.000 400.000 L 400.000 400.000 400.000 200.000 L 400.000 0.000 200.000 0.000 L 0.000 0.000 0.000 200.000 M211.873 93.472 L 228.258 122.130 230.189 122.329 C 238.956 123.234,244.937 134.065,241.239 142.337 C 240.663 143.625,240.659 143.837,241.185 144.745 C 245.942 152.960,293.803 236.865,293.950 237.248 C 294.126 237.707,280.853 237.778,195.185 237.778 C 116.158 237.778,96.255 237.684,96.404 237.315 C 96.507 237.060,108.587 215.868,123.249 190.221 L 149.908 143.589 149.121 141.887 C 145.492 134.041,151.801 123.129,160.446 122.299 L 162.223 122.128 178.598 93.471 C 187.604 77.710,195.089 64.815,195.230 64.815 C 195.372 64.815,202.861 77.711,211.873 93.472 M165.656 129.246 C 160.388 131.637,162.250 139.630,168.075 139.630 C 173.693 139.630,175.421 131.909,170.376 129.352 C 168.383 128.341,167.683 128.326,165.656 129.246 M220.878 128.921 C 216.033 130.326,215.843 137.704,220.611 139.278 C 226.077 141.082,230.377 134.839,226.618 130.557 C 225.084 128.810,223.157 128.261,220.878 128.921 M153.778 141.185 C 153.533 141.430,153.333 142.063,153.333 142.593 C 153.333 144.583,155.772 145.218,156.886 143.519 C 158.062 141.724,155.307 139.656,153.778 141.185 M233.778 141.185 C 233.533 141.430,233.333 142.063,233.333 142.593 C 233.333 144.583,235.772 145.218,236.886 143.519 C 238.062 141.724,235.307 139.656,233.778 141.185 M75.833 247.624 L 85.926 247.862 85.926 249.857 L 85.926 251.852 87.778 251.852 L 89.630 251.852 89.630 253.704 L 89.630 255.556 91.427 255.556 L 93.224 255.556 93.461 258.611 C 93.592 260.292,93.700 262.792,93.701 264.167 L 93.704 266.667 87.593 266.667 L 81.481 266.667 81.401 280.093 C 81.357 287.477,81.293 294.185,81.259 295.000 C 81.225 295.815,81.178 301.106,81.154 306.759 L 81.111 317.037 75.185 317.037 L 69.259 317.037 69.259 315.185 L 69.259 313.333 67.407 313.333 L 65.556 313.333 65.556 311.296 L 65.556 309.259 63.467 309.259 L 61.379 309.259 61.523 288.241 L 61.667 267.222 59.167 267.113 L 56.667 267.003 56.667 265.353 C 56.667 263.802,56.606 263.703,55.648 263.699 C 53.320 263.687,52.963 263.389,52.963 261.458 L 52.963 259.668 51.019 259.556 L 49.074 259.444 48.971 253.719 C 48.915 250.570,48.935 247.820,49.016 247.608 C 49.175 247.194,57.858 247.199,75.833 247.624 M313.630 249.352 L 313.741 251.481 315.574 251.481 L 317.407 251.481 317.407 253.333 L 317.407 255.185 319.259 255.185 L 321.111 255.185 321.111 268.391 L 321.111 281.596 322.545 279.409 C 327.627 271.659,336.095 269.263,344.053 273.322 C 345.929 274.280,356.237 284.558,357.992 287.222 C 367.755 302.042,352.568 321.656,337.191 314.086 C 334.416 312.720,324.019 302.718,322.357 299.815 L 321.296 297.963 321.197 307.500 L 321.099 317.037 314.623 317.037 L 308.148 317.037 308.148 315.185 L 308.148 313.333 306.111 313.333 L 304.074 313.333 304.074 311.296 L 304.074 309.259 302.407 309.259 L 300.741 309.259 300.741 313.148 L 300.741 317.037 294.815 317.037 L 288.889 317.037 288.889 315.384 L 288.889 313.730 287.214 314.448 C 280.808 317.194,276.403 316.715,272.345 312.834 C 270.302 310.880,270.042 310.622,266.852 307.372 L 265.000 305.485 264.726 310.089 C 264.094 320.690,261.014 327.369,255.709 329.643 C 250.860 331.722,240.263 332.007,231.964 330.284 C 227.196 329.293,227.259 329.328,227.782 327.952 C 228.264 326.683,227.965 326.442,225.481 326.101 C 223.569 325.838,223.344 325.438,224.055 323.569 C 224.400 322.661,222.568 321.852,220.167 321.852 C 219.497 321.852,219.499 321.661,220.181 319.411 C 221.007 316.688,220.995 316.667,218.704 316.667 L 216.667 316.667 216.667 314.815 L 216.667 312.963 214.815 312.963 L 212.963 312.963 212.963 310.926 L 212.963 308.889 210.926 308.889 L 208.889 308.889 208.889 298.148 C 208.889 286.438,209.010 287.016,206.722 287.814 L 205.556 288.221 205.556 302.629 L 205.556 317.037 199.444 317.037 L 193.333 317.037 193.333 315.185 L 193.333 313.333 191.481 313.333 L 189.630 313.333 189.630 311.296 L 189.630 309.259 188.333 309.259 L 187.037 309.259 187.037 313.148 L 187.037 317.037 180.926 317.037 L 174.815 317.037 174.815 315.361 L 174.815 313.685 173.713 314.255 C 171.769 315.259,166.255 316.390,164.372 316.169 C 161.531 315.837,160.132 314.761,153.704 307.969 C 153.398 307.646,152.523 306.826,151.759 306.147 L 150.370 304.913 150.370 310.975 L 150.370 317.037 143.704 317.037 L 137.037 317.037 137.037 315.185 L 137.037 313.333 135.000 313.333 L 132.963 313.333 132.963 311.296 L 132.963 309.259 131.111 309.259 L 129.259 309.259 129.259 300.185 L 129.259 291.111 126.896 291.111 C 124.630 291.111,124.492 291.058,123.543 289.814 C 121.650 287.332,118.864 286.590,115.249 287.604 L 112.963 288.246 112.963 302.641 L 112.963 317.037 107.037 317.037 L 101.111 317.037 101.111 315.185 L 101.111 313.333 99.074 313.333 L 97.037 313.333 97.037 311.296 L 97.037 309.259 95.185 309.259 L 93.333 309.259 93.333 290.361 L 93.333 271.463 99.352 271.565 L 105.370 271.667 105.482 273.197 L 105.594 274.727 108.075 273.866 C 114.758 271.547,118.977 272.159,121.767 275.852 C 122.323 276.588,124.194 278.584,125.926 280.288 L 129.074 283.385 129.187 281.693 L 129.300 280.000 135.946 280.000 L 142.593 280.000 142.593 282.037 L 142.593 284.074 144.630 284.074 L 146.667 284.074 146.667 285.926 C 146.667 288.600,147.987 288.673,148.331 286.019 C 149.959 273.451,155.737 269.562,166.363 273.881 C 166.862 274.083,167.009 273.888,167.104 272.900 L 167.222 271.667 173.241 271.565 L 179.259 271.463 179.259 273.490 L 179.259 275.517 181.204 275.629 L 183.148 275.741 183.260 277.685 C 183.368 279.560,183.410 279.630,184.451 279.630 L 185.530 279.630 185.636 275.648 L 185.741 271.667 191.759 271.565 L 197.778 271.463 197.778 273.139 C 197.778 274.061,197.819 274.815,197.870 274.815 C 197.921 274.815,198.880 274.466,200.000 274.039 C 207.731 271.097,209.836 271.603,216.075 277.900 C 220.144 282.008,220.906 282.630,221.119 282.018 C 225.392 269.721,225.511 269.498,228.627 267.912 C 232.666 265.856,237.776 266.227,244.537 269.066 C 245.093 269.300,245.185 269.123,245.185 267.817 L 245.185 266.296 251.111 266.296 L 257.037 266.296 257.037 268.333 L 257.037 270.370 258.869 270.370 L 260.700 270.370 260.813 272.130 C 260.950 274.272,262.434 275.034,262.658 273.078 L 262.778 272.037 266.296 272.037 L 269.815 272.037 269.926 273.962 L 270.037 275.887 271.778 275.999 L 273.519 276.111 273.630 278.056 L 273.742 280.000 275.575 280.000 L 277.407 280.000 277.407 290.748 L 277.407 301.496 278.426 301.249 C 278.986 301.114,279.819 300.865,280.278 300.696 L 281.111 300.389 281.111 285.935 L 281.111 271.481 287.222 271.481 L 293.333 271.481 293.333 273.519 L 293.333 275.556 295.185 275.556 L 297.037 275.556 297.037 277.593 L 297.037 279.630 298.704 279.630 L 300.370 279.630 300.370 263.580 C 300.370 254.753,300.485 247.416,300.626 247.276 C 300.766 247.135,303.725 247.066,307.200 247.121 L 313.519 247.222 313.630 249.352 M149.403 251.204 C 149.255 251.458,148.654 252.375,148.067 253.241 L 147.001 254.815 150.167 254.815 C 153.789 254.815,153.692 254.716,152.204 256.878 L 151.076 258.519 154.056 258.519 C 157.760 258.519,157.932 257.827,152.112 266.326 L 147.187 273.519 143.791 273.625 L 140.394 273.731 141.107 272.143 L 141.819 270.556 139.243 270.447 C 136.364 270.325,136.315 270.256,137.397 267.870 L 138.112 266.296 135.313 266.296 C 132.804 266.296,132.538 266.229,132.747 265.648 C 132.876 265.292,134.352 261.793,136.028 257.874 L 139.074 250.747 144.374 250.744 C 148.511 250.741,149.614 250.842,149.403 251.204 M240.926 279.585 C 239.091 280.428,238.318 281.278,237.641 283.197 C 237.009 284.988,236.086 292.877,236.464 293.253 C 237.234 294.019,240.752 293.391,243.124 292.064 L 245.556 290.704 245.556 288.557 C 245.556 282.040,245.153 279.691,243.965 279.277 C 242.566 278.789,242.687 278.777,240.926 279.585 M165.725 289.579 C 162.484 291.555,160.849 295.182,161.045 299.959 L 161.111 301.585 163.056 301.380 C 164.125 301.267,165.458 300.997,166.019 300.781 L 167.037 300.389 167.037 294.639 C 167.037 291.476,166.995 288.890,166.944 288.890 C 166.894 288.891,166.345 289.201,165.725 289.579 M341.296 289.955 C 338.543 291.218,336.831 293.509,336.425 296.475 C 336.164 298.380,336.290 298.440,339.074 297.739 C 342.197 296.953,345.157 293.424,345.177 290.463 C 345.187 289.001,343.778 288.817,341.296 289.955 M223.789 302.228 L 223.889 310.884 227.037 312.185 C 233.662 314.924,241.813 313.483,244.125 309.165 C 244.502 308.460,244.449 308.425,243.340 308.647 C 242.457 308.823,241.503 308.600,239.625 307.776 C 238.235 307.166,236.835 306.667,236.513 306.667 C 235.814 306.667,226.546 297.551,224.867 295.213 L 223.690 293.573 223.789 302.228 " stroke="none" fill="#fbfbfb" fill-rule="evenodd"></path><path id="path2" d="M194.939 65.272 C 194.749 65.530,187.351 78.436,178.500 93.952 L 162.407 122.163 160.755 122.412 C 151.279 123.842,145.531 134.044,149.506 142.380 L 150.100 143.627 123.384 190.372 C 108.689 216.082,96.667 237.183,96.667 237.263 C 96.667 237.342,141.000 237.407,195.185 237.407 C 249.370 237.407,293.704 237.317,293.704 237.206 C 293.704 237.095,281.708 216.024,267.047 190.380 L 240.390 143.754 241.213 141.970 C 244.800 134.198,239.235 124.285,230.266 122.470 L 227.971 122.005 211.628 93.404 C 200.126 73.274,195.183 64.942,194.939 65.272 M208.862 99.674 C 216.210 112.532,222.222 123.112,222.222 123.185 C 222.222 123.258,221.537 123.668,220.699 124.095 C 210.719 129.187,211.302 144.594,221.667 149.652 C 224.694 151.129,231.249 150.996,234.357 149.393 L 236.610 148.231 260.488 190.019 C 273.621 213.003,284.272 231.901,284.158 232.015 C 283.518 232.654,106.212 232.215,106.382 231.574 C 106.525 231.031,153.493 148.606,153.877 148.221 C 153.948 148.151,154.646 148.509,155.429 149.017 C 158.763 151.182,165.115 151.409,169.000 149.501 C 179.103 144.540,179.852 130.601,170.346 124.458 L 168.232 123.092 181.603 99.694 C 188.956 86.825,195.092 76.296,195.237 76.296 C 195.382 76.296,201.513 86.816,208.862 99.674 M170.605 129.122 C 172.123 129.843,173.704 132.344,173.704 134.026 C 173.704 139.487,166.773 141.892,163.479 137.573 C 159.881 132.857,165.195 126.555,170.605 129.122 M225.178 129.167 C 228.889 131.032,229.206 136.086,225.776 138.702 C 222.091 141.513,216.895 138.804,216.895 134.072 C 216.895 129.917,221.382 127.260,225.178 129.167 M156.584 140.947 C 158.224 142.096,157.183 144.815,155.103 144.815 C 154.741 144.815,154.111 144.481,153.704 144.074 C 151.740 142.110,154.291 139.341,156.584 140.947 M236.730 140.983 C 238.680 142.748,236.068 145.947,233.980 144.352 C 232.943 143.560,232.795 142.020,233.672 141.143 C 234.602 140.213,235.809 140.150,236.730 140.983 " stroke="none" fill="#040505" fill-rule="evenodd"></path><path id="path3" d="M96.296 237.500 C 96.296 237.653,140.838 237.737,195.278 237.687 C 249.718 237.637,278.176 237.554,258.519 237.502 C 162.980 237.250,96.296 237.249,96.296 237.500 M49.052 247.516 C 48.951 247.779,48.915 250.570,48.971 253.719 L 49.074 259.444 50.926 259.473 L 52.778 259.502 51.019 259.361 L 49.259 259.221 49.259 253.345 C 49.259 248.991,49.379 247.421,49.722 247.282 C 50.085 247.136,50.082 247.089,49.711 247.066 C 49.450 247.050,49.153 247.252,49.052 247.516 M306.925 247.310 L 313.295 247.425 313.439 249.270 L 313.583 251.115 313.551 249.169 L 313.519 247.222 307.037 247.208 L 300.556 247.194 306.925 247.310 M68.225 247.682 C 69.591 247.753,71.924 247.753,73.410 247.683 C 74.895 247.612,73.778 247.554,70.926 247.554 C 68.074 247.553,66.858 247.611,68.225 247.682 M141.591 251.016 C 143.179 251.086,145.679 251.086,147.147 251.015 C 148.614 250.945,147.315 250.888,144.259 250.889 C 141.204 250.889,140.003 250.947,141.591 251.016 M317.143 253.148 C 317.146 254.167,317.218 254.539,317.303 253.976 C 317.388 253.413,317.386 252.580,317.298 252.125 C 317.210 251.669,317.140 252.130,317.143 253.148 M147.593 255.049 C 150.249 255.325,153.335 255.348,153.334 255.093 C 153.334 254.940,151.792 254.841,149.907 254.874 C 148.023 254.907,146.981 254.985,147.593 255.049 M317.407 284.259 L 317.407 313.333 312.778 313.333 L 308.148 313.333 308.148 315.185 L 308.148 317.037 314.618 317.037 L 321.087 317.037 321.192 307.315 C 321.249 301.968,321.176 297.414,321.029 297.197 C 319.560 295.022,319.324 287.492,320.607 283.704 C 321.237 281.843,321.288 280.519,321.199 268.426 L 321.102 255.185 319.255 255.185 L 317.407 255.185 317.407 284.259 M89.935 259.205 L 90.082 262.855 84.101 263.046 C 80.812 263.151,78.039 263.319,77.939 263.419 C 77.839 263.519,77.651 274.791,77.522 288.467 L 77.286 313.333 73.273 313.333 L 69.259 313.333 69.259 315.185 L 69.259 317.037 75.185 317.037 L 81.111 317.037 81.154 306.759 C 81.178 301.106,81.225 295.815,81.259 295.000 C 81.293 294.185,81.357 287.477,81.401 280.093 L 81.481 266.667 87.593 266.667 L 93.704 266.667 93.701 264.167 C 93.700 262.792,93.592 260.292,93.461 258.611 L 93.224 255.556 91.506 255.556 L 89.789 255.556 89.935 259.205 M150.741 258.796 C 150.740 258.949,149.025 261.568,146.928 264.617 L 143.116 270.160 139.799 270.129 L 136.481 270.099 139.151 270.327 L 141.820 270.556 141.107 272.143 L 140.394 273.731 143.791 273.625 L 147.187 273.519 152.112 266.326 C 157.947 257.805,157.784 258.519,153.889 258.519 C 152.157 258.519,150.741 258.644,150.741 258.796 M55.463 263.589 C 56.612 263.741,56.667 263.821,56.667 265.362 L 56.667 266.976 59.260 267.099 L 61.854 267.222 61.853 265.463 L 61.852 263.704 59.907 263.700 C 58.838 263.699,57.130 263.637,56.111 263.563 C 55.093 263.490,54.801 263.501,55.463 263.589 M132.592 266.019 C 132.592 266.171,133.884 266.271,135.463 266.241 C 138.384 266.184,138.039 266.037,134.537 265.847 C 133.467 265.788,132.592 265.866,132.592 266.019 M99.146 271.754 L 105.143 271.870 105.293 273.345 L 105.443 274.820 105.407 273.243 L 105.370 271.667 99.259 271.652 L 93.148 271.637 99.146 271.754 M167.241 271.944 C 166.880 273.107,166.799 274.444,167.088 274.444 C 167.264 274.444,167.407 273.865,167.407 273.157 L 167.407 271.870 173.426 271.759 L 179.444 271.647 173.414 271.564 C 168.855 271.502,167.349 271.594,167.241 271.944 M188.796 271.757 C 190.477 271.826,193.227 271.826,194.907 271.757 C 196.588 271.688,195.213 271.632,191.852 271.632 C 188.491 271.632,187.116 271.688,188.796 271.757 M284.185 271.758 C 285.977 271.826,288.811 271.825,290.481 271.757 C 292.152 271.688,290.685 271.633,287.222 271.633 C 283.759 271.633,282.392 271.689,284.185 271.758 M262.852 272.086 C 262.710 272.229,262.593 272.754,262.593 273.253 C 262.593 274.030,262.454 274.134,261.632 273.977 L 260.672 273.793 260.924 276.645 C 261.361 281.581,261.249 306.209,260.774 309.630 C 259.580 318.221,257.278 322.943,253.072 325.427 C 248.704 328.007,234.304 328.608,227.963 326.476 C 227.458 326.306,227.374 326.336,227.700 326.570 C 228.063 326.831,228.082 327.162,227.782 327.952 C 227.259 329.328,227.196 329.293,231.964 330.284 C 246.756 333.356,258.195 330.880,261.631 323.862 C 264.058 318.906,265.851 306.273,264.384 304.462 C 263.176 302.970,262.963 300.216,262.963 286.093 L 262.963 272.222 266.296 272.222 L 269.630 272.222 269.630 274.259 L 269.630 276.296 271.427 276.296 L 273.225 276.296 273.464 279.130 C 273.596 280.688,273.704 286.355,273.704 291.723 L 273.704 301.481 275.556 301.481 L 277.407 301.481 277.407 290.741 L 277.407 280.000 275.575 280.000 L 273.742 280.000 273.630 278.056 L 273.519 276.111 271.778 275.999 L 270.037 275.887 269.926 273.962 L 269.815 272.037 266.464 271.932 C 264.620 271.874,262.995 271.943,262.852 272.086 M180.966 275.816 L 182.857 275.961 183.095 278.777 C 183.226 280.326,183.333 288.735,183.333 297.463 L 183.333 313.333 177.222 313.333 L 171.111 313.333 171.111 311.852 C 171.111 311.037,171.031 310.370,170.934 310.370 C 170.836 310.370,169.461 310.817,167.878 311.364 C 164.436 312.552,159.137 312.812,157.943 311.852 C 157.563 311.546,157.793 311.977,158.454 312.810 C 161.469 316.605,167.976 317.221,173.713 314.255 L 174.815 313.685 174.815 315.361 L 174.815 317.037 180.926 317.037 L 187.037 317.037 187.037 313.148 C 187.037 309.506,186.990 309.259,186.296 309.259 C 185.568 309.259,185.556 309.012,185.556 294.444 L 185.556 279.630 184.464 279.630 C 183.408 279.630,183.368 279.566,183.260 277.685 L 183.148 275.741 181.111 275.705 L 179.074 275.670 180.966 275.816 M236.258 276.394 C 234.472 277.584,233.675 279.510,233.102 284.024 C 232.827 286.191,232.524 288.286,232.429 288.680 C 231.834 291.142,232.573 292.466,234.906 293.114 C 236.130 293.455,237.221 293.643,237.331 293.533 C 237.441 293.423,237.253 293.333,236.914 293.333 C 236.179 293.333,236.158 292.864,236.689 288.333 C 237.504 281.377,240.263 277.881,243.860 279.248 C 246.722 280.336,244.912 277.875,241.592 276.166 C 239.909 275.299,237.764 275.391,236.258 276.394 M294.167 275.821 C 294.727 275.906,295.644 275.906,296.204 275.821 C 296.764 275.736,296.306 275.667,295.185 275.667 C 294.065 275.667,293.606 275.736,294.167 275.821 M124.444 279.074 C 125.135 279.787,125.784 280.370,125.886 280.370 C 125.988 280.370,125.506 279.787,124.815 279.074 C 124.124 278.361,123.475 277.778,123.373 277.778 C 123.271 277.778,123.753 278.361,124.444 279.074 M297.037 296.481 L 297.037 313.333 290.926 313.333 L 284.815 313.333 284.815 311.852 C 284.815 310.154,284.898 310.198,283.063 310.918 C 279.100 312.474,274.291 312.991,272.497 312.055 L 271.475 311.522 272.462 312.816 C 275.294 316.529,280.910 317.150,287.214 314.448 L 288.889 313.730 288.889 315.384 L 288.889 317.037 294.873 317.037 L 300.857 317.037 300.615 311.204 C 300.482 307.995,300.372 299.579,300.372 292.500 L 300.370 279.630 298.704 279.630 L 297.037 279.630 297.037 296.481 M245.300 282.037 C 245.302 283.259,245.371 283.715,245.454 283.049 C 245.536 282.383,245.534 281.383,245.450 280.827 C 245.365 280.270,245.298 280.815,245.300 282.037 M218.610 281.130 C 219.782 282.977,220.000 285.849,220.000 299.463 L 220.000 312.963 218.333 312.963 L 216.667 312.963 216.667 314.815 L 216.667 316.667 218.673 316.667 C 219.931 316.667,220.749 316.839,220.866 317.130 C 220.973 317.395,221.065 317.302,221.082 316.912 C 221.164 315.005,222.743 310.694,223.305 310.841 C 223.945 311.009,223.864 293.312,223.221 292.319 C 222.797 291.663,221.483 284.679,221.476 283.042 C 221.472 282.238,221.350 281.856,221.181 282.122 C 220.971 282.453,220.500 282.255,219.463 281.400 C 218.199 280.358,218.101 280.327,218.610 281.130 M126.150 281.111 C 126.679 281.829,127.407 284.820,127.407 286.275 L 127.407 287.407 123.981 287.409 L 120.556 287.410 121.708 288.113 C 122.342 288.499,123.228 289.332,123.678 289.963 C 124.446 291.043,124.636 291.111,126.877 291.111 L 129.259 291.111 129.259 287.292 C 129.259 283.169,129.218 283.076,126.481 281.093 C 125.828 280.619,125.789 280.621,126.150 281.111 M354.240 283.525 C 363.699 297.463,349.568 317.092,334.466 310.992 C 331.824 309.925,331.814 309.933,333.611 311.653 C 342.353 320.020,356.484 315.299,360.222 302.762 C 362.193 296.152,359.551 286.927,354.607 283.156 L 353.327 282.179 354.240 283.525 M113.333 283.579 C 112.824 283.657,111.699 283.906,110.833 284.131 L 109.259 284.541 109.259 298.937 L 109.259 313.333 105.185 313.333 L 101.111 313.333 101.111 315.185 L 101.111 317.037 107.037 317.037 L 112.963 317.037 112.963 302.641 L 112.963 288.246 115.249 287.604 C 116.682 287.202,118.070 287.048,118.970 287.192 C 120.290 287.403,120.374 287.366,120.031 286.725 C 119.382 285.512,117.046 283.704,116.129 283.704 C 115.643 283.704,115.024 283.644,114.753 283.571 C 114.481 283.497,113.843 283.501,113.333 283.579 M205.185 283.745 C 204.269 283.887,203.060 284.182,202.500 284.400 L 201.481 284.796 201.481 299.065 L 201.481 313.333 197.407 313.333 L 193.333 313.333 193.333 315.185 L 193.333 317.037 199.444 317.037 L 205.556 317.037 205.556 302.629 L 205.556 288.221 206.722 287.814 C 208.992 287.023,208.868 286.454,208.984 298.241 C 209.087 308.741,209.090 308.687,209.082 296.497 L 209.074 283.919 207.963 283.703 C 207.352 283.584,206.102 283.603,205.185 283.745 M144.299 284.345 L 146.191 284.479 146.429 287.296 C 146.560 288.844,146.667 295.337,146.667 301.723 L 146.667 313.333 141.852 313.333 L 137.037 313.333 137.037 315.185 L 137.037 317.037 143.704 317.037 L 150.370 317.037 150.365 310.833 C 150.361 306.222,150.214 304.210,149.791 302.996 C 149.047 300.861,148.029 291.175,148.249 288.333 C 148.344 287.111,148.348 286.486,148.259 286.944 C 147.907 288.750,146.667 287.956,146.667 285.926 L 146.667 284.074 144.537 284.143 L 142.407 284.211 144.299 284.345 M162.407 285.690 C 158.765 287.382,156.851 291.781,157.406 297.187 C 157.788 300.908,157.816 300.959,159.711 301.307 L 161.089 301.560 161.033 298.813 C 160.952 294.879,163.031 290.941,165.999 289.407 L 167.073 288.851 166.962 294.761 C 166.899 298.127,166.993 300.584,167.180 300.468 C 167.508 300.265,167.306 286.071,166.970 285.736 C 166.486 285.251,163.418 285.221,162.407 285.690 M61.647 297.407 C 61.647 304.028,61.697 306.736,61.759 303.426 C 61.820 300.116,61.820 294.699,61.759 291.389 C 61.697 288.079,61.647 290.787,61.647 297.407 M338.353 285.825 C 332.363 287.349,330.183 298.148,335.866 298.148 C 336.050 298.148,336.309 297.333,336.441 296.337 C 336.672 294.594,337.953 292.217,339.214 291.189 C 341.304 289.487,345.185 288.634,345.185 289.877 C 345.185 290.216,345.272 290.407,345.378 290.301 C 346.043 289.636,344.709 286.332,343.624 285.954 C 342.474 285.553,339.690 285.485,338.353 285.825 M324.815 303.148 C 325.506 303.861,326.155 304.444,326.256 304.444 C 326.358 304.444,325.876 303.861,325.185 303.148 C 324.494 302.435,323.845 301.852,323.744 301.852 C 323.642 301.852,324.124 302.435,324.815 303.148 M233.751 304.492 C 234.932 305.688,236.168 306.667,236.498 306.667 C 236.828 306.667,238.224 307.161,239.599 307.764 C 242.954 309.237,244.546 309.042,245.115 307.089 C 245.629 305.327,246.051 302.963,245.851 302.963 C 245.765 302.963,244.215 303.463,242.407 304.074 C 238.326 305.454,238.704 305.470,234.833 303.752 L 231.603 302.318 233.751 304.492 M154.444 309.005 C 154.444 309.069,154.986 309.610,155.648 310.208 L 156.852 311.296 155.764 310.093 C 154.750 308.971,154.444 308.719,154.444 309.005 M213.078 310.926 C 213.080 312.148,213.149 312.603,213.231 311.938 C 213.314 311.272,213.312 310.272,213.228 309.716 C 213.143 309.159,213.076 309.704,213.078 310.926 M133.078 311.296 C 133.080 312.519,133.149 312.974,133.231 312.308 C 133.314 311.642,133.312 310.642,133.228 310.086 C 133.143 309.529,133.076 310.074,133.078 311.296 M304.189 311.296 C 304.191 312.519,304.260 312.974,304.342 312.308 C 304.425 311.642,304.423 310.642,304.339 310.086 C 304.254 309.529,304.187 310.074,304.189 311.296 " stroke="none" fill="#aaadad" fill-rule="evenodd"></path><path id="path4" d="M221.944 139.885 C 222.301 139.978,222.884 139.978,223.241 139.885 C 223.597 139.792,223.306 139.716,222.593 139.716 C 221.880 139.716,221.588 139.792,221.944 139.885 M313.704 280.370 L 313.704 309.259 309.074 309.259 L 304.444 309.259 304.444 311.296 L 304.444 313.333 310.926 313.333 L 317.407 313.333 317.405 284.907 C 317.403 269.273,317.296 255.356,317.166 253.981 L 316.930 251.481 315.317 251.481 L 313.704 251.481 313.704 280.370 M85.926 255.370 L 85.926 258.889 82.315 258.892 C 80.329 258.893,77.579 259.000,76.204 259.130 L 73.704 259.366 73.704 284.313 L 73.704 309.259 69.630 309.259 L 65.556 309.259 65.556 311.296 L 65.556 313.333 71.421 313.333 L 77.286 313.333 77.522 288.467 C 77.651 274.791,77.839 263.519,77.939 263.419 C 78.039 263.319,80.794 263.152,84.061 263.047 L 90.000 262.858 89.998 260.966 C 89.997 259.925,89.889 257.449,89.757 255.463 L 89.518 251.852 87.722 251.852 L 85.926 251.852 85.926 255.370 M142.896 260.749 C 140.807 263.809,138.919 266.245,138.701 266.161 C 138.483 266.078,137.952 266.907,137.520 268.005 L 136.735 270.000 139.478 270.056 C 140.988 270.086,142.419 270.128,142.661 270.148 C 143.109 270.186,152.204 257.162,152.901 255.483 C 152.969 255.319,151.601 255.185,149.860 255.185 L 146.695 255.185 142.896 260.749 M52.963 261.427 L 52.963 263.225 55.797 263.464 C 57.355 263.596,59.355 263.704,60.241 263.704 L 61.852 263.704 61.852 261.667 L 61.852 259.630 57.407 259.630 L 52.963 259.630 52.963 261.427 M257.280 284.167 C 257.844 317.978,254.697 323.704,235.547 323.704 C 232.562 323.704,229.239 323.475,227.558 323.153 C 225.976 322.850,224.653 322.642,224.618 322.690 C 224.440 322.936,223.714 325.317,223.795 325.389 C 223.846 325.435,225.306 325.817,227.037 326.237 C 239.408 329.241,251.282 328.017,255.808 323.272 C 260.669 318.175,262.158 304.666,260.936 276.759 L 260.656 270.370 258.852 270.370 L 257.049 270.370 257.280 284.167 M233.889 271.591 C 230.752 272.625,229.937 274.156,229.092 280.595 C 228.233 287.143,228.424 288.950,230.195 291.055 C 231.899 293.081,232.547 292.853,232.520 290.237 C 232.385 277.395,236.978 272.368,243.981 277.691 C 246.367 279.505,245.119 277.908,242.263 275.494 C 238.058 271.939,235.894 270.931,233.889 271.591 M179.259 292.593 L 179.259 309.259 173.148 309.259 L 167.037 309.259 167.037 307.778 C 167.037 306.080,167.120 306.124,165.285 306.844 C 161.626 308.280,156.924 308.880,155.014 308.153 C 153.635 307.629,154.283 308.728,156.506 310.685 C 159.149 313.012,162.383 313.176,168.063 311.273 C 169.544 310.776,170.836 310.370,170.934 310.370 C 171.031 310.370,171.111 311.037,171.111 311.852 L 171.111 313.333 177.222 313.333 L 183.333 313.333 183.333 297.463 C 183.333 288.735,183.226 280.318,183.094 278.760 L 182.854 275.926 181.057 275.926 L 179.259 275.926 179.259 292.593 M293.333 292.593 L 293.333 309.259 287.222 309.259 L 281.111 309.259 281.111 307.778 C 281.111 306.080,281.194 306.124,279.359 306.844 C 275.709 308.277,270.998 308.880,269.098 308.157 C 266.798 307.283,269.708 310.731,272.313 311.968 C 274.442 312.977,278.933 312.539,283.063 310.918 C 284.898 310.198,284.815 310.154,284.815 311.852 L 284.815 313.333 290.926 313.333 L 297.037 313.333 297.037 294.630 L 297.037 275.926 295.185 275.926 L 293.333 275.926 293.333 292.593 M269.630 286.796 L 269.630 297.296 270.729 298.814 C 271.696 300.149,272.854 301.111,273.494 301.111 C 273.784 301.111,273.759 282.614,273.464 279.130 L 273.225 276.296 271.427 276.296 L 269.630 276.296 269.630 286.796 M123.136 278.889 C 123.260 279.602,123.462 280.894,123.583 281.759 L 123.804 283.333 120.279 283.333 L 116.755 283.333 115.766 282.037 C 113.921 279.619,111.064 278.924,107.299 279.979 L 105.556 280.467 105.556 294.863 L 105.556 309.259 101.296 309.259 L 97.037 309.259 97.037 311.296 L 97.037 313.333 103.148 313.333 L 109.259 313.333 109.259 298.937 L 109.259 284.541 110.833 284.130 C 114.980 283.048,116.859 283.378,118.958 285.556 L 120.743 287.407 124.075 287.407 L 127.407 287.407 127.407 286.325 C 127.407 283.597,126.539 281.394,124.711 279.479 L 122.909 277.593 123.136 278.889 M215.334 278.404 C 216.077 280.744,216.292 284.740,216.294 296.204 L 216.296 308.889 214.815 308.889 L 213.333 308.889 213.333 310.926 L 213.333 312.963 216.667 312.963 L 220.000 312.963 219.994 299.352 C 219.988 284.324,219.781 282.424,217.903 280.104 C 216.402 278.248,214.988 277.313,215.334 278.404 M350.729 280.025 C 359.213 295.057,344.535 313.822,329.954 306.585 C 327.054 305.145,327.326 305.878,330.767 308.773 C 346.706 322.184,366.567 296.113,352.034 280.857 C 350.280 279.015,350.091 278.894,350.729 280.025 M201.667 279.492 C 201.259 279.581,200.218 279.837,199.352 280.060 L 197.778 280.467 197.778 294.863 L 197.778 309.259 193.704 309.259 L 189.630 309.259 189.630 311.296 L 189.630 313.333 195.556 313.333 L 201.481 313.333 201.481 299.065 L 201.481 284.796 202.500 284.403 C 204.123 283.777,206.749 283.459,208.056 283.731 C 209.681 284.068,209.576 283.659,207.475 281.480 C 206.303 280.263,205.383 279.628,204.790 279.625 C 204.295 279.622,203.556 279.554,203.148 279.474 C 202.741 279.395,202.074 279.402,201.667 279.492 M158.193 281.745 C 152.559 284.520,151.556 297.542,156.768 300.237 L 157.830 300.787 157.579 299.110 C 156.326 290.760,160.004 284.432,165.563 285.372 C 166.943 285.605,167.037 285.564,167.037 284.727 C 167.037 282.263,161.162 280.282,158.193 281.745 M333.498 282.157 C 328.033 284.724,327.029 292.862,331.761 296.231 L 332.778 296.956 332.779 293.941 C 332.782 288.065,338.040 284.025,343.299 285.858 C 344.654 286.331,344.695 286.207,343.664 284.759 C 341.619 281.887,336.734 280.636,333.498 282.157 M142.593 296.852 L 142.593 309.259 137.963 309.259 L 133.333 309.259 133.333 311.296 L 133.333 313.333 140.000 313.333 L 146.667 313.333 146.667 301.723 C 146.667 295.337,146.559 288.837,146.427 287.278 L 146.188 284.444 144.390 284.444 L 142.593 284.444 142.593 296.852 M240.370 299.297 C 234.441 301.439,235.026 301.393,231.788 299.972 C 228.706 298.619,228.563 298.671,229.995 300.617 C 231.033 302.028,236.963 305.185,238.577 305.185 C 239.606 305.185,245.868 302.904,246.003 302.480 C 246.225 301.782,245.888 297.403,245.615 297.450 C 245.481 297.473,243.120 298.304,240.370 299.297 " stroke="none" fill="#7c7c7b" fill-rule="evenodd"></path></g></svg>