<svg id="svg" version="1.1" xmlns="http://www.w3.org/2000/svg" xmlns:xlink="http://www.w3.org/1999/xlink" width="400" height="400" viewBox="0, 0, 400,400"><g id="svgg"><path id="path0" d="M0.000 200.000 L 0.000 400.000 200.000 400.000 L 400.000 400.000 400.000 200.000 L 400.000 0.000 200.000 0.000 L 0.000 0.000 0.000 200.000 M304.540 68.695 C 309.241 69.550,318.540 72.612,318.508 73.293 C 318.502 73.417,317.127 74.269,315.453 75.185 C 298.235 84.615,286.585 103.988,286.501 123.333 C 286.475 129.358,286.779 134.780,287.130 134.568 C 287.282 134.476,287.407 134.646,287.407 134.947 C 287.407 138.436,301.105 141.786,301.962 138.506 C 302.290 137.255,305.619 136.508,306.581 137.470 C 308.662 139.551,314.423 132.914,312.940 130.143 C 312.330 129.003,312.587 128.746,316.111 126.965 C 319.476 125.265,319.533 125.182,319.829 121.545 C 320.259 116.249,320.684 116.013,323.900 119.286 C 327.002 122.441,326.879 122.403,330.984 121.468 C 335.029 120.547,335.634 120.723,334.919 122.617 C 334.553 123.586,334.619 123.991,335.395 125.536 C 336.436 127.608,336.607 130.762,335.785 132.729 C 335.436 133.563,335.387 134.157,335.631 134.592 C 336.189 135.589,335.714 136.251,334.465 136.216 C 333.843 136.198,333.332 136.084,333.330 135.962 C 333.328 135.840,332.036 135.694,330.459 135.637 L 327.593 135.534 324.974 138.388 C 321.664 141.995,321.454 141.932,320.558 137.048 L 319.866 133.280 317.447 132.183 C 316.117 131.580,314.900 130.884,314.742 130.636 C 314.571 130.366,314.454 130.640,314.450 131.316 C 314.435 134.253,311.158 138.114,308.148 138.741 C 307.639 138.847,306.889 139.123,306.481 139.355 C 306.074 139.587,304.741 139.912,303.519 140.076 C 302.296 140.241,300.328 140.509,299.144 140.673 C 295.280 141.206,291.991 140.474,288.802 138.369 L 287.789 137.700 288.125 138.757 C 288.310 139.339,288.914 141.231,289.468 142.963 C 290.725 146.890,293.554 152.599,296.167 156.481 C 299.507 161.445,298.980 161.111,303.485 161.111 L 307.407 161.111 307.407 163.333 L 307.407 165.556 309.444 165.556 L 311.481 165.556 311.481 167.574 L 311.481 169.593 313.611 169.704 L 315.741 169.815 315.855 171.817 C 315.932 173.168,315.811 173.919,315.484 174.126 C 315.093 174.374,315.098 174.434,315.512 174.439 C 315.793 174.442,316.607 174.805,317.319 175.245 L 318.615 176.046 317.270 176.735 L 315.926 177.425 315.948 187.694 C 315.965 195.794,316.063 197.814,316.411 197.257 C 322.044 188.240,331.185 184.991,339.504 189.049 C 345.044 191.751,355.747 203.438,357.624 208.836 C 363.263 225.050,348.058 240.853,333.479 233.930 C 330.180 232.363,319.993 222.767,317.363 218.748 L 315.938 216.571 315.839 226.711 L 315.741 236.852 308.611 236.952 L 301.481 237.053 301.481 234.823 L 301.481 232.593 299.444 232.593 L 297.407 232.593 297.407 230.556 L 297.407 228.519 295.370 228.519 L 293.333 228.519 293.333 232.778 L 293.333 237.037 286.296 237.037 L 279.259 237.037 279.259 234.815 L 279.259 232.593 277.222 232.593 L 275.185 232.593 275.185 230.556 C 275.185 228.539,275.174 228.519,274.074 228.519 L 272.963 228.519 272.963 232.778 L 272.963 237.037 265.759 237.037 L 258.555 237.037 258.444 234.907 L 258.333 232.778 256.204 232.667 L 254.074 232.556 254.074 230.537 L 254.074 228.519 252.037 228.519 L 250.000 228.519 250.001 218.611 L 250.002 208.704 247.489 208.824 L 244.977 208.943 243.415 207.091 C 241.426 204.732,239.077 204.039,235.648 204.798 C 231.857 205.638,232.222 203.856,232.222 221.495 L 232.222 237.037 225.741 237.037 L 219.259 237.037 219.259 234.815 L 219.259 232.593 217.037 232.593 L 214.815 232.593 214.815 230.556 L 214.815 228.519 213.519 228.519 L 212.222 228.519 212.222 232.778 L 212.222 237.037 205.741 237.037 L 199.259 237.037 199.259 235.255 L 199.259 233.474 196.019 234.570 C 189.220 236.870,185.289 236.347,181.740 232.669 C 180.619 231.507,179.143 230.046,178.462 229.423 C 177.780 228.800,176.889 227.924,176.481 227.475 C 176.074 227.026,174.953 225.919,173.990 225.014 L 172.239 223.369 172.138 230.111 L 172.037 236.852 168.241 236.957 L 164.444 237.063 164.444 234.828 L 164.444 232.593 162.407 232.593 L 160.370 232.593 160.370 230.556 L 160.370 228.519 158.148 228.519 L 155.926 228.519 155.926 216.667 C 155.926 208.079,155.810 204.815,155.506 204.815 C 155.275 204.815,154.443 205.007,153.658 205.243 L 152.230 205.670 152.134 221.261 L 152.037 236.852 145.556 236.852 L 139.074 236.852 138.963 234.722 L 138.852 232.593 136.833 232.593 L 134.815 232.593 134.815 230.556 L 134.815 228.519 132.583 228.519 L 130.351 228.519 130.453 216.557 L 130.556 204.595 128.611 205.136 L 126.667 205.677 126.667 221.357 L 126.667 237.037 120.185 237.037 L 113.704 237.037 113.704 234.815 L 113.704 232.593 111.481 232.593 L 109.259 232.593 109.259 230.556 L 109.259 228.519 107.222 228.519 L 105.185 228.519 105.185 208.148 L 105.185 187.778 111.852 187.778 L 118.519 187.778 118.519 189.444 C 118.519 191.320,118.520 191.321,120.007 190.552 L 121.089 189.992 121.193 194.718 L 121.296 199.444 122.222 199.444 L 123.148 199.444 123.251 194.367 L 123.354 189.289 124.672 189.042 C 127.901 188.436,132.623 189.839,135.607 192.292 C 137.770 194.069,137.566 194.086,142.816 191.710 C 148.930 188.944,149.336 188.882,150.370 190.555 C 151.676 192.668,152.886 191.806,152.189 189.259 C 151.606 187.128,158.728 189.048,160.940 191.618 C 161.664 192.460,162.373 193.266,162.517 193.411 C 162.660 193.556,163.528 194.416,164.444 195.323 C 165.361 196.230,166.390 197.279,166.731 197.653 C 167.073 198.027,168.031 198.975,168.861 199.760 C 169.691 200.545,170.390 201.461,170.414 201.797 C 170.438 202.133,170.593 201.601,170.758 200.615 C 172.648 189.359,179.417 185.705,190.093 190.178 C 190.640 190.408,190.741 190.243,190.741 189.114 L 190.741 187.778 197.407 187.778 L 204.074 187.778 204.074 189.815 L 204.074 191.852 206.111 191.852 L 208.148 191.852 208.148 194.074 L 208.148 196.296 209.444 196.296 L 210.741 196.296 210.741 192.037 L 210.741 187.778 217.407 187.778 L 224.074 187.778 224.074 189.484 C 224.074 190.971,224.157 191.154,224.722 190.905 C 232.521 187.477,238.822 188.003,241.800 192.332 C 242.396 193.198,243.328 194.144,243.872 194.435 C 244.416 194.726,245.336 195.611,245.917 196.401 C 246.498 197.191,247.655 198.421,248.487 199.133 L 250.000 200.428 250.000 198.498 L 250.000 196.568 257.130 196.741 C 261.051 196.836,262.884 196.851,261.204 196.776 C 258.242 196.642,258.148 196.610,258.148 195.726 C 258.148 194.859,258.040 194.815,255.926 194.815 L 253.704 194.815 253.704 192.778 L 253.704 190.741 251.667 190.741 L 249.630 190.741 249.630 185.556 L 249.630 180.370 257.222 180.370 L 264.815 180.370 264.815 182.407 L 264.815 184.444 266.833 184.444 L 268.852 184.444 268.963 186.574 C 269.061 188.461,269.169 188.717,269.907 188.822 L 270.741 188.940 270.741 182.696 L 270.741 176.451 268.611 175.414 C 248.320 165.542,235.487 142.152,237.741 119.150 C 240.968 86.208,271.997 62.772,304.540 68.695 M102.412 125.098 C 102.619 125.248,102.952 125.853,103.153 126.443 C 103.923 128.702,106.520 128.692,107.107 126.428 C 107.462 125.057,108.422 124.559,109.203 125.341 C 109.669 125.807,109.685 126.133,109.302 127.409 C 108.226 131.004,103.009 131.460,101.277 128.112 C 100.272 126.167,101.047 124.108,102.412 125.098 M132.148 125.259 C 132.393 125.504,132.593 125.949,132.593 126.249 C 132.593 128.691,136.263 128.604,136.721 126.151 C 136.936 124.998,138.095 124.500,138.692 125.303 C 140.043 127.121,137.411 130.370,134.587 130.370 C 131.253 130.370,128.413 125.287,131.500 124.844 C 131.612 124.828,131.904 125.015,132.148 125.259 M332.962 126.940 L 332.185 128.696 333.001 130.181 C 334.293 132.534,334.549 132.781,334.864 131.980 C 335.524 130.303,334.817 125.185,333.925 125.185 C 333.822 125.185,333.389 125.975,332.962 126.940 M321.944 130.626 C 322.301 130.719,322.884 130.719,323.241 130.626 C 323.597 130.533,323.306 130.456,322.593 130.456 C 321.880 130.456,321.588 130.533,321.944 130.626 M115.226 134.173 C 117.171 138.869,120.982 138.856,122.933 134.147 C 123.457 132.882,124.421 132.598,125.162 133.490 C 126.479 135.077,121.782 140.370,119.056 140.370 C 115.824 140.370,110.981 134.272,113.218 133.020 C 114.110 132.521,114.677 132.846,115.226 134.173 M71.978 163.946 C 77.916 164.231,77.855 164.161,74.048 166.296 C 70.299 168.399,69.637 169.055,70.443 169.861 C 70.968 170.386,71.415 170.214,75.231 168.017 L 79.441 165.595 79.823 166.964 C 80.176 168.229,80.321 168.342,81.726 168.445 C 83.199 168.553,83.263 168.612,83.713 170.297 C 84.248 172.301,84.905 172.963,86.357 172.963 C 87.292 172.963,87.443 173.158,88.002 175.093 C 88.341 176.264,89.422 179.970,90.405 183.329 C 91.548 187.233,92.065 189.565,91.837 189.792 C 91.236 190.394,91.443 191.541,92.188 191.736 C 92.577 191.837,92.970 192.197,93.062 192.534 C 93.604 194.523,105.684 236.193,105.829 236.574 C 105.965 236.933,104.657 237.037,100.028 237.037 C 95.569 237.037,94.015 236.919,93.908 236.574 C 93.829 236.319,93.543 235.361,93.272 234.444 C 92.797 232.841,92.718 232.773,91.212 232.664 C 89.713 232.556,89.630 232.485,89.250 230.998 C 89.031 230.143,88.786 229.246,88.706 229.004 C 88.625 228.761,87.847 228.511,86.977 228.448 L 85.394 228.333 83.716 221.899 L 82.037 215.465 77.983 215.706 C 75.753 215.839,73.856 216.021,73.767 216.109 C 73.678 216.198,72.669 220.902,71.525 226.561 L 69.444 236.852 64.493 236.955 L 59.542 237.059 59.805 235.289 C 59.949 234.315,60.094 233.352,60.126 233.148 C 60.159 232.941,59.078 232.729,57.666 232.668 C 55.495 232.573,55.172 232.471,55.331 231.927 C 55.433 231.580,55.627 230.671,55.762 229.907 L 56.008 228.519 53.560 228.519 C 52.213 228.519,51.111 228.364,51.111 228.174 C 51.111 227.985,53.694 213.489,56.852 195.962 C 60.009 178.434,62.593 164.005,62.593 163.898 C 62.593 163.636,65.868 163.653,71.978 163.946 M290.463 169.895 C 291.023 169.980,291.940 169.980,292.500 169.895 C 293.060 169.810,292.602 169.741,291.481 169.741 C 290.361 169.741,289.903 169.810,290.463 169.895 M77.069 195.556 C 77.046 196.065,76.926 196.856,76.804 197.315 C 76.639 197.927,76.739 198.148,77.179 198.148 C 77.828 198.148,77.917 197.146,77.407 195.556 L 77.111 194.630 77.069 195.556 M264.444 200.000 L 264.444 201.111 266.667 201.111 L 268.889 201.111 268.889 203.148 C 268.889 205.074,268.939 205.185,269.815 205.185 C 270.730 205.185,270.741 205.148,270.741 202.037 L 270.741 198.889 267.593 198.889 L 264.444 198.889 264.444 200.000 M170.115 207.222 C 170.117 208.444,170.186 208.900,170.268 208.234 C 170.351 207.568,170.349 206.568,170.265 206.012 C 170.180 205.455,170.113 206.000,170.115 207.222 M188.154 208.001 C 185.502 210.398,184.319 212.990,184.136 216.805 L 183.978 220.109 186.341 219.912 C 187.640 219.804,189.162 219.503,189.722 219.243 L 190.741 218.770 190.741 212.718 C 190.741 205.838,190.677 205.722,188.154 208.001 M337.584 207.360 C 334.584 208.723,332.247 212.039,332.230 214.958 L 332.222 216.397 333.890 216.168 C 338.246 215.571,341.852 211.710,341.852 207.642 C 341.852 206.419,339.935 206.292,337.584 207.360 " stroke="none" fill="#ddc413" fill-rule="evenodd"></path><path id="path1" d="M270.995 161.381 C 270.902 161.538,270.914 176.708,271.023 195.093 L 271.220 228.519 278.205 228.519 L 285.189 228.519 285.095 194.907 L 285.000 161.296 278.082 161.196 C 274.278 161.140,271.088 161.224,270.995 161.381 M300.993 162.685 C 302.528 164.412,306.870 168.519,307.161 168.519 C 307.297 168.519,307.407 166.935,307.407 165.000 L 307.407 161.481 303.665 161.481 L 299.923 161.481 300.993 162.685 M62.793 164.134 C 62.699 164.407,60.116 178.630,57.053 195.741 C 53.990 212.852,51.397 227.227,51.291 227.685 C 51.097 228.517,51.104 228.519,56.038 228.519 L 60.979 228.519 63.114 218.056 C 64.288 212.301,65.276 207.565,65.310 207.532 C 65.521 207.320,80.000 206.982,80.000 207.189 C 80.000 207.330,81.250 212.117,82.778 217.827 C 84.306 223.536,85.556 228.277,85.556 228.363 C 85.556 228.448,88.233 228.519,91.506 228.519 C 97.000 228.519,97.443 228.469,97.266 227.870 C 96.986 226.919,84.405 183.350,81.785 174.259 C 80.553 169.981,79.438 166.364,79.307 166.221 C 79.177 166.077,77.358 166.963,75.265 168.190 C 71.238 170.551,70.185 170.773,70.185 169.265 C 70.185 168.510,70.749 168.026,73.478 166.435 L 76.770 164.514 74.404 164.304 C 67.706 163.710,62.964 163.640,62.793 164.134 M304.444 180.566 C 303.120 180.838,300.079 181.180,297.685 181.326 L 293.333 181.593 293.333 205.056 L 293.333 228.519 300.370 228.519 L 307.407 228.519 307.407 204.259 C 307.407 190.917,307.282 180.016,307.130 180.036 C 306.977 180.056,305.769 180.295,304.444 180.566 M249.712 185.463 L 249.815 190.556 257.315 190.656 L 264.815 190.756 264.815 185.563 L 264.815 180.370 257.212 180.370 L 249.609 180.370 249.712 185.463 M76.060 189.865 C 77.222 194.272,78.122 197.928,78.061 197.989 C 77.894 198.155,66.996 198.973,66.864 198.829 C 66.669 198.616,69.426 182.806,69.744 182.315 C 69.921 182.041,70.841 181.852,71.997 181.852 L 73.949 181.852 76.060 189.865 M328.190 187.993 C 314.039 191.798,309.386 211.034,319.993 221.874 C 331.765 233.906,351.284 223.859,350.259 206.296 C 349.534 193.885,338.943 185.101,328.190 187.993 M105.185 208.148 L 105.185 228.519 111.873 228.519 L 118.562 228.519 118.492 213.191 C 118.417 196.685,118.368 197.210,120.004 196.851 L 121.111 196.608 121.111 193.489 C 121.111 191.774,121.020 190.370,120.908 190.370 C 120.796 190.370,120.212 190.625,119.611 190.935 L 118.519 191.501 118.519 189.639 L 118.519 187.778 111.852 187.778 L 105.185 187.778 105.185 208.148 M190.741 189.216 L 190.741 190.655 188.426 189.679 C 182.466 187.168,175.375 189.026,172.952 193.736 C 169.205 201.020,169.745 220.517,173.812 224.753 C 176.999 228.073,181.296 228.431,188.322 225.961 C 189.536 225.534,190.577 225.185,190.635 225.185 C 190.693 225.185,190.741 225.935,190.741 226.852 L 190.741 228.519 197.407 228.519 L 204.074 228.519 204.074 208.148 L 204.074 187.778 197.407 187.778 L 190.741 187.778 190.741 189.216 M210.741 208.148 L 210.741 228.519 217.407 228.519 L 224.074 228.519 224.074 212.954 L 224.074 197.389 225.049 197.019 C 229.345 195.385,232.421 195.854,234.844 198.511 L 236.540 200.370 240.173 200.370 L 243.806 200.370 243.556 198.241 C 242.508 189.302,234.750 186.110,225.463 190.796 L 224.074 191.497 224.074 189.637 L 224.074 187.778 217.407 187.778 L 210.741 187.778 210.741 208.148 M152.651 188.832 C 152.249 189.098,152.242 189.301,152.617 189.901 C 153.236 190.892,152.815 191.852,151.763 191.852 C 151.172 191.852,150.701 191.464,150.233 190.596 C 149.395 189.040,148.974 189.120,142.315 192.096 L 137.778 194.123 135.648 192.475 C 132.776 190.253,129.751 189.149,126.594 189.172 C 123.314 189.196,123.333 189.174,123.333 192.783 L 123.333 195.892 124.722 196.122 C 127.089 196.514,128.138 197.085,129.463 198.702 L 130.741 200.261 130.741 214.390 L 130.741 228.519 137.218 228.519 L 143.696 228.519 143.792 212.908 L 143.889 197.297 145.370 196.764 C 149.312 195.345,153.337 196.325,155.319 199.185 L 156.296 200.595 156.296 214.557 L 156.296 228.519 160.028 228.519 L 163.760 228.519 163.602 212.870 C 163.434 196.330,163.351 195.489,161.605 192.688 C 159.941 190.018,154.443 187.651,152.651 188.832 M250.000 212.778 L 250.000 228.519 257.222 228.519 L 264.444 228.519 264.444 212.778 L 264.444 197.037 257.222 197.037 L 250.000 197.037 250.000 212.778 M186.990 198.687 C 188.085 198.978,189.377 199.588,189.861 200.043 L 190.741 200.870 190.741 210.065 C 190.741 215.122,190.671 219.259,190.585 219.259 C 190.500 219.259,189.399 219.523,188.139 219.846 C 181.318 221.594,176.718 218.354,175.888 211.219 C 174.832 202.147,179.632 196.728,186.990 198.687 M336.950 199.215 C 345.376 203.513,342.247 216.402,332.778 216.402 C 324.034 216.402,320.502 205.050,327.648 199.915 C 330.323 197.992,334.010 197.715,336.950 199.215 " stroke="none" fill="#fafaf9" fill-rule="evenodd"></path><path id="path2" d="M252.778 108.518 C 252.314 109.269,253.357 111.047,254.493 111.443 C 256.225 112.047,258.519 110.650,258.519 108.992 C 258.519 108.167,257.837 108.480,257.330 109.537 C 256.572 111.119,254.482 111.001,253.647 109.329 C 253.277 108.588,252.933 108.267,252.778 108.518 M266.667 109.750 C 266.667 110.880,268.126 112.222,269.355 112.222 C 270.758 112.222,272.330 110.760,272.155 109.618 C 272.017 108.714,272.009 108.717,271.382 109.881 C 270.318 111.859,267.407 111.669,267.407 109.621 C 267.407 109.218,267.241 108.889,267.037 108.889 C 266.833 108.889,266.667 109.277,266.667 109.750 M275.181 111.672 C 274.884 112.030,274.791 112.801,274.924 113.801 C 275.385 117.264,266.811 121.035,260.676 120.068 C 254.979 119.170,250.492 116.564,250.668 114.256 C 250.736 113.373,250.561 112.480,250.236 112.038 C 249.514 111.058,249.140 111.490,249.619 112.751 C 250.357 114.691,248.575 116.346,246.621 115.537 C 245.296 114.988,244.719 115.404,245.741 116.172 C 246.269 116.569,246.998 116.670,248.282 116.525 C 249.789 116.355,250.272 116.464,251.245 117.193 C 258.077 122.318,266.945 122.315,274.157 117.185 C 275.548 116.196,276.137 115.987,277.025 116.164 C 278.335 116.426,280.370 115.691,280.370 114.955 C 280.370 114.301,280.175 114.313,279.079 115.031 C 277.333 116.175,275.016 114.256,275.873 112.375 C 276.520 110.955,276.116 110.545,275.181 111.672 M332.593 122.804 C 332.593 122.920,333.077 123.719,333.669 124.579 C 336.131 128.157,335.828 133.554,333.128 134.231 C 332.277 134.445,332.265 134.488,332.876 135.119 C 333.588 135.853,334.500 136.027,334.358 135.401 C 334.308 135.181,334.666 134.354,335.155 133.565 C 336.843 130.838,336.557 127.050,334.443 124.131 C 333.469 122.786,332.593 122.158,332.593 122.804 M327.066 124.145 C 327.024 125.042,326.362 125.330,325.664 124.754 C 325.156 124.335,325.092 124.344,325.247 124.815 C 325.497 125.581,326.987 125.747,327.259 125.038 C 327.379 124.725,327.391 124.255,327.286 123.994 C 327.163 123.687,327.085 123.740,327.066 124.145 M328.519 124.284 C 328.519 124.399,328.697 124.826,328.914 125.233 C 329.474 126.278,326.729 129.014,324.525 129.608 C 322.529 130.145,320.470 129.787,320.173 128.850 C 319.840 127.800,319.209 128.003,319.478 129.074 C 319.670 129.842,319.577 130.000,318.929 130.000 C 318.500 130.000,318.148 130.167,318.148 130.370 C 318.148 130.786,319.369 130.877,319.756 130.491 C 319.893 130.354,321.010 130.283,322.238 130.333 C 325.069 130.448,327.448 129.380,328.838 127.368 C 329.375 126.591,330.003 125.948,330.232 125.940 C 330.898 125.918,331.585 124.922,331.129 124.641 C 330.916 124.509,330.741 124.577,330.741 124.793 C 330.741 125.393,329.635 125.259,329.393 124.630 C 329.191 124.103,328.519 123.837,328.519 124.284 M100.983 125.724 C 100.695 126.476,101.326 128.114,102.306 129.161 C 104.594 131.604,109.259 129.773,109.259 126.432 C 109.259 124.641,108.065 124.722,107.160 126.574 C 106.073 128.798,103.228 128.526,102.891 126.165 C 102.754 125.206,101.310 124.873,100.983 125.724 M130.617 125.432 C 129.781 126.268,131.003 128.993,132.580 129.809 C 135.421 131.277,139.229 129.062,138.819 126.179 C 138.669 125.127,137.037 124.797,137.037 125.818 C 137.037 128.741,133.136 129.070,132.451 126.204 C 132.220 125.236,131.230 124.819,130.617 125.432 M321.852 126.089 C 321.852 126.871,321.160 127.168,320.539 126.653 C 320.107 126.295,320.000 126.317,320.000 126.767 C 320.000 127.431,320.883 127.842,321.667 127.541 C 322.162 127.351,322.497 125.556,322.037 125.556 C 321.935 125.556,321.852 125.796,321.852 126.089 M239.334 128.796 C 239.857 137.630,248.233 142.980,256.933 140.038 C 258.199 139.610,259.699 139.257,260.266 139.254 C 260.985 139.250,261.144 139.152,260.794 138.930 C 260.447 138.710,260.417 138.533,260.698 138.360 C 260.986 138.182,260.970 137.965,260.644 137.612 C 260.392 137.338,260.060 137.190,259.907 137.283 C 259.755 137.375,259.630 137.275,259.630 137.059 C 259.630 136.843,259.463 136.667,259.259 136.667 C 259.056 136.667,258.889 137.070,258.889 137.562 C 258.889 139.896,250.616 140.710,246.607 138.770 C 242.656 136.858,240.381 133.319,240.076 128.611 C 239.981 127.134,239.736 125.926,239.533 125.926 C 239.305 125.926,239.229 127.022,239.334 128.796 M284.149 128.796 C 284.648 137.233,292.127 142.437,300.770 140.363 C 301.845 140.106,303.319 139.855,304.047 139.806 C 309.322 139.450,313.696 135.827,314.317 131.297 C 314.631 129.006,313.983 129.192,313.422 131.555 C 312.368 135.991,309.915 137.883,305.678 137.528 C 303.109 137.312,302.210 137.629,301.786 138.902 C 301.424 139.986,296.459 140.292,293.358 139.421 C 288.080 137.940,284.815 133.412,284.815 127.574 C 284.815 126.597,284.645 125.926,284.397 125.926 C 284.108 125.926,284.031 126.811,284.149 128.796 M112.963 134.002 C 112.963 138.075,118.379 141.324,121.746 139.271 C 123.987 137.905,125.969 133.713,124.618 133.195 C 123.942 132.936,122.963 133.525,122.963 134.192 C 122.963 135.005,121.022 137.355,120.001 137.777 C 118.419 138.433,117.092 137.623,115.596 135.090 C 114.182 132.694,112.963 132.191,112.963 134.002 M285.185 199.074 L 285.185 228.519 282.222 228.519 L 279.259 228.519 279.259 230.556 L 279.259 232.593 284.259 232.593 L 289.259 232.593 289.259 201.111 L 289.259 169.630 287.222 169.630 L 285.185 169.630 285.185 199.074 M309.815 170.544 C 311.224 171.699,311.481 171.701,311.481 170.556 C 311.481 169.732,311.328 169.630,310.093 169.631 L 308.704 169.633 309.815 170.544 M81.481 172.435 C 81.481 172.752,97.475 227.957,97.648 228.237 C 97.743 228.392,96.400 228.519,94.663 228.519 C 92.301 228.519,91.544 228.635,91.660 228.981 C 91.745 229.236,91.997 230.153,92.218 231.019 L 92.621 232.593 97.091 232.593 L 101.562 232.593 101.310 231.574 C 100.969 230.194,84.388 172.788,84.316 172.738 C 84.095 172.582,81.481 172.303,81.481 172.435 M309.352 179.575 L 307.407 180.176 307.407 204.347 L 307.407 228.519 304.444 228.519 L 301.481 228.519 301.481 230.556 L 301.481 232.593 306.481 232.593 L 311.481 232.593 311.481 205.741 C 311.481 190.972,311.440 178.908,311.389 178.932 C 311.338 178.956,310.421 179.245,309.352 179.575 M71.389 182.128 C 70.421 182.202,69.627 182.379,69.625 182.520 C 69.622 182.662,69.041 186.194,68.333 190.370 C 67.626 194.546,67.044 198.130,67.041 198.333 C 67.038 198.555,67.984 198.655,69.392 198.582 L 71.748 198.460 72.367 194.693 C 73.692 186.631,73.769 186.296,74.297 186.296 C 74.923 186.296,74.924 186.218,74.327 183.914 C 73.804 181.897,73.870 181.937,71.389 182.128 M264.815 189.630 L 264.815 190.741 261.296 190.741 L 257.778 190.741 257.778 192.778 L 257.778 194.815 263.333 194.815 L 268.889 194.815 268.889 191.667 L 268.889 188.519 266.852 188.519 C 264.835 188.519,264.815 188.530,264.815 189.630 M204.074 212.222 L 204.074 228.519 197.588 228.519 C 194.020 228.519,190.812 228.360,190.458 228.166 C 187.778 226.697,187.228 226.606,184.655 227.203 C 183.292 227.519,181.603 227.778,180.903 227.778 C 179.523 227.778,179.362 228.138,179.998 229.809 C 180.959 232.337,186.666 232.427,193.017 230.013 C 194.107 229.599,195.042 229.260,195.093 229.259 C 195.144 229.259,195.185 230.009,195.185 230.926 L 195.185 232.593 201.667 232.593 L 208.148 232.593 208.148 214.259 L 208.148 195.926 206.111 195.926 L 204.074 195.926 204.074 212.222 M123.699 197.130 C 123.686 199.221,122.902 200.238,121.667 199.764 C 121.304 199.625,121.111 199.049,121.111 198.109 C 121.111 197.316,121.053 196.667,120.981 196.667 C 120.910 196.667,120.326 196.850,119.685 197.073 L 118.519 197.480 118.519 212.999 L 118.519 228.519 116.111 228.519 L 113.704 228.519 113.704 230.556 L 113.704 232.593 118.148 232.593 L 122.593 232.593 122.593 217.072 L 122.593 201.551 124.325 200.961 C 125.278 200.636,127.049 200.370,128.259 200.370 L 130.461 200.370 129.890 199.537 C 129.576 199.079,129.097 198.766,128.826 198.841 C 128.555 198.917,128.042 199.062,127.685 199.162 C 127.156 199.312,127.037 199.107,127.037 198.046 C 127.037 196.635,126.601 196.296,124.785 196.296 C 123.912 196.296,123.703 196.457,123.699 197.130 M225.833 196.889 L 224.074 197.430 224.074 212.974 L 224.074 228.519 221.667 228.519 L 219.259 228.519 219.259 230.556 L 219.259 232.593 223.704 232.593 L 228.148 232.593 228.148 217.067 L 228.148 201.541 230.008 200.923 C 231.170 200.537,232.686 200.352,234.047 200.430 C 235.941 200.539,236.184 200.479,235.911 199.970 C 235.362 198.947,234.646 198.535,234.062 198.904 C 233.031 199.557,232.593 199.288,232.593 198.003 C 232.593 196.158,229.740 195.688,225.833 196.889 M163.647 202.373 C 163.718 205.446,163.926 208.242,164.110 208.585 C 164.294 208.929,164.444 214.472,164.444 220.902 L 164.444 232.593 166.136 232.593 L 167.827 232.593 167.693 216.574 C 167.539 198.015,167.489 197.682,164.768 197.068 L 163.519 196.786 163.647 202.373 M243.821 198.530 L 244.039 200.370 241.124 200.370 C 236.991 200.370,236.912 200.450,238.931 202.601 L 240.662 204.444 244.382 204.444 L 248.102 204.444 247.915 203.056 C 247.294 198.440,246.874 197.628,244.800 197.033 L 243.603 196.690 243.821 198.530 M348.519 197.870 C 348.519 197.921,348.838 198.802,349.227 199.827 C 350.366 202.822,350.891 207.348,350.418 210.078 C 350.196 211.359,350.026 213.600,350.040 215.057 C 350.091 220.183,347.264 223.731,342.428 224.610 C 341.624 224.756,340.173 225.278,339.202 225.770 C 335.474 227.659,329.218 227.814,325.902 226.099 C 324.577 225.414,324.509 225.876,325.722 227.317 C 328.142 230.194,334.102 231.953,338.907 231.209 C 352.071 229.171,358.986 212.550,351.624 200.641 C 350.523 198.860,348.517 197.070,348.519 197.870 M152.037 199.680 C 150.815 200.284,150.120 200.687,150.493 200.574 C 150.866 200.462,152.245 200.370,153.557 200.370 L 155.943 200.370 155.336 199.444 C 154.608 198.334,154.788 198.321,152.037 199.680 M182.996 199.599 C 180.587 201.849,178.980 207.187,178.621 214.131 L 178.417 218.077 179.633 218.705 C 180.801 219.309,180.837 219.307,180.562 218.649 C 179.700 216.590,179.888 210.052,180.866 208.052 C 183.027 203.636,185.467 201.919,188.930 202.378 C 192.240 202.817,190.800 199.927,187.212 198.931 C 184.972 198.309,184.255 198.423,182.996 199.599 M329.750 199.627 C 323.740 204.047,322.528 210.228,326.916 214.081 C 328.499 215.470,328.577 215.424,328.113 213.360 C 326.748 207.284,332.299 201.621,338.672 202.588 C 340.677 202.892,340.760 202.669,339.216 201.125 C 336.359 198.268,332.441 197.648,329.750 199.627 M143.704 214.630 L 143.704 228.519 141.296 228.519 L 138.889 228.519 138.889 230.556 L 138.889 232.593 143.333 232.593 L 147.778 232.593 147.778 217.024 C 147.778 201.503,147.776 201.457,147.027 201.857 C 146.430 202.177,146.059 202.103,145.211 201.500 C 144.625 201.082,144.046 200.741,143.924 200.741 C 143.803 200.741,143.704 206.991,143.704 214.630 M264.691 205.432 C 264.556 205.568,264.444 210.818,264.444 217.099 L 264.444 228.519 261.296 228.519 L 258.148 228.519 258.148 230.556 L 258.148 232.593 263.333 232.593 L 268.519 232.593 268.519 218.889 L 268.519 205.185 266.728 205.185 C 265.744 205.185,264.827 205.296,264.691 205.432 M65.377 207.870 C 65.292 208.125,64.374 212.667,63.336 217.963 C 62.299 223.259,61.289 227.926,61.093 228.333 C 60.897 228.741,60.592 229.866,60.416 230.833 L 60.096 232.593 62.633 232.593 C 65.057 232.593,65.182 232.549,65.413 231.630 C 65.545 231.101,66.517 226.393,67.572 221.167 L 69.490 211.667 75.153 211.564 L 80.816 211.462 80.575 210.502 C 80.443 209.975,80.238 209.063,80.121 208.475 L 79.907 207.407 72.720 207.407 C 67.299 207.407,65.494 207.521,65.377 207.870 " stroke="none" fill="#52490e" fill-rule="evenodd"></path><path id="path3" d="M287.608 68.185 C 238.881 74.158,220.043 135.234,256.973 167.509 C 260.664 170.734,269.249 176.296,270.537 176.296 C 270.641 176.296,270.771 172.921,270.826 168.796 L 270.926 161.296 277.963 161.296 L 285.000 161.296 285.111 163.426 L 285.222 165.556 287.241 165.556 L 289.259 165.556 289.259 167.593 L 289.259 169.630 291.296 169.630 L 293.333 169.630 293.333 175.612 L 293.333 181.594 297.500 181.355 C 303.700 180.998,311.534 179.207,316.804 176.942 C 318.865 176.056,318.805 175.941,315.382 174.212 C 311.068 172.034,305.952 167.981,301.413 163.148 L 300.022 161.667 303.807 161.461 L 307.593 161.256 303.578 161.184 C 298.974 161.100,299.500 161.434,296.167 156.481 C 293.339 152.280,290.653 146.744,289.246 142.221 C 288.453 139.669,287.487 137.506,286.435 135.926 C 284.700 133.320,283.584 129.787,283.774 127.497 C 283.966 125.177,284.839 125.770,285.005 128.333 C 285.161 130.751,285.920 133.258,286.886 134.550 C 287.254 135.044,287.417 135.126,287.293 134.757 C 287.180 134.420,286.888 132.086,286.644 129.572 C 284.537 107.825,296.258 85.697,315.453 75.185 C 319.161 73.155,319.151 73.316,315.648 71.941 C 306.823 68.476,296.508 67.094,287.608 68.185 M253.709 109.283 C 254.175 111.254,256.657 111.049,257.445 108.974 C 257.822 107.983,258.519 108.193,258.519 109.298 C 258.519 110.436,256.876 111.852,255.556 111.852 C 254.126 111.852,252.593 110.407,252.593 109.060 C 252.593 107.853,253.410 108.017,253.709 109.283 M267.569 109.815 C 268.307 111.583,270.082 111.679,271.036 110.002 C 272.078 108.171,273.018 108.844,272.045 110.724 C 271.465 111.846,270.139 112.462,268.704 112.277 C 267.255 112.090,265.717 109.591,266.543 108.765 C 266.932 108.377,266.995 108.441,267.569 109.815 M276.075 112.551 C 275.723 114.752,277.391 115.895,279.255 114.731 C 279.796 114.394,280.089 114.385,280.401 114.697 C 281.164 115.460,279.130 116.420,277.209 116.203 C 276.293 116.100,275.443 116.179,275.320 116.378 C 275.197 116.577,274.081 117.396,272.841 118.198 C 266.532 122.276,258.612 122.118,251.902 117.781 C 249.931 116.507,249.521 116.373,248.592 116.697 C 247.355 117.128,245.660 116.628,245.315 115.730 C 244.992 114.889,245.333 114.729,246.406 115.218 C 248.497 116.171,250.434 114.336,249.283 112.493 C 248.940 111.944,248.933 111.661,249.254 111.345 C 250.002 110.609,250.824 112.177,250.631 113.973 C 250.223 117.781,260.882 121.303,267.232 119.458 C 271.952 118.085,275.365 115.707,274.789 114.192 C 274.419 113.219,274.611 112.035,275.272 111.208 C 275.903 110.419,276.308 111.096,276.075 112.551 M320.428 117.685 C 320.242 118.042,319.972 119.778,319.829 121.545 C 319.529 125.230,319.563 125.185,315.612 127.236 C 312.803 128.694,312.179 129.364,312.929 130.114 C 313.262 130.447,313.438 130.430,313.678 130.042 C 314.035 129.465,314.815 129.798,314.815 130.528 C 314.815 130.794,315.951 131.520,317.340 132.141 L 319.864 133.270 320.557 137.043 C 321.455 141.939,321.662 142.000,324.993 138.354 L 327.630 135.466 330.332 135.737 C 333.005 136.005,333.029 136.000,332.613 135.223 C 332.246 134.538,332.314 134.391,333.143 134.076 C 334.564 133.536,334.602 132.892,333.337 130.746 L 332.189 128.799 333.011 126.815 C 333.782 124.954,333.795 124.789,333.213 124.146 C 332.872 123.769,332.593 123.265,332.593 123.026 C 332.593 122.368,333.694 122.508,333.960 123.200 C 334.254 123.967,335.185 122.880,335.185 121.769 C 335.185 120.709,334.462 120.657,330.981 121.469 C 329.204 121.883,327.571 122.222,327.354 122.222 C 327.136 122.222,325.755 121.056,324.284 119.630 C 321.458 116.889,320.972 116.644,320.428 117.685 M327.778 124.399 C 327.778 125.531,326.807 126.109,325.730 125.618 C 324.538 125.075,324.517 124.289,325.702 124.587 C 326.303 124.738,326.658 124.631,326.802 124.257 C 327.103 123.472,327.778 123.570,327.778 124.399 M329.522 124.444 C 329.744 125.293,330.037 125.370,330.660 124.747 C 330.902 124.506,331.189 124.399,331.299 124.509 C 331.619 124.829,331.074 125.926,330.594 125.926 C 330.354 125.926,329.515 126.694,328.730 127.633 C 326.879 129.847,325.377 130.451,321.389 130.585 C 318.339 130.687,317.159 130.345,318.950 129.877 C 319.636 129.697,319.681 129.582,319.262 129.077 C 318.916 128.660,318.888 128.372,319.166 128.093 C 319.445 127.814,319.746 127.981,320.193 128.664 C 322.065 131.521,329.335 128.247,328.656 124.853 C 328.396 123.554,329.192 123.180,329.522 124.444 M322.361 126.955 C 321.827 127.808,320.605 127.951,320.007 127.231 C 319.372 126.465,319.847 126.023,320.720 126.568 C 321.299 126.929,321.439 126.870,321.617 126.190 C 321.786 125.541,321.919 125.474,322.294 125.850 C 322.638 126.194,322.656 126.485,322.361 126.955 M240.146 128.352 C 240.951 136.211,246.792 140.842,254.352 139.616 C 257.486 139.107,258.438 138.617,258.712 137.371 C 258.931 136.372,259.630 135.836,259.630 136.667 C 259.630 136.870,259.889 137.037,260.207 137.037 C 260.525 137.037,260.681 137.204,260.556 137.407 C 260.430 137.611,260.607 137.778,260.949 137.778 C 261.461 137.778,261.490 137.877,261.111 138.333 C 260.768 138.747,260.762 138.889,261.088 138.889 C 261.328 138.889,261.422 139.056,261.296 139.259 C 261.170 139.463,260.515 139.630,259.840 139.630 C 259.164 139.630,257.882 139.889,256.991 140.207 C 251.813 142.051,244.782 140.162,241.678 136.094 C 239.860 133.710,238.344 128.251,239.014 126.504 C 239.475 125.304,239.906 126.008,240.146 128.352 M334.669 134.660 C 334.293 135.641,334.416 136.296,334.978 136.296 C 335.710 136.296,336.020 135.694,335.740 134.812 C 335.458 133.925,334.977 133.857,334.669 134.660 M67.875 163.969 C 68.438 164.055,69.272 164.052,69.727 163.964 C 70.183 163.877,69.722 163.807,68.704 163.810 C 67.685 163.812,67.312 163.884,67.875 163.969 M74.444 164.219 C 74.444 164.298,75.028 164.432,75.741 164.515 C 76.454 164.598,77.037 164.533,77.037 164.370 C 77.037 164.207,76.454 164.074,75.741 164.074 C 75.028 164.074,74.444 164.139,74.444 164.219 M270.916 202.593 C 270.916 216.954,270.962 222.829,271.018 215.648 C 271.075 208.468,271.075 196.718,271.018 189.537 C 270.962 182.356,270.916 188.231,270.916 202.593 M181.574 188.413 C 182.134 188.498,183.051 188.498,183.611 188.413 C 184.171 188.329,183.713 188.259,182.593 188.259 C 181.472 188.259,181.014 188.329,181.574 188.413 M152.407 190.741 C 152.407 191.313,152.532 191.704,152.685 191.609 C 152.838 191.515,152.963 191.124,152.963 190.741 C 152.963 190.357,152.838 189.966,152.685 189.872 C 152.532 189.778,152.407 190.169,152.407 190.741 M344.429 192.685 C 345.337 193.653,346.129 194.444,346.188 194.444 C 346.466 194.444,346.172 194.112,344.537 192.577 L 342.778 190.926 344.429 192.685 M319.792 192.685 L 318.704 193.889 319.907 192.801 C 321.029 191.787,321.281 191.481,320.995 191.481 C 320.931 191.481,320.390 192.023,319.792 192.685 M251.958 196.941 C 253.137 197.014,254.970 197.014,256.032 196.939 C 257.094 196.865,256.130 196.804,253.889 196.805 C 251.648 196.806,250.779 196.867,251.958 196.941 M156.094 214.444 C 156.094 222.287,156.143 225.495,156.203 221.574 C 156.263 217.653,156.263 211.236,156.203 207.315 C 156.143 203.394,156.094 206.602,156.094 214.444 M130.536 216.667 C 130.536 223.287,130.586 225.995,130.647 222.685 C 130.709 219.375,130.709 213.958,130.647 210.648 C 130.586 207.338,130.536 210.046,130.536 216.667 M175.661 207.963 C 175.664 208.981,175.736 209.354,175.821 208.791 C 175.906 208.228,175.904 207.395,175.816 206.939 C 175.728 206.484,175.659 206.944,175.661 207.963 M72.504 207.299 C 72.965 207.388,73.632 207.384,73.986 207.292 C 74.340 207.199,73.963 207.126,73.148 207.130 C 72.333 207.135,72.044 207.210,72.504 207.299 M339.051 213.796 L 337.963 215.000 339.167 213.912 C 339.829 213.314,340.370 212.772,340.370 212.708 C 340.370 212.422,340.065 212.674,339.051 213.796 M184.907 220.255 C 185.264 220.348,185.847 220.348,186.204 220.255 C 186.560 220.162,186.269 220.086,185.556 220.086 C 184.843 220.086,184.551 220.162,184.907 220.255 " stroke="none" fill="#faf25c" fill-rule="evenodd"></path><path id="path4" d="M262.130 120.261 C 262.588 120.350,263.338 120.350,263.796 120.261 C 264.255 120.173,263.880 120.101,262.963 120.101 C 262.046 120.101,261.671 120.173,262.130 120.261 M238.975 127.778 C 238.975 128.491,239.051 128.782,239.144 128.426 C 239.237 128.069,239.237 127.486,239.144 127.130 C 239.051 126.773,238.975 127.065,238.975 127.778 M335.271 129.630 C 335.271 130.343,335.347 130.634,335.440 130.278 C 335.534 129.921,335.534 129.338,335.440 128.981 C 335.347 128.625,335.271 128.917,335.271 129.630 M287.037 135.301 C 287.037 135.365,287.579 135.906,288.241 136.505 L 289.444 137.593 288.357 136.389 C 287.343 135.267,287.037 135.015,287.037 135.301 M304.356 137.299 C 304.817 137.388,305.484 137.384,305.838 137.292 C 306.192 137.199,305.815 137.126,305.000 137.130 C 304.185 137.135,303.895 137.210,304.356 137.299 M260.185 139.259 L 259.074 139.542 260.071 139.586 C 260.619 139.610,261.170 139.463,261.296 139.259 C 261.422 139.056,261.474 138.909,261.411 138.933 C 261.348 138.957,260.796 139.104,260.185 139.259 M118.430 140.262 C 118.891 140.351,119.558 140.347,119.912 140.254 C 120.266 140.162,119.889 140.089,119.074 140.093 C 118.259 140.098,117.970 140.173,118.430 140.262 M285.185 167.593 L 285.185 169.630 287.222 169.630 L 289.259 169.630 289.259 201.111 L 289.259 232.593 284.259 232.593 L 279.259 232.593 279.259 230.556 L 279.259 228.519 277.222 228.519 L 275.185 228.519 275.185 230.556 L 275.185 232.593 277.222 232.593 L 279.259 232.593 279.259 234.815 L 279.259 237.037 286.296 237.037 L 293.333 237.037 293.333 203.538 L 293.333 170.039 291.389 169.927 L 289.444 169.815 289.333 167.685 L 289.222 165.556 287.204 165.556 L 285.185 165.556 285.185 167.593 M307.407 167.100 C 307.407 169.185,308.093 169.875,309.984 169.695 L 311.481 169.552 311.481 167.554 L 311.481 165.556 309.444 165.556 L 307.407 165.556 307.407 167.100 M80.370 168.725 C 80.370 171.150,81.542 172.574,83.549 172.588 C 84.200 172.592,101.497 230.193,101.483 232.315 C 101.482 232.468,99.488 232.593,97.051 232.593 L 92.621 232.593 92.218 231.019 C 91.997 230.153,91.745 229.236,91.660 228.981 C 91.570 228.714,90.879 228.519,90.023 228.519 C 89.002 228.519,88.590 228.662,88.697 228.981 C 88.782 229.236,89.031 230.143,89.250 230.998 C 89.630 232.485,89.713 232.556,91.212 232.664 C 92.718 232.773,92.797 232.841,93.272 234.444 C 93.543 235.361,93.829 236.319,93.908 236.574 C 94.015 236.919,95.569 237.037,100.028 237.037 C 104.657 237.037,105.965 236.933,105.829 236.574 C 105.684 236.193,93.604 194.523,93.062 192.534 C 92.970 192.197,92.577 191.837,92.188 191.736 C 91.443 191.541,91.236 190.394,91.837 189.792 C 92.065 189.565,91.548 187.233,90.405 183.329 C 89.422 179.970,88.341 176.264,88.002 175.093 C 87.443 173.158,87.292 172.963,86.357 172.963 C 84.902 172.963,84.248 172.300,83.708 170.278 C 83.249 168.563,83.201 168.519,81.804 168.519 C 81.015 168.519,80.370 168.611,80.370 168.725 M311.415 170.630 C 311.312 171.532,311.551 171.823,313.259 172.870 C 315.878 174.476,315.982 174.439,315.852 171.944 L 315.741 169.815 313.637 169.705 C 311.579 169.597,311.532 169.616,311.415 170.630 M313.611 178.241 L 311.481 178.951 311.481 205.772 L 311.481 232.593 306.481 232.593 L 301.481 232.593 301.481 230.556 L 301.481 228.519 299.444 228.519 L 297.407 228.519 297.407 230.556 L 297.407 232.593 299.444 232.593 L 301.481 232.593 301.481 234.823 L 301.481 237.053 308.611 236.952 L 315.741 236.852 315.849 227.037 C 315.953 217.692,315.917 217.089,315.109 214.444 C 313.897 210.483,313.893 203.838,315.099 200.351 C 315.903 198.025,315.934 197.497,315.839 187.727 L 315.741 177.531 313.611 178.241 M71.204 182.107 C 71.560 182.200,72.144 182.200,72.500 182.107 C 72.856 182.014,72.565 181.938,71.852 181.938 C 71.139 181.938,70.847 182.014,71.204 182.107 M264.815 186.481 L 264.815 188.519 266.852 188.519 L 268.889 188.519 268.889 191.667 L 268.889 194.815 263.519 194.815 L 258.148 194.815 258.148 195.741 C 258.148 196.656,258.185 196.667,261.296 196.667 L 264.444 196.667 264.444 197.778 L 264.444 198.889 267.593 198.889 L 270.741 198.889 270.741 193.915 C 270.741 189.038,270.724 188.938,269.907 188.822 C 269.169 188.717,269.061 188.461,268.963 186.574 L 268.852 184.444 266.833 184.444 L 264.815 184.444 264.815 186.481 M74.340 186.228 C 73.990 186.295,73.704 186.436,73.704 186.540 C 73.704 186.643,73.270 189.308,72.739 192.462 C 72.209 195.615,71.834 198.244,71.906 198.305 C 72.538 198.836,76.626 197.976,76.815 197.273 C 77.446 194.921,75.450 186.014,74.340 186.228 M253.704 192.778 L 253.704 194.815 255.741 194.815 L 257.778 194.815 257.778 192.778 L 257.778 190.741 255.741 190.741 L 253.704 190.741 253.704 192.778 M204.074 193.889 L 204.074 195.926 206.111 195.926 L 208.148 195.926 208.148 193.889 L 208.148 191.852 206.111 191.852 L 204.074 191.852 204.074 193.889 M162.767 194.822 C 163.103 196.423,163.559 196.882,165.102 197.168 C 166.852 197.492,166.112 196.289,163.193 194.064 C 162.534 193.562,162.511 193.603,162.767 194.822 M242.965 194.634 C 243.167 195.167,243.346 196.051,243.363 196.598 C 243.379 197.145,243.471 197.399,243.568 197.161 C 243.764 196.681,245.639 197.079,246.485 197.781 C 246.965 198.179,247.548 200.332,247.915 203.056 L 248.102 204.444 244.382 204.444 L 240.662 204.444 238.928 202.597 C 237.974 201.582,237.367 200.678,237.578 200.590 C 239.006 199.993,231.827 200.351,229.907 200.972 L 228.148 201.541 228.148 217.067 L 228.148 232.593 223.704 232.593 L 219.259 232.593 219.259 230.556 L 219.259 228.519 217.037 228.519 L 214.815 228.519 214.815 230.556 L 214.815 232.593 217.037 232.593 L 219.259 232.593 219.259 234.815 L 219.259 237.037 225.741 237.037 L 232.222 237.037 232.222 221.495 C 232.222 203.856,231.857 205.638,235.648 204.798 C 239.071 204.040,241.426 204.733,243.405 207.079 L 244.957 208.920 247.386 208.812 L 249.815 208.704 249.919 204.576 L 250.024 200.448 248.499 199.143 C 247.660 198.425,246.502 197.199,245.926 196.419 C 245.350 195.639,244.365 194.699,243.737 194.332 L 242.596 193.664 242.965 194.634 M347.523 196.636 C 347.960 197.434,348.454 198.003,348.620 197.901 C 348.786 197.798,349.164 197.915,349.461 198.162 C 350.713 199.201,349.880 197.756,348.517 196.525 C 346.649 194.837,346.544 194.849,347.523 196.636 M123.419 197.407 C 123.419 198.120,123.495 198.412,123.589 198.056 C 123.682 197.699,123.682 197.116,123.589 196.759 C 123.495 196.403,123.419 196.694,123.419 197.407 M145.278 196.894 C 143.768 197.445,143.704 197.533,143.708 199.012 C 143.714 200.899,145.686 202.575,147.045 201.848 C 147.770 201.460,147.778 201.627,147.778 217.024 L 147.778 232.593 143.333 232.593 L 138.889 232.593 138.889 230.556 L 138.889 228.519 136.852 228.519 L 134.815 228.519 134.815 230.556 L 134.815 232.593 136.833 232.593 L 138.852 232.593 138.963 234.722 L 139.074 236.852 145.556 236.852 L 152.037 236.852 152.134 221.237 L 152.230 205.622 154.078 205.148 L 155.926 204.675 155.926 202.483 L 155.926 200.292 152.988 200.425 L 150.051 200.559 152.321 199.528 L 154.592 198.497 153.586 197.492 C 152.333 196.238,147.936 195.922,145.278 196.894 M208.148 214.444 L 208.148 232.593 201.667 232.593 L 195.185 232.593 195.185 230.926 C 195.185 230.009,195.144 229.259,195.093 229.259 C 195.042 229.260,194.107 229.599,193.017 230.013 C 186.021 232.672,180.622 232.325,179.842 229.166 C 179.527 227.891,177.400 226.550,176.740 227.211 C 176.461 227.489,178.108 229.518,179.157 230.190 C 179.723 230.552,180.978 231.728,181.948 232.802 C 185.126 236.325,189.286 236.848,196.019 234.570 L 199.259 233.474 199.259 235.255 L 199.259 237.037 205.741 237.037 L 212.222 237.037 212.222 232.778 C 212.222 228.765,212.179 228.519,211.481 228.519 C 210.752 228.519,210.741 228.272,210.741 212.407 L 210.741 196.296 209.444 196.296 L 208.148 196.296 208.148 214.444 M127.037 197.993 C 127.037 199.224,127.112 199.323,127.870 199.090 C 128.329 198.950,128.913 198.820,129.168 198.800 C 129.714 198.759,128.719 197.541,127.689 196.990 C 127.122 196.686,127.037 196.817,127.037 197.993 M232.593 197.950 C 232.593 199.288,233.018 199.564,234.062 198.904 C 234.411 198.683,234.807 198.714,235.173 198.991 C 235.485 199.228,235.324 198.953,234.815 198.381 C 233.185 196.548,232.593 196.433,232.593 197.950 M166.842 198.796 C 167.571 200.656,167.774 204.829,167.776 218.056 L 167.778 232.593 166.111 232.593 L 164.444 232.593 164.439 220.833 C 164.435 213.881,164.286 208.847,164.074 208.519 C 163.837 208.152,163.713 211.468,163.709 218.241 L 163.704 228.519 162.037 228.519 L 160.370 228.519 160.370 230.556 L 160.370 232.593 162.407 232.593 L 164.444 232.593 164.444 234.828 L 164.444 237.063 168.241 236.957 L 172.037 236.852 172.145 230.185 C 172.227 225.173,172.117 223.013,171.704 221.481 C 170.805 218.149,170.248 212.392,170.261 206.569 L 170.273 201.101 168.797 199.625 C 167.236 198.064,166.418 197.718,166.842 198.796 M180.812 198.769 C 177.995 200.157,175.926 204.486,175.926 208.992 C 175.926 215.918,178.274 220.309,178.618 214.028 C 179.098 205.287,181.553 199.283,185.000 198.420 C 185.407 198.318,184.907 198.219,183.889 198.200 C 182.857 198.180,181.495 198.432,180.812 198.769 M332.315 198.403 C 332.671 198.497,333.255 198.497,333.611 198.403 C 333.968 198.310,333.676 198.234,332.963 198.234 C 332.250 198.234,331.958 198.310,332.315 198.403 M67.870 198.774 C 68.227 198.867,68.810 198.867,69.167 198.774 C 69.523 198.681,69.231 198.604,68.519 198.604 C 67.806 198.604,67.514 198.681,67.870 198.774 M328.837 199.264 C 325.808 200.864,324.109 203.501,323.871 206.970 C 323.760 208.605,323.792 208.785,324.017 207.778 C 324.577 205.275,327.264 201.455,329.750 199.627 C 331.437 198.386,330.902 198.173,328.837 199.264 M351.646 200.641 C 358.935 212.700,352.071 229.171,338.907 231.209 C 333.454 232.053,326.783 229.726,325.034 226.370 C 324.747 225.820,323.956 225.063,323.275 224.687 C 322.489 224.254,323.615 225.574,326.360 228.303 C 331.835 233.748,334.465 235.174,339.570 235.465 C 356.553 236.433,365.404 214.227,353.092 201.541 C 350.881 199.262,350.770 199.193,351.646 200.641 M130.153 199.907 C 130.349 200.255,129.871 200.370,128.236 200.370 C 127.038 200.370,125.278 200.636,124.325 200.961 L 122.593 201.551 122.593 217.072 L 122.593 232.593 118.148 232.593 L 113.704 232.593 113.704 230.556 L 113.704 228.519 111.481 228.519 L 109.259 228.519 109.259 230.556 L 109.259 232.593 111.481 232.593 L 113.704 232.593 113.704 234.815 L 113.704 237.037 120.185 237.037 L 126.667 237.037 126.667 221.350 L 126.667 205.663 128.611 205.144 L 130.556 204.626 130.668 202.444 C 130.738 201.084,130.613 200.108,130.336 199.853 C 130.006 199.550,129.959 199.564,130.153 199.907 M264.444 203.241 L 264.443 205.370 266.481 205.244 L 268.519 205.117 268.519 218.855 L 268.519 232.593 263.333 232.593 L 258.148 232.593 258.148 230.556 L 258.148 228.519 256.111 228.519 L 254.074 228.519 254.074 230.537 L 254.074 232.556 256.204 232.667 L 258.333 232.778 258.444 234.907 L 258.555 237.037 265.759 237.037 L 272.963 237.037 272.963 232.778 L 272.963 228.519 271.852 228.519 L 270.741 228.519 270.741 216.852 L 270.741 205.185 269.815 205.185 C 268.939 205.185,268.889 205.074,268.889 203.148 L 268.889 201.111 266.667 201.111 L 264.444 201.111 264.444 203.241 M185.342 202.748 C 181.316 204.501,178.951 211.512,180.350 217.545 C 180.757 219.297,180.941 219.477,182.639 219.778 L 183.983 220.016 184.138 216.759 C 184.349 212.345,187.752 206.667,190.186 206.667 C 191.470 206.667,190.905 202.718,189.583 202.454 C 187.856 202.108,186.612 202.194,185.342 202.748 M335.185 202.633 C 327.624 204.092,324.793 216.296,332.016 216.296 C 332.129 216.296,332.226 215.671,332.230 214.907 C 332.235 214.144,332.543 212.848,332.915 212.029 C 334.268 209.051,337.594 206.692,340.463 206.675 C 342.044 206.666,342.052 206.645,341.287 204.400 C 340.764 202.865,340.621 202.736,339.343 202.656 C 338.584 202.609,337.713 202.512,337.407 202.441 C 337.102 202.370,336.102 202.456,335.185 202.633 M350.476 207.593 C 350.479 208.611,350.551 208.984,350.636 208.421 C 350.721 207.858,350.719 207.025,350.631 206.569 C 350.543 206.113,350.474 206.574,350.476 207.593 M76.574 207.305 C 77.236 207.387,78.319 207.387,78.981 207.305 C 79.644 207.223,79.102 207.156,77.778 207.156 C 76.454 207.156,75.912 207.223,76.574 207.305 M75.208 211.481 L 69.490 211.667 67.572 221.167 C 66.517 226.393,65.545 231.101,65.413 231.630 C 65.182 232.549,65.056 232.593,62.647 232.593 C 60.882 232.593,60.120 232.732,60.111 233.056 C 60.104 233.310,59.973 234.315,59.820 235.289 L 59.542 237.059 64.493 236.955 L 69.444 236.852 71.525 226.561 C 72.669 220.902,73.676 216.201,73.761 216.115 C 73.847 216.030,75.702 215.844,77.884 215.703 C 80.391 215.541,81.846 215.296,81.836 215.038 C 81.827 214.813,81.618 213.880,81.373 212.963 L 80.926 211.296 75.208 211.481 M349.630 213.222 C 349.630 215.529,344.878 222.370,342.037 224.153 L 340.926 224.851 342.407 224.598 C 347.131 223.790,350.083 220.192,350.045 215.289 C 350.035 213.956,349.937 212.777,349.828 212.668 C 349.719 212.558,349.630 212.808,349.630 213.222 M188.595 225.893 C 186.856 226.583,186.965 226.762,189.722 227.761 C 190.724 228.124,190.741 228.106,190.741 226.657 C 190.741 225.009,190.784 225.024,188.595 225.893 M55.762 229.907 C 55.627 230.671,55.430 231.588,55.326 231.944 C 55.158 232.515,55.424 232.593,57.546 232.593 C 60.270 232.593,60.186 232.657,60.531 230.278 L 60.786 228.519 58.397 228.519 L 56.008 228.519 55.762 229.907 " stroke="none" fill="#96850f" fill-rule="evenodd"></path></g></svg>