<svg id="svg" version="1.1" xmlns="http://www.w3.org/2000/svg" xmlns:xlink="http://www.w3.org/1999/xlink" width="400" height="400" viewBox="0, 0, 400,400"><g id="svgg"><path id="path0" d="M125.370 113.663 C 122.680 114.904,121.111 117.577,121.111 120.916 L 121.111 122.479 116.944 122.708 C 97.858 123.754,79.941 131.410,64.562 145.093 L 61.531 147.789 59.432 146.319 C 55.525 143.582,52.268 143.966,48.992 147.550 C 43.897 153.125,45.315 162.694,51.481 164.349 C 52.866 164.721,53.299 164.717,55.975 164.306 L 57.690 164.042 57.501 168.039 C 55.835 203.240,79.253 223.184,108.278 211.284 C 108.944 211.011,108.956 211.778,108.690 236.798 L 108.415 262.593 115.226 262.579 C 136.219 262.535,141.581 261.127,143.698 255.104 C 147.491 244.312,143.435 230.318,136.234 229.352 L 134.661 229.141 136.898 228.529 C 140.988 227.409,142.854 225.296,144.674 219.727 C 147.607 210.751,145.142 202.403,138.810 199.862 L 136.694 199.013 138.069 198.362 C 162.897 186.611,163.714 157.913,139.875 134.905 C 134.821 130.027,135.177 130.768,137.188 129.323 C 139.080 127.965,140.743 124.994,140.737 122.983 C 140.720 116.661,131.280 110.936,125.370 113.663 M132.298 115.761 C 139.620 118.256,140.426 125.252,133.808 128.873 C 131.685 130.035,131.525 130.470,132.820 131.555 C 166.040 159.395,161.686 192.129,123.519 201.481 C 121.103 202.073,119.471 202.754,117.593 203.955 C 99.331 215.631,82.784 215.661,71.143 204.039 C 63.145 196.053,59.448 184.184,59.823 167.696 C 59.983 160.702,60.023 160.798,57.311 161.699 C 51.579 163.602,48.144 161.355,48.152 155.708 C 48.163 147.876,54.876 144.087,59.470 149.320 C 61.317 151.422,61.227 151.450,65.339 147.490 C 79.291 134.052,98.718 125.676,117.697 124.917 C 123.628 124.679,123.480 124.761,123.373 121.797 C 123.175 116.322,126.784 113.882,132.298 115.761 M285.000 123.204 C 280.058 123.994,275.161 126.267,271.663 129.393 L 269.437 131.383 266.292 130.857 C 248.548 127.892,232.349 141.398,236.734 155.502 C 237.104 156.693,237.043 156.823,235.261 158.650 C 224.743 169.432,229.517 186.821,244.071 190.740 C 245.252 191.058,245.510 191.310,245.702 192.333 C 247.872 203.897,262.850 210.382,274.643 204.863 L 276.948 203.784 279.151 205.881 C 288.554 214.828,305.400 213.784,312.040 203.842 C 312.839 202.646,313.590 201.542,313.708 201.390 C 313.826 201.238,314.870 201.447,316.026 201.853 C 330.483 206.934,345.845 197.894,345.923 184.259 L 345.937 181.667 347.860 180.741 C 361.543 174.151,359.795 154.090,345.063 148.629 C 343.535 148.063,343.349 147.858,342.971 146.319 C 339.460 132.038,321.972 124.066,308.845 130.763 L 307.374 131.514 305.139 129.491 C 300.086 124.919,291.344 122.189,285.000 123.204 M291.629 124.088 C 296.869 124.845,302.255 127.511,305.684 131.044 L 307.108 132.512 309.758 131.290 C 322.571 125.384,337.305 131.976,341.911 145.675 L 342.896 148.605 344.907 149.422 C 359.195 155.229,360.569 173.331,347.243 180.195 L 345.067 181.316 345.146 184.084 C 345.551 198.206,329.519 206.510,314.029 200.202 C 313.579 200.019,313.148 200.450,312.309 201.923 C 306.128 212.778,288.848 214.390,279.425 204.989 L 277.184 202.753 274.122 204.182 C 262.822 209.456,248.222 203.006,246.456 191.959 C 246.225 190.516,246.123 190.415,244.495 190.005 C 230.571 186.499,225.618 169.329,235.684 159.459 C 237.676 157.506,237.980 157.039,237.720 156.336 C 232.461 142.119,249.321 128.222,267.478 131.808 L 269.956 132.298 271.125 130.966 C 274.016 127.674,279.870 124.751,284.873 124.102 C 288.182 123.673,288.753 123.672,291.629 124.088 M128.547 153.858 C 126.455 156.086,128.379 162.222,131.170 162.222 C 134.828 162.222,135.452 157.795,132.266 154.445 C 130.643 152.740,129.733 152.596,128.547 153.858 M274.206 159.079 C 273.919 159.827,274.431 160.386,277.450 162.624 C 280.462 164.857,280.506 164.678,276.501 166.462 C 273.375 167.855,272.141 169.259,274.043 169.259 C 275.321 169.259,282.593 165.501,282.593 164.840 C 282.593 164.311,275.330 158.519,274.666 158.519 C 274.531 158.519,274.324 158.771,274.206 159.079 M304.815 163.184 C 300.590 165.423,299.784 166.017,300.155 166.618 C 300.848 167.740,307.926 172.190,308.395 171.800 C 309.214 171.121,309.013 170.879,305.714 168.584 L 302.540 166.375 306.110 164.445 C 308.688 163.051,309.621 162.363,309.469 161.968 C 309.354 161.667,309.259 161.351,309.259 161.266 C 309.259 160.903,308.494 161.233,304.815 163.184 M285.928 168.519 C 285.933 171.098,287.781 176.367,288.974 177.203 C 290.681 178.399,292.712 176.575,295.007 171.785 C 296.951 167.729,297.142 167.937,291.111 167.553 L 285.925 167.222 285.928 168.519 M293.760 168.519 C 295.500 168.519,295.519 168.736,294.050 171.852 C 291.068 178.179,288.956 178.009,287.169 171.298 C 286.283 167.971,286.257 168.005,289.500 168.279 C 291.059 168.411,292.976 168.519,293.760 168.519 M111.481 172.414 C 105.095 173.844,98.995 178.903,99.798 182.103 C 101.224 187.782,112.910 188.545,117.116 183.233 C 122.758 176.110,119.857 170.539,111.481 172.414 M116.185 174.317 C 116.591 175.376,114.292 177.101,112.656 176.965 C 111.591 176.876,111.296 176.695,111.296 176.126 C 111.296 174.475,115.630 172.872,116.185 174.317 M77.360 175.798 C 75.948 177.499,77.361 181.865,79.739 183.148 L 81.111 183.889 82.500 183.148 C 84.154 182.266,84.393 181.312,83.527 179.043 C 82.344 175.947,78.789 174.076,77.360 175.798 M153.704 229.074 L 153.704 262.593 160.741 262.593 L 167.778 262.593 167.778 229.074 L 167.778 195.556 160.741 195.556 L 153.704 195.556 153.704 229.074 M128.240 206.664 C 135.507 207.227,138.191 209.319,138.459 214.627 C 138.858 222.521,135.202 224.272,121.204 222.893 L 116.667 222.446 116.667 214.921 L 116.667 207.397 117.755 206.735 C 118.931 206.020,119.852 206.013,128.240 206.664 M268.185 219.448 C 258.251 222.916,253.539 233.196,255.528 247.059 C 258.128 265.177,285.092 267.772,289.444 250.323 C 289.782 248.970,283.044 243.550,282.410 244.665 C 276.643 254.817,261.211 250.923,261.946 239.502 C 262.593 229.442,272.763 225.296,279.722 232.255 C 280.926 233.459,282.000 234.444,282.109 234.444 C 282.282 234.444,289.566 229.771,289.967 229.403 C 290.366 229.037,288.110 225.538,286.242 223.624 C 281.641 218.909,274.475 217.252,268.185 219.448 M309.259 221.886 C 304.396 222.829,299.056 227.098,296.710 231.921 C 287.117 251.634,309.551 271.049,324.671 256.119 C 338.255 242.705,327.307 218.387,309.259 221.886 M195.926 223.113 L 195.926 224.373 194.090 223.676 C 180.081 218.353,173.244 228.785,176.111 251.111 C 176.951 257.659,180.010 261.832,183.981 261.848 C 184.618 261.851,184.815 262.066,184.815 262.759 C 184.815 265.858,193.125 266.892,197.880 264.385 C 199.894 263.322,201.111 263.625,201.111 265.187 L 201.111 266.667 206.759 266.664 C 214.908 266.660,219.123 265.862,222.625 263.661 C 224.021 262.783,224.731 262.593,226.606 262.593 L 228.889 262.593 228.889 259.873 C 228.889 258.118,229.152 256.389,229.630 255.000 C 230.612 252.143,230.611 247.509,229.627 243.402 C 229.105 241.223,228.889 239.041,228.889 235.937 L 228.889 231.551 230.622 230.961 C 234.627 229.596,238.119 230.432,240.268 233.270 L 241.481 234.872 241.481 248.547 L 241.481 262.222 245.185 262.222 L 248.889 262.222 248.889 247.300 C 248.889 235.283,248.782 231.966,248.338 230.262 C 246.462 223.060,240.570 221.125,231.227 224.642 L 228.889 225.522 228.889 223.687 L 228.889 221.852 222.407 221.852 L 215.926 221.852 215.926 224.091 L 215.926 226.330 214.722 226.113 C 214.060 225.994,212.727 226.048,211.759 226.234 L 210.000 226.571 210.000 224.211 L 210.000 221.852 202.963 221.852 L 195.926 221.852 195.926 223.113 M218.220 228.216 C 224.884 231.768,230.780 244.519,229.340 252.263 C 227.481 262.259,216.569 268.110,207.778 263.826 L 205.370 262.653 207.593 262.639 C 208.815 262.631,210.565 262.775,211.481 262.959 C 213.262 263.316,217.462 262.847,218.490 262.177 C 218.967 261.866,218.938 261.840,218.333 262.035 C 216.868 262.509,214.108 262.682,212.074 262.428 L 210.000 262.169 210.000 254.910 C 210.000 249.187,210.111 247.527,210.522 247.066 C 211.447 246.031,211.477 243.680,210.556 244.444 C 210.064 244.852,210.000 243.915,210.000 236.373 L 210.000 227.840 211.019 227.468 C 213.171 226.681,215.866 226.962,218.220 228.216 M188.017 233.893 C 185.573 236.337,183.704 242.293,183.704 247.634 C 183.704 250.003,183.155 250.236,182.582 248.110 C 180.902 241.871,183.262 234.622,187.586 232.738 C 189.593 231.864,189.717 232.194,188.017 233.893 M317.276 233.442 C 322.718 236.296,323.890 243.441,319.637 247.835 C 313.906 253.754,304.270 249.656,304.262 241.296 C 304.255 234.578,311.316 230.316,317.276 233.442 M128.683 235.582 C 134.998 236.282,136.425 237.766,136.604 243.822 C 136.893 253.633,134.479 255.388,122.001 254.442 L 115.446 253.945 115.685 248.732 C 115.816 245.864,115.924 241.536,115.925 239.113 L 115.926 234.707 120.648 234.961 C 123.245 235.101,126.861 235.380,128.683 235.582 M195.210 236.680 C 196.299 237.263,196.320 252.726,195.232 253.308 C 192.832 254.593,187.533 254.359,186.078 252.904 C 185.439 252.265,184.750 245.961,185.162 244.524 C 186.795 238.832,191.852 234.883,195.210 236.680 M217.778 243.440 C 216.734 243.965,216.387 245.451,217.027 246.648 C 217.607 247.732,219.758 247.693,220.535 246.584 C 221.416 245.325,221.248 244.885,219.907 244.945 C 218.825 244.995,218.705 244.898,218.718 243.981 C 218.726 243.421,218.726 242.965,218.718 242.968 C 218.710 242.971,218.287 243.184,217.778 243.440 M211.852 249.375 C 211.852 251.469,213.945 252.419,215.158 250.876 C 216.254 249.483,216.117 249.017,214.537 248.756 C 212.190 248.368,211.852 248.446,211.852 249.375 M215.185 249.769 C 215.185 250.050,214.935 250.487,214.630 250.741 C 214.160 251.131,214.074 251.052,214.074 250.231 C 214.074 249.614,214.277 249.259,214.630 249.259 C 214.935 249.259,215.185 249.489,215.185 249.769 M222.035 250.743 C 221.088 251.789,221.491 251.886,222.487 250.852 C 222.938 250.383,223.172 250.000,223.007 250.000 C 222.842 250.000,222.405 250.334,222.035 250.743 M224.707 250.376 C 225.176 250.565,225.676 251.228,225.877 251.927 C 226.103 252.710,226.241 252.879,226.263 252.397 C 226.308 251.381,225.288 249.995,224.516 250.023 C 224.053 250.041,224.103 250.133,224.707 250.376 M221.481 253.242 C 221.481 253.846,222.997 254.820,223.879 254.783 C 224.408 254.761,224.302 254.653,223.519 254.420 C 222.908 254.238,222.200 253.804,221.945 253.455 C 221.690 253.107,221.481 253.010,221.481 253.242 M195.556 260.926 C 195.556 261.962,195.443 262.016,194.420 261.468 C 193.255 260.845,193.579 260.306,195.278 260.043 C 195.431 260.019,195.556 260.417,195.556 260.926 " stroke="none" fill="#191919" fill-rule="evenodd"></path><path id="path1" d="M0.000 200.000 L 0.000 400.000 200.000 400.000 L 400.000 400.000 400.000 200.000 L 400.000 0.000 200.000 0.000 L 0.000 0.000 0.000 200.000 M133.985 113.879 C 142.144 117.540,143.096 125.457,135.994 130.582 C 135.929 130.629,138.195 132.975,141.029 135.797 C 163.721 158.383,162.803 186.043,138.960 198.118 L 137.364 198.926 139.614 200.050 C 140.931 200.709,142.360 201.791,143.061 202.663 C 143.720 203.481,144.669 204.509,145.171 204.946 C 145.672 205.383,146.505 206.232,147.022 206.832 C 147.540 207.432,148.904 208.815,150.055 209.906 C 151.206 210.996,152.373 212.422,152.648 213.074 C 153.091 214.125,153.169 213.189,153.333 204.815 L 153.519 195.370 160.648 195.270 L 167.778 195.169 167.778 197.399 L 167.778 199.630 170.000 199.630 L 172.222 199.630 172.222 201.647 L 172.222 203.665 174.167 203.777 L 176.111 203.889 176.296 217.746 C 176.454 229.513,176.549 231.350,176.930 229.923 C 178.549 223.864,186.940 220.513,193.611 223.262 L 195.556 224.063 195.556 222.958 L 195.556 221.852 202.778 221.852 L 210.000 221.852 210.000 223.889 L 210.000 225.926 212.963 225.926 L 215.926 225.926 215.926 223.880 L 215.926 221.835 222.500 221.936 L 229.074 222.037 229.188 223.611 C 229.317 225.397,229.290 225.380,230.745 224.627 C 232.302 223.822,237.681 222.597,239.630 222.603 C 242.836 222.614,245.156 224.328,251.718 231.537 C 252.153 232.016,253.169 233.005,253.976 233.736 L 255.441 235.064 256.055 232.506 C 258.806 221.044,271.361 214.901,281.550 220.032 C 284.440 221.487,285.158 222.084,289.302 226.487 C 291.122 228.420,293.339 230.673,294.228 231.492 L 295.844 232.982 297.016 230.905 C 302.176 221.764,313.235 218.762,321.774 224.185 C 324.688 226.036,335.270 237.234,336.606 239.880 C 343.554 253.645,335.175 269.444,320.926 269.444 C 314.740 269.444,313.066 268.553,305.370 261.158 C 296.860 252.981,294.931 249.811,294.464 243.235 L 294.259 240.359 292.254 241.712 L 290.250 243.064 289.479 241.995 C 283.262 233.371,270.388 237.205,270.374 247.685 L 270.370 250.370 272.537 250.370 C 276.363 250.370,279.474 248.709,281.499 245.583 L 282.683 243.757 286.156 246.368 C 288.161 247.875,289.630 249.246,289.630 249.611 C 289.630 249.958,290.617 250.957,291.823 251.831 C 293.057 252.725,293.939 253.624,293.839 253.885 C 293.739 254.147,294.636 255.059,295.890 255.971 C 298.395 257.793,298.372 257.633,296.649 261.398 C 292.879 269.638,282.554 272.920,273.719 268.686 C 271.189 267.474,264.154 261.237,258.989 255.627 L 257.422 253.926 257.322 262.241 L 257.222 270.556 253.519 270.556 L 249.815 270.556 249.703 268.611 L 249.591 266.667 247.573 266.667 L 245.556 266.667 245.556 264.444 L 245.556 262.222 243.333 262.222 L 241.111 262.222 241.111 250.556 C 241.111 242.106,240.995 238.889,240.691 238.889 C 240.460 238.889,239.627 239.082,238.839 239.318 L 237.407 239.747 237.407 255.429 L 237.407 271.111 230.926 271.111 L 224.444 271.111 224.444 269.074 L 224.444 267.037 222.222 267.037 C 220.122 267.037,220.000 266.988,220.000 266.146 C 220.000 265.443,219.846 265.295,219.275 265.444 C 218.654 265.607,218.534 266.014,218.441 268.280 L 218.333 270.926 211.389 271.027 L 204.444 271.127 204.444 269.638 C 204.444 268.818,204.364 268.148,204.265 268.148 C 204.166 268.148,202.624 268.585,200.839 269.118 C 194.459 271.025,189.740 270.336,187.042 267.104 C 186.416 266.354,185.728 265.574,185.513 265.370 C 185.298 265.167,184.062 264.000,182.766 262.778 C 181.471 261.556,179.738 259.916,178.914 259.134 C 178.028 258.292,177.227 257.084,176.950 256.171 C 176.530 254.790,176.462 255.477,176.296 262.778 L 176.111 270.926 169.074 270.926 L 162.037 270.926 161.925 268.981 L 161.813 267.037 159.795 267.037 L 157.778 267.037 157.778 264.815 L 157.778 262.593 155.556 262.593 L 153.333 262.593 153.302 260.833 L 153.272 259.074 152.762 261.176 C 150.814 269.207,145.101 271.070,122.315 271.103 L 117.037 271.111 117.037 269.093 L 117.037 267.074 114.907 266.963 L 112.778 266.852 112.667 264.722 L 112.556 262.593 110.537 262.593 L 108.519 262.593 108.519 237.037 C 108.519 222.981,108.430 211.481,108.322 211.481 C 108.214 211.481,107.129 211.901,105.910 212.414 C 83.472 221.858,60.597 206.580,57.934 180.370 C 57.799 179.046,57.621 177.847,57.539 177.705 C 57.456 177.564,57.381 174.545,57.371 170.998 L 57.353 164.547 54.840 164.727 C 48.899 165.152,45.732 161.953,45.759 155.556 C 45.798 146.361,53.991 141.278,60.111 146.651 L 61.463 147.839 62.676 146.574 C 74.521 134.222,95.218 124.490,113.333 122.755 C 114.861 122.609,116.361 122.442,116.667 122.384 C 116.972 122.326,118.056 122.265,119.074 122.248 L 120.926 122.217 121.021 120.280 C 121.338 113.846,127.325 110.890,133.985 113.879 M127.386 115.532 C 124.471 116.429,123.663 117.764,123.663 121.679 C 123.663 125.012,123.802 124.914,118.918 125.033 C 111.338 125.218,99.994 127.555,91.854 130.608 C 83.912 133.587,72.479 140.971,65.699 147.500 C 61.415 151.625,61.395 151.632,59.427 149.599 C 55.133 145.164,49.936 147.038,48.480 153.546 C 47.046 159.955,50.957 163.594,57.028 161.498 C 60.173 160.412,60.066 160.116,60.183 170.223 C 60.240 175.091,60.401 179.741,60.541 180.556 C 65.835 211.278,88.788 221.045,116.452 204.348 C 119.334 202.609,120.972 201.907,124.045 201.093 C 160.331 191.488,165.518 159.613,135.011 133.713 C 131.294 130.557,131.141 129.965,133.704 128.636 C 138.868 125.957,139.622 121.675,135.571 118.020 C 133.195 115.876,129.711 114.817,127.386 115.532 M294.531 123.678 C 298.279 124.637,301.475 126.288,304.755 128.960 L 307.473 131.174 309.365 130.360 C 322.944 124.519,338.009 131.124,342.661 144.961 C 343.629 147.841,343.700 147.936,345.340 148.580 C 360.037 154.353,361.743 172.938,348.287 180.699 L 346.111 181.954 346.059 184.958 C 345.836 197.955,329.808 207.204,316.260 202.155 L 313.817 201.244 312.960 202.860 C 307.288 213.551,288.572 215.305,279.078 206.035 L 276.965 203.972 274.871 204.965 C 263.029 210.581,248.028 204.247,245.610 192.612 C 245.380 191.504,245.131 191.259,243.851 190.889 C 229.544 186.747,224.577 169.297,234.754 158.928 L 236.852 156.790 236.419 155.154 C 232.596 140.718,248.438 127.905,266.614 130.733 L 269.620 131.200 271.814 129.169 C 277.700 123.719,286.436 121.608,294.531 123.678 M282.593 124.640 C 279.092 125.424,275.147 127.554,272.284 130.204 L 269.796 132.508 267.213 132.008 C 249.691 128.620,233.923 140.850,237.602 154.976 L 238.167 157.144 235.745 159.652 C 225.916 169.833,231.116 187.304,244.736 189.859 C 246.053 190.106,246.077 190.143,247.205 193.704 C 250.553 204.276,264.419 209.223,274.944 203.600 L 277.178 202.407 279.613 204.859 C 288.840 214.146,305.782 212.709,311.978 202.113 L 313.399 199.684 315.125 200.431 C 329.421 206.612,346.545 196.590,344.934 182.985 L 344.720 181.178 346.803 180.192 C 360.294 173.810,359.009 154.900,344.723 149.583 C 342.748 148.848,342.567 148.680,342.210 147.266 C 338.565 132.798,322.816 125.205,309.639 131.562 L 307.108 132.783 304.738 130.538 C 299.095 125.192,290.428 122.884,282.593 124.640 M132.166 153.824 C 135.559 156.969,135.049 162.593,131.371 162.593 C 129.914 162.593,129.239 161.965,128.177 159.623 C 126.040 154.911,128.882 150.780,132.166 153.824 M279.070 161.414 C 283.914 165.157,283.922 165.029,278.677 167.550 C 273.992 169.803,273.528 169.929,273.187 169.041 C 272.832 168.116,273.216 167.798,276.527 166.276 C 280.268 164.555,280.254 164.953,276.667 162.222 C 273.910 160.124,273.330 159.386,273.951 158.765 C 274.537 158.179,275.588 158.722,279.070 161.414 M309.544 162.037 C 309.624 162.627,308.966 163.139,306.304 164.559 C 302.308 166.689,302.355 166.174,305.944 168.530 C 308.286 170.068,308.901 170.653,308.814 171.262 C 308.632 172.538,307.468 172.138,303.590 169.467 C 298.948 166.270,298.956 166.165,304.074 163.327 C 308.136 161.075,309.375 160.783,309.544 162.037 M294.537 167.654 C 297.092 167.917,297.081 167.817,295.018 172.058 C 292.662 176.901,290.314 178.780,288.672 177.137 C 287.410 175.875,285.556 170.452,285.556 168.023 L 285.556 166.941 288.981 167.188 C 290.866 167.324,293.366 167.533,294.537 167.654 M280.496 171.238 C 282.801 172.216,282.061 172.766,278.303 172.865 C 272.902 173.007,268.761 171.773,271.173 170.740 C 272.463 170.187,278.819 170.527,280.496 171.238 M117.919 172.206 C 122.353 173.891,119.676 183.154,113.903 186.105 C 105.340 190.480,95.232 182.411,102.177 176.744 C 107.057 172.764,114.069 170.742,117.919 172.206 M309.444 173.388 C 310.288 173.675,310.926 174.131,310.926 174.446 C 310.926 175.124,302.340 175.166,300.648 174.496 C 296.793 172.969,305.129 171.920,309.444 173.388 M112.685 174.811 C 111.075 175.793,111.095 176.667,112.728 176.667 C 114.072 176.667,115.926 175.470,115.926 174.603 C 115.926 173.827,114.107 173.944,112.685 174.811 M81.509 175.820 C 83.982 177.901,85.030 181.708,83.469 182.936 C 81.381 184.578,78.608 183.683,77.375 180.969 C 75.306 176.412,78.090 172.944,81.509 175.820 M125.185 218.889 L 125.185 223.333 127.710 223.333 C 134.927 223.333,137.997 221.430,138.239 216.805 L 138.333 215.000 135.741 214.768 C 134.315 214.641,131.356 214.516,129.167 214.490 L 125.185 214.444 125.185 218.889 M214.444 228.697 L 214.444 230.370 216.481 230.370 L 218.519 230.370 218.519 236.667 C 218.519 240.130,218.662 242.963,218.838 242.963 C 219.013 242.963,219.077 243.380,218.980 243.889 C 218.836 244.641,218.950 244.815,219.586 244.815 C 220.018 244.815,220.370 244.648,220.370 244.444 C 220.370 243.811,221.015 244.039,221.198 244.736 C 221.490 245.852,220.798 247.080,219.630 247.521 L 218.519 247.940 218.519 254.689 C 218.519 259.223,218.653 261.521,218.928 261.691 C 219.223 261.873,219.215 262.021,218.899 262.216 C 218.657 262.366,218.514 262.926,218.581 263.461 L 218.704 264.435 220.656 263.527 C 230.318 259.035,231.975 246.597,224.491 234.747 C 220.880 229.030,214.444 225.154,214.444 228.697 M152.447 229.722 C 151.185 233.281,149.084 235.691,146.481 236.563 L 145.370 236.936 147.163 238.560 C 150.877 241.927,152.308 244.635,152.913 249.444 C 153.153 251.347,153.252 248.807,153.286 239.907 C 153.312 233.236,153.289 227.778,153.235 227.778 C 153.181 227.778,152.826 228.653,152.447 229.722 M318.704 241.188 C 315.342 242.363,312.619 245.864,312.601 249.033 L 312.593 250.474 314.425 250.257 C 318.492 249.775,321.508 246.689,322.094 242.409 L 322.323 240.741 321.069 240.770 C 320.379 240.786,319.315 240.974,318.704 241.188 M194.329 241.863 C 191.761 243.883,189.906 248.571,190.272 252.117 L 190.483 254.158 192.001 253.973 C 192.835 253.871,193.977 253.606,194.537 253.384 L 195.556 252.981 195.556 247.046 C 195.556 243.782,195.495 241.111,195.420 241.111 C 195.346 241.111,194.855 241.449,194.329 241.863 M124.271 243.260 C 124.163 243.368,124.074 245.947,124.074 248.991 L 124.074 254.524 128.257 254.392 C 134.236 254.202,136.040 252.461,136.549 246.389 L 136.768 243.780 133.291 243.567 C 126.113 243.125,124.462 243.069,124.271 243.260 M224.983 249.860 C 226.102 250.289,226.763 252.106,226.215 253.248 C 225.487 254.768,223.998 255.356,222.648 254.658 C 219.508 253.035,221.671 248.589,224.983 249.860 M224.039 258.746 C 223.501 259.394,223.157 259.141,223.470 258.326 C 223.596 257.999,223.874 257.840,224.089 257.972 C 224.358 258.138,224.342 258.381,224.039 258.746 M222.006 260.614 C 220.943 261.464,219.986 261.748,220.014 261.204 C 220.037 260.761,222.372 259.360,222.747 259.564 C 222.933 259.666,222.600 260.138,222.006 260.614 " stroke="none" fill="#fbfbfb" fill-rule="evenodd"></path><path id="path2" d="M117.500 122.478 C 117.856 122.571,118.440 122.571,118.796 122.478 C 119.153 122.384,118.861 122.308,118.148 122.308 C 117.435 122.308,117.144 122.384,117.500 122.478 M306.192 130.378 C 306.847 131.066,307.446 131.554,307.523 131.462 C 307.600 131.371,307.063 130.808,306.331 130.212 L 305.000 129.128 306.192 130.378 M64.802 148.056 L 62.778 150.185 64.907 148.161 C 66.886 146.280,67.207 145.926,66.932 145.926 C 66.874 145.926,65.916 146.884,64.802 148.056 M235.347 159.722 L 234.259 160.926 235.463 159.838 C 236.125 159.240,236.667 158.698,236.667 158.634 C 236.667 158.348,236.361 158.600,235.347 159.722 M356.390 165.741 C 356.394 166.556,356.470 166.845,356.558 166.385 C 356.647 165.924,356.643 165.257,356.551 164.903 C 356.458 164.549,356.386 164.926,356.390 165.741 M346.032 184.630 C 346.035 185.648,346.107 186.021,346.192 185.458 C 346.277 184.895,346.275 184.062,346.187 183.606 C 346.099 183.150,346.029 183.611,346.032 184.630 M108.426 187.298 C 108.884 187.387,109.634 187.387,110.093 187.298 C 110.551 187.210,110.176 187.138,109.259 187.138 C 108.343 187.138,107.968 187.210,108.426 187.298 M146.296 189.444 C 145.397 190.361,144.744 191.111,144.846 191.111 C 144.948 191.111,145.767 190.361,146.667 189.444 C 147.566 188.528,148.219 187.778,148.117 187.778 C 148.015 187.778,147.196 188.528,146.296 189.444 M153.319 204.907 C 153.305 213.650,153.266 214.187,152.720 213.148 C 151.203 210.263,148.323 208.096,149.168 210.475 C 151.763 217.787,148.384 229.545,142.953 232.101 L 141.446 232.811 143.742 235.164 C 145.005 236.459,145.931 237.345,145.799 237.132 C 145.666 236.916,145.999 236.636,146.554 236.496 C 148.888 235.911,151.095 233.370,152.519 229.630 L 153.295 227.593 153.267 239.815 C 153.247 248.744,153.151 251.338,152.911 249.444 C 152.355 245.060,151.481 243.123,148.644 239.982 C 147.190 238.373,146.318 238.012,147.223 239.394 C 149.099 242.258,149.703 253.738,148.225 258.442 C 146.288 264.607,143.530 265.736,128.078 266.693 C 124.161 266.935,119.386 267.005,117.077 266.854 L 112.998 266.588 112.855 264.498 L 112.711 262.407 112.745 264.630 L 112.778 266.852 114.907 266.963 L 117.037 267.074 117.037 269.093 L 117.037 271.111 122.315 271.103 C 145.113 271.070,151.057 269.121,152.719 261.136 L 153.148 259.074 153.364 260.926 C 153.482 261.944,153.584 247.653,153.590 229.167 C 153.595 210.681,153.540 195.556,153.467 195.556 C 153.393 195.556,153.327 199.764,153.319 204.907 M340.721 196.944 L 339.444 198.333 340.833 197.057 C 342.126 195.869,342.393 195.556,342.110 195.556 C 342.048 195.556,341.423 196.181,340.721 196.944 M171.922 233.299 L 171.852 267.154 164.907 266.989 C 161.088 266.898,158.830 266.880,159.889 266.948 L 161.814 267.073 161.926 268.999 L 162.037 270.926 168.862 271.027 C 172.615 271.083,175.818 270.997,175.979 270.836 C 176.547 270.268,176.354 254.491,175.713 249.074 C 175.038 243.366,175.158 236.689,175.994 233.519 C 176.373 232.080,176.440 228.568,176.296 217.778 L 176.111 203.889 174.185 203.778 L 172.258 203.666 172.125 201.555 C 172.052 200.394,171.960 214.679,171.922 233.299 M69.444 205.926 C 70.448 206.944,71.352 207.778,71.454 207.778 C 71.555 207.778,70.818 206.944,69.815 205.926 C 68.812 204.907,67.907 204.074,67.806 204.074 C 67.704 204.074,68.441 204.907,69.444 205.926 M120.987 215.037 C 120.853 217.665,120.743 220.508,120.742 221.356 L 120.741 222.897 122.964 223.023 L 125.187 223.148 125.186 218.796 L 125.185 214.444 128.981 214.471 C 131.069 214.485,134.065 214.614,135.639 214.758 L 138.501 215.018 138.277 213.528 C 137.923 211.166,136.775 210.845,127.413 210.492 L 121.231 210.258 120.987 215.037 M273.056 218.413 C 273.616 218.498,274.532 218.498,275.093 218.413 C 275.653 218.329,275.194 218.259,274.074 218.259 C 272.954 218.259,272.495 218.329,273.056 218.413 M195.641 222.963 C 195.641 223.676,195.718 223.968,195.811 223.611 C 195.904 223.255,195.904 222.671,195.811 222.315 C 195.718 221.958,195.641 222.250,195.641 222.963 M228.990 223.704 C 228.990 224.620,229.062 224.995,229.150 224.537 C 229.239 224.079,229.239 223.329,229.150 222.870 C 229.062 222.412,228.990 222.787,228.990 223.704 M214.305 229.630 C 214.379 230.954,214.440 235.745,214.442 240.278 C 214.444 248.271,214.467 248.519,215.185 248.519 C 215.717 248.519,215.926 248.765,215.926 249.394 C 215.926 249.876,215.593 250.694,215.185 251.212 C 214.524 252.053,214.444 252.715,214.444 257.390 L 214.444 262.626 215.833 262.343 C 216.597 262.187,217.672 262.055,218.222 262.049 C 218.854 262.041,219.093 261.907,218.870 261.685 C 218.674 261.489,218.519 258.397,218.519 254.704 L 218.519 248.075 217.407 247.037 C 216.796 246.466,216.296 245.720,216.296 245.378 C 216.296 245.037,216.796 244.258,217.407 243.647 L 218.519 242.536 218.519 236.453 L 218.519 230.370 216.502 230.370 L 214.485 230.370 214.328 228.796 C 214.242 227.931,214.231 228.306,214.305 229.630 M293.337 231.574 C 293.741 232.236,294.072 232.961,294.073 233.184 C 294.074 233.647,286.909 238.519,286.227 238.519 C 285.982 238.519,286.312 238.909,286.959 239.387 C 287.607 239.865,288.501 240.740,288.946 241.331 C 289.392 241.923,289.876 242.547,290.021 242.717 C 290.631 243.431,294.444 240.328,294.449 239.114 C 294.454 237.749,295.260 234.579,295.909 233.364 C 296.163 232.891,296.213 232.600,296.022 232.719 C 295.830 232.837,295.114 232.357,294.430 231.652 C 292.868 230.041,292.381 230.006,293.337 231.574 M252.318 233.241 C 252.640 233.972,252.800 238.830,252.886 250.481 L 253.006 266.704 249.373 266.550 C 247.375 266.465,246.607 266.465,247.666 266.549 L 249.592 266.703 249.703 268.629 L 249.815 270.556 253.519 270.556 L 257.222 270.556 257.322 262.297 C 257.387 256.923,257.551 254.119,257.791 254.268 C 257.994 254.393,257.753 253.896,257.256 253.162 C 255.714 250.890,255.118 247.228,255.235 240.741 L 255.338 235.000 253.921 233.611 C 252.241 231.965,251.702 231.841,252.318 233.241 M330.800 233.148 C 335.524 238.548,336.262 248.550,332.467 255.735 C 327.322 265.475,314.022 268.645,306.481 261.929 C 305.870 261.385,306.537 262.154,307.963 263.639 C 313.713 269.626,321.190 271.249,328.051 267.999 C 340.655 262.029,342.965 244.703,332.502 234.615 C 331.031 233.197,330.266 232.537,330.800 233.148 M274.195 233.350 C 269.082 234.361,266.318 238.078,266.304 243.964 C 266.295 247.800,266.701 249.064,268.107 249.573 C 268.639 249.766,269.366 250.042,269.722 250.187 C 270.304 250.423,270.371 250.172,270.374 247.725 C 270.384 240.512,277.721 235.194,284.167 237.729 C 284.767 237.965,285.185 237.987,285.185 237.781 C 285.185 237.238,282.629 234.815,282.056 234.815 C 281.774 234.815,281.483 234.633,281.409 234.411 C 281.260 233.965,277.679 232.940,276.493 233.004 C 276.079 233.026,275.045 233.182,274.195 233.350 M236.481 234.689 C 236.074 234.785,235.201 235.031,234.541 235.237 L 233.341 235.610 233.245 251.231 L 233.148 266.852 230.926 266.974 C 225.785 267.258,220.427 266.667,220.257 265.798 C 220.131 265.156,220.091 265.200,220.050 266.019 C 220.001 267.022,220.033 267.037,222.222 267.037 L 224.444 267.037 224.444 269.074 L 224.444 271.111 230.926 271.111 L 237.407 271.111 237.407 255.405 L 237.407 239.698 239.276 239.219 L 241.144 238.741 241.035 236.685 L 240.926 234.630 239.074 234.572 C 238.056 234.540,236.889 234.593,236.481 234.689 M313.425 237.601 C 307.744 240.475,306.169 249.439,311.204 250.245 L 312.593 250.467 312.601 249.030 C 312.623 245.115,316.328 241.309,320.585 240.829 L 322.125 240.655 321.830 239.350 C 321.194 236.527,317.193 235.695,313.425 237.601 M120.000 246.385 L 120.000 253.981 121.157 254.213 C 121.794 254.340,122.706 254.444,123.185 254.444 L 124.055 254.444 124.157 248.796 L 124.259 243.148 127.222 243.246 C 128.852 243.300,131.667 243.445,133.479 243.568 L 136.773 243.791 136.578 242.062 C 136.471 241.112,136.313 240.264,136.228 240.179 C 135.977 239.928,129.813 239.320,124.722 239.044 L 120.000 238.789 120.000 246.385 M193.789 241.482 C 190.636 243.404,188.342 249.024,189.120 252.917 C 189.603 255.329,190.341 254.235,190.277 251.203 C 190.198 247.511,192.415 242.766,194.821 241.478 C 195.588 241.068,195.590 241.089,195.480 247.165 C 195.420 250.520,195.495 253.186,195.648 253.092 C 195.801 252.997,195.926 250.179,195.926 246.830 C 195.926 240.166,195.930 240.176,193.789 241.482 M222.296 250.815 C 221.506 251.606,221.769 253.262,222.793 253.933 C 224.659 255.156,226.621 253.153,225.393 251.278 C 224.743 250.287,223.074 250.037,222.296 250.815 M271.764 250.632 C 272.224 250.721,272.891 250.718,273.245 250.625 C 273.599 250.532,273.222 250.460,272.407 250.464 C 271.593 250.468,271.303 250.544,271.764 250.632 M126.389 254.710 C 126.949 254.795,127.866 254.795,128.426 254.710 C 128.986 254.625,128.528 254.555,127.407 254.555 C 126.287 254.555,125.829 254.625,126.389 254.710 M293.310 255.440 C 289.299 266.062,275.157 270.013,266.668 262.882 C 266.158 262.454,266.961 263.309,268.452 264.782 C 278.128 274.344,292.907 271.759,297.412 259.718 C 298.267 257.432,298.505 257.897,295.277 255.545 L 293.703 254.398 293.310 255.440 M259.815 256.667 C 260.610 257.481,261.345 258.148,261.447 258.148 C 261.548 258.148,260.981 257.481,260.185 256.667 C 259.390 255.852,258.655 255.185,258.553 255.185 C 258.452 255.185,259.019 255.852,259.815 256.667 M299.259 255.301 C 299.259 255.365,299.801 255.906,300.463 256.505 L 301.667 257.593 300.579 256.389 C 299.565 255.267,299.259 255.015,299.259 255.301 M216.019 263.060 C 213.766 263.602,213.594 265.418,215.833 265.021 C 218.238 264.595,218.519 264.436,218.519 263.494 C 218.519 262.517,218.379 262.493,216.019 263.060 M186.275 266.256 C 187.120 267.835,190.487 270.000,192.098 270.000 C 192.450 270.000,191.867 269.566,190.803 269.036 C 189.739 268.505,188.436 267.505,187.909 266.814 C 186.861 265.440,185.609 265.013,186.275 266.256 M217.685 265.969 C 217.181 266.252,217.037 266.824,217.037 268.537 L 217.037 270.741 211.318 270.741 L 205.598 270.741 205.484 269.200 C 205.353 267.430,204.639 267.096,202.904 267.994 C 202.330 268.290,200.567 268.851,198.986 269.240 C 197.405 269.628,196.467 269.958,196.903 269.973 C 197.339 269.988,199.133 269.583,200.890 269.074 C 202.647 268.565,204.166 268.148,204.265 268.148 C 204.364 268.148,204.444 268.815,204.444 269.630 L 204.444 271.111 211.308 271.111 C 219.087 271.111,218.617 271.326,218.445 267.856 C 218.345 265.834,218.267 265.641,217.685 265.969 M193.611 270.261 C 194.069 270.350,194.819 270.350,195.278 270.261 C 195.736 270.173,195.361 270.101,194.444 270.101 C 193.528 270.101,193.153 270.173,193.611 270.261 " stroke="none" fill="#a8a8a7" fill-rule="evenodd"></path><path id="path3" d="M286.860 169.711 C 287.389 172.905,289.171 176.667,290.155 176.667 C 291.175 176.667,295.185 170.658,295.185 169.130 C 295.185 168.854,293.441 168.603,289.688 168.341 L 286.598 168.125 286.860 169.711 M271.173 170.740 C 268.761 171.773,272.902 173.007,278.303 172.865 C 282.061 172.766,282.801 172.216,280.496 171.238 C 278.819 170.527,272.463 170.187,271.173 170.740 M300.463 172.950 C 297.986 174.018,300.521 174.887,306.296 174.950 C 310.181 174.992,310.926 174.911,310.926 174.446 C 310.926 173.216,302.606 172.027,300.463 172.950 " stroke="none" fill="#ed2c7d" fill-rule="evenodd"></path><path id="path4" d="M136.667 115.671 C 136.667 115.735,137.208 116.277,137.870 116.875 L 139.074 117.963 137.986 116.759 C 136.972 115.637,136.667 115.385,136.667 115.671 M287.685 123.965 C 288.144 124.053,288.894 124.053,289.352 123.965 C 289.810 123.877,289.435 123.805,288.519 123.805 C 287.602 123.805,287.227 123.877,287.685 123.965 M271.462 130.648 L 270.185 132.037 271.574 130.761 C 272.867 129.573,273.133 129.259,272.850 129.259 C 272.789 129.259,272.164 129.884,271.462 130.648 M260.838 131.377 C 261.401 131.462,262.235 131.460,262.690 131.372 C 263.146 131.284,262.685 131.214,261.667 131.217 C 260.648 131.220,260.275 131.292,260.838 131.377 M138.519 133.435 C 138.519 133.491,139.810 134.783,141.389 136.306 L 144.259 139.074 141.491 136.204 C 138.919 133.538,138.519 133.164,138.519 133.435 M138.133 136.389 C 139.667 138.024,140.000 138.318,140.000 138.040 C 140.000 137.981,139.208 137.189,138.241 136.281 L 136.481 134.630 138.133 136.389 M49.051 147.130 L 47.963 148.333 49.167 147.246 C 49.829 146.647,50.370 146.106,50.370 146.042 C 50.370 145.756,50.065 146.008,49.051 147.130 M236.753 150.741 C 236.753 151.454,236.829 151.745,236.922 151.389 C 237.015 151.032,237.015 150.449,236.922 150.093 C 236.829 149.736,236.753 150.028,236.753 150.741 M45.641 155.926 C 45.641 156.639,45.718 156.931,45.811 156.574 C 45.904 156.218,45.904 155.634,45.811 155.278 C 45.718 154.921,45.641 155.213,45.641 155.926 M59.731 167.778 C 59.731 168.694,59.803 169.069,59.891 168.611 C 59.979 168.153,59.979 167.403,59.891 166.944 C 59.803 166.486,59.731 166.861,59.731 167.778 M59.723 172.407 C 59.727 173.222,59.803 173.512,59.892 173.051 C 59.980 172.591,59.977 171.924,59.884 171.570 C 59.791 171.216,59.719 171.593,59.723 172.407 M113.704 173.848 C 113.704 173.928,114.275 174.060,114.974 174.141 C 115.673 174.223,116.163 174.158,116.063 173.997 C 115.884 173.707,113.704 173.570,113.704 173.848 M101.643 177.500 L 100.556 178.704 101.759 177.616 C 102.881 176.602,103.133 176.296,102.847 176.296 C 102.783 176.296,102.242 176.838,101.643 177.500 M157.130 195.461 C 159.116 195.528,162.366 195.528,164.352 195.461 C 166.338 195.395,164.713 195.340,160.741 195.340 C 156.769 195.340,155.144 195.395,157.130 195.461 M167.778 231.111 L 167.778 262.593 162.778 262.593 L 157.778 262.593 157.778 264.574 L 157.778 266.556 161.168 266.796 C 163.033 266.929,166.199 267.037,168.205 267.037 L 171.852 267.037 171.852 233.333 L 171.852 199.630 169.815 199.630 L 167.778 199.630 167.778 231.111 M323.618 202.491 C 324.283 202.573,325.283 202.571,325.840 202.487 C 326.397 202.402,325.852 202.335,324.630 202.337 C 323.407 202.339,322.952 202.408,323.618 202.491 M145.073 206.380 C 146.157 209.229,145.961 215.808,144.677 219.727 C 142.854 225.291,141.012 227.379,136.883 228.561 C 135.410 228.983,134.974 229.216,135.624 229.233 C 137.200 229.275,138.599 229.942,140.037 231.339 C 143.936 235.126,150.014 226.191,149.994 216.700 C 149.983 211.478,148.605 207.950,145.712 205.744 L 144.471 204.798 145.073 206.380 M117.755 206.735 L 116.667 207.397 116.667 214.960 L 116.667 222.524 118.666 222.651 L 120.665 222.778 120.933 216.518 L 121.201 210.257 127.545 210.504 C 131.034 210.639,134.843 210.975,136.009 211.250 C 138.287 211.787,138.289 211.784,136.765 209.754 C 135.336 207.848,133.098 207.040,128.199 206.660 C 119.853 206.014,118.930 206.020,117.755 206.735 M264.358 206.194 C 265.024 206.277,266.024 206.275,266.581 206.191 C 267.137 206.106,266.593 206.039,265.370 206.041 C 264.148 206.043,263.693 206.112,264.358 206.194 M108.683 223.519 C 108.683 229.833,108.734 232.469,108.795 229.375 C 108.857 226.281,108.857 221.115,108.796 217.893 C 108.734 214.672,108.683 217.204,108.683 223.519 M91.204 212.848 C 91.560 212.941,92.144 212.941,92.500 212.848 C 92.856 212.755,92.565 212.679,91.852 212.679 C 91.139 212.679,90.847 212.755,91.204 212.848 M92.134 215.077 C 92.595 215.165,93.261 215.162,93.615 215.069 C 93.970 214.977,93.593 214.904,92.778 214.908 C 91.963 214.912,91.673 214.988,92.134 215.077 M153.481 220.926 C 153.482 223.981,153.539 225.182,153.609 223.594 C 153.679 222.006,153.678 219.506,153.608 218.039 C 153.538 216.571,153.481 217.870,153.481 220.926 M289.342 227.769 C 289.777 228.584,290.061 229.316,289.974 229.397 C 289.199 230.110,282.191 234.446,281.801 234.453 C 281.524 234.458,281.855 234.736,282.537 235.073 C 283.220 235.409,284.200 236.322,284.716 237.101 C 285.943 238.955,286.046 238.936,290.373 236.055 C 294.422 233.359,294.424 233.356,293.282 231.482 C 291.167 228.014,287.757 224.799,289.342 227.769 M211.019 227.468 L 210.000 227.840 210.000 236.373 C 210.000 243.915,210.064 244.852,210.556 244.444 C 211.477 243.680,211.447 246.031,210.522 247.066 C 210.111 247.527,210.000 249.184,210.000 254.888 L 210.000 262.125 211.389 262.355 C 214.663 262.896,214.444 263.254,214.444 257.344 C 214.444 252.886,214.542 251.979,215.093 251.325 C 215.731 250.567,215.729 250.565,214.971 251.204 C 213.649 252.316,211.852 251.238,211.852 249.332 C 211.852 248.462,211.920 248.439,213.981 248.629 C 215.153 248.737,215.736 248.745,215.278 248.646 L 214.444 248.467 214.442 240.252 C 214.437 226.589,214.347 226.252,211.019 227.468 M247.985 228.950 C 248.766 231.386,248.872 233.552,248.880 247.315 L 248.889 262.222 247.222 262.222 L 245.556 262.222 245.556 264.259 L 245.556 266.296 246.983 266.296 C 247.768 266.296,249.444 266.404,250.708 266.536 L 253.006 266.777 252.892 250.518 C 252.793 236.465,252.696 234.080,252.176 232.936 C 251.030 230.416,247.325 226.892,247.985 228.950 M268.837 229.470 C 261.890 231.609,259.469 241.337,264.511 246.854 C 266.382 248.901,267.401 249.521,266.680 248.172 C 266.005 246.911,266.222 240.755,267.002 239.037 C 269.006 234.626,274.341 232.176,279.167 233.451 C 281.588 234.092,281.596 233.838,279.223 231.705 C 276.291 229.068,272.671 228.289,268.837 229.470 M327.794 230.062 C 327.785 230.198,328.189 231.129,328.692 232.131 C 336.729 248.131,320.657 267.435,305.597 259.870 C 303.156 258.644,303.196 259.106,305.717 261.260 C 321.158 274.451,342.232 254.688,332.622 236.028 C 331.646 234.132,327.835 229.424,327.794 230.062 M230.463 230.986 L 228.889 231.543 228.889 235.933 C 228.889 239.041,229.104 241.223,229.627 243.402 C 230.611 247.509,230.612 252.143,229.630 255.000 C 229.152 256.389,228.889 258.118,228.889 259.873 L 228.889 262.593 226.574 262.594 C 224.623 262.596,223.997 262.770,222.593 263.704 C 221.676 264.313,220.741 264.812,220.514 264.813 C 220.279 264.814,220.176 265.198,220.273 265.706 C 220.458 266.675,225.491 267.274,230.926 266.974 L 233.148 266.852 233.245 251.231 L 233.341 235.610 234.726 235.149 C 235.488 234.895,237.194 234.674,238.519 234.658 L 240.926 234.630 241.118 248.519 L 241.310 262.407 241.396 248.640 L 241.481 234.872 240.268 233.270 C 238.128 230.444,234.429 229.582,230.463 230.986 M187.586 232.738 C 183.262 234.622,180.902 241.871,182.582 248.110 C 183.155 250.236,183.704 250.003,183.704 247.634 C 183.704 242.293,185.573 236.337,188.017 233.893 C 189.717 232.194,189.593 231.864,187.586 232.738 M312.037 232.515 C 303.950 233.300,301.326 244.083,308.048 248.910 C 309.551 249.990,309.662 250.021,309.154 249.222 C 305.265 243.102,314.003 233.833,320.478 237.210 L 321.512 237.750 320.696 236.560 C 318.706 233.657,315.534 232.175,312.037 232.515 M143.163 235.000 C 146.079 243.340,145.495 254.515,141.949 258.250 C 138.990 261.366,132.400 262.532,117.500 262.579 L 112.963 262.593 112.963 264.589 L 112.963 266.586 117.060 266.853 C 119.388 267.005,124.146 266.936,128.078 266.693 C 143.530 265.736,146.288 264.607,148.225 258.442 C 149.832 253.330,149.078 242.171,146.907 238.917 C 145.652 237.035,142.850 234.104,143.163 235.000 M115.794 244.263 C 115.656 249.516,115.587 253.850,115.641 253.893 C 115.696 253.937,117.074 254.051,118.704 254.147 C 120.333 254.243,121.292 254.254,120.833 254.172 C 120.001 254.023,120.000 254.013,120.000 246.406 L 120.000 238.789 124.722 239.044 C 127.319 239.185,130.926 239.462,132.737 239.660 C 136.499 240.070,136.711 239.995,135.683 238.605 C 133.894 236.186,131.189 235.528,120.709 234.964 L 116.047 234.713 115.794 244.263 M190.450 237.083 C 187.661 238.463,185.022 243.070,185.080 246.458 C 185.177 252.164,185.640 253.249,188.236 253.851 L 189.249 254.086 189.028 251.950 C 188.613 247.950,191.184 242.794,194.338 241.296 C 195.843 240.582,195.900 240.493,195.913 238.809 C 195.933 236.166,193.716 235.466,190.450 237.083 M175.271 244.815 C 175.271 245.528,175.347 245.819,175.440 245.463 C 175.534 245.106,175.534 244.523,175.440 244.167 C 175.347 243.810,175.271 244.102,175.271 244.815 M214.074 250.231 C 214.074 251.052,214.160 251.131,214.630 250.741 C 214.935 250.487,215.185 250.050,215.185 249.769 C 215.185 249.489,214.935 249.259,214.630 249.259 C 214.277 249.259,214.074 249.614,214.074 250.231 M288.914 251.775 C 285.808 261.187,272.999 265.210,263.889 259.634 L 262.037 258.500 264.630 260.973 C 273.448 269.385,287.416 267.687,292.354 257.602 C 294.106 254.024,294.069 253.698,291.715 251.921 C 289.240 250.052,289.479 250.065,288.914 251.775 M312.504 250.632 C 312.965 250.721,313.632 250.718,313.986 250.625 C 314.340 250.532,313.963 250.460,313.148 250.464 C 312.333 250.468,312.044 250.544,312.504 250.632 M221.111 252.200 C 221.111 252.620,221.278 252.963,221.481 252.963 C 221.685 252.963,221.852 252.723,221.852 252.429 C 221.852 252.136,221.685 251.793,221.481 251.667 C 221.278 251.541,221.111 251.781,221.111 252.200 M194.352 260.255 C 193.500 260.478,193.529 260.992,194.420 261.468 C 195.443 262.016,195.556 261.962,195.556 260.926 C 195.556 259.986,195.500 259.955,194.352 260.255 M181.852 261.469 C 181.852 262.066,184.683 264.668,186.026 265.305 C 186.689 265.620,187.596 266.369,188.039 266.969 C 190.486 270.278,197.550 270.762,202.913 267.989 C 204.639 267.096,205.354 267.433,205.484 269.200 L 205.598 270.741 211.286 270.741 L 216.974 270.741 217.098 268.307 L 217.222 265.873 216.296 266.110 C 215.787 266.241,212.162 266.439,208.241 266.551 L 201.111 266.754 201.111 265.231 L 201.111 263.708 199.824 263.873 C 199.117 263.964,198.242 264.194,197.880 264.385 C 193.125 266.892,184.815 265.858,184.815 262.759 C 184.815 262.089,184.615 261.852,184.050 261.852 C 183.629 261.852,182.962 261.679,182.568 261.468 C 182.074 261.204,181.852 261.204,181.852 261.469 M207.610 263.698 C 210.897 265.331,214.444 265.662,214.444 264.338 C 214.444 263.644,214.671 263.341,215.278 263.223 C 215.736 263.134,215.278 263.063,214.259 263.065 C 213.241 263.068,210.824 262.961,208.889 262.828 L 205.370 262.587 207.610 263.698 " stroke="none" fill="#747473" fill-rule="evenodd"></path></g></svg>