<svg id="svg" version="1.1" xmlns="http://www.w3.org/2000/svg" xmlns:xlink="http://www.w3.org/1999/xlink" width="400" height="400" viewBox="0, 0, 400,400"><g id="svgg"><path id="path0" d="M0.000 200.000 L 0.000 400.000 200.000 400.000 L 400.000 400.000 400.000 200.000 L 400.000 0.000 200.000 0.000 L 0.000 0.000 0.000 200.000 M129.152 70.133 C 164.792 78.007,176.753 106.211,161.269 145.865 C 159.752 149.750,159.630 150.316,159.635 153.457 C 159.642 158.666,159.498 158.468,163.120 158.242 C 171.984 157.689,174.617 165.360,167.110 169.865 L 165.174 171.027 167.238 172.913 C 170.382 175.787,173.698 176.548,177.786 175.334 C 185.011 173.188,190.926 177.518,188.164 182.931 C 185.588 187.981,176.394 190.353,165.222 188.850 C 161.483 188.346,161.424 188.402,163.059 190.865 L 164.379 192.853 167.282 193.052 C 171.719 193.357,176.017 195.376,178.837 198.482 C 179.318 199.011,179.599 199.236,179.463 198.981 C 179.285 198.649,179.612 198.519,180.626 198.521 C 185.549 198.528,189.095 202.238,188.842 207.118 C 188.796 208.014,188.912 208.988,189.101 209.281 C 189.321 209.622,189.511 206.874,189.630 201.667 L 189.815 193.519 196.389 193.417 L 202.963 193.316 202.963 195.184 L 202.963 197.052 204.352 196.351 C 208.505 194.253,214.506 193.705,217.363 195.163 C 219.022 196.009,221.952 199.167,221.603 199.732 C 221.463 199.960,221.549 200.002,221.817 199.836 C 222.425 199.461,229.130 206.201,229.357 207.417 C 229.512 208.245,229.534 208.226,229.586 207.222 C 229.646 206.033,230.769 201.562,231.413 199.949 C 233.525 194.649,240.643 192.580,247.388 195.305 L 249.630 196.210 249.630 194.763 L 249.630 193.316 256.204 193.417 L 262.778 193.519 262.745 197.593 C 262.727 199.833,262.777 200.708,262.855 199.537 L 262.998 197.407 265.018 197.407 L 267.037 197.407 267.037 199.630 L 267.037 201.852 268.704 201.852 C 269.776 201.852,270.380 202.017,270.396 202.315 C 270.410 202.569,270.660 202.004,270.951 201.059 C 272.862 194.854,280.061 192.345,287.424 195.319 L 289.630 196.210 289.630 184.092 L 289.630 171.974 286.759 172.139 C 284.170 172.288,283.818 172.226,283.165 171.502 C 281.520 169.680,282.817 164.396,285.691 161.215 L 287.022 159.742 284.344 159.894 C 281.446 160.059,279.259 159.210,279.259 157.920 C 279.259 156.352,283.185 152.089,285.062 151.618 C 286.531 151.249,286.016 150.741,284.167 150.733 C 276.181 150.700,265.556 146.740,265.556 143.797 C 265.556 140.899,270.124 137.451,274.900 136.744 L 276.852 136.456 272.802 135.461 C 267.965 134.273,265.729 133.019,264.654 130.891 C 264.081 129.758,263.525 129.246,262.441 128.855 C 258.349 127.381,258.890 125.149,263.994 122.450 C 266.592 121.076,267.323 120.529,267.030 120.177 C 266.729 119.814,266.215 119.946,264.670 120.782 L 262.696 121.852 259.403 120.336 C 255.021 118.319,250.459 115.249,248.338 112.890 L 246.611 110.969 248.028 110.549 C 250.890 109.701,252.247 108.395,252.768 105.986 C 253.022 104.815,252.995 104.772,252.259 105.166 C 251.831 105.394,251.481 105.878,251.481 106.240 C 251.481 106.945,249.962 108.532,248.635 109.214 C 247.803 109.642,245.926 109.789,245.926 109.426 C 245.926 108.851,247.117 107.033,247.510 107.008 C 248.273 106.959,246.318 106.402,241.759 105.372 C 236.943 104.283,236.584 103.932,238.934 102.612 C 239.774 102.140,241.533 100.942,242.843 99.951 C 244.153 98.959,245.475 98.148,245.782 98.148 C 246.089 98.148,246.232 97.973,246.100 97.759 C 245.967 97.545,246.125 96.810,246.449 96.126 C 247.023 94.917,246.927 93.704,246.257 93.704 C 246.075 93.704,245.926 94.019,245.926 94.403 C 245.926 94.788,245.618 95.483,245.242 95.948 L 244.557 96.793 241.810 94.726 C 239.119 92.700,237.508 91.203,237.811 91.009 C 238.806 90.370,243.472 89.214,244.259 89.411 C 245.075 89.616,245.223 89.544,245.120 88.996 C 244.936 88.029,242.845 87.949,240.789 88.830 C 237.471 90.253,236.579 90.235,235.247 88.718 C 233.888 87.170,234.083 86.345,236.300 84.259 C 240.190 80.600,240.819 77.457,238.217 74.678 L 237.222 73.616 238.148 73.893 C 239.407 74.270,243.162 76.172,244.838 77.282 C 245.901 77.985,246.259 78.506,246.435 79.605 C 246.834 82.103,250.372 86.368,252.407 86.806 L 253.519 87.045 252.170 85.838 C 250.113 83.995,248.576 82.080,247.948 80.578 C 247.207 78.804,247.572 78.995,252.036 82.718 C 255.860 85.907,255.842 85.902,254.727 83.483 C 253.168 80.103,253.629 72.963,255.406 72.963 C 257.019 72.963,257.339 76.272,256.283 82.037 C 255.250 87.672,257.954 91.031,261.493 88.510 C 262.772 87.599,264.212 84.029,263.953 82.410 L 263.775 81.296 264.181 82.315 C 264.747 83.733,265.329 83.587,266.122 81.827 C 266.773 80.384,269.324 77.407,269.910 77.407 C 270.064 77.407,270.134 78.117,270.065 78.984 C 269.987 79.972,270.227 81.290,270.711 82.516 C 272.369 86.724,270.497 89.995,266.429 89.999 C 265.348 90.000,264.825 90.180,264.661 90.609 C 264.349 91.420,264.321 91.413,266.758 91.132 C 271.518 90.584,273.806 86.599,271.844 82.274 C 270.727 79.813,271.028 77.037,272.412 77.037 C 273.125 77.037,275.738 80.387,277.020 82.944 C 278.629 86.152,278.669 86.466,277.608 87.611 C 274.931 90.500,273.920 94.782,275.127 98.126 C 275.898 100.264,275.759 101.345,274.539 102.693 C 274.068 103.214,274.039 103.446,274.399 103.805 C 274.759 104.164,275.004 104.065,275.568 103.333 C 276.972 101.510,277.141 100.278,276.313 97.921 C 275.294 95.022,275.356 93.851,276.667 91.227 C 278.535 87.489,279.027 87.307,279.751 90.086 C 280.882 94.425,280.883 94.441,280.105 95.493 C 277.327 99.250,277.487 103.375,280.481 105.200 C 281.544 105.849,282.963 106.175,282.963 105.771 C 282.963 105.686,283.075 105.325,283.211 104.970 C 283.386 104.514,283.325 104.406,283.004 104.605 C 280.513 106.143,278.326 101.059,280.036 97.707 C 280.875 96.062,281.465 96.272,281.476 98.219 C 281.484 99.582,282.084 99.850,282.342 98.605 C 282.983 95.519,287.217 90.952,289.221 91.184 C 290.521 91.335,291.852 93.947,291.852 96.346 L 291.852 98.091 290.769 97.009 C 288.243 94.482,284.287 96.886,284.971 100.533 C 285.319 102.384,286.267 101.911,286.178 99.930 C 286.042 96.909,289.447 95.992,290.595 98.741 C 291.068 99.873,291.071 100.189,290.618 101.097 C 290.301 101.732,290.220 102.344,290.412 102.647 C 290.587 102.923,290.732 103.494,290.735 103.917 C 290.738 104.340,291.168 105.087,291.690 105.577 C 292.212 106.068,292.983 107.026,293.404 107.706 L 294.168 108.943 295.236 107.647 C 300.653 101.077,305.982 107.617,307.491 122.685 C 307.802 125.782,308.066 127.037,308.408 127.037 C 308.673 127.037,308.889 126.894,308.889 126.720 C 308.889 125.239,314.071 120.741,315.777 120.741 C 316.958 120.741,318.093 122.366,318.369 124.453 L 318.606 126.233 320.321 125.468 C 323.016 124.266,327.746 124.314,329.077 125.556 C 331.482 127.798,328.354 136.623,322.252 144.809 C 321.115 146.334,319.973 147.868,319.713 148.218 C 319.305 148.769,319.480 148.750,321.003 148.076 C 324.400 146.573,330.397 146.850,330.931 148.535 C 331.892 151.561,327.656 155.612,320.833 158.194 C 319.362 158.751,318.519 159.280,318.519 159.646 C 318.519 159.963,318.352 160.389,318.148 160.593 C 317.900 160.841,318.587 162.373,320.214 165.204 C 323.536 170.982,326.895 177.991,329.495 184.571 C 331.509 189.670,331.692 189.992,332.023 189.016 C 333.487 184.685,337.546 178.534,338.385 179.373 C 338.523 179.510,338.442 180.985,338.207 182.651 C 337.684 186.348,337.517 186.216,340.285 184.290 C 345.104 180.937,351.462 181.150,350.587 184.636 C 350.237 186.029,346.950 189.398,344.147 191.237 L 341.798 192.778 343.606 192.967 C 345.535 193.168,347.407 194.146,347.407 194.951 C 347.407 196.304,345.159 197.330,341.537 197.633 L 338.534 197.883 339.637 199.140 C 340.244 199.831,340.741 200.557,340.741 200.754 C 340.741 200.950,340.981 201.111,341.274 201.111 C 341.568 201.111,342.688 202.111,343.764 203.333 C 346.269 206.178,346.318 206.165,347.556 202.315 C 353.074 185.149,361.564 171.593,365.006 174.450 C 367.424 176.456,362.534 194.236,354.465 212.778 L 352.692 216.852 352.869 220.387 C 353.288 228.799,349.353 235.860,342.300 239.355 L 339.130 240.926 334.843 240.926 C 328.832 240.926,326.383 239.772,320.885 234.352 C 318.769 232.265,317.031 230.390,317.023 230.186 C 317.015 229.982,316.477 229.481,315.828 229.072 C 315.179 228.664,313.894 227.384,312.972 226.228 L 311.296 224.125 311.197 233.359 L 311.098 242.593 304.623 242.593 L 298.148 242.593 298.148 240.811 L 298.148 239.029 295.093 240.049 C 287.510 242.580,282.324 241.783,280.055 237.737 C 279.781 237.250,278.866 236.350,278.020 235.737 C 277.174 235.124,276.231 234.086,275.926 233.430 C 275.620 232.775,275.158 232.235,274.898 232.230 C 274.638 232.226,273.679 231.477,272.768 230.565 L 271.111 228.908 271.111 235.750 L 271.111 242.593 264.630 242.593 L 258.148 242.593 258.148 240.754 L 258.148 238.915 256.574 239.582 C 249.559 242.553,243.252 241.998,240.467 238.166 C 239.942 237.443,238.709 236.227,237.726 235.463 C 236.744 234.699,235.835 233.657,235.708 233.148 C 235.580 232.639,235.301 232.222,235.087 232.222 C 231.836 232.222,229.816 226.419,229.284 215.556 C 229.130 212.398,228.978 210.856,228.946 212.130 L 228.889 214.444 226.450 214.444 L 224.010 214.444 222.098 212.438 C 219.703 209.926,217.525 209.458,213.636 210.620 L 211.296 211.318 211.296 217.414 L 211.296 223.509 213.089 223.766 C 223.315 225.229,233.704 235.296,233.704 243.743 C 233.704 244.383,234.022 244.446,237.315 244.457 C 257.593 244.531,269.070 266.369,257.529 282.921 C 256.622 284.222,256.015 285.395,256.181 285.526 C 256.346 285.658,257.451 286.414,258.637 287.205 C 267.384 293.045,271.219 305.292,267.481 315.443 C 261.743 331.022,242.200 336.485,229.426 326.080 C 227.202 324.269,227.309 324.263,224.815 326.342 C 214.214 335.178,197.258 332.270,189.344 320.258 C 188.430 318.870,187.496 317.819,187.267 317.921 C 179.407 321.433,173.969 321.938,167.398 319.767 C 151.670 314.569,145.670 295.418,155.571 282.016 C 156.983 280.104,160.982 276.296,161.577 276.296 C 161.753 276.296,161.231 275.505,160.417 274.537 C 151.533 263.967,152.312 249.241,162.230 240.267 L 164.595 238.126 160.538 234.026 C 158.307 231.771,155.611 229.089,154.548 228.067 C 152.185 225.797,150.518 223.259,149.447 220.300 L 148.638 218.065 148.394 223.384 C 148.260 226.310,148.150 231.833,148.150 235.659 L 148.148 242.613 143.056 242.510 L 137.963 242.407 137.851 240.463 L 137.739 238.519 135.721 238.519 L 133.704 238.519 133.704 236.296 L 133.704 234.074 131.667 234.074 L 129.630 234.074 129.550 218.241 L 129.470 202.407 129.268 214.074 L 129.067 225.741 126.892 234.179 L 124.716 242.618 121.173 242.513 L 117.631 242.407 117.240 240.556 C 116.851 238.708,116.847 238.703,115.184 238.519 L 113.519 238.333 112.979 236.204 L 112.440 234.074 110.864 234.074 C 109.021 234.074,109.360 234.921,107.155 224.815 L 105.741 218.333 105.556 230.370 L 105.370 242.407 99.444 242.407 L 93.519 242.407 93.407 240.463 L 93.295 238.519 91.277 238.519 L 89.259 238.519 89.259 236.296 L 89.259 234.074 87.222 234.074 L 85.185 234.074 85.097 200.093 C 85.015 168.277,84.997 167.445,84.819 187.037 L 84.630 207.963 80.055 210.247 C 68.606 215.962,55.080 218.429,47.593 216.167 C 34.388 212.177,37.157 195.650,50.453 199.095 C 55.338 200.361,60.163 197.620,64.779 190.957 C 66.653 188.252,66.775 188.345,62.079 188.901 C 56.896 189.515,50.195 189.203,47.037 188.199 C 34.434 184.194,37.510 171.926,50.252 175.375 C 54.400 176.497,57.908 175.585,61.050 172.565 L 62.633 171.044 60.683 169.874 C 53.367 165.484,55.422 158.348,64.010 158.321 L 67.963 158.308 68.067 154.221 C 68.170 150.166,68.158 150.098,66.537 145.900 C 51.032 105.743,64.162 75.911,100.000 69.873 C 101.935 69.547,103.935 69.207,104.444 69.117 C 108.052 68.483,124.801 69.172,129.152 70.133 M236.251 74.606 C 238.680 75.862,239.367 78.715,237.721 80.717 C 237.243 81.298,236.125 82.667,235.237 83.758 C 233.153 86.318,233.240 86.319,232.086 83.747 C 230.489 80.189,229.976 75.611,230.990 73.970 C 231.304 73.462,234.872 73.893,236.251 74.606 M259.629 75.043 C 260.579 75.902,261.111 76.703,261.111 77.276 C 261.111 77.768,261.539 79.187,262.062 80.429 C 263.587 84.054,262.086 88.148,259.230 88.148 C 257.112 88.148,256.582 85.611,257.636 80.515 C 257.993 78.790,258.154 76.827,258.033 75.661 C 257.793 73.335,257.754 73.350,259.629 75.043 M256.521 91.139 C 258.143 93.229,256.871 96.337,253.577 98.333 C 253.213 98.554,253.083 98.885,253.256 99.154 C 253.469 99.483,253.969 99.324,255.129 98.556 C 258.488 96.332,259.454 92.787,257.115 91.265 C 256.457 90.837,256.252 90.793,256.521 91.139 M261.852 96.102 C 261.852 97.517,262.894 98.519,264.366 98.519 C 265.658 98.519,266.511 99.100,267.020 100.330 C 267.523 101.544,268.519 102.166,268.519 101.266 C 268.519 99.426,266.808 97.711,264.690 97.428 C 263.358 97.250,263.133 97.088,263.034 96.235 C 262.853 94.673,261.852 94.560,261.852 96.102 M242.593 98.712 C 242.593 98.818,241.189 99.820,239.474 100.938 C 237.759 102.056,236.284 103.178,236.198 103.430 C 236.102 103.709,235.415 103.267,234.443 102.300 C 233.475 101.337,232.979 100.576,233.185 100.371 C 233.736 99.819,242.593 98.258,242.593 98.712 M250.884 101.273 C 250.592 102.033,251.003 103.074,251.479 102.779 C 251.684 102.653,251.852 102.235,251.852 101.852 C 251.852 100.939,251.168 100.531,250.884 101.273 M254.838 108.084 C 249.938 110.712,252.291 116.987,258.071 116.708 C 259.170 116.655,262.593 113.460,262.593 112.488 C 262.593 111.886,262.210 112.107,260.578 113.650 C 257.323 116.728,253.535 115.982,253.535 112.262 C 253.535 109.769,254.858 108.753,258.335 108.578 C 260.392 108.474,261.111 108.304,261.111 107.922 C 261.111 107.108,256.433 107.228,254.838 108.084 M259.255 124.167 C 257.953 126.303,258.951 128.675,261.648 129.849 L 262.778 130.341 260.926 130.348 C 254.607 130.369,252.902 125.850,258.333 123.477 C 259.965 122.765,260.064 122.839,259.255 124.167 M269.351 124.167 C 268.916 124.711,267.778 126.909,267.778 127.204 C 267.778 127.316,268.014 127.407,268.302 127.407 C 268.863 127.407,270.802 124.259,270.455 123.912 C 270.124 123.581,269.749 123.667,269.351 124.167 M302.778 166.142 C 300.564 167.538,296.399 169.622,293.889 170.589 L 291.667 171.445 296.683 171.463 L 301.699 171.481 302.342 169.393 C 302.696 168.245,303.325 166.828,303.740 166.245 C 304.649 164.968,304.641 164.967,302.778 166.142 M314.071 165.423 C 313.764 165.507,312.847 166.760,312.034 168.207 C 310.216 171.443,308.124 173.872,306.346 174.812 C 305.021 175.512,305.016 175.523,306.019 175.539 C 307.015 175.555,307.037 175.604,307.037 177.778 L 307.037 180.000 309.074 180.000 C 310.554 180.000,311.111 180.139,311.111 180.508 C 311.111 180.984,314.739 181.645,315.163 181.247 C 315.252 181.163,314.569 180.306,313.644 179.343 C 311.440 177.049,309.942 174.996,310.249 174.690 C 311.105 173.833,314.739 175.204,319.372 178.130 C 322.523 180.120,322.976 179.844,321.371 176.914 C 320.682 175.657,318.967 172.506,317.560 169.910 C 316.152 167.315,314.917 165.209,314.815 165.231 C 314.713 165.253,314.378 165.340,314.071 165.423 M131.574 166.200 C 132.745 166.273,134.662 166.273,135.833 166.200 C 137.005 166.126,136.046 166.066,133.704 166.066 C 131.361 166.066,130.403 166.126,131.574 166.200 M140.481 168.519 C 140.481 169.639,140.551 170.097,140.636 169.537 C 140.721 168.977,140.721 168.060,140.636 167.500 C 140.551 166.940,140.481 167.398,140.481 168.519 M302.588 177.517 L 302.769 180.185 302.885 177.815 C 302.949 176.512,302.868 175.311,302.704 175.147 C 302.541 174.983,302.489 176.049,302.588 177.517 M326.015 189.688 C 325.660 190.127,324.847 191.085,324.207 191.817 L 323.044 193.148 326.104 193.148 L 329.164 193.148 328.286 191.158 C 327.803 190.063,327.407 189.104,327.407 189.028 C 327.407 188.602,326.571 188.999,326.015 189.688 M311.111 192.784 L 311.111 194.828 312.685 193.247 C 313.551 192.378,314.593 191.468,315.000 191.225 C 315.629 190.851,315.390 190.781,313.426 190.763 L 311.111 190.741 311.111 192.784 M115.707 192.315 C 115.841 192.977,116.059 194.519,116.190 195.741 L 116.430 197.963 117.024 194.815 C 117.641 191.547,117.542 191.128,116.157 191.117 C 115.570 191.112,115.501 191.297,115.707 192.315 M140.131 194.630 C 140.130 196.463,140.193 197.260,140.271 196.400 C 140.348 195.540,140.349 194.040,140.273 193.067 C 140.196 192.093,140.133 192.796,140.131 194.630 M295.283 195.451 C 295.846 195.536,296.679 195.534,297.135 195.446 C 297.590 195.358,297.130 195.288,296.111 195.291 C 295.093 195.294,294.720 195.366,295.283 195.451 M153.866 198.241 L 152.778 199.444 153.981 198.357 C 155.104 197.343,155.355 197.037,155.069 197.037 C 155.006 197.037,154.464 197.579,153.866 198.241 M311.111 198.154 C 311.111 199.966,312.245 200.209,313.700 198.708 C 314.714 197.661,314.788 197.484,314.138 197.654 C 313.708 197.766,312.851 197.682,312.234 197.467 C 311.151 197.090,311.111 197.114,311.111 198.154 M291.481 198.022 C 291.481 198.224,291.940 198.793,292.500 199.287 L 293.519 200.185 292.593 199.074 C 292.083 198.463,291.625 197.894,291.574 197.809 C 291.523 197.724,291.481 197.820,291.481 198.022 M202.770 203.056 C 202.484 203.838,202.390 224.796,202.674 224.512 C 202.918 224.268,203.283 202.592,203.044 202.592 C 202.987 202.592,202.863 202.801,202.770 203.056 M97.181 212.037 C 97.182 214.685,97.241 215.720,97.312 214.336 C 97.383 212.953,97.383 210.786,97.311 209.522 C 97.239 208.257,97.180 209.389,97.181 212.037 M335.387 209.722 C 335.526 210.181,335.791 210.718,335.978 210.917 C 336.164 211.117,336.129 210.742,335.900 210.084 C 335.431 208.739,334.997 208.433,335.387 209.722 M308.304 210.129 C 308.198 210.404,308.164 211.779,308.227 213.185 L 308.342 215.741 308.523 212.684 C 308.703 209.633,308.665 209.187,308.304 210.129 M269.018 212.963 C 269.018 214.694,269.082 215.403,269.160 214.537 C 269.238 213.671,269.238 212.255,269.160 211.389 C 269.082 210.523,269.018 211.231,269.018 212.963 M189.794 221.481 C 189.794 227.694,189.845 230.236,189.907 227.130 C 189.969 224.023,189.969 218.940,189.907 215.833 C 189.845 212.727,189.794 215.269,189.794 221.481 M246.915 213.685 C 244.261 216.132,242.963 219.127,242.963 222.808 L 242.963 225.881 245.031 225.711 C 246.168 225.617,247.668 225.302,248.364 225.011 L 249.630 224.482 249.630 218.352 C 249.630 211.334,249.572 211.236,246.915 213.685 M287.678 212.904 C 284.951 214.702,283.244 218.192,282.984 222.500 L 282.778 225.926 284.074 225.904 C 284.787 225.891,286.287 225.593,287.407 225.242 L 289.444 224.604 289.546 218.413 C 289.656 211.694,289.630 211.616,287.678 212.904 M337.778 213.014 C 337.778 213.114,338.250 213.647,338.827 214.200 C 339.576 214.918,339.877 215.044,339.877 214.640 C 339.877 214.329,339.792 214.159,339.688 214.263 C 339.584 214.366,339.112 214.087,338.639 213.643 C 338.165 213.198,337.778 212.915,337.778 213.014 M327.370 217.184 C 326.985 217.816,326.662 218.500,326.652 218.704 C 326.642 218.907,326.501 219.763,326.338 220.605 L 326.041 222.136 327.558 221.969 C 330.180 221.679,332.100 220.771,333.653 219.086 C 334.473 218.197,335.444 217.392,335.812 217.296 C 336.180 217.201,335.648 217.100,334.630 217.072 C 333.611 217.044,331.719 216.800,330.424 216.529 L 328.071 216.035 327.370 217.184 M166.821 217.979 C 166.533 218.670,166.296 219.810,166.296 220.513 C 166.296 221.215,166.088 221.863,165.833 221.953 C 165.579 222.043,166.287 222.041,167.407 221.949 C 169.943 221.740,172.439 220.502,173.857 218.751 C 175.204 217.086,175.349 217.178,170.988 216.930 L 167.346 216.722 166.821 217.979 M139.768 225.000 C 139.769 227.241,139.830 228.110,139.904 226.931 C 139.977 225.752,139.977 223.919,139.902 222.857 C 139.828 221.795,139.767 222.759,139.768 225.000 M338.499 227.685 L 337.222 229.074 338.611 227.798 C 339.375 227.096,340.000 226.471,340.000 226.409 C 340.000 226.126,339.687 226.392,338.499 227.685 M192.754 230.463 L 191.667 231.667 192.870 230.579 C 193.992 229.565,194.244 229.259,193.958 229.259 C 193.894 229.259,193.353 229.801,192.754 230.463 M325.653 232.858 C 326.216 232.943,327.050 232.941,327.505 232.853 C 327.961 232.765,327.500 232.696,326.481 232.699 C 325.463 232.701,325.090 232.773,325.653 232.858 M188.611 234.099 C 187.661 235.260,187.544 235.926,188.291 235.926 C 189.001 235.926,189.941 234.387,189.668 233.670 C 189.484 233.185,189.297 233.261,188.611 234.099 " stroke="none" fill="#db93b3" fill-rule="evenodd"></path><path id="path1" d="M263.930 84.736 C 263.636 85.304,263.123 87.091,262.789 88.707 C 262.067 92.201,262.184 92.035,261.066 91.155 C 256.404 87.488,247.960 85.365,246.120 87.397 C 244.422 89.274,246.851 95.626,250.876 99.833 L 253.190 102.251 251.548 102.977 C 250.645 103.377,249.499 103.704,249.002 103.704 C 248.235 103.704,248.117 103.857,248.216 104.722 C 248.390 106.229,249.439 106.179,253.099 104.488 C 256.744 102.804,257.056 102.187,254.980 100.774 C 250.834 97.950,245.907 89.442,247.961 88.653 C 250.082 87.839,256.428 90.209,260.618 93.381 C 263.698 95.712,263.873 95.627,264.396 91.548 C 264.631 89.716,265.071 87.514,265.375 86.655 C 266.386 83.788,265.220 82.240,263.930 84.736 M260.854 104.377 C 261.399 111.443,266.414 120.832,271.969 125.185 C 273.860 126.667,273.851 127.036,271.923 127.040 C 268.254 127.048,263.858 128.635,264.302 129.792 C 264.579 130.514,264.702 130.506,269.630 129.434 C 271.442 129.039,273.618 128.872,275.890 128.952 C 280.769 129.123,280.821 128.733,276.310 125.826 C 269.709 121.572,264.642 114.006,263.150 106.179 C 262.525 102.897,262.299 103.055,266.582 103.783 C 270.975 104.531,275.818 106.814,281.287 110.716 C 285.760 113.907,287.443 114.148,286.056 111.398 C 284.190 107.703,286.283 100.900,288.361 103.904 C 289.445 105.470,289.664 105.618,290.217 105.159 C 291.666 103.956,289.842 101.481,287.507 101.481 C 284.737 101.481,283.333 103.393,283.333 107.166 L 283.333 109.554 280.278 107.497 C 274.130 103.359,268.950 101.497,263.556 101.487 L 260.631 101.481 260.854 104.377 M298.114 127.896 C 293.789 130.171,292.398 138.975,295.321 145.566 C 295.528 146.032,295.313 146.108,294.106 145.992 C 290.449 145.644,285.768 149.285,287.586 151.065 C 288.155 151.622,288.288 151.567,289.378 150.319 C 291.713 147.646,294.170 147.359,296.691 149.465 C 299.280 151.628,299.751 150.625,298.033 146.606 C 294.313 137.905,295.701 129.252,300.815 129.261 C 302.448 129.263,305.926 132.239,305.926 133.633 C 305.926 133.861,306.227 134.209,306.594 134.406 C 307.853 135.079,307.967 134.813,309.154 128.426 C 309.495 126.589,307.560 126.997,306.996 128.881 L 306.554 130.355 305.155 129.091 C 302.817 126.978,300.579 126.599,298.114 127.896 M93.889 148.471 C 87.611 151.338,87.388 160.283,93.519 163.327 C 101.068 167.075,108.631 158.803,104.236 151.603 C 102.194 148.258,97.480 146.831,93.889 148.471 M127.222 148.471 C 120.156 151.698,120.881 161.739,128.338 163.906 C 135.637 166.028,141.548 158.062,137.516 151.539 C 135.483 148.252,130.775 146.848,127.222 148.471 M60.584 158.698 C 55.454 160.526,55.399 165.929,60.475 169.421 C 62.531 170.836,62.611 170.858,63.137 170.162 C 64.752 168.026,66.843 163.192,67.559 159.938 C 67.904 158.370,63.636 157.611,60.584 158.698 M163.148 158.332 C 162.944 158.401,162.169 158.559,161.424 158.684 L 160.070 158.909 160.606 161.214 C 161.124 163.442,163.485 168.705,164.615 170.151 C 165.988 171.908,170.754 167.262,171.033 163.895 C 171.323 160.400,166.690 157.131,163.148 158.332 M314.237 158.924 C 313.759 159.698,313.054 164.363,313.344 164.832 C 313.821 165.603,314.944 165.037,315.216 163.888 C 315.360 163.278,315.586 162.304,315.718 161.726 C 315.881 161.006,316.127 160.739,316.497 160.881 C 317.683 161.336,318.878 159.754,317.835 159.109 C 316.995 158.590,314.523 158.463,314.237 158.924 M140.598 178.611 C 140.474 183.144,140.247 197.519,140.094 210.556 L 139.815 234.259 136.759 234.367 L 133.704 234.474 133.704 236.311 L 133.704 238.148 138.829 238.148 L 143.954 238.148 144.199 220.093 C 144.333 210.162,144.553 194.912,144.688 186.204 L 144.934 170.370 142.879 170.370 L 140.823 170.370 140.598 178.611 M105.398 171.389 C 105.477 171.745,107.136 181.780,109.084 193.689 C 111.031 205.598,112.673 215.389,112.731 215.447 C 112.789 215.505,113.211 213.484,113.669 210.955 L 114.502 206.359 113.342 199.013 C 110.726 182.453,109.551 175.302,109.245 174.074 C 109.068 173.361,108.828 172.319,108.713 171.759 C 108.524 170.835,108.355 170.741,106.879 170.741 C 105.524 170.741,105.278 170.848,105.398 171.389 M362.407 175.143 C 357.828 178.012,351.223 190.426,347.408 203.333 C 346.334 206.968,346.396 206.912,345.203 205.291 C 344.634 204.520,343.653 203.404,343.022 202.812 L 341.875 201.735 342.974 204.351 C 344.941 209.033,345.094 211.544,343.779 217.593 C 342.438 223.762,342.130 227.746,342.963 228.140 C 343.269 228.285,343.871 228.583,344.301 228.803 C 347.335 230.351,359.260 203.713,364.290 184.151 C 366.421 175.860,365.824 173.003,362.407 175.143 M302.963 179.299 C 302.963 182.369,303.021 182.647,303.611 182.397 C 303.968 182.246,304.843 181.910,305.556 181.651 C 306.328 181.370,306.839 180.942,306.821 180.590 C 306.804 180.265,306.762 179.083,306.728 177.963 L 306.667 175.926 304.815 175.926 L 302.963 175.926 302.963 179.299 M322.073 179.854 C 321.931 180.225,322.274 180.939,322.984 181.747 C 324.364 183.319,324.785 184.361,325.118 187.033 C 325.493 190.034,326.797 190.050,326.966 187.055 C 327.200 182.929,323.169 176.997,322.073 179.854 M125.437 198.148 C 123.436 206.398,120.592 217.898,119.116 223.704 L 116.433 234.259 114.669 234.373 L 112.905 234.487 113.162 236.040 C 113.522 238.218,113.389 238.148,117.176 238.148 L 120.605 238.148 124.941 220.648 L 129.277 203.148 129.176 193.148 L 129.074 183.148 125.437 198.148 M97.656 190.185 C 97.520 193.445,97.409 202.710,97.409 210.775 C 97.408 218.840,97.298 227.465,97.165 229.942 L 96.923 234.444 93.091 234.444 L 89.259 234.444 89.259 236.296 L 89.259 238.148 95.128 238.148 L 100.996 238.148 101.237 232.870 C 101.370 229.968,101.479 221.400,101.480 213.831 L 101.481 200.070 99.804 192.535 C 98.881 188.391,98.075 184.833,98.013 184.630 C 97.952 184.426,97.791 186.926,97.656 190.185 M302.963 193.134 L 302.963 196.638 304.468 197.043 C 305.295 197.266,306.218 197.543,306.519 197.658 C 306.981 197.836,307.049 197.315,306.958 194.252 L 306.852 190.636 305.185 190.138 C 304.269 189.865,303.394 189.638,303.241 189.635 C 303.088 189.632,302.963 191.207,302.963 193.134 M331.483 190.553 C 330.854 192.205,331.436 194.628,332.819 196.121 C 334.354 197.777,335.450 196.499,334.170 194.546 C 333.816 194.005,333.441 192.721,333.337 191.692 C 333.115 189.499,332.117 188.885,331.483 190.553 M262.874 216.019 L 262.778 234.259 256.204 234.360 L 249.630 234.462 249.630 232.592 L 249.630 230.722 248.528 231.292 C 246.453 232.364,241.078 233.414,238.426 233.265 C 235.487 233.099,235.427 233.213,237.500 235.014 C 240.919 237.987,245.968 238.157,252.150 235.507 C 253.038 235.126,253.835 234.815,253.920 234.815 C 254.005 234.815,254.074 235.565,254.074 236.481 L 254.074 238.148 260.556 238.148 L 267.037 238.148 267.035 221.019 C 267.034 211.597,266.926 202.514,266.795 200.833 L 266.557 197.778 264.763 197.778 L 262.970 197.778 262.874 216.019 M296.148 198.372 C 295.725 199.473,297.884 200.526,312.037 206.120 C 314.481 207.086,317.481 208.326,318.704 208.877 C 324.614 211.537,340.069 217.460,340.584 217.263 C 342.732 216.438,340.791 215.463,321.296 207.581 C 315.593 205.275,308.018 202.204,304.464 200.757 C 296.666 197.582,296.472 197.526,296.148 198.372 M222.212 201.019 C 222.389 201.579,222.636 202.912,222.761 203.981 L 222.988 205.926 220.846 205.930 C 219.668 205.932,218.120 206.029,217.407 206.144 L 216.111 206.355 217.831 208.177 L 219.551 210.000 223.311 210.000 L 227.071 210.000 226.846 208.611 C 226.204 204.636,225.825 203.672,224.188 201.850 C 222.314 199.766,221.740 199.525,222.212 201.019 M182.163 202.778 C 188.029 214.913,182.476 229.338,170.788 232.329 L 168.881 232.817 169.963 233.854 C 170.999 234.846,171.124 234.873,172.894 234.494 C 173.910 234.276,176.134 233.989,177.834 233.856 L 180.926 233.615 183.040 231.427 C 190.333 223.881,190.577 210.846,183.562 203.508 C 181.460 201.310,181.452 201.305,182.163 202.778 M206.481 202.046 C 206.278 202.121,205.403 202.364,204.537 202.587 L 202.963 202.992 202.963 213.641 L 202.963 224.291 205.000 223.918 L 207.037 223.544 207.037 215.305 L 207.037 207.066 208.611 206.604 C 209.477 206.351,211.293 206.136,212.647 206.127 C 215.430 206.109,215.476 205.933,213.247 203.790 C 211.593 202.200,208.344 201.362,206.481 202.046 M240.115 204.424 C 235.232 206.641,233.134 215.499,236.119 221.301 C 237.788 224.547,240.017 225.976,239.253 223.311 C 236.981 215.390,242.150 206.541,248.157 208.066 C 249.542 208.417,249.630 208.391,249.630 207.623 C 249.630 205.023,243.405 202.931,240.115 204.424 M280.488 204.103 C 275.660 205.534,273.136 215.250,276.048 221.199 C 277.526 224.222,279.930 226.043,279.233 223.614 C 277.006 215.847,281.650 207.204,287.648 207.954 C 289.430 208.176,289.630 208.131,289.630 207.503 C 289.630 205.358,283.699 203.152,280.488 204.103 M163.490 204.599 C 157.621 207.155,156.140 214.541,160.558 219.217 C 162.473 221.244,162.623 221.178,162.144 218.519 C 160.984 212.081,168.212 206.242,174.258 208.734 C 174.989 209.035,174.990 209.026,174.305 207.945 C 172.192 204.614,167.085 203.034,163.490 204.599 M324.316 204.395 C 323.470 204.728,323.689 204.917,327.097 206.791 C 329.039 207.859,329.972 208.148,331.473 208.148 C 332.523 208.148,333.704 208.321,334.098 208.532 C 335.122 209.079,334.984 208.522,333.715 206.982 C 331.735 204.581,327.092 203.303,324.316 204.395 M302.875 220.833 L 302.778 234.259 296.204 234.360 L 289.630 234.462 289.630 232.637 L 289.630 230.812 287.870 231.476 C 284.811 232.630,280.449 233.428,278.123 233.260 C 275.505 233.070,275.448 233.231,277.500 235.014 C 280.755 237.844,284.322 238.129,290.463 236.052 L 293.704 234.955 293.704 236.552 L 293.704 238.148 300.370 238.148 L 307.037 238.148 307.037 223.710 L 307.037 209.272 305.197 208.340 C 304.186 207.827,303.271 207.407,303.165 207.407 C 303.059 207.407,302.928 213.449,302.875 220.833 M318.152 214.167 C 318.158 215.530,319.807 218.660,321.087 219.737 C 322.626 221.033,323.017 221.005,322.539 219.634 C 322.327 219.026,322.210 217.626,322.280 216.524 L 322.407 214.520 320.523 213.927 C 318.134 213.175,318.147 213.173,318.152 214.167 M338.889 227.667 C 334.073 232.589,326.090 234.310,320.007 231.738 L 317.606 230.723 319.215 232.362 C 325.149 238.409,336.371 238.445,342.194 232.436 L 343.392 231.201 342.217 228.378 C 341.571 226.826,341.016 225.562,340.984 225.570 C 340.952 225.579,340.009 226.522,338.889 227.667 M159.244 232.359 C 160.152 233.302,160.961 234.074,161.041 234.074 C 161.327 234.074,158.765 231.291,158.184 230.970 C 157.859 230.790,158.336 231.415,159.244 232.359 M220.185 299.486 C 215.734 302.933,207.500 304.532,201.177 303.175 C 199.058 302.721,198.817 302.731,198.647 303.281 C 197.132 308.172,194.407 312.376,190.870 315.279 C 187.659 317.915,187.791 317.363,189.682 320.266 C 197.464 332.210,214.102 334.857,225.039 325.891 L 226.929 324.341 225.220 322.078 C 220.424 315.726,219.018 307.551,221.343 299.537 C 221.574 298.744,221.167 298.726,220.185 299.486 " stroke="none" fill="#4b3d5a" fill-rule="evenodd"></path><path id="path2" d="M104.444 69.117 C 103.935 69.207,101.935 69.547,100.000 69.873 C 64.162 75.911,50.975 105.904,66.561 145.926 C 68.048 149.744,68.222 150.511,68.240 153.333 L 68.261 156.481 68.482 153.737 L 68.704 150.992 69.738 153.181 C 73.610 161.375,72.920 174.439,68.063 184.907 C 66.886 187.443,66.390 188.154,65.780 188.174 C 65.092 188.197,65.078 188.231,65.663 188.462 C 66.254 188.695,66.159 188.964,64.793 190.936 C 60.162 197.621,55.344 200.363,50.453 199.095 C 37.157 195.650,34.388 212.177,47.593 216.167 C 55.080 218.429,68.606 215.962,80.055 210.247 L 84.630 207.963 84.725 187.130 L 84.821 166.296 94.608 166.296 C 105.508 166.296,104.487 166.032,104.984 168.981 C 105.217 170.363,105.229 170.370,107.011 170.370 L 108.804 170.370 109.058 172.407 L 109.313 174.444 110.931 174.444 C 112.984 174.444,112.770 173.924,114.074 182.091 C 114.688 185.932,115.270 189.427,115.368 189.859 C 115.521 190.538,115.341 190.672,114.038 190.847 C 113.210 190.958,112.461 191.119,112.375 191.205 C 112.289 191.292,112.766 194.742,113.435 198.872 L 114.652 206.383 115.522 201.868 C 116.370 197.467,116.399 195.791,115.688 192.237 C 115.445 191.019,115.461 191.000,116.541 191.216 L 117.643 191.436 120.013 179.221 C 121.316 172.503,122.478 166.853,122.593 166.666 C 122.709 166.479,126.859 166.209,131.817 166.066 L 140.830 165.807 140.656 170.218 C 140.561 172.645,140.548 173.686,140.629 172.533 L 140.774 170.437 142.795 170.311 L 144.816 170.185 144.815 172.315 L 144.815 174.444 146.897 174.444 L 148.979 174.444 148.828 190.556 C 148.673 207.000,148.715 207.832,149.568 205.099 C 151.232 199.768,156.778 194.778,162.663 193.317 L 164.401 192.886 163.056 190.860 C 161.950 189.194,161.806 188.775,162.244 188.497 C 162.664 188.232,162.611 188.158,161.996 188.154 C 161.382 188.149,160.933 187.532,159.907 185.278 C 154.945 174.380,154.202 161.778,158.020 153.274 L 159.074 150.926 159.302 153.333 L 159.530 155.741 159.529 152.963 C 159.527 150.532,159.738 149.653,161.218 145.926 C 176.859 106.519,164.796 78.007,129.152 70.133 C 124.801 69.172,108.052 68.483,104.444 69.117 M254.397 73.575 C 253.492 74.666,253.712 81.284,254.727 83.483 C 255.842 85.902,255.860 85.907,252.036 82.718 C 247.583 79.005,247.208 78.807,247.940 80.558 C 249.047 83.208,252.766 86.827,255.425 87.843 L 256.962 88.429 256.444 87.190 C 255.794 85.635,255.805 83.817,256.481 80.741 C 257.636 75.493,256.382 71.184,254.397 73.575 M230.990 73.970 C 229.976 75.611,230.489 80.189,232.086 83.747 C 233.240 86.319,233.153 86.318,235.237 83.758 C 236.125 82.667,237.243 81.298,237.721 80.717 C 239.367 78.715,238.680 75.862,236.251 74.606 C 234.872 73.893,231.304 73.462,230.990 73.970 M238.217 74.678 C 240.819 77.457,240.190 80.600,236.300 84.259 C 234.083 86.345,233.888 87.170,235.247 88.718 C 236.579 90.235,237.516 90.256,240.741 88.839 C 241.699 88.417,243.011 88.150,243.829 88.208 C 244.853 88.282,245.348 88.135,245.600 87.685 C 246.065 86.854,248.480 86.233,250.034 86.544 L 251.279 86.793 249.519 84.785 C 247.633 82.633,246.296 80.237,246.296 79.006 C 246.296 77.969,241.312 74.841,238.148 73.893 L 237.222 73.616 238.217 74.678 M258.033 75.661 C 258.154 76.827,257.993 78.790,257.636 80.515 C 256.582 85.611,257.112 88.148,259.230 88.148 C 262.086 88.148,263.587 84.054,262.062 80.429 C 261.539 79.187,261.111 77.768,261.111 77.276 C 261.111 76.529,258.642 73.704,257.989 73.704 C 257.902 73.704,257.922 74.584,258.033 75.661 M271.495 77.753 C 270.908 78.849,271.035 80.492,271.844 82.274 C 273.723 86.417,271.157 91.111,267.013 91.111 C 264.893 91.111,264.444 91.404,264.444 92.787 C 264.444 94.398,264.119 95.185,263.454 95.185 C 261.925 95.185,263.123 97.219,264.783 97.440 C 266.622 97.686,268.039 98.991,268.394 100.766 C 268.570 101.646,268.920 101.924,270.506 102.442 C 271.552 102.784,272.884 103.305,273.467 103.599 C 274.110 103.925,274.423 103.968,274.264 103.711 C 274.120 103.478,274.256 103.005,274.568 102.661 C 275.758 101.346,275.893 100.250,275.127 98.126 C 273.920 94.782,274.931 90.500,277.608 87.611 C 278.669 86.466,278.629 86.152,277.020 82.944 C 274.789 78.493,272.333 76.187,271.495 77.753 M268.348 78.714 C 266.553 80.509,265.392 82.850,265.821 83.811 C 266.050 84.324,265.887 85.475,265.294 87.520 C 264.822 89.151,264.521 90.570,264.625 90.675 C 264.729 90.779,264.815 90.670,264.815 90.432 C 264.815 90.174,265.419 90.000,266.315 90.000 C 270.496 90.000,272.390 86.776,270.711 82.516 C 270.227 81.290,269.987 79.972,270.065 78.984 C 270.217 77.070,270.023 77.039,268.348 78.714 M263.930 82.407 C 264.234 83.769,264.446 84.065,264.439 83.117 C 264.436 82.727,264.264 82.157,264.057 81.852 C 263.783 81.446,263.748 81.596,263.930 82.407 M261.713 88.233 C 261.034 88.887,260.247 89.259,259.543 89.259 C 258.454 89.259,258.465 89.278,260.237 90.501 L 262.037 91.744 262.459 89.483 C 262.691 88.240,262.858 87.219,262.829 87.215 C 262.801 87.211,262.298 87.669,261.713 88.233 M278.045 88.934 C 275.535 92.225,275.126 94.417,276.347 98.032 L 277.139 100.376 276.148 102.287 C 275.077 104.351,275.053 104.282,277.222 105.430 C 277.833 105.754,279.363 106.748,280.622 107.639 C 281.881 108.530,282.964 109.259,283.029 109.258 C 283.095 109.258,283.148 108.341,283.148 107.220 C 283.148 106.100,283.093 105.351,283.025 105.555 C 282.660 106.652,279.621 105.108,278.722 103.368 C 277.571 101.144,278.087 98.223,280.112 95.483 C 280.837 94.503,280.838 94.433,280.193 91.779 C 279.131 87.403,279.171 87.457,278.045 88.934 M247.615 89.907 C 248.037 91.847,250.362 96.192,251.847 97.814 C 252.668 98.711,253.296 99.251,253.244 99.015 C 253.191 98.780,253.716 98.196,254.410 97.719 C 256.367 96.375,257.075 95.174,257.164 93.049 C 257.207 92.006,257.174 91.221,257.090 91.305 C 257.006 91.389,256.521 91.129,256.011 90.728 C 253.505 88.757,247.231 88.144,247.615 89.907 M240.185 90.133 C 238.963 90.562,237.895 90.956,237.811 91.010 C 237.508 91.203,239.120 92.701,241.810 94.726 L 244.557 96.793 245.242 95.948 C 245.618 95.483,245.926 94.788,245.926 94.403 C 245.926 94.019,246.067 93.704,246.239 93.704 C 246.698 93.704,245.358 89.967,244.764 89.590 C 244.004 89.109,242.649 89.270,240.185 90.133 M286.628 92.311 C 284.926 93.605,282.703 96.871,282.342 98.605 C 282.084 99.850,281.484 99.582,281.476 98.219 C 281.465 96.272,280.875 96.062,280.036 97.707 C 278.611 100.501,279.270 103.528,281.505 104.454 C 283.202 105.157,285.301 102.833,284.960 100.627 C 284.374 96.833,288.207 94.446,290.769 97.009 L 291.852 98.091 291.852 96.346 C 291.852 91.922,289.514 90.116,286.628 92.311 M258.104 92.139 C 259.033 93.876,257.588 97.055,255.207 98.513 C 253.818 99.364,253.309 99.986,253.981 100.010 C 254.134 100.015,254.810 100.477,255.484 101.036 C 257.020 102.310,256.799 103.052,254.617 103.955 C 253.221 104.532,252.966 104.809,252.771 105.966 C 252.437 107.943,250.884 109.573,248.599 110.344 L 246.643 111.005 248.355 112.908 C 250.457 115.247,255.030 118.323,259.383 120.327 L 262.655 121.833 264.568 120.842 C 265.620 120.298,266.586 119.878,266.713 119.911 C 266.840 119.943,266.219 118.864,265.332 117.514 C 264.445 116.163,263.541 114.517,263.322 113.855 L 262.925 112.651 261.393 114.312 C 258.318 117.648,254.391 117.606,252.784 114.220 C 251.026 110.516,253.701 107.407,258.645 107.407 C 261.099 107.407,261.184 107.377,260.987 106.574 C 260.229 103.487,260.274 101.930,261.134 101.469 C 262.012 100.999,266.138 101.154,267.593 101.712 C 268.299 101.982,268.303 101.965,267.685 101.342 C 267.329 100.982,267.037 100.533,267.037 100.344 C 267.037 99.626,265.514 98.519,264.527 98.519 C 262.888 98.519,261.852 97.569,261.852 96.068 C 261.852 95.150,261.987 94.841,262.315 95.010 C 262.934 95.330,261.311 94.000,259.311 92.549 C 258.012 91.606,257.775 91.526,258.104 92.139 M246.359 96.288 C 246.091 96.894,245.977 97.561,246.106 97.769 C 246.235 97.978,246.089 98.148,245.782 98.148 C 245.475 98.148,244.153 98.959,242.843 99.951 C 241.533 100.942,239.774 102.140,238.934 102.612 C 236.584 103.932,236.943 104.283,241.759 105.372 C 246.318 106.402,248.273 106.959,247.510 107.008 C 247.117 107.033,245.926 108.851,245.926 109.426 C 245.926 109.828,247.835 109.619,248.815 109.109 C 251.183 107.877,252.773 104.838,250.567 105.760 C 249.361 106.264,247.778 105.730,247.778 104.820 C 247.778 104.287,248.923 103.311,249.286 103.535 C 249.887 103.907,250.895 103.056,250.911 102.164 C 250.919 101.687,251.093 101.296,251.296 101.296 C 251.500 101.296,251.661 101.658,251.654 102.100 C 251.644 102.770,251.756 102.842,252.333 102.533 C 252.958 102.199,252.815 101.944,250.840 99.878 C 249.638 98.621,248.339 97.051,247.952 96.389 C 247.088 94.912,246.972 94.904,246.359 96.288 M286.819 97.897 C 285.281 99.220,285.742 101.284,287.585 101.324 C 288.296 101.339,289.219 101.666,289.648 102.054 C 290.076 102.441,290.386 102.595,290.338 102.397 C 290.290 102.199,290.438 101.585,290.666 101.032 C 291.819 98.248,289.041 95.986,286.819 97.897 M237.410 99.310 C 232.567 100.209,232.455 100.322,234.443 102.300 C 235.415 103.267,236.102 103.709,236.198 103.430 C 236.284 103.178,237.759 102.056,239.474 100.938 C 243.754 98.148,243.737 98.135,237.410 99.310 M291.511 105.742 C 292.036 106.352,292.812 107.348,293.234 107.955 L 294.003 109.058 293.272 110.491 C 292.194 112.603,292.623 112.478,293.758 110.349 C 294.293 109.347,294.596 108.610,294.433 108.710 C 294.271 108.811,293.800 108.348,293.388 107.681 C 292.976 107.014,292.170 106.056,291.597 105.551 L 290.556 104.632 291.511 105.742 M300.401 104.907 C 300.486 104.958,301.056 105.417,301.667 105.926 L 302.778 106.852 301.880 105.833 C 301.386 105.273,300.817 104.815,300.614 104.815 C 300.412 104.815,300.316 104.856,300.401 104.907 M295.717 107.130 L 294.630 108.333 295.833 107.246 C 296.495 106.647,297.037 106.106,297.037 106.042 C 297.037 105.756,296.731 106.008,295.717 107.130 M261.144 108.015 C 261.124 108.277,260.058 108.491,258.335 108.578 C 252.505 108.872,251.303 115.556,257.080 115.556 C 258.657 115.556,262.868 112.226,262.350 111.389 C 262.225 111.186,261.910 110.249,261.650 109.306 C 261.390 108.364,261.162 107.783,261.144 108.015 M292.037 113.704 C 291.896 114.344,291.859 114.945,291.953 115.039 C 292.047 115.134,292.231 114.678,292.361 114.028 C 292.670 112.484,292.371 112.185,292.037 113.704 M291.619 119.259 C 291.619 121.398,291.680 122.273,291.755 121.204 C 291.829 120.134,291.829 118.384,291.755 117.315 C 291.680 116.245,291.619 117.120,291.619 119.259 M263.713 122.543 C 259.869 124.644,259.068 125.738,260.233 127.298 C 261.371 128.822,263.500 129.559,264.404 128.740 C 264.783 128.397,265.684 128.021,266.406 127.903 C 267.354 127.750,267.776 127.463,267.924 126.874 C 268.037 126.424,268.523 125.477,269.005 124.767 L 269.880 123.478 268.697 122.109 C 267.271 120.460,267.571 120.434,263.713 122.543 M281.719 121.738 C 281.588 121.869,281.484 122.156,281.487 122.377 C 281.491 122.614,281.613 122.589,281.787 122.314 C 282.096 121.828,286.938 124.888,290.370 127.738 C 292.771 129.731,292.964 129.812,292.957 128.818 C 292.954 128.284,292.846 128.129,292.670 128.407 C 292.475 128.713,291.115 127.908,288.287 125.814 C 283.650 122.381,282.062 121.395,281.719 121.738 M258.333 123.477 C 252.902 125.850,254.607 130.369,260.926 130.348 L 262.778 130.341 261.648 129.849 C 258.951 128.675,257.953 126.303,259.255 124.167 C 260.064 122.839,259.965 122.765,258.333 123.477 M307.493 124.444 C 307.493 125.157,307.570 125.449,307.663 125.093 C 307.756 124.736,307.756 124.153,307.663 123.796 C 307.570 123.440,307.493 123.731,307.493 124.444 M318.180 125.185 C 318.123 126.286,317.837 126.677,316.278 127.778 C 314.127 129.297,311.473 132.446,309.100 136.294 C 307.745 138.493,307.399 138.859,307.364 138.131 C 307.333 137.467,307.275 137.403,307.148 137.892 C 306.603 139.997,307.526 139.650,309.000 137.196 C 312.420 131.503,315.055 128.594,318.519 126.689 C 319.639 126.073,320.389 125.569,320.185 125.568 C 319.981 125.567,319.565 125.727,319.259 125.922 C 318.818 126.204,318.657 126.031,318.475 125.083 L 318.246 123.889 318.180 125.185 M269.664 125.858 L 268.943 127.272 271.205 126.907 L 273.467 126.543 272.211 125.494 C 270.607 124.155,270.527 124.166,269.664 125.858 M281.951 126.995 C 281.983 127.426,282.244 127.778,282.532 127.778 C 282.971 127.778,282.975 127.675,282.558 127.130 C 282.285 126.773,282.023 126.421,281.977 126.347 C 281.930 126.273,281.918 126.565,281.951 126.995 M304.497 126.667 C 304.497 126.972,304.640 127.556,304.815 127.963 C 305.015 128.430,305.133 128.498,305.133 128.148 C 305.133 127.843,304.990 127.259,304.815 126.852 C 304.614 126.385,304.497 126.316,304.497 126.667 M280.367 128.241 C 280.366 128.495,281.804 130.067,283.564 131.734 L 286.763 134.764 285.511 134.922 C 284.325 135.071,284.332 135.076,285.648 135.030 C 286.412 135.003,287.037 135.138,287.037 135.330 C 287.037 135.522,287.157 135.559,287.303 135.413 C 287.449 135.267,285.996 133.647,284.074 131.812 C 281.311 129.176,280.693 128.405,281.123 128.133 C 281.578 127.845,281.561 127.788,281.019 127.783 C 280.662 127.780,280.369 127.986,280.367 128.241 M284.503 128.328 C 285.248 128.602,287.644 130.025,289.827 131.489 C 292.010 132.954,293.693 133.986,293.568 133.783 C 292.854 132.629,284.690 127.738,283.587 127.804 C 283.346 127.818,283.758 128.054,284.503 128.328 M300.770 130.984 C 300.552 131.767,300.388 132.824,300.403 133.333 C 300.419 133.843,300.649 133.259,300.914 132.037 C 301.461 129.517,301.367 128.833,300.770 130.984 M295.940 135.642 C 295.932 135.791,296.668 136.687,297.575 137.634 C 299.014 139.136,299.241 139.596,299.358 141.251 L 299.493 143.148 299.561 141.230 C 299.626 139.404,299.541 139.216,297.792 137.341 C 296.781 136.257,295.948 135.492,295.940 135.642 M276.111 136.296 C 276.519 136.471,277.102 136.615,277.407 136.615 C 277.758 136.615,277.689 136.497,277.222 136.296 C 276.815 136.121,276.231 135.978,275.926 135.978 C 275.576 135.978,275.644 136.096,276.111 136.296 M299.716 137.778 C 299.716 138.491,299.792 138.782,299.885 138.426 C 299.978 138.069,299.978 137.486,299.885 137.130 C 299.792 136.773,299.716 137.065,299.716 137.778 M298.873 145.833 L 298.684 147.407 300.916 147.339 L 303.148 147.270 301.225 147.135 C 299.304 147.000,299.302 146.998,299.182 145.630 L 299.062 144.259 298.873 145.833 M101.384 148.659 C 105.355 150.732,106.789 156.171,104.443 160.261 C 100.341 167.413,89.454 164.768,88.968 156.502 C 88.583 149.959,95.504 145.587,101.384 148.659 M134.717 148.659 C 139.418 151.114,140.331 158.137,136.450 161.979 C 131.217 167.157,122.262 163.445,122.230 156.085 C 122.203 149.780,129.059 145.703,134.717 148.659 M307.778 148.442 C 311.779 149.798,314.476 152.061,315.015 154.514 C 315.148 155.116,315.340 155.524,315.443 155.422 C 317.005 153.859,311.069 148.600,307.014 147.955 C 306.161 147.819,306.413 147.980,307.778 148.442 M286.909 148.825 C 286.214 149.593,286.103 150.370,286.689 150.370 C 286.904 150.370,286.964 150.181,286.820 149.949 C 286.675 149.714,286.952 149.227,287.447 148.846 C 287.934 148.471,288.151 148.161,287.928 148.156 C 287.705 148.152,287.246 148.453,286.909 148.825 M290.185 151.625 C 290.796 151.903,291.713 152.233,292.222 152.358 C 292.966 152.540,292.929 152.485,292.037 152.079 C 291.426 151.801,290.509 151.471,290.000 151.346 C 289.256 151.163,289.293 151.218,290.185 151.625 M328.316 153.796 L 326.852 155.370 328.426 153.906 C 329.890 152.545,330.170 152.222,329.890 152.222 C 329.829 152.222,329.121 152.931,328.316 153.796 M295.556 153.500 L 296.852 153.981 294.074 155.272 C 292.546 155.983,290.405 157.170,289.315 157.911 C 288.225 158.653,287.155 159.259,286.938 159.259 C 286.721 159.259,286.657 159.373,286.797 159.513 C 286.936 159.652,286.505 160.351,285.840 161.066 C 285.174 161.781,285.760 161.351,287.141 160.111 C 288.883 158.546,290.894 157.249,293.710 155.873 L 297.769 153.890 296.570 153.454 C 295.910 153.215,295.120 153.019,294.815 153.019 C 294.509 153.019,294.843 153.236,295.556 153.500 M324.074 156.481 C 323.157 156.972,322.539 157.381,322.700 157.391 C 323.093 157.413,325.926 155.958,325.926 155.733 C 325.926 155.488,325.941 155.482,324.074 156.481 M279.643 156.642 C 279.097 157.662,279.167 158.351,279.874 158.936 C 280.435 159.400,280.445 159.373,279.988 158.639 C 279.592 158.003,279.577 157.631,279.920 156.879 C 280.425 155.771,280.208 155.586,279.643 156.642 M315.649 157.222 C 315.653 158.037,315.729 158.327,315.818 157.866 C 315.906 157.405,315.903 156.739,315.810 156.385 C 315.717 156.030,315.645 156.407,315.649 157.222 M315.727 162.164 C 315.607 162.909,315.368 163.867,315.196 164.294 C 314.954 164.895,315.362 165.933,317.014 168.923 C 318.186 171.043,319.929 174.236,320.888 176.019 C 321.847 177.801,322.860 179.259,323.139 179.259 C 324.776 179.259,327.807 185.394,327.255 187.592 C 327.119 188.137,327.517 189.477,328.372 191.349 C 330.911 196.907,334.852 207.146,334.653 207.665 C 334.530 207.986,334.612 208.088,334.867 207.931 C 335.119 207.775,335.208 207.877,335.094 208.189 C 334.992 208.472,334.709 208.658,334.466 208.603 C 334.223 208.547,332.994 208.403,331.734 208.282 C 329.698 208.087,324.460 205.863,323.704 204.873 C 323.602 204.739,323.352 204.619,323.148 204.607 C 322.944 204.594,321.778 204.110,320.556 203.530 C 319.333 202.951,316.750 201.782,314.815 200.934 C 311.527 199.493,311.289 199.315,311.181 198.226 C 311.067 197.071,311.077 197.064,312.219 197.462 C 315.643 198.655,327.811 191.005,325.447 189.145 C 325.092 188.865,324.832 187.869,324.737 186.422 C 324.621 184.654,324.342 183.789,323.497 182.574 C 322.898 181.712,322.211 180.668,321.971 180.254 C 320.656 177.986,311.363 173.575,310.249 174.690 C 309.942 174.996,311.440 177.049,313.644 179.343 C 314.569 180.306,315.252 181.163,315.163 181.247 C 314.739 181.645,311.111 180.984,311.111 180.508 C 311.111 180.139,310.554 180.000,309.074 180.000 C 307.284 180.000,307.037 180.090,307.037 180.741 C 307.037 181.163,306.790 181.481,306.464 181.481 C 306.148 181.481,305.240 181.796,304.446 182.179 L 303.001 182.877 302.862 181.346 L 302.722 179.815 302.657 181.510 C 302.609 182.775,302.363 183.420,301.687 184.055 C 299.794 185.833,300.121 188.889,302.205 188.889 C 302.450 188.889,302.593 190.327,302.593 192.803 C 302.593 196.358,302.533 196.699,301.944 196.520 C 297.126 195.060,292.432 195.362,291.735 197.178 C 291.246 198.453,296.999 203.872,301.210 206.103 L 302.593 206.835 302.680 220.547 L 302.768 234.259 302.870 220.720 L 302.972 207.182 305.000 208.128 L 307.028 209.074 307.033 223.796 L 307.037 238.519 300.370 238.519 L 293.704 238.519 293.704 236.852 C 293.704 235.935,293.662 235.186,293.611 235.188 C 293.560 235.189,292.322 235.596,290.861 236.092 C 286.787 237.475,283.955 237.893,281.797 237.430 C 280.789 237.214,279.877 237.037,279.771 237.037 C 279.280 237.037,281.220 239.234,282.479 240.101 C 285.419 242.128,288.906 242.114,295.093 240.049 L 298.148 239.029 298.148 240.811 L 298.148 242.593 304.630 242.593 L 311.111 242.593 311.111 233.276 C 311.111 224.038,311.103 223.944,310.158 221.946 C 308.603 218.659,307.397 209.748,308.519 209.828 C 308.620 209.835,311.787 210.880,315.556 212.150 L 322.407 214.459 322.463 216.952 C 322.543 220.538,322.653 220.877,323.889 221.361 C 325.899 222.147,326.180 222.007,326.435 220.093 C 326.564 219.125,326.983 217.821,327.365 217.194 L 328.059 216.054 330.789 216.529 C 332.290 216.790,334.673 217.136,336.083 217.298 L 338.648 217.593 340.339 222.593 L 342.031 227.593 342.270 225.185 C 342.462 223.251,342.348 222.279,341.692 220.243 L 340.876 217.708 338.864 217.028 C 337.757 216.653,332.685 214.645,327.593 212.565 C 322.500 210.486,314.750 207.326,310.370 205.544 C 295.608 199.538,295.599 199.534,296.049 198.362 C 296.394 197.463,296.782 197.572,304.663 200.772 C 308.719 202.418,315.870 205.313,320.556 207.205 C 325.241 209.097,331.157 211.523,333.704 212.596 C 339.828 215.178,340.081 215.205,339.430 213.204 C 339.154 212.359,337.894 208.500,336.629 204.630 C 335.364 200.759,334.327 197.392,334.325 197.146 C 334.323 196.900,334.172 196.792,333.989 196.904 C 332.831 197.620,330.879 193.455,331.258 191.079 C 331.851 187.375,319.655 161.796,316.955 161.078 C 316.015 160.828,315.932 160.902,315.727 162.164 M282.593 170.697 C 282.593 171.058,284.033 172.405,284.188 172.189 C 284.248 172.105,283.913 171.668,283.445 171.217 C 282.976 170.766,282.593 170.532,282.593 170.697 M301.953 171.852 C 301.953 172.769,302.025 173.144,302.113 172.685 C 302.202 172.227,302.202 171.477,302.113 171.019 C 302.025 170.560,301.953 170.935,301.953 171.852 M166.296 172.407 C 166.987 173.120,167.636 173.704,167.738 173.704 C 167.840 173.704,167.358 173.120,166.667 172.407 C 165.976 171.694,165.327 171.111,165.225 171.111 C 165.123 171.111,165.605 171.694,166.296 172.407 M308.316 173.056 L 306.852 174.630 308.426 173.166 C 309.890 171.804,310.170 171.481,309.890 171.481 C 309.829 171.481,309.121 172.190,308.316 173.056 M302.963 175.621 C 302.963 175.789,303.907 175.926,305.062 175.926 C 306.216 175.926,307.076 175.841,306.972 175.738 C 306.645 175.410,302.963 175.303,302.963 175.621 M365.641 177.407 C 365.641 178.120,365.718 178.412,365.811 178.056 C 365.904 177.699,365.904 177.116,365.811 176.759 C 365.718 176.403,365.641 176.694,365.641 177.407 M38.982 180.185 C 38.986 181.000,39.062 181.290,39.151 180.829 C 39.239 180.368,39.236 179.702,39.143 179.348 C 39.051 178.993,38.978 179.370,38.982 180.185 M337.130 179.828 C 336.211 180.472,333.990 184.281,332.728 187.377 L 331.885 189.444 332.702 189.647 C 333.406 189.821,333.519 190.102,333.524 191.684 C 333.528 192.818,333.776 193.868,334.173 194.434 C 334.526 194.938,334.815 195.640,334.815 195.995 C 334.815 197.314,337.884 197.994,342.070 197.601 C 348.057 197.040,349.213 193.552,343.606 192.967 L 341.798 192.778 344.147 191.237 C 346.950 189.398,350.237 186.029,350.587 184.636 C 351.462 181.150,345.104 180.937,340.285 184.290 C 337.549 186.194,337.650 186.241,338.130 183.287 C 338.797 179.174,338.674 178.747,337.130 179.828 M129.206 182.315 C 129.134 182.569,129.162 187.278,129.268 192.778 L 129.463 202.778 129.546 192.315 C 129.623 182.667,129.568 181.048,129.206 182.315 M97.407 185.185 C 97.407 186.475,97.481 187.457,97.570 187.368 C 97.848 187.091,97.925 183.357,97.659 183.091 C 97.520 182.953,97.407 183.895,97.407 185.185 M186.458 184.907 L 185.370 186.111 186.574 185.023 C 187.236 184.425,187.778 183.883,187.778 183.820 C 187.778 183.533,187.472 183.785,186.458 184.907 M58.801 189.151 C 59.261 189.239,59.928 189.236,60.282 189.143 C 60.636 189.051,60.259 188.978,59.444 188.982 C 58.630 188.986,58.340 189.062,58.801 189.151 M167.690 189.151 C 168.150 189.239,168.817 189.236,169.171 189.143 C 169.525 189.051,169.148 188.978,168.333 188.982 C 167.519 188.986,167.229 189.062,167.690 189.151 M307.037 194.135 C 307.037 196.139,306.912 197.775,306.759 197.772 C 306.606 197.769,305.731 197.543,304.815 197.269 L 303.148 196.772 303.043 193.062 L 302.938 189.351 304.988 189.922 L 307.037 190.492 307.037 194.135 M315.000 191.225 C 314.593 191.468,313.551 192.378,312.685 193.247 L 311.111 194.828 311.111 192.784 L 311.111 190.741 313.426 190.763 C 315.390 190.781,315.629 190.851,315.000 191.225 M263.988 197.676 C 264.654 197.758,265.654 197.757,266.210 197.672 C 266.767 197.588,266.222 197.520,265.000 197.522 C 263.778 197.524,263.322 197.593,263.988 197.676 M140.131 200.926 C 140.130 202.759,140.193 203.556,140.271 202.696 C 140.348 201.837,140.349 200.337,140.273 199.363 C 140.196 198.389,140.133 199.093,140.131 200.926 M179.584 199.167 C 179.777 199.523,180.241 200.094,180.616 200.435 C 180.990 200.777,182.900 202.652,184.859 204.602 C 188.927 208.650,188.889 208.630,188.889 206.733 C 188.889 202.012,185.386 198.528,180.635 198.521 C 179.413 198.519,179.278 198.602,179.584 199.167 M262.763 217.963 C 262.763 226.926,262.811 230.540,262.870 225.993 C 262.929 221.447,262.929 214.114,262.870 209.697 C 262.811 205.280,262.763 209.000,262.763 217.963 M267.037 220.185 L 267.037 238.519 260.370 238.519 L 253.704 238.519 253.704 236.812 C 253.704 235.339,253.615 235.140,253.056 235.355 C 248.568 237.081,243.967 237.927,241.795 237.426 C 239.505 236.898,239.493 236.907,240.535 238.274 C 243.388 242.013,249.630 242.523,256.574 239.582 L 258.148 238.915 258.148 240.754 L 258.148 242.593 264.630 242.593 L 271.111 242.593 271.106 235.648 C 271.102 230.645,270.955 228.286,270.579 227.208 C 269.031 222.767,268.624 210.845,269.826 205.133 C 270.549 201.697,270.601 201.852,268.704 201.852 L 267.037 201.852 267.037 220.185 M101.728 208.115 C 101.593 211.253,101.481 219.404,101.481 226.228 L 101.481 238.635 95.463 238.467 C 92.153 238.375,90.311 238.357,91.370 238.427 L 93.296 238.554 93.407 240.481 L 93.519 242.407 99.444 242.407 L 105.370 242.407 105.468 230.269 L 105.566 218.130 103.884 210.639 C 102.959 206.519,102.152 202.982,102.089 202.778 C 102.027 202.575,101.864 204.976,101.728 208.115 M226.096 204.536 C 226.380 205.216,226.730 206.807,226.873 208.071 L 227.133 210.370 223.645 210.370 L 220.158 210.370 222.084 212.407 L 224.010 214.444 226.399 214.444 L 228.788 214.444 229.051 210.516 C 229.340 206.199,229.233 205.918,226.586 204.021 L 225.579 203.300 226.096 204.536 M124.867 221.511 L 120.660 238.614 117.089 238.422 C 115.125 238.317,114.268 238.337,115.184 238.467 C 116.836 238.702,116.853 238.720,117.240 240.556 L 117.631 242.407 121.175 242.513 L 124.719 242.618 127.003 233.439 L 129.287 224.259 129.180 214.334 L 129.074 204.408 124.867 221.511 M210.556 206.307 C 209.741 206.471,208.616 206.781,208.056 206.997 L 207.037 207.389 207.037 215.472 L 207.037 223.555 204.907 223.999 C 199.662 225.091,193.285 229.364,190.187 233.863 C 189.405 234.998,188.543 235.926,188.272 235.926 C 187.520 235.926,187.678 235.226,188.704 234.007 L 189.630 232.906 189.630 221.448 C 189.630 209.545,189.352 207.082,188.293 209.600 C 187.946 210.425,187.961 211.107,188.365 212.823 C 189.928 219.468,187.911 226.451,182.949 231.574 L 180.527 234.074 178.134 234.094 C 157.437 234.262,146.694 258.612,160.331 274.446 L 161.701 276.036 164.091 274.904 C 169.099 272.532,173.761 271.795,178.796 272.578 C 182.788 273.199,182.638 273.026,182.236 276.545 C 179.889 297.124,203.052 310.857,220.318 299.122 C 221.691 298.189,222.221 297.974,222.035 298.424 C 218.911 306.008,220.493 315.686,226.000 322.679 C 226.612 323.455,226.971 324.251,226.821 324.495 C 226.656 324.762,226.712 324.830,226.968 324.673 C 227.196 324.531,228.302 325.165,229.426 326.080 C 242.200 336.485,261.743 331.022,267.481 315.443 C 271.219 305.292,267.384 293.045,258.637 287.205 C 255.635 285.201,255.712 285.303,256.495 284.361 L 257.195 283.519 256.366 284.279 L 255.537 285.039 252.306 283.926 C 245.197 281.479,236.358 282.852,230.403 287.328 L 229.139 288.278 229.399 287.380 C 232.839 275.499,228.826 264.437,218.842 258.274 C 216.274 256.690,216.307 256.833,218.008 254.565 C 221.917 249.356,229.005 244.987,233.889 244.777 C 234.519 244.750,234.720 244.656,234.352 244.560 C 233.995 244.466,233.704 244.087,233.704 243.716 C 233.704 235.296,223.298 225.226,213.089 223.766 L 211.296 223.509 211.296 217.418 L 211.296 211.327 213.519 210.636 C 214.994 210.177,216.333 210.011,217.504 210.141 C 219.137 210.322,219.240 210.285,218.898 209.646 C 218.275 208.482,216.284 206.676,215.434 206.503 C 213.414 206.092,211.924 206.032,210.556 206.307 M245.263 208.173 C 240.711 209.138,238.117 215.390,239.284 222.583 C 239.742 225.409,239.465 225.043,241.389 225.361 L 242.963 225.621 242.963 222.663 C 242.963 218.438,246.009 213.051,248.794 212.352 C 250.185 212.003,250.032 208.617,248.611 208.318 C 246.740 207.924,246.488 207.913,245.263 208.173 M284.970 208.172 C 281.798 209.104,278.880 214.066,278.905 218.485 C 278.936 223.842,279.376 224.979,281.574 225.383 L 282.963 225.638 282.963 222.693 C 282.963 218.339,285.895 213.079,288.718 212.371 C 289.895 212.075,290.118 208.706,288.981 208.386 C 287.378 207.935,286.025 207.862,284.970 208.172 M144.263 223.757 L 143.988 238.625 138.938 238.453 C 136.161 238.359,134.755 238.343,135.815 238.418 L 137.740 238.554 137.852 240.481 L 137.963 242.407 143.056 242.510 L 148.148 242.613 148.241 233.807 C 148.481 210.968,148.450 210.636,146.006 209.469 C 145.337 209.150,144.733 208.889,144.664 208.889 C 144.595 208.889,144.414 215.579,144.263 223.757 M335.944 210.278 C 336.189 211.042,336.661 211.997,336.991 212.401 C 337.561 213.097,337.557 213.108,336.906 212.601 C 336.528 212.308,336.092 211.727,335.937 211.312 C 335.373 209.801,335.139 208.889,335.317 208.889 C 335.416 208.889,335.699 209.514,335.944 210.278 M172.961 212.568 C 170.631 213.277,167.280 215.922,167.912 216.554 C 168.058 216.700,169.722 216.886,171.610 216.969 L 175.043 217.119 175.485 215.646 C 176.461 212.387,175.881 211.680,172.961 212.568 M274.545 213.704 C 274.545 214.620,274.618 214.995,274.706 214.537 C 274.794 214.079,274.794 213.329,274.706 212.870 C 274.618 212.412,274.545 212.787,274.545 213.704 M162.222 217.373 C 162.222 219.790,163.030 221.328,164.449 221.612 C 166.257 221.974,166.296 221.951,166.296 220.544 C 166.296 219.824,166.530 218.676,166.816 217.993 L 167.335 216.750 165.982 216.533 C 165.238 216.414,164.088 216.207,163.426 216.075 C 162.222 215.833,162.222 215.833,162.222 217.373 M97.174 220.370 C 97.174 222.509,97.235 223.384,97.310 222.315 C 97.385 221.245,97.385 219.495,97.310 218.426 C 97.235 217.356,97.174 218.231,97.174 220.370 M350.425 221.326 C 349.343 223.455,347.721 226.059,346.821 227.113 C 345.921 228.167,345.180 229.206,345.174 229.422 C 345.168 229.638,344.993 229.523,344.785 229.167 C 344.578 228.810,344.116 228.519,343.759 228.519 C 343.403 228.519,342.911 228.319,342.667 228.074 C 342.087 227.494,342.104 227.669,342.835 229.816 L 343.449 231.615 342.002 232.837 C 336.510 237.475,329.389 238.417,323.189 235.326 C 320.781 234.125,320.733 234.360,322.965 236.447 C 326.385 239.647,329.778 240.926,334.843 240.926 L 339.130 240.926 342.300 239.355 C 349.000 236.035,352.973 229.309,352.957 221.311 C 352.949 216.946,352.651 216.947,350.425 221.326 M178.310 227.870 L 177.222 229.074 178.426 227.986 C 179.548 226.972,179.800 226.667,179.514 226.667 C 179.450 226.667,178.908 227.208,178.310 227.870 M139.754 231.481 C 139.754 233.009,139.820 233.634,139.899 232.870 C 139.979 232.106,139.979 230.856,139.899 230.093 C 139.820 229.329,139.754 229.954,139.754 231.481 M90.284 234.342 C 90.950 234.425,91.950 234.423,92.507 234.339 C 93.063 234.254,92.519 234.187,91.296 234.189 C 90.074 234.191,89.619 234.260,90.284 234.342 M113.431 234.340 C 113.994 234.425,114.827 234.423,115.283 234.335 C 115.738 234.247,115.278 234.177,114.259 234.180 C 113.241 234.183,112.868 234.255,113.431 234.340 M134.729 234.342 C 135.395 234.425,136.395 234.423,136.951 234.339 C 137.508 234.254,136.963 234.187,135.741 234.189 C 134.519 234.191,134.063 234.260,134.729 234.342 M254.630 251.481 C 255.633 252.500,256.537 253.333,256.639 253.333 C 256.741 253.333,256.003 252.500,255.000 251.481 C 253.997 250.463,253.093 249.630,252.991 249.630 C 252.889 249.630,253.626 250.463,254.630 251.481 M261.967 268.704 C 261.969 269.926,262.038 270.381,262.120 269.716 C 262.203 269.050,262.201 268.050,262.116 267.493 C 262.032 266.937,261.965 267.481,261.967 268.704 M157.593 313.704 C 158.596 314.722,159.500 315.556,159.602 315.556 C 159.704 315.556,158.966 314.722,157.963 313.704 C 156.960 312.685,156.056 311.852,155.954 311.852 C 155.852 311.852,156.589 312.685,157.593 313.704 " stroke="none" fill="#9366bb" fill-rule="evenodd"></path><path id="path3" d="M130.319 166.195 L 122.676 166.311 118.539 187.322 C 116.265 198.878,114.050 210.156,113.617 212.384 C 112.597 217.642,112.883 218.772,108.704 192.963 C 106.742 180.843,104.963 169.884,104.752 168.611 L 104.368 166.296 94.777 166.296 L 85.185 166.296 85.185 200.185 L 85.185 234.074 91.111 234.074 L 97.037 234.074 97.037 226.944 C 97.038 210.840,97.551 182.486,97.829 183.163 C 97.993 183.562,100.556 194.889,103.524 208.333 C 106.491 221.778,109.007 233.069,109.114 233.426 C 109.282 233.983,109.796 234.074,112.788 234.074 L 116.268 234.074 116.641 232.685 C 116.847 231.921,119.765 220.148,123.126 206.523 C 126.487 192.898,129.326 181.662,129.433 181.554 C 129.541 181.446,129.630 193.219,129.630 207.716 L 129.630 234.074 134.630 234.074 L 139.630 234.074 139.640 231.759 C 139.646 230.486,139.806 218.861,139.997 205.926 C 140.187 192.991,140.362 178.741,140.386 174.259 L 140.429 166.111 139.196 166.095 C 138.518 166.086,134.523 166.131,130.319 166.195 M290.278 171.737 C 289.677 171.894,289.630 172.796,289.630 184.058 L 289.630 196.210 287.424 195.319 C 274.047 189.916,267.144 200.197,269.796 221.573 C 271.190 232.817,276.557 235.771,287.500 231.319 L 289.630 230.453 289.630 232.264 L 289.630 234.074 296.111 234.074 L 302.593 234.074 302.593 220.620 L 302.593 207.166 299.729 205.352 C 296.382 203.232,291.481 198.719,291.481 197.758 C 291.481 195.747,294.883 194.817,299.069 195.685 C 300.702 196.023,302.162 196.299,302.315 196.298 C 302.468 196.297,302.593 194.729,302.593 192.814 L 302.593 189.332 301.296 188.568 C 299.560 187.543,300.334 183.333,302.258 183.333 C 302.656 183.333,302.502 176.575,302.027 173.241 L 301.777 171.481 296.352 171.524 C 293.367 171.548,290.634 171.644,290.278 171.737 M162.264 193.524 C 157.307 194.917,152.738 198.715,150.399 203.389 L 149.222 205.741 150.718 205.950 C 152.550 206.207,153.827 207.345,154.389 209.220 C 156.082 214.870,164.136 227.973,168.273 231.808 C 170.673 234.031,178.845 228.807,181.953 223.064 C 189.934 208.312,177.268 189.310,162.264 193.524 M323.632 193.207 C 323.286 193.302,321.620 194.214,319.928 195.233 C 318.236 196.252,316.409 197.176,315.868 197.286 C 315.327 197.396,314.360 198.026,313.721 198.686 L 312.558 199.886 314.334 200.553 C 315.312 200.921,317.603 201.965,319.427 202.874 C 322.736 204.524,322.745 204.526,324.681 204.062 C 328.139 203.232,331.047 204.035,333.513 206.500 C 335.190 208.177,335.246 208.399,331.922 200.185 L 329.074 193.148 326.667 193.091 C 325.343 193.060,323.977 193.112,323.632 193.207 M189.907 193.611 C 189.856 193.764,189.815 202.898,189.815 213.909 L 189.815 233.928 191.412 231.991 C 193.448 229.522,196.336 227.344,199.731 225.717 L 202.407 224.435 202.593 213.647 L 202.778 202.859 204.444 202.361 C 208.696 201.091,212.193 201.888,214.260 204.598 L 215.273 205.926 218.981 205.926 L 222.688 205.926 222.436 203.696 C 221.429 194.796,213.670 191.644,204.352 196.351 L 202.963 197.052 202.963 195.193 L 202.963 193.333 196.481 193.333 C 192.917 193.333,189.958 193.458,189.907 193.611 M249.630 194.763 L 249.630 196.210 247.388 195.305 C 240.531 192.535,233.645 194.597,231.356 200.106 C 229.454 204.683,228.739 216.566,229.937 223.704 C 231.467 232.818,236.769 235.171,247.395 231.450 C 248.508 231.060,249.466 230.741,249.524 230.741 C 249.582 230.741,249.630 231.491,249.630 232.407 L 249.630 234.074 256.111 234.074 L 262.593 234.074 262.671 215.741 C 262.714 205.657,262.756 196.532,262.764 195.463 L 262.778 193.519 256.204 193.417 L 249.630 193.316 249.630 194.763 M334.444 197.131 C 334.444 198.034,340.172 215.039,340.596 215.395 C 340.854 215.611,341.061 216.278,341.056 216.876 C 341.050 217.474,341.370 218.880,341.765 220.000 L 342.484 222.037 343.372 218.333 C 344.569 213.337,344.573 209.184,343.382 205.953 C 341.895 201.916,339.089 197.798,337.801 197.762 C 337.483 197.753,336.597 197.522,335.833 197.250 C 334.968 196.941,334.444 196.896,334.444 197.131 M170.576 204.583 C 178.884 208.451,177.066 220.759,168.027 221.843 C 163.742 222.357,160.378 220.567,158.649 216.855 C 155.094 209.222,163.023 201.065,170.576 204.583 M245.879 204.242 C 249.702 205.260,249.630 205.043,249.630 215.454 L 249.630 224.482 248.364 225.011 C 241.295 227.965,235.524 224.393,234.731 216.575 C 233.811 207.490,238.518 202.283,245.879 204.242 M285.879 204.242 C 286.974 204.534,288.268 205.147,288.756 205.605 L 289.642 206.437 289.543 215.523 L 289.444 224.608 287.038 225.327 C 279.842 227.475,275.059 223.774,274.566 215.676 C 274.045 207.134,278.777 202.352,285.879 204.242 M308.523 213.201 C 308.534 221.173,312.182 227.456,318.730 230.776 L 321.948 232.407 326.437 232.407 C 332.009 232.407,334.502 231.429,338.356 227.728 C 341.132 225.062,341.096 225.268,339.574 220.833 L 338.398 217.407 336.790 217.407 C 335.374 217.407,335.018 217.591,333.795 218.948 C 328.736 224.565,319.214 221.851,317.961 214.435 L 317.720 213.005 313.582 211.633 C 311.306 210.879,309.236 210.185,308.981 210.091 C 308.633 209.963,308.520 210.731,308.523 213.201 M148.354 215.535 C 148.959 221.223,152.872 227.853,156.833 229.901 L 157.935 230.470 157.306 229.587 C 155.260 226.712,152.181 221.452,150.284 217.593 L 148.100 213.148 148.354 215.535 " stroke="none" fill="#fbfbfb" fill-rule="evenodd"></path><path id="path4" d="M248.430 88.780 C 248.891 88.869,249.558 88.866,249.912 88.773 C 250.266 88.680,249.889 88.608,249.074 88.612 C 248.259 88.616,247.970 88.692,248.430 88.780 M262.507 101.380 C 263.172 101.462,264.172 101.460,264.729 101.376 C 265.285 101.291,264.741 101.224,263.519 101.226 C 262.296 101.228,261.841 101.297,262.507 101.380 M260.456 102.963 C 260.456 103.676,260.533 103.968,260.626 103.611 C 260.719 103.255,260.719 102.671,260.626 102.315 C 260.533 101.958,260.456 102.250,260.456 102.963 M262.754 104.167 C 262.850 104.625,263.106 105.895,263.322 106.990 C 264.736 114.142,269.978 121.745,276.310 125.826 C 280.942 128.811,280.834 129.074,274.969 129.074 C 270.504 129.074,264.815 130.073,264.815 130.857 C 264.815 132.487,268.684 134.350,275.000 135.760 L 277.963 136.422 275.370 136.867 C 269.154 137.935,264.264 142.144,266.195 144.767 C 268.028 147.257,275.098 149.695,282.696 150.455 L 287.059 150.892 285.171 151.835 C 281.793 153.521,278.988 157.039,279.880 158.470 C 281.152 160.508,285.887 160.245,289.259 157.950 C 290.380 157.188,292.546 155.983,294.074 155.272 L 296.852 153.981 295.556 153.500 C 294.843 153.236,294.509 153.019,294.815 153.019 C 295.120 153.019,295.910 153.215,296.570 153.454 L 297.769 153.890 293.710 155.873 C 286.850 159.225,283.217 163.314,282.707 168.258 C 282.090 174.235,290.665 173.122,303.414 165.571 L 304.791 164.756 303.506 167.220 C 301.622 170.835,301.755 175.556,303.742 175.556 C 306.485 175.556,313.658 167.518,313.280 164.868 C 312.960 162.626,314.081 158.519,315.013 158.519 C 315.384 158.519,315.572 158.079,315.608 157.130 L 315.661 155.741 315.886 157.207 C 316.273 159.726,318.075 159.505,324.813 156.112 C 334.489 151.239,331.113 144.236,321.048 148.301 C 318.445 149.352,318.459 149.422,320.694 146.566 C 326.596 139.026,329.965 131.668,329.669 126.971 C 329.558 125.214,326.752 124.248,323.502 124.849 C 317.845 125.895,313.636 129.479,309.000 137.196 C 307.526 139.650,306.603 139.997,307.148 137.892 C 307.275 137.403,307.333 137.467,307.364 138.131 C 307.399 138.859,307.745 138.493,309.100 136.294 C 311.473 132.446,314.127 129.297,316.278 127.778 C 318.356 126.311,318.710 124.815,317.557 122.384 C 316.306 119.748,312.945 121.090,309.971 125.413 C 308.541 127.491,307.879 127.505,307.636 125.463 C 306.868 119.014,306.524 116.994,305.708 114.154 C 302.747 103.853,298.040 102.369,293.709 110.370 C 293.102 111.491,292.610 112.241,292.615 112.037 C 292.620 111.833,292.933 111.085,293.311 110.375 C 293.988 109.104,293.987 109.065,293.236 107.967 C 291.745 105.787,290.646 104.803,290.154 105.211 C 289.676 105.607,289.402 105.407,288.361 103.904 C 286.283 100.900,284.190 107.703,286.056 111.398 C 287.443 114.148,285.760 113.907,281.287 110.716 C 273.679 105.288,262.132 101.207,262.754 104.167 M283.064 107.407 C 283.064 108.324,283.136 108.699,283.224 108.241 C 283.313 107.782,283.313 107.032,283.224 106.574 C 283.136 106.116,283.064 106.491,283.064 107.407 M292.361 114.028 C 292.231 114.678,292.047 115.134,291.953 115.039 C 291.859 114.945,291.896 114.344,292.037 113.704 C 292.371 112.185,292.670 112.484,292.361 114.028 M291.755 121.204 C 291.680 122.273,291.619 121.398,291.619 119.259 C 291.619 117.120,291.680 116.245,291.755 117.315 C 291.829 118.384,291.829 120.134,291.755 121.204 M288.287 125.814 C 291.115 127.908,292.475 128.713,292.670 128.407 C 292.846 128.129,292.954 128.284,292.957 128.818 C 292.964 129.812,292.771 129.731,290.370 127.738 C 286.938 124.888,282.096 121.828,281.787 122.314 C 281.613 122.589,281.491 122.614,281.487 122.377 C 281.468 121.007,282.497 121.527,288.287 125.814 M272.407 126.667 L 271.296 126.949 272.293 126.993 C 272.841 127.017,273.393 126.870,273.519 126.667 C 273.644 126.463,273.696 126.316,273.633 126.340 C 273.570 126.364,273.019 126.511,272.407 126.667 M282.558 127.130 C 282.975 127.675,282.971 127.778,282.532 127.778 C 282.244 127.778,281.983 127.426,281.951 126.995 C 281.918 126.565,281.930 126.273,281.977 126.347 C 282.023 126.421,282.285 126.773,282.558 127.130 M303.546 126.860 C 302.759 127.455,302.769 127.480,304.018 128.131 C 304.863 128.571,304.882 128.548,304.664 127.347 C 304.466 126.250,304.484 126.212,304.826 127.013 C 305.038 127.509,305.135 128.116,305.040 128.362 C 304.946 128.609,305.246 129.164,305.707 129.598 L 306.545 130.385 306.991 128.896 C 307.559 127.000,309.501 126.576,309.150 128.426 C 309.043 128.986,308.750 130.569,308.497 131.944 C 308.245 133.319,307.897 134.444,307.723 134.444 C 307.549 134.444,307.301 134.430,307.171 134.413 C 307.041 134.395,306.813 134.578,306.664 134.818 C 306.496 135.091,306.295 134.858,306.131 134.202 C 304.908 129.299,299.346 127.761,297.173 131.723 C 295.641 134.517,295.693 135.012,297.764 137.278 C 299.538 139.218,299.626 139.413,299.561 141.234 L 299.493 143.148 299.359 141.278 C 299.245 139.677,299.001 139.170,297.668 137.759 L 296.111 136.111 295.996 138.141 C 295.854 140.646,296.330 142.623,298.033 146.606 C 299.751 150.625,299.280 151.628,296.691 149.465 C 294.180 147.367,291.700 147.648,289.414 150.290 L 288.272 151.609 287.296 150.897 C 285.837 149.833,286.039 149.217,288.280 147.893 C 290.826 146.389,292.383 145.864,293.932 145.987 C 295.279 146.094,295.523 146.019,295.318 145.559 C 291.667 137.340,294.647 127.258,300.741 127.215 C 301.657 127.208,302.741 127.004,303.148 126.761 C 304.173 126.149,304.408 126.208,303.546 126.860 M281.123 128.133 C 280.693 128.405,281.311 129.176,284.074 131.812 C 285.996 133.647,287.449 135.267,287.303 135.413 C 287.157 135.559,287.037 135.522,287.037 135.330 C 287.037 135.138,286.412 135.003,285.648 135.030 C 284.332 135.076,284.325 135.071,285.511 134.922 L 286.763 134.764 283.564 131.734 C 280.388 128.726,279.774 127.773,281.019 127.783 C 281.561 127.788,281.578 127.845,281.123 128.133 M285.014 128.153 C 286.170 128.593,293.233 133.241,293.568 133.783 C 293.693 133.986,292.010 132.954,289.827 131.489 C 287.644 130.025,285.248 128.602,284.503 128.328 C 283.758 128.054,283.346 127.818,283.587 127.804 C 283.828 127.790,284.471 127.947,285.014 128.153 M300.914 132.037 C 300.649 133.259,300.419 133.843,300.403 133.333 C 300.374 132.378,301.075 129.461,301.281 129.687 C 301.344 129.758,301.180 130.815,300.914 132.037 M299.885 138.426 C 299.792 138.782,299.716 138.491,299.716 137.778 C 299.716 137.065,299.792 136.773,299.885 137.130 C 299.978 137.486,299.978 138.069,299.885 138.426 M301.225 147.135 L 303.148 147.270 300.916 147.339 L 298.684 147.407 298.873 145.833 L 299.062 144.259 299.182 145.630 C 299.302 146.998,299.304 147.000,301.225 147.135 M310.187 149.027 C 313.065 150.345,316.428 154.436,315.443 155.422 C 315.340 155.524,315.148 155.116,315.015 154.514 C 314.476 152.061,311.779 149.798,307.778 148.442 C 306.413 147.980,306.161 147.819,307.014 147.955 C 307.714 148.066,309.142 148.549,310.187 149.027 M286.914 149.136 C 286.560 149.490,286.609 150.000,286.997 150.000 C 287.179 150.000,287.424 149.750,287.541 149.444 C 287.758 148.880,287.363 148.686,286.914 149.136 M158.174 152.962 C 154.197 161.590,154.868 174.211,159.889 185.238 C 161.371 188.493,160.918 188.280,167.723 188.922 C 176.697 189.768,183.409 188.207,186.763 184.494 C 191.724 179.003,186.570 173.371,178.421 175.377 C 170.811 177.250,166.181 174.479,162.157 165.645 C 160.368 161.718,159.054 155.378,159.357 152.130 C 159.564 149.904,159.593 149.883,158.174 152.962 M68.514 153.333 C 68.363 162.458,63.099 172.992,57.581 175.214 C 55.264 176.147,53.324 176.214,50.043 175.474 C 43.446 173.987,39.265 175.857,39.261 180.296 C 39.255 186.322,47.689 189.932,59.437 188.933 C 66.988 188.291,66.355 188.588,68.080 184.871 C 72.960 174.354,73.617 160.727,69.617 152.984 L 68.554 150.926 68.514 153.333 M292.037 152.079 C 292.929 152.485,292.966 152.540,292.222 152.358 C 291.713 152.233,290.796 151.903,290.185 151.625 C 289.293 151.218,289.256 151.163,290.000 151.346 C 290.509 151.471,291.426 151.801,292.037 152.079 M106.661 170.646 C 107.574 170.726,108.446 170.989,108.599 171.229 C 108.784 171.520,108.879 171.450,108.883 171.019 C 108.888 170.475,108.576 170.381,106.944 170.435 L 105.000 170.500 106.661 170.646 M110.741 182.595 C 112.304 191.949,111.980 191.123,113.984 190.854 C 115.340 190.672,115.522 190.541,115.368 189.859 C 115.270 189.427,114.688 185.932,114.074 182.091 C 112.771 173.934,112.979 174.444,110.964 174.444 L 109.379 174.444 110.741 182.595 M144.815 179.384 C 144.815 182.101,144.705 189.814,144.571 196.524 L 144.328 208.724 145.775 209.380 C 147.065 209.965,147.358 210.365,148.475 213.073 C 150.439 217.835,153.533 223.530,156.519 227.880 C 159.570 232.323,159.812 232.859,158.056 231.277 C 157.394 230.680,157.595 230.982,158.503 231.948 C 160.157 233.707,160.941 234.290,159.965 233.035 C 159.264 232.134,160.924 233.966,162.885 236.257 L 164.475 238.114 167.145 236.709 C 168.613 235.937,170.064 235.223,170.368 235.123 C 170.764 234.992,170.107 234.063,168.059 231.859 C 162.901 226.307,157.399 217.626,154.794 210.926 C 153.146 206.691,151.526 205.376,149.245 206.424 C 148.736 206.658,148.692 204.972,148.828 190.565 L 148.979 174.444 146.897 174.444 L 144.815 174.444 144.815 179.384 M140.481 176.667 C 140.481 177.787,140.551 178.245,140.636 177.685 C 140.721 177.125,140.721 176.208,140.636 175.648 C 140.551 175.088,140.481 175.546,140.481 176.667 M306.781 177.963 C 306.784 179.185,306.853 179.641,306.935 178.975 C 307.018 178.309,307.016 177.309,306.931 176.753 C 306.847 176.196,306.779 176.741,306.781 177.963 M324.844 187.293 C 324.828 188.147,324.947 188.927,325.108 189.026 C 325.269 189.126,325.340 188.594,325.266 187.844 C 325.064 185.795,324.877 185.551,324.844 187.293 M97.529 189.815 C 97.531 191.241,97.598 191.779,97.678 191.010 C 97.758 190.242,97.757 189.075,97.675 188.418 C 97.593 187.760,97.527 188.389,97.529 189.815 M266.781 199.815 C 266.784 201.037,266.853 201.492,266.935 200.827 C 267.018 200.161,267.016 199.161,266.931 198.604 C 266.847 198.048,266.779 198.593,266.781 199.815 M222.593 200.116 C 222.593 200.180,223.134 200.721,223.796 201.320 L 225.000 202.407 223.912 201.204 C 222.898 200.082,222.593 199.830,222.593 200.116 M101.624 205.556 C 101.624 208.102,101.683 209.144,101.756 207.870 C 101.828 206.597,101.828 204.514,101.756 203.241 C 101.683 201.968,101.624 203.009,101.624 205.556 M181.629 201.944 C 181.483 202.199,181.502 202.281,181.672 202.126 C 181.843 201.972,182.411 202.222,182.935 202.682 L 183.889 203.519 182.991 202.500 C 181.955 201.325,181.980 201.335,181.629 201.944 M140.127 206.852 C 140.128 208.481,140.193 209.102,140.272 208.231 C 140.350 207.360,140.349 206.026,140.269 205.268 C 140.190 204.509,140.126 205.222,140.127 206.852 M185.263 205.406 C 185.611 205.808,186.340 207.131,186.883 208.346 C 187.800 210.400,187.896 210.497,188.253 209.716 C 188.764 208.600,188.125 207.433,186.152 205.877 C 185.315 205.217,184.915 205.005,185.263 205.406 M215.332 206.235 C 215.513 206.526,217.778 206.373,217.778 206.069 C 217.778 205.990,217.185 205.926,216.460 205.926 C 215.735 205.926,215.227 206.065,215.332 206.235 M167.890 208.757 C 164.770 209.862,161.529 214.577,161.963 217.378 C 162.084 218.158,162.121 218.104,162.167 217.083 C 162.220 215.878,162.265 215.842,163.426 216.075 C 167.269 216.845,167.274 216.845,168.547 215.395 C 169.997 213.743,171.443 212.942,173.902 212.427 L 175.766 212.037 175.465 210.518 C 175.014 208.244,171.588 207.447,167.890 208.757 M219.216 210.106 C 219.377 210.266,221.244 210.349,223.365 210.289 L 227.222 210.181 223.073 209.998 C 220.790 209.897,219.055 209.946,219.216 210.106 M144.224 218.333 C 144.224 221.593,144.281 222.876,144.350 221.186 C 144.419 219.496,144.418 216.829,144.349 215.260 C 144.280 213.691,144.224 215.074,144.224 218.333 M342.323 225.185 C 342.323 226.102,342.395 226.477,342.484 226.019 C 342.572 225.560,342.572 224.810,342.484 224.352 C 342.395 223.894,342.323 224.269,342.323 225.185 M97.156 226.296 C 97.156 227.620,97.223 228.162,97.305 227.500 C 97.387 226.838,97.387 225.755,97.305 225.093 C 97.223 224.431,97.156 224.972,97.156 226.296 M101.111 234.617 L 101.111 238.123 97.130 238.242 L 93.148 238.361 97.315 238.440 L 101.481 238.519 101.481 234.815 C 101.481 232.778,101.398 231.111,101.296 231.111 C 101.194 231.111,101.111 232.689,101.111 234.617 M177.875 233.969 C 178.438 234.055,179.272 234.052,179.727 233.964 C 180.183 233.877,179.722 233.807,178.704 233.810 C 177.685 233.812,177.312 233.884,177.875 233.969 M94.167 234.339 C 94.727 234.424,95.644 234.424,96.204 234.339 C 96.764 234.254,96.306 234.185,95.185 234.185 C 94.065 234.185,93.606 234.254,94.167 234.339 M252.666 234.350 C 254.439 234.417,257.439 234.418,259.333 234.350 C 261.228 234.283,259.778 234.227,256.111 234.227 C 252.444 234.227,250.894 234.282,252.666 234.350 M290.278 234.335 C 290.736 234.424,291.486 234.424,291.944 234.335 C 292.403 234.247,292.028 234.175,291.111 234.175 C 290.194 234.175,289.819 234.247,290.278 234.335 M295.664 234.349 C 297.047 234.421,299.214 234.420,300.478 234.348 C 301.743 234.276,300.611 234.217,297.963 234.218 C 295.315 234.219,294.280 234.278,295.664 234.349 M253.647 236.666 L 253.775 238.519 260.499 238.435 L 267.222 238.352 260.648 238.241 L 254.074 238.131 254.074 236.473 C 254.074 235.561,253.949 234.815,253.796 234.815 C 253.644 234.814,253.576 235.648,253.647 236.666 M283.056 237.663 C 283.412 237.756,283.995 237.756,284.352 237.663 C 284.708 237.570,284.417 237.493,283.704 237.493 C 282.991 237.493,282.699 237.570,283.056 237.663 M117.692 238.417 C 118.358 238.499,119.358 238.497,119.914 238.413 C 120.471 238.328,119.926 238.261,118.704 238.263 C 117.481 238.265,117.026 238.334,117.692 238.417 M139.363 238.421 C 140.337 238.497,141.837 238.496,142.696 238.419 C 143.556 238.341,142.759 238.278,140.926 238.280 C 139.093 238.281,138.389 238.344,139.363 238.421 M296.944 238.424 C 298.829 238.491,301.912 238.491,303.796 238.424 C 305.681 238.357,304.139 238.302,300.370 238.302 C 296.602 238.302,295.060 238.357,296.944 238.424 M232.778 244.988 C 226.648 246.325,221.871 249.423,218.009 254.565 C 216.306 256.833,216.274 256.690,218.842 258.274 C 228.826 264.437,232.839 275.499,229.399 287.380 L 229.139 288.278 230.403 287.328 C 236.376 282.839,245.194 281.479,252.352 283.942 L 255.630 285.070 257.046 283.277 C 270.538 266.210,254.135 240.330,232.778 244.988 M170.185 272.768 C 150.979 276.978,144.301 300.802,158.562 314.231 C 166.017 321.250,176.970 322.872,186.003 318.294 C 186.979 317.800,187.778 317.492,187.778 317.610 C 187.778 318.032,193.214 313.375,194.137 312.162 C 195.563 310.289,197.355 306.972,198.137 304.759 C 198.730 303.081,198.969 302.790,199.696 302.856 C 200.169 302.899,199.615 302.630,198.465 302.258 C 188.094 298.900,180.973 287.620,182.235 276.551 C 182.423 274.908,182.499 273.486,182.404 273.391 C 181.412 272.400,173.668 272.005,170.185 272.768 M221.516 298.291 C 221.253 298.608,221.216 298.910,221.425 299.039 C 221.617 299.158,221.879 298.982,222.007 298.649 C 222.321 297.830,222.058 297.639,221.516 298.291 M203.611 303.595 C 204.069 303.683,204.819 303.683,205.278 303.595 C 205.736 303.506,205.361 303.434,204.444 303.434 C 203.528 303.434,203.153 303.506,203.611 303.595 M207.505 303.599 C 208.068 303.684,208.901 303.682,209.357 303.594 C 209.812 303.506,209.352 303.436,208.333 303.439 C 207.315 303.442,206.942 303.514,207.505 303.599 M223.709 319.819 C 224.134 320.637,225.065 321.970,225.777 322.782 C 226.910 324.074,226.873 323.975,225.480 321.993 C 224.605 320.746,223.674 319.413,223.412 319.030 C 223.150 318.647,223.283 319.002,223.709 319.819 M192.778 324.444 C 193.573 325.259,194.308 325.926,194.410 325.926 C 194.511 325.926,193.944 325.259,193.148 324.444 C 192.353 323.630,191.618 322.963,191.516 322.963 C 191.414 322.963,191.982 323.630,192.778 324.444 " stroke="none" fill="#744ca6" fill-rule="evenodd"></path></g></svg>