<svg id="svg" version="1.1" xmlns="http://www.w3.org/2000/svg" xmlns:xlink="http://www.w3.org/1999/xlink" width="400" height="400" viewBox="0, 0, 400,400"><g id="svgg"><path id="path0" d="M0.000 200.000 L 0.000 400.000 200.000 400.000 L 400.000 400.000 400.000 200.000 L 400.000 0.000 200.000 0.000 L 0.000 0.000 0.000 200.000 M187.953 104.589 C 191.763 107.086,191.457 118.134,187.401 124.454 C 185.621 127.228,185.234 127.310,183.300 125.320 C 180.906 122.858,176.653 119.504,173.698 117.749 C 170.785 116.018,170.701 115.784,172.032 113.112 C 175.182 106.791,184.060 102.038,187.953 104.589 M113.519 106.452 C 116.985 108.007,121.623 112.637,122.690 115.607 C 122.918 116.242,115.021 121.440,114.547 120.967 C 114.425 120.845,114.519 120.100,114.755 119.311 C 115.301 117.491,115.307 115.003,114.769 113.957 C 114.113 112.684,112.889 111.481,112.250 111.483 C 111.918 111.484,112.165 111.788,112.822 112.189 C 114.130 112.986,114.817 114.587,114.809 116.815 C 114.805 117.961,114.711 118.197,114.428 117.778 C 114.147 117.363,114.110 117.473,114.281 118.214 C 114.408 118.759,114.325 119.509,114.098 119.881 C 113.739 120.466,113.692 120.408,113.747 119.444 C 114.029 114.478,107.622 113.759,106.090 118.585 C 105.965 118.978,105.669 119.208,105.432 119.095 C 105.194 118.982,104.708 118.786,104.352 118.661 C 103.995 118.535,103.704 118.327,103.703 118.198 C 103.703 118.069,102.947 117.914,102.024 117.855 C 99.115 117.667,97.573 119.757,98.674 122.394 C 99.160 123.556,99.149 123.649,98.536 123.603 C 97.963 123.560,97.878 123.210,97.917 121.054 C 97.971 118.121,98.198 117.817,100.598 117.467 L 102.407 117.203 100.787 116.549 C 99.896 116.189,99.259 115.803,99.372 115.690 C 99.771 115.291,101.818 115.987,103.480 117.088 C 105.346 118.325,105.734 118.276,106.036 116.767 C 106.342 115.239,108.398 112.610,109.744 112.024 C 110.394 111.742,110.659 111.504,110.333 111.496 C 109.062 111.465,107.208 113.177,106.057 115.442 C 104.500 118.509,103.704 117.903,103.704 113.648 C 103.704 106.292,107.294 103.660,113.519 106.452 M109.815 112.541 C 108.529 113.335,107.629 114.326,107.263 115.350 C 107.009 116.060,107.016 116.060,107.790 115.359 C 109.402 113.900,113.704 114.759,113.704 116.539 C 113.704 116.813,113.851 117.037,114.031 117.037 C 115.234 117.037,113.457 112.937,111.958 112.254 C 110.879 111.762,111.131 111.728,109.815 112.541 M260.831 115.256 C 263.030 115.863,263.044 116.051,261.060 118.376 C 256.915 123.235,252.254 125.627,245.451 126.386 C 241.717 126.803,240.914 127.552,244.172 127.579 C 246.589 127.600,246.647 129.376,244.308 131.715 C 242.123 133.900,240.199 133.982,240.165 131.893 C 240.131 129.810,235.643 127.316,229.047 125.714 C 225.824 124.932,224.815 124.320,224.815 123.148 C 224.815 120.889,228.258 120.948,234.487 123.316 C 236.966 124.258,236.910 124.261,237.181 123.179 C 237.763 120.861,243.004 116.465,246.820 115.095 C 249.032 114.300,257.733 114.400,260.831 115.256 M114.660 121.481 C 115.153 121.481,115.556 121.648,115.556 121.852 C 115.556 122.056,115.319 122.222,115.030 122.222 C 114.042 122.222,113.333 121.773,113.363 121.164 C 113.381 120.780,113.461 120.726,113.579 121.019 C 113.681 121.273,114.168 121.481,114.660 121.481 M119.839 122.608 C 121.331 123.530,122.611 125.556,121.701 125.556 C 121.404 125.556,121.057 125.227,120.929 124.824 C 120.801 124.422,120.248 123.781,119.700 123.400 C 118.512 122.572,116.175 121.726,116.491 122.237 C 116.612 122.433,116.938 122.593,117.217 122.593 C 117.856 122.593,119.260 124.347,119.258 125.143 C 119.257 125.508,118.992 125.308,118.578 124.630 C 118.204 124.019,117.455 123.282,116.912 122.993 C 116.370 122.704,115.926 122.224,115.926 121.926 C 115.926 121.175,118.147 121.562,119.839 122.608 M109.206 122.380 C 110.425 123.010,111.111 124.371,111.111 126.157 C 111.111 129.817,105.588 131.063,103.893 127.785 C 102.037 124.198,105.638 120.535,109.206 122.380 M101.111 125.449 C 101.111 125.551,100.674 125.978,100.139 126.399 C 99.604 126.820,98.876 127.813,98.521 128.606 C 98.036 129.688,97.817 129.897,97.643 129.441 C 97.363 128.713,97.915 127.580,98.801 127.064 C 99.201 126.831,99.261 126.685,98.960 126.678 C 98.693 126.672,98.573 126.507,98.694 126.312 C 98.814 126.118,99.186 126.063,99.521 126.192 C 99.967 126.363,100.069 126.270,99.905 125.841 C 99.781 125.520,99.769 125.169,99.877 125.062 C 100.096 124.843,101.111 125.161,101.111 125.449 M119.259 126.888 C 119.259 127.214,118.742 127.964,118.109 128.555 C 117.476 129.146,117.146 129.630,117.376 129.630 C 118.170 129.630,120.683 127.802,120.922 127.051 C 121.183 126.227,121.857 126.014,121.844 126.759 C 121.815 128.395,118.827 130.092,115.741 130.226 C 114.519 130.279,113.539 130.375,113.564 130.439 C 116.067 136.881,112.110 142.379,107.834 138.401 C 106.838 137.474,105.400 134.847,105.716 134.531 C 106.462 133.785,104.687 133.003,103.748 133.665 C 102.499 134.544,100.578 135.134,101.568 134.334 C 101.922 134.049,102.110 133.715,101.988 133.593 C 101.865 133.470,102.242 133.252,102.827 133.108 C 103.411 132.964,104.242 132.617,104.673 132.338 C 105.392 131.873,105.493 131.919,105.896 132.892 C 107.448 136.637,111.924 137.562,113.060 134.373 C 113.160 134.091,113.369 134.026,113.560 134.217 C 113.751 134.408,113.695 134.615,113.426 134.711 C 113.171 134.802,112.963 135.121,112.963 135.420 C 112.963 136.930,108.806 137.365,107.288 136.014 C 106.578 135.382,106.575 135.390,107.136 136.481 C 108.905 139.924,113.333 140.135,113.333 136.777 C 113.333 136.391,113.521 135.886,113.751 135.657 C 114.017 135.390,114.060 134.862,113.868 134.194 C 113.703 133.619,113.539 132.898,113.503 132.593 C 113.467 132.287,113.318 131.495,113.171 130.833 C 112.919 129.697,112.963 129.629,113.952 129.621 C 115.557 129.609,118.093 128.303,118.578 127.241 C 119.075 126.150,119.259 126.054,119.259 126.888 M99.648 132.920 C 100.314 133.325,100.636 133.725,100.409 133.865 C 99.488 134.434,97.243 132.342,97.646 131.290 C 97.881 130.679,97.928 130.690,98.198 131.420 C 98.360 131.859,99.013 132.534,99.648 132.920 M171.296 139.793 C 172.315 140.268,173.720 141.091,174.419 141.621 C 175.556 142.484,175.755 142.527,176.300 142.034 C 178.481 140.060,179.718 142.772,177.641 144.974 C 176.060 146.650,175.618 146.632,173.507 144.805 C 170.172 141.919,167.522 141.074,164.753 142.014 C 162.932 142.633,162.044 142.515,161.697 141.611 C 160.676 138.952,166.945 137.765,171.296 139.793 M124.630 139.956 C 127.311 141.494,125.839 143.431,122.779 142.391 C 120.107 141.483,117.821 142.152,114.526 144.808 C 111.805 147.000,111.874 146.989,110.198 145.517 C 108.534 144.056,108.365 142.368,109.846 141.996 C 110.473 141.839,110.995 141.948,111.358 142.311 C 111.851 142.804,112.152 142.706,114.049 141.440 C 117.761 138.961,121.887 138.382,124.630 139.956 M146.668 145.001 C 147.750 145.981,148.288 147.956,147.829 149.270 C 147.465 150.316,147.496 150.370,148.460 150.370 C 152.153 150.370,157.229 152.722,164.469 157.787 C 174.190 164.589,176.360 165.299,189.259 165.901 C 202.254 166.507,208.492 168.964,205.353 172.240 C 198.272 179.631,175.046 189.390,159.907 191.335 C 156.770 191.738,154.815 192.149,154.815 192.406 C 154.815 192.635,155.555 196.396,156.460 200.763 C 157.365 205.130,158.518 211.037,159.021 213.889 C 159.814 218.378,159.941 218.788,159.968 216.944 L 160.000 214.815 166.667 214.815 L 173.333 214.815 173.333 216.481 C 173.333 218.376,173.273 218.338,175.080 217.583 C 182.009 214.688,187.863 215.143,190.666 218.795 C 191.216 219.512,191.997 220.368,192.401 220.698 C 192.804 221.027,193.759 221.963,194.523 222.778 C 196.156 224.521,196.562 224.926,198.486 226.727 L 199.936 228.084 200.576 225.431 C 202.692 216.668,209.092 213.242,217.250 216.506 C 220.087 217.641,220.000 217.654,220.000 216.111 L 220.000 214.815 226.667 214.815 L 233.333 214.815 233.333 216.852 L 233.333 218.889 235.370 218.889 L 237.407 218.889 237.407 221.111 L 237.407 223.333 238.704 223.333 L 240.000 223.333 240.000 219.074 L 240.000 214.815 246.667 214.815 L 253.333 214.815 253.333 216.521 C 253.333 217.996,253.421 218.193,253.981 217.974 C 261.216 215.140,265.407 214.931,268.818 217.233 C 270.238 218.192,272.328 220.882,271.948 221.262 C 271.806 221.404,271.950 221.421,272.268 221.298 C 272.842 221.078,273.932 221.961,275.951 224.279 C 276.473 224.879,277.515 225.926,278.265 226.604 L 279.630 227.838 279.630 225.400 L 279.630 222.963 284.722 222.913 C 287.523 222.885,289.450 222.791,289.003 222.704 C 288.404 222.588,288.162 222.238,288.077 221.366 C 287.965 220.204,287.930 220.183,285.833 220.074 L 283.704 219.963 283.704 217.944 L 283.704 215.926 281.667 215.926 L 279.630 215.926 279.630 210.000 L 279.630 204.074 286.111 204.074 L 292.593 204.074 292.593 206.111 L 292.593 208.148 294.815 208.148 L 297.037 208.148 297.037 210.185 L 297.037 212.222 299.074 212.222 L 301.111 212.222 301.111 215.574 L 301.111 218.927 302.315 218.026 C 306.422 214.951,310.462 214.587,315.936 216.798 L 318.148 217.692 318.148 216.253 L 318.148 214.815 324.630 214.815 L 331.111 214.815 331.111 216.852 L 331.111 218.889 333.333 218.889 L 335.556 218.889 335.556 221.111 L 335.556 223.333 337.593 223.333 L 339.630 223.333 339.630 243.519 L 339.630 263.704 333.148 263.704 L 326.667 263.704 326.667 262.037 C 326.667 260.171,326.658 260.164,325.233 260.901 C 319.227 264.007,311.638 263.366,308.850 259.517 C 308.254 258.695,307.304 257.741,306.738 257.397 C 305.538 256.667,303.627 254.498,303.857 254.126 C 303.943 253.986,303.391 253.512,302.629 253.074 L 301.244 252.277 300.818 256.787 C 299.543 270.260,293.876 279.022,284.733 281.658 C 281.033 282.724,279.975 282.410,279.321 280.050 L 278.771 278.064 277.175 278.282 C 275.420 278.523,275.579 278.743,274.620 274.762 C 274.406 273.872,274.256 273.799,272.995 273.969 L 271.607 274.155 270.204 268.911 C 269.433 266.027,268.863 263.620,268.938 263.561 C 269.013 263.501,269.824 263.091,270.741 262.648 C 271.657 262.205,272.991 261.331,273.704 260.705 C 274.417 260.079,274.803 259.667,274.563 259.790 C 274.322 259.912,274.021 259.843,273.893 259.636 C 273.765 259.429,272.753 259.259,271.645 259.259 L 269.630 259.259 269.630 257.222 L 269.630 255.185 267.593 255.185 L 265.556 255.185 265.556 243.478 L 265.556 231.772 264.646 232.000 C 261.230 232.857,261.333 232.245,261.553 250.272 L 261.723 264.157 260.069 263.930 C 259.159 263.806,256.188 263.704,253.467 263.704 L 248.519 263.704 248.519 261.667 L 248.519 259.630 246.296 259.630 L 244.074 259.630 244.074 257.593 L 244.074 255.556 242.778 255.556 L 241.481 255.556 241.481 259.630 L 241.481 263.704 235.000 263.704 L 228.519 263.704 228.519 262.081 L 228.519 260.459 225.309 261.565 C 218.575 263.886,214.894 263.438,211.235 259.852 C 209.967 258.609,208.254 256.951,207.428 256.166 C 206.602 255.381,205.926 254.506,205.926 254.222 C 205.926 253.937,205.760 253.704,205.557 253.704 C 204.804 253.704,202.082 250.878,201.454 249.444 C 200.591 247.475,199.973 243.174,199.643 236.852 C 199.495 234.000,199.348 232.520,199.316 233.563 C 199.259 235.453,199.255 235.459,197.870 235.688 C 194.866 236.185,194.317 236.029,192.838 234.259 C 190.409 231.353,186.743 230.641,182.870 232.322 L 181.481 232.925 181.481 237.888 C 181.481 240.618,181.588 244.117,181.719 245.664 L 181.957 248.477 185.018 250.514 C 192.473 255.476,192.117 259.772,184.177 260.649 L 181.667 260.926 181.552 262.315 L 181.437 263.704 174.978 263.704 C 168.915 263.704,168.519 263.661,168.519 263.011 C 168.519 261.655,161.929 261.660,161.575 263.017 C 161.408 263.653,160.916 263.704,154.957 263.704 L 148.519 263.704 148.519 262.107 L 148.519 260.511 145.278 261.619 C 141.079 263.055,136.231 263.222,133.889 262.013 C 132.585 261.339,132.296 261.308,131.481 261.750 C 130.860 262.088,129.947 262.180,128.704 262.029 C 127.685 261.905,126.435 261.827,125.926 261.855 C 125.417 261.883,123.750 261.935,122.222 261.971 C 119.647 262.032,119.436 262.098,119.326 262.870 L 119.208 263.704 111.479 263.704 L 103.751 263.704 102.709 261.759 C 101.840 260.138,101.478 259.796,100.531 259.704 C 99.564 259.609,99.249 259.294,98.405 257.574 C 97.553 255.837,97.269 255.556,96.365 255.556 C 95.350 255.556,95.054 255.027,87.502 239.722 L 79.689 223.889 79.659 243.796 L 79.630 263.704 75.000 263.704 L 70.370 263.704 70.370 261.667 L 70.370 259.630 68.333 259.630 L 66.296 259.630 66.296 257.611 L 66.296 255.593 64.200 255.481 L 62.104 255.370 62.164 238.889 C 62.196 229.824,62.331 214.366,62.464 204.537 L 62.704 186.667 68.770 186.667 L 74.836 186.667 75.800 188.889 C 76.694 190.951,76.850 191.111,77.966 191.111 C 79.068 191.111,79.240 191.279,80.047 193.142 C 80.834 194.961,81.043 195.173,82.052 195.179 C 83.124 195.185,94.083 217.206,98.889 229.012 L 99.815 231.286 99.910 209.030 L 100.006 186.773 102.503 186.537 C 103.876 186.408,106.292 186.300,107.870 186.299 L 110.741 186.296 110.741 188.333 L 110.741 190.370 112.778 190.370 L 114.815 190.370 114.815 192.593 L 114.815 194.815 117.097 194.815 L 119.380 194.815 119.140 210.907 C 119.008 219.758,119.030 227.081,119.190 227.179 C 119.776 227.542,120.236 226.796,120.878 224.444 C 122.372 218.974,124.887 216.505,130.108 215.385 C 130.677 215.263,131.204 214.960,131.279 214.711 C 132.019 212.246,135.916 192.099,135.924 190.690 C 135.925 190.560,134.801 190.251,133.426 190.004 C 120.985 187.761,109.103 183.648,97.778 177.664 C 87.300 172.129,85.449 170.501,87.500 168.626 C 89.815 166.509,92.170 166.051,102.407 165.722 C 114.531 165.334,116.825 164.599,125.619 158.295 C 130.893 154.514,135.294 152.154,138.402 151.438 L 140.322 150.995 140.111 149.214 C 139.617 145.048,143.771 142.379,146.668 145.001 M329.740 156.650 C 331.922 158.567,333.519 162.897,335.071 171.110 L 335.245 172.036 336.045 170.925 C 341.246 163.703,354.742 157.071,364.294 157.043 C 367.683 157.034,368.060 157.592,367.461 161.735 C 365.993 171.892,360.515 182.117,353.563 187.679 L 352.126 188.829 353.933 189.069 C 365.588 190.615,371.175 195.645,365.796 199.748 C 362.510 202.254,348.713 207.871,343.851 208.682 L 342.332 208.935 342.132 205.292 C 341.460 193.104,328.047 179.630,316.587 179.630 C 314.826 179.630,314.827 179.619,317.116 172.963 C 322.224 158.113,325.938 153.313,329.740 156.650 M223.685 182.778 C 221.972 190.811,217.546 199.651,211.300 207.514 L 209.597 209.657 208.595 208.942 C 204.806 206.238,199.685 199.666,197.235 194.364 C 196.037 191.771,193.949 185.904,194.163 185.732 C 194.216 185.690,196.259 185.293,198.704 184.851 C 211.040 182.618,216.124 180.404,221.860 174.766 L 224.259 172.407 224.367 175.741 C 224.443 178.090,224.242 180.168,223.685 182.778 M157.778 235.606 C 157.778 247.619,157.792 247.859,158.463 246.994 C 159.963 245.062,160.000 244.748,160.000 233.913 L 160.000 223.333 158.889 223.333 L 157.778 223.333 157.778 235.606 M292.593 225.741 L 292.593 227.037 294.815 227.037 L 297.037 227.037 297.043 228.981 C 297.046 230.051,297.210 231.176,297.407 231.481 C 297.673 231.892,297.771 231.651,297.785 230.556 C 297.795 229.741,298.027 228.032,298.300 226.759 L 298.797 224.444 295.695 224.444 L 292.593 224.444 292.593 225.741 M273.131 241.111 C 273.131 248.750,273.180 251.875,273.240 248.056 C 273.300 244.236,273.300 237.986,273.240 234.167 C 273.180 230.347,273.131 233.472,273.131 241.111 M135.306 229.650 C 134.660 229.846,133.436 230.797,132.585 231.762 L 131.038 233.519 131.295 238.704 C 131.520 243.258,131.661 244.081,132.458 245.463 C 133.602 247.448,133.540 247.527,133.397 244.264 C 133.218 240.181,135.680 235.348,138.661 233.934 C 139.990 233.303,140.701 230.477,139.687 229.850 C 139.009 229.431,136.419 229.313,135.306 229.650 M317.778 231.807 C 317.778 233.468,317.688 233.651,316.659 234.077 C 314.059 235.154,311.832 239.268,311.565 243.486 C 311.307 247.561,312.087 248.019,316.574 246.424 L 318.148 245.865 318.148 237.932 C 318.148 233.570,318.065 230.000,317.963 230.000 C 317.861 230.000,317.778 230.813,317.778 231.807 M204.916 235.185 C 204.916 236.102,204.988 236.477,205.076 236.019 C 205.164 235.560,205.164 234.810,205.076 234.352 C 204.988 233.894,204.916 234.269,204.916 235.185 M217.981 234.429 C 215.290 236.203,213.339 240.468,213.335 244.580 L 213.333 247.123 215.648 246.950 C 216.921 246.855,218.421 246.590,218.981 246.361 L 220.000 245.944 220.000 239.824 C 220.000 233.169,219.979 233.112,217.981 234.429 M100.093 235.741 C 100.098 236.556,100.173 236.845,100.262 236.385 C 100.351 235.924,100.347 235.257,100.254 234.903 C 100.162 234.549,100.089 234.926,100.093 235.741 M297.493 237.778 C 297.493 238.491,297.570 238.782,297.663 238.426 C 297.756 238.069,297.756 237.486,297.663 237.130 C 297.570 236.773,297.493 237.065,297.493 237.778 M279.748 246.296 C 279.748 247.620,279.815 248.162,279.898 247.500 C 279.980 246.838,279.980 245.755,279.898 245.093 C 279.815 244.431,279.748 244.972,279.748 246.296 M160.143 249.630 C 160.143 252.176,160.202 253.218,160.274 251.944 C 160.347 250.671,160.347 248.588,160.274 247.315 C 160.202 246.042,160.143 247.083,160.143 249.630 M140.101 253.704 C 140.101 254.620,140.173 254.995,140.261 254.537 C 140.350 254.079,140.350 253.329,140.261 252.870 C 140.173 252.412,140.101 252.787,140.101 253.704 " stroke="none" fill="#e4ab3d" fill-rule="evenodd"></path><path id="path1" d="M182.037 104.354 C 178.423 105.652,173.681 109.804,172.032 113.112 C 170.701 115.784,170.785 116.018,173.698 117.749 C 176.653 119.504,180.906 122.858,183.300 125.320 C 185.628 127.715,187.444 126.087,189.545 119.720 C 192.933 109.452,189.187 101.785,182.037 104.354 M107.637 105.560 C 105.044 106.356,103.704 109.113,103.704 113.648 C 103.704 117.698,104.549 118.570,105.819 115.830 C 109.387 108.129,117.194 111.171,114.755 119.311 C 114.114 121.452,114.411 121.407,118.838 118.701 C 123.377 115.928,123.262 116.207,121.176 113.019 C 118.005 108.174,111.248 104.451,107.637 105.560 M105.699 122.215 C 103.635 123.049,102.790 125.654,103.893 127.785 C 105.588 131.063,111.111 129.817,111.111 126.157 C 111.111 122.923,108.555 121.061,105.699 122.215 M146.599 151.269 C 146.052 151.750,145.386 152.221,145.117 152.315 C 144.382 152.572,146.544 155.490,148.471 156.842 C 149.905 157.847,150.324 157.955,152.521 157.883 C 155.900 157.772,156.665 159.203,153.660 160.012 C 150.897 160.756,146.924 159.246,144.649 156.589 L 143.453 155.191 142.273 156.659 C 139.868 159.652,136.356 160.816,133.768 159.478 C 132.499 158.821,132.281 158.127,133.124 157.427 C 133.512 157.106,133.858 157.093,134.396 157.382 C 136.631 158.577,139.892 156.863,141.672 153.556 L 142.364 152.271 141.485 151.559 C 139.647 150.071,133.380 152.732,125.619 158.295 C 116.825 164.599,114.531 165.334,102.407 165.722 C 92.170 166.051,89.815 166.509,87.500 168.626 C 85.449 170.501,87.300 172.129,97.778 177.664 C 109.103 183.648,120.985 187.761,133.426 190.004 C 134.801 190.251,135.925 190.560,135.924 190.690 C 135.916 192.099,132.019 212.246,131.279 214.711 C 131.204 214.960,130.677 215.263,130.108 215.385 C 121.362 217.261,118.349 225.459,120.208 242.316 C 121.511 254.126,126.794 257.185,138.248 252.762 C 140.259 251.985,140.370 252.045,140.370 253.898 L 140.370 255.573 146.759 255.472 L 153.148 255.370 153.244 237.130 L 153.340 218.889 155.374 218.889 L 157.407 218.889 157.407 221.111 L 157.407 223.333 158.704 223.333 L 160.000 223.333 160.000 231.607 C 160.000 236.157,160.110 243.411,160.244 247.727 L 160.489 255.573 166.818 255.471 L 173.148 255.370 173.245 239.780 L 173.341 224.189 174.726 223.785 C 179.320 222.445,181.820 222.920,184.222 225.592 L 185.854 227.407 189.408 227.407 L 192.963 227.407 192.963 226.004 C 192.963 216.763,185.478 213.239,175.080 217.583 C 173.273 218.338,173.333 218.376,173.333 216.481 L 173.333 214.815 166.667 214.815 L 160.000 214.815 159.968 216.944 C 159.941 218.788,159.814 218.378,159.021 213.889 C 158.518 211.037,157.365 205.130,156.460 200.763 C 155.555 196.396,154.815 192.635,154.815 192.406 C 154.815 192.149,156.770 191.738,159.907 191.335 C 175.046 189.390,198.272 179.631,205.353 172.240 C 208.492 168.964,202.254 166.507,189.259 165.901 C 176.360 165.299,174.190 164.589,164.469 157.787 C 155.157 151.273,149.103 149.064,146.599 151.269 M221.860 174.766 C 216.124 180.404,211.040 182.618,198.704 184.851 C 196.259 185.293,194.216 185.690,194.163 185.732 C 193.949 185.904,196.037 191.771,197.235 194.364 C 199.685 199.666,204.806 206.238,208.595 208.942 L 209.597 209.657 211.300 207.514 C 219.654 196.997,224.661 184.824,224.367 175.741 L 224.259 172.407 221.860 174.766 M101.722 186.570 L 99.925 186.710 100.055 213.892 C 100.127 228.842,100.086 240.958,99.965 240.815 C 99.733 240.542,76.793 191.219,75.557 188.337 L 74.841 186.667 68.773 186.667 L 62.704 186.667 62.464 204.537 C 62.331 214.366,62.197 229.824,62.164 238.889 L 62.106 255.370 66.606 255.474 L 71.106 255.578 71.201 231.127 L 71.296 206.676 83.305 231.116 L 95.313 255.556 103.027 255.556 L 110.741 255.556 110.741 220.926 L 110.741 186.296 107.130 186.363 C 105.144 186.400,102.710 186.493,101.722 186.570 M279.630 210.000 L 279.630 215.926 286.111 215.926 L 292.593 215.926 292.593 210.000 L 292.593 204.074 286.111 204.074 L 279.630 204.074 279.630 210.000 M220.000 216.111 C 220.000 217.654,220.087 217.641,217.250 216.506 C 210.920 213.974,204.357 215.994,201.938 221.221 C 199.290 226.941,198.943 243.489,201.349 249.259 C 203.660 254.803,210.190 255.944,219.329 252.403 C 219.848 252.202,219.974 252.433,220.070 253.765 L 220.185 255.370 226.667 255.370 L 233.148 255.370 233.244 235.093 L 233.340 214.815 226.670 214.815 L 220.000 214.815 220.000 216.111 M240.089 235.093 L 240.185 255.370 246.667 255.370 L 253.148 255.370 253.245 239.762 L 253.341 224.154 255.789 223.491 C 259.429 222.506,261.845 223.068,263.981 225.395 L 265.556 227.109 265.556 241.147 L 265.556 255.185 269.277 255.185 L 272.999 255.185 272.878 239.167 C 272.743 221.347,272.697 220.995,270.204 218.428 C 266.832 214.956,262.030 214.822,253.981 217.974 C 253.421 218.193,253.333 217.996,253.333 216.521 L 253.333 214.815 246.664 214.815 L 239.994 214.815 240.089 235.093 M318.148 216.253 L 318.148 217.692 315.936 216.798 C 304.530 212.191,297.719 218.628,297.653 234.074 C 297.570 253.566,301.887 257.542,317.500 252.351 C 318.055 252.167,318.148 252.382,318.148 253.846 L 318.148 255.556 324.630 255.556 L 331.111 255.556 331.111 235.185 L 331.111 214.815 324.630 214.815 L 318.148 214.815 318.148 216.253 M279.653 236.944 C 279.728 250.455,279.704 251.001,278.929 253.148 C 277.381 257.438,273.894 261.398,270.370 262.870 C 269.657 263.168,269.013 263.469,268.938 263.540 C 268.863 263.610,269.433 266.027,270.204 268.910 L 271.607 274.153 273.435 273.910 C 281.662 272.819,288.101 266.566,290.882 256.966 C 292.276 252.153,292.590 248.134,292.592 235.093 L 292.593 222.963 286.084 222.963 L 279.575 222.963 279.653 236.944 M215.317 225.431 C 216.999 225.822,218.334 226.387,218.981 226.982 L 220.000 227.916 220.000 236.930 L 220.000 245.944 218.981 246.368 C 217.504 246.982,212.634 247.176,210.837 246.693 C 202.098 244.339,203.531 225.939,212.540 224.831 C 212.612 224.822,213.862 225.092,215.317 225.431 M313.445 225.512 C 315.221 225.937,316.685 226.532,317.242 227.055 L 318.148 227.907 318.148 236.876 L 318.148 245.845 316.574 246.479 C 314.750 247.213,311.220 247.294,308.851 246.656 C 300.095 244.299,301.347 226.338,310.370 224.851 C 310.472 224.834,311.856 225.132,313.445 225.512 M136.403 225.685 C 140.441 226.750,141.941 232.377,138.609 233.958 C 135.670 235.353,133.220 240.211,133.397 244.293 L 133.519 247.095 131.857 246.845 C 127.260 246.153,125.231 242.904,125.136 236.081 C 125.025 228.118,129.605 223.893,136.403 225.685 " stroke="none" fill="#faf6f2" fill-rule="evenodd"></path><path id="path2" d="M225.353 122.383 C 224.373 123.877,225.089 124.571,228.399 125.336 C 235.231 126.914,240.261 129.608,240.442 131.784 C 240.544 133.015,240.654 133.141,241.565 133.080 C 244.624 132.872,247.318 127.996,244.408 127.935 C 243.675 127.920,242.508 127.562,241.815 127.141 C 241.122 126.719,239.827 126.256,238.936 126.110 C 237.808 125.926,237.262 125.637,237.137 125.157 C 236.942 124.411,234.660 123.436,230.245 122.212 C 226.813 121.261,226.070 121.287,225.353 122.383 M164.423 139.240 C 161.936 139.995,161.295 140.872,162.413 141.989 C 162.906 142.483,163.127 142.486,164.253 142.016 C 166.989 140.873,170.596 141.866,173.615 144.594 C 175.420 146.224,176.062 146.255,177.444 144.776 C 179.306 142.782,178.503 140.930,176.357 142.270 C 175.807 142.614,175.322 142.445,173.629 141.321 C 170.424 139.193,167.074 138.436,164.423 139.240 M117.721 139.819 C 116.774 140.123,115.111 140.969,114.027 141.698 C 112.163 142.953,112.005 142.994,111.114 142.468 C 109.135 141.299,108.249 142.887,109.831 144.767 C 111.339 146.558,111.877 146.528,114.560 144.497 C 118.150 141.780,119.196 141.553,124.114 142.425 C 125.508 142.672,126.139 142.098,125.709 140.976 C 125.171 139.574,120.565 138.907,117.721 139.819 M141.320 145.380 C 139.693 147.135,139.890 149.876,141.750 151.381 L 142.770 152.206 142.060 153.524 C 140.336 156.725,137.190 158.620,134.946 157.809 C 132.837 157.046,132.086 158.417,134.056 159.435 C 136.415 160.655,139.433 159.578,141.918 156.630 L 143.447 154.818 145.236 156.683 C 148.125 159.696,152.226 160.920,154.380 159.411 C 155.747 158.453,154.823 157.792,152.458 158.036 C 150.950 158.192,150.188 158.069,149.054 157.486 C 146.014 155.923,143.322 151.852,145.328 151.852 C 147.536 151.852,148.454 146.973,146.553 145.338 C 145.073 144.065,142.520 144.085,141.320 145.380 M110.741 223.148 L 110.741 255.556 104.259 255.556 C 100.694 255.556,97.778 255.644,97.778 255.753 C 97.778 255.862,98.184 256.753,98.682 257.734 L 99.585 259.517 106.514 259.782 C 113.258 260.039,113.477 260.072,114.737 261.033 C 116.116 262.085,115.914 262.067,122.222 261.704 C 123.954 261.605,125.704 261.507,126.111 261.487 C 126.519 261.468,127.392 261.560,128.053 261.693 C 130.007 262.087,131.897 261.538,133.145 260.214 C 133.914 259.398,134.766 258.932,135.784 258.769 C 137.269 258.532,142.540 257.036,143.796 256.496 C 144.360 256.253,144.444 256.439,144.444 257.923 L 144.444 259.630 150.889 259.630 L 157.333 259.630 158.664 260.960 C 159.959 262.256,160.052 262.285,162.127 262.068 C 164.591 261.810,164.619 261.810,170.739 262.047 C 174.829 262.206,175.475 262.148,176.295 261.544 C 177.001 261.024,178.192 260.804,181.296 260.621 C 191.548 260.017,193.025 256.530,185.357 251.034 C 180.744 247.727,180.958 247.786,179.328 249.377 C 178.560 250.127,177.814 250.741,177.670 250.741 C 177.525 250.741,177.407 245.756,177.407 239.664 L 177.407 228.588 179.140 227.998 C 183.151 226.631,186.554 227.395,188.757 230.156 L 189.815 231.481 193.653 231.481 L 197.492 231.481 197.240 229.722 C 196.677 225.775,195.265 223.015,193.077 221.581 C 192.282 221.060,192.272 221.075,192.586 222.284 C 192.762 222.963,193.018 224.394,193.155 225.463 L 193.403 227.407 189.572 227.407 L 185.741 227.407 184.274 225.895 C 181.695 223.236,177.704 222.508,174.352 224.084 L 173.333 224.563 173.333 240.059 L 173.333 255.556 166.667 255.556 C 160.247 255.556,160.000 255.528,160.000 254.815 C 160.000 253.829,159.687 253.880,158.446 255.069 L 157.407 256.065 157.407 239.699 L 157.407 223.333 155.370 223.333 L 153.333 223.333 153.333 239.444 L 153.333 255.556 146.667 255.556 L 140.000 255.556 140.000 253.954 L 140.000 252.353 137.381 253.231 C 126.520 256.874,121.481 253.984,120.153 243.352 C 119.570 238.681,119.412 231.889,119.823 229.146 C 120.101 227.295,119.772 226.948,118.728 227.992 C 117.394 229.325,117.308 230.078,117.181 241.431 C 117.050 253.177,116.980 253.696,115.633 252.753 L 114.815 252.180 114.815 221.460 L 114.815 190.741 112.778 190.741 L 110.741 190.741 110.741 223.148 M78.676 194.722 C 79.552 196.708,84.311 207.000,89.251 217.593 C 94.191 228.185,98.617 237.685,99.086 238.704 L 99.939 240.556 99.970 238.269 C 99.999 236.041,99.790 235.531,91.824 218.454 C 79.624 192.299,79.021 191.111,77.966 191.111 C 77.085 191.111,77.087 191.118,78.676 194.722 M71.130 231.204 L 71.111 255.556 68.704 255.556 L 66.296 255.556 66.296 257.593 L 66.296 259.630 70.741 259.630 L 75.185 259.630 75.166 237.130 L 75.147 214.630 73.148 210.741 L 71.149 206.852 71.130 231.204 M292.786 212.037 L 292.521 215.926 288.298 215.926 L 284.074 215.926 284.074 217.963 L 284.074 220.000 290.370 220.000 L 296.667 220.000 296.667 214.074 L 296.667 208.148 294.859 208.148 L 293.051 208.148 292.786 212.037 M233.333 237.407 L 233.333 255.556 226.667 255.556 L 220.000 255.556 220.000 253.908 L 220.000 252.260 218.700 252.803 C 214.881 254.399,208.892 255.220,206.819 254.432 L 205.812 254.049 206.743 255.265 C 209.808 259.269,215.676 259.843,222.857 256.843 L 224.074 256.334 224.074 257.982 L 224.074 259.630 230.741 259.630 L 237.407 259.630 237.407 239.444 L 237.407 219.259 235.370 219.259 L 233.333 219.259 233.333 237.407 M331.392 237.315 L 331.296 255.370 324.630 255.370 L 317.963 255.370 317.849 253.798 L 317.735 252.225 316.681 252.771 C 314.749 253.770,308.857 254.893,306.574 254.697 C 303.989 254.476,303.947 254.699,306.204 256.642 C 309.568 259.538,314.413 259.489,321.574 256.489 C 322.137 256.253,322.222 256.442,322.222 257.923 L 322.222 259.630 328.889 259.630 L 335.556 259.630 335.553 242.500 C 335.552 233.079,335.444 223.995,335.313 222.315 L 335.075 219.259 333.282 219.259 L 331.489 219.259 331.392 237.315 M272.376 221.686 C 273.082 223.447,273.310 228.150,273.321 241.204 L 273.333 255.185 271.667 255.185 L 270.000 255.185 270.000 257.222 L 270.000 259.259 272.566 259.259 C 275.077 259.259,275.155 259.230,276.269 257.879 L 277.407 256.498 277.407 243.968 C 277.407 229.715,277.137 226.958,275.481 224.348 C 274.249 222.406,271.835 220.336,272.376 221.686 M254.815 223.857 L 253.519 224.325 253.422 239.940 L 253.325 255.556 248.885 255.556 L 244.444 255.556 244.444 257.593 L 244.444 259.630 250.926 259.630 L 257.407 259.630 257.407 244.115 L 257.407 228.601 259.797 227.954 C 261.251 227.560,262.846 227.381,263.871 227.497 C 264.798 227.601,265.556 227.656,265.556 227.619 C 265.556 224.748,258.853 222.400,254.815 223.857 M210.527 225.711 C 205.346 227.966,203.408 238.041,207.060 243.737 C 208.186 245.495,210.369 247.014,209.822 245.660 C 208.924 243.438,209.149 237.080,210.199 235.005 C 212.463 230.531,214.716 228.954,218.189 229.415 C 219.913 229.644,220.000 229.613,220.000 228.781 C 220.000 226.364,213.709 224.325,210.527 225.711 M308.014 226.055 C 302.354 229.481,301.323 241.129,306.308 245.324 C 307.649 246.452,308.357 246.592,307.943 245.648 C 307.401 244.409,307.295 237.095,307.801 235.824 C 309.613 231.279,312.415 229.023,315.813 229.373 C 317.665 229.564,317.778 229.528,317.778 228.742 C 317.778 226.070,311.048 224.218,308.014 226.055 M132.908 226.391 C 132.368 226.848,131.640 227.681,131.291 228.241 C 130.458 229.576,130.144 229.526,129.581 227.967 L 129.113 226.675 128.304 227.435 C 123.813 231.654,124.253 243.208,129.000 245.741 C 130.931 246.771,131.010 246.510,130.830 239.711 C 130.607 231.251,133.547 227.620,139.167 229.414 C 139.870 229.638,139.997 229.546,139.980 228.821 C 139.954 227.757,138.419 226.509,136.471 225.968 C 134.418 225.398,134.024 225.445,132.908 226.391 M292.834 230.098 C 292.704 231.776,292.596 236.835,292.595 241.340 C 292.591 255.332,290.558 262.332,284.789 268.220 C 282.368 270.691,277.232 273.704,275.441 273.704 C 274.828 273.704,274.766 273.883,274.983 275.040 C 275.552 278.073,275.720 278.244,277.874 277.972 C 287.194 276.797,293.833 269.177,296.113 257.037 C 296.641 254.226,297.063 228.051,296.588 227.576 C 296.522 227.510,295.704 227.364,294.770 227.252 L 293.072 227.048 292.834 230.098 " stroke="none" fill="#634120" fill-rule="evenodd"></path><path id="path3" d="M248.280 114.829 C 241.894 116.093,233.962 124.812,238.148 125.967 C 245.506 127.997,256.060 124.240,261.579 117.628 L 262.974 115.957 261.579 115.593 C 257.625 114.560,251.435 114.205,248.280 114.829 M144.634 152.215 C 144.415 152.570,145.031 154.074,145.396 154.074 C 145.498 154.074,145.392 153.720,145.160 153.286 C 144.831 152.672,144.849 152.429,145.240 152.181 C 145.576 151.968,145.596 151.861,145.300 151.858 C 145.057 151.854,144.758 152.015,144.634 152.215 M146.667 155.741 C 147.358 156.454,148.006 157.037,148.108 157.037 C 148.210 157.037,147.728 156.454,147.037 155.741 C 146.346 155.028,145.697 154.444,145.595 154.444 C 145.494 154.444,145.976 155.028,146.667 155.741 M142.743 155.648 C 142.039 156.479,142.039 156.480,142.799 155.841 C 143.520 155.234,143.597 155.234,144.268 155.841 C 144.963 156.470,144.963 156.467,144.282 155.648 C 143.901 155.190,143.557 154.815,143.519 154.815 C 143.480 154.815,143.131 155.190,142.743 155.648 M325.892 156.107 C 323.405 157.459,318.472 167.652,315.994 176.556 L 315.252 179.224 316.978 179.434 C 329.994 181.022,342.104 193.750,342.278 206.026 L 342.318 208.904 343.659 208.677 C 347.826 207.971,361.336 202.635,364.778 200.336 C 370.118 196.770,368.858 193.566,361.072 190.910 C 358.934 190.181,353.092 188.889,351.933 188.889 C 351.827 188.889,352.391 188.415,353.185 187.837 C 361.152 182.033,370.489 161.753,367.084 157.650 C 363.955 153.878,342.952 162.348,337.041 169.765 C 335.147 172.142,334.815 172.291,334.815 170.765 C 334.815 162.708,329.577 154.104,325.892 156.107 M135.648 158.033 C 136.005 158.126,136.588 158.126,136.944 158.033 C 137.301 157.940,137.009 157.864,136.296 157.864 C 135.583 157.864,135.292 157.940,135.648 158.033 M153.333 221.111 L 153.333 223.333 155.370 223.333 L 157.407 223.333 157.494 235.833 L 157.580 248.333 157.702 238.148 C 157.768 232.546,157.713 225.921,157.578 223.426 L 157.333 218.889 155.333 218.889 L 153.333 218.889 153.333 221.111 M130.482 225.629 C 129.548 226.080,129.257 227.218,129.767 228.426 C 130.243 229.554,130.545 229.478,131.458 228.001 C 132.272 226.684,133.421 225.766,134.645 225.455 C 135.044 225.354,134.454 225.263,133.333 225.253 C 132.213 225.243,130.930 225.412,130.482 225.629 M137.407 226.187 C 137.713 226.299,138.380 226.744,138.889 227.177 L 139.815 227.963 138.917 226.944 C 138.423 226.384,137.756 225.939,137.435 225.955 C 136.936 225.980,136.932 226.014,137.407 226.187 M133.846 230.084 C 132.646 231.010,132.032 231.693,131.424 232.778 C 131.196 233.185,131.711 232.728,132.570 231.762 C 133.436 230.788,134.655 229.855,135.306 229.666 C 136.147 229.423,136.258 229.317,135.698 229.293 C 135.267 229.274,134.434 229.630,133.846 230.084 M130.801 238.426 C 130.763 241.491,130.880 243.333,131.111 243.333 C 131.522 243.333,131.527 240.578,131.123 236.296 C 130.882 233.750,130.856 233.928,130.801 238.426 M100.111 238.889 C 100.111 240.009,100.180 240.468,100.265 239.907 C 100.350 239.347,100.350 238.431,100.265 237.870 C 100.180 237.310,100.111 237.769,100.111 238.889 " stroke="none" fill="#71af51" fill-rule="evenodd"></path><path id="path4" d="M109.744 112.024 C 108.398 112.610,106.342 115.239,106.036 116.767 C 105.734 118.276,105.346 118.325,103.480 117.088 C 101.818 115.987,99.771 115.291,99.372 115.690 C 99.259 115.803,99.896 116.189,100.787 116.549 L 102.407 117.203 100.598 117.467 C 98.198 117.817,97.971 118.121,97.917 121.054 C 97.878 123.210,97.963 123.560,98.536 123.603 C 99.149 123.649,99.160 123.556,98.674 122.394 C 97.573 119.757,99.115 117.667,102.024 117.855 C 102.947 117.914,103.703 118.069,103.703 118.198 C 103.704 118.327,103.995 118.535,104.352 118.661 C 104.708 118.786,105.194 118.982,105.432 119.095 C 105.669 119.208,105.965 118.978,106.090 118.585 C 107.622 113.759,114.029 114.478,113.747 119.444 C 113.643 121.270,114.439 119.600,114.692 117.461 C 115.183 113.318,112.797 110.697,109.744 112.024 M111.958 112.254 C 113.457 112.937,115.234 117.037,114.031 117.037 C 113.851 117.037,113.704 116.813,113.704 116.539 C 113.704 114.759,109.402 113.900,107.790 115.359 C 107.016 116.060,107.009 116.060,107.263 115.350 C 107.629 114.326,108.529 113.335,109.815 112.541 C 111.131 111.728,110.879 111.762,111.958 112.254 M258.120 121.019 L 257.222 122.037 258.333 121.111 C 258.944 120.602,259.514 120.144,259.599 120.093 C 259.684 120.042,259.588 120.000,259.386 120.000 C 259.183 120.000,258.614 120.458,258.120 121.019 M113.363 121.164 C 113.333 121.773,114.042 122.222,115.030 122.222 C 115.319 122.222,115.556 122.056,115.556 121.852 C 115.556 121.648,115.153 121.481,114.660 121.481 C 114.168 121.481,113.681 121.273,113.579 121.019 C 113.461 120.726,113.381 120.780,113.363 121.164 M115.926 121.926 C 115.926 122.224,116.370 122.704,116.912 122.993 C 117.455 123.282,118.204 124.019,118.578 124.630 C 118.992 125.308,119.257 125.508,119.258 125.143 C 119.260 124.347,117.856 122.593,117.217 122.593 C 116.938 122.593,116.612 122.433,116.491 122.237 C 116.175 121.726,118.512 122.572,119.700 123.400 C 120.248 123.781,120.801 124.422,120.929 124.824 C 121.057 125.227,121.404 125.556,121.701 125.556 C 122.611 125.556,121.331 123.530,119.839 122.608 C 118.147 121.562,115.926 121.175,115.926 121.926 M99.877 125.062 C 99.769 125.169,99.781 125.520,99.905 125.841 C 100.069 126.270,99.967 126.363,99.521 126.192 C 99.186 126.063,98.814 126.118,98.694 126.312 C 98.573 126.507,98.693 126.672,98.960 126.678 C 99.261 126.685,99.201 126.831,98.801 127.064 C 97.915 127.580,97.363 128.713,97.643 129.441 C 97.817 129.897,98.036 129.688,98.521 128.606 C 98.876 127.813,99.604 126.820,100.139 126.399 C 100.674 125.978,101.111 125.551,101.111 125.449 C 101.111 125.161,100.096 124.843,99.877 125.062 M118.578 127.241 C 118.093 128.303,115.557 129.609,113.952 129.621 C 112.963 129.629,112.919 129.697,113.171 130.833 C 113.318 131.495,113.467 132.287,113.503 132.593 C 113.539 132.898,113.703 133.619,113.868 134.194 C 114.060 134.862,114.017 135.390,113.751 135.657 C 113.521 135.886,113.333 136.391,113.333 136.777 C 113.333 140.135,108.905 139.924,107.136 136.481 C 106.575 135.390,106.578 135.382,107.288 136.014 C 108.806 137.365,112.963 136.930,112.963 135.420 C 112.963 135.121,113.171 134.802,113.426 134.711 C 113.695 134.615,113.751 134.408,113.560 134.217 C 113.369 134.026,113.160 134.091,113.060 134.373 C 111.924 137.562,107.448 136.637,105.896 132.892 C 105.493 131.919,105.392 131.873,104.673 132.338 C 104.242 132.617,103.411 132.964,102.827 133.108 C 102.242 133.252,101.865 133.470,101.988 133.593 C 102.110 133.715,101.922 134.049,101.568 134.334 C 100.578 135.134,102.499 134.544,103.748 133.665 C 104.687 133.003,106.462 133.785,105.716 134.531 C 105.400 134.847,106.838 137.474,107.834 138.401 C 112.110 142.379,116.067 136.881,113.564 130.439 C 113.539 130.375,114.519 130.279,115.741 130.226 C 118.827 130.092,121.815 128.395,121.844 126.759 C 121.857 126.014,121.183 126.227,120.922 127.051 C 120.683 127.802,118.170 129.630,117.376 129.630 C 117.146 129.630,117.476 129.146,118.109 128.555 C 118.742 127.964,119.259 127.214,119.259 126.888 C 119.259 126.054,119.075 126.150,118.578 127.241 M240.772 126.401 C 240.856 126.459,241.250 126.750,241.645 127.049 C 242.041 127.348,242.245 127.394,242.100 127.151 C 241.916 126.844,242.317 126.667,243.417 126.568 C 244.758 126.447,244.664 126.416,242.809 126.361 C 241.603 126.325,240.687 126.343,240.772 126.401 M243.704 127.551 C 243.704 127.629,244.195 127.766,244.795 127.854 C 245.396 127.942,245.802 127.878,245.699 127.711 C 245.516 127.414,243.704 127.268,243.704 127.551 M97.646 131.290 C 97.243 132.342,99.488 134.434,100.409 133.865 C 100.636 133.725,100.314 133.325,99.648 132.920 C 99.013 132.534,98.360 131.859,98.198 131.420 C 97.928 130.690,97.881 130.679,97.646 131.290 M240.000 132.015 C 240.000 132.512,240.137 133.004,240.303 133.107 C 240.470 133.210,240.535 132.803,240.447 132.203 C 240.252 130.879,240.000 130.773,240.000 132.015 M166.019 138.774 C 166.375 138.867,166.958 138.867,167.315 138.774 C 167.671 138.681,167.380 138.604,166.667 138.604 C 165.954 138.604,165.662 138.681,166.019 138.774 M176.249 142.130 C 175.807 142.693,175.813 142.723,176.296 142.355 C 176.602 142.122,177.185 141.850,177.593 141.749 C 178.296 141.577,178.294 141.565,177.545 141.524 C 177.112 141.501,176.529 141.773,176.249 142.130 M178.519 142.791 C 178.519 143.755,177.314 145.259,176.129 145.776 C 175.352 146.114,175.217 146.272,175.697 146.282 C 176.582 146.300,178.889 143.882,178.889 142.937 C 178.889 142.544,178.806 142.222,178.704 142.222 C 178.602 142.222,178.519 142.478,178.519 142.791 M108.889 144.007 C 108.889 144.509,111.402 146.667,111.985 146.667 C 112.248 146.667,112.868 146.208,113.361 145.648 L 114.259 144.630 113.272 145.498 C 112.079 146.548,111.167 146.354,109.831 144.767 C 109.313 144.151,108.889 143.809,108.889 144.007 M172.593 143.820 C 172.593 143.883,173.134 144.425,173.796 145.023 L 175.000 146.111 173.912 144.907 C 172.898 143.785,172.593 143.533,172.593 143.820 M143.245 144.336 C 143.706 144.425,144.372 144.421,144.727 144.329 C 145.081 144.236,144.704 144.163,143.889 144.167 C 143.074 144.172,142.784 144.247,143.245 144.336 M140.032 149.096 C 140.014 149.515,140.262 150.182,140.583 150.577 C 140.904 150.973,141.052 151.075,140.914 150.804 C 140.775 150.534,140.527 149.867,140.362 149.323 C 140.123 148.529,140.057 148.484,140.032 149.096 M356.276 185.093 L 355.000 186.481 356.389 185.205 C 357.682 184.017,357.948 183.704,357.665 183.704 C 357.603 183.704,356.978 184.329,356.276 185.093 M111.766 190.639 C 112.432 190.721,113.432 190.720,113.988 190.635 C 114.545 190.551,114.000 190.483,112.778 190.485 C 111.556 190.487,111.100 190.556,111.766 190.639 M79.656 192.778 C 79.656 192.981,79.894 193.565,80.185 194.074 C 80.476 194.583,80.714 194.833,80.714 194.630 C 80.714 194.426,80.476 193.843,80.185 193.333 C 79.894 192.824,79.656 192.574,79.656 192.778 M114.815 223.498 L 114.815 252.180 115.633 252.753 C 116.980 253.697,117.050 253.178,117.181 241.410 C 117.307 230.111,117.597 227.783,118.876 227.777 C 118.985 227.776,119.138 220.360,119.216 211.295 L 119.358 194.815 117.086 194.815 L 114.815 194.815 114.815 223.498 M81.216 195.665 C 81.317 195.929,85.543 205.026,90.607 215.881 L 99.815 235.618 99.923 233.642 C 100.056 231.204,100.145 231.420,90.570 210.972 C 83.327 195.505,83.156 195.185,82.105 195.185 C 81.379 195.185,81.091 195.340,81.216 195.665 M292.707 210.185 C 292.709 211.407,292.779 211.863,292.861 211.197 C 292.943 210.531,292.942 209.531,292.857 208.975 C 292.773 208.418,292.705 208.963,292.707 210.185 M296.737 213.981 L 296.667 220.000 292.297 220.000 L 287.927 220.000 288.073 221.257 C 288.229 222.589,288.986 222.963,291.528 222.963 C 292.346 222.963,292.593 223.135,292.593 223.704 C 292.593 224.386,292.840 224.444,295.741 224.444 C 298.562 224.444,298.889 224.373,298.889 223.756 C 298.889 223.377,299.387 222.086,299.995 220.886 C 300.971 218.961,301.102 218.322,301.106 215.463 L 301.111 212.222 299.093 212.222 L 297.074 212.222 296.940 210.093 C 296.867 208.921,296.775 210.671,296.737 213.981 M75.210 237.315 L 75.185 259.630 72.778 259.630 L 70.370 259.630 70.370 261.667 L 70.370 263.704 75.000 263.704 L 79.630 263.704 79.630 243.755 L 79.630 223.807 77.433 219.404 L 75.236 215.000 75.210 237.315 M283.818 217.963 C 283.821 219.185,283.890 219.641,283.972 218.975 C 284.055 218.309,284.053 217.309,283.968 216.753 C 283.884 216.196,283.816 216.741,283.818 217.963 M234.358 219.157 C 235.024 219.240,236.024 219.238,236.581 219.154 C 237.137 219.069,236.593 219.002,235.370 219.004 C 234.148 219.006,233.693 219.075,234.358 219.157 M331.200 237.130 L 331.289 255.370 331.389 237.315 L 331.489 219.259 333.282 219.259 L 335.075 219.259 335.313 222.315 C 335.444 223.995,335.552 233.079,335.553 242.500 L 335.556 259.630 328.889 259.630 L 322.222 259.630 322.222 257.923 C 322.222 256.442,322.137 256.253,321.574 256.489 C 317.153 258.341,311.928 259.254,309.537 258.592 C 307.898 258.139,307.856 258.251,309.064 259.834 C 311.764 263.374,319.468 263.883,325.233 260.901 C 326.658 260.164,326.667 260.171,326.667 262.037 L 326.667 263.704 333.148 263.704 L 339.630 263.704 339.630 243.519 L 339.630 223.333 337.593 223.333 L 335.556 223.333 335.556 221.111 L 335.556 218.889 333.333 218.889 L 331.111 218.889 331.200 237.130 M257.870 223.218 C 258.227 223.311,258.810 223.311,259.167 223.218 C 259.523 223.125,259.231 223.049,258.519 223.049 C 257.806 223.049,257.514 223.125,257.870 223.218 M237.407 241.481 L 237.407 259.630 230.741 259.630 L 224.074 259.630 224.074 257.950 C 224.074 256.402,224.018 256.300,223.355 256.655 C 220.201 258.343,213.174 259.296,210.897 258.345 L 209.596 257.802 210.358 258.872 C 213.439 263.199,218.116 264.044,225.289 261.572 L 228.519 260.459 228.519 262.081 L 228.519 263.704 235.000 263.704 L 241.481 263.704 241.481 259.630 C 241.481 255.802,241.437 255.556,240.741 255.556 C 240.011 255.556,240.000 255.309,240.000 239.444 L 240.000 223.333 238.704 223.333 L 237.407 223.333 237.407 241.481 M275.547 224.380 C 276.989 226.494,277.138 227.955,277.368 242.222 L 277.593 256.111 278.517 253.889 C 279.428 251.700,279.443 251.490,279.554 239.770 L 279.667 227.873 278.290 226.622 C 277.533 225.934,276.417 224.870,275.810 224.259 L 274.706 223.148 275.547 224.380 M196.486 226.210 C 196.744 226.970,197.073 228.468,197.216 229.537 L 197.477 231.481 193.646 231.481 L 189.815 231.481 188.757 230.156 C 186.554 227.395,183.151 226.631,179.140 227.998 L 177.407 228.588 177.407 239.664 C 177.407 245.756,177.525 250.741,177.670 250.741 C 177.814 250.741,178.568 250.120,179.345 249.361 C 180.513 248.221,180.872 248.052,181.412 248.389 C 182.022 248.770,182.047 248.631,181.793 246.343 C 181.642 244.993,181.511 241.422,181.501 238.407 L 181.481 232.925 182.870 232.322 C 186.743 230.641,190.409 231.353,192.838 234.259 C 194.311 236.021,194.872 236.184,197.805 235.699 L 199.128 235.480 199.500 231.907 C 199.916 227.904,199.532 226.863,197.125 225.469 L 196.017 224.826 196.486 226.210 M292.707 229.074 C 292.709 230.296,292.779 230.752,292.861 230.086 C 292.943 229.420,292.942 228.420,292.857 227.864 C 292.773 227.307,292.705 227.852,292.707 229.074 M295.833 227.298 C 296.567 227.440,296.669 227.689,296.684 229.378 C 296.921 256.151,296.592 259.382,292.860 266.852 C 290.146 272.285,284.435 276.915,279.410 277.757 C 278.410 277.924,277.863 278.081,278.193 278.105 C 278.589 278.133,278.978 278.812,279.333 280.093 C 279.974 282.405,281.054 282.718,284.733 281.658 C 293.868 279.024,299.543 270.258,300.815 256.818 L 301.238 252.340 300.264 251.063 C 298.567 248.838,297.847 244.230,297.187 231.389 L 296.964 227.037 295.982 227.087 C 295.109 227.132,295.093 227.156,295.833 227.298 M317.409 227.480 C 318.509 228.809,317.855 229.584,315.813 229.373 C 312.454 229.027,309.802 231.123,307.852 235.666 C 306.981 237.694,307.450 245.821,308.475 246.455 C 308.640 246.556,309.425 246.743,310.221 246.869 L 311.667 247.099 311.690 243.827 C 311.721 239.411,313.823 235.252,316.607 234.099 C 317.920 233.555,318.686 228.454,317.596 227.514 C 317.281 227.242,317.200 227.228,317.409 227.480 M259.352 228.040 L 257.407 228.613 257.407 244.122 L 257.407 259.630 252.963 259.630 L 248.519 259.630 248.519 261.667 L 248.519 263.704 253.467 263.704 C 256.188 263.704,259.158 263.805,260.065 263.930 L 261.715 264.156 261.557 249.763 C 261.374 233.070,261.381 233.018,263.817 232.262 L 265.556 231.722 265.556 229.789 C 265.556 227.194,263.852 226.714,259.352 228.040 M214.601 229.785 C 211.242 231.247,209.095 235.852,209.355 241.034 C 209.590 245.689,209.758 246.231,211.059 246.519 C 211.597 246.638,212.329 246.815,212.685 246.911 C 213.258 247.067,213.335 246.774,213.350 244.377 C 213.376 240.020,215.672 235.504,218.532 234.186 C 220.583 233.241,220.805 229.883,218.843 229.491 C 217.115 229.145,215.871 229.232,214.601 229.785 M131.109 244.074 C 131.105 244.583,131.006 245.354,130.890 245.787 C 130.711 246.452,130.870 246.603,131.913 246.761 C 133.463 246.997,133.437 247.165,132.187 245.000 C 131.287 243.442,131.116 243.295,131.109 244.074 M158.598 246.763 C 157.401 248.520,157.383 248.605,157.487 252.208 L 157.593 255.868 158.808 254.781 L 160.023 253.694 159.919 249.336 L 159.815 244.978 158.598 246.763 M185.926 251.193 C 185.926 251.265,186.718 251.975,187.685 252.770 C 188.653 253.566,189.111 253.833,188.704 253.365 C 187.984 252.536,185.926 250.928,185.926 251.193 M317.879 253.704 C 317.879 254.620,317.951 254.995,318.039 254.537 C 318.127 254.079,318.127 253.329,318.039 252.870 C 317.951 252.412,317.879 252.787,317.879 253.704 M303.704 254.246 C 303.704 254.629,306.080 257.092,306.810 257.467 C 307.240 257.688,306.884 257.252,306.019 256.498 C 305.153 255.744,304.444 254.890,304.444 254.601 C 304.444 254.311,304.278 254.074,304.074 254.074 C 303.870 254.074,303.704 254.152,303.704 254.246 M269.744 257.222 C 269.746 258.444,269.816 258.900,269.898 258.234 C 269.980 257.568,269.979 256.568,269.894 256.012 C 269.810 255.455,269.742 256.000,269.744 257.222 M244.189 257.593 C 244.191 258.815,244.260 259.270,244.342 258.604 C 244.425 257.939,244.423 256.939,244.339 256.382 C 244.254 255.826,244.187 256.370,244.189 257.593 M141.481 257.245 C 140.157 257.710,137.962 258.314,136.602 258.589 C 133.611 259.192,131.920 260.719,133.198 261.662 C 135.460 263.331,140.187 263.298,145.333 261.576 L 148.519 260.511 148.519 262.107 L 148.519 263.704 154.957 263.704 C 161.084 263.704,161.404 263.668,161.589 262.963 C 161.744 262.368,161.600 262.222,160.854 262.222 C 160.287 262.222,159.422 261.718,158.630 260.926 L 157.333 259.630 150.889 259.630 L 144.444 259.630 144.444 257.963 C 144.444 257.046,144.319 256.320,144.167 256.348 C 144.014 256.377,142.806 256.781,141.481 257.245 M188.556 259.106 C 187.864 259.598,187.480 260.000,187.702 260.000 C 187.925 260.000,188.574 259.589,189.146 259.086 C 190.455 257.934,190.193 257.943,188.556 259.106 M275.574 258.681 C 275.331 258.975,274.768 259.267,274.325 259.330 C 273.800 259.405,273.671 259.544,273.955 259.728 C 274.209 259.893,274.827 259.627,275.436 259.091 C 276.011 258.585,276.377 258.166,276.249 258.160 C 276.121 258.153,275.817 258.388,275.574 258.681 M102.631 261.620 L 103.759 263.704 111.484 263.704 C 119.205 263.704,119.208 263.703,119.326 262.873 C 119.408 262.299,119.789 261.960,120.556 261.778 C 121.436 261.569,121.398 261.558,120.370 261.723 C 117.391 262.204,116.064 262.045,114.759 261.050 C 113.551 260.128,113.183 260.065,107.494 259.807 L 101.502 259.536 102.631 261.620 M183.426 260.626 C 183.782 260.719,184.366 260.719,184.722 260.626 C 185.079 260.533,184.787 260.456,184.074 260.456 C 183.361 260.456,183.069 260.533,183.426 260.626 M176.311 261.523 C 175.572 262.138,174.943 262.268,172.978 262.211 C 168.838 262.090,168.519 262.144,168.519 262.963 C 168.519 263.675,168.765 263.704,174.961 263.704 L 181.404 263.704 181.545 262.222 L 181.686 260.741 179.454 260.753 C 177.761 260.762,177.002 260.948,176.311 261.523 M131.753 261.334 C 131.630 261.456,130.644 261.698,129.561 261.871 L 127.593 262.186 129.559 262.071 C 131.017 261.986,133.400 261.111,132.173 261.111 C 132.064 261.111,131.875 261.211,131.753 261.334 M123.333 261.852 L 121.667 262.111 123.148 262.161 C 123.963 262.188,124.880 262.049,125.185 261.852 C 125.491 261.654,125.574 261.515,125.370 261.543 C 125.167 261.570,124.250 261.709,123.333 261.852 M164.188 261.773 C 163.945 261.928,164.392 262.054,165.185 262.054 C 165.978 262.054,166.425 261.928,166.182 261.773 C 165.939 261.619,165.491 261.493,165.185 261.493 C 164.880 261.493,164.431 261.619,164.188 261.773 M275.214 276.914 C 275.158 277.750,275.641 278.519,276.222 278.519 C 276.755 278.519,276.756 278.477,276.225 278.056 C 275.903 277.801,275.551 277.343,275.442 277.037 C 275.333 276.731,275.231 276.676,275.214 276.914 " stroke="none" fill="#a47529" fill-rule="evenodd"></path></g></svg>