<svg id="svg" version="1.1" xmlns="http://www.w3.org/2000/svg" xmlns:xlink="http://www.w3.org/1999/xlink" width="400" height="400" viewBox="0, 0, 400,400"><g id="svgg"><path id="path0" d="M0.000 200.000 L 0.000 400.000 200.000 400.000 L 400.000 400.000 400.000 200.000 L 400.000 0.000 200.000 0.000 L 0.000 0.000 0.000 200.000 M103.704 87.820 C 103.704 90.512,100.113 93.525,97.258 93.230 C 94.618 92.958,85.556 88.558,85.556 87.549 C 85.556 87.471,89.639 87.407,94.630 87.407 C 101.054 87.407,103.704 87.528,103.704 87.820 M123.148 88.362 C 122.537 88.873,120.311 90.156,118.202 91.213 C 111.488 94.578,107.808 93.671,106.133 88.241 L 105.876 87.407 115.068 87.421 L 124.259 87.434 123.148 88.362 M97.973 89.273 C 97.845 89.784,97.892 90.615,98.079 91.120 C 98.418 92.036,98.419 92.035,98.680 90.847 C 99.014 89.329,98.337 87.822,97.973 89.273 M110.981 89.345 C 110.684 90.484,111.103 92.089,111.525 91.424 C 111.941 90.768,111.940 88.987,111.524 88.730 C 111.343 88.618,111.099 88.895,110.981 89.345 M106.052 95.926 C 105.691 96.537,105.301 97.037,105.185 97.037 C 105.069 97.037,104.679 96.537,104.318 95.926 L 103.662 94.815 105.185 94.815 L 106.709 94.815 106.052 95.926 M268.432 123.926 C 270.211 124.440,273.221 125.596,275.121 126.495 L 278.576 128.128 281.047 126.887 C 297.620 118.565,311.792 123.038,319.959 139.168 L 320.757 140.743 319.024 141.575 C 318.041 142.047,317.236 142.247,317.163 142.037 C 316.480 140.076,312.796 137.081,312.020 137.856 C 311.900 137.976,312.028 139.550,312.304 141.352 L 312.806 144.630 315.863 145.277 C 318.874 145.915,318.943 145.913,320.422 145.159 C 322.395 144.152,322.339 144.018,322.524 150.171 C 322.827 160.243,320.521 168.650,315.299 176.516 L 313.989 178.489 315.092 179.893 C 326.148 193.951,328.667 212.132,321.368 225.185 C 312.570 240.919,287.055 248.523,262.502 242.727 C 257.903 241.642,257.771 241.528,258.991 239.701 C 263.121 233.514,269.528 230.922,276.259 232.715 C 279.103 233.473,279.499 233.247,277.811 231.832 C 270.784 225.941,245.311 225.149,228.951 230.312 L 226.605 231.053 226.845 229.323 C 227.429 225.106,227.216 221.698,226.389 222.042 C 226.032 222.190,223.407 223.143,220.556 224.160 C 214.714 226.242,216.069 226.275,209.815 223.895 C 204.919 222.032,202.495 218.337,201.105 210.616 C 200.114 205.113,200.154 204.518,201.788 200.413 C 202.568 198.454,203.421 196.067,203.684 195.108 C 205.474 188.576,214.393 186.386,223.796 190.168 L 225.926 191.025 225.926 189.401 L 225.926 187.778 231.643 187.778 L 237.361 187.778 239.469 184.537 C 240.628 182.755,242.052 180.692,242.634 179.954 L 243.692 178.611 241.831 175.817 C 236.255 167.443,233.794 156.372,235.213 146.045 C 235.723 142.336,235.658 142.374,238.700 144.020 L 241.282 145.417 241.729 148.088 C 244.616 165.334,268.536 167.105,273.440 150.436 C 275.129 144.697,284.068 145.207,286.057 151.156 C 291.125 166.320,313.157 165.362,317.210 149.802 C 318.138 146.240,318.165 146.285,315.463 146.942 C 312.646 147.626,312.361 147.951,312.024 150.858 C 311.621 154.331,311.269 154.970,310.970 152.767 C 310.280 147.671,310.590 148.203,307.460 146.736 C 304.392 145.298,304.522 144.977,308.219 144.859 C 309.923 144.804,309.960 144.740,310.547 140.816 C 311.145 136.815,312.053 137.243,302.655 137.098 C 290.579 136.911,287.612 137.738,285.846 141.785 C 285.430 142.738,285.061 143.554,285.026 143.598 C 284.992 143.642,284.152 143.267,283.160 142.765 C 281.128 141.737,277.505 141.543,275.185 142.338 C 273.900 142.779,273.883 142.771,273.269 141.414 C 271.601 137.731,268.325 136.897,256.296 137.093 C 246.960 137.245,244.819 137.764,243.005 140.311 L 242.189 141.458 239.798 140.279 C 236.927 138.864,236.947 139.055,239.300 135.370 C 246.155 124.638,256.644 120.518,268.432 123.926 M148.690 167.500 C 148.683 168.671,148.642 184.296,148.598 202.222 L 148.519 234.815 140.828 234.815 L 133.137 234.815 121.291 210.810 L 109.444 186.806 109.259 210.718 L 109.074 234.630 104.403 234.733 L 99.732 234.836 99.872 210.659 C 99.949 197.361,100.112 183.091,100.233 178.947 L 100.454 171.412 103.284 171.662 C 105.775 171.883,112.055 171.446,114.229 170.901 C 114.928 170.725,116.059 172.982,126.296 194.975 L 137.593 219.242 137.778 193.730 L 137.963 168.218 139.850 166.920 C 142.053 165.405,142.640 165.255,146.111 165.321 L 148.704 165.370 148.690 167.500 M139.259 165.728 C 139.259 165.822,138.926 166.078,138.519 166.296 C 137.927 166.613,137.778 166.578,137.778 166.124 C 137.778 165.802,138.099 165.556,138.519 165.556 C 138.926 165.556,139.259 165.633,139.259 165.728 M181.629 185.352 C 188.392 187.060,193.093 190.153,194.738 193.977 C 195.803 196.454,196.883 212.240,196.019 212.695 C 195.866 212.775,188.824 212.729,180.370 212.592 C 171.917 212.455,164.959 212.371,164.909 212.404 C 164.859 212.438,164.789 213.543,164.752 214.861 C 164.666 217.993,166.047 220.732,168.498 222.288 C 170.719 223.698,170.755 223.683,172.133 220.748 C 176.487 211.479,181.478 210.796,184.486 219.059 C 185.605 222.134,185.604 222.134,187.539 219.981 C 189.503 217.797,189.179 217.767,193.488 220.546 L 196.758 222.656 195.293 224.198 C 194.487 225.047,193.220 226.591,192.478 227.630 C 191.238 229.367,189.257 231.006,187.706 231.581 C 187.335 231.718,186.984 232.389,186.848 233.221 C 186.447 235.678,185.516 238.307,184.758 239.125 L 184.024 239.916 181.942 238.662 C 179.314 237.080,176.642 236.076,173.530 235.503 C 171.500 235.129,171.057 234.914,170.883 234.220 C 170.723 233.584,170.309 233.326,169.133 233.131 C 168.286 232.990,166.968 232.557,166.204 232.170 C 165.440 231.783,164.815 231.640,164.815 231.852 C 164.815 232.630,161.903 230.722,160.179 228.815 C 157.105 225.413,156.823 224.384,156.292 214.630 C 154.930 189.604,162.739 180.582,181.629 185.352 M212.497 194.527 C 207.842 197.226,206.969 214.096,211.392 215.877 C 216.356 217.875,220.522 217.844,224.211 215.782 L 226.744 214.365 226.489 207.460 C 226.249 200.993,226.183 200.520,225.446 200.000 C 225.013 199.694,223.652 198.558,222.422 197.475 C 218.234 193.789,215.284 192.912,212.497 194.527 M171.211 195.935 C 168.526 197.309,166.399 200.340,165.784 203.669 L 165.551 204.931 171.387 204.689 C 174.596 204.556,178.931 204.446,181.019 204.446 L 184.815 204.444 184.815 202.574 C 184.815 197.231,176.555 193.200,171.211 195.935 M264.749 231.355 L 267.831 231.595 265.141 233.011 C 258.366 236.576,255.163 242.873,256.179 250.629 C 256.635 254.116,256.670 254.058,254.924 252.696 C 246.023 245.751,234.879 241.062,225.000 240.102 L 222.037 239.815 224.886 237.906 C 230.114 234.401,236.083 232.591,246.481 231.354 C 248.523 231.112,261.627 231.112,264.749 231.355 M327.222 236.753 C 338.392 242.952,338.477 249.306,327.407 250.561 C 324.846 250.852,301.544 247.964,300.850 247.270 C 300.787 247.207,302.445 246.709,304.534 246.164 C 311.141 244.441,319.619 239.702,322.456 236.146 C 323.598 234.716,323.538 234.708,327.222 236.753 M206.633 237.673 C 208.806 238.568,210.568 239.017,212.466 239.161 C 214.764 239.334,215.185 239.470,215.185 240.034 C 215.185 240.886,213.494 246.297,212.492 248.651 L 211.727 250.449 209.845 250.200 C 207.408 249.876,198.814 248.197,198.624 248.007 C 198.509 247.891,199.921 242.664,201.716 236.559 C 201.945 235.781,202.148 235.827,206.633 237.673 M127.593 238.190 C 133.174 239.519,137.746 242.657,140.198 246.841 L 141.167 248.494 140.220 249.737 C 139.114 251.186,137.017 255.620,136.090 258.467 L 135.443 260.453 133.519 260.293 C 128.218 259.854,121.705 252.955,118.628 244.520 C 116.127 237.663,118.461 236.015,127.593 238.190 M228.704 241.712 C 233.055 242.419,238.741 244.343,243.447 246.699 C 248.280 249.119,256.638 254.684,254.259 253.898 C 252.693 253.381,246.025 253.240,243.544 253.672 C 236.591 254.883,231.221 259.684,228.677 266.966 L 227.820 269.419 227.029 267.580 C 224.429 261.539,220.695 248.140,220.633 244.630 C 220.559 240.513,220.797 240.427,228.704 241.712 M179.083 244.356 C 180.878 245.332,183.704 249.276,183.704 250.806 C 183.704 251.739,184.355 251.976,184.621 251.139 C 184.924 250.182,187.352 248.070,187.817 248.358 C 188.018 248.482,187.534 249.287,186.742 250.147 C 185.949 251.007,185.028 252.450,184.695 253.355 C 184.361 254.260,183.746 255.941,183.328 257.092 C 180.390 265.173,169.075 268.351,166.376 261.852 C 162.377 252.219,171.199 240.071,179.083 244.356 M220.918 251.767 C 222.249 257.187,224.655 264.696,226.138 268.056 C 226.610 269.125,226.865 270.000,226.706 270.000 C 226.546 270.000,225.111 269.667,223.519 269.259 C 216.116 267.366,208.434 269.088,202.737 273.919 L 200.845 275.524 200.423 274.596 C 199.710 273.033,199.880 272.747,203.751 269.001 C 209.337 263.593,215.590 254.950,218.181 249.055 C 218.846 247.542,219.446 246.359,219.514 246.427 C 219.581 246.495,220.213 248.898,220.918 251.767 M155.532 253.912 C 159.946 256.314,163.707 261.578,163.701 265.344 C 163.691 271.955,151.864 274.084,145.411 268.636 C 143.856 267.322,141.556 266.314,140.093 266.304 C 139.431 266.300,138.889 266.133,138.889 265.933 C 138.889 265.267,140.537 265.146,142.099 265.697 L 143.643 266.242 142.941 264.695 C 139.376 256.844,147.748 249.675,155.532 253.912 M195.031 254.669 C 197.044 255.625,199.185 260.000,197.639 260.000 C 197.254 260.000,197.037 259.686,197.037 259.129 C 197.037 258.323,195.643 255.831,195.157 255.768 C 195.040 255.753,193.579 257.182,191.911 258.944 L 188.878 262.148 188.528 265.822 C 186.553 286.559,163.985 295.148,149.214 280.785 C 147.066 278.695,146.870 278.593,144.175 278.159 C 142.633 277.910,140.709 277.472,139.899 277.186 C 137.439 276.319,137.274 276.411,137.524 278.519 C 137.749 280.420,137.366 280.936,136.680 279.654 C 135.781 277.976,136.757 275.277,138.694 274.080 C 140.160 273.174,141.852 273.083,141.852 273.911 C 141.852 274.228,141.693 274.390,141.498 274.269 C 141.057 273.997,138.519 275.027,138.519 275.478 C 138.519 276.411,144.484 277.449,149.815 277.443 C 158.345 277.434,169.929 274.222,177.338 269.812 C 183.620 266.072,195.115 255.492,193.156 255.251 C 192.623 255.186,191.612 255.472,190.908 255.887 C 189.965 256.444,189.630 256.511,189.630 256.144 C 189.630 255.492,190.441 254.839,191.736 254.451 C 193.273 253.989,193.651 254.014,195.031 254.669 M170.142 256.103 C 168.064 256.979,167.719 260.058,169.539 261.490 C 171.623 263.129,174.815 261.774,174.815 259.252 C 174.815 257.547,174.198 256.574,173.390 257.006 C 172.667 257.394,172.145 257.164,171.635 256.234 C 171.338 255.693,171.154 255.676,170.142 256.103 M156.444 260.899 C 155.157 261.460,154.815 262.087,154.815 263.892 C 154.815 266.262,158.292 267.634,159.991 265.935 C 161.616 264.310,161.269 262.080,159.386 262.052 C 158.537 262.040,158.339 261.876,158.363 261.204 C 158.396 260.251,158.057 260.197,156.444 260.899 M186.016 264.857 C 184.580 266.197,184.444 266.479,184.444 268.143 C 184.444 274.888,182.501 276.543,179.074 272.717 L 177.593 271.064 174.815 272.366 C 172.237 273.574,161.855 277.123,159.537 277.588 C 158.581 277.779,158.519 277.911,158.519 279.739 C 158.519 284.364,154.864 284.424,152.395 279.839 C 151.767 278.673,151.515 278.519,150.241 278.519 C 146.155 278.519,156.533 285.728,161.700 286.479 C 163.137 286.688,163.155 286.676,163.998 284.851 C 166.114 280.269,173.308 278.262,177.739 281.017 L 179.549 282.142 181.410 280.238 C 184.762 276.808,186.821 272.030,187.385 266.370 C 187.541 264.802,187.651 263.490,187.629 263.455 C 187.606 263.419,186.881 264.050,186.016 264.857 M105.185 274.010 L 106.852 274.261 105.370 275.357 C 99.271 279.869,94.500 284.921,90.575 291.025 C 88.677 293.977,84.453 302.448,84.439 303.333 C 84.434 303.639,83.706 302.389,82.822 300.556 C 79.109 292.856,74.631 289.823,67.056 289.879 L 63.556 289.905 64.435 289.193 C 64.918 288.801,67.450 287.154,70.060 285.532 C 84.350 276.655,96.432 272.691,105.185 274.010 M109.550 275.943 C 111.358 277.587,114.256 286.955,115.917 296.521 C 117.026 302.903,117.012 302.991,115.164 301.321 C 107.048 293.989,97.650 293.897,88.075 301.055 L 85.626 302.885 86.189 301.535 C 90.349 291.569,96.967 282.878,104.843 277.038 C 108.330 274.453,107.997 274.530,109.550 275.943 M114.934 280.126 C 120.810 284.252,128.547 287.838,135.926 289.854 C 138.472 290.550,140.652 291.159,140.771 291.208 C 140.889 291.256,140.854 291.797,140.691 292.408 L 140.397 293.521 136.402 293.523 C 130.011 293.526,125.530 295.513,120.278 300.672 C 117.971 302.938,117.778 303.054,117.778 302.168 C 117.778 299.110,114.883 286.068,113.001 280.648 C 112.116 278.098,112.066 278.112,114.934 280.126 " stroke="none" fill="#292929" fill-rule="evenodd"></path><path id="path1" d="M87.037 88.519 C 91.578 92.076,98.630 93.968,100.844 92.223 C 101.822 91.451,103.333 88.987,103.333 88.163 C 103.333 87.907,100.441 87.781,94.722 87.786 L 86.111 87.794 87.037 88.519 M106.499 88.611 C 108.011 93.603,111.781 94.277,118.682 90.786 C 124.736 87.725,124.803 87.778,114.835 87.778 L 106.246 87.778 106.499 88.611 M98.932 89.444 C 98.991 89.852,98.911 90.676,98.753 91.277 C 98.415 92.569,97.793 91.947,97.783 90.308 C 97.772 88.253,98.663 87.583,98.932 89.444 M111.862 89.100 C 112.247 90.114,111.986 91.852,111.448 91.852 C 110.969 91.852,110.626 90.136,110.893 89.074 C 111.187 87.901,111.408 87.907,111.862 89.100 M104.074 95.114 C 104.074 96.173,105.185 96.852,105.741 96.133 C 106.548 95.088,106.433 94.815,105.185 94.815 C 104.574 94.815,104.074 94.950,104.074 95.114 M254.683 123.550 C 248.731 124.991,242.212 130.407,238.359 137.112 L 237.358 138.853 239.652 140.011 L 241.946 141.169 243.288 139.885 C 246.174 137.122,249.868 136.453,260.370 136.793 C 269.934 137.102,272.330 138.110,273.895 142.486 C 273.911 142.530,274.749 142.309,275.758 141.996 C 278.052 141.284,281.282 141.546,283.374 142.613 C 284.206 143.038,284.915 143.332,284.951 143.267 C 284.986 143.201,285.382 142.361,285.831 141.400 C 286.732 139.468,288.469 138.147,291.151 137.353 C 292.872 136.843,310.444 136.617,310.925 137.098 C 311.298 137.471,310.290 144.499,309.838 144.671 C 309.622 144.753,308.444 144.953,307.222 145.114 L 305.000 145.407 307.823 146.731 L 310.645 148.056 310.929 150.972 C 311.248 154.254,311.312 154.215,311.951 150.351 L 312.407 147.594 314.630 146.975 C 318.154 145.993,318.087 145.961,317.713 148.426 C 315.173 165.189,291.475 167.102,285.798 151.002 C 284.098 146.183,274.636 144.855,273.920 149.335 C 272.387 158.917,259.918 165.195,251.069 160.839 C 245.499 158.097,241.481 152.319,241.481 147.050 C 241.481 145.692,241.400 145.605,238.927 144.305 C 235.465 142.486,235.747 142.192,235.180 148.199 C 234.200 158.590,236.463 166.877,243.289 177.898 C 243.760 178.659,243.658 178.909,241.965 181.147 C 240.956 182.480,239.589 184.517,238.927 185.674 L 237.723 187.778 232.010 187.778 L 226.296 187.778 226.296 189.609 L 226.296 191.441 224.352 190.560 C 215.288 186.458,203.704 189.255,203.704 195.547 C 203.704 195.750,203.037 197.691,202.222 199.860 C 200.556 204.297,200.450 205.545,201.319 210.512 C 202.517 217.365,206.092 223.332,208.999 223.334 C 209.244 223.334,210.501 223.834,211.793 224.445 C 213.084 225.056,214.508 225.556,214.956 225.556 C 215.807 225.556,224.869 222.616,226.178 221.915 C 227.067 221.440,227.653 226.345,227.034 229.085 C 226.620 230.921,226.227 230.866,230.935 229.633 C 233.171 229.047,235.942 228.382,237.094 228.154 L 239.189 227.740 239.459 223.407 C 239.608 221.025,239.609 213.033,239.460 205.649 L 239.190 192.222 241.220 192.222 L 243.250 192.222 243.527 201.019 C 243.679 205.856,243.818 213.710,243.836 218.472 L 243.869 227.129 246.287 226.900 C 247.616 226.775,250.912 226.671,253.611 226.669 L 258.519 226.667 258.519 215.017 L 258.519 203.368 259.907 202.964 C 264.346 201.671,267.024 202.164,269.478 204.724 L 271.079 206.395 274.699 206.322 C 276.690 206.282,278.344 206.218,278.376 206.180 C 278.481 206.054,277.770 201.309,277.534 200.560 C 277.204 199.513,279.502 201.287,280.647 202.962 C 281.104 203.631,282.165 204.684,283.003 205.300 C 284.497 206.399,284.523 206.456,284.283 208.118 C 284.149 209.051,283.939 210.940,283.818 212.315 L 283.596 214.815 281.577 214.815 C 279.628 214.815,279.501 214.751,277.926 213.000 C 275.485 210.285,271.923 209.665,268.056 211.281 L 266.667 211.862 266.667 219.813 L 266.667 227.764 267.685 227.995 C 274.738 229.593,278.889 231.445,278.889 232.992 C 278.889 233.618,278.769 233.629,277.130 233.153 C 271.588 231.544,269.716 231.712,265.245 234.221 C 263.202 235.367,263.145 235.443,263.035 237.143 L 262.922 238.889 261.286 238.889 C 259.830 238.889,259.583 239.016,259.056 240.034 C 258.311 241.476,258.179 241.377,262.284 242.430 C 276.291 246.023,293.442 244.768,304.759 239.323 L 307.586 237.963 304.997 237.688 C 300.804 237.242,298.175 236.037,294.722 232.977 C 292.574 231.074,292.462 230.470,294.445 231.482 C 310.138 239.488,326.521 220.494,318.167 203.981 C 316.750 201.180,317.256 201.291,319.854 204.352 C 322.284 207.215,323.539 209.710,324.222 213.040 C 324.785 215.784,325.020 215.313,325.365 210.741 C 326.075 201.346,322.231 189.748,315.363 180.567 L 313.791 178.464 315.083 176.547 C 320.128 169.067,322.405 161.289,322.393 151.582 C 322.385 144.823,322.247 144.400,320.362 145.375 C 319.203 145.974,314.217 145.612,313.021 144.842 C 312.655 144.607,311.400 137.736,311.673 137.463 C 312.323 136.813,316.604 139.996,317.106 141.504 C 317.287 142.047,318.713 141.778,319.779 140.998 C 320.458 140.501,320.432 140.387,319.038 137.799 C 311.143 123.140,298.009 119.250,281.760 126.758 L 278.519 128.255 274.723 126.491 C 267.649 123.206,260.462 122.151,254.683 123.550 M286.296 155.171 C 286.296 159.553,280.918 163.961,277.532 162.354 C 275.679 161.475,272.963 157.069,272.963 154.942 C 272.963 154.872,275.963 154.815,279.630 154.815 C 283.654 154.815,286.296 154.956,286.296 155.171 M140.093 166.922 L 138.148 168.282 138.148 194.215 C 138.148 208.892,138.009 219.995,137.827 219.796 C 137.650 219.603,132.442 208.556,126.253 195.248 L 115.000 171.051 112.593 171.359 C 111.269 171.528,108.004 171.667,105.337 171.667 L 100.489 171.667 100.245 193.302 C 100.110 205.201,100.000 219.326,100.000 224.691 L 100.000 234.444 104.444 234.444 L 108.889 234.444 108.923 210.093 L 108.958 185.741 121.053 210.091 L 133.148 234.441 140.833 234.443 L 148.519 234.444 148.519 200.000 L 148.519 165.556 145.278 165.559 C 142.147 165.562,141.971 165.608,140.093 166.922 M170.000 184.493 C 159.145 186.306,155.453 195.256,156.571 217.050 C 156.881 223.095,156.974 223.673,157.915 225.402 C 159.505 228.323,163.536 232.106,164.711 231.779 C 164.870 231.735,165.833 231.972,166.852 232.305 C 170.194 233.400,178.003 234.162,181.010 233.687 C 186.028 232.893,190.308 230.428,192.872 226.852 C 193.603 225.833,194.689 224.474,195.287 223.832 L 196.373 222.663 192.925 220.345 L 189.477 218.027 187.601 220.124 C 186.569 221.278,185.478 222.222,185.177 222.223 C 184.876 222.223,183.546 222.740,182.222 223.372 C 174.266 227.169,163.773 221.823,164.634 214.410 L 164.898 212.130 180.412 212.404 L 195.926 212.677 195.906 208.839 C 195.841 196.038,195.311 193.790,191.535 190.294 C 187.252 186.329,176.443 183.417,170.000 184.493 M218.155 194.263 C 219.882 195.138,224.593 198.851,226.019 200.461 C 226.585 201.101,226.667 202.040,226.667 207.926 L 226.667 214.659 224.121 216.034 C 220.714 217.874,219.148 218.040,214.819 217.021 C 207.970 215.408,206.883 211.813,209.483 199.377 C 210.565 194.204,214.019 192.167,218.155 194.263 M181.296 196.253 C 183.906 197.409,187.760 201.421,185.387 200.511 C 184.945 200.341,184.874 200.668,184.994 202.317 L 185.141 204.331 179.885 204.572 C 170.965 204.980,165.556 204.887,165.556 204.326 C 165.556 201.705,168.144 197.618,170.926 195.845 C 172.522 194.828,178.623 195.068,181.296 196.253 M305.695 204.900 C 306.577 205.165,307.958 206.070,308.979 207.055 C 310.760 208.771,311.361 209.987,310.093 209.309 C 309.736 209.118,308.685 208.848,307.756 208.709 L 306.068 208.456 305.636 210.802 C 305.201 213.159,302.527 218.880,300.915 220.902 C 298.832 223.514,293.735 218.451,293.712 213.747 C 293.680 207.451,299.607 203.076,305.695 204.900 M263.055 226.759 C 263.140 227.014,263.524 227.283,263.908 227.358 C 264.512 227.475,264.539 227.412,264.110 226.895 C 263.522 226.187,262.835 226.099,263.055 226.759 M200.426 241.648 C 199.581 244.592,198.889 247.228,198.889 247.506 C 198.889 248.029,208.195 250.011,210.621 250.003 C 211.864 250.000,213.195 247.410,214.431 242.593 C 214.666 241.676,214.937 240.654,215.033 240.322 C 215.177 239.823,214.772 239.673,212.696 239.456 C 211.200 239.300,208.680 238.608,206.461 237.745 C 204.412 236.948,202.562 236.296,202.350 236.296 C 202.137 236.296,201.271 238.705,200.426 241.648 M173.203 244.825 C 167.811 246.441,164.476 256.115,167.320 261.887 C 169.241 265.786,175.596 265.164,180.125 260.635 C 186.800 253.960,181.687 242.282,173.203 244.825 M149.074 253.662 C 138.765 256.303,142.557 270.704,153.607 270.877 C 158.780 270.959,162.963 268.469,162.963 265.308 C 162.963 259.514,154.367 252.306,149.074 253.662 M171.852 256.123 C 171.852 256.887,172.847 257.224,173.500 256.682 C 175.077 255.373,175.525 259.949,173.962 261.408 C 170.631 264.517,166.010 259.859,169.231 256.638 C 170.395 255.474,171.852 255.187,171.852 256.123 M158.491 260.833 C 158.357 261.865,158.554 262.222,159.259 262.222 C 159.667 262.222,160.005 262.014,160.012 261.759 C 160.037 260.787,161.111 262.785,161.111 263.803 C 161.111 265.083,159.327 267.037,158.158 267.037 C 154.951 267.037,153.347 263.633,155.527 261.453 C 156.630 260.351,158.607 259.937,158.491 260.833 M181.403 268.072 C 180.069 269.031,178.668 269.999,178.289 270.223 C 177.645 270.605,177.695 270.749,179.035 272.384 C 182.226 276.278,183.758 275.206,184.181 268.781 C 184.363 266.022,184.284 266.001,181.403 268.072 M156.481 277.799 C 155.667 277.968,154.292 278.115,153.426 278.127 C 151.551 278.152,151.517 278.316,152.974 280.327 C 154.878 282.956,156.884 283.886,157.729 282.533 C 158.312 281.600,158.778 277.387,158.292 277.450 C 158.111 277.473,157.296 277.630,156.481 277.799 " stroke="none" fill="#f2eee6" fill-rule="evenodd"></path><path id="path2" d="M85.925 87.685 C 85.925 87.838,88.550 87.920,91.759 87.867 C 102.823 87.686,103.862 87.560,94.907 87.484 C 89.968 87.442,85.926 87.532,85.925 87.685 M106.168 87.685 C 106.073 87.838,108.688 87.920,111.979 87.868 C 123.161 87.689,124.281 87.560,115.300 87.484 C 110.372 87.442,106.262 87.532,106.168 87.685 M259.537 122.854 C 259.995 122.942,260.745 122.942,261.204 122.854 C 261.662 122.766,261.287 122.693,260.370 122.693 C 259.454 122.693,259.079 122.766,259.537 122.854 M296.208 122.855 C 296.669 122.943,297.335 122.940,297.690 122.847 C 298.044 122.754,297.667 122.682,296.852 122.686 C 296.037 122.690,295.747 122.766,296.208 122.855 M243.684 129.907 L 242.407 131.296 243.796 130.020 C 245.089 128.832,245.355 128.519,245.073 128.519 C 245.011 128.519,244.386 129.144,243.684 129.907 M252.315 136.922 C 252.671 137.015,253.255 137.015,253.611 136.922 C 253.968 136.829,253.676 136.753,252.963 136.753 C 252.250 136.753,251.958 136.829,252.315 136.922 M296.019 136.922 C 296.375 137.015,296.958 137.015,297.315 136.922 C 297.671 136.829,297.380 136.753,296.667 136.753 C 295.954 136.753,295.662 136.829,296.019 136.922 M305.648 136.922 C 306.005 137.015,306.588 137.015,306.944 136.922 C 307.301 136.829,307.009 136.753,306.296 136.753 C 305.583 136.753,305.292 136.829,305.648 136.922 M234.901 149.259 C 234.901 149.972,234.977 150.264,235.070 149.907 C 235.163 149.551,235.163 148.968,235.070 148.611 C 234.977 148.255,234.901 148.546,234.901 149.259 M146.024 165.451 C 146.587 165.536,147.420 165.534,147.875 165.446 C 148.331 165.358,147.870 165.288,146.852 165.291 C 145.833 165.294,145.461 165.366,146.024 165.451 M137.990 168.105 C 137.733 168.520,137.692 219.667,137.948 219.923 C 138.053 220.028,138.182 208.338,138.236 193.946 C 138.289 179.553,138.302 167.778,138.263 167.778 C 138.224 167.778,138.101 167.925,137.990 168.105 M100.157 192.778 C 100.157 197.056,100.211 198.755,100.277 196.554 C 100.342 194.353,100.342 190.853,100.276 188.776 C 100.210 186.699,100.156 188.500,100.157 192.778 M192.222 190.926 C 192.913 191.639,193.562 192.222,193.664 192.222 C 193.766 192.222,193.284 191.639,192.593 190.926 C 191.902 190.213,191.253 189.630,191.151 189.630 C 191.049 189.630,191.531 190.213,192.222 190.926 M239.259 194.259 L 239.259 196.296 241.296 196.296 L 243.333 196.296 243.333 194.259 L 243.333 192.222 241.296 192.222 L 239.259 192.222 239.259 194.259 M182.101 197.286 C 184.007 198.736,184.841 199.657,184.601 200.046 C 184.519 200.178,184.784 200.373,185.189 200.479 C 187.047 200.964,184.441 197.769,181.963 196.522 C 180.120 195.595,180.158 195.808,182.101 197.286 M277.505 200.560 C 277.617 200.965,277.803 201.724,277.919 202.247 C 278.078 202.972,278.460 203.280,279.523 203.543 C 281.188 203.956,281.718 204.873,282.160 208.104 L 282.470 210.370 279.413 210.370 C 277.732 210.370,276.128 210.458,275.849 210.565 C 275.552 210.679,274.900 210.181,274.276 209.361 C 273.315 208.100,269.590 204.963,270.172 205.905 C 270.330 206.161,269.746 206.296,268.480 206.296 C 267.417 206.296,265.657 206.577,264.570 206.919 L 262.593 207.543 262.593 217.475 C 262.593 223.635,262.729 227.407,262.951 227.407 C 263.149 227.407,263.214 227.157,263.097 226.852 C 262.792 226.058,263.471 226.166,264.259 227.037 C 264.628 227.444,265.320 227.778,265.798 227.778 L 266.667 227.778 266.667 219.820 L 266.667 211.862 268.056 211.281 C 271.923 209.665,275.485 210.285,277.926 213.000 C 279.501 214.751,279.628 214.815,281.577 214.815 L 283.596 214.815 283.818 212.315 C 283.939 210.940,284.149 209.051,284.283 208.118 C 284.523 206.456,284.497 206.399,283.003 205.300 C 282.165 204.684,281.104 203.631,280.647 202.962 C 279.482 201.258,277.220 199.528,277.505 200.560 M239.370 202.593 C 239.370 203.713,239.440 204.171,239.525 203.611 C 239.609 203.051,239.609 202.134,239.525 201.574 C 239.440 201.014,239.370 201.472,239.370 202.593 M243.481 205.926 C 243.481 208.880,243.538 210.088,243.608 208.611 C 243.679 207.134,243.679 204.718,243.608 203.241 C 243.538 201.764,243.481 202.972,243.481 205.926 M226.407 202.963 C 226.407 204.083,226.477 204.542,226.562 203.981 C 226.646 203.421,226.646 202.505,226.562 201.944 C 226.477 201.384,226.407 201.843,226.407 202.963 M317.633 202.931 C 317.984 203.525,318.643 204.180,319.097 204.388 C 321.099 205.300,323.363 209.845,324.139 214.510 C 324.493 216.639,324.646 217.023,324.851 216.296 C 325.189 215.094,325.234 213.987,324.910 214.812 C 324.791 215.116,324.480 214.317,324.219 213.037 C 323.541 209.714,322.286 207.217,319.854 204.352 C 317.663 201.771,316.513 201.035,317.633 202.931 M263.056 202.488 C 263.616 202.572,264.532 202.572,265.093 202.488 C 265.653 202.403,265.194 202.333,264.074 202.333 C 262.954 202.333,262.495 202.403,263.056 202.488 M266.667 204.238 C 266.667 206.154,266.608 206.115,268.391 205.370 C 269.873 204.751,269.771 204.373,267.806 203.220 L 266.667 202.551 266.667 204.238 M200.471 205.556 C 200.471 206.472,200.543 206.847,200.632 206.389 C 200.720 205.931,200.720 205.181,200.632 204.722 C 200.543 204.264,200.471 204.639,200.471 205.556 M156.057 207.593 C 156.056 209.426,156.119 210.223,156.197 209.363 C 156.274 208.503,156.275 207.003,156.199 206.030 C 156.122 205.056,156.059 205.759,156.057 207.593 M175.653 204.710 C 176.216 204.795,177.050 204.793,177.505 204.705 C 177.961 204.617,177.500 204.548,176.481 204.550 C 175.463 204.553,175.090 204.625,175.653 204.710 M299.053 205.324 C 295.925 206.781,293.676 210.097,293.718 213.191 C 293.732 214.135,293.859 214.010,294.814 212.125 C 296.265 209.260,297.518 207.677,299.729 205.917 C 301.850 204.228,301.697 204.093,299.053 205.324 M196.063 208.889 C 196.063 211.028,196.124 211.903,196.199 210.833 C 196.274 209.764,196.274 208.014,196.199 206.944 C 196.124 205.875,196.063 206.750,196.063 208.889 M308.889 207.222 C 309.580 207.935,310.229 208.519,310.330 208.519 C 310.432 208.519,309.950 207.935,309.259 207.222 C 308.568 206.509,307.920 205.926,307.818 205.926 C 307.716 205.926,308.198 206.509,308.889 207.222 M273.253 206.570 C 274.329 206.645,275.996 206.644,276.957 206.568 C 277.918 206.492,277.037 206.431,275.000 206.432 C 272.963 206.433,272.177 206.495,273.253 206.570 M303.423 209.072 C 299.059 210.969,296.993 215.245,298.003 220.294 C 298.315 221.852,299.862 222.265,300.812 221.044 C 303.048 218.172,305.926 211.495,305.926 209.181 C 305.926 208.385,305.088 208.348,303.423 209.072 M308.736 208.868 C 309.365 209.018,310.073 209.261,310.310 209.407 C 310.547 209.554,310.741 209.516,310.741 209.324 C 310.741 208.927,309.434 208.513,308.333 208.561 C 307.886 208.581,308.045 208.703,308.736 208.868 M325.271 211.481 C 325.271 212.194,325.347 212.486,325.440 212.130 C 325.534 211.773,325.534 211.190,325.440 210.833 C 325.347 210.477,325.271 210.769,325.271 211.481 M175.093 212.495 C 176.162 212.570,177.912 212.570,178.981 212.495 C 180.051 212.420,179.176 212.359,177.037 212.359 C 174.898 212.359,174.023 212.420,175.093 212.495 M243.835 219.074 C 243.834 220.907,243.897 221.704,243.974 220.845 C 244.052 219.985,244.053 218.485,243.976 217.511 C 243.900 216.537,243.836 217.241,243.835 219.074 M176.389 216.569 C 177.356 216.645,178.940 216.645,179.907 216.569 C 180.875 216.492,180.083 216.430,178.148 216.430 C 176.213 216.430,175.421 216.492,176.389 216.569 M319.161 220.617 C 317.923 224.461,314.260 229.093,311.151 230.747 L 309.815 231.458 311.111 231.246 C 315.213 230.577,317.485 229.227,319.074 226.515 C 320.153 224.674,320.632 221.609,320.131 219.757 L 319.815 218.587 319.161 220.617 M239.353 225.000 C 239.357 225.815,239.433 226.105,239.521 225.644 C 239.610 225.183,239.606 224.516,239.514 224.162 C 239.421 223.808,239.349 224.185,239.353 225.000 M99.779 232.593 L 99.815 234.630 104.259 234.647 L 108.704 234.664 104.371 234.543 L 100.038 234.422 99.891 232.489 L 99.744 230.556 99.779 232.593 M292.963 231.086 C 292.963 232.461,299.954 236.959,302.536 237.246 L 303.889 237.396 302.502 237.037 C 299.231 236.192,294.769 233.195,295.360 232.240 C 295.450 232.094,294.948 231.699,294.243 231.363 C 293.539 231.027,292.963 230.903,292.963 231.086 M246.038 231.506 C 236.755 232.404,227.806 235.355,223.689 238.875 L 222.407 239.970 224.154 239.985 C 232.747 240.059,244.120 244.735,255.548 252.893 C 256.199 253.358,256.220 253.220,256.030 249.745 C 255.589 241.679,258.419 236.333,264.936 232.922 L 267.465 231.598 263.490 231.354 C 258.486 231.048,250.006 231.122,246.038 231.506 M186.389 231.985 C 185.479 232.436,185.282 232.963,186.022 232.963 C 186.279 232.963,186.697 232.630,186.951 232.222 C 187.206 231.815,187.371 231.502,187.318 231.527 C 187.265 231.552,186.847 231.758,186.389 231.985 M176.019 233.959 C 176.375 234.052,176.958 234.052,177.315 233.959 C 177.671 233.866,177.380 233.790,176.667 233.790 C 175.954 233.790,175.662 233.866,176.019 233.959 M137.150 234.721 C 139.351 234.787,142.851 234.786,144.928 234.720 C 147.004 234.655,145.204 234.601,140.926 234.601 C 136.648 234.602,134.949 234.655,137.150 234.721 M263.037 235.259 C 262.793 235.504,262.593 236.337,262.593 237.111 C 262.593 238.503,262.576 238.519,261.133 238.519 C 260.330 238.519,259.596 238.644,259.501 238.796 C 259.406 238.949,260.147 239.016,261.146 238.946 L 262.963 238.817 262.963 237.261 C 262.963 236.404,263.163 235.504,263.407 235.259 C 263.652 235.015,263.769 234.815,263.667 234.815 C 263.565 234.815,263.281 235.015,263.037 235.259 M321.643 237.130 L 320.556 238.333 321.759 237.246 C 322.421 236.647,322.963 236.106,322.963 236.042 C 322.963 235.756,322.657 236.008,321.643 237.130 M305.689 237.681 C 307.355 237.811,307.438 237.863,306.800 238.376 C 306.140 238.907,306.142 238.914,306.852 238.551 C 308.788 237.562,308.714 237.418,306.296 237.480 C 304.160 237.534,304.091 237.557,305.689 237.681 M213.245 239.521 C 213.706 239.610,214.372 239.606,214.727 239.514 C 215.081 239.421,214.704 239.349,213.889 239.353 C 213.074 239.357,212.784 239.433,213.245 239.521 M332.222 240.116 C 332.222 240.180,332.764 240.721,333.426 241.320 L 334.630 242.407 333.542 241.204 C 332.528 240.082,332.222 239.830,332.222 240.116 M221.042 242.130 C 220.811 242.690,220.636 243.815,220.654 244.630 C 220.756 249.265,228.148 272.521,228.148 268.208 C 228.148 267.809,228.917 265.947,229.857 264.070 C 233.852 256.089,239.586 253.001,249.641 253.415 C 252.079 253.516,254.074 253.547,254.074 253.486 C 254.074 253.138,246.295 248.279,243.202 246.694 C 234.633 242.305,222.042 239.711,221.042 242.130 M173.269 244.047 C 166.922 246.087,163.378 256.074,166.739 262.446 C 170.175 268.962,180.913 264.416,183.888 255.185 C 184.832 252.256,185.496 251.084,186.981 249.722 C 187.999 248.788,188.141 248.519,187.616 248.519 C 186.935 248.519,184.444 250.866,184.444 251.508 C 184.444 252.396,183.760 251.713,183.555 250.621 C 182.676 245.933,177.564 242.666,173.269 244.047 M178.444 244.967 C 180.850 246.224,182.895 249.525,183.209 252.660 C 184.061 261.174,170.756 268.926,167.339 261.905 C 163.196 253.391,171.200 241.182,178.444 244.967 M218.325 248.974 C 215.408 255.476,209.751 263.362,203.996 268.948 L 199.928 272.896 200.400 274.203 L 200.873 275.509 202.853 273.699 C 207.923 269.066,216.363 267.239,223.704 269.187 C 227.086 270.084,226.917 270.279,225.613 266.991 C 223.778 262.365,222.226 257.451,220.904 252.072 C 220.207 249.239,219.576 246.860,219.502 246.786 C 219.428 246.712,218.898 247.696,218.325 248.974 M148.704 252.920 C 143.096 254.394,140.831 259.407,143.187 265.131 C 143.659 266.277,143.648 266.351,143.053 266.087 C 142.014 265.625,139.259 265.446,139.259 265.840 C 139.259 266.038,139.974 266.281,140.847 266.379 C 141.740 266.480,143.132 267.028,144.026 267.631 C 148.070 270.357,149.500 271.109,151.395 271.502 C 155.457 272.345,160.067 271.061,162.451 268.422 C 167.290 263.065,156.480 250.876,148.704 252.920 M155.238 254.694 C 161.545 258.127,164.669 265.058,161.388 268.339 C 157.198 272.529,148.445 271.639,145.005 266.673 C 139.453 258.663,146.778 250.089,155.238 254.694 M191.713 254.618 C 190.923 254.900,190.101 255.306,189.886 255.522 C 189.189 256.218,189.899 256.367,191.058 255.768 C 193.860 254.319,194.295 254.989,192.155 257.457 C 181.475 269.771,165.260 277.464,149.815 277.543 C 141.324 277.586,134.934 275.289,140.593 274.228 C 142.025 273.959,142.296 273.333,140.981 273.333 C 138.604 273.333,135.985 276.658,136.573 278.929 C 137.103 280.972,137.673 280.606,137.485 278.344 C 137.392 277.218,137.394 276.296,137.489 276.296 C 137.584 276.296,138.584 276.614,139.711 277.001 C 140.839 277.389,142.975 277.895,144.459 278.125 C 147.021 278.523,147.252 278.642,149.041 280.494 C 163.532 295.492,188.519 285.443,188.519 264.617 L 188.519 262.536 191.738 259.049 L 194.958 255.561 195.793 256.346 C 196.252 256.777,196.740 257.651,196.876 258.287 C 197.188 259.740,197.376 260.063,197.773 259.818 C 199.177 258.950,195.113 253.801,193.253 254.090 C 193.195 254.099,192.502 254.337,191.713 254.618 M187.430 267.012 C 185.137 285.875,163.213 293.654,150.078 280.265 L 148.490 278.646 152.856 278.197 C 160.392 277.421,161.327 277.215,168.363 274.789 C 174.606 272.636,176.200 271.788,182.964 267.022 C 183.676 266.521,184.992 265.484,185.890 264.718 C 187.935 262.972,187.924 262.955,187.430 267.012 M98.110 274.073 C 89.671 275.107,79.645 279.437,67.816 287.155 L 63.595 289.909 66.158 289.725 C 73.487 289.201,79.154 292.708,82.700 299.961 L 84.273 303.179 85.671 299.971 C 89.792 290.520,96.755 281.480,103.987 276.192 C 105.264 275.259,106.181 274.420,106.025 274.327 C 105.394 273.952,100.403 273.792,98.110 274.073 M104.813 277.256 C 97.878 282.428,92.558 288.965,88.194 297.678 C 85.837 302.386,85.839 302.561,88.241 300.723 C 97.085 293.953,106.746 293.988,114.907 300.819 C 115.875 301.629,116.666 302.151,116.665 301.979 C 116.649 298.596,112.830 282.776,110.812 277.729 C 110.443 276.808,108.588 275.185,107.904 275.185 C 107.731 275.185,106.340 276.117,104.813 277.256 M112.733 279.445 C 114.205 283.205,117.073 295.291,117.632 300.093 C 117.934 302.686,117.703 302.696,120.684 299.963 C 125.831 295.243,129.984 293.519,136.204 293.519 C 138.731 293.519,140.372 293.373,140.375 293.148 C 140.378 292.944,140.475 292.425,140.591 291.993 C 140.784 291.274,140.514 291.139,137.345 290.366 C 132.666 289.225,129.533 288.078,124.216 285.559 C 120.349 283.727,118.357 282.579,113.351 279.301 C 112.483 278.732,112.456 278.738,112.733 279.445 " stroke="none" fill="#666564" fill-rule="evenodd"></path><path id="path3" d="M272.963 154.942 C 272.963 157.069,275.679 161.475,277.532 162.354 C 280.918 163.961,286.296 159.553,286.296 155.171 C 286.296 154.956,283.654 154.815,279.630 154.815 C 275.963 154.815,272.963 154.872,272.963 154.942 M173.196 218.970 C 171.696 221.659,171.005 223.351,171.290 223.636 C 171.779 224.125,179.332 224.579,180.302 224.178 C 180.849 223.952,182.237 223.369,183.387 222.882 L 185.477 221.997 184.489 219.424 L 183.500 216.852 178.997 216.748 L 174.493 216.644 173.196 218.970 M322.802 236.126 C 320.876 239.065,311.475 244.390,305.029 246.193 L 301.355 247.221 307.437 248.206 C 321.332 250.456,326.617 250.825,330.487 249.817 C 338.101 247.834,336.848 242.417,327.549 237.112 C 323.647 234.886,323.618 234.880,322.802 236.126 M118.708 238.211 C 114.128 241.814,125.938 259.481,133.445 260.256 L 135.393 260.457 136.073 258.300 C 136.973 255.444,139.115 250.969,140.198 249.682 L 141.065 248.651 140.021 246.826 C 136.309 240.337,122.897 234.916,118.708 238.211 M182.578 238.932 C 183.862 239.715,184.766 239.590,185.101 238.585 C 185.201 238.286,184.624 238.149,183.272 238.150 L 181.296 238.151 182.578 238.932 M171.243 280.007 C 167.062 280.856,161.883 285.518,163.782 286.723 C 165.527 287.830,174.597 285.554,178.432 283.048 C 180.624 281.615,175.012 279.241,171.243 280.007 " stroke="none" fill="#dc465d" fill-rule="evenodd"></path><path id="path4" d="M256.032 136.941 C 257.211 137.014,259.044 137.014,260.106 136.939 C 261.168 136.865,260.204 136.804,257.963 136.805 C 255.722 136.806,254.853 136.867,256.032 136.941 M299.537 136.940 C 300.606 137.015,302.356 137.015,303.426 136.940 C 304.495 136.865,303.620 136.804,301.481 136.804 C 299.343 136.804,298.468 136.865,299.537 136.940 M148.633 167.593 C 148.635 168.815,148.705 169.270,148.787 168.604 C 148.869 167.939,148.868 166.939,148.783 166.382 C 148.699 165.826,148.631 166.370,148.633 167.593 M100.131 182.037 C 100.130 183.870,100.193 184.667,100.271 183.807 C 100.348 182.948,100.349 181.448,100.273 180.474 C 100.196 179.500,100.133 180.204,100.131 182.037 M109.064 210.370 C 109.064 223.713,109.110 229.171,109.166 222.500 C 109.223 215.829,109.223 204.912,109.166 198.241 C 109.110 191.569,109.064 197.028,109.064 210.370 M226.032 189.444 C 226.035 190.463,226.107 190.836,226.192 190.273 C 226.277 189.710,226.275 188.876,226.187 188.421 C 226.099 187.965,226.029 188.426,226.032 189.444 M239.444 212.055 C 239.444 227.634,239.453 227.812,240.185 227.616 C 240.593 227.507,241.388 227.415,241.954 227.412 C 243.733 227.404,243.797 226.717,243.507 210.833 L 243.242 196.296 241.343 196.296 L 239.444 196.296 239.444 212.055 M195.656 200.370 C 195.656 201.287,195.729 201.662,195.817 201.204 C 195.905 200.745,195.905 199.995,195.817 199.537 C 195.729 199.079,195.656 199.454,195.656 200.370 M260.000 203.117 L 258.704 203.585 258.704 215.218 L 258.704 226.852 260.648 226.964 L 262.593 227.076 262.593 217.309 L 262.593 207.543 264.570 206.919 C 265.657 206.577,267.413 206.296,268.472 206.296 C 270.264 206.296,270.370 206.247,270.011 205.575 C 269.652 204.906,269.533 204.893,268.343 205.390 C 266.616 206.112,266.667 206.146,266.667 204.259 L 266.667 202.593 263.981 202.621 C 262.505 202.636,260.713 202.859,260.000 203.117 M278.427 205.000 L 278.615 206.667 274.956 206.677 C 271.492 206.686,271.346 206.717,272.222 207.263 C 272.731 207.580,273.642 208.496,274.245 209.300 C 274.893 210.163,275.549 210.680,275.849 210.565 C 276.128 210.458,277.732 210.370,279.413 210.370 L 282.470 210.370 282.174 208.207 C 281.764 205.206,281.281 204.120,280.168 203.697 C 278.429 203.036,278.223 203.190,278.427 205.000 M318.519 204.154 C 318.519 204.212,318.839 205.100,319.229 206.128 C 320.007 208.174,320.875 213.557,320.520 214.131 C 320.398 214.329,320.268 216.792,320.233 219.604 C 320.142 226.710,317.809 230.212,312.675 230.949 C 311.713 231.088,310.009 231.622,308.889 232.136 C 306.244 233.351,300.111 233.711,297.240 232.819 C 295.011 232.127,294.902 232.199,296.074 233.592 C 297.666 235.484,301.790 237.105,305.555 237.320 L 308.801 237.505 310.975 236.086 C 316.478 232.491,321.546 226.114,323.651 220.136 L 324.678 217.222 324.044 214.074 C 323.085 209.313,321.170 205.467,319.244 204.436 C 318.845 204.223,318.519 204.096,318.519 204.154 M299.527 206.092 C 293.657 210.873,292.571 217.010,297.014 220.295 L 298.033 221.048 297.857 218.311 C 297.470 212.279,301.508 208.271,307.658 208.581 L 310.349 208.717 309.156 207.461 C 306.027 204.168,302.504 203.666,299.527 206.092 M226.397 206.296 C 226.397 207.213,226.469 207.588,226.558 207.130 C 226.646 206.671,226.646 205.921,226.558 205.463 C 226.469 205.005,226.397 205.380,226.397 206.296 M169.171 212.484 C 169.632 212.573,170.298 212.569,170.652 212.477 C 171.007 212.384,170.630 212.312,169.815 212.316 C 169.000 212.320,168.710 212.396,169.171 212.484 M193.431 212.858 C 193.994 212.943,194.827 212.941,195.283 212.853 C 195.738 212.765,195.278 212.696,194.259 212.699 C 193.241 212.701,192.868 212.773,193.431 212.858 M177.864 213.464 C 176.982 213.930,175.185 215.627,175.185 215.995 C 175.185 216.161,176.477 216.300,178.056 216.305 C 179.634 216.310,181.546 216.458,182.304 216.634 L 183.682 216.954 182.613 215.400 C 180.906 212.919,179.774 212.457,177.864 213.464 M99.761 227.593 C 99.760 229.426,99.823 230.223,99.900 229.363 C 99.978 228.503,99.979 227.003,99.902 226.030 C 99.826 225.056,99.762 225.759,99.761 227.593 M186.667 232.554 C 186.667 232.805,186.375 232.967,186.019 232.916 C 185.662 232.865,184.078 233.135,182.498 233.517 C 179.962 234.129,179.117 234.165,175.276 233.824 C 170.449 233.395,170.588 233.379,170.890 234.332 C 171.053 234.844,171.850 235.169,174.071 235.628 C 175.702 235.966,177.973 236.670,179.118 237.195 C 181.907 238.472,184.924 238.526,185.705 237.315 C 186.241 236.483,187.108 232.545,186.819 232.253 C 186.735 232.168,186.667 232.304,186.667 232.554 M260.350 236.204 L 259.074 237.593 260.463 236.316 C 261.756 235.128,262.022 234.815,261.739 234.815 C 261.677 234.815,261.052 235.440,260.350 236.204 M261.177 237.075 L 259.947 238.333 261.120 238.452 C 262.579 238.600,262.673 238.504,262.526 237.018 L 262.407 235.818 261.177 237.075 M277.141 244.717 C 278.115 244.794,279.615 244.793,280.474 244.715 C 281.334 244.637,280.537 244.575,278.704 244.576 C 276.870 244.577,276.167 244.641,277.141 244.717 M324.537 250.636 C 325.097 250.721,326.014 250.721,326.574 250.636 C 327.134 250.551,326.676 250.481,325.556 250.481 C 324.435 250.481,323.977 250.551,324.537 250.636 M233.495 258.611 L 232.407 259.815 233.611 258.727 C 234.273 258.129,234.815 257.587,234.815 257.523 C 234.815 257.237,234.509 257.489,233.495 258.611 M204.988 267.870 L 202.778 270.185 205.093 267.975 C 206.366 266.759,207.407 265.717,207.407 265.660 C 207.407 265.386,207.042 265.720,204.988 267.870 M150.463 277.663 C 150.819 277.756,151.403 277.756,151.759 277.663 C 152.116 277.570,151.824 277.493,151.111 277.493 C 150.398 277.493,150.106 277.570,150.463 277.663 M181.273 280.463 L 180.185 281.667 181.389 280.579 C 182.511 279.565,182.763 279.259,182.477 279.259 C 182.413 279.259,181.871 279.801,181.273 280.463 M98.889 282.037 C 97.989 282.954,97.337 283.704,97.438 283.704 C 97.540 283.704,98.360 282.954,99.259 282.037 C 100.159 281.120,100.812 280.370,100.710 280.370 C 100.608 280.370,99.789 281.120,98.889 282.037 M119.704 300.792 C 118.625 301.830,117.801 302.739,117.874 302.812 C 117.947 302.885,118.908 302.032,120.009 300.917 C 122.530 298.364,122.319 298.277,119.704 300.792 " stroke="none" fill="#5c5c5c" fill-rule="evenodd"></path></g></svg>