<svg id="svg" version="1.1" xmlns="http://www.w3.org/2000/svg" xmlns:xlink="http://www.w3.org/1999/xlink" width="400" height="400" viewBox="0, 0, 400,400"><g id="svgg"><path id="path0" d="M0.000 200.000 L 0.000 400.000 200.000 400.000 L 400.000 400.000 400.000 200.000 L 400.000 0.000 200.000 0.000 L 0.000 0.000 0.000 200.000 M197.991 63.179 C 212.594 87.991,217.202 120.246,209.420 143.166 C 207.277 149.477,203.106 157.167,198.540 163.226 C 197.373 164.775,197.370 164.790,198.108 165.422 C 198.517 165.772,198.750 166.221,198.628 166.420 C 198.505 166.618,198.592 166.665,198.822 166.523 C 200.011 165.788,207.764 175.184,209.285 179.205 C 211.730 185.667,212.268 209.586,210.135 216.961 L 209.568 218.921 212.026 221.667 L 214.484 224.414 213.756 226.744 C 213.355 228.026,212.905 229.407,212.755 229.815 C 212.209 231.293,215.115 228.086,216.237 225.972 C 219.017 220.730,219.327 217.441,219.019 196.389 C 218.778 179.861,218.745 179.259,218.062 179.259 C 217.420 179.259,217.378 179.069,217.609 177.222 L 217.863 175.185 215.598 175.185 L 213.333 175.185 213.333 172.929 L 213.333 170.672 211.296 170.799 L 209.258 170.926 209.259 165.869 L 209.259 160.812 213.056 160.603 C 215.144 160.487,220.727 160.314,225.463 160.218 L 234.074 160.042 234.074 162.264 L 234.074 164.486 236.204 164.373 L 238.333 164.259 238.290 166.389 L 238.247 168.519 240.513 168.516 C 242.634 168.514,242.817 168.444,243.402 167.417 L 244.025 166.321 248.957 169.612 C 253.758 172.815,256.593 174.482,263.577 178.211 L 266.969 180.021 264.410 182.525 C 261.105 185.759,261.126 185.926,264.839 185.926 C 268.192 185.926,269.259 186.310,269.259 187.519 C 269.259 189.171,265.617 204.326,264.305 208.135 L 263.761 209.715 267.158 209.555 C 276.423 209.116,281.984 202.290,281.729 191.667 C 281.714 191.056,281.736 189.534,281.777 188.285 L 281.852 186.014 286.209 187.409 C 288.605 188.177,292.647 189.246,295.191 189.786 C 297.734 190.326,300.175 190.844,300.615 190.938 C 302.121 191.259,302.363 210.473,300.930 215.926 C 298.906 223.620,293.201 230.255,285.278 234.126 C 282.528 235.470,282.222 235.723,282.222 236.662 C 282.222 237.602,281.713 238.021,277.037 240.926 C 274.185 242.698,271.852 244.191,271.852 244.245 C 271.852 244.298,272.329 245.407,272.912 246.708 C 282.361 267.803,263.308 304.707,232.222 325.518 C 216.379 336.124,208.313 339.945,201.055 340.280 C 193.878 340.612,191.559 339.281,183.399 330.143 C 175.997 321.855,177.087 322.355,169.815 323.908 C 152.741 327.553,147.143 323.965,141.185 305.556 C 134.319 284.344,133.112 250.986,138.691 236.641 C 138.847 236.239,137.889 235.043,135.592 232.773 C 133.763 230.966,132.350 229.352,132.452 229.188 C 132.553 229.023,132.453 228.889,132.228 228.889 C 131.350 228.889,128.192 225.448,127.372 223.598 C 126.659 221.991,126.495 220.892,126.390 217.052 C 126.321 214.514,126.230 212.420,126.188 212.399 C 126.146 212.378,125.236 212.509,124.167 212.690 L 122.222 213.019 122.222 225.028 L 122.222 237.037 118.148 237.037 L 114.074 237.037 114.074 235.018 L 114.074 233.000 111.944 232.889 L 109.815 232.778 109.815 230.647 L 109.815 228.517 107.685 228.518 L 105.556 228.519 105.556 212.081 L 105.556 195.644 102.321 194.581 C 91.532 191.037,78.408 182.538,69.398 173.261 C 63.113 166.791,63.067 166.289,68.368 162.058 C 70.424 160.417,74.340 157.294,77.071 155.119 C 83.571 149.944,96.598 139.423,97.778 138.397 C 98.287 137.955,99.870 136.680,101.296 135.564 C 102.722 134.449,103.972 133.440,104.074 133.322 C 104.176 133.205,105.426 132.177,106.852 131.039 C 109.920 128.590,115.919 123.735,123.468 117.593 C 126.472 115.148,129.629 112.594,130.483 111.917 C 131.338 111.240,132.454 110.324,132.963 109.880 C 133.472 109.437,135.056 108.161,136.481 107.046 C 137.907 105.930,139.157 104.921,139.259 104.804 C 139.361 104.686,140.611 103.653,142.037 102.507 C 143.463 101.361,146.380 98.991,148.519 97.239 C 152.800 93.734,160.932 87.126,166.111 82.944 C 167.944 81.464,170.460 79.404,171.700 78.367 C 172.941 77.330,175.505 75.231,177.398 73.704 C 179.291 72.176,181.027 70.759,181.256 70.556 C 185.668 66.629,186.100 66.393,187.187 67.315 C 187.929 67.945,187.935 67.942,187.401 67.222 C 187.099 66.815,186.739 66.396,186.601 66.291 C 186.166 65.961,194.209 59.653,195.080 59.641 C 195.731 59.632,196.337 60.369,197.991 63.179 M264.863 60.624 C 265.817 61.578,265.660 62.106,263.057 66.706 C 260.851 70.604,259.950 73.369,259.721 76.944 C 259.511 80.216,259.666 80.472,261.154 79.309 C 265.560 75.863,274.269 74.279,287.407 74.532 C 300.619 74.787,301.780 75.903,294.067 80.936 C 288.685 84.447,288.684 84.453,292.612 86.517 C 298.606 89.667,300.073 93.095,296.211 94.928 C 295.110 95.450,294.975 95.668,295.084 96.742 C 295.341 99.270,293.914 99.545,292.549 97.231 C 291.892 96.118,291.579 95.925,290.426 95.922 C 289.683 95.920,287.418 95.340,285.394 94.633 C 281.079 93.125,281.203 93.077,281.817 96.029 C 284.217 107.554,280.424 109.795,269.990 103.015 C 266.604 100.814,266.286 100.960,262.020 106.667 C 253.511 118.049,250.658 117.962,250.040 106.300 C 249.757 100.945,250.024 101.003,243.074 104.799 C 233.631 109.957,232.525 109.584,234.840 102.020 C 236.847 95.461,239.473 92.652,248.331 87.589 C 255.259 83.629,254.885 84.274,252.745 79.974 C 246.843 68.114,247.438 62.352,254.812 59.957 C 256.891 59.282,263.992 59.753,264.863 60.624 M187.824 68.333 C 188.157 69.222,191.934 75.926,192.101 75.926 C 192.335 75.926,188.557 68.832,188.056 68.333 C 187.809 68.086,187.731 68.086,187.824 68.333 M192.253 76.481 C 192.253 76.685,192.573 77.435,192.963 78.148 C 193.353 78.861,193.673 79.278,193.673 79.074 C 193.673 78.870,193.353 78.120,192.963 77.407 C 192.573 76.694,192.253 76.278,192.253 76.481 M193.730 79.815 C 193.730 80.019,193.968 80.602,194.259 81.111 C 194.550 81.620,194.789 81.870,194.789 81.667 C 194.789 81.463,194.550 80.880,194.259 80.370 C 193.968 79.861,193.730 79.611,193.730 79.815 M304.444 81.296 C 304.812 81.740,304.812 81.964,304.444 82.407 C 303.459 83.594,301.811 82.717,302.356 81.296 C 302.473 80.991,302.888 80.741,303.276 80.741 C 303.665 80.741,304.191 80.991,304.444 81.296 M311.225 82.514 C 312.757 84.207,313.510 87.961,312.403 88.386 C 311.629 88.683,310.748 87.866,309.949 86.111 C 308.568 83.074,309.458 80.562,311.225 82.514 M195.768 84.815 C 195.904 85.324,196.170 85.991,196.359 86.296 C 196.597 86.682,196.626 86.569,196.454 85.926 C 196.318 85.417,196.052 84.750,195.863 84.444 C 195.625 84.058,195.596 84.171,195.768 84.815 M198.004 91.481 C 198.130 92.194,198.383 93.028,198.566 93.333 C 198.960 93.991,198.582 92.071,198.091 90.926 C 197.877 90.426,197.849 90.607,198.004 91.481 M149.384 100.210 C 149.075 101.015,149.859 101.771,150.420 101.210 C 150.894 100.736,150.600 99.630,150.000 99.630 C 149.784 99.630,149.506 99.891,149.384 100.210 M150.370 100.556 C 150.370 100.861,150.204 101.111,150.000 101.111 C 149.796 101.111,149.630 100.861,149.630 100.556 C 149.630 100.250,149.796 100.000,150.000 100.000 C 150.204 100.000,150.370 100.250,150.370 100.556 M322.066 101.129 C 322.743 101.547,323.616 102.422,324.007 103.074 C 328.104 109.905,319.058 116.597,313.809 110.619 C 309.050 105.198,315.904 97.321,322.066 101.129 M146.755 101.008 C 146.498 101.100,146.114 101.536,145.901 101.977 C 145.550 102.705,145.562 102.719,146.039 102.130 C 146.646 101.379,148.000 101.267,148.273 101.944 C 148.414 102.293,148.467 102.297,148.489 101.957 C 148.525 101.402,147.390 100.781,146.755 101.008 M200.456 102.222 C 200.456 102.935,200.533 103.227,200.626 102.870 C 200.719 102.514,200.719 101.931,200.626 101.574 C 200.533 101.218,200.456 101.509,200.456 102.222 M200.827 104.815 C 200.827 105.528,200.903 105.819,200.996 105.463 C 201.089 105.106,201.089 104.523,200.996 104.167 C 200.903 103.810,200.827 104.102,200.827 104.815 M308.925 106.944 C 309.463 108.355,309.438 112.301,308.884 113.373 C 307.477 116.095,305.900 116.512,302.084 115.171 C 299.314 114.197,298.944 114.350,297.305 117.153 C 294.771 121.484,292.828 122.388,290.185 120.465 C 288.255 119.060,285.406 115.367,285.688 114.634 C 286.053 113.683,287.181 114.018,288.085 115.347 C 291.439 120.272,293.113 120.379,295.727 115.832 C 297.639 112.504,298.984 112.028,302.778 113.333 C 306.764 114.705,307.675 113.787,307.261 108.816 C 306.996 105.641,307.998 104.514,308.925 106.944 M201.197 107.407 C 201.197 108.120,201.273 108.412,201.366 108.056 C 201.460 107.699,201.460 107.116,201.366 106.759 C 201.273 106.403,201.197 106.694,201.197 107.407 M201.553 111.076 C 201.484 112.661,201.461 112.689,200.769 112.063 C 195.846 107.607,177.758 120.668,182.410 125.320 C 187.015 129.925,202.185 119.276,201.755 111.740 C 201.655 109.981,201.608 109.825,201.553 111.076 M229.252 114.430 C 230.702 117.272,229.934 120.267,228.234 118.399 C 226.793 116.815,226.634 116.133,227.324 114.490 C 228.117 112.604,228.317 112.597,229.252 114.430 M273.957 117.801 C 278.595 119.553,279.567 125.638,275.717 128.812 C 271.199 132.536,264.320 128.505,265.397 122.763 C 266.109 118.971,270.427 116.468,273.957 117.801 M331.814 119.576 C 332.746 120.885,333.540 123.741,333.211 124.598 C 332.772 125.744,331.422 125.133,330.491 123.368 C 328.721 120.013,329.840 116.805,331.814 119.576 M201.603 123.519 C 201.605 124.944,201.672 125.482,201.752 124.714 C 201.832 123.946,201.831 122.779,201.749 122.121 C 201.667 121.464,201.601 122.093,201.603 123.519 M200.926 128.519 C 200.782 129.563,200.743 130.496,200.839 130.592 C 200.934 130.687,201.126 129.907,201.265 128.858 C 201.405 127.809,201.444 126.876,201.353 126.785 C 201.262 126.694,201.070 127.474,200.926 128.519 M243.784 128.426 C 245.779 130.713,246.036 134.882,244.145 134.282 C 242.382 133.722,240.911 127.778,242.535 127.778 C 242.911 127.778,243.473 128.069,243.784 128.426 M308.800 128.981 C 310.161 130.435,310.994 134.386,310.060 134.963 C 308.921 135.667,307.037 132.430,307.037 129.770 C 307.037 127.915,307.575 127.674,308.800 128.981 M287.001 139.370 C 287.798 141.017,288.041 143.497,287.441 143.868 C 285.963 144.782,283.456 139.625,284.463 137.743 C 285.012 136.718,286.034 137.373,287.001 139.370 M153.889 139.150 C 148.237 140.536,149.846 152.757,156.111 156.022 C 162.041 159.114,165.643 153.756,163.137 145.571 C 162.005 141.874,156.987 138.390,153.889 139.150 M197.018 142.829 C 196.813 143.367,196.715 143.875,196.799 143.959 C 196.883 144.043,197.129 143.603,197.345 142.982 C 197.827 141.600,197.536 141.465,197.018 142.829 M263.677 145.050 C 264.614 146.242,265.302 148.418,265.128 149.646 C 264.794 152.016,262.112 149.577,261.647 146.481 C 261.264 143.928,262.248 143.234,263.677 145.050 M322.597 146.019 C 323.997 148.314,323.881 151.070,322.407 150.504 C 321.760 150.256,320.370 147.303,320.370 146.177 C 320.370 144.406,321.562 144.322,322.597 146.019 M193.166 150.278 C 191.981 152.264,190.561 154.472,190.012 155.185 C 188.875 156.661,188.408 157.407,188.622 157.407 C 188.944 157.407,192.968 151.520,194.256 149.167 C 196.267 145.490,195.645 146.124,193.166 150.278 M241.121 150.833 C 242.854 153.652,242.872 157.239,241.149 156.316 C 239.299 155.327,238.010 149.630,239.635 149.630 C 240.078 149.630,240.682 150.118,241.121 150.833 M175.648 153.589 C 176.005 153.682,176.588 153.682,176.944 153.589 C 177.301 153.495,177.009 153.419,176.296 153.419 C 175.583 153.419,175.292 153.495,175.648 153.589 M302.685 154.816 C 303.488 156.423,303.561 158.889,302.805 158.889 C 301.550 158.889,299.940 155.359,300.514 153.864 C 300.874 152.926,301.983 153.412,302.685 154.816 M282.795 160.285 C 283.469 161.896,283.379 163.889,282.633 163.889 C 281.408 163.889,279.913 160.246,280.504 158.704 C 280.855 157.789,282.116 158.659,282.795 160.285 M72.817 161.111 C 74.247 164.172,84.328 173.063,91.275 177.389 C 95.891 180.264,104.901 184.481,105.387 183.995 C 105.490 183.893,104.528 183.433,103.250 182.972 C 92.591 179.133,77.806 168.275,72.680 160.523 C 72.422 160.133,72.484 160.398,72.817 161.111 M157.758 161.389 L 156.481 162.778 157.870 161.501 C 158.634 160.799,159.259 160.174,159.259 160.113 C 159.259 159.830,158.946 160.096,157.758 161.389 M262.540 164.168 C 263.998 167.108,262.731 169.237,261.107 166.574 C 260.136 164.981,260.077 162.114,261.019 162.288 C 261.375 162.354,262.060 163.200,262.540 164.168 M121.667 163.828 C 118.831 164.755,113.432 167.831,112.775 168.894 C 112.629 169.129,115.128 169.259,119.812 169.259 L 127.075 169.259 127.611 167.975 C 129.109 164.390,126.186 162.351,121.667 163.828 M318.492 164.309 C 319.510 165.604,319.599 168.638,318.612 168.448 C 317.447 168.224,316.108 164.386,316.914 163.580 C 317.348 163.145,317.706 163.311,318.492 164.309 M233.790 170.370 C 233.790 171.083,233.866 171.375,233.959 171.019 C 234.052 170.662,234.052 170.079,233.959 169.722 C 233.866 169.366,233.790 169.657,233.790 170.370 M300.880 171.430 C 302.220 172.911,302.468 175.926,301.251 175.926 C 300.490 175.926,299.138 172.756,299.420 171.634 C 299.689 170.561,300.048 170.511,300.880 171.430 M177.037 174.234 C 171.607 175.745,166.880 180.245,165.767 184.964 C 165.519 186.012,165.534 186.026,166.368 185.495 C 166.838 185.196,168.306 184.301,169.630 183.507 C 175.016 180.279,182.802 174.407,182.327 173.932 C 181.953 173.558,178.825 173.736,177.037 174.234 M282.432 176.851 C 282.900 179.345,281.669 179.931,280.542 177.751 C 279.970 176.645,279.812 174.386,280.274 173.924 C 280.717 173.480,282.169 175.449,282.432 176.851 M218.604 175.926 C 218.604 176.639,218.681 176.931,218.774 176.574 C 218.867 176.218,218.867 175.634,218.774 175.278 C 218.681 174.921,218.604 175.213,218.604 175.926 M227.185 182.407 C 227.186 185.463,227.243 186.664,227.313 185.076 C 227.382 183.488,227.382 180.988,227.312 179.520 C 227.242 178.053,227.185 179.352,227.185 182.407 M113.864 177.894 C 113.761 178.162,113.726 180.204,113.785 182.431 L 113.894 186.481 114.076 181.944 C 114.257 177.461,114.230 176.941,113.864 177.894 M120.648 177.669 C 121.106 177.757,121.856 177.757,122.315 177.669 C 122.773 177.581,122.398 177.508,121.481 177.508 C 120.565 177.508,120.190 177.581,120.648 177.669 M180.680 180.681 C 178.712 182.242,175.514 184.499,173.575 185.698 C 169.374 188.294,169.552 187.801,169.507 197.027 C 169.472 204.051,169.191 203.564,172.819 202.757 C 176.530 201.931,182.956 202.159,186.034 203.226 L 188.178 203.969 189.159 202.297 C 190.800 199.495,191.111 197.499,191.111 189.752 C 191.111 180.028,190.910 179.194,188.376 178.395 C 185.171 177.385,184.637 177.543,180.680 180.681 M314.238 178.971 C 314.866 179.867,315.030 182.222,314.465 182.222 C 313.821 182.222,312.963 180.588,312.963 179.362 C 312.963 177.949,313.424 177.808,314.238 178.971 M149.259 181.638 L 149.259 184.387 147.963 184.815 L 146.667 185.243 146.667 188.918 C 146.667 190.939,146.808 192.593,146.982 192.593 C 147.155 192.593,147.806 192.415,148.429 192.198 L 149.562 191.803 149.571 185.346 C 149.576 181.795,149.508 178.889,149.420 178.889 C 149.332 178.889,149.259 180.126,149.259 181.638 M235.556 184.224 L 235.556 189.189 236.852 190.741 C 238.411 192.607,238.541 193.107,237.109 191.736 C 235.358 190.058,234.882 190.759,236.481 192.660 C 237.641 194.038,237.636 194.268,236.423 195.392 C 235.152 196.570,235.407 196.769,237.434 196.185 C 239.335 195.637,239.821 193.981,238.727 191.786 C 237.997 190.325,237.980 190.416,239.074 190.000 C 239.998 189.649,240.000 189.638,240.000 184.685 L 240.000 179.722 238.843 179.491 C 238.206 179.363,237.206 179.259,236.620 179.259 L 235.556 179.259 235.556 184.224 M202.679 181.111 C 202.679 181.824,202.755 182.116,202.848 181.759 C 202.941 181.403,202.941 180.819,202.848 180.463 C 202.755 180.106,202.679 180.398,202.679 181.111 M299.200 183.536 C 299.717 184.671,299.768 186.667,299.280 186.667 C 298.636 186.667,297.778 185.033,297.778 183.806 C 297.778 182.332,298.581 182.179,299.200 183.536 M142.323 184.815 C 142.323 185.731,142.395 186.106,142.484 185.648 C 142.572 185.190,142.572 184.440,142.484 183.981 C 142.395 183.523,142.323 183.898,142.323 184.815 M132.083 186.930 C 132.026 186.986,128.868 187.043,125.064 187.055 L 118.148 187.077 118.148 189.835 L 118.148 192.593 120.185 192.593 L 122.222 192.593 122.222 190.000 L 122.222 187.407 127.963 187.407 C 131.290 187.407,133.704 187.261,133.704 187.060 C 133.704 186.758,132.362 186.650,132.083 186.930 M310.000 189.303 C 310.000 189.710,309.833 189.941,309.630 189.815 C 309.426 189.689,309.259 189.253,309.259 188.845 C 309.259 188.438,309.426 188.207,309.630 188.333 C 309.833 188.459,310.000 188.896,310.000 189.303 M235.567 193.426 C 235.561 193.986,235.712 194.444,235.904 194.444 C 236.550 194.444,236.647 193.818,236.111 193.110 C 235.607 192.444,235.578 192.461,235.567 193.426 M293.463 197.037 C 293.463 198.769,293.527 199.477,293.605 198.611 C 293.682 197.745,293.682 196.329,293.605 195.463 C 293.527 194.597,293.463 195.306,293.463 197.037 M239.333 195.945 C 239.083 196.345,238.131 196.872,237.217 197.117 C 235.807 197.494,234.684 198.889,235.790 198.889 C 237.271 198.889,239.045 197.865,239.516 196.738 C 240.115 195.304,240.012 194.858,239.333 195.945 M149.320 198.763 C 149.228 203.343,146.119 205.516,139.179 205.850 C 134.671 206.068,134.621 206.154,137.324 209.044 C 141.287 213.281,142.292 215.363,142.681 220.151 C 143.104 225.352,143.195 225.414,145.375 221.972 C 147.476 218.656,151.759 213.959,152.443 214.222 C 152.743 214.337,152.667 213.976,152.229 213.220 C 150.684 210.548,149.920 207.018,149.646 201.296 C 149.456 197.330,149.363 196.606,149.320 198.763 M113.872 204.911 C 113.773 205.167,113.739 210.626,113.796 217.040 L 113.900 228.704 113.987 216.790 C 114.054 207.672,114.183 204.833,114.537 204.690 C 114.900 204.543,114.897 204.497,114.525 204.474 C 114.264 204.458,113.970 204.654,113.872 204.911 M285.347 219.722 L 284.259 220.926 285.463 219.838 C 286.125 219.240,286.667 218.698,286.667 218.634 C 286.667 218.348,286.361 218.600,285.347 219.722 M150.105 252.013 C 145.507 254.070,152.276 261.955,159.113 262.504 C 161.841 262.723,162.963 261.955,162.963 259.870 C 162.963 255.591,154.149 250.205,150.105 252.013 M225.957 283.563 C 223.161 287.118,232.264 294.387,237.649 292.900 C 243.103 291.394,235.317 282.593,228.532 282.593 C 227.019 282.593,226.595 282.752,225.957 283.563 " stroke="none" fill="#e45961" fill-rule="evenodd"></path><path id="path1" d="M189.591 63.429 C 186.514 65.982,186.427 66.097,187.055 66.771 C 187.413 67.156,188.737 69.369,189.997 71.689 C 205.607 100.447,206.022 133.177,191.044 154.234 L 188.809 157.378 186.587 156.256 C 172.572 149.181,153.633 158.753,150.170 174.662 C 149.500 177.737,149.376 202.853,150.013 206.366 C 152.836 221.939,170.634 232.185,184.873 226.435 C 193.182 223.079,200.020 215.461,202.118 207.222 C 203.095 203.382,203.078 179.862,202.095 175.218 C 201.074 170.401,198.859 166.029,195.950 163.088 L 194.791 161.917 196.685 159.385 C 208.795 143.192,212.636 122.758,208.155 98.368 C 206.004 86.663,200.209 71.486,194.458 62.500 C 193.068 60.329,193.405 60.264,189.591 63.429 M260.000 62.030 C 260.000 62.640,261.581 63.174,262.219 62.780 C 262.515 62.597,262.508 62.382,262.195 62.004 C 261.613 61.304,260.000 61.323,260.000 62.030 M302.356 81.296 C 302.032 82.141,302.486 82.963,303.276 82.963 C 303.665 82.963,304.191 82.713,304.444 82.407 C 305.024 81.709,304.345 80.741,303.276 80.741 C 302.888 80.741,302.473 80.991,302.356 81.296 M149.630 100.556 C 149.630 100.861,149.796 101.111,150.000 101.111 C 150.204 101.111,150.370 100.861,150.370 100.556 C 150.370 100.250,150.204 100.000,150.000 100.000 C 149.796 100.000,149.630 100.250,149.630 100.556 M318.601 101.688 C 316.966 102.833,317.863 104.982,319.878 104.749 C 321.430 104.570,321.982 102.782,320.785 101.813 C 319.736 100.964,319.642 100.958,318.601 101.688 M146.144 102.084 C 145.885 102.760,146.513 103.704,147.222 103.704 C 147.931 103.704,148.560 102.760,148.300 102.084 C 148.173 101.753,147.688 101.481,147.222 101.481 C 146.757 101.481,146.272 101.753,146.144 102.084 M271.279 119.790 C 270.828 120.477,270.782 120.867,271.084 121.432 C 271.986 123.116,274.444 122.656,274.444 120.802 C 274.444 118.811,272.357 118.144,271.279 119.790 M68.812 161.584 C 65.563 164.208,65.532 164.293,67.028 166.469 C 72.713 174.732,89.477 186.489,101.852 190.892 L 105.370 192.143 105.466 210.331 L 105.563 228.519 109.633 228.519 L 113.704 228.519 113.704 216.689 C 113.704 208.757,113.833 204.779,114.096 204.616 C 115.054 204.024,119.472 204.349,120.990 205.123 C 124.655 206.993,126.212 210.449,126.387 217.104 C 126.625 226.079,132.771 232.202,139.359 230.028 C 142.184 229.096,143.341 225.926,140.856 225.926 C 137.608 225.926,134.454 219.139,134.447 212.134 C 134.443 208.079,132.925 204.994,128.678 200.407 C 126.270 197.806,126.286 197.787,131.111 197.407 C 136.739 196.965,140.855 194.586,141.873 191.186 C 142.629 188.663,142.156 178.732,141.159 176.208 C 139.589 172.229,134.965 168.578,132.113 169.065 C 131.257 169.212,124.931 169.304,118.056 169.272 L 105.556 169.212 105.556 176.643 C 105.556 181.160,105.416 184.074,105.199 184.074 C 103.954 184.074,95.453 179.990,91.251 177.374 C 83.886 172.788,73.635 163.609,72.572 160.648 C 71.949 158.913,72.196 158.851,68.812 161.584 M220.185 160.388 C 215.093 160.525,210.551 160.661,210.093 160.689 C 209.271 160.740,209.259 160.815,209.259 165.833 L 209.258 170.926 213.981 170.722 C 216.578 170.610,218.728 170.527,218.759 170.537 C 219.270 170.710,218.955 217.686,218.428 219.965 C 217.010 226.096,214.298 229.809,208.483 233.582 C 205.358 235.610,205.193 235.783,205.363 236.843 C 205.462 237.459,205.728 239.630,205.954 241.667 C 206.180 243.704,206.391 245.391,206.423 245.417 C 206.455 245.442,208.398 244.542,210.741 243.418 C 218.452 239.715,223.221 233.223,225.767 222.963 L 226.732 219.074 227.034 195.000 C 227.201 181.759,227.353 170.920,227.372 170.912 C 227.392 170.905,228.782 171.017,230.461 171.161 C 234.213 171.484,233.822 172.104,234.008 165.544 L 234.166 160.000 231.805 160.070 C 230.507 160.108,225.278 160.251,220.185 160.388 M243.311 167.522 C 240.563 172.003,240.033 175.789,240.027 190.975 C 240.019 209.556,240.899 212.889,247.546 219.444 C 258.941 230.682,273.398 230.989,284.722 220.235 C 291.496 213.803,293.333 208.706,293.333 196.353 L 293.333 189.342 292.018 189.095 C 291.295 188.959,288.711 188.210,286.277 187.431 L 281.852 186.014 281.777 188.285 C 281.736 189.534,281.714 191.056,281.729 191.667 C 281.927 199.936,279.295 204.884,272.930 208.205 C 266.395 211.616,256.855 208.598,253.254 201.980 C 250.062 196.117,250.837 180.013,254.532 175.397 C 255.624 174.033,255.654 173.917,255.014 173.545 C 254.639 173.327,252.015 171.616,249.184 169.744 L 244.036 166.341 243.311 167.522 M179.074 169.763 C 183.850 171.041,188.062 174.355,189.861 178.251 L 190.926 180.556 190.926 189.637 L 190.926 198.719 189.711 201.187 C 184.516 211.741,169.429 212.518,163.127 202.557 C 160.157 197.861,160.171 181.383,163.149 176.665 C 166.382 171.544,173.767 168.344,179.074 169.763 M130.839 178.981 C 133.092 181.189,133.912 183.332,133.746 186.574 C 133.704 187.401,133.657 187.407,127.963 187.407 L 122.222 187.407 122.222 189.956 L 122.222 192.504 118.309 192.771 C 116.157 192.918,114.332 192.974,114.254 192.896 C 114.176 192.818,114.062 189.385,114.000 185.268 L 113.889 177.782 120.741 177.560 C 124.509 177.438,127.662 177.270,127.747 177.187 C 128.206 176.740,129.057 177.234,130.839 178.981 " stroke="none" fill="#fbf5f5" fill-rule="evenodd"></path><path id="path2" d="M193.994 60.018 C 193.416 60.359,193.478 60.582,194.661 62.431 C 208.768 84.484,213.954 117.802,206.788 140.338 C 205.058 145.777,201.095 153.639,197.739 158.284 L 195.100 161.938 196.276 163.098 L 197.452 164.259 198.366 163.148 C 217.006 140.483,217.955 102.205,200.714 68.519 C 196.552 60.388,195.538 59.105,193.994 60.018 M176.543 77.284 C 175.502 78.325,177.346 82.037,178.904 82.037 C 179.734 82.037,179.812 81.897,179.783 80.458 C 179.737 78.226,177.648 76.179,176.543 77.284 M164.321 99.136 C 163.468 99.989,164.576 103.351,165.953 104.089 C 167.425 104.876,168.299 103.185,167.361 101.365 C 166.407 99.513,164.986 98.471,164.321 99.136 M316.920 100.377 C 311.202 102.093,310.743 109.886,316.218 112.308 C 322.750 115.197,328.084 106.344,322.594 101.725 C 320.866 100.271,318.861 99.794,316.920 100.377 M321.037 101.556 C 322.713 103.232,320.208 106.159,318.455 104.572 C 317.058 103.308,317.804 101.111,319.630 101.111 C 320.159 101.111,320.793 101.311,321.037 101.556 M148.326 103.061 C 148.096 103.582,147.653 103.878,147.129 103.859 C 146.141 103.825,146.143 103.814,146.859 105.198 C 147.777 106.974,150.017 107.148,149.984 105.441 C 149.954 103.822,148.750 102.095,148.326 103.061 M307.308 106.520 C 307.185 106.642,307.240 107.153,307.431 107.655 C 308.389 110.174,307.249 114.444,305.619 114.444 C 305.240 114.444,303.962 114.111,302.778 113.704 C 298.862 112.357,298.060 112.661,295.888 116.316 C 293.155 120.917,291.667 120.826,287.976 115.833 C 286.984 114.492,285.926 113.994,285.926 114.869 C 285.926 115.370,288.105 118.088,289.762 119.657 C 292.288 122.046,294.345 121.382,296.652 117.433 C 298.650 114.012,299.044 113.821,302.125 114.788 C 307.149 116.365,308.894 115.206,308.884 110.296 C 308.876 106.875,308.310 105.518,307.308 106.520 M174.032 110.511 C 169.512 112.126,167.143 117.811,168.597 123.548 L 169.074 125.429 170.292 125.108 C 171.466 124.798,171.500 124.737,171.233 123.412 C 169.505 114.813,175.038 109.951,181.605 114.297 L 183.079 115.273 183.754 114.396 C 184.646 113.234,184.629 113.145,183.326 112.217 C 180.620 110.290,176.676 109.566,174.032 110.511 M269.923 117.757 C 264.965 119.332,263.851 126.141,268.083 129.008 C 273.924 132.965,280.863 126.169,276.934 120.339 C 275.474 118.173,272.298 117.003,269.923 117.757 M274.074 119.259 C 275.371 120.556,274.560 122.593,272.747 122.593 C 270.857 122.593,270.036 120.165,271.564 119.095 C 272.652 118.333,273.183 118.368,274.074 119.259 M133.904 124.396 C 133.483 125.722,135.330 128.889,136.524 128.889 C 137.755 128.889,137.819 126.433,136.632 124.766 C 135.751 123.528,134.245 123.324,133.904 124.396 M116.271 126.512 C 115.241 127.753,117.923 132.122,119.222 131.319 C 120.268 130.673,119.248 127.083,117.798 126.307 C 116.878 125.815,116.846 125.819,116.271 126.512 M103.966 148.379 C 102.912 149.434,104.738 153.148,106.311 153.148 C 107.055 153.148,107.242 152.941,107.332 152.025 C 107.527 150.033,105.024 147.322,103.966 148.379 M119.074 149.484 C 115.165 151.610,113.499 155.874,114.405 161.438 C 114.864 164.257,114.772 164.138,116.256 163.841 C 117.353 163.622,117.426 163.518,117.200 162.489 C 115.350 154.070,120.217 149.103,126.881 152.608 C 129.007 153.727,129.028 153.729,129.748 153.009 C 132.116 150.641,122.678 147.524,119.074 149.484 M86.188 150.972 C 85.134 152.027,86.960 155.741,88.533 155.741 C 89.277 155.741,89.465 155.534,89.554 154.618 C 89.750 152.625,87.246 149.914,86.188 150.972 M64.732 165.403 C 62.456 170.399,86.738 189.197,102.130 194.355 L 105.556 195.503 105.556 193.870 C 105.556 192.395,105.457 192.212,104.537 191.988 C 98.435 190.503,88.418 185.259,80.370 179.338 C 75.522 175.771,66.478 166.963,66.094 165.435 C 65.780 164.184,65.293 164.173,64.732 165.403 M234.074 168.002 L 234.074 171.560 230.802 171.301 L 227.529 171.042 227.283 187.804 C 227.148 197.023,227.033 207.664,227.029 211.450 C 227.010 226.878,221.081 239.019,211.552 243.145 L 209.955 243.836 210.207 246.270 C 210.576 249.832,210.413 249.789,215.103 247.572 C 218.392 246.017,219.797 245.101,221.718 243.262 L 224.156 240.926 225.124 242.222 C 231.474 250.728,239.535 255.983,245.393 255.436 C 251.714 254.845,267.663 247.209,280.370 238.688 C 282.847 237.027,282.852 235.806,280.389 233.203 L 278.510 231.215 280.112 230.603 C 284.418 228.959,291.189 223.218,293.650 219.125 C 296.988 213.573,297.747 209.820,297.765 198.787 L 297.778 190.722 296.891 190.385 C 296.404 190.200,295.384 189.932,294.625 189.790 L 293.246 189.531 293.500 193.932 C 294.338 208.391,290.398 217.385,280.370 223.905 C 271.176 229.882,261.466 229.674,251.903 223.295 L 250.185 222.149 251.624 223.641 C 252.607 224.660,252.986 225.331,252.822 225.759 C 252.636 226.243,252.744 226.343,253.292 226.200 C 253.792 226.069,254.520 226.538,255.742 227.779 L 257.480 229.544 253.409 229.351 C 248.746 229.130,243.755 229.658,238.185 230.961 C 236.066 231.457,234.268 231.799,234.190 231.721 C 233.515 231.046,234.990 228.172,237.145 225.962 C 239.572 223.473,242.148 220.000,241.566 220.000 C 240.723 220.000,237.152 223.163,236.232 224.725 L 235.198 226.481 235.192 223.470 C 235.183 219.464,237.802 216.834,242.556 216.074 L 244.061 215.833 243.432 214.769 C 242.539 213.257,237.332 214.320,236.134 216.259 C 235.638 217.062,235.185 216.644,235.185 215.384 C 235.185 214.338,235.680 213.503,237.876 210.847 C 240.300 207.914,240.547 207.468,240.376 206.334 L 240.185 205.075 237.816 208.278 C 236.513 210.040,235.400 211.481,235.344 211.481 C 235.288 211.481,235.338 208.648,235.455 205.185 C 235.573 201.722,235.554 198.889,235.415 198.889 C 235.275 198.889,234.563 199.139,233.832 199.444 C 231.884 200.258,231.481 200.163,231.481 198.889 C 231.481 197.789,231.502 197.778,233.519 197.778 C 235.309 197.778,235.556 197.688,235.556 197.037 C 235.556 196.386,235.309 196.296,233.519 196.296 C 231.575 196.296,231.481 196.252,231.481 195.340 L 231.481 194.384 232.729 195.155 C 234.314 196.135,235.556 196.169,235.556 195.234 C 235.556 194.725,235.200 194.484,234.213 194.324 C 232.222 194.000,231.481 193.151,231.481 191.190 L 231.481 189.532 232.870 189.730 C 233.634 189.838,234.568 190.051,234.945 190.203 C 235.481 190.418,235.602 190.331,235.500 189.800 C 235.417 189.368,234.700 188.891,233.518 188.483 L 231.667 187.844 231.565 181.518 L 231.464 175.192 234.767 175.426 L 238.071 175.661 238.202 172.368 C 238.274 170.556,238.277 168.032,238.208 166.759 L 238.082 164.444 236.078 164.444 L 234.074 164.444 234.074 168.002 M200.059 168.777 C 203.671 176.183,204.348 202.266,201.143 210.576 C 194.975 226.570,177.098 232.685,162.222 223.891 L 160.556 222.905 162.862 225.139 C 171.662 233.662,184.512 234.739,194.600 227.798 C 196.448 226.527,196.621 226.549,199.588 228.424 C 201.309 229.512,201.656 229.614,202.108 229.162 C 202.612 228.658,200.913 227.655,197.641 226.525 C 197.052 226.321,197.363 225.853,199.722 223.384 C 206.910 215.860,208.137 209.729,207.037 186.852 C 206.562 176.977,204.901 172.041,200.647 167.859 L 198.657 165.902 200.059 168.777 M174.444 169.654 C 168.862 170.552,163.863 174.430,161.948 179.348 C 161.010 181.757,161.014 197.169,161.954 199.815 C 162.745 202.044,164.692 204.784,166.298 205.927 L 167.471 206.763 166.616 205.141 C 165.836 203.660,165.749 202.945,165.623 196.969 L 165.484 190.419 167.464 189.418 C 168.553 188.867,169.861 188.094,170.370 187.701 C 170.880 187.307,173.009 185.856,175.101 184.476 C 178.633 182.147,181.978 179.692,185.611 176.763 C 186.839 175.772,187.228 175.632,187.837 175.957 C 188.810 176.478,188.264 175.375,186.978 174.222 C 183.179 170.815,178.294 169.035,174.444 169.654 M213.580 170.988 C 213.444 171.123,213.333 172.026,213.333 172.993 L 213.333 174.752 215.833 174.892 C 218.995 175.070,218.889 175.144,218.889 172.756 L 218.889 170.741 216.358 170.741 C 214.966 170.741,213.716 170.852,213.580 170.988 M182.948 173.981 C 182.885 175.153,166.339 186.463,165.669 185.793 C 165.260 185.383,166.341 182.466,167.611 180.556 C 168.653 178.986,169.660 178.070,173.204 175.469 C 174.955 174.183,183.003 172.955,182.948 173.981 M254.881 175.326 C 252.273 178.072,251.520 181.257,251.542 189.444 C 251.571 200.071,253.249 204.192,258.823 207.326 L 260.185 208.092 260.185 198.478 C 260.185 187.396,259.901 188.162,264.006 188.154 C 266.413 188.149,266.696 188.221,266.529 188.796 C 266.426 189.153,265.993 191.089,265.568 193.098 C 264.691 197.236,262.409 206.127,261.839 207.627 C 261.392 208.803,261.401 208.817,262.842 209.105 L 263.962 209.330 265.170 204.943 C 265.834 202.530,267.046 197.590,267.862 193.966 C 269.814 185.297,270.191 185.806,261.963 185.982 L 255.958 186.111 256.168 185.185 C 256.643 183.091,258.188 180.311,259.739 178.760 L 261.389 177.110 258.684 175.640 L 255.978 174.170 254.881 175.326 M141.248 175.625 C 142.153 178.561,142.341 180.093,142.357 184.630 C 142.381 191.435,142.128 193.477,141.238 193.655 C 140.863 193.730,139.926 194.290,139.156 194.898 C 137.069 196.549,134.527 197.361,130.575 197.638 C 128.629 197.775,127.037 197.951,127.037 198.029 C 127.037 198.107,127.968 199.268,129.106 200.609 C 133.376 205.643,134.264 207.597,134.575 212.643 C 134.910 218.071,136.760 223.590,138.776 225.176 C 140.458 226.499,140.738 226.168,139.985 223.746 C 139.263 221.428,138.537 216.625,138.572 214.396 C 138.610 211.941,136.350 208.017,132.470 203.801 C 130.774 201.958,130.781 201.953,135.370 201.764 C 139.324 201.602,142.026 200.547,144.270 198.289 C 145.337 197.216,146.173 196.756,147.572 196.475 L 149.444 196.098 149.556 194.160 C 149.677 192.069,149.660 192.053,147.868 192.567 L 146.667 192.911 146.613 189.882 C 146.471 181.793,146.061 180.306,143.105 177.173 C 141.977 175.978,141.142 175.281,141.248 175.625 M118.981 177.684 L 114.074 177.799 114.074 185.196 L 114.074 192.593 116.111 192.593 L 118.148 192.593 118.148 187.262 L 118.148 181.932 125.154 181.799 C 133.316 181.645,133.364 181.624,130.857 179.232 L 128.944 177.407 126.416 177.488 C 125.026 177.533,121.681 177.621,118.981 177.684 M238.992 190.126 C 238.171 190.570,238.171 190.572,238.882 191.657 C 239.677 192.868,240.164 192.385,239.935 190.613 C 239.827 189.773,239.735 189.726,238.992 190.126 M234.297 191.790 C 234.179 191.981,234.423 192.227,234.840 192.336 C 235.302 192.457,235.544 192.374,235.461 192.124 C 235.275 191.566,234.562 191.362,234.297 191.790 M114.542 204.746 C 114.198 204.965,114.060 207.970,113.987 216.870 L 113.889 228.704 111.944 228.816 L 110.000 228.928 110.000 230.705 L 110.000 232.483 113.056 232.721 C 114.736 232.851,116.569 232.960,117.130 232.961 L 118.148 232.963 118.148 220.949 L 118.148 208.934 119.869 208.676 C 120.815 208.534,122.310 208.583,123.190 208.785 C 124.936 209.184,124.938 209.168,123.439 207.169 C 121.890 205.105,116.352 203.597,114.542 204.746 M141.852 228.503 C 141.852 230.050,136.923 230.892,133.994 229.847 C 132.270 229.231,132.518 229.948,134.689 231.855 C 138.470 235.174,144.842 235.542,145.902 232.502 C 146.592 230.523,146.439 230.151,144.918 230.108 C 143.916 230.079,143.309 229.800,142.696 229.088 C 142.232 228.548,141.852 228.285,141.852 228.503 M206.173 229.506 C 205.588 230.091,206.072 231.373,207.247 232.350 L 208.515 233.403 210.170 232.357 L 211.824 231.310 209.566 230.285 C 207.237 229.228,206.598 229.081,206.173 229.506 M263.122 233.176 C 267.723 235.607,270.958 236.475,275.419 236.474 L 279.171 236.473 278.011 237.258 C 274.296 239.775,265.281 244.928,260.000 247.554 C 245.397 254.816,240.663 254.682,232.669 246.783 L 229.226 243.381 230.603 240.672 C 231.360 239.182,232.415 236.797,232.947 235.371 L 233.915 232.779 236.310 232.301 C 244.827 230.602,259.134 231.069,263.122 233.176 M248.141 236.999 C 250.446 239.978,251.699 241.011,255.099 242.734 C 257.886 244.147,257.835 244.001,254.406 240.794 C 251.425 238.006,246.566 234.074,246.101 234.074 C 245.979 234.074,246.897 235.390,248.141 236.999 M166.787 236.089 C 162.328 237.483,156.787 243.655,156.092 248.002 C 155.594 251.113,158.409 251.266,159.433 248.184 C 160.733 244.267,164.614 240.197,167.933 239.268 C 173.303 237.764,175.383 241.739,173.277 249.478 C 171.380 256.444,173.793 258.473,176.068 251.824 C 179.786 240.955,175.339 233.415,166.787 236.089 M168.782 264.358 C 165.799 267.655,164.197 275.901,165.399 281.775 C 169.638 302.485,195.224 312.271,211.578 299.436 C 216.569 295.518,220.856 287.655,219.195 285.463 C 218.791 284.930,201.496 277.018,176.024 265.715 C 171.214 263.580,169.736 263.304,168.782 264.358 M231.579 264.823 C 227.551 267.133,222.427 275.390,224.028 276.991 C 225.189 278.152,226.069 277.596,227.640 274.710 C 231.300 267.988,234.454 265.804,237.670 267.765 C 240.978 269.782,241.647 276.522,239.092 282.101 C 237.303 286.011,240.116 287.495,242.057 283.665 C 247.703 272.522,240.558 259.673,231.579 264.823 M174.304 272.408 C 182.462 274.473,189.665 279.212,194.345 285.592 C 195.830 287.615,195.920 287.672,198.026 287.895 C 202.900 288.412,212.842 292.122,213.251 293.577 C 213.477 294.378,209.193 298.100,206.339 299.582 C 188.459 308.868,165.432 293.993,167.821 274.698 C 168.291 270.906,168.326 270.894,174.304 272.408 " stroke="none" fill="#4d402a" fill-rule="evenodd"></path><path id="path3" d="M184.619 67.696 C 184.002 68.250,182.752 69.313,181.841 70.058 C 180.930 70.803,178.999 72.387,177.550 73.577 C 170.831 79.095,169.291 80.355,166.302 82.778 C 158.252 89.304,152.096 94.310,148.519 97.239 C 146.380 98.991,143.463 101.361,142.037 102.507 C 140.611 103.653,139.361 104.686,139.259 104.804 C 139.157 104.921,137.907 105.930,136.481 107.046 C 135.056 108.161,133.472 109.437,132.963 109.880 C 132.454 110.324,131.338 111.240,130.483 111.917 C 129.629 112.594,126.472 115.148,123.468 117.593 C 115.919 123.735,109.920 128.590,106.852 131.039 C 105.426 132.177,104.176 133.205,104.074 133.322 C 103.972 133.440,102.722 134.447,101.296 135.560 C 99.870 136.673,98.517 137.760,98.289 137.976 C 97.921 138.325,91.038 143.901,76.908 155.296 C 71.692 159.503,71.918 159.167,73.084 160.991 C 77.877 168.484,99.517 183.704,105.379 183.704 C 105.476 183.704,105.556 180.454,105.556 176.481 L 105.556 169.259 108.881 169.259 C 112.176 169.259,112.225 169.246,114.123 167.809 C 121.682 162.088,129.745 161.984,127.714 167.633 L 127.096 169.351 130.678 169.101 C 134.189 168.856,134.292 168.872,135.926 169.920 C 137.469 170.910,140.369 173.613,140.371 174.063 C 140.372 174.171,141.437 175.377,142.738 176.742 C 145.028 179.145,146.287 181.531,146.302 183.492 C 146.312 184.900,146.777 185.237,148.080 184.783 C 149.219 184.386,149.259 184.300,149.259 182.269 C 149.259 161.757,169.203 147.617,186.392 155.943 C 187.631 156.543,188.667 156.993,188.695 156.943 C 188.723 156.893,189.254 156.185,189.875 155.370 C 191.227 153.595,195.209 147.006,196.029 145.185 C 197.669 141.546,198.148 140.376,198.148 140.015 C 198.148 139.798,198.308 139.330,198.502 138.976 C 199.850 136.530,201.376 127.366,201.662 120.000 L 201.885 114.259 201.078 115.741 C 196.444 124.242,181.852 130.050,181.852 123.394 C 181.852 117.215,196.661 108.345,200.769 112.063 C 201.738 112.940,201.732 111.394,200.739 104.557 C 199.044 92.882,195.469 82.192,189.944 72.276 C 188.752 70.138,187.778 68.277,187.778 68.141 C 187.778 66.739,185.968 66.485,184.619 67.696 M178.885 77.958 C 180.177 79.334,180.189 82.037,178.904 82.037 C 177.346 82.037,175.502 78.325,176.543 77.284 C 177.049 76.778,178.045 77.065,178.885 77.958 M166.185 99.722 C 167.788 101.482,168.220 103.246,167.246 104.054 C 166.092 105.012,164.074 102.719,164.074 100.450 C 164.074 98.662,164.946 98.361,166.185 99.722 M150.616 100.210 C 150.925 101.015,150.141 101.771,149.580 101.210 C 149.106 100.736,149.400 99.630,150.000 99.630 C 150.216 99.630,150.494 99.891,150.616 100.210 M149.091 102.997 C 150.138 105.063,150.246 106.225,149.421 106.542 C 147.557 107.257,144.876 102.902,146.302 101.475 C 147.291 100.486,148.021 100.884,149.091 102.997 M307.037 106.262 C 307.037 106.446,307.347 106.516,307.727 106.417 C 308.595 106.190,308.877 107.134,308.884 110.296 C 308.894 115.206,307.149 116.365,302.125 114.788 C 299.044 113.821,298.650 114.012,296.652 117.433 C 294.345 121.382,292.288 122.046,289.762 119.657 C 288.105 118.088,285.926 115.370,285.926 114.869 C 285.926 113.994,286.984 114.492,287.976 115.833 C 291.667 120.826,293.155 120.917,295.888 116.316 C 298.060 112.661,298.862 112.357,302.778 113.704 C 305.677 114.701,306.184 114.646,307.041 113.241 C 307.806 111.986,308.008 109.031,307.426 107.593 C 307.252 107.163,307.205 107.874,307.312 109.283 C 307.653 113.750,306.634 114.660,302.778 113.333 C 298.984 112.028,297.639 112.504,295.727 115.832 C 293.113 120.379,291.439 120.272,288.085 115.347 C 287.181 114.018,286.053 113.683,285.688 114.634 C 285.406 115.367,288.255 119.060,290.185 120.465 C 292.828 122.388,294.771 121.484,297.305 117.153 C 298.944 114.350,299.314 114.197,302.084 115.171 C 305.900 116.512,307.477 116.095,308.884 113.373 C 309.438 112.301,309.463 108.355,308.925 106.944 C 308.560 105.987,307.037 105.436,307.037 106.262 M180.187 110.710 C 183.925 112.024,184.846 112.975,183.754 114.396 L 183.079 115.273 181.605 114.297 C 175.038 109.951,169.505 114.813,171.233 123.412 C 171.500 124.737,171.466 124.798,170.292 125.108 L 169.074 125.429 168.597 123.548 C 166.378 114.794,172.503 108.009,180.187 110.710 M136.632 124.766 C 137.819 126.433,137.755 128.889,136.524 128.889 C 135.330 128.889,133.483 125.722,133.904 124.396 C 134.245 123.324,135.751 123.528,136.632 124.766 M117.798 126.307 C 119.248 127.083,120.268 130.673,119.222 131.319 C 117.923 132.122,115.241 127.753,116.271 126.512 C 116.846 125.819,116.878 125.815,117.798 126.307 M158.148 140.022 C 163.874 142.990,166.094 152.115,162.021 155.941 C 159.220 158.572,153.200 155.534,151.472 150.618 C 148.588 142.413,152.078 136.875,158.148 140.022 M106.579 149.618 C 107.742 151.347,107.605 153.148,106.311 153.148 C 104.738 153.148,102.912 149.434,103.966 148.379 C 104.532 147.814,105.756 148.394,106.579 149.618 M127.898 150.134 C 130.365 151.344,130.775 151.982,129.748 153.009 C 129.028 153.729,129.007 153.727,126.881 152.608 C 120.217 149.103,115.350 154.070,117.200 162.489 C 117.426 163.518,117.353 163.622,116.256 163.841 C 114.772 164.138,114.864 164.257,114.405 161.438 C 112.830 151.763,119.621 146.074,127.898 150.134 M88.801 152.210 C 89.964 153.940,89.827 155.741,88.533 155.741 C 86.960 155.741,85.134 152.027,86.188 150.972 C 86.754 150.407,87.979 150.987,88.801 152.210 M237.295 164.339 C 237.923 164.455,238.141 164.801,238.252 165.856 L 238.397 167.222 238.365 165.741 C 238.337 164.426,238.229 164.255,237.407 164.224 C 236.644 164.194,236.624 164.214,237.295 164.339 M238.382 169.352 C 238.259 169.810,238.156 171.418,238.153 172.926 L 238.148 175.666 234.806 175.429 L 231.464 175.192 231.565 181.518 L 231.667 187.844 233.518 188.483 C 234.700 188.891,235.417 189.368,235.500 189.800 C 235.602 190.331,235.481 190.418,234.945 190.203 C 234.568 190.051,233.634 189.838,232.870 189.730 L 231.481 189.532 231.481 191.190 C 231.481 193.151,232.222 194.000,234.213 194.324 C 235.841 194.588,236.298 192.844,234.751 192.271 C 234.146 192.047,234.068 191.899,234.437 191.671 C 234.918 191.374,235.510 191.922,236.339 193.431 C 236.606 193.916,236.551 194.142,236.127 194.304 C 235.813 194.425,235.556 194.839,235.556 195.225 C 235.556 196.170,234.321 196.139,232.729 195.155 L 231.481 194.384 231.481 195.340 C 231.481 196.738,234.935 196.771,236.427 195.388 C 237.636 194.268,237.641 194.038,236.481 192.660 C 234.882 190.759,235.358 190.058,237.109 191.736 C 238.541 193.107,238.411 192.607,236.852 190.741 L 235.556 189.189 235.556 184.171 L 235.556 179.154 237.726 179.381 L 239.896 179.607 240.133 177.052 C 240.264 175.647,240.847 173.152,241.429 171.508 L 242.486 168.519 240.546 168.519 C 238.846 168.519,238.577 168.622,238.382 169.352 M204.274 173.126 C 206.319 177.289,206.683 179.110,207.054 187.037 C 208.118 209.805,206.893 215.878,199.722 223.384 C 197.363 225.853,197.052 226.321,197.641 226.525 C 200.913 227.655,202.612 228.658,202.108 229.162 C 201.656 229.614,201.309 229.512,199.588 228.424 C 196.621 226.549,196.448 226.527,194.600 227.798 C 184.382 234.828,171.615 233.657,162.511 224.856 C 161.118 223.509,159.093 221.657,158.011 220.741 C 156.304 219.294,154.671 217.388,152.775 214.630 C 152.081 213.620,148.781 216.830,145.700 221.512 C 143.132 225.414,143.109 225.404,142.681 220.151 C 142.290 215.337,141.220 213.136,137.317 209.114 C 135.977 207.733,135.491 207.365,136.068 208.169 C 137.784 210.555,138.480 212.653,138.681 216.037 C 139.017 221.711,140.289 226.119,141.482 225.741 C 142.146 225.530,142.222 225.674,142.222 227.140 C 142.222 229.129,143.081 230.056,144.976 230.109 C 146.434 230.151,146.585 230.542,145.902 232.502 C 145.208 234.491,141.106 235.226,137.981 233.920 C 136.386 233.254,136.330 233.500,137.740 234.982 L 138.814 236.111 137.912 239.630 C 131.758 263.624,136.485 303.199,147.446 319.444 C 151.242 325.071,158.028 326.425,169.815 323.908 C 177.087 322.355,175.997 321.855,183.399 330.143 C 191.559 339.281,193.878 340.612,201.055 340.280 C 208.313 339.945,216.379 336.124,232.222 325.518 C 263.301 304.711,282.361 267.803,272.916 246.717 C 272.335 245.421,271.950 244.216,272.059 244.039 C 272.168 243.862,270.791 244.570,268.999 245.612 C 255.334 253.559,246.058 256.568,240.463 254.868 C 236.256 253.591,229.378 247.920,225.124 242.222 L 224.156 240.926 221.718 243.262 C 219.801 245.098,218.386 246.021,215.103 247.577 C 210.378 249.815,210.584 249.873,210.181 246.204 C 209.911 243.747,209.992 243.791,207.941 244.993 L 206.373 245.912 206.179 245.086 C 206.072 244.631,205.780 242.355,205.530 240.028 L 205.075 235.797 206.003 235.028 C 206.513 234.605,207.246 234.058,207.632 233.812 C 208.296 233.389,208.270 233.306,207.130 232.244 C 204.616 229.900,205.917 228.655,209.295 230.171 C 212.173 231.463,212.273 231.402,213.478 227.621 L 214.495 224.427 212.030 221.673 L 209.565 218.918 210.152 216.959 C 211.349 212.959,211.632 207.166,211.207 195.370 C 210.706 181.434,209.829 177.942,205.538 172.789 C 202.990 169.728,202.649 169.819,204.274 173.126 M215.503 175.090 L 217.858 175.223 217.606 177.241 C 217.368 179.150,217.398 179.259,218.169 179.259 C 218.938 179.259,218.970 179.149,218.727 177.322 C 218.416 174.971,218.190 174.808,215.370 174.892 L 213.148 174.958 215.503 175.090 M185.831 176.663 L 184.630 177.756 185.602 177.767 C 186.136 177.773,187.282 178.028,188.148 178.333 C 189.014 178.639,189.782 178.889,189.855 178.889 C 190.346 178.889,188.614 176.290,187.910 175.969 C 187.158 175.627,186.862 175.725,185.831 176.663 M259.519 178.960 C 258.089 180.464,256.617 183.214,256.152 185.249 L 255.926 186.239 258.796 186.028 C 260.375 185.911,261.729 185.632,261.804 185.408 C 261.880 185.184,263.080 183.873,264.471 182.495 L 267.000 179.991 264.435 178.699 C 261.238 177.089,261.303 177.085,259.519 178.960 M124.352 181.759 L 118.148 181.870 118.148 184.453 L 118.148 187.037 120.093 187.056 C 124.697 187.101,131.725 186.990,132.407 186.862 C 132.815 186.786,133.273 186.711,133.426 186.695 C 134.775 186.557,133.078 181.467,131.715 181.564 C 131.077 181.610,127.764 181.698,124.352 181.759 M167.650 189.320 L 165.484 190.418 165.629 196.968 C 165.855 207.163,168.691 210.223,177.276 209.534 C 181.191 209.219,188.993 204.738,187.407 203.714 C 185.189 202.281,177.018 201.797,172.481 202.829 C 171.014 203.162,169.742 203.370,169.652 203.291 C 169.383 203.054,169.413 193.325,169.691 190.746 C 170.004 187.839,170.241 188.005,167.650 189.320 M297.699 198.365 C 297.927 215.435,293.590 223.824,281.360 229.968 L 278.634 231.337 280.568 233.415 L 282.503 235.494 285.418 234.062 C 298.804 227.489,303.490 216.026,301.679 194.284 C 301.397 190.899,301.492 191.024,298.889 190.588 L 297.593 190.371 297.699 198.365 M239.213 194.249 C 239.080 195.653,238.994 195.743,237.315 196.215 C 235.638 196.687,234.918 197.407,236.123 197.407 C 238.374 197.407,240.161 195.611,239.659 193.852 C 239.356 192.792,239.350 192.797,239.213 194.249 M146.681 196.568 C 146.180 196.662,145.122 197.406,144.331 198.221 C 142.104 200.515,139.361 201.600,135.370 201.764 C 130.727 201.955,130.780 201.895,133.010 204.429 C 134.221 205.805,135.104 206.523,135.348 206.329 C 135.564 206.159,137.339 205.939,139.292 205.842 C 145.993 205.508,149.259 203.280,149.259 199.041 C 149.259 196.037,149.301 196.077,146.681 196.568 M231.481 198.889 C 231.481 200.170,231.779 200.230,233.969 199.394 C 236.261 198.519,236.055 197.778,233.519 197.778 C 231.502 197.778,231.481 197.789,231.481 198.889 M236.759 198.610 C 235.620 198.976,235.556 199.092,235.556 200.794 C 235.556 203.032,235.501 203.045,237.377 200.370 C 238.962 198.111,238.896 197.924,236.759 198.610 M118.981 208.780 L 118.148 208.940 118.148 221.007 L 118.148 233.073 115.093 232.835 C 113.412 232.704,111.587 232.596,111.038 232.595 C 110.098 232.593,110.030 232.476,109.891 230.648 L 109.744 228.704 109.779 230.741 L 109.815 232.778 111.944 232.889 L 114.074 233.000 114.074 235.018 L 114.074 237.037 118.148 237.037 L 122.222 237.037 122.222 225.013 L 122.222 212.988 124.101 212.739 C 125.900 212.501,125.970 212.449,125.743 211.523 C 125.094 208.879,122.960 208.014,118.981 208.780 M172.260 235.977 C 177.410 237.702,178.850 243.692,176.068 251.824 C 173.793 258.473,171.380 256.444,173.277 249.478 C 175.383 241.739,173.303 237.764,167.933 239.268 C 164.614 240.197,160.733 244.267,159.433 248.184 C 158.409 251.266,155.594 251.113,156.092 248.002 C 157.216 240.967,166.513 234.053,172.260 235.977 M156.582 252.843 C 161.632 255.227,164.387 259.687,162.175 261.899 C 160.430 263.644,154.794 262.073,151.323 258.874 C 145.771 253.756,149.487 249.494,156.582 252.843 M176.024 265.715 C 201.496 277.018,218.791 284.930,219.195 285.463 C 220.856 287.655,216.569 295.518,211.578 299.436 C 189.681 316.622,155.654 292.135,167.080 267.413 C 169.151 262.933,169.574 262.853,176.024 265.715 M238.803 264.493 C 244.106 267.060,245.703 276.469,242.057 283.665 C 240.116 287.495,237.303 286.011,239.092 282.101 C 241.647 276.522,240.978 269.782,237.670 267.765 C 234.454 265.804,231.300 267.988,227.640 274.710 C 226.069 277.596,225.189 278.152,224.028 276.991 C 223.130 276.093,223.283 275.472,225.208 272.179 C 229.588 264.688,234.025 262.180,238.803 264.493 M168.348 271.828 C 167.858 272.620,167.530 277.395,167.808 279.674 C 169.960 297.287,190.412 307.854,206.339 299.582 C 209.193 298.100,213.477 294.378,213.251 293.577 C 212.842 292.122,202.900 288.412,198.026 287.895 C 195.920 287.672,195.830 287.615,194.345 285.592 C 189.665 279.212,182.462 274.473,174.304 272.408 C 170.434 271.428,168.700 271.259,168.348 271.828 M232.486 283.394 C 235.059 284.355,239.014 288.046,239.347 289.796 C 240.596 296.357,226.985 292.165,225.422 285.508 C 224.786 282.797,228.175 281.783,232.486 283.394 " stroke="none" fill="#d4262b" fill-rule="evenodd"></path><path id="path4" d="M254.812 59.957 C 247.438 62.352,246.843 68.114,252.745 79.974 C 254.885 84.274,255.259 83.629,248.331 87.589 C 239.473 92.652,236.847 95.461,234.840 102.020 C 232.525 109.584,233.631 109.957,243.074 104.799 C 250.024 101.003,249.757 100.945,250.040 106.300 C 250.658 117.962,253.511 118.049,262.020 106.667 C 266.286 100.960,266.604 100.814,269.990 103.015 C 280.424 109.795,284.217 107.554,281.817 96.029 C 281.203 93.077,281.079 93.125,285.394 94.633 C 287.418 95.340,289.683 95.920,290.426 95.922 C 291.579 95.925,291.892 96.118,292.549 97.231 C 293.914 99.545,295.341 99.270,295.084 96.742 C 294.975 95.668,295.110 95.450,296.211 94.928 C 300.073 93.095,298.606 89.667,292.612 86.517 C 288.684 84.453,288.685 84.447,294.067 80.936 C 301.780 75.903,300.619 74.787,287.407 74.532 C 274.269 74.279,265.560 75.863,261.154 79.309 C 259.666 80.472,259.511 80.216,259.721 76.944 C 259.950 73.369,260.851 70.604,263.057 66.706 C 266.645 60.367,266.418 59.866,259.900 59.737 C 257.612 59.692,255.323 59.791,254.812 59.957 M262.195 62.004 C 262.508 62.382,262.515 62.597,262.219 62.780 C 261.581 63.174,260.000 62.640,260.000 62.030 C 260.000 61.323,261.613 61.304,262.195 62.004 M309.506 82.099 C 308.715 82.890,309.895 86.990,311.233 88.097 C 312.795 89.390,313.508 87.206,312.393 84.539 C 311.482 82.357,310.271 81.334,309.506 82.099 M209.353 106.481 C 209.357 107.296,209.433 107.586,209.521 107.125 C 209.610 106.665,209.606 105.998,209.514 105.644 C 209.421 105.290,209.349 105.667,209.353 106.481 M212.679 110.370 C 212.679 111.083,212.755 111.375,212.848 111.019 C 212.941 110.662,212.941 110.079,212.848 109.722 C 212.755 109.366,212.679 109.657,212.679 110.370 M209.716 110.741 C 209.716 111.454,209.792 111.745,209.885 111.389 C 209.978 111.032,209.978 110.449,209.885 110.093 C 209.792 109.736,209.716 110.028,209.716 110.741 M227.324 114.490 C 226.634 116.133,226.793 116.815,228.234 118.399 C 229.934 120.267,230.702 117.272,229.252 114.430 C 228.317 112.597,228.117 112.604,227.324 114.490 M329.630 120.127 C 329.630 122.177,331.037 124.954,332.159 125.119 C 333.264 125.281,333.553 124.323,333.012 122.297 C 332.024 118.604,329.630 117.068,329.630 120.127 M209.716 124.074 C 209.716 124.787,209.792 125.079,209.885 124.722 C 209.978 124.366,209.978 123.782,209.885 123.426 C 209.792 123.069,209.716 123.361,209.716 124.074 M209.345 127.778 C 209.345 128.491,209.421 128.782,209.515 128.426 C 209.608 128.069,209.608 127.486,209.515 127.130 C 209.421 126.773,209.345 127.065,209.345 127.778 M241.852 129.328 C 241.852 132.233,244.240 135.546,245.235 134.021 C 245.603 133.458,245.298 130.948,244.724 129.815 C 243.443 127.284,241.852 127.014,241.852 129.328 M307.037 129.770 C 307.037 132.430,308.921 135.667,310.060 134.963 C 310.994 134.386,310.161 130.435,308.800 128.981 C 307.575 127.674,307.037 127.915,307.037 129.770 M284.463 137.743 C 283.456 139.625,285.963 144.782,287.441 143.868 C 288.041 143.497,287.798 141.017,287.001 139.370 C 286.034 137.373,285.012 136.718,284.463 137.743 M261.650 144.471 C 261.223 145.163,261.858 148.047,262.719 149.325 C 263.720 150.811,264.941 150.974,265.128 149.646 C 265.504 146.986,262.687 142.794,261.650 144.471 M320.617 145.062 C 319.888 145.791,321.298 150.078,322.407 150.504 C 323.222 150.817,323.810 149.757,323.559 148.430 C 323.112 146.064,321.482 144.197,320.617 145.062 M238.889 151.179 C 238.889 152.969,240.119 155.765,241.149 156.316 C 242.209 156.884,242.785 155.415,242.258 153.488 C 241.237 149.757,238.889 148.148,238.889 151.179 M300.514 153.864 C 299.940 155.359,301.550 158.889,302.805 158.889 C 303.561 158.889,303.488 156.423,302.685 154.816 C 301.983 153.412,300.874 152.926,300.514 153.864 M280.504 158.704 C 279.913 160.246,281.408 163.889,282.633 163.889 C 283.379 163.889,283.469 161.896,282.795 160.285 C 282.116 158.659,280.855 157.789,280.504 158.704 M260.372 163.769 C 260.374 166.622,262.620 169.088,263.181 166.853 C 263.472 165.692,261.940 162.458,261.019 162.288 C 260.483 162.189,260.371 162.445,260.372 163.769 M196.570 163.703 C 197.262 164.452,197.477 164.517,197.866 164.098 C 198.244 163.692,198.240 163.648,197.847 163.871 C 197.568 164.029,197.015 163.861,196.551 163.476 C 195.759 162.820,195.759 162.825,196.570 163.703 M316.914 163.580 C 316.108 164.386,317.447 168.224,318.612 168.448 C 319.150 168.552,319.259 168.294,319.259 166.929 C 319.259 164.818,317.783 162.711,316.914 163.580 M68.519 168.704 C 69.210 169.417,69.858 170.000,69.960 170.000 C 70.062 170.000,69.580 169.417,68.889 168.704 C 68.198 167.991,67.549 167.407,67.447 167.407 C 67.345 167.407,67.827 167.991,68.519 168.704 M299.420 171.634 C 299.138 172.756,300.490 175.926,301.251 175.926 C 302.468 175.926,302.220 172.911,300.880 171.430 C 300.048 170.511,299.689 170.561,299.420 171.634 M73.519 173.704 C 74.522 174.722,75.426 175.556,75.528 175.556 C 75.630 175.556,74.892 174.722,73.889 173.704 C 72.886 172.685,71.982 171.852,71.880 171.852 C 71.778 171.852,72.515 172.685,73.519 173.704 M280.274 173.924 C 279.812 174.386,279.970 176.645,280.542 177.751 C 281.669 179.931,282.900 179.345,282.432 176.851 C 282.169 175.449,280.717 173.480,280.274 173.924 M312.963 179.362 C 312.963 180.588,313.821 182.222,314.465 182.222 C 315.030 182.222,314.866 179.867,314.238 178.971 C 313.424 177.808,312.963 177.949,312.963 179.362 M174.672 180.181 C 173.677 180.870,172.677 181.634,172.450 181.880 C 172.223 182.125,173.079 181.630,174.352 180.779 C 175.625 179.928,176.667 179.155,176.667 179.060 C 176.667 178.806,176.632 178.826,174.672 180.181 M297.778 183.806 C 297.778 185.033,298.636 186.667,299.280 186.667 C 299.768 186.667,299.717 184.671,299.200 183.536 C 298.581 182.179,297.778 182.332,297.778 183.806 M142.328 187.963 C 142.331 188.981,142.403 189.354,142.488 188.791 C 142.573 188.228,142.571 187.395,142.483 186.939 C 142.395 186.484,142.325 186.944,142.328 187.963 M227.164 190.556 C 227.165 192.185,227.230 192.806,227.309 191.935 C 227.387 191.064,227.386 189.730,227.306 188.972 C 227.227 188.213,227.163 188.926,227.164 190.556 M260.741 188.511 C 260.270 188.809,260.185 190.339,260.185 198.519 C 260.185 213.161,261.624 211.712,265.568 193.098 C 265.993 191.089,266.426 189.153,266.529 188.796 C 266.742 188.059,261.837 187.817,260.741 188.511 M309.259 188.845 C 309.259 189.253,309.426 189.689,309.630 189.815 C 309.833 189.941,310.000 189.710,310.000 189.303 C 310.000 188.896,309.833 188.459,309.630 188.333 C 309.426 188.207,309.259 188.438,309.259 188.845 M251.575 189.815 C 251.579 190.630,251.655 190.919,251.743 190.459 C 251.832 189.998,251.829 189.331,251.736 188.977 C 251.643 188.623,251.571 189.000,251.575 189.815 M141.199 192.589 C 140.611 193.532,140.622 193.704,141.274 193.704 C 141.975 193.704,142.184 193.298,141.894 192.501 C 141.676 191.905,141.622 191.912,141.199 192.589 M239.513 192.500 C 239.424 192.653,239.486 193.111,239.650 193.519 C 239.910 194.165,239.951 194.130,239.974 193.241 C 240.000 192.236,239.826 191.958,239.513 192.500 M115.099 192.861 C 115.765 192.943,116.765 192.942,117.321 192.857 C 117.878 192.773,117.333 192.705,116.111 192.707 C 114.889 192.709,114.434 192.779,115.099 192.861 M239.700 196.375 C 239.661 196.723,238.739 198.316,237.651 199.914 L 235.673 202.819 235.414 207.150 C 235.272 209.532,235.218 211.481,235.294 211.481 C 235.371 211.481,236.503 210.023,237.809 208.241 L 240.185 205.000 239.978 200.370 C 239.863 197.824,239.738 196.026,239.700 196.375 M129.167 197.669 C 129.625 197.757,130.375 197.757,130.833 197.669 C 131.292 197.581,130.917 197.508,130.000 197.508 C 129.083 197.508,128.708 197.581,129.167 197.669 M237.848 210.892 C 235.689 213.512,235.185 214.363,235.185 215.395 C 235.185 216.646,235.639 217.060,236.134 216.259 C 236.540 215.603,240.836 213.704,241.917 213.704 L 242.908 213.704 241.966 211.389 C 241.449 210.116,240.909 208.756,240.768 208.367 C 240.553 207.775,240.079 208.185,237.848 210.892 M241.481 216.272 C 236.954 217.654,235.184 219.680,235.192 223.470 L 235.198 226.481 236.232 224.725 C 237.152 223.163,240.723 220.000,241.566 220.000 C 242.148 220.000,239.572 223.473,237.145 225.962 C 234.990 228.172,233.515 231.046,234.190 231.721 C 234.268 231.799,236.066 231.457,238.185 230.961 C 243.755 229.658,248.746 229.130,253.409 229.351 L 257.480 229.544 255.742 227.779 C 254.520 226.538,253.792 226.069,253.292 226.200 C 252.747 226.342,252.637 226.242,252.819 225.767 C 252.965 225.388,252.750 224.821,252.266 224.306 C 251.831 223.842,251.601 223.324,251.756 223.154 C 251.911 222.984,251.858 222.946,251.639 223.070 C 251.421 223.195,249.616 221.638,247.629 219.611 C 243.948 215.855,243.552 215.640,241.481 216.272 M226.760 217.593 C 226.764 218.407,226.840 218.697,226.929 218.236 C 227.017 217.776,227.014 217.109,226.921 216.755 C 226.828 216.401,226.756 216.778,226.760 217.593 M110.833 228.784 C 111.394 228.869,112.310 228.869,112.870 228.784 C 113.431 228.699,112.972 228.630,111.852 228.630 C 110.731 228.630,110.273 228.699,110.833 228.784 M245.741 231.523 C 241.870 231.688,237.626 232.038,236.310 232.301 L 233.915 232.779 232.947 235.371 C 232.415 236.797,231.360 239.182,230.603 240.672 L 229.226 243.381 232.669 246.783 C 240.663 254.682,245.397 254.816,260.000 247.554 C 265.281 244.928,274.296 239.775,278.011 237.258 L 279.171 236.473 275.419 236.474 C 270.958 236.475,267.723 235.607,263.122 233.176 C 259.517 231.271,257.078 231.039,245.741 231.523 M248.810 235.980 C 251.447 238.001,257.690 243.704,257.264 243.704 C 256.861 243.704,253.312 241.848,251.795 240.844 C 250.552 240.022,245.550 234.074,246.101 234.074 C 246.223 234.074,247.442 234.932,248.810 235.980 " stroke="none" fill="#89bd2f" fill-rule="evenodd"></path></g></svg>