<svg id="svg" version="1.1" xmlns="http://www.w3.org/2000/svg" xmlns:xlink="http://www.w3.org/1999/xlink" width="400" height="400" viewBox="0, 0, 400,400"><g id="svgg"><path id="path0" d="M0.000 200.000 L 0.000 400.000 200.000 400.000 L 400.000 400.000 400.000 200.000 L 400.000 0.000 200.000 0.000 L 0.000 0.000 0.000 200.000 M116.787 111.240 L 119.315 112.458 116.123 114.416 C 112.572 116.594,112.429 116.606,108.415 115.067 L 106.274 114.246 107.782 112.771 C 110.665 109.951,113.215 109.518,116.787 111.240 M129.074 116.296 C 128.948 116.500,128.480 116.655,128.034 116.641 C 127.251 116.616,127.249 116.603,127.963 116.296 C 128.982 115.858,129.345 115.858,129.074 116.296 M157.472 117.630 C 158.399 118.105,158.438 118.226,158.091 119.532 C 156.331 126.157,155.094 128.361,150.161 133.660 C 146.982 137.076,144.761 140.440,145.319 140.998 C 145.426 141.105,146.565 140.826,147.850 140.377 C 153.245 138.490,155.301 138.368,165.463 139.330 C 170.671 139.823,170.492 139.568,168.381 143.481 C 164.517 150.645,163.232 158.967,165.130 164.530 C 166.161 167.548,166.410 171.701,165.556 171.602 C 165.250 171.567,163.117 171.020,160.816 170.388 C 150.899 167.661,147.470 167.508,134.815 169.229 C 123.017 170.834,115.437 171.025,115.252 169.721 C 115.115 168.756,115.222 168.708,118.771 168.143 C 121.109 167.771,122.003 167.362,126.178 164.757 C 128.789 163.127,132.343 161.032,134.074 160.100 C 135.806 159.169,138.139 157.877,139.259 157.228 C 140.380 156.579,143.171 155.242,145.463 154.255 C 151.109 151.825,150.942 151.704,142.315 151.973 C 132.153 152.290,129.586 152.762,125.926 154.988 C 122.017 157.365,118.024 158.240,109.066 158.683 C 106.821 158.795,103.987 159.141,102.770 159.453 C 97.065 160.916,90.721 162.749,88.704 163.518 C 84.797 165.006,84.543 164.952,87.037 163.160 C 92.312 159.369,99.083 155.444,102.734 154.061 C 104.795 153.279,106.440 152.463,106.389 152.247 C 106.257 151.682,97.832 140.564,95.694 138.133 C 94.701 137.004,93.306 135.356,92.593 134.470 C 91.880 133.584,90.963 132.478,90.556 132.013 L 89.815 131.167 86.667 132.986 C 84.935 133.987,83.170 135.266,82.744 135.829 C 80.319 139.031,79.262 147.923,80.729 152.778 C 83.790 162.904,83.802 163.065,81.397 161.901 C 76.370 159.467,74.545 154.725,75.392 146.296 C 76.742 132.855,77.532 131.674,86.826 129.188 L 88.560 128.724 88.313 126.417 C 87.977 123.282,89.167 121.377,93.107 118.741 C 96.363 116.564,97.316 117.457,96.510 121.934 C 95.798 125.886,96.053 127.090,98.267 130.238 L 99.346 131.773 100.897 129.868 C 103.318 126.895,106.748 124.977,110.205 124.663 C 111.749 124.524,114.784 124.084,116.948 123.686 C 119.113 123.288,121.412 122.963,122.057 122.963 C 123.121 122.963,123.219 122.868,123.104 121.944 C 122.978 120.940,122.981 120.938,123.280 121.852 C 123.447 122.361,123.784 122.734,124.028 122.681 C 125.533 122.351,130.463 125.814,131.586 127.990 C 132.782 130.308,133.890 130.153,134.545 127.577 C 134.723 126.874,134.730 126.875,134.772 127.599 C 134.795 128.010,134.391 128.971,133.873 129.733 L 132.930 131.120 134.798 134.156 C 137.033 137.787,137.020 137.632,135.272 139.670 C 133.011 142.307,132.705 142.878,134.402 141.296 C 138.012 137.930,142.575 130.905,143.454 127.359 C 143.921 125.476,141.812 123.930,135.926 121.841 C 130.356 119.864,131.354 118.959,140.215 117.948 C 143.050 117.625,146.037 117.215,146.852 117.039 C 148.896 116.595,156.251 117.005,157.472 117.630 M123.236 117.992 C 122.376 118.459,122.274 118.664,122.600 119.274 C 123.093 120.195,122.888 120.200,122.063 119.288 C 121.423 118.581,122.552 117.437,123.889 117.437 C 124.093 117.437,123.799 117.687,123.236 117.992 M235.254 144.849 C 239.544 147.135,240.989 160.190,239.021 178.889 C 238.712 181.828,238.295 181.916,235.782 179.575 C 235.018 178.863,225.150 173.899,222.037 172.661 C 215.150 169.921,209.756 168.245,207.315 168.087 C 206.551 168.037,205.926 167.932,205.926 167.852 C 205.926 167.639,207.492 165.476,208.143 164.789 C 208.451 164.464,209.870 162.878,211.296 161.266 C 222.606 148.470,231.111 142.642,235.254 144.849 M316.153 163.533 C 318.265 163.847,321.178 164.490,322.625 164.962 L 325.258 165.820 326.115 164.962 C 328.109 162.969,330.566 163.340,333.662 166.103 C 334.901 167.208,336.894 168.778,338.092 169.592 C 343.193 173.056,343.345 174.410,339.257 180.000 L 337.497 182.407 337.230 187.728 C 337.084 190.655,337.105 192.980,337.278 192.895 C 337.451 192.811,339.213 191.949,341.194 190.982 C 346.948 188.169,355.556 186.375,355.556 187.988 C 355.556 188.307,355.120 189.138,354.589 189.836 C 354.030 190.568,353.716 191.350,353.845 191.686 C 354.232 192.696,353.142 194.166,349.760 197.196 C 341.636 204.473,338.898 209.021,339.576 214.116 C 340.114 218.163,340.118 223.253,339.585 226.834 C 338.884 231.550,342.855 234.182,345.971 231.066 L 346.737 230.300 345.796 229.316 C 343.513 226.933,342.831 223.456,344.474 222.577 C 346.245 221.629,348.302 224.452,348.265 227.778 C 348.239 230.048,348.491 230.356,350.381 230.365 C 352.076 230.372,353.239 229.528,354.139 227.636 C 354.752 226.350,354.830 226.285,354.638 227.222 C 354.086 229.922,351.411 231.804,349.052 231.152 C 347.804 230.808,347.630 230.860,346.820 231.823 C 345.596 233.277,344.046 233.831,341.806 233.616 L 339.916 233.434 340.152 234.958 C 340.281 235.796,340.491 238.441,340.619 240.835 C 340.819 244.614,340.965 245.345,341.721 246.370 C 343.205 248.382,343.018 248.519,338.773 248.519 C 334.994 248.519,334.942 248.507,333.866 247.382 C 333.267 246.758,331.278 245.312,329.444 244.170 C 327.611 243.028,325.444 241.563,324.630 240.915 L 323.148 239.735 320.370 240.218 C 315.436 241.075,309.103 241.516,300.943 241.569 L 292.963 241.622 292.963 245.996 L 292.963 250.370 286.506 250.370 L 280.049 250.370 279.932 249.352 C 279.775 247.986,278.639 247.881,274.648 248.863 C 268.690 250.330,264.523 249.465,262.273 246.293 C 261.736 245.536,260.661 244.459,259.884 243.899 C 259.107 243.339,258.127 242.358,257.706 241.718 C 257.285 241.079,256.306 240.107,255.532 239.558 L 254.124 238.561 253.880 239.670 C 253.138 243.046,247.763 249.013,244.241 250.370 C 236.657 253.292,229.923 251.092,221.961 243.092 C 215.901 237.002,216.661 237.306,214.900 240.271 C 212.417 244.449,208.792 247.394,204.259 248.914 C 203.444 249.188,202.663 249.380,202.524 249.343 C 202.384 249.306,201.467 250.196,200.487 251.321 C 190.911 262.308,183.519 259.918,183.519 245.836 L 183.519 240.745 180.370 237.375 C 174.571 231.166,173.148 227.949,173.148 221.046 C 173.148 217.063,173.100 216.764,172.542 217.269 C 171.359 218.338,168.022 219.304,164.844 219.498 C 160.406 219.768,160.422 219.756,162.099 221.579 C 166.631 226.502,168.019 229.240,168.309 233.828 C 168.671 239.543,169.926 243.906,171.118 243.595 C 172.257 243.297,172.072 245.395,170.648 248.893 C 168.837 253.346,167.684 252.911,159.378 244.640 C 152.364 237.655,152.120 237.204,151.919 230.833 L 151.776 226.296 150.610 226.301 C 147.626 226.314,147.778 225.913,147.778 233.796 C 147.778 240.244,147.842 240.942,148.535 242.064 L 149.293 243.289 148.535 243.695 C 147.864 244.054,147.778 244.456,147.778 247.235 L 147.778 250.370 143.704 250.370 L 139.630 250.370 139.630 248.333 L 139.630 246.296 137.407 246.296 L 135.185 246.296 135.185 244.259 L 135.185 242.222 133.148 242.222 L 131.111 242.222 131.106 232.315 C 131.099 220.303,130.949 219.572,128.415 219.204 C 121.453 218.193,112.494 212.229,109.838 206.838 C 106.841 200.756,100.626 196.553,90.000 193.422 C 87.250 192.611,84.355 191.677,83.566 191.345 C 82.777 191.012,81.402 190.741,80.510 190.741 C 76.230 190.741,80.330 189.473,95.279 186.173 C 95.434 186.139,96.362 187.278,97.341 188.704 C 99.644 192.056,100.040 192.244,103.428 191.587 C 106.081 191.073,114.580 191.089,116.667 191.612 C 117.176 191.739,118.832 192.119,120.347 192.456 C 122.196 192.867,123.398 193.364,124.001 193.967 C 125.124 195.090,127.144 194.879,129.536 193.388 L 131.110 192.407 131.110 187.685 L 131.111 182.963 140.902 182.963 C 147.351 182.963,151.048 182.819,151.735 182.542 C 157.484 180.223,164.774 183.690,170.530 191.481 C 175.749 198.546,176.296 199.911,176.296 205.872 L 176.296 209.366 177.576 207.689 C 183.139 200.404,195.244 198.923,201.653 204.744 C 202.256 205.292,202.545 205.471,202.295 205.141 C 201.743 204.411,203.282 203.100,206.383 201.656 C 213.359 198.408,217.410 205.268,215.730 217.483 C 215.540 218.868,215.683 219.705,216.429 221.569 C 217.444 224.106,218.109 228.447,217.890 231.111 C 217.759 232.712,217.811 232.646,219.216 229.444 L 220.678 226.111 222.561 225.999 L 224.444 225.887 224.444 227.944 L 224.444 230.000 226.640 230.000 L 228.835 230.000 228.631 231.982 L 228.426 233.963 229.630 234.204 C 232.689 234.816,233.795 234.416,235.137 232.216 C 236.244 230.400,236.141 229.820,234.628 229.355 C 232.733 228.774,227.537 225.642,226.175 224.260 C 222.533 220.565,222.552 220.594,223.173 219.707 C 224.027 218.488,225.955 213.662,226.038 212.536 C 226.078 211.996,226.236 211.631,226.389 211.725 C 226.646 211.883,226.806 211.193,226.767 210.097 C 226.758 209.844,226.926 209.746,227.142 209.880 C 227.388 210.032,227.443 209.886,227.289 209.486 C 227.145 209.108,227.194 208.942,227.412 209.077 C 227.746 209.283,227.921 208.692,227.878 207.504 C 227.869 207.252,228.038 207.154,228.253 207.287 C 228.499 207.439,228.554 207.293,228.401 206.893 C 228.256 206.516,228.305 206.350,228.523 206.484 C 228.857 206.691,229.032 206.100,228.989 204.911 C 228.980 204.659,229.149 204.561,229.364 204.694 C 229.608 204.845,229.666 204.704,229.519 204.320 C 229.389 203.981,229.421 203.704,229.590 203.704 C 229.920 203.704,231.617 200.371,232.985 197.037 C 234.287 193.864,234.418 193.793,236.802 194.959 C 238.894 195.983,250.058 206.692,251.398 208.962 C 252.209 210.335,252.240 210.317,253.464 207.734 C 254.640 205.253,256.412 203.717,259.270 202.702 L 260.996 202.089 259.850 200.085 C 259.220 198.983,257.750 197.055,256.585 195.800 C 254.192 193.224,253.170 191.407,253.469 190.262 C 253.588 189.808,253.355 188.967,252.912 188.250 C 250.607 184.522,257.213 185.611,263.752 190.037 L 265.837 191.449 267.015 187.732 C 267.663 185.688,268.769 182.753,269.472 181.209 C 270.581 178.776,270.683 178.325,270.235 177.813 C 267.280 174.431,267.704 173.307,273.882 168.148 C 278.858 163.992,280.006 163.579,281.456 165.422 L 282.225 166.400 284.564 165.632 C 291.800 163.256,307.337 162.224,316.153 163.533 M207.222 173.904 C 212.086 174.836,230.137 182.284,231.852 184.067 C 231.954 184.173,232.889 184.827,233.929 185.522 C 236.816 187.448,236.808 188.765,233.872 194.355 C 233.824 194.444,200.367 180.363,200.028 180.111 C 199.822 179.958,201.742 175.255,202.473 174.122 C 203.062 173.208,203.485 173.188,207.222 173.904 M156.752 202.407 C 155.059 205.821,155.068 206.015,156.857 204.651 C 158.192 203.632,159.259 201.665,159.259 200.222 C 159.259 198.427,158.320 199.246,156.752 202.407 M234.591 212.011 C 231.326 213.432,231.281 215.630,234.503 216.294 C 239.625 217.349,240.572 217.910,245.394 222.744 C 252.017 229.382,251.355 229.183,250.966 224.418 L 250.635 220.370 247.917 220.370 C 244.923 220.370,244.612 220.083,244.883 217.564 C 244.999 216.490,244.983 216.481,242.870 216.370 L 240.741 216.259 240.741 214.241 L 240.741 212.222 238.704 212.222 C 237.583 212.222,236.667 212.056,236.667 211.852 C 236.667 211.354,235.979 211.407,234.591 212.011 M344.444 224.557 C 344.444 225.297,344.907 226.505,345.615 227.613 L 346.785 229.444 347.097 228.333 C 347.683 226.248,346.564 223.333,345.177 223.333 C 344.595 223.333,344.444 223.585,344.444 224.557 M197.940 227.500 L 196.852 228.704 198.056 227.616 C 198.718 227.018,199.259 226.476,199.259 226.412 C 199.259 226.126,198.954 226.378,197.940 227.500 M264.815 230.556 L 264.815 233.704 266.121 233.704 L 267.426 233.704 266.897 232.680 C 266.606 232.117,266.090 230.701,265.750 229.532 C 264.930 226.711,264.815 226.837,264.815 230.556 M168.795 265.754 C 170.959 266.678,172.957 267.347,173.235 267.240 C 173.514 267.133,173.654 267.187,173.547 267.361 C 173.265 267.818,182.433 271.624,182.989 271.280 C 183.262 271.111,183.354 271.149,183.215 271.374 C 182.905 271.875,192.011 275.730,192.618 275.354 C 192.896 275.183,192.983 275.223,192.840 275.455 C 192.535 275.948,194.623 276.829,195.220 276.460 C 195.494 276.291,195.574 276.337,195.425 276.578 C 195.281 276.811,195.847 277.228,196.802 277.593 L 198.424 278.213 197.005 281.421 C 195.810 284.124,195.438 284.648,194.643 284.747 C 193.552 284.883,188.527 283.824,186.759 283.085 C 186.097 282.809,185.556 282.653,185.556 282.739 C 185.556 282.824,183.347 281.970,180.648 280.840 C 177.949 279.710,175.382 278.767,174.943 278.745 C 174.504 278.722,174.206 278.604,174.281 278.483 C 174.356 278.362,173.549 277.865,172.487 277.379 C 167.666 275.175,161.856 271.276,161.849 270.239 C 161.844 269.481,164.199 264.074,164.535 264.074 C 164.715 264.074,166.632 264.830,168.795 265.754 M165.694 280.496 C 171.298 283.671,181.957 288.120,186.667 289.251 C 187.583 289.471,188.667 289.735,189.074 289.838 C 189.481 289.941,190.585 290.124,191.527 290.244 L 193.239 290.462 191.916 293.403 L 190.594 296.343 188.723 296.250 C 187.694 296.198,186.102 295.926,185.185 295.646 C 184.269 295.365,183.268 295.081,182.962 295.014 C 178.871 294.122,166.435 288.684,161.229 285.509 C 156.907 282.874,156.565 282.342,157.593 279.860 C 157.898 279.122,158.396 277.919,158.700 277.187 L 159.251 275.856 160.890 277.280 C 161.792 278.063,163.953 279.510,165.694 280.496 " stroke="none" fill="#fb63c3" fill-rule="evenodd"></path><path id="path1" d="M111.034 110.677 C 110.075 111.018,108.611 111.960,107.782 112.771 L 106.274 114.246 108.415 115.067 C 112.429 116.606,112.572 116.594,116.123 114.416 L 119.315 112.458 116.787 111.240 C 113.923 109.859,113.463 109.814,111.034 110.677 M146.852 117.039 C 146.037 117.216,142.978 117.632,140.054 117.964 C 133.622 118.693,132.816 118.942,133.169 120.093 C 133.310 120.551,133.446 120.939,133.472 120.954 C 133.498 120.970,134.602 121.368,135.926 121.839 C 141.819 123.935,143.921 125.476,143.454 127.359 C 142.575 130.905,138.012 137.930,134.402 141.296 C 132.705 142.878,133.011 142.307,135.272 139.670 C 137.056 137.590,137.178 138.119,133.503 131.980 C 128.298 123.285,125.884 122.073,116.990 123.690 C 114.826 124.083,111.782 124.521,110.226 124.662 C 106.747 124.977,103.325 126.887,100.897 129.868 L 99.346 131.773 98.267 130.238 C 96.053 127.090,95.798 125.886,96.510 121.934 C 97.316 117.457,96.363 116.564,93.107 118.741 C 89.166 121.378,87.977 123.282,88.313 126.419 L 88.560 128.728 85.854 129.527 C 80.524 131.099,77.037 133.498,77.037 135.592 C 77.037 136.019,76.801 137.226,76.513 138.276 C 73.523 149.172,75.458 158.770,81.241 161.725 C 83.851 163.059,83.847 162.932,81.025 154.074 C 79.138 148.154,80.093 138.543,82.874 135.453 C 84.119 134.070,90.073 130.963,90.391 131.531 C 90.804 132.270,93.861 136.070,96.329 138.912 C 99.602 142.682,106.701 152.341,106.391 152.604 C 106.237 152.735,104.611 153.397,102.778 154.074 C 99.004 155.468,83.444 164.815,84.896 164.815 C 85.020 164.815,86.428 164.320,88.024 163.714 C 94.914 161.101,104.570 158.854,110.413 158.504 C 119.262 157.975,121.180 157.487,127.037 154.276 C 129.998 152.653,138.076 151.576,145.833 151.771 C 151.012 151.902,151.005 151.957,145.461 154.432 C 139.975 156.880,132.967 160.693,126.481 164.757 C 123.833 166.416,121.083 167.874,120.370 167.996 C 116.512 168.656,115.370 169.071,115.370 169.815 C 115.370 171.020,123.437 170.777,134.815 169.229 C 147.470 167.508,150.899 167.661,160.816 170.388 C 163.117 171.020,165.250 171.567,165.556 171.602 C 166.410 171.701,166.161 167.548,165.130 164.530 C 163.232 158.967,164.517 150.645,168.381 143.481 C 170.492 139.568,170.671 139.823,165.463 139.330 C 155.301 138.368,153.245 138.490,147.850 140.377 C 146.565 140.826,145.426 141.105,145.319 140.998 C 144.761 140.440,146.982 137.076,150.161 133.660 C 155.094 128.361,156.331 126.157,158.091 119.532 C 158.438 118.226,158.399 118.105,157.472 117.630 C 156.251 117.005,148.895 116.595,146.852 117.039 M157.312 182.811 C 157.192 182.931,151.248 183.008,144.102 182.982 L 131.111 182.935 131.111 212.579 L 131.111 242.222 135.185 242.222 L 139.259 242.222 139.259 230.202 L 139.259 218.182 140.573 217.935 C 147.611 216.615,151.504 220.827,151.872 230.158 C 152.105 236.074,152.598 237.661,155.051 240.381 C 159.030 244.795,167.315 245.032,167.528 240.738 C 167.591 239.489,167.555 239.453,166.354 239.571 C 163.280 239.873,160.596 234.141,160.021 226.041 C 159.649 220.808,157.912 217.398,153.397 213.038 C 151.789 211.486,151.890 211.412,156.059 211.097 C 161.960 210.651,165.530 208.802,167.079 205.391 C 168.654 201.923,167.877 191.574,165.771 187.981 C 163.855 184.713,158.614 181.509,157.312 182.811 M156.177 192.315 C 160.427 196.214,160.448 202.168,156.221 205.036 L 154.531 206.182 147.896 206.387 C 144.246 206.500,140.806 206.506,140.252 206.400 L 139.244 206.207 139.344 198.752 L 139.444 191.296 144.815 191.096 C 147.769 190.985,151.147 190.860,152.323 190.818 C 154.366 190.744,154.537 190.811,156.177 192.315 M234.198 194.522 C 234.028 194.785,233.207 196.580,232.374 198.512 L 230.859 202.024 232.307 202.672 C 235.827 204.248,236.636 205.491,236.654 209.352 L 236.667 212.222 240.689 212.222 L 244.712 212.222 244.945 210.278 C 245.603 204.805,244.598 201.741,240.950 198.093 C 238.162 195.305,234.830 193.543,234.198 194.522 M186.106 201.757 C 165.407 209.141,170.581 241.687,192.291 240.666 C 208.325 239.912,215.126 217.979,203.029 206.035 C 198.648 201.709,191.387 199.873,186.106 201.757 M271.481 202.821 C 271.481 204.330,271.647 204.325,267.963 202.922 C 262.333 200.778,256.126 202.682,253.596 207.331 C 249.847 214.219,250.226 233.670,254.201 238.384 C 256.937 241.629,262.513 242.087,269.049 239.603 C 271.531 238.659,271.481 238.640,271.481 240.556 L 271.481 242.222 277.963 242.222 L 284.444 242.222 284.444 221.852 L 284.444 201.481 277.963 201.481 L 271.481 201.481 271.481 202.821 M267.940 212.448 C 271.548 213.467,271.481 213.258,271.481 223.552 L 271.481 232.531 269.812 233.169 C 267.567 234.026,262.105 233.766,260.306 232.715 C 256.638 230.573,254.968 222.080,257.307 217.457 C 260.000 212.135,262.562 210.928,267.940 212.448 M195.821 212.910 C 204.187 217.178,201.350 229.835,191.964 230.120 C 185.016 230.331,180.336 222.511,183.835 216.539 C 186.261 212.401,191.634 210.774,195.821 212.910 M224.707 216.522 L 223.404 219.647 224.428 220.177 C 224.992 220.468,226.601 220.985,228.004 221.326 C 235.975 223.260,238.788 230.528,233.081 234.439 C 228.751 237.406,224.444 234.545,224.444 228.703 L 224.444 225.887 222.563 225.999 L 220.681 226.111 219.102 229.815 C 218.233 231.852,217.222 234.426,216.855 235.536 L 216.188 237.553 217.446 238.635 C 224.827 244.986,236.063 244.413,241.734 237.397 C 249.369 227.951,246.635 219.297,235.116 216.447 C 233.059 215.938,230.774 215.263,230.039 214.948 C 229.305 214.633,228.098 214.155,227.357 213.886 L 226.011 213.396 224.707 216.522 " stroke="none" fill="#faeaf2" fill-rule="evenodd"></path><path id="path2" d="M153.704 182.408 L 151.667 182.880 154.259 182.895 C 156.666 182.910,159.661 182.317,157.530 182.248 C 157.089 182.234,156.505 182.158,156.234 182.080 C 155.963 182.001,154.824 182.149,153.704 182.408 M277.407 183.008 C 275.145 183.907,272.859 187.768,274.126 188.550 C 274.741 188.931,275.556 188.258,275.556 187.368 C 275.556 186.215,277.454 184.441,278.940 184.205 C 280.706 183.924,281.852 184.977,281.852 186.879 C 281.852 188.316,282.691 188.562,283.455 187.349 C 285.120 184.706,280.849 181.639,277.407 183.008 M311.637 183.291 C 310.281 184.118,309.259 186.093,309.259 187.887 C 309.259 190.244,310.852 190.006,311.227 187.593 C 311.776 184.050,317.167 183.374,317.955 186.748 C 318.157 187.613,318.442 189.205,318.491 189.748 C 318.581 190.742,320.195 189.714,320.303 188.594 C 320.708 184.379,315.290 181.063,311.637 183.291 M163.633 185.351 C 166.979 188.373,168.338 192.959,167.975 200.000 C 167.843 202.546,167.746 205.591,167.759 206.767 C 167.815 212.094,165.016 214.627,159.074 214.629 C 156.358 214.629,155.741 214.733,155.741 215.185 C 155.741 215.528,156.024 215.701,156.481 215.638 C 156.889 215.581,158.916 215.384,160.987 215.199 C 170.558 214.343,173.640 209.124,171.766 196.944 C 171.547 195.516,171.599 195.185,172.044 195.185 C 174.214 195.185,164.760 184.194,162.499 184.087 C 162.346 184.080,162.856 184.648,163.633 185.351 M90.370 187.438 C 87.824 188.023,84.429 188.868,82.826 189.315 L 79.912 190.128 81.530 190.595 C 100.014 195.929,105.931 199.255,109.788 206.481 C 112.927 212.363,123.552 219.259,129.473 219.259 C 130.038 219.259,130.373 219.602,130.649 220.463 C 130.933 221.346,131.046 217.836,131.073 207.293 C 131.103 195.886,131.016 192.976,130.648 193.195 C 130.394 193.347,129.735 193.799,129.185 194.199 C 127.503 195.423,124.994 195.609,124.028 194.580 C 121.752 192.158,109.922 190.700,103.158 192.008 C 99.691 192.679,98.399 191.847,96.157 187.500 C 95.816 186.838,95.416 186.314,95.268 186.335 C 95.121 186.357,92.917 186.853,90.370 187.438 M147.222 191.130 C 144.370 191.274,141.495 191.411,140.833 191.436 L 139.630 191.481 139.630 198.889 L 139.630 206.296 146.781 206.296 C 155.214 206.296,154.443 206.664,157.136 201.359 C 159.052 197.582,159.148 197.268,158.762 195.989 C 158.165 194.005,154.800 190.722,153.450 190.805 C 152.877 190.840,150.074 190.987,147.222 191.130 M230.019 204.537 C 229.568 205.606,228.875 207.290,228.479 208.279 L 227.759 210.076 228.822 209.013 C 229.939 207.895,233.536 206.546,235.278 206.591 C 237.145 206.639,236.218 205.106,233.333 203.374 C 231.381 202.202,230.939 202.357,230.019 204.537 M244.970 203.568 C 245.494 204.924,245.562 206.154,245.283 209.259 L 245.000 212.407 243.802 212.292 L 242.604 212.176 243.709 213.282 C 244.364 213.937,244.815 214.776,244.815 215.342 C 244.815 216.261,244.896 216.296,247.037 216.296 L 249.259 216.296 249.334 213.796 C 249.451 209.831,249.290 208.551,248.466 206.909 C 247.281 204.547,244.216 201.618,244.970 203.568 M207.433 211.967 C 214.770 227.694,200.670 245.777,185.549 240.032 C 182.382 238.828,184.137 241.525,187.674 243.295 C 205.926 252.434,222.916 225.800,208.108 211.262 L 206.256 209.444 207.433 211.967 M284.815 225.926 L 284.815 242.222 278.217 242.222 C 271.901 242.222,271.537 242.182,269.658 241.276 C 267.711 240.336,267.678 240.334,265.164 240.905 C 263.771 241.222,262.123 241.481,261.501 241.481 C 259.412 241.481,260.226 244.534,262.482 245.161 C 265.072 245.880,271.160 244.999,274.148 243.474 C 275.545 242.760,275.556 242.769,275.556 244.630 L 275.556 246.296 282.037 246.296 L 288.519 246.296 288.519 227.963 L 288.519 209.630 286.667 209.630 L 284.815 209.630 284.815 225.926 M226.775 212.236 C 226.547 212.840,226.495 213.333,226.659 213.333 C 226.963 213.333,227.547 211.498,227.316 211.267 C 227.246 211.197,227.002 211.633,226.775 212.236 M263.531 213.486 C 259.293 217.724,257.457 232.963,261.184 232.963 C 261.338 232.963,261.289 232.506,261.077 231.947 C 258.330 224.721,263.350 215.218,269.471 216.057 C 272.971 216.537,271.088 213.450,267.279 212.464 L 265.114 211.904 263.531 213.486 M187.425 214.427 C 182.083 219.769,181.667 224.612,186.252 228.104 L 187.503 229.058 187.215 227.770 C 185.735 221.167,190.060 215.990,196.734 216.377 L 199.591 216.542 198.836 215.482 C 197.496 213.600,194.596 212.230,191.944 212.226 L 189.630 212.222 187.425 214.427 M183.652 217.253 C 183.239 218.187,182.974 219.024,183.064 219.114 C 183.154 219.203,183.575 218.439,184.001 217.416 C 184.968 215.088,184.671 214.949,183.652 217.253 M157.273 217.222 C 159.310 220.551,160.000 222.366,160.003 224.404 C 160.012 231.555,163.238 239.630,166.085 239.630 C 166.154 239.630,165.964 238.921,165.664 238.056 C 164.832 235.651,164.074 231.290,164.074 228.902 C 164.074 226.422,163.456 224.749,161.477 221.873 C 159.840 219.493,156.196 215.461,157.273 217.222 M140.463 218.039 L 139.630 218.200 139.630 232.248 L 139.630 246.296 141.667 246.296 L 143.704 246.296 143.719 244.907 L 143.733 243.519 144.286 244.537 C 144.987 245.829,145.259 245.814,147.254 244.382 C 149.200 242.984,149.156 243.294,147.732 240.979 C 146.657 239.233,146.590 238.929,146.796 236.722 L 147.018 234.346 145.361 234.573 L 143.704 234.801 143.704 230.578 C 143.704 224.302,145.402 221.456,148.693 222.213 C 150.698 222.675,150.695 222.555,148.642 220.438 C 146.352 218.077,143.939 217.370,140.463 218.039 M223.704 220.475 C 223.704 222.199,233.943 227.291,235.094 226.140 C 235.911 225.324,231.572 222.436,228.333 221.639 C 226.907 221.289,225.282 220.772,224.722 220.491 C 223.881 220.070,223.704 220.067,223.704 220.475 M246.044 226.511 C 246.335 228.302,245.747 231.282,244.699 233.333 C 244.041 234.623,243.910 235.293,244.123 236.296 C 245.063 240.733,240.812 244.671,236.496 243.361 C 234.823 242.853,235.054 242.861,230.741 243.173 C 228.009 243.370,227.211 243.278,224.709 242.476 L 221.825 241.551 222.507 242.720 C 224.625 246.347,233.271 248.329,239.091 246.522 C 248.404 243.631,254.109 228.315,246.894 225.571 L 245.826 225.165 246.044 226.511 M226.296 234.005 C 226.296 234.310,227.577 235.161,228.056 235.173 C 229.041 235.198,228.464 234.150,227.407 233.995 C 226.796 233.905,226.296 233.910,226.296 234.005 M166.548 243.095 C 165.728 243.717,164.985 243.889,163.106 243.889 C 160.735 243.889,160.711 243.899,160.939 244.815 C 161.650 247.680,167.645 249.163,170.624 247.211 C 171.964 246.334,171.289 243.704,169.725 243.704 C 169.393 243.704,168.778 243.388,168.357 243.002 C 167.606 242.312,167.575 242.314,166.548 243.095 " stroke="none" fill="#37493f" fill-rule="evenodd"></path><path id="path3" d="M127.963 116.296 C 127.249 116.603,127.251 116.616,128.034 116.641 C 128.480 116.655,128.948 116.500,129.074 116.296 C 129.345 115.858,128.982 115.858,127.963 116.296 M122.468 118.006 C 121.460 118.552,121.444 118.604,122.063 119.288 C 122.888 120.200,123.093 120.195,122.600 119.274 C 122.274 118.664,122.376 118.459,123.236 117.992 C 123.799 117.687,124.093 117.437,123.889 117.437 C 123.685 117.437,123.046 117.693,122.468 118.006 M124.074 122.904 C 124.074 123.076,124.714 123.408,125.496 123.642 C 127.715 124.307,129.939 126.145,131.421 128.540 C 132.167 129.746,132.889 130.734,133.025 130.737 C 133.517 130.745,134.867 128.140,134.700 127.504 C 134.540 126.889,134.528 126.890,134.487 127.513 C 134.326 130.004,132.759 130.262,131.586 127.990 C 130.385 125.664,124.074 121.391,124.074 122.904 M296.667 163.388 C 292.139 163.805,287.519 164.662,284.564 165.632 L 282.225 166.400 281.456 165.422 C 280.006 163.579,278.858 163.992,273.882 168.148 C 267.704 173.307,267.280 174.431,270.235 177.813 C 270.683 178.325,270.581 178.776,269.472 181.209 C 268.769 182.753,267.663 185.688,267.015 187.732 L 265.837 191.449 263.752 190.037 C 257.213 185.611,250.607 184.522,252.912 188.250 C 253.355 188.967,253.588 189.808,253.469 190.262 C 253.171 191.402,254.190 193.230,256.499 195.692 C 257.620 196.887,259.074 198.785,259.731 199.908 L 260.926 201.951 263.333 202.026 C 264.753 202.071,266.652 202.443,267.963 202.935 C 271.661 204.322,271.481 204.328,271.481 202.821 L 271.481 201.481 277.963 201.481 L 284.444 201.481 284.444 203.519 L 284.444 205.556 286.667 205.556 L 288.889 205.556 288.889 207.778 L 288.889 210.000 290.926 210.000 L 292.963 210.000 292.963 225.688 L 292.963 241.376 295.913 241.578 C 302.035 241.997,321.165 240.696,322.687 239.756 C 322.841 239.661,323.674 240.148,324.539 240.839 C 325.404 241.529,327.611 243.028,329.444 244.170 C 331.278 245.312,333.267 246.758,333.866 247.382 C 334.942 248.507,334.994 248.519,338.773 248.519 C 343.018 248.519,343.205 248.382,341.721 246.370 C 340.965 245.345,340.819 244.614,340.619 240.835 C 340.491 238.441,340.281 235.796,340.152 234.958 L 339.916 233.434 341.806 233.616 C 344.046 233.831,345.596 233.277,346.820 231.823 C 347.630 230.860,347.804 230.808,349.052 231.152 C 351.411 231.804,354.086 229.922,354.638 227.222 C 354.830 226.285,354.752 226.350,354.139 227.636 C 353.239 229.528,352.076 230.372,350.381 230.365 C 348.491 230.356,348.239 230.048,348.265 227.778 C 348.302 224.452,346.245 221.629,344.474 222.577 C 342.831 223.456,343.513 226.933,345.796 229.316 L 346.737 230.300 345.971 231.066 C 342.855 234.182,338.884 231.550,339.585 226.834 C 340.118 223.253,340.114 218.163,339.576 214.116 C 338.898 209.021,341.636 204.473,349.760 197.196 C 353.142 194.166,354.232 192.696,353.845 191.686 C 353.716 191.350,354.030 190.568,354.589 189.836 C 355.120 189.138,355.556 188.307,355.556 187.988 C 355.556 186.375,346.948 188.169,341.194 190.982 C 339.213 191.949,337.451 192.811,337.278 192.895 C 337.105 192.980,337.084 190.655,337.230 187.728 L 337.497 182.407 339.257 180.000 C 343.345 174.410,343.193 173.056,338.092 169.592 C 336.894 168.778,334.901 167.208,333.662 166.103 C 330.566 163.340,328.109 162.969,326.115 164.962 L 325.258 165.820 322.625 164.962 C 316.942 163.109,306.539 162.478,296.667 163.388 M281.260 182.739 C 282.872 183.412,283.704 184.647,283.704 186.366 C 283.704 188.886,281.762 189.078,281.624 186.571 C 281.446 183.343,276.859 183.776,275.858 187.116 C 275.107 189.623,273.384 189.414,273.860 186.874 C 274.439 183.790,278.433 181.558,281.260 182.739 M317.029 183.056 C 319.504 184.320,320.831 186.703,320.446 189.189 C 320.142 191.146,318.148 190.388,318.148 188.316 C 318.148 187.542,317.797 186.677,317.189 185.954 C 315.389 183.815,311.481 184.748,311.481 187.316 C 311.481 188.465,310.845 189.630,310.218 189.630 C 308.570 189.630,308.618 186.375,310.294 184.383 C 312.155 182.171,314.424 181.724,317.029 183.056 M299.619 184.290 C 304.531 185.749,307.136 188.877,307.150 193.333 C 307.185 204.380,282.620 205.274,281.918 194.251 C 281.448 186.859,290.712 181.645,299.619 184.290 M96.887 188.611 C 97.719 190.066,99.768 192.219,100.303 192.199 C 100.773 192.181,100.732 192.097,100.136 191.856 C 99.701 191.681,98.798 190.775,98.128 189.843 C 96.992 188.261,96.288 187.562,96.887 188.611 M109.549 191.385 C 110.626 191.460,112.292 191.459,113.253 191.383 C 114.214 191.307,113.333 191.245,111.296 191.246 C 109.259 191.247,108.473 191.310,109.549 191.385 M139.415 198.889 C 139.415 203.065,139.469 204.773,139.536 202.685 C 139.602 200.597,139.602 197.181,139.536 195.093 C 139.469 193.005,139.415 194.713,139.415 198.889 M121.998 193.173 C 122.792 193.464,123.699 193.911,124.014 194.166 C 124.481 194.544,124.531 194.537,124.285 194.129 C 123.956 193.582,121.790 192.577,121.030 192.619 C 120.769 192.633,121.205 192.883,121.998 193.173 M129.519 193.389 C 128.949 193.814,127.616 194.384,126.556 194.656 L 124.630 195.151 126.296 194.948 C 127.698 194.777,132.034 192.587,130.926 192.609 C 130.722 192.613,130.089 192.964,129.519 193.389 M167.879 197.407 C 167.879 198.324,167.951 198.699,168.039 198.241 C 168.127 197.782,168.127 197.032,168.039 196.574 C 167.951 196.116,167.879 196.491,167.879 197.407 M230.194 202.935 C 230.060 203.358,229.800 203.704,229.616 203.704 C 229.433 203.704,229.389 203.981,229.519 204.320 C 229.649 204.659,229.602 204.842,229.415 204.726 C 229.227 204.610,229.054 204.958,229.030 205.499 C 228.997 206.237,229.207 205.987,229.877 204.489 C 230.367 203.393,230.694 202.422,230.603 202.332 C 230.512 202.241,230.328 202.512,230.194 202.935 M228.374 206.820 C 228.529 207.226,228.499 207.439,228.304 207.319 C 228.116 207.203,227.936 207.550,227.904 208.091 L 227.845 209.074 228.400 208.015 C 228.818 207.217,228.850 206.851,228.530 206.533 C 228.210 206.216,228.171 206.287,228.374 206.820 M236.415 209.259 C 236.415 210.583,236.482 211.125,236.564 210.463 C 236.646 209.801,236.646 208.718,236.564 208.056 C 236.482 207.394,236.415 207.935,236.415 209.259 M227.263 209.413 C 227.418 209.818,227.388 210.032,227.193 209.911 C 227.005 209.795,226.825 210.143,226.793 210.684 L 226.734 211.667 227.289 210.607 C 227.707 209.810,227.739 209.444,227.419 209.126 C 227.099 208.809,227.060 208.880,227.263 209.413 M226.094 212.391 C 226.103 212.875,226.202 213.363,226.313 213.474 C 226.425 213.585,226.508 213.279,226.498 212.795 C 226.489 212.310,226.390 211.822,226.279 211.711 C 226.168 211.600,226.085 211.906,226.094 212.391 M271.110 218.426 C 271.109 220.080,271.026 220.230,269.721 220.926 C 265.949 222.939,264.670 226.865,266.336 231.318 C 267.257 233.778,267.660 233.991,269.829 233.163 L 271.481 232.531 271.481 224.599 C 271.481 220.236,271.398 216.667,271.296 216.667 C 271.194 216.667,271.111 217.458,271.110 218.426 M250.842 218.519 C 250.842 219.435,250.914 219.810,251.002 219.352 C 251.090 218.894,251.090 218.144,251.002 217.685 C 250.914 217.227,250.842 217.602,250.842 218.519 M139.425 230.185 C 139.425 236.907,139.475 239.710,139.536 236.412 C 139.598 233.115,139.598 227.615,139.537 224.190 C 139.475 220.765,139.425 223.463,139.425 230.185 M346.437 224.167 C 347.191 225.358,347.459 227.046,347.097 228.333 L 346.785 229.444 345.615 227.613 C 344.224 225.435,344.008 223.333,345.177 223.333 C 345.579 223.333,346.146 223.708,346.437 224.167 M228.801 235.447 C 229.261 235.536,229.928 235.532,230.282 235.440 C 230.636 235.347,230.259 235.274,229.444 235.279 C 228.630 235.283,228.340 235.359,228.801 235.447 M181.481 238.634 C 181.481 238.698,182.023 239.240,182.685 239.838 L 183.889 240.926 182.801 239.722 C 181.787 238.600,181.481 238.348,181.481 238.634 M211.469 244.352 L 209.444 246.481 211.574 244.457 C 213.553 242.576,213.873 242.222,213.598 242.222 C 213.541 242.222,212.582 243.181,211.469 244.352 M162.315 243.959 C 162.671 244.052,163.255 244.052,163.611 243.959 C 163.968 243.866,163.676 243.790,162.963 243.790 C 162.250 243.790,161.958 243.866,162.315 243.959 M207.037 247.407 C 205.917 247.999,205.131 248.491,205.290 248.501 C 205.684 248.525,209.259 246.700,209.259 246.475 C 209.259 246.228,209.311 246.206,207.037 247.407 M278.334 247.748 C 277.696 247.997,277.755 248.061,278.759 248.208 C 279.615 248.334,279.874 248.250,279.737 247.893 C 279.528 247.350,279.391 247.336,278.334 247.748 " stroke="none" fill="#ed938a" fill-rule="evenodd"></path><path id="path4" d="M231.667 144.560 C 227.068 145.704,219.738 151.715,211.296 161.266 C 209.870 162.878,208.451 164.464,208.143 164.789 C 207.492 165.476,205.926 167.639,205.926 167.852 C 205.926 167.932,206.551 168.037,207.315 168.087 C 209.756 168.245,215.150 169.921,222.037 172.661 C 225.150 173.899,235.018 178.863,235.782 179.575 C 238.295 181.916,238.712 181.828,239.021 178.889 C 241.518 155.158,238.864 142.770,231.667 144.560 M202.473 174.122 C 201.742 175.255,199.822 179.958,200.028 180.111 C 200.367 180.363,233.824 194.444,233.872 194.355 C 236.808 188.765,236.816 187.448,233.929 185.522 C 232.889 184.827,231.954 184.173,231.852 184.067 C 230.137 182.284,212.086 174.836,207.222 173.904 C 203.485 173.188,203.062 173.208,202.473 174.122 M313.796 182.478 C 314.153 182.571,314.736 182.571,315.093 182.478 C 315.449 182.384,315.157 182.308,314.444 182.308 C 313.731 182.308,313.440 182.384,313.796 182.478 M290.379 184.297 C 279.502 187.221,278.663 199.262,289.185 201.445 C 298.813 203.442,307.170 199.669,307.150 193.333 C 307.128 186.224,299.169 181.935,290.379 184.297 M313.796 184.700 C 314.153 184.793,314.736 184.793,315.093 184.700 C 315.449 184.607,315.157 184.530,314.444 184.530 C 313.731 184.530,313.440 184.607,313.796 184.700 M79.259 190.380 C 79.259 190.578,79.870 190.741,80.617 190.741 C 82.205 190.741,82.151 190.569,80.463 190.248 C 79.771 190.116,79.259 190.172,79.259 190.380 M172.130 194.073 C 172.747 194.765,172.714 195.185,172.044 195.185 C 171.599 195.185,171.547 195.516,171.766 196.944 C 173.652 209.201,170.541 214.399,160.855 215.174 C 158.712 215.346,156.776 215.668,156.553 215.891 C 156.260 216.184,156.277 216.296,156.614 216.296 C 156.873 216.296,156.963 216.487,156.816 216.724 C 156.663 216.972,156.714 217.052,156.938 216.913 C 157.345 216.662,159.825 219.405,161.744 222.231 C 163.452 224.743,164.074 226.525,164.074 228.902 C 164.074 233.660,165.687 239.506,166.950 239.329 C 168.111 239.166,168.107 241.245,166.944 242.566 C 166.218 243.392,166.210 243.430,166.884 242.865 C 167.624 242.244,167.686 242.248,168.331 242.960 C 168.701 243.369,169.314 243.704,169.692 243.704 C 170.072 243.704,170.711 244.244,171.115 244.907 L 171.849 246.111 171.850 244.757 C 171.852 243.589,171.751 243.429,171.118 243.595 C 169.926 243.906,168.671 239.543,168.309 233.828 C 168.019 229.240,166.631 226.502,162.099 221.579 C 160.422 219.757,160.407 219.768,164.831 219.499 C 170.569 219.149,172.785 217.912,173.883 214.444 C 174.238 213.324,174.926 211.678,175.412 210.787 C 177.632 206.716,175.758 196.640,172.294 194.028 C 171.763 193.627,171.738 193.634,172.130 194.073 M158.519 198.519 C 158.202 199.110,158.237 199.259,158.691 199.259 C 159.012 199.259,159.259 198.938,159.259 198.519 C 159.259 198.111,159.182 197.778,159.087 197.778 C 158.992 197.778,158.737 198.111,158.519 198.519 M167.879 200.370 C 167.879 201.287,167.951 201.662,168.039 201.204 C 168.127 200.745,168.127 199.995,168.039 199.537 C 167.951 199.079,167.879 199.454,167.879 200.370 M243.705 201.481 C 244.199 202.194,244.740 202.835,244.908 202.906 C 245.903 203.324,247.567 205.154,248.341 206.682 C 249.288 208.551,249.454 209.740,249.334 213.796 L 249.259 216.296 247.037 216.296 C 244.896 216.296,244.815 216.261,244.815 215.342 C 244.815 214.781,244.369 213.941,243.732 213.305 C 241.860 211.432,240.741 211.782,240.741 214.241 L 240.741 216.259 242.870 216.370 C 244.983 216.481,244.999 216.490,244.883 217.564 C 244.612 220.083,244.923 220.370,247.917 220.370 L 250.634 220.370 250.873 217.798 C 251.005 216.382,251.371 214.112,251.686 212.752 C 252.380 209.758,252.210 209.432,247.338 204.436 C 243.518 200.521,242.421 199.628,243.705 201.481 M206.383 201.656 C 205.310 202.155,203.842 203.014,203.121 203.564 L 201.810 204.564 203.683 206.460 C 204.713 207.503,205.556 208.485,205.556 208.642 C 205.556 208.799,206.529 209.829,207.718 210.930 C 219.993 222.294,211.658 245.185,195.245 245.185 C 190.792 245.185,183.704 241.868,183.704 239.785 C 183.704 239.359,182.155 238.148,181.610 238.148 C 181.463 238.148,181.832 238.660,182.431 239.285 L 183.519 240.422 183.519 245.674 C 183.519 259.914,190.860 262.368,200.471 251.339 C 201.605 250.037,202.731 249.152,203.619 248.864 C 214.606 245.302,220.371 233.541,216.525 222.532 C 215.651 220.031,215.561 219.349,215.769 216.791 C 216.494 207.865,215.441 203.335,212.221 201.525 C 210.401 200.503,208.782 200.539,206.383 201.656 M167.075 205.777 C 166.863 208.050,161.628 210.721,156.610 211.116 C 152.102 211.470,152.126 211.448,154.010 213.492 C 154.910 214.468,155.636 214.985,155.780 214.752 C 155.940 214.493,156.992 214.441,158.845 214.601 C 164.472 215.088,168.909 210.956,167.491 206.548 C 167.283 205.900,167.096 205.553,167.075 205.777 M284.533 223.981 L 284.622 242.407 284.722 226.019 L 284.823 209.630 286.671 209.630 L 288.519 209.630 288.519 227.963 L 288.519 246.296 282.037 246.296 L 275.556 246.296 275.556 244.630 C 275.556 242.769,275.545 242.760,274.148 243.474 C 271.270 244.943,265.040 245.887,262.683 245.211 C 261.240 244.797,261.208 244.942,262.397 246.501 C 265.057 249.988,270.556 250.511,277.775 247.964 C 279.596 247.321,279.984 247.564,279.994 249.352 L 280.000 250.370 286.481 250.370 L 292.963 250.370 292.963 230.185 L 292.963 210.000 290.926 210.000 L 288.889 210.000 288.889 207.778 L 288.889 205.556 286.667 205.556 L 284.444 205.556 284.533 223.981 M142.134 206.558 C 142.595 206.647,143.261 206.643,143.615 206.551 C 143.970 206.458,143.593 206.386,142.778 206.390 C 141.963 206.394,141.673 206.470,142.134 206.558 M232.453 207.157 C 230.101 207.858,227.115 209.954,227.673 210.513 C 227.799 210.638,227.712 210.741,227.481 210.741 C 227.249 210.741,227.144 210.960,227.247 211.228 C 227.350 211.496,227.286 212.116,227.104 212.606 C 226.795 213.444,226.922 213.556,229.209 214.473 L 231.644 215.448 232.144 214.484 C 232.919 212.990,233.686 212.285,235.014 211.847 C 236.205 211.454,236.238 211.386,236.358 209.080 C 236.508 206.204,236.185 206.045,232.453 207.157 M244.844 211.358 C 244.828 211.799,244.606 212.245,244.352 212.347 C 243.989 212.494,243.992 212.540,244.363 212.563 C 244.926 212.598,245.335 211.704,245.064 211.031 C 244.959 210.769,244.860 210.917,244.844 211.358 M261.667 212.284 C 256.146 215.337,254.568 225.870,258.805 231.389 C 259.423 232.195,259.441 232.112,259.326 228.907 C 259.099 222.563,260.852 216.166,263.557 213.460 L 265.166 211.852 263.787 211.863 C 263.028 211.869,262.074 212.059,261.667 212.284 M187.948 212.918 C 186.184 213.720,184.679 215.390,184.076 217.216 C 183.838 217.936,183.526 218.453,183.383 218.364 C 183.239 218.275,183.090 218.482,183.051 218.823 C 183.012 219.165,182.898 220.111,182.798 220.926 C 182.637 222.241,182.651 222.276,182.922 221.234 C 183.427 219.294,185.132 216.719,187.445 214.407 C 188.647 213.205,189.588 212.226,189.537 212.230 C 189.486 212.235,188.771 212.544,187.948 212.918 M270.742 214.147 C 271.777 215.397,271.181 216.292,269.471 216.057 C 263.854 215.287,259.773 221.393,260.679 229.210 C 261.077 232.637,261.395 233.134,263.426 233.492 L 264.815 233.737 264.815 230.628 C 264.815 226.443,266.978 222.204,269.801 220.858 C 271.250 220.167,272.092 215.183,270.929 214.180 C 270.614 213.909,270.533 213.895,270.742 214.147 M192.051 217.058 C 186.945 219.605,184.770 228.270,188.896 229.632 C 195.478 231.804,202.532 224.883,200.380 218.364 C 199.652 216.158,195.241 215.466,192.051 217.058 M209.365 221.296 C 209.368 222.315,209.440 222.688,209.525 222.125 C 209.610 221.562,209.608 220.728,209.520 220.273 C 209.432 219.817,209.362 220.278,209.365 221.296 M223.168 220.338 C 222.995 220.619,223.120 221.056,223.475 221.411 C 224.110 222.047,224.203 221.758,223.742 220.580 C 223.532 220.046,223.387 219.985,223.168 220.338 M146.463 222.130 C 144.639 223.430,143.704 226.284,143.704 230.554 L 143.704 234.801 145.361 234.573 L 147.018 234.346 146.793 236.762 C 146.615 238.665,146.696 239.360,147.172 240.041 C 147.742 240.854,147.778 240.483,147.778 233.829 C 147.778 225.948,147.647 226.315,150.463 226.301 C 151.129 226.298,151.481 226.100,151.481 225.729 C 151.481 224.642,150.433 222.663,149.756 222.471 C 148.121 222.007,146.824 221.873,146.463 222.130 M225.159 223.297 C 226.974 225.845,235.926 230.687,235.926 229.120 C 235.926 226.699,235.624 226.404,232.284 225.567 C 230.459 225.109,228.192 224.220,226.997 223.494 C 224.445 221.944,224.175 221.915,225.159 223.297 M245.262 223.825 C 245.544 224.743,246.031 225.239,247.172 225.769 C 253.918 228.906,248.155 243.708,239.091 246.522 C 232.756 248.489,220.455 245.010,222.433 241.811 C 222.598 241.543,222.550 241.464,222.311 241.612 C 222.093 241.746,221.859 241.730,221.791 241.576 C 221.723 241.422,221.083 240.974,220.370 240.579 C 218.637 239.620,219.103 240.236,223.141 244.242 C 233.210 254.230,244.367 254.115,251.516 243.949 C 254.127 240.237,254.377 239.235,253.228 237.095 C 252.240 235.253,251.481 232.250,251.481 230.176 C 251.481 229.085,251.049 228.464,248.395 225.750 C 244.935 222.212,244.728 222.085,245.262 223.825 M224.648 231.204 C 224.937 232.536,225.742 233.864,226.303 233.935 C 226.503 233.961,227.083 234.002,227.593 234.028 C 228.148 234.056,228.519 234.296,228.519 234.630 C 228.519 235.276,231.294 235.415,232.222 234.815 C 232.659 234.533,232.569 234.455,231.806 234.450 C 231.271 234.447,230.292 234.336,229.630 234.204 L 228.426 233.963 228.631 231.982 L 228.835 230.000 226.610 230.000 L 224.386 230.000 224.648 231.204 M203.131 236.019 L 201.667 237.593 203.241 236.129 C 204.106 235.323,204.815 234.615,204.815 234.554 C 204.815 234.274,204.492 234.555,203.131 236.019 M242.463 236.586 C 240.594 239.283,236.850 242.222,235.283 242.222 C 234.387 242.222,234.822 242.893,235.981 243.297 C 240.478 244.865,244.942 241.132,244.181 236.441 C 243.921 234.840,243.658 234.863,242.463 236.586 M271.007 239.722 C 271.190 240.499,271.168 240.510,270.686 239.890 C 270.215 239.283,270.057 239.271,268.896 239.759 L 267.624 240.294 269.553 241.225 L 271.481 242.155 271.481 240.522 C 271.481 239.624,271.330 238.889,271.146 238.889 C 270.961 238.889,270.899 239.264,271.007 239.722 M257.709 241.755 C 258.140 242.360,259.046 243.278,259.724 243.795 L 260.957 244.735 260.584 243.128 C 260.290 241.861,260.013 241.475,259.272 241.299 C 258.756 241.176,258.017 240.981,257.630 240.866 C 256.968 240.668,256.972 240.721,257.709 241.755 M135.185 244.259 L 135.185 246.296 137.407 246.296 L 139.630 246.296 139.630 248.333 L 139.630 250.370 143.677 250.370 L 147.725 250.370 147.844 247.087 L 147.963 243.804 146.817 244.680 C 145.346 245.804,144.961 245.782,144.286 244.537 L 143.733 243.519 143.719 244.907 L 143.704 246.296 141.667 246.296 L 139.630 246.296 139.630 244.259 L 139.630 242.222 137.407 242.222 L 135.185 242.222 135.185 244.259 M158.148 243.182 C 158.148 243.805,165.176 250.351,166.655 251.105 C 168.806 252.203,169.173 252.013,170.384 249.169 C 171.426 246.723,171.431 246.683,170.607 247.222 C 167.610 249.187,161.650 247.670,160.923 244.757 C 160.788 244.216,160.400 243.694,160.061 243.596 C 159.722 243.498,159.153 243.297,158.796 243.151 C 158.440 243.004,158.148 243.018,158.148 243.182 M163.037 266.921 C 161.570 270.486,161.568 270.415,163.138 271.793 C 166.367 274.628,181.401 281.914,185.891 282.819 C 186.380 282.917,187.047 283.135,187.372 283.303 C 188.384 283.824,193.651 284.870,194.643 284.747 C 195.437 284.648,195.810 284.126,196.994 281.446 L 198.402 278.263 181.976 271.318 C 172.942 267.499,165.253 264.296,164.889 264.201 C 164.360 264.062,163.991 264.605,163.037 266.921 M158.700 277.187 C 158.396 277.919,157.898 279.122,157.593 279.860 C 156.565 282.342,156.907 282.874,161.229 285.509 C 166.435 288.684,178.871 294.122,182.962 295.014 C 183.268 295.081,184.269 295.365,185.185 295.646 C 186.102 295.926,187.694 296.198,188.723 296.250 L 190.594 296.343 191.916 293.403 L 193.239 290.462 191.527 290.244 C 190.585 290.124,189.481 289.941,189.074 289.838 C 188.667 289.735,187.583 289.471,186.667 289.251 C 179.431 287.514,164.906 280.768,160.890 277.280 L 159.251 275.856 158.700 277.187 " stroke="none" fill="#cc595b" fill-rule="evenodd"></path></g></svg>